<svg width="56" height="56" viewBox="0 0 56 56" fill="none" xmlns="http://www.w3.org/2000/svg">
<path d="M40.0754 30.205C39.8809 29.6007 39.5199 29.0634 39.034 28.6548C38.548 28.2462 37.9567 27.9829 37.3279 27.895L32.9879 27.265L31.0454 23.3275C30.7652 22.7591 30.3315 22.2805 29.7933 21.9459C29.2552 21.6112 28.6341 21.4338 28.0004 21.4338C27.3667 21.4338 26.7457 21.6112 26.2075 21.9459C25.6694 22.2805 25.2357 22.7591 24.9554 23.3275L23.0129 27.265L18.6729 27.895C18.0451 27.9882 17.4557 28.2547 16.971 28.6646C16.4863 29.0744 16.1255 29.6112 15.9291 30.2148C15.7328 30.8184 15.7086 31.4648 15.8595 32.0814C16.0103 32.698 16.3301 33.2602 16.7829 33.705L19.9154 36.75L19.2504 41.09C19.1663 41.5773 19.1897 42.077 19.3188 42.5543C19.448 43.0316 19.6798 43.4749 19.9982 43.8533C20.3165 44.2316 20.7137 44.5359 21.1619 44.7448C21.6101 44.9536 22.0985 45.0621 22.5929 45.0625C23.1467 45.062 23.6925 44.93 24.1854 44.6775L28.0004 42.63L31.8854 44.6775C32.4449 44.9564 33.0705 45.0754 33.6933 45.0215C34.3161 44.9675 34.9119 44.7426 35.415 44.3716C35.9182 44.0005 36.3091 43.4978 36.5447 42.9188C36.7804 42.3398 36.8515 41.7069 36.7504 41.09L36.0854 36.75L39.2179 33.6875C39.6734 33.2461 39.9955 32.6854 40.1471 32.0695C40.2988 31.4536 40.2739 30.8074 40.0754 30.205Z" fill="#39B715"/>
<path d="M36.6254 2.00002H36.6266H52.4989C52.7646 2.00051 53.0255 2.07159 53.2547 2.20597C53.483 2.33979 53.6718 2.53161 53.802 2.76193C53.9235 2.99441 53.982 3.25474 53.9715 3.51691C53.961 3.78025 53.8813 4.03615 53.7403 4.25886L53.7384 4.26199L44.0959 20.012L44.0039 20.1623L44.1146 20.2995C46.5731 23.3472 48.119 27.0284 48.5737 30.9177C49.0285 34.8069 48.3735 38.7455 46.6843 42.2782C44.9952 45.8109 42.341 48.7935 39.0284 50.8815C35.7157 52.9694 31.8799 54.0774 27.9641 54.0774C24.0484 54.0774 20.2126 52.9694 16.8999 50.8815C13.5873 48.7935 10.9331 45.8109 9.24394 42.2782C7.55483 38.7455 6.8998 34.8069 7.35454 30.9177C7.80927 27.0284 9.35522 23.3472 11.8137 20.2995L11.9244 20.1623L11.8324 20.012L2.1916 4.26484C2.06095 4.03746 1.99219 3.77979 1.99219 3.51752C1.99219 3.25422 2.0615 2.99555 2.19315 2.76752L2.19316 2.76753L2.19457 2.76502C2.32481 2.53332 2.51428 2.34039 2.74358 2.20597C2.97282 2.07159 3.23365 2.00051 3.49937 2.00002L19.3716 2.00002L19.3729 2.00002C19.6224 1.99881 19.8684 2.05991 20.0884 2.17778C20.3084 2.2956 20.4954 2.46642 20.6327 2.67477C20.6327 2.67485 20.6328 2.67493 20.6329 2.67502L26.9672 12.3866L27.0412 12.5H27.1766H27.9991H28.8216H28.9571L29.031 12.3866L35.3654 2.67502C35.3655 2.67488 35.3656 2.67474 35.3657 2.67459C35.503 2.46632 35.69 2.29557 35.9099 2.17778L35.7918 1.95741L35.9099 2.17778C36.1299 2.05991 36.3758 1.99881 36.6254 2.00002ZM37.5716 5.00002H37.4359L37.362 5.11382L32.462 12.6563L32.2677 12.9553L32.6151 13.036C33.6398 13.2741 34.6459 13.5863 35.6254 13.9703L35.8178 14.0457L35.9281 13.8709L41.2831 5.38342L41.525 5.00002H41.0716H37.5716ZM23.3832 13.036L23.7305 12.9553L23.5363 12.6563L18.6363 5.11382L18.5624 5.00002H18.4266H14.9266H14.4733L14.7152 5.38342L20.0702 13.8709L20.1805 14.0457L20.3729 13.9703C21.3524 13.5863 22.3585 13.2741 23.3832 13.036ZM11.0082 5.11683L10.9347 5.00002H10.7966H6.63164H6.18467L6.41862 5.38088L13.9436 17.6309L14.0988 17.8835L14.3216 17.6878C15.2373 16.8835 16.221 16.1602 17.2617 15.526L17.4784 15.394L17.3432 15.1793L11.0082 5.11683ZM41.6767 17.6878L41.8994 17.8835L42.0547 17.6309L49.5797 5.38088L49.8136 5.00002H49.3666H45.2016H45.0636L44.9901 5.11683L38.6551 15.1793L38.5199 15.394L38.7365 15.526C39.7773 16.1602 40.761 16.8835 41.6767 17.6878ZM18.1378 48.0086C21.0567 49.959 24.4885 51 27.9991 51C30.3301 51 32.6382 50.5409 34.7918 49.6489C36.9453 48.7569 38.902 47.4494 40.5503 45.8012C42.1985 44.1529 43.506 42.1962 44.398 40.0427C45.29 37.8891 45.7491 35.581 45.7491 33.25C45.7491 29.7394 44.7081 26.3076 42.7577 23.3886C40.8073 20.4697 38.0352 18.1946 34.7918 16.8512C31.5484 15.5077 27.9795 15.1562 24.5363 15.8411C21.0931 16.526 17.9304 18.2165 15.448 20.6989C12.9656 23.1813 11.2751 26.344 10.5902 29.7872C9.90532 33.2303 10.2568 36.7993 11.6003 40.0427C12.9437 43.286 15.2188 46.0582 18.1378 48.0086Z" fill="#27449B" stroke="white" stroke-width="0.5"/>
</svg>
