<svg width="444" height="409" viewBox="0 0 444 409" fill="none" xmlns="http://www.w3.org/2000/svg">
<g clip-path="url(#clip0_703_8130)">
<path d="M260.54 359.65C260.48 359.65 260.43 359.65 260.37 359.63C259.97 359.54 259.71 359.13 259.81 358.73C261.05 353.38 258.88 345.9 253.12 342.67C249.44 340.6 240.97 340.12 233.72 342.96C225.51 346.17 224.65 354.71 224.59 357.25C224.58 357.66 224.25 357.98 223.84 357.98H223.82C223.41 357.97 223.08 357.62 223.09 357.21C223.16 354.43 224.11 345.1 233.18 341.56C240.14 338.84 249.22 338.76 253.86 341.36C260.23 344.94 262.64 353.18 261.28 359.07C261.2 359.42 260.89 359.65 260.55 359.65H260.54Z" fill="#27449B"/>
<path d="M230.4 360.32C230.08 360.32 229.79 360.12 229.69 359.8C228.25 355.37 229.78 350.22 233.4 347.26C237.22 344.14 246.21 343.68 250.9 346.36C255.77 349.15 258.12 355.22 257.18 358.93C257.08 359.33 256.67 359.57 256.27 359.47C255.87 359.37 255.63 358.96 255.73 358.56C256.53 355.38 254.32 350.04 250.16 347.66C246.07 345.32 237.66 345.73 234.36 348.42C231.26 350.95 229.9 355.55 231.13 359.34C231.26 359.73 231.04 360.16 230.65 360.28C230.57 360.31 230.49 360.32 230.42 360.32H230.4Z" fill="#27449B"/>
<path d="M57.94 76.9C57.76 76.9 57.59 76.84 57.45 76.71C57.14 76.44 57.11 75.96 57.38 75.65L58.17 74.75C61.01 71.48 63.25 68.9 65.3 69.67L65.7 69.82C67.55 70.53 68.49 70.77 69.09 69.93C69.3 69.63 69.54 69.28 69.79 68.9C71.1 66.91 72.46 64.85 73.88 65.55C74.04 65.63 74.21 65.74 74.38 65.84C75.17 66.34 75.75 66.7 77.26 64.4C77.49 64.05 77.95 63.96 78.3 64.19C78.65 64.42 78.74 64.88 78.51 65.23C76.36 68.48 74.84 67.91 73.58 67.12C73.48 67.05 73.37 66.99 73.27 66.93C72.74 67.14 71.6 68.87 71.04 69.72C70.78 70.12 70.53 70.49 70.31 70.8C68.97 72.68 66.86 71.87 65.16 71.22L64.77 71.07C63.69 70.67 61.26 73.47 59.3 75.73L58.51 76.64C58.36 76.81 58.15 76.9 57.95 76.9H57.94Z" fill="#39B715"/>
<path d="M75.67 63.05C75.22 64.61 79.38 66.44 79.95 66.28C80.51 66.12 81.44 61.04 81.08 60.71C80.72 60.39 75.84 62.48 75.67 63.05Z" fill="#39B715"/>
<path d="M24.69 322.68C24.69 322.68 24.59 322.68 24.55 322.67C24.14 322.59 23.88 322.2 23.96 321.79C31.17 284.57 41.86 260.73 72.81 256.91C73.22 256.86 73.6 257.15 73.65 257.56C73.7 257.97 73.41 258.35 73 258.4C42.94 262.11 32.52 285.52 25.43 322.08C25.36 322.44 25.05 322.69 24.69 322.69V322.68Z" fill="#27449B"/>
<path d="M51.58 391.11C51.17 391.11 50.83 390.77 50.83 390.36C50.83 390.27 50.81 381.35 48.88 367.71C48.51 365.07 48.04 362.41 47.55 359.6C45.41 347.42 42.75 332.27 43.9 299.12C43.91 298.71 44.28 298.41 44.68 298.4C45.09 298.41 45.42 298.76 45.4 299.18C44.25 332.17 46.9 347.24 49.03 359.34C49.53 362.16 50 364.83 50.37 367.5C52.31 381.26 52.33 390.27 52.33 390.36C52.33 390.77 51.99 391.11 51.58 391.11Z" fill="#27449B"/>
<path d="M142.33 380.01C141.93 380.01 141.59 379.69 141.58 379.29C141.55 378.31 141.53 376.61 141.51 374.27C141.43 364.21 141.26 343.29 139.21 317.16C139.18 316.75 139.49 316.39 139.9 316.35C140.31 316.33 140.67 316.63 140.71 317.04C142.77 343.22 142.94 364.18 143.02 374.25C143.04 376.57 143.05 378.26 143.08 379.23C143.09 379.64 142.77 379.99 142.36 380.01H142.33Z" fill="#27449B"/>
<path d="M194.49 325.45C172.97 325.45 152 320.78 136.63 312.51C136.27 312.31 136.13 311.86 136.32 311.49C136.52 311.13 136.97 310.99 137.34 311.19C153.08 319.65 174.79 324.3 196.93 323.93C218.06 323.59 230.1 309.09 238.23 296.49C248.54 280.53 253.96 267.68 253.5 260.31C253.45 259.47 253.31 258.68 253.09 257.96C250.78 250.53 243.89 245.35 237.43 246.14C236.11 246.3 234.85 246.71 233.69 247.35C232.68 247.91 229.38 251.44 225.21 255.92C219.5 262.05 211.68 270.44 203.63 277.79C192.87 287.62 175.84 274.97 169.43 270.21C168.6 269.59 167.92 269.09 167.44 268.77C154.06 259.8 140.23 250.51 116.27 252.96C92.69 255.37 76.2 258.37 76.04 258.39C75.63 258.47 75.24 258.2 75.17 257.79C75.1 257.38 75.37 256.99 75.77 256.92C75.93 256.89 92.48 253.88 116.12 251.47C140.63 248.97 154.69 258.4 168.28 267.52C168.78 267.85 169.47 268.37 170.33 269.01C177.05 274 192.78 285.68 202.63 276.68C210.64 269.37 218.43 261.01 224.12 254.9C229.13 249.52 231.8 246.68 232.97 246.04C234.3 245.31 235.73 244.84 237.25 244.66C244.4 243.76 252.01 249.42 254.53 257.52C254.79 258.35 254.95 259.26 255.01 260.21C255.65 270.59 245.57 287.91 239.5 297.31C231.17 310.22 218.8 325.08 196.97 325.43C196.15 325.44 195.33 325.45 194.51 325.45H194.49Z" fill="#27449B"/>
<path d="M257.84 252.06C257.69 254.24 255.97 257.5 254.25 260.25C254.19 259.34 254.04 258.5 253.81 257.74C251.37 249.91 244.1 244.56 237.34 245.4C239.75 242.7 241.88 241.31 243.7 241.31C248.16 241.31 258.25 246.15 257.85 252.06H257.84Z" fill="#27449B"/>
<path d="M242.16 242.36C242.16 242.36 242.12 242.36 242.1 242.36C241.69 242.33 241.38 241.96 241.42 241.55C242.09 233.64 244.37 222.36 246.21 220.22C247.86 218.3 256.55 214.06 257.54 213.59C257.92 213.41 258.36 213.57 258.54 213.94C258.72 214.31 258.56 214.76 258.19 214.94C255.59 216.2 248.58 219.77 247.35 221.2C246.04 222.73 243.66 232.93 242.92 241.68C242.89 242.07 242.56 242.37 242.17 242.37L242.16 242.36Z" fill="#27449B"/>
<path d="M251.65 226.09C251.49 226.09 251.33 226.04 251.2 225.94C250.87 225.69 250.81 225.22 251.06 224.89C257.67 216.18 268.59 204.97 270.73 204.23C271.12 204.1 271.55 204.3 271.68 204.69C271.82 205.08 271.61 205.51 271.22 205.64C269.82 206.13 259.59 216.13 252.26 225.79C252.11 225.98 251.89 226.09 251.66 226.09H251.65Z" fill="#27449B"/>
<path d="M264.86 224.02C264.7 224.02 264.53 223.97 264.4 223.86C264.08 223.6 264.02 223.13 264.28 222.81C267.39 218.88 269.61 214.26 271.07 208.69C271.17 208.29 271.59 208.05 271.98 208.15C272.38 208.25 272.62 208.66 272.52 209.07C271.01 214.85 268.7 219.65 265.46 223.74C265.31 223.93 265.09 224.02 264.87 224.02H264.86Z" fill="#27449B"/>
<path d="M269.82 228.46C269.64 228.46 269.46 228.4 269.32 228.26C269.01 227.98 268.99 227.51 269.27 227.2C271.17 225.11 273.54 220.88 274.58 216.13C274.67 215.72 275.08 215.47 275.47 215.56C275.87 215.65 276.13 216.05 276.04 216.45C274.94 221.47 272.4 225.98 270.37 228.21C270.22 228.37 270.02 228.46 269.82 228.46Z" fill="#27449B"/>
<path d="M260.79 252.47C260.59 252.47 260.39 252.39 260.24 252.23C259.96 251.93 259.98 251.45 260.28 251.17C267.58 244.39 276.08 229.45 277.76 223.29C277.87 222.89 278.27 222.66 278.68 222.76C279.08 222.87 279.32 223.28 279.21 223.68C277.48 230.01 268.78 245.33 261.3 252.27C261.16 252.4 260.97 252.47 260.79 252.47Z" fill="#27449B"/>
<path d="M42.4 356.31C42.4 356.31 42.35 356.31 42.32 356.31C9.03004 352.73 6.21005 318.23 5.01005 303.5L4.95005 302.71C3.92005 290.27 4.20005 273.66 8.35005 267.77C8.65005 267.35 9.01005 266.95 9.43005 266.61C14.62 262.26 28.02 265.07 30.54 266.67C31.04 266.98 31.54 267.51 32.06 268.29C32.08 268.31 32.09 268.34 32.1 268.37C34.33 271.77 36.18 278.89 36.4 284.98C36.42 285.39 36.09 285.74 35.68 285.76C35.24 285.8 34.92 285.45 34.9 285.04C34.66 278.57 32.63 271.87 30.8 269.14C30.78 269.12 30.77 269.09 30.76 269.07C30.3 268.39 29.95 268.09 29.73 267.95C27.54 266.57 14.89 263.99 10.37 267.78C10.05 268.04 9.78005 268.33 9.56005 268.65C5.89005 273.85 5.34005 289.45 6.42005 302.6L6.48005 303.39C7.65005 317.75 10.4 351.38 42.46 354.83C42.87 354.87 43.17 355.24 43.13 355.66C43.09 356.04 42.76 356.33 42.39 356.33L42.4 356.31Z" fill="#27449B"/>
<path d="M31.44 268.7C31.01 268.05 30.57 267.57 30.15 267.3C27.86 265.85 14.84 263.06 9.91003 267.19C10.19 264.07 11.53 262.08 13.25 261.31C15.55 260.29 28.55 260.54 30.25 263.01C31.13 264.29 31.39 266.67 31.45 268.7H31.44Z" fill="#27449B"/>
<path d="M11.9901 262.91C11.6701 262.91 11.3701 262.7 11.2701 262.37C9.32005 255.79 6.12005 242.49 5.52005 237.92C4.92005 233.32 8.22005 230.99 16.2001 225.35L18.6001 223.65C18.9401 223.41 19.4101 223.49 19.6501 223.83C19.8901 224.17 19.8101 224.64 19.4701 224.88L17.0701 226.58C9.40005 232 6.53005 234.03 7.01005 237.73C7.60005 242.24 10.7701 255.41 12.7101 261.94C12.8301 262.34 12.6001 262.75 12.2001 262.87C12.1301 262.89 12.0601 262.9 11.9901 262.9V262.91Z" fill="#27449B"/>
<path d="M30.24 263.76C29.92 263.76 29.62 263.55 29.52 263.23C29.4 262.83 29.63 262.41 30.02 262.3C32.6 261.52 38.59 256.03 39.42 251.48C39.49 251.07 39.88 250.8 40.29 250.88C40.7 250.95 40.97 251.34 40.89 251.75C39.98 256.74 33.73 262.75 30.45 263.74C30.38 263.76 30.31 263.77 30.23 263.77L30.24 263.76Z" fill="#27449B"/>
<path d="M66.27 202.23C73.03 209.54 74.89 214.25 73.5 218.44C72.1 222.63 65.73 226.45 68.22 229.85C69.75 231.94 72.73 229.07 73.9 230.58C74.66 231.55 71.07 235.98 75.2 238.23C79.33 240.48 82.3 238.05 83.21 235.86C84.12 233.67 85.63 236.42 86.61 237.26C89.1 239.39 96.13 236.65 96.08 223.66C96.08 223.66 100.57 223.84 100.57 222.2C100.57 220.56 93.91 219.56 93.41 213.09C92.99 207.63 97.02 205.2 100.57 207.93C102.15 209.14 103.91 208.36 103.85 206.66C103.79 204.96 104.58 195.12 103.61 191.24C103.61 191.24 106.02 191.12 109.38 191.67C116.48 192.82 121.59 191.17 124.86 182.26C126.86 176.8 123.84 165.66 116.54 162.1C114.05 160.89 110.89 165.62 103.12 163.86C99.17 162.96 101.78 160.46 97.72 159.67C93.66 158.88 86.06 160.82 79.26 168.41C79.26 168.41 74.04 165.25 67.54 174.36C61.04 183.47 58.8 194.15 66.26 202.23H66.27Z" fill="#27449B"/>
<path d="M113.01 200.07C112.83 200.07 112.65 200.01 112.51 199.88C112.2 199.6 112.17 199.13 112.45 198.82C114.09 196.98 115.52 196.11 116.96 196.06C118.07 196.02 119.15 196.5 120.17 197.5C120.47 197.79 120.47 198.26 120.18 198.56C119.89 198.86 119.42 198.86 119.12 198.57C118.4 197.86 117.71 197.52 117.01 197.56C116.02 197.59 114.9 198.33 113.57 199.82C113.42 199.99 113.22 200.07 113.01 200.07Z" fill="#27449B"/>
<path d="M79.2 255C79.2 255 79.17 255 79.15 255C78.74 254.97 78.42 254.62 78.45 254.2C78.86 248.04 78.16 239.24 78.16 239.16C78.13 238.75 78.43 238.39 78.85 238.35C79.26 238.33 79.62 238.63 79.66 239.04C79.66 239.13 80.37 248.04 79.96 254.3C79.93 254.7 79.6 255 79.21 255H79.2Z" fill="#27449B"/>
<path d="M107.02 249.67C106.64 249.67 106.32 249.38 106.27 249C105.96 246 106.18 244.35 106.43 243.5C106.54 243.1 106.96 242.87 107.36 242.99C107.76 243.1 107.99 243.52 107.87 243.92C107.7 244.51 107.46 245.94 107.76 248.85C107.8 249.26 107.5 249.63 107.09 249.67C107.06 249.67 107.04 249.67 107.01 249.67H107.02Z" fill="#27449B"/>
<path d="M108.89 244.53C106.62 244.53 104.37 244.14 102.88 243.52C102.5 243.36 102.32 242.92 102.48 242.54C102.64 242.16 103.08 241.98 103.46 242.14C106.63 243.46 112.69 243.4 114.8 241.53C117.07 239.51 118.96 232.42 118.05 221.13C118.03 220.93 118.1 220.73 118.24 220.57C118.38 220.42 118.57 220.33 118.77 220.32C118.8 220.32 121.32 220.2 123.17 219.47C122.68 216 120.02 197.3 118.24 190.71C118.13 190.31 118.37 189.9 118.77 189.79C119.17 189.68 119.58 189.92 119.69 190.32C121.66 197.65 124.61 218.92 124.73 219.82C124.77 220.14 124.61 220.45 124.32 220.59C122.79 221.35 120.71 221.65 119.6 221.76C120.46 233.88 118.22 240.49 115.79 242.65C114.28 243.99 111.57 244.53 108.89 244.53Z" fill="#27449B"/>
<path d="M117.98 231.87C116.02 231.87 112.74 231.17 110.8 228.63C110.55 228.3 110.61 227.83 110.94 227.58C111.27 227.33 111.74 227.39 111.99 227.72C113.95 230.28 117.61 230.52 118.72 230.32C119.13 230.25 119.52 230.52 119.59 230.92C119.66 231.33 119.39 231.72 118.99 231.79C118.72 231.84 118.38 231.87 117.98 231.87Z" fill="#27449B"/>
<path d="M210.98 408.09C209.17 408.09 207.83 407.99 207.32 407.74C205.75 406.95 204.78 402.67 204.18 382.3C203.76 368.37 203.67 365.05 206.53 360.71C206.76 360.36 207.22 360.27 207.57 360.5C207.92 360.73 208.01 361.19 207.78 361.54C205.17 365.49 205.27 368.71 205.67 382.26C206.12 397.49 206.91 405.62 208 406.41C209.04 406.91 218.11 406.47 229.56 405.34C233.15 404.99 243.17 405.12 252.85 405.26C261.54 405.38 269.74 405.49 273.05 405.26C273.46 405.24 273.82 405.54 273.85 405.96C273.88 406.37 273.57 406.73 273.15 406.76C269.78 407 261.54 406.88 252.83 406.76C243.18 406.63 233.21 406.49 229.71 406.84C225.21 407.29 216.16 408.11 210.98 408.11V408.09Z" fill="#27449B"/>
<path d="M279.17 404.31C279.02 404.31 278.87 404.27 278.74 404.17C278.42 403.95 278.33 403.53 278.51 403.2C278.93 401.84 278.68 388.83 278.53 381.05C278.48 378.47 278.44 376.15 278.42 374.41L278.4 372.4C278.34 366.42 278.34 366.31 276.69 363.08C276.5 362.71 276.65 362.26 277.01 362.07C277.38 361.88 277.83 362.03 278.02 362.39C279.84 365.93 279.84 366.42 279.9 372.38L279.92 374.39C279.94 376.12 279.98 378.44 280.03 381.02C280.36 398.51 280.31 403.24 279.78 403.99C279.63 404.2 279.4 404.31 279.16 404.31H279.17Z" fill="#27449B"/>
<path d="M272.64 361.45C272.57 361.45 272.49 361.44 272.42 361.42C262.87 358.51 244.8 359.53 234 360.13C230.59 360.32 227.9 360.48 226.55 360.43C225.31 360.39 224.06 360.34 222.81 360.28C218.56 360.09 214.54 359.91 211.81 360.42C211.4 360.5 211.01 360.23 210.94 359.82C210.86 359.41 211.13 359.02 211.54 358.95C214.44 358.41 218.54 358.6 222.88 358.79C224.12 358.85 225.37 358.9 226.6 358.94C227.88 358.99 230.55 358.83 233.92 358.64C244.82 358.03 263.05 357 272.86 359.99C273.26 360.11 273.48 360.53 273.36 360.93C273.26 361.25 272.96 361.46 272.64 361.46V361.45Z" fill="#27449B"/>
<path d="M218.09 385.22C215.84 385.22 213.8 385.16 212.19 384.98C211.78 384.93 211.48 384.56 211.53 384.15C211.58 383.74 211.95 383.44 212.36 383.49C215.61 383.85 220.77 383.71 225.76 383.58C229.35 383.48 232.75 383.39 235.37 383.48C241.58 383.7 265.23 383.6 267.82 383.44C268.23 383.41 268.59 383.73 268.61 384.14C268.63 384.55 268.32 384.91 267.91 384.93C265.31 385.08 241.56 385.18 235.32 384.97C232.75 384.88 229.37 384.97 225.8 385.06C223.18 385.13 220.52 385.2 218.09 385.2V385.22Z" fill="#39B715"/>
<path d="M224.37 383.17C223.99 383.17 223.66 382.88 223.62 382.5C223.24 378.7 222.42 369.43 223.08 365.37C223.15 364.96 223.54 364.68 223.94 364.75C224.35 364.82 224.63 365.2 224.56 365.61C223.91 369.6 224.81 379.43 225.11 382.35C225.15 382.76 224.85 383.13 224.44 383.17C224.41 383.17 224.39 383.17 224.36 383.17H224.37Z" fill="#39B715"/>
<path d="M229.24 383.44C228.89 383.44 228.58 383.2 228.51 382.85C228.19 381.34 226.62 373.54 227.1 367.9C227.14 367.49 227.51 367.18 227.91 367.22C228.32 367.26 228.63 367.62 228.59 368.03C228.12 373.57 229.78 381.64 229.98 382.54C230.07 382.95 229.81 383.34 229.4 383.43C229.35 383.44 229.29 383.45 229.24 383.45V383.44Z" fill="#39B715"/>
<path d="M258.99 381.83C258.65 381.83 258.34 381.6 258.26 381.25C257.74 379.01 256.84 372.42 257.58 367.41C257.64 367 258.03 366.72 258.43 366.78C258.84 366.84 259.12 367.22 259.06 367.63C258.36 372.43 259.22 378.76 259.72 380.91C259.81 381.31 259.56 381.72 259.16 381.81C259.1 381.82 259.05 381.83 258.99 381.83Z" fill="#39B715"/>
<path d="M262.15 382.27C262.15 382.27 262.1 382.27 262.07 382.27C261.66 382.23 261.36 381.86 261.4 381.45C261.57 379.8 261.33 369.68 260.99 363.98C260.97 363.57 261.28 363.21 261.69 363.19C262.07 363.16 262.46 363.48 262.48 363.89C262.84 369.77 263.07 379.87 262.89 381.61C262.85 382 262.52 382.28 262.14 382.28L262.15 382.27Z" fill="#39B715"/>
<path d="M222.34 381.37C224.35 379.92 230.73 380.86 230.98 381.12C231.23 381.37 233.3 392.84 232.24 393.85C231.18 394.86 224.13 395.06 223.59 393.09C223.05 391.12 221.08 382.28 222.34 381.37Z" fill="#39B715"/>
<path d="M256.87 380.29C258.48 379.22 263.16 379.66 263.7 380.58C264.24 381.5 265.32 389.72 264.06 390.8C262.8 391.88 257.95 392.91 256.88 391.7C255.8 390.49 255.94 380.92 256.88 380.29H256.87Z" fill="#39B715"/>
<path d="M350.99 333.64H328.26C325.26 333.64 322.81 331.19 322.81 328.18V278.43C322.81 275.43 325.25 272.98 328.26 272.98H350.99C353.99 272.98 356.44 275.42 356.44 278.43V328.18C356.44 331.19 354 333.64 350.99 333.64ZM328.26 274.49C326.08 274.49 324.31 276.26 324.31 278.44V328.19C324.31 330.37 326.08 332.15 328.26 332.15H350.99C353.17 332.15 354.94 330.38 354.94 328.19V278.44C354.94 276.26 353.17 274.49 350.99 274.49H328.26Z" fill="#27449B"/>
<path d="M355.69 278.43V281.2H323.57V278.43C323.57 275.83 325.68 273.73 328.27 273.73H351C353.6 273.73 355.7 275.83 355.7 278.43H355.69Z" fill="#27449B"/>
<path d="M355.69 281.95H323.57C323.16 281.95 322.82 281.61 322.82 281.2V278.43C322.82 275.43 325.26 272.98 328.27 272.98H351C354 272.98 356.45 275.42 356.45 278.43V281.2C356.45 281.61 356.11 281.95 355.7 281.95H355.69ZM324.32 280.45H354.94V278.43C354.94 276.25 353.17 274.48 350.99 274.48H328.26C326.08 274.48 324.31 276.25 324.31 278.43V280.45H324.32Z" fill="#27449B"/>
<path d="M355.69 324.08V328.18C355.69 330.78 353.59 332.89 350.99 332.89H328.26C325.67 332.89 323.56 330.78 323.56 328.18V324.08H355.68H355.69Z" fill="#27449B"/>
<path d="M350.99 333.64H328.26C325.26 333.64 322.81 331.19 322.81 328.18V324.08C322.81 323.67 323.15 323.33 323.56 323.33H355.68C356.09 323.33 356.43 323.67 356.43 324.08V328.18C356.43 331.19 353.99 333.64 350.98 333.64H350.99ZM324.32 324.83V328.18C324.32 330.36 326.09 332.14 328.27 332.14H351C353.18 332.14 354.95 330.37 354.95 328.18V324.83H324.33H324.32Z" fill="#27449B"/>
<path d="M314.42 297.98C312.88 297.98 309.44 295.57 307.73 294.3C306.68 294.52 303.57 294.9 297.65 293.51C289.95 291.7 288.64 285.18 289.07 281.61C289.43 278.67 291.85 273.73 304 273.61C310.47 273.57 315.01 275.06 317.47 278.11C319.99 281.25 319.41 284.91 319.17 285.96C318.38 289.43 314.75 291.83 313.05 292.79C315.91 296.14 315.57 297.01 315.45 297.31C315.3 297.68 314.97 297.92 314.54 297.97C314.5 297.97 314.46 297.97 314.41 297.97L314.42 297.98ZM307.89 292.74C308.05 292.74 308.21 292.79 308.34 292.89C310.25 294.33 312.58 295.83 313.77 296.32C313.32 295.54 312.35 294.25 311.29 293.07C311.13 292.89 311.07 292.65 311.11 292.42C311.16 292.19 311.31 291.99 311.53 291.89C311.58 291.86 316.84 289.38 317.69 285.63C317.89 284.75 318.39 281.67 316.28 279.06C314.13 276.39 310 275.07 304 275.12C292.99 275.22 290.85 279.35 290.55 281.8C290.18 284.87 291.32 290.49 297.98 292.05C304.81 293.65 307.61 292.79 307.64 292.78C307.72 292.75 307.8 292.74 307.88 292.74H307.89Z" fill="#39B715"/>
<path d="M308.67 283.29C308.67 282.19 309.44 281.75 310.38 281.75C311.32 281.75 312.09 282.19 312.09 283.29C312.09 284.39 311.32 285.29 310.38 285.29C309.44 285.29 308.67 284.4 308.67 283.29Z" fill="#39B715"/>
<path d="M298.05 281.79C299.14 281.62 299.69 282.31 299.84 283.25C299.98 284.19 299.67 285.01 298.58 285.18C297.49 285.35 296.49 284.73 296.34 283.79C296.2 282.85 296.96 281.96 298.05 281.79Z" fill="#39B715"/>
<path d="M303.14 282.31C303.85 281.46 304.65 281.56 305.3 282.1C305.95 282.64 306.19 283.41 305.48 284.26C304.77 285.11 303.97 285.01 303.32 284.47C302.67 283.93 302.43 283.16 303.14 282.31Z" fill="#39B715"/>
<path d="M364.83 325.44C364.83 325.44 364.74 325.44 364.7 325.44C364.27 325.4 363.94 325.16 363.79 324.78C363.67 324.48 363.33 323.61 366.19 320.26C364.49 319.3 360.86 316.9 360.07 313.43C359.83 312.38 359.24 308.72 361.77 305.58C364.22 302.53 368.76 301.03 375.24 301.08C387.39 301.2 389.81 306.14 390.17 309.08C390.61 312.65 389.29 319.17 381.59 320.98C375.67 322.37 372.56 321.99 371.51 321.77C369.8 323.04 366.36 325.45 364.82 325.45L364.83 325.44ZM374.87 302.58C369.07 302.58 365.06 303.91 362.95 306.52C360.85 309.13 361.34 312.21 361.54 313.09C362.4 316.84 367.65 319.32 367.7 319.35C367.91 319.45 368.07 319.65 368.12 319.88C368.17 320.11 368.1 320.35 367.94 320.53C366.89 321.71 365.91 323 365.46 323.78C366.65 323.29 368.98 321.79 370.89 320.35C371.09 320.2 371.35 320.16 371.59 320.24C371.61 320.24 374.41 321.12 381.24 319.51C387.91 317.95 389.05 312.33 388.67 309.26C388.37 306.81 386.22 302.68 375.22 302.58C375.1 302.58 374.98 302.58 374.85 302.58H374.87Z" fill="#39B715"/>
<path d="M370.59 310.75C370.59 309.65 369.82 309.21 368.88 309.21C367.94 309.21 367.17 309.65 367.17 310.75C367.17 311.85 367.94 312.75 368.88 312.75C369.82 312.75 370.59 311.86 370.59 310.75Z" fill="#39B715"/>
<path d="M381.2 309.25C380.11 309.08 379.56 309.77 379.41 310.71C379.26 311.65 379.58 312.47 380.67 312.64C381.76 312.81 382.76 312.19 382.91 311.25C383.05 310.31 382.29 309.42 381.2 309.25Z" fill="#39B715"/>
<path d="M376.11 309.78C375.4 308.93 374.6 309.03 373.95 309.57C373.3 310.11 373.06 310.88 373.77 311.73C374.48 312.58 375.28 312.48 375.93 311.94C376.58 311.4 376.82 310.63 376.11 309.78Z" fill="#39B715"/>
<path d="M284.44 170.32C284.07 170.32 283.74 170.04 283.7 169.66C283.65 169.25 283.95 168.88 284.36 168.83C288.41 168.35 291.73 168.18 295.82 168.25C299.52 168.31 302.27 168.13 302.3 168.12C302.71 168.09 303.07 168.4 303.1 168.82C303.13 169.23 302.82 169.59 302.4 169.62C302.37 169.62 299.56 169.81 295.79 169.75C291.77 169.68 288.51 169.85 284.53 170.32C284.5 170.32 284.47 170.32 284.44 170.32Z" fill="#27449B"/>
<path d="M297.06 176.99C296.36 176.99 295.68 176.97 295.07 176.93C294.66 176.9 294.35 176.54 294.38 176.13C294.41 175.72 294.78 175.41 295.18 175.44C298.47 175.69 304.06 175.09 304.12 175.09C304.54 175.04 304.9 175.34 304.95 175.76C304.99 176.17 304.7 176.54 304.28 176.59C304.09 176.61 300.3 177.01 297.06 177.01V176.99Z" fill="#27449B"/>
<path d="M301.66 184.45C301.31 184.45 301 184.21 300.93 183.85C300.85 183.44 301.11 183.05 301.51 182.96C304.86 182.27 307.64 182.29 310.09 182.31C311.35 182.32 312.55 182.33 313.71 182.24C314.12 182.21 314.48 182.52 314.51 182.93C314.54 183.34 314.23 183.7 313.82 183.73C312.6 183.82 311.38 183.81 310.08 183.8C307.59 183.78 305.01 183.76 301.81 184.42C301.76 184.43 301.71 184.44 301.66 184.44V184.45Z" fill="#27449B"/>
<path d="M327 178.22C326.92 178.22 326.83 178.21 326.74 178.18C321.4 176.24 313.08 174.48 312.02 174.64C311.63 174.7 311.25 174.44 311.17 174.05C311.12 173.79 309.9 167.67 310.75 163.12C311.18 160.84 311.83 158.53 312.36 156.67C312.85 154.92 313.28 153.41 313.31 152.68C313.31 152.47 313.42 152.27 313.58 152.13C313.74 151.99 313.96 151.94 314.17 151.97C314.23 151.97 319.92 152.86 323.96 153.79C326.17 154.29 328.65 154.54 331.52 154.82C336.07 155.27 341.22 155.77 347.41 157.48C347.76 157.58 347.99 157.91 347.96 158.27C347.94 158.52 347.42 164.54 347.02 166.87C346.95 167.28 346.56 167.56 346.15 167.48C345.74 167.41 345.47 167.02 345.54 166.61C345.86 164.77 346.27 160.39 346.41 158.77C340.61 157.22 335.72 156.74 331.38 156.32C328.46 156.03 325.94 155.79 323.63 155.26C320.52 154.55 316.39 153.86 314.71 153.59C314.55 154.49 314.21 155.68 313.81 157.1C313.27 159.02 312.65 161.21 312.23 163.42C311.58 166.89 312.26 171.54 312.53 173.18C315.25 173.37 322.89 175.21 327.25 176.79C327.64 176.93 327.84 177.36 327.7 177.75C327.59 178.05 327.3 178.24 326.99 178.24L327 178.22Z" fill="#27449B"/>
<path d="M325.21 166.26C325.21 166.26 325.12 166.26 325.08 166.25C325.04 166.25 324.15 166.08 323.29 165.6C320.85 164.23 318.01 161.31 316.05 159.1C315.78 158.79 315.8 158.32 316.11 158.04C316.42 157.76 316.89 157.79 317.17 158.1C319.87 161.14 322.24 163.28 324.02 164.28C324.64 164.63 325.33 164.76 325.33 164.76C325.74 164.83 326.01 165.22 325.94 165.63C325.87 165.99 325.56 166.25 325.2 166.25L325.21 166.26Z" fill="#27449B"/>
<path d="M329.84 186.54C329.55 186.54 329.27 186.37 329.15 186.09C326.5 179.91 324.24 170.18 324.47 168.75C324.52 168.43 324.78 168.17 325.1 168.13C325.47 168.08 334.11 166.85 338.39 166.69C342.6 166.53 354.18 165.03 354.29 165.01C354.69 164.95 355.08 165.25 355.13 165.66C355.18 166.07 354.89 166.45 354.48 166.5C354 166.56 342.72 168.03 338.44 168.19C334.91 168.32 328.11 169.23 325.97 169.52C326.24 171.74 328 179.63 330.52 185.5C330.68 185.88 330.51 186.32 330.13 186.48C330.03 186.52 329.93 186.54 329.84 186.54Z" fill="#39B715"/>
<path d="M359.72 184.15C359.38 184.15 359.06 183.91 358.99 183.56C358.9 183.16 356.86 173.83 356.38 170.35C356.27 169.59 356.11 168.44 355.96 167.84C355.4 168.34 353.03 171.16 351.29 173.24C347.28 178.02 346.78 178.54 346.4 178.7C345.28 179.15 336.58 175.94 334.29 174.77C331.36 173.29 329.18 172.96 328.33 173.3C327.95 173.45 327.51 173.26 327.36 172.88C327.21 172.49 327.4 172.06 327.78 171.91C329.25 171.33 331.94 171.91 334.97 173.44C337.76 174.85 344.5 177.09 345.85 177.26C346.46 176.67 348.49 174.25 350.14 172.28C353.29 168.52 354.72 166.84 355.22 166.53C355.53 166.33 356.06 166 356.63 166.26C357.34 166.59 357.5 167.46 357.87 170.15C358.35 173.57 360.44 183.15 360.46 183.25C360.55 183.65 360.29 184.05 359.89 184.14C359.84 184.15 359.78 184.16 359.73 184.16L359.72 184.15Z" fill="#39B715"/>
<path d="M332.76 189.67C332.48 189.67 332.2 189.67 331.91 189.65C331.5 189.63 331.17 189.29 331.19 188.87C331.21 188.46 331.6 188.14 331.97 188.15C334.52 188.25 336.67 187.86 338.75 187.48C340.23 187.21 341.63 186.96 343.01 186.92C349.52 186.76 353.52 185.39 353.56 185.38C353.95 185.25 354.38 185.45 354.51 185.84C354.65 186.23 354.44 186.66 354.05 186.79C353.88 186.85 349.82 188.24 343.05 188.42C341.79 188.45 340.45 188.7 339.03 188.96C337.19 189.3 335.12 189.67 332.77 189.67H332.76Z" fill="#39B715"/>
<path d="M118.46 206.66C118.54 208.03 117.81 209.19 116.83 209.25C115.85 209.31 114.99 208.24 114.91 206.87C114.83 205.5 115.56 204.34 116.54 204.28C117.52 204.22 118.38 205.29 118.46 206.66Z" fill="#27449B"/>
<path d="M398.43 219.79C398.38 219.79 398.32 219.79 398.27 219.77C396.43 219.38 380.64 219.04 373.27 218.94C372.3 218.93 371.03 218.92 369.57 218.91C362.93 218.87 351.82 218.79 346.9 218.09C346.49 218.03 346.21 217.65 346.26 217.24C346.32 216.83 346.69 216.54 347.11 216.6C351.94 217.29 362.98 217.36 369.58 217.41C371.05 217.41 372.33 217.43 373.3 217.44C373.53 217.44 396.08 217.77 398.59 218.3C399 218.39 399.25 218.79 399.17 219.19C399.09 219.54 398.78 219.78 398.44 219.78L398.43 219.79Z" fill="#27449B"/>
<path d="M409.79 221.02C407.46 221.02 404.6 220.71 402.23 220.3C401.82 220.23 401.55 219.84 401.62 219.43C401.69 219.02 402.08 218.75 402.49 218.82C406.76 219.57 411.17 219.74 412.74 219.22C413.14 219.09 413.56 219.3 413.69 219.69C413.82 220.08 413.61 220.51 413.22 220.64C412.42 220.91 411.2 221.02 409.8 221.02H409.79Z" fill="#27449B"/>
<path d="M416.39 219.79C416.11 219.79 415.85 219.64 415.72 219.37C415.54 219 415.69 218.55 416.06 218.37C421.5 215.69 433.18 206.65 434.2 205.3C435.28 203.88 435.99 201.07 436 201.04C436.1 200.64 436.51 200.39 436.91 200.49C437.31 200.59 437.56 201 437.46 201.4C437.43 201.53 436.67 204.54 435.4 206.2C434.15 207.85 422.16 217.03 416.73 219.7C416.62 219.75 416.51 219.78 416.4 219.78L416.39 219.79Z" fill="#27449B"/>
<path d="M412.6 217.59C412.6 217.59 412.53 217.59 412.51 217.59C410.78 217.29 392.33 214.97 384.72 215.41C378.51 215.77 349.14 214.75 344.17 213.9C344.26 214.44 344.5 214.99 344.87 215.48C345.12 215.81 345.05 216.28 344.71 216.53C344.38 216.78 343.91 216.7 343.66 216.37C342.73 215.11 342.4 213.62 342.78 212.31C343.11 211.16 343.93 210.26 345.11 209.79C346.46 209.24 348.74 208.21 351.16 207.11C352.72 206.4 354.33 205.67 355.76 205.04C359.39 203.44 365.12 199.99 366.36 199.14C367.44 198.4 368.99 197.08 369.54 196.61C369.75 195.21 370.73 188.96 371.59 185.61C372.53 181.95 374.43 170.44 375.03 166.33C375.63 162.24 376.75 157.56 376.76 157.51C376.77 157.46 376.79 157.41 376.81 157.37C378.17 154.45 380.32 154.39 386.38 154.66C392.38 154.93 408.55 155.27 416.4 155.19L418 155.17C429.66 155.01 441.19 155.22 442.8 159.54C444.55 164.25 443.94 168.17 442.84 175.29C441.76 182.25 438.1 197.5 436.71 200.12C435.06 203.24 415.21 217.61 412.61 217.61L412.6 217.59ZM386.84 213.85C395.3 213.85 410.71 215.77 412.69 216.09C415 215.59 433.92 202.17 435.38 199.4C436.59 197.1 440.22 182.3 441.35 175.03C442.45 167.94 443.01 164.38 441.39 160.04C440.02 156.35 425.16 156.55 418.02 156.65L416.42 156.67C408.55 156.76 392.33 156.41 386.31 156.14C380.5 155.88 379.12 156.01 378.2 157.92C378.06 158.53 377.06 162.79 376.51 166.53C375.9 170.66 373.99 182.26 373.04 185.97C372.11 189.6 370.99 197.02 370.98 197.09C370.95 197.27 370.87 197.43 370.73 197.54C370.64 197.62 368.61 199.4 367.2 200.36C365.89 201.26 360.14 204.73 356.36 206.39C354.94 207.02 353.33 207.74 351.77 208.45C349.34 209.55 347.04 210.6 345.66 211.15C345.01 211.41 344.54 211.85 344.3 212.42C346.21 212.91 376.69 214.33 384.63 213.88C385.29 213.84 386.03 213.83 386.83 213.83L386.84 213.85Z" fill="#27449B"/>
<path d="M432.25 200.26C429.02 200.26 425.13 200.04 421.57 199.83L420.55 199.77C417.96 199.62 413.97 199.24 409.75 198.83C405.29 198.4 400.68 197.96 397.13 197.73C389.95 197.28 374.47 197.08 370.35 197.73C369.94 197.79 369.56 197.51 369.49 197.1C369.43 196.69 369.71 196.31 370.12 196.24C374.33 195.59 389.99 195.77 397.23 196.24C400.81 196.47 405.43 196.91 409.9 197.34C414.1 197.75 418.07 198.13 420.64 198.27L421.66 198.33C426.6 198.61 432.75 198.96 436.15 198.59C436.57 198.54 436.93 198.84 436.98 199.25C437.03 199.66 436.73 200.03 436.32 200.08C435.18 200.21 433.8 200.26 432.26 200.26H432.25Z" fill="#27449B"/>
<path d="M429.43 197.33C429.43 197.33 429.41 197.33 429.39 197.33C428.92 197.31 417.79 196.8 412.85 195.94C409.67 195.39 403.12 195.23 397.86 195.1C395 195.03 392.52 194.97 391.06 194.86C389.33 194.73 386.33 194.75 383.43 194.77C375.52 194.83 375.19 194.73 374.99 193.9C374.75 192.93 377.59 176.4 378.11 173.87C378.41 172.38 378.55 170.56 378.7 168.62C378.97 165.13 379.24 161.53 380.54 159.33C381.05 158.47 382.99 158.22 399.44 159.54C400.79 159.65 401.9 159.74 402.61 159.79C408.5 160.19 433.48 161.6 438.96 161.17C439.39 161.13 439.73 161.45 439.77 161.86C439.8 162.27 439.49 162.63 439.08 162.67C433.05 163.15 406.13 161.54 402.51 161.29C401.79 161.24 400.67 161.15 399.32 161.04C394.52 160.66 383.44 159.77 381.74 160.26C380.69 162.19 380.44 165.52 380.19 168.75C380.04 170.73 379.9 172.6 379.57 174.18C378.7 178.45 376.74 190.57 376.48 193.2C377.65 193.33 380.81 193.31 383.41 193.29C386.34 193.27 389.37 193.25 391.16 193.38C392.58 193.49 395.04 193.55 397.88 193.62C403.19 193.75 409.8 193.91 413.09 194.49C417.94 195.33 429.33 195.85 429.45 195.86C429.86 195.88 430.18 196.23 430.16 196.64C430.14 197.04 429.81 197.36 429.41 197.36L429.43 197.33Z" fill="#27449B"/>
<path d="M433.3 196.96C433.25 196.96 433.19 196.96 433.14 196.94C432.74 196.85 432.48 196.45 432.57 196.04C432.72 195.39 436.3 176.12 436.99 171.46L437.05 171.05C437.68 166.91 438.09 164.18 436.11 162.55C435.79 162.29 435.74 161.81 436.01 161.49C436.27 161.17 436.75 161.12 437.07 161.39C439.71 163.56 439.22 166.79 438.54 171.27L438.48 171.68C437.79 176.35 434.19 195.71 434.04 196.37C433.96 196.72 433.65 196.96 433.31 196.96H433.3Z" fill="#27449B"/>
<path d="M418.17 209.19C418.17 209.19 418.11 209.19 418.08 209.19C417.83 209.16 417.07 209.04 415.98 208.86C412.01 208.21 403.73 206.87 399.94 206.87C368.64 206.87 368.18 205.87 367.91 205.27C367.79 205 367.86 204.59 368.05 204.37C368.1 204.31 368.17 204.25 368.24 204.21C371.94 202.06 375.2 200.46 376.2 200.02C377.46 199.47 387.89 198.97 393.05 199.52C396.79 199.92 410.09 200.78 418.03 201.29C421.27 201.5 423.63 201.65 424.14 201.69C424.55 201.73 424.88 201.94 425.03 202.28C425.31 202.88 424.91 203.56 424.53 204.08C423.49 205.52 419.64 209.18 418.17 209.18V209.19ZM370.48 204.65C374.89 205.14 388.04 205.36 399.94 205.36C403.85 205.36 412.21 206.72 416.22 207.37C417.27 207.54 418.01 207.66 418.25 207.69C419.07 207.52 422.42 204.51 423.38 203.14C422.37 203.07 420.41 202.94 417.93 202.78C409.98 202.27 396.66 201.41 392.89 201.01C387.66 200.45 377.8 201.01 376.8 201.39C375.97 201.76 373.48 202.97 370.49 204.64L370.48 204.65Z" fill="#39B715"/>
<path d="M378.76 208C377.06 209.76 374.99 211.33 377.31 211.39C379.64 211.45 390.13 211.89 392.52 211.96C394.91 212.02 396.92 209.01 396.1 208.44C395.28 207.87 380.45 207.43 378.75 208H378.76Z" fill="#27449B"/>
<path d="M344.21 47C332.5 47 324.77 46.61 321.17 45.84C315.05 44.53 310.47 44.92 304.67 45.43C302.98 45.58 301.19 45.73 299.22 45.86C298.83 45.88 298.45 45.57 298.42 45.16C298.39 44.75 298.71 44.39 299.12 44.36C301.08 44.23 302.86 44.08 304.54 43.93C310.46 43.42 315.14 43.01 321.48 44.37C326.12 45.36 337.92 45.7 356.58 45.38C357.42 45.37 357.98 45.36 358.2 45.36C358.61 45.36 358.95 45.7 358.95 46.11C358.95 46.52 358.61 46.86 358.2 46.86C357.99 46.86 357.43 46.86 356.61 46.88C352.08 46.96 347.94 47 344.21 47Z" fill="#39B715"/>
<path d="M317.77 52.7C316.48 52.7 314.18 52.62 310.6 52.25C305.4 51.7 297.66 51.15 290.47 52.65C290.06 52.74 289.67 52.48 289.58 52.07C289.5 51.66 289.76 51.27 290.16 51.18C297.56 49.63 305.46 50.2 310.76 50.75C316.51 51.35 318.9 51.17 318.93 51.16C319.32 51.12 319.7 51.43 319.74 51.84C319.78 52.25 319.47 52.62 319.06 52.65C319.02 52.65 318.62 52.69 317.77 52.69V52.7Z" fill="#39B715"/>
<path d="M342.55 53.8801C339.42 53.8801 335.32 53.81 331.7 53.71C331.29 53.7 330.96 53.35 330.97 52.94C330.98 52.53 331.34 52.18 331.74 52.21C339.02 52.4 345.44 52.43 347.01 52.27C347.42 52.22 347.79 52.53 347.83 52.94C347.87 53.35 347.57 53.72 347.16 53.76C346.38 53.84 344.69 53.87 342.55 53.87V53.8801Z" fill="#39B715"/>
<path d="M358.86 86.48C358.49 86.48 358.17 86.21 358.12 85.84C357.79 83.53 357.98 78.82 359.03 76.41C359.2 76.03 359.35 75.52 359.15 75.22C359 74.99 358.37 74.47 355.87 74.53C355.5 74.53 355.16 74.55 354.82 74.57C352.31 74.67 350.33 74.75 349.1 72.44C347.81 70.03 348.71 62.39 349.65 60.76C350.42 59.44 352.45 59.82 354.42 60.19C355.3 60.36 356.52 60.58 356.89 60.44C357.26 60.02 357.15 57.18 357.08 55.48C357.02 53.88 356.96 52.37 357.11 51.34C357.34 49.83 358.01 48.86 358.49 48.16C358.89 47.58 359.05 47.32 358.98 47.09C358.86 46.69 359.08 46.27 359.47 46.15C359.86 46.02 360.29 46.25 360.41 46.64C360.71 47.59 360.2 48.31 359.72 49.01C359.27 49.66 358.76 50.39 358.59 51.56C358.46 52.45 358.52 53.96 358.57 55.42C358.71 59.07 358.73 61.33 357.42 61.84C356.65 62.14 355.48 61.92 354.13 61.67C353.24 61.5 351.16 61.11 350.93 61.52C350.2 62.78 349.39 69.84 350.4 71.74C351.16 73.16 352.22 73.18 354.74 73.08C355.08 73.07 355.44 73.05 355.81 73.04C358.27 72.98 359.71 73.41 360.37 74.39C360.84 75.09 360.84 75.97 360.38 77.02C359.44 79.16 359.28 83.55 359.58 85.64C359.64 86.05 359.35 86.43 358.94 86.49C358.9 86.49 358.87 86.49 358.83 86.49L358.86 86.48Z" fill="#39B715"/>
<path d="M357.26 100.38C357.06 100.38 356.86 100.3 356.72 100.15C355.57 98.94 355.38 94.88 355.27 90.09C355.24 88.97 355.22 88 355.17 87.55C355.07 86.72 355 86.71 354.11 86.61C353.81 86.57 353.48 86.53 353.13 86.45C352.73 86.36 352.47 85.95 352.57 85.55C352.66 85.15 353.07 84.9 353.47 84.99C353.76 85.06 354.04 85.09 354.29 85.12C355.24 85.23 356.43 85.37 356.66 87.38C356.72 87.89 356.74 88.85 356.77 90.05C356.83 92.49 356.96 98.22 357.8 99.11C358.09 99.41 358.07 99.88 357.77 100.17C357.62 100.31 357.44 100.38 357.25 100.38H357.26Z" fill="#39B715"/>
<path d="M293.14 62.09C293.02 62.09 292.9 62.06 292.78 62C292.42 61.8 292.28 61.35 292.48 60.98C292.5 60.95 294.07 58.02 295.24 55.22C296.24 52.82 295.47 49.48 293.27 46.72C293.01 46.4 293.07 45.92 293.39 45.67C293.71 45.41 294.18 45.46 294.44 45.79C296.97 48.97 297.83 52.9 296.62 55.8C295.42 58.68 293.86 61.57 293.79 61.7C293.65 61.95 293.4 62.09 293.13 62.09H293.14Z" fill="#39B715"/>
<path d="M294.78 92.17C294.78 92.17 294.72 92.17 294.69 92.17C294.28 92.12 293.99 91.75 294.04 91.33C294.3 89.14 293.63 83.74 293.07 80.6C292.89 79.6 292.57 79.56 291.11 79.82C290.52 79.92 289.91 80.03 289.34 79.92C288.95 79.84 288.21 79.71 288 79.09C287.8 78.51 288.2 78.07 288.58 77.64C288.73 77.47 288.91 77.28 289.08 77.04C289.29 76.49 288.35 73.71 287.78 72.04C287.29 70.59 286.82 69.22 286.63 68.23C286.39 66.98 285.28 66.17 284.3 65.45C283.5 64.87 282.8 64.36 282.6 63.62C282.5 63.26 282.56 62.9 282.78 62.6C283.47 61.63 285.65 61.46 289.74 61.21C290.28 61.18 290.84 61.15 291.38 61.11C291.78 61.08 292.15 61.4 292.18 61.81C292.21 62.22 291.89 62.58 291.48 62.61C290.93 62.65 290.38 62.68 289.83 62.71C287.86 62.83 284.97 63 284.15 63.38C284.36 63.62 284.83 63.96 285.19 64.23C286.28 65.02 287.77 66.1 288.11 67.94C288.28 68.83 288.73 70.15 289.2 71.55C290.37 74.98 290.99 76.97 290.28 77.93C290.13 78.12 289.99 78.3 289.85 78.45C290.13 78.45 290.49 78.39 290.84 78.32C291.97 78.12 294.08 77.75 294.54 80.32C294.93 82.48 295.86 88.7 295.52 91.49C295.47 91.87 295.15 92.15 294.78 92.15V92.17Z" fill="#39B715"/>
<path d="M291 106.29C290.94 106.29 290.88 106.29 290.83 106.27C290.43 106.17 290.18 105.77 290.27 105.37C290.28 105.32 291.55 99.94 291.41 97.28C291.3 95.14 290.07 93.31 289.41 92.33C289.26 92.11 289.15 91.94 289.07 91.8C288.96 91.61 288.62 91.03 288.93 90.46C289.3 89.76 290.27 89.61 292.43 89.49C292.81 89.47 293.2 89.79 293.22 90.2C293.24 90.61 292.92 90.97 292.51 90.99C291.37 91.05 290.77 91.13 290.46 91.19C290.52 91.28 290.59 91.38 290.66 91.49C291.4 92.59 292.78 94.65 292.92 97.2C293.07 100.08 291.8 105.49 291.74 105.71C291.66 106.05 291.35 106.29 291.01 106.29H291Z" fill="#39B715"/>
<path d="M284.96 96.79C284.61 96.79 284.3 96.54 284.23 96.19C284.15 95.78 284.41 95.39 284.82 95.31C289.62 94.34 296.19 94.33 296.47 94.33C296.88 94.33 297.22 94.67 297.22 95.08C297.22 95.49 296.88 95.83 296.47 95.83C296.4 95.83 289.77 95.84 285.12 96.78C285.07 96.78 285.02 96.79 284.97 96.79H284.96Z" fill="#39B715"/>
<path d="M290.71 108.62C290.4 108.62 290.11 108.43 290 108.12C289.86 107.73 290.07 107.3 290.46 107.17C295.48 105.43 297.19 105.06 302.48 105.47C305.14 105.68 309.83 105.21 314.37 104.75C318.86 104.3 323.1 103.87 325.76 104.02C335.71 104.57 345.93 103.62 352.04 103.05C354.69 102.8 356.43 102.65 357.28 102.67C357.69 102.69 358.02 103.03 358 103.45C357.99 103.86 357.63 104.19 357.22 104.17C356.47 104.14 354.57 104.32 352.17 104.54C346.02 105.11 335.73 106.07 325.67 105.51C323.12 105.37 318.75 105.81 314.51 106.24C309.9 106.7 305.14 107.18 302.35 106.96C297.08 106.55 295.53 106.99 290.94 108.58C290.86 108.61 290.78 108.62 290.69 108.62H290.71Z" fill="#39B715"/>
<path d="M336.76 98.71C336.04 98.71 335.35 98.69 334.7 98.64C334.29 98.61 333.98 98.25 334.01 97.83C334.04 97.42 334.41 97.1 334.82 97.14C338.57 97.43 343.93 96.75 349.61 96.03C353.37 95.55 357.27 95.06 361.02 94.8C361.43 94.77 361.79 95.08 361.82 95.5C361.85 95.91 361.54 96.27 361.12 96.3C357.41 96.56 353.54 97.05 349.79 97.52C344.99 98.13 340.41 98.71 336.75 98.71H336.76Z" fill="#39B715"/>
<path d="M297.05 100.68C296.72 100.68 296.42 100.46 296.33 100.13C296.22 99.73 296.46 99.32 296.86 99.21C299 98.62 302.04 98.57 304.97 98.51C307.47 98.46 309.83 98.42 311.17 98.04C311.58 97.93 311.98 98.16 312.09 98.56C312.2 98.96 311.97 99.37 311.57 99.48C310.04 99.91 307.59 99.96 304.99 100C302.15 100.05 299.21 100.11 297.25 100.65C297.18 100.67 297.12 100.68 297.05 100.68Z" fill="#39B715"/>
<path d="M298.66 68.57C298.43 68.57 298.22 68.47 298.07 68.29C298.05 68.26 295.76 65.4 293.17 63.92C292.81 63.71 292.69 63.26 292.89 62.9C293.1 62.54 293.55 62.41 293.91 62.62C296.2 63.93 298.18 66.11 298.93 66.98C300.49 66.58 305.72 65.21 309.48 64.13C313.69 62.92 318.96 61.18 319.01 61.17C319.4 61.04 319.83 61.25 319.96 61.65C320.09 62.04 319.88 62.47 319.48 62.6C319.43 62.62 314.13 64.36 309.89 65.58C305.42 66.87 298.9 68.54 298.84 68.56C298.78 68.58 298.72 68.58 298.65 68.58L298.66 68.57Z" fill="#39B715"/>
<path d="M326.35 62.64C324.82 62.64 322.95 62.6 320.85 62.56C315.64 62.46 309.15 62.33 302.43 62.63C302.02 62.65 301.67 62.33 301.65 61.91C301.63 61.5 301.95 61.15 302.37 61.13C309.14 60.83 315.66 60.96 320.89 61.06C323.62 61.11 325.98 61.16 327.66 61.13C332.42 61.03 337.6 60.6 337.65 60.59C338.06 60.55 338.43 60.86 338.46 61.27C338.5 61.68 338.19 62.05 337.78 62.08C337.73 62.08 332.5 62.53 327.7 62.62C327.29 62.62 326.84 62.63 326.36 62.63L326.35 62.64Z" fill="#39B715"/>
<path d="M360 58.9601H359.99C359.89 58.9601 357.43 58.9101 355.29 58.6601C354.76 58.6001 354.18 58.5001 353.54 58.3901C351.54 58.0501 349.06 57.6201 345.76 57.9201C345.35 57.9501 344.98 57.6501 344.95 57.2401C344.92 56.8301 345.22 56.4601 345.63 56.4301C349.12 56.1201 351.82 56.5801 353.8 56.9201C354.42 57.0301 354.97 57.1201 355.47 57.1801C357.54 57.4201 360.01 57.4701 360.03 57.4701C360.44 57.4701 360.77 57.8201 360.77 58.2401C360.77 58.6501 360.43 58.9701 360.02 58.9701L360 58.9601Z" fill="#39B715"/>
<path d="M337.11 66.6999C334.82 66.6999 332.31 66.5399 330.09 66.3999C328.08 66.2699 326.34 66.1599 325.39 66.2199C324.98 66.2199 324.62 65.9299 324.6 65.5099C324.58 65.0999 324.89 64.7399 325.31 64.7199C326.35 64.6599 328.13 64.7699 330.19 64.8999C334.08 65.1499 339.4 65.4799 341.98 64.7399C342.38 64.6299 342.79 64.8599 342.91 65.2599C343.02 65.6599 342.79 66.0699 342.4 66.1899C341.06 66.5699 339.18 66.6999 337.12 66.6999H337.11Z" fill="#39B715"/>
<path d="M302.4 78.43C302.04 78.43 301.72 78.16 301.66 77.79C301.6 77.38 301.88 77 302.29 76.94L303.07 76.82C309.87 75.77 315.24 74.95 318.4 74.95C319.45 74.95 321.63 74.87 324.15 74.77C329.31 74.58 336.37 74.31 339.45 74.54C343.99 74.87 348.03 75.7 348.07 75.71C348.48 75.79 348.74 76.19 348.65 76.6C348.57 77.01 348.17 77.27 347.76 77.18C347.72 77.18 343.77 76.36 339.34 76.04C336.34 75.82 329.32 76.08 324.2 76.28C321.66 76.38 319.47 76.46 318.39 76.46C315.35 76.46 309.76 77.32 303.29 78.31L302.51 78.43C302.51 78.43 302.43 78.43 302.39 78.43H302.4Z" fill="#39B715"/>
<path d="M334.22 80.99C334.22 80.99 334.17 80.99 334.14 80.99C331.24 80.92 315.94 76.76 315.29 76.59C314.89 76.48 314.66 76.07 314.76 75.67C314.87 75.27 315.27 75.03 315.68 75.14C321.13 76.62 332 79.44 334.17 79.49C334.19 79.49 334.21 79.49 334.22 79.49C336.43 79.49 342.5 76.4 344.67 75.2C345.03 75 345.49 75.13 345.69 75.49C345.89 75.85 345.76 76.31 345.4 76.51C344.57 76.97 337.22 80.98 334.21 80.98L334.22 80.99Z" fill="#39B715"/>
<path d="M300.33 90.47C300.01 90.47 299.71 90.26 299.61 89.94C299.49 89.54 299.71 89.12 300.11 89C304.55 87.64 309.92 86.83 313.78 86.95C317.65 87.06 325.79 85.93 325.88 85.92C326.29 85.86 326.67 86.15 326.73 86.56C326.79 86.97 326.5 87.35 326.09 87.41C325.75 87.46 317.75 88.57 313.74 88.45C310.01 88.34 304.85 89.12 300.55 90.44C300.48 90.46 300.4 90.47 300.33 90.47Z" fill="#39B715"/>
<path d="M333.46 87.66C333.1 87.66 332.78 87.4 332.72 87.04C332.65 86.63 332.93 86.24 333.33 86.18C336.71 85.61 340.31 85.22 343.2 84.91C345.3 84.68 347.11 84.49 347.72 84.33C348.12 84.23 348.53 84.46 348.63 84.87C348.73 85.27 348.5 85.68 348.09 85.79C347.37 85.98 345.68 86.16 343.35 86.41C340.48 86.72 336.9 87.11 333.57 87.67C333.53 87.67 333.49 87.68 333.44 87.68L333.46 87.66Z" fill="#39B715"/>
<path d="M305.74 95.0999C305.35 95.0999 305.01 94.7899 304.99 94.3899C304.97 93.9799 305.28 93.6199 305.7 93.5999C311.43 93.2799 315.9 92.3899 319.49 91.6799C323.54 90.8799 326.74 90.2499 329.97 90.6799C335.78 91.4599 347.23 90.1199 347.35 90.1099C347.76 90.0599 348.13 90.3599 348.18 90.7699C348.23 91.1799 347.93 91.5499 347.52 91.5999C347.04 91.6599 335.76 92.9699 329.77 92.1699C326.8 91.7699 323.7 92.3799 319.78 93.1599C316.14 93.8799 311.61 94.7699 305.78 95.0999C305.77 95.0999 305.75 95.0999 305.74 95.0999Z" fill="#39B715"/>
<path d="M179.86 113.19C179.69 107.87 187.07 86.39 188.96 86.91C190.85 87.43 199.95 104.27 201.15 107.87C202.35 111.47 206.3 201.88 206.65 204.94C206.65 204.94 250.79 199.98 253.36 200.04C255.94 200.09 264.86 206.78 264.86 206.78L260.12 211.01C260.12 211.01 251.65 211.53 246.51 215.93C246.51 215.93 215.42 211.44 206.83 211.27C198.24 211.1 199.1 208.89 199.1 208.89C199.1 208.89 179.96 116.25 179.87 113.21L179.86 113.19Z" fill="#39B715"/>
<path d="M195.58 204.06C192.95 208.66 193.47 215.78 199.97 217.14C206.48 218.51 211.97 212.25 210.79 205.83C209.61 199.41 199.97 196.36 195.58 204.06Z" fill="#39B715"/>
<path d="M208.23 16.93C207.97 16.93 207.72 16.8 207.58 16.56C207.37 16.2 207.49 15.74 207.85 15.53C207.85 15.53 208.69 15.02 208.87 14.24C208.96 13.83 208.86 13.39 208.54 12.92C206.51 9.84002 207.38 5.80002 210.69 2.86002C211 2.58002 211.47 2.61002 211.75 2.92002C212.02 3.23002 212 3.70002 211.69 3.98002C208.96 6.40002 208.2 9.66002 209.8 12.09C210.34 12.92 210.52 13.76 210.33 14.58C210.01 15.97 208.76 16.74 208.62 16.82C208.5 16.89 208.37 16.92 208.24 16.92L208.23 16.93Z" fill="#39B715"/>
<path d="M217.18 20.1C217.03 20.1 216.88 20.06 216.75 19.97C216.41 19.73 216.33 19.27 216.56 18.93C217.22 17.98 217.68 16.54 216.58 12.51C215.67 9.19004 217.09 7.39004 218.46 5.65004C219.56 4.26004 220.59 2.94004 220.71 0.720044C220.73 0.310044 221.08 -0.00995591 221.5 0.0100441C221.91 0.0300441 222.23 0.380044 222.21 0.800044C222.07 3.50004 220.78 5.14004 219.64 6.58004C218.34 8.22004 217.32 9.52004 218.03 12.12C219.29 16.75 218.66 18.54 217.79 19.79C217.64 20 217.41 20.11 217.17 20.11L217.18 20.1Z" fill="#39B715"/>
<path d="M223.04 20.44C222.74 20.44 222.45 20.25 222.34 19.95C222.19 19.56 222.39 19.13 222.78 18.98C225.23 18.06 225.08 17.44 224.59 15.37C224.5 14.97 224.4 14.54 224.31 14.08C223.9 11.91 224.85 11.05 225.7 10.29C226.24 9.81 226.79 9.31 227.18 8.37C227.34 7.99 227.78 7.81 228.16 7.96C228.54 8.12 228.72 8.56 228.57 8.94C228.05 10.19 227.3 10.86 226.7 11.4C225.92 12.1 225.53 12.45 225.79 13.79C225.87 14.23 225.97 14.64 226.06 15.02C226.56 17.16 226.99 19 223.31 20.38C223.22 20.41 223.13 20.43 223.05 20.43L223.04 20.44Z" fill="#39B715"/>
<path d="M179.15 35.14C177.52 35.14 176.17 34.3 175.26 32.71C173.24 29.21 173.78 23.03 175.62 19.85C176.55 18.24 177.77 17.38 179.15 17.38C182.18 17.38 184.45 22.83 184.45 27.71C184.45 32.36 182.47 35.14 179.15 35.14ZM179.15 18.88C178.13 18.88 177.37 19.81 176.92 20.6C175.14 23.68 174.97 29.2 176.56 31.96C177.2 33.07 178.07 33.64 179.15 33.64C182.58 33.64 182.95 29.5 182.95 27.71C182.95 23.42 181 18.88 179.15 18.88Z" fill="#27449B"/>
<path d="M178.76 62.17H178.75C178.34 62.17 178 61.82 178.01 61.41L178.4 34.38C178.4 33.97 178.76 33.67 179.16 33.64C179.57 33.64 179.91 33.99 179.9 34.4L179.51 61.43C179.51 61.84 179.17 62.17 178.76 62.17Z" fill="#27449B"/>
<path d="M165.33 35.14C164.02 35.14 162.94 34.7 162.13 33.82C160 31.54 160.03 26.59 160.37 21.59C160.4 21.18 160.76 20.86 161.17 20.89C161.58 20.92 161.9 21.28 161.87 21.69C161.56 26.13 161.48 30.92 163.23 32.79C163.76 33.36 164.45 33.63 165.34 33.63C166.45 33.63 167.29 33.32 167.89 32.67C169.61 30.83 169.32 26.61 169.06 22.88C169.03 22.4 168.99 21.92 168.97 21.46C168.95 21.05 169.26 20.69 169.67 20.67C170.1 20.64 170.44 20.96 170.46 21.37C170.49 21.83 170.52 22.3 170.55 22.77C170.83 26.8 171.14 31.37 168.98 33.68C168.09 34.63 166.86 35.12 165.33 35.12V35.14Z" fill="#27449B"/>
<path d="M164.42 35.05C164.02 35.05 163.69 34.73 163.67 34.33C163.67 34.24 163.35 25.74 163.13 22.58C163.1 22.17 163.41 21.81 163.83 21.78C164.24 21.75 164.6 22.06 164.63 22.48C164.85 25.67 165.17 34.19 165.17 34.28C165.19 34.69 164.86 35.04 164.45 35.06C164.45 35.06 164.43 35.06 164.42 35.06V35.05Z" fill="#27449B"/>
<path d="M166.93 34.9C166.52 34.9 166.19 34.58 166.18 34.17C166.18 34.08 165.95 24.96 165.95 22.53C165.95 22.12 166.29 21.78 166.7 21.78C167.11 21.78 167.45 22.12 167.45 22.53C167.45 24.95 167.68 34.04 167.68 34.14C167.69 34.55 167.36 34.9 166.95 34.91H166.93V34.9Z" fill="#27449B"/>
<path d="M166.24 61.75C165.84 61.75 165.51 61.43 165.49 61.03C165.49 60.83 164.78 41.15 164.58 34.41C164.57 34 164.89 33.65 165.31 33.64C165.71 33.62 166.07 33.95 166.08 34.37C166.28 41.1 166.98 60.78 166.99 60.98C167 61.39 166.68 61.74 166.27 61.76C166.27 61.76 166.25 61.76 166.24 61.76V61.75Z" fill="#27449B"/>
<path d="M171.45 70.2499C158.74 70.2499 143.93 60.9599 141.05 45.3199C137.99 28.7099 147.91 12.2199 162.71 9.30995C175.91 6.70995 186.94 10.8699 196.41 22.0299C196.68 22.3499 196.64 22.8199 196.32 23.0899C196 23.3599 195.53 23.3199 195.26 22.9999C186.18 12.2899 175.62 8.29995 163 10.7799C149.23 13.4899 139.66 29.4999 142.52 45.0499C145.26 59.9099 159.35 68.7499 171.44 68.7499C171.49 68.7499 171.53 68.7499 171.58 68.7499C183.81 68.6799 195.34 61.9899 199 52.8499C199.15 52.4599 199.59 52.2799 199.98 52.4299C200.36 52.5799 200.55 53.0199 200.4 53.4099C196.46 63.2499 184.61 70.1799 171.59 70.2499C171.54 70.2499 171.49 70.2499 171.44 70.2499H171.45Z" fill="#39B715"/>
<path d="M225.79 28.2C225.64 28.2 225.49 28.16 225.36 28.07C224.97 27.8 224.41 27.51 223.73 27.23C219.54 25.44 210.94 23.52 206.04 22.99C204.61 22.83 203.88 22.84 203.51 22.87C203.1 22.91 202.73 22.61 202.69 22.19C202.65 21.78 202.95 21.41 203.37 21.37C204.01 21.31 204.97 21.35 206.21 21.49C211.21 22.03 220.02 24 224.32 25.84C225.1 26.16 225.75 26.49 226.23 26.83C226.57 27.07 226.65 27.53 226.42 27.87C226.27 28.08 226.04 28.19 225.8 28.19L225.79 28.2Z" fill="#27449B"/>
<path d="M224.01 26.54C223.86 27.52 223 28.34 221.47 28.65C218.61 29.22 210.1 27.46 206.28 24.3C205.62 23.76 205.58 22.96 206.12 22.25C210.97 22.77 219.71 24.7 224.02 26.54H224.01Z" fill="#27449B"/>
<path d="M220.13 29.5C216.29 29.5 209.26 27.73 205.79 24.88C204.84 24.1 204.72 22.84 205.51 21.8C205.67 21.59 205.93 21.48 206.19 21.51C211.2 22.05 220.01 24.02 224.3 25.86C224.61 25.99 224.8 26.33 224.75 26.66C224.54 28.02 223.37 29.04 221.61 29.39C221.2 29.47 220.7 29.51 220.13 29.51V29.5ZM206.52 23.05C206.44 23.31 206.52 23.53 206.75 23.72C210.47 26.79 218.8 28.42 221.32 27.91C222.15 27.75 222.75 27.41 223.05 26.96C218.83 25.31 211.22 23.61 206.51 23.05H206.52Z" fill="#27449B"/>
<path d="M212.86 53.09C209.2 53.09 205.36 52.32 202.35 51.03C195.77 48.23 195.21 42.36 195.35 38.18C195.53 33.03 198.52 24.84 200.07 21.89C200.26 21.52 200.72 21.38 201.08 21.58C201.45 21.77 201.59 22.23 201.39 22.59C199.93 25.35 197.01 33.38 196.84 38.23C196.63 44.24 198.51 47.76 202.92 49.64C208.57 52.04 217.31 52.49 221.31 49.33C224.83 46.54 227.04 38.75 227.39 27.95C227.4 27.54 227.74 27.2 228.16 27.22C228.57 27.23 228.9 27.58 228.89 27.99C228.68 34.6 227.54 46.3 222.24 50.49C219.96 52.29 216.49 53.06 212.85 53.06L212.86 53.09Z" fill="#27449B"/>
<path d="M231.76 51.79C228.91 51.79 225.78 50.89 222.87 49.05C222.52 48.83 222.42 48.37 222.64 48.02C222.86 47.67 223.32 47.56 223.67 47.79C229.43 51.43 236.3 51 238.99 46.83C240.85 43.95 240.8 40.21 238.89 37.53C236.75 34.54 232.76 33.51 227.93 34.7C227.53 34.8 227.12 34.55 227.02 34.15C226.92 33.75 227.17 33.34 227.57 33.24C233.03 31.89 237.6 33.13 240.11 36.65C242.38 39.82 242.44 44.24 240.25 47.63C238.48 50.38 235.34 51.79 231.76 51.79Z" fill="#27449B"/>
<path d="M229.23 47.2299C228.45 47.2299 227.65 47.1399 226.86 46.9499C226.46 46.8499 226.21 46.4499 226.3 46.0499C226.4 45.6499 226.8 45.3899 227.2 45.4899C229.28 45.9899 231.51 45.6899 232.89 44.7299C233.78 44.1099 234.3 43.2399 234.43 42.1399C234.55 41.1699 234.22 40.3799 233.46 39.7999C232.05 38.7199 229.41 38.5499 227.31 39.3899C226.93 39.5399 226.49 39.3599 226.33 38.9699C226.18 38.5899 226.36 38.1499 226.75 37.9899C229.34 36.9499 232.55 37.2099 234.37 38.5999C235.54 39.4999 236.09 40.8199 235.91 42.3099C235.73 43.8299 234.98 45.0899 233.74 45.9499C232.55 46.7799 230.93 47.2199 229.22 47.2199L229.23 47.2299Z" fill="#27449B"/>
<path d="M192.28 378.39C181.63 378.39 162.89 375.63 148.99 370.95C148.2 370.69 147.78 369.83 148.05 369.05C148.31 368.27 149.16 367.85 149.95 368.11C165.1 373.21 186.06 375.99 195.38 375.29C196.22 375.22 196.93 375.85 196.99 376.67C197.05 377.5 196.43 378.22 195.61 378.28C194.62 378.35 193.51 378.39 192.29 378.39H192.28Z" fill="#27449B"/>
<path d="M284.27 353C283.72 353 283.18 352.69 282.92 352.16C282.55 351.42 282.86 350.52 283.61 350.15C294.06 345.03 308.21 332.42 309.91 330.09C310.4 329.42 311.34 329.27 312 329.76C312.67 330.25 312.82 331.18 312.33 331.85C310.33 334.6 295.75 347.54 284.93 352.84C284.72 352.94 284.49 352.99 284.27 352.99V353Z" fill="#27449B"/>
<path d="M356.38 270.68C356.16 270.68 355.95 270.63 355.74 270.53C354.99 270.17 354.67 269.28 355.03 268.53C361.81 254.26 365.56 234.77 365.26 227.07C365.23 226.24 365.87 225.54 366.7 225.51C367.57 225.48 368.23 226.12 368.26 226.95C368.57 234.95 364.72 255.13 357.74 269.81C357.48 270.35 356.95 270.67 356.38 270.67V270.68Z" fill="#27449B"/>
<path d="M368.21 180.11C367.4 180.11 366.73 179.46 366.71 178.64C366.34 159.2 357.27 128.58 349.08 111.35C348.72 110.6 349.04 109.71 349.79 109.35C350.54 108.99 351.43 109.31 351.79 110.06C360.12 127.56 369.34 158.74 369.71 178.58C369.73 179.41 369.07 180.09 368.24 180.11C368.24 180.11 368.22 180.11 368.21 180.11Z" fill="#27449B"/>
<path d="M284.56 55.03C284.39 55.03 284.22 55 284.05 54.94C277.76 52.67 257.05 47.6 245.31 46.08C244.49 45.97 243.91 45.22 244.01 44.4C244.12 43.58 244.88 43 245.69 43.1C257.6 44.64 278.65 49.8 285.06 52.11C285.84 52.39 286.24 53.25 285.96 54.03C285.74 54.64 285.16 55.02 284.55 55.02L284.56 55.03Z" fill="#27449B"/>
<path d="M106.38 84.5901C105.95 84.5901 105.53 84.4101 105.23 84.0601C104.7 83.4301 104.77 82.4801 105.41 81.9501C119.12 70.3701 138.26 59.7801 143.01 58.6701C143.82 58.4801 144.62 58.9801 144.81 59.7901C145 60.6001 144.5 61.4001 143.69 61.5901C139.3 62.6101 120.5 73.1201 107.34 84.2401C107.06 84.4801 106.71 84.5901 106.37 84.5901H106.38Z" fill="#27449B"/>
<path d="M42.63 167.35C42.53 167.35 42.42 167.34 42.31 167.32C41.5 167.15 40.98 166.35 41.16 165.54C44.75 148.81 55.26 131.89 60.14 127.13C60.73 126.55 61.68 126.56 62.26 127.15C62.84 127.74 62.83 128.69 62.24 129.27C57.73 133.69 47.52 150.25 44.1 166.17C43.95 166.87 43.33 167.36 42.64 167.36L42.63 167.35Z" fill="#27449B"/>
<path d="M48.1 80.4C47.7 80.4 47.37 80.08 47.35 79.68C46.91 67.77 46.03 52.76 46.02 52.61C46.01 52.4 46.08 52.2 46.22 52.05C46.36 51.9 46.56 51.81 46.77 51.81H68.44C70.66 51.81 74.25 51.75 78.4 51.69C98.74 51.37 100.62 51.51 101.15 52.03C101.41 52.29 102.03 52.91 101.92 78.99C101.92 79.4 101.58 79.74 101.17 79.74C100.76 79.74 100.42 79.4 100.42 78.99C100.46 70.03 100.38 55.64 100.01 53.18C97.81 52.89 86.23 53.07 78.42 53.2C74.26 53.27 70.67 53.32 68.43 53.32H47.55C47.74 56.59 48.45 69.28 48.83 79.63C48.85 80.04 48.52 80.39 48.11 80.41C48.11 80.41 48.09 80.41 48.08 80.41L48.1 80.4Z" fill="#27449B"/>
<path d="M33.79 78.41C32.54 78.41 31.35 78.12 30.37 77.52C27.86 76.01 26.53 70.45 27.6 65.84C28.42 62.27 30.5 60.16 33.43 59.91C35.3 59.75 37.02 60.36 38.41 61.69C40.98 64.15 41.98 68.52 41.83 71.75C41.73 74 40.28 76.09 37.96 77.33C36.63 78.04 35.17 78.4 33.79 78.4V78.41ZM33.56 61.41C30.69 61.66 29.53 64.15 29.06 66.19C28.1 70.36 29.4 75.2 31.14 76.24C32.77 77.22 35.17 77.13 37.25 76.02C39.13 75.01 40.25 73.43 40.33 71.69C40.46 68.89 39.58 64.91 37.37 62.78C36.29 61.75 35.01 61.28 33.56 61.41Z" fill="#27449B"/>
<path d="M30.44 110.92C30.14 110.92 29.85 110.74 29.74 110.44C28.28 106.63 25.62 87.8399 30.62 82.1899C32.27 80.3199 35.82 79.3499 38.53 80.0199C40.62 80.5399 42.05 81.9799 42.55 84.0799C42.65 84.4799 42.4 84.8899 42 84.9799C41.59 85.0699 41.19 84.8299 41.1 84.4299C40.72 82.8599 39.74 81.8699 38.18 81.4799C35.81 80.8899 32.89 81.8999 31.76 83.1799C27.42 88.0899 29.71 106.1 31.16 109.9C31.31 110.29 31.11 110.72 30.73 110.87C30.64 110.9 30.55 110.92 30.46 110.92H30.44Z" fill="#27449B"/>
<path d="M58.3 80.65C57.79 80.65 57.36 80.27 57.31 79.76C57.3 79.67 56.31 70.4 55.53 61.2C55.48 60.65 55.89 60.17 56.44 60.12C56.99 60.07 57.47 60.48 57.52 61.03C58.16 68.51 58.93 76.02 59.2 78.61C63.26 78.39 78.62 77.54 79.68 77.54C80.23 77.54 80.68 77.99 80.68 78.54C80.68 79.09 80.23 79.54 79.68 79.54C78.76 79.54 65.33 80.27 58.36 80.66C58.34 80.66 58.32 80.66 58.3 80.66V80.65Z" fill="#27449B"/>
<path d="M48.5201 82.97C52.7601 82.65 54.8001 84.92 55.9601 90.13C57.1301 95.34 55.48 102.88 49.17 102.74C42.86 102.6 42.0401 95.41 42.3201 91.91C42.5901 88.41 44.5401 83.27 48.5201 82.97Z" fill="#39B715"/>
<path d="M49.34 103.49C49.28 103.49 49.22 103.49 49.16 103.49C47.08 103.44 45.38 102.7 44.09 101.27C41.88 98.83 41.35 94.8 41.58 91.85C41.87 88.17 43.94 82.57 48.47 82.22C52.95 81.88 55.41 84.2 56.7 89.96C57.45 93.33 57.14 98.04 54.74 100.98C53.39 102.63 51.53 103.49 49.35 103.49H49.34ZM48.57 83.72C45.01 83.99 43.3 88.92 43.06 91.97C42.86 94.49 43.3 98.18 45.19 100.27C46.19 101.38 47.54 101.96 49.18 101.99C50.98 102.03 52.46 101.37 53.56 100.03C55.63 97.5 55.87 93.21 55.22 90.29C54.09 85.22 52.28 83.44 48.57 83.72Z" fill="#39B715"/>
<path d="M39.9 122.18C39.42 114.6 40.81 107.82 44.18 105.7C46.77 104.07 55.98 103.37 57.78 108.62C59.57 113.87 59.09 122.18 59.09 122.18C59.09 122.18 55.68 122.21 52.31 122.48C48.35 122.81 45 123.9 39.9 122.18Z" fill="#39B715"/>
<path d="M45.54 123.88C43.79 123.88 41.88 123.64 39.66 122.9C39.37 122.8 39.17 122.54 39.15 122.24C38.73 115.61 39.72 107.62 43.78 105.07C45.62 103.92 50.49 103.13 54.27 104.46C56.41 105.22 57.87 106.58 58.49 108.38C60.31 113.71 59.86 121.88 59.84 122.22C59.82 122.61 59.49 122.92 59.1 122.93C59.07 122.93 55.67 122.96 52.38 123.23C51.53 123.3 50.72 123.41 49.9 123.51C48.5 123.69 47.08 123.87 45.54 123.87V123.88ZM40.62 121.63C44.2 122.74 46.88 122.39 49.71 122.03C50.55 121.92 51.39 121.81 52.25 121.74C54.69 121.54 57.18 121.47 58.37 121.44C58.44 119.35 58.5 113.05 57.07 108.86C56.6 107.48 55.49 106.47 53.77 105.87C50.52 104.72 46.09 105.39 44.58 106.33C41.76 108.1 40.22 114.08 40.62 121.62V121.63Z" fill="#39B715"/>
<path d="M64.0501 99.0899C66.3801 103.52 72.5001 103.64 75.8001 99.62C79.1001 95.59 75.2101 83.0499 68.5701 83.8499C63.0901 84.5099 60.36 92.0699 64.06 99.0899H64.0501Z" fill="#27449B"/>
<path d="M69.84 103.28C69.57 103.28 69.31 103.27 69.04 103.24C66.59 102.99 64.53 101.61 63.39 99.44C61.24 95.35 61.03 90.67 62.84 87.21C64.08 84.85 66.08 83.39 68.48 83.1C71.28 82.76 73.93 84.49 75.77 87.85C77.82 91.59 78.64 97.34 76.38 100.09C74.72 102.12 72.32 103.28 69.84 103.28ZM64.72 98.74C65.62 100.45 67.25 101.55 69.19 101.75C71.44 101.98 73.7 101 75.22 99.15C76.86 97.16 76.5 92.32 74.45 88.58C73.73 87.26 71.7 84.23 68.65 84.6C66.76 84.83 65.16 86.01 64.16 87.92C62.57 90.94 62.79 95.09 64.71 98.75L64.72 98.74Z" fill="#27449B"/>
<path d="M61.59 120.57C61.24 111.4 62.12 105.09 68.11 104.51C76.26 103.71 78.2 108.84 78.82 120.98C77.64 122.04 73.62 122.19 69.67 122.06C66.36 121.95 63.1 121.76 61.59 120.57Z" fill="#27449B"/>
<path d="M71.98 122.85C71.27 122.85 70.5 122.84 69.64 122.81C65.96 122.69 62.79 122.47 61.12 121.16C60.95 121.02 60.84 120.82 60.83 120.6C60.53 112.82 60.83 104.47 68.02 103.76C71.19 103.45 73.56 104.02 75.27 105.49C78.31 108.11 79.18 113.56 79.55 120.94C79.56 121.17 79.47 121.38 79.3 121.53C78.66 122.11 77.18 122.84 71.96 122.84L71.98 122.85ZM62.33 120.17C63.91 121.11 67.37 121.23 69.7 121.31C75.34 121.5 77.34 120.98 78.05 120.61C77.69 113.83 76.89 108.86 74.31 106.64C72.91 105.43 70.96 104.99 68.19 105.27C62.94 105.78 62.03 111.35 62.34 120.18L62.33 120.17Z" fill="#27449B"/>
<path d="M85.71 83.8101C90.3 82.9401 93.2 86.3501 94.29 92.8401C95.38 99.3301 89.05 101.83 86.63 101.44C84.21 101.05 80.54 99.9901 80.61 93.1701C80.68 86.3501 83.86 84.1601 85.71 83.8101Z" fill="#39B715"/>
<path d="M87.15 102.23C86.92 102.23 86.7 102.21 86.5 102.18C83.61 101.71 79.77 100.27 79.85 93.16C79.92 86.5 82.97 83.56 85.56 83.07C87.51 82.7 89.24 83.03 90.7 84.04C92.85 85.54 94.3 88.45 95.02 92.71C95.6 96.15 94.23 98.38 92.97 99.64C91.28 101.34 88.85 102.22 87.14 102.22L87.15 102.23ZM85.84 84.55C83.81 84.94 81.41 87.43 81.35 93.18C81.28 99.82 84.97 100.42 86.74 100.7C87.8 100.87 90.19 100.32 91.91 98.59C93.37 97.11 93.92 95.22 93.54 92.96C92.9 89.17 91.62 86.51 89.84 85.27C88.73 84.5 87.38 84.25 85.84 84.54V84.55Z" fill="#39B715"/>
<path d="M85.34 104.52C90.32 101.93 93.79 104.68 95.9 108.9C98.01 113.12 96.84 120.71 96.84 120.71C96.84 120.71 94.1 120.32 90.82 120.71C87.54 121.1 82.85 120.24 81.68 118.52C80.5 116.8 81.18 106.69 85.35 104.52H85.34Z" fill="#39B715"/>
<path d="M89.2 121.54C86.17 121.54 82.31 120.76 81.06 118.94C80.19 117.67 80.2 113.65 81.07 110.15C81.63 107.92 82.77 105.01 85 103.85C87.15 102.73 89.2 102.47 91.07 103.08C93.26 103.79 95.11 105.64 96.58 108.56C98.77 112.95 97.64 120.5 97.59 120.82C97.53 121.23 97.15 121.5 96.74 121.45C96.71 121.45 94.05 121.08 90.91 121.45C90.39 121.51 89.81 121.54 89.2 121.54ZM89.04 104.26C87.99 104.26 86.87 104.57 85.69 105.18C84.33 105.89 83.21 107.78 82.52 110.52C81.62 114.11 81.86 117.46 82.29 118.09C83.19 119.41 87.45 120.35 90.73 119.96C93.07 119.68 95.13 119.79 96.19 119.88C96.41 117.94 96.85 112.46 95.23 109.23C93.97 106.71 92.37 105.08 90.6 104.5C90.1 104.34 89.58 104.26 89.04 104.26Z" fill="#39B715"/>
<path d="M11.5401 225.02C11.1901 225.02 10.8701 224.77 10.8001 224.41C10.7901 224.34 9.37005 217.07 6.71005 206.96C6.16005 204.85 5.58005 202.71 5.01005 200.58C2.78005 192.22 0.670053 184.33 5.31133e-05 179.72C-0.0599469 179.31 0.230053 178.93 0.640053 178.87C1.04005 178.81 1.43005 179.1 1.49005 179.51C2.14005 184.03 4.24005 191.88 6.46005 200.2C7.03005 202.33 7.60005 204.48 8.16005 206.59C10.8301 216.76 12.2601 224.06 12.2801 224.14C12.3601 224.55 12.0901 224.94 11.6901 225.02C11.6401 225.02 11.5901 225.03 11.5501 225.03L11.5401 225.02Z" fill="#27449B"/>
<path d="M21.56 256.44C21.56 256.44 21.46 256.44 21.42 256.44C18.29 256.34 17.23 249.93 15.88 241.81L15.56 239.89C15.49 239.48 15.77 239.09 16.18 239.03C16.59 238.95 16.97 239.24 17.04 239.64L17.36 241.56C18.34 247.49 19.57 254.88 21.47 254.94C23.03 254.98 26.82 253.87 30.47 252.8C32.82 252.11 35.25 251.39 37.36 250.89C43.05 249.54 51.41 247.66 58.24 246.88L59.34 246.76C62.86 246.37 65.4 246.08 66.29 244.79C66.83 244 66.85 242.67 66.33 240.72C64.69 234.49 61.61 221.78 60.1 214.13C59.41 210.62 57.6 202.79 55.86 195.21C53.8 186.27 51.86 177.83 51.57 175.85C51.2 173.24 50.53 172.35 50.05 172.43C49.94 172.44 49.58 172.49 49 172.56C45.39 173.02 34.42 174.43 26.8 175C22.09 175.35 16.8 176.09 12.55 176.69C8.67998 177.23 5.62998 177.66 4.09998 177.66C3.68998 177.66 3.34998 177.32 3.34998 176.91C3.34998 176.5 3.68998 176.16 4.09998 176.16C5.51998 176.16 8.67998 175.72 12.34 175.21C16.61 174.61 21.93 173.87 26.69 173.51C34.27 172.94 45.22 171.54 48.81 171.08C49.4 171 49.77 170.96 49.88 170.94C51.51 170.76 52.58 172.34 53.05 175.64C53.32 177.55 55.35 186.36 57.31 194.87C59.06 202.46 60.86 210.3 61.56 213.83C63.07 221.45 66.13 234.11 67.77 240.33C68.41 242.76 68.33 244.44 67.51 245.63C66.23 247.49 63.4 247.81 59.49 248.25L58.39 248.37C51.65 249.14 43.34 251.01 37.69 252.35C35.61 252.84 33.2 253.55 30.88 254.24C26.88 255.42 23.41 256.45 21.55 256.45L21.56 256.44Z" fill="#27449B"/>
<path d="M13.36 181.58C12.59 181.58 11.81 181.56 11.02 181.51C10.61 181.49 10.29 181.13 10.31 180.72C10.33 180.31 10.68 179.99 11.1 180.02C16.07 180.3 20.41 179.58 24.6 178.87C29.02 178.13 43.31 176.75 44.53 176.67C44.96 176.64 45.3 176.96 45.33 177.37C45.36 177.78 45.04 178.14 44.63 178.17C43.44 178.24 29.11 179.63 24.86 180.35C21.25 180.96 17.53 181.58 13.37 181.58H13.36Z" fill="#27449B"/>
<path d="M17.21 217.95C16.92 217.95 16.65 217.78 16.52 217.5C15.6 215.41 14.06 208.44 12.93 203.36C12.68 202.23 12.45 201.2 12.26 200.38C12.03 199.38 11.77 198.28 11.48 197.11C10.48 192.95 9.34001 188.25 8.97001 184.39C8.93001 183.98 9.23001 183.61 9.65001 183.57C10.06 183.53 10.43 183.83 10.47 184.25C10.83 188 12 192.86 12.95 196.76C13.23 197.94 13.5 199.05 13.73 200.05C13.92 200.88 14.15 201.91 14.4 203.04C15.45 207.78 17.04 214.94 17.9 216.9C18.07 217.28 17.9 217.72 17.51 217.89C17.41 217.93 17.31 217.95 17.21 217.95Z" fill="#27449B"/>
<path d="M28.94 247.54C28.43 247.54 27.93 247.5 27.43 247.41C23.96 246.79 22.49 240.34 20.93 233.51C20.61 232.11 20.29 230.7 19.95 229.34C19.85 228.94 20.09 228.53 20.5 228.43C20.9 228.33 21.31 228.57 21.41 228.98C21.75 230.35 22.08 231.77 22.4 233.18C23.72 238.95 25.21 245.49 27.71 245.94C29.74 246.3 31.94 245.69 34.74 244.92C36.59 244.41 38.68 243.83 41.06 243.46C43.15 243.13 45.16 242.88 47.11 242.64C50.58 242.21 53.58 241.84 55.3 241.22C55.69 241.08 56.12 241.28 56.26 241.67C56.4 242.06 56.2 242.49 55.81 242.63C53.93 243.3 50.86 243.69 47.3 244.13C45.36 244.37 43.36 244.62 41.29 244.94C38.99 245.3 36.94 245.87 35.13 246.37C32.87 247 30.85 247.55 28.94 247.55V247.54Z" fill="#27449B"/>
<path d="M61.59 241.38C61.35 241.38 61.12 241.27 60.98 241.06C60.85 240.87 60.83 240.85 58.92 233.26C57.74 228.55 56.26 222.7 55.61 220.39C54.99 218.19 54.31 214.7 53.59 211C52.93 207.58 52.24 204.04 51.62 201.72C50.31 196.86 47.22 184.09 46.2 179.77C46.11 179.37 46.36 178.96 46.76 178.87C47.16 178.77 47.57 179.03 47.66 179.43C48.67 183.74 51.76 196.48 53.07 201.33C53.71 203.7 54.4 207.26 55.07 210.71C55.75 214.21 56.45 217.83 57.06 219.98C57.72 222.31 59.2 228.18 60.38 232.89C61.25 236.33 62.14 239.89 62.28 240.32C62.42 240.64 62.32 241.03 62.02 241.24C61.89 241.33 61.74 241.38 61.59 241.38Z" fill="#27449B"/>
<path d="M26.8301 173.77C26.5901 173.77 26.3601 173.66 26.2101 173.45C25.0801 171.82 24.0001 169.94 24.5401 168.44C24.8501 167.59 25.6201 166.97 26.8501 166.62C28.7201 166.08 30.1201 166.13 31.0001 166.78C31.4201 167.09 31.9301 167.68 31.9601 168.77C32.0101 170.32 31.9601 172.58 31.9601 172.67C31.9601 173.08 31.6001 173.38 31.1901 173.4C30.7801 173.4 30.4501 173.05 30.4601 172.63C30.4601 172.61 30.5101 170.31 30.4601 168.8C30.4401 168.21 30.1901 168.03 30.1101 167.97C29.8401 167.77 29.1001 167.51 27.2601 168.04C26.5201 168.25 26.0801 168.55 25.9501 168.93C25.6001 169.91 26.9901 171.92 27.4401 172.58C27.6801 172.92 27.5901 173.39 27.2501 173.62C27.1201 173.71 26.9701 173.75 26.8201 173.75L26.8301 173.77Z" fill="#39B715"/>
<path d="M21.31 173.02C19.71 173.39 19.91 174.73 20.31 176.68C20.71 178.64 21.01 182.5 22.27 183C23.53 183.5 28.22 182.15 31.24 182.1C34.26 182.05 38.03 182.35 38.78 180.39C39.53 178.43 38.33 172.19 37.27 171.65C36.22 171.11 29.09 171.21 21.31 173.01V173.02Z" fill="#39B715"/>
<path d="M18.54 193.02C17.67 193.02 16.78 192.27 15.94 191.44C15.65 191.15 15.65 190.67 15.94 190.38C16.23 190.09 16.71 190.09 17 190.38C18.17 191.54 18.53 191.52 18.55 191.52C18.7 191.42 19.12 190.74 19.27 186.74C19.29 186.33 19.64 186 20.05 186.02C20.46 186.04 20.79 186.38 20.77 186.8C20.62 190.94 20.2 192.49 19.09 192.92C18.91 192.99 18.73 193.02 18.54 193.02Z" fill="#39B715"/>
<path d="M21.31 204.57C20.44 204.57 19.55 203.91 18.52 202.93C18.22 202.64 18.21 202.17 18.49 201.87C18.78 201.57 19.25 201.56 19.55 201.84C20.85 203.08 21.27 203.09 21.37 203.06C21.63 202.99 22.07 202.34 22.72 199.68C22.82 199.28 23.22 199.03 23.63 199.13C24.03 199.23 24.28 199.64 24.18 200.04C23.53 202.67 22.96 204.16 21.79 204.5C21.63 204.55 21.47 204.57 21.31 204.57Z" fill="#39B715"/>
<path d="M23.94 214.79C22.98 214.79 21.93 214.03 20.78 213.12C20.46 212.86 20.4 212.39 20.66 212.07C20.92 211.74 21.39 211.69 21.71 211.95C22.18 212.32 23.62 213.46 24.02 213.28C24.23 213.19 24.75 212.55 25 208.67C25.03 208.26 25.37 207.95 25.8 207.97C26.21 208 26.53 208.35 26.5 208.77C26.25 212.57 25.75 214.16 24.63 214.66C24.41 214.76 24.18 214.8 23.95 214.8L23.94 214.79Z" fill="#39B715"/>
<path d="M26.92 189.72C26.57 189.72 26.26 189.48 26.19 189.12C26.11 188.71 26.37 188.32 26.77 188.23C28.59 187.85 30.16 187.44 31.43 187.1C32.79 186.74 33.77 186.48 34.49 186.41C34.9 186.38 35.27 186.67 35.31 187.08C35.35 187.49 35.05 187.86 34.64 187.9C34.03 187.96 33.05 188.22 31.8 188.55C30.52 188.89 28.92 189.31 27.07 189.69C27.02 189.7 26.97 189.71 26.92 189.71V189.72Z" fill="#27449B"/>
<path d="M29.5099 202.69C29.1599 202.69 28.8499 202.44 28.7799 202.09C28.6999 201.68 28.9599 201.29 29.3699 201.21C32.8299 200.51 37.5099 199.4 39.5899 198.62C39.9799 198.48 40.4099 198.67 40.5499 199.06C40.6899 199.45 40.4999 199.88 40.1099 200.02C37.9399 200.83 33.2999 201.94 29.6599 202.67C29.6099 202.68 29.5599 202.69 29.5099 202.69Z" fill="#27449B"/>
<path d="M31.23 213C30.9 213 30.6 212.78 30.51 212.45C30.4 212.05 30.63 211.64 31.03 211.53C31.87 211.29 32.69 211.06 33.51 210.82C37.47 209.68 41.21 208.6 44.51 208.31C44.92 208.27 45.29 208.58 45.32 208.99C45.36 209.4 45.05 209.77 44.64 209.8C41.48 210.08 37.81 211.14 33.92 212.26C33.11 212.49 32.28 212.73 31.44 212.97C31.37 212.99 31.3 213 31.24 213H31.23Z" fill="#27449B"/>
<path d="M33.22 222.37C32.88 222.37 32.57 222.13 32.49 221.79C32.4 221.39 32.65 220.98 33.05 220.89C36.23 220.16 39.33 219.4 41.6 218.84C43.29 218.42 44.51 218.12 45.01 218.02C45.42 217.94 45.81 218.2 45.89 218.61C45.97 219.02 45.71 219.41 45.3 219.49C44.83 219.58 43.56 219.9 41.95 220.29C39.68 220.85 36.56 221.62 33.37 222.35C33.31 222.36 33.26 222.37 33.2 222.37H33.22Z" fill="#39B715"/>
<path d="M35.7801 232.83C35.4801 232.83 35.1901 232.65 35.0801 232.35C34.9301 231.96 35.1201 231.53 35.5101 231.38C39.2401 229.95 42.5801 229.5 44.5801 229.24C45.3801 229.13 46.0601 229.04 46.3501 228.94C46.7401 228.81 47.1701 229.01 47.3101 229.4C47.4501 229.79 47.2401 230.22 46.8501 230.36C46.4201 230.51 45.7301 230.6 44.7801 230.73C42.7201 231.01 39.6101 231.42 36.0501 232.79C35.9601 232.82 35.8701 232.84 35.7801 232.84V232.83Z" fill="#39B715"/>
<path d="M323.57 309.57C323.34 309.57 323.12 309.47 322.97 309.27C322.72 308.94 322.79 308.47 323.12 308.22L344.69 292.1C345.02 291.85 345.49 291.92 345.74 292.25C345.99 292.58 345.92 293.05 345.59 293.3L324.02 309.42C323.89 309.52 323.73 309.57 323.57 309.57Z" fill="#39B715"/>
<path d="M330.63 311.73C330.4 311.73 330.18 311.63 330.04 311.44C329.79 311.11 329.85 310.64 330.18 310.39L355.24 291.09C355.57 290.84 356.04 290.9 356.29 291.23C356.54 291.56 356.48 292.03 356.15 292.28L331.09 311.58C330.95 311.69 330.79 311.74 330.63 311.74V311.73Z" fill="#39B715"/>
<path d="M326.36 279.29H323.57V327.33H326.36V279.29Z" fill="#27449B"/>
<path d="M326.36 328.08H323.57C323.16 328.08 322.82 327.74 322.82 327.33V279.29C322.82 278.88 323.16 278.54 323.57 278.54H326.36C326.77 278.54 327.11 278.88 327.11 279.29V327.33C327.11 327.74 326.77 328.08 326.36 328.08ZM324.32 326.58H325.61V280.04H324.32V326.58Z" fill="#27449B"/>
<path d="M355.69 279.29H352.9V327.33H355.69V279.29Z" fill="#27449B"/>
<path d="M355.69 328.08H352.9C352.49 328.08 352.15 327.74 352.15 327.33V279.29C352.15 278.88 352.49 278.54 352.9 278.54H355.69C356.1 278.54 356.44 278.88 356.44 279.29V327.33C356.44 327.74 356.1 328.08 355.69 328.08ZM353.65 326.58H354.94V280.04H353.65V326.58Z" fill="#27449B"/>
<path d="M206.31 48.44C206.2 48.44 206.08 48.41 205.97 48.36C198.97 44.82 199.94 35.59 201.44 31.2C201.57 30.81 202 30.6 202.39 30.73C202.78 30.86 202.99 31.29 202.86 31.68C201.51 35.64 200.57 43.94 206.65 47.02C207.02 47.21 207.17 47.66 206.98 48.03C206.85 48.29 206.58 48.44 206.31 48.44Z" fill="#39B715"/>
<path d="M415.79 183.49C415.79 183.49 415.73 183.49 415.71 183.49C415.07 183.46 414.52 183.06 414.22 182.42C413.96 181.84 412.9 179.67 411.79 177.79C411.21 176.77 410.72 176.04 410.36 175.6C409.13 174.12 408.72 173.16 408.96 172.38C409.06 172.05 409.34 171.61 410.05 171.42C414.07 170.32 422.78 169.41 423.96 170.47C424.19 170.68 424.3 170.97 424.25 171.27C424.25 171.28 424.25 171.3 424.25 171.31C424.12 171.93 422.83 174.11 420 178.75C419.29 179.91 418.68 180.92 418.34 181.5C417.38 183.14 416.44 183.5 415.79 183.5V183.49ZM410.4 172.88C410.43 173.04 410.6 173.54 411.51 174.64C411.94 175.15 412.46 175.94 413.09 177.04C414.23 178.98 415.32 181.21 415.59 181.81C415.62 181.88 415.69 182 415.78 182C415.95 182 416.46 181.76 417.05 180.74C417.39 180.15 418.01 179.13 418.73 177.96C419.94 175.97 421.84 172.86 422.54 171.53C420.61 171.33 414.5 171.76 410.45 172.86C410.43 172.86 410.41 172.87 410.4 172.88Z" fill="#39B715"/>
<path d="M423.52 171.14L412.44 177.41C411.91 176.5 411.39 175.66 410.93 175.12C409.56 173.47 409.2 172.43 410.25 172.14C415.24 170.78 423.65 170.32 423.52 171.14Z" fill="#39B715"/>
<path d="M412.44 178.16C412.18 178.16 411.93 178.03 411.79 177.78C411.21 176.77 410.73 176.03 410.36 175.6C409.13 174.12 408.72 173.16 408.96 172.38C409.06 172.05 409.34 171.61 410.05 171.42C414.07 170.32 422.78 169.41 423.96 170.47C424.19 170.68 424.3 170.97 424.25 171.27C424.25 171.28 424.25 171.3 424.25 171.31C424.21 171.53 424.07 171.71 423.88 171.82L412.8 178.08C412.68 178.15 412.56 178.18 412.43 178.18L412.44 178.16ZM410.4 172.88C410.43 173.04 410.6 173.54 411.51 174.64C411.85 175.05 412.25 175.62 412.71 176.4L421.41 171.49C418.83 171.51 413.89 171.93 410.45 172.87C410.43 172.87 410.41 172.88 410.4 172.89V172.88Z" fill="#39B715"/>
<path d="M409.85 180.97C409.61 180.97 409.37 180.85 409.23 180.64C409 180.3 409.09 179.83 409.43 179.6C409.94 179.26 410.46 178.88 410.96 178.49C411.29 178.23 411.76 178.29 412.01 178.62C412.26 178.95 412.21 179.42 411.88 179.67C411.35 180.08 410.81 180.47 410.27 180.84C410.14 180.93 410 180.97 409.85 180.97Z" fill="#39B715"/>
<path d="M405.58 183.28C405.28 183.28 405.01 183.11 404.89 182.82C404.73 182.44 404.91 182 405.3 181.84C406.2 181.47 407.09 181.03 407.96 180.53C408.32 180.32 408.78 180.45 408.98 180.81C409.19 181.17 409.06 181.63 408.7 181.83C407.78 182.36 406.82 182.83 405.87 183.22C405.78 183.26 405.68 183.28 405.58 183.28Z" fill="#39B715"/>
<path d="M397.78 184.95C397.38 184.95 397.05 184.63 397.03 184.23C397.01 183.82 397.34 183.47 397.75 183.45C399.39 183.39 401 183.15 402.52 182.76C402.92 182.66 403.33 182.9 403.44 183.3C403.54 183.7 403.3 184.11 402.9 184.21C401.27 184.63 399.56 184.88 397.81 184.95C397.81 184.95 397.79 184.95 397.78 184.95Z" fill="#39B715"/>
<path d="M395.03 184.91C395.03 184.91 395 184.91 394.98 184.91C392.51 184.75 390.26 184.3 388.38 183.88C387.98 183.79 387.72 183.39 387.81 182.98C387.9 182.57 388.31 182.32 388.71 182.41C390.53 182.82 392.71 183.25 395.08 183.4C395.49 183.43 395.81 183.78 395.78 184.2C395.75 184.6 395.42 184.9 395.03 184.9V184.91Z" fill="#39B715"/>
</g>
<defs>
<clipPath id="clip0_703_8130">
<rect width="443.89" height="408.09" fill="white"/>
</clipPath>
</defs>
</svg>
