<svg width="561" height="396" viewBox="0 0 561 396" fill="none" xmlns="http://www.w3.org/2000/svg">
<g clip-path="url(#clip0_381_3860)">
<path d="M362.851 157.017C360.566 157.017 358.351 156.982 356.358 156.877C352.511 156.69 346.996 156.737 340.608 156.795C331.06 156.888 319.169 156.994 308.957 156.269C308.479 156.234 308.117 155.814 308.141 155.335C308.176 154.856 308.572 154.482 309.073 154.517C319.227 155.23 331.072 155.125 340.596 155.031C347.008 154.973 352.557 154.926 356.439 155.113C366.861 155.615 383.73 154.529 383.905 154.517C384.383 154.494 384.803 154.856 384.838 155.335C384.873 155.814 384.5 156.234 384.022 156.269C383.882 156.269 372.69 157.005 362.851 157.005V157.017Z" fill="#27449B"/>
<path d="M165.868 331.684C141.713 331.684 117.103 330.995 108.803 330.679C95.9323 330.189 62.4159 329.92 32.9448 330.679C32.5018 330.679 32.0588 330.306 32.0471 329.827C32.0355 329.348 32.4202 328.939 32.8982 328.927C62.4159 328.168 95.9789 328.437 108.872 328.927C122.197 329.43 177.642 330.901 205.54 328.927C233.903 326.918 297.474 327.969 321.256 329.196C344.758 330.411 374.707 328.892 374.998 328.869C375.441 328.834 375.896 329.219 375.919 329.698C375.943 330.177 375.57 330.598 375.092 330.621C374.789 330.633 344.746 332.151 321.162 330.948C297.415 329.722 233.95 328.67 205.656 330.679C195.082 331.427 180.557 331.684 165.868 331.684Z" fill="#27449B"/>
<path d="M88.542 246.19C76.4295 246.19 62.7082 245.933 47.4713 245.174C46.9934 245.151 46.6203 244.742 46.6436 244.251C46.6669 243.772 47.075 243.375 47.5646 243.422C82.1302 245.139 108.92 244.275 126.652 243.691C130.044 243.585 133.087 243.48 135.768 243.41C151.786 243.013 248.989 243.363 283.87 244.415C284.348 244.426 284.732 244.835 284.721 245.314C284.709 245.793 284.313 246.167 283.846 246.167H283.823C248.966 245.116 151.821 244.765 135.826 245.162C133.157 245.232 130.114 245.326 126.722 245.431C116.777 245.758 103.977 246.167 88.5537 246.167L88.542 246.19Z" fill="#27449B"/>
<path d="M162.511 157.064C148.72 157.064 136.281 156.748 130.848 156.269C119.762 155.312 92.8204 155.323 68.642 157.005C68.164 157.04 67.7443 156.678 67.7094 156.188C67.6744 155.709 68.0358 155.288 68.5254 155.253C92.7854 153.559 119.832 153.559 131 154.517C142.448 155.51 185.139 155.837 205.657 153.863C206.135 153.816 206.566 154.167 206.613 154.657C206.66 155.136 206.31 155.569 205.82 155.615C194.955 156.655 177.9 157.052 162.511 157.052V157.064Z" fill="#27449B"/>
<path d="M179.741 252.486C188.543 254.017 205.796 251.949 213.7 252.486C221.604 253.024 230.686 251.762 230.686 251.762C230.686 251.762 234.37 262.205 234.638 276.164C234.906 290.123 228.261 304.969 228.261 304.969C228.261 304.969 214.062 305.425 206.694 307.306C199.326 309.198 181.291 312.691 173.9 307.306C173.9 307.306 175.159 298.662 178.307 288.487C182.609 274.552 182.889 259.495 179.741 252.475V252.486Z" fill="#39B715"/>
<path d="M186.363 311.055C181.315 311.055 176.5 310.296 173.376 308.03C173.108 307.843 172.979 307.516 173.026 307.2C173.038 307.119 174.332 298.37 177.456 288.254C181.49 275.206 182.119 259.986 178.937 252.86C178.808 252.568 178.843 252.218 179.041 251.961C179.24 251.704 179.566 251.587 179.881 251.634C185.022 252.533 193.311 252.159 200.632 251.832C205.715 251.61 210.506 251.388 213.759 251.622C221.476 252.148 230.476 250.921 230.558 250.909C230.966 250.851 231.362 251.096 231.502 251.482C231.537 251.587 235.232 262.217 235.501 276.152C235.769 290.146 229.322 304.724 229.042 305.343C228.902 305.647 228.611 305.845 228.273 305.857C228.133 305.857 214.085 306.324 206.892 308.17C204.292 308.836 194.989 311.055 186.351 311.055H186.363ZM174.845 306.908C181.163 310.95 195.724 309.233 206.472 306.476C213.106 304.771 224.938 304.233 227.666 304.128C228.797 301.442 233.997 288.371 233.752 276.187C233.53 264.518 230.861 255.231 230.068 252.732C227.736 253.012 220.252 253.818 213.63 253.362C210.471 253.152 205.726 253.362 200.702 253.584C193.964 253.888 186.421 254.215 181.093 253.584C183.845 261.574 183.087 275.954 179.123 288.768C176.477 297.33 175.159 304.876 174.833 306.908H174.845Z" fill="#39B715"/>
<path d="M197.403 238.878C192.6 240.338 193.591 245.992 196.645 248.69C196.645 248.69 188.765 265.441 201.472 267.356C201.472 267.356 203.932 276.398 209.049 274.318C214.167 272.239 211.474 264.81 211.474 264.81C211.474 264.81 220.742 261.434 207.615 248.059C207.615 248.059 214.738 233.586 197.403 238.878Z" fill="white"/>
<path d="M492.382 209.512C492.382 209.512 492.312 209.512 492.277 209.512C491.799 209.453 491.449 209.021 491.507 208.542L492.953 196.137C493.011 195.658 493.454 195.308 493.921 195.366C494.398 195.424 494.748 195.857 494.69 196.335L493.244 208.741C493.198 209.185 492.813 209.512 492.382 209.512Z" fill="#27449B"/>
<path d="M499.004 153.98C499.004 153.98 498.934 153.98 498.899 153.98C498.421 153.921 498.083 153.478 498.141 152.999C500.111 137.031 501.429 127.289 502.035 124.018C503.096 118.294 503.411 111.543 503.772 103.716C504.064 97.3384 504.402 90.1078 505.194 81.7441C505.241 81.2652 505.661 80.9031 506.15 80.9498C506.628 80.9965 506.978 81.4287 506.943 81.9077C506.15 90.2246 505.824 97.4318 505.521 103.798C505.159 111.683 504.845 118.493 503.76 124.333C503.154 127.569 501.849 137.276 499.878 153.209C499.82 153.653 499.447 153.98 499.016 153.98H499.004Z" fill="#27449B"/>
<path d="M495.984 178.896C495.984 178.896 495.914 178.896 495.879 178.896C495.401 178.837 495.063 178.405 495.11 177.926C495.576 173.99 496.066 169.901 496.567 165.813C496.625 165.334 497.057 164.995 497.535 165.054C498.013 165.112 498.351 165.544 498.292 166.023C497.803 170.111 497.313 174.2 496.835 178.136C496.777 178.58 496.404 178.907 495.972 178.907L495.984 178.896Z" fill="#27449B"/>
<path d="M503.2 189.292C503.2 189.292 503.107 189.292 503.06 189.292C502.583 189.21 502.256 188.766 502.338 188.287C503.329 182.026 504.378 175.648 505.276 170.182C505.975 165.883 506.593 162.145 507.013 159.447C509.134 145.967 509.764 126.973 510.079 111.928C510.079 111.449 510.475 111.075 510.953 111.075H510.976C511.454 111.075 511.839 111.484 511.827 111.975C511.512 127.078 510.883 146.154 508.75 159.739C508.318 162.437 507.712 166.175 507.013 170.474C506.115 175.952 505.077 182.318 504.075 188.579C504.005 189.011 503.632 189.315 503.212 189.315L503.2 189.292Z" fill="#27449B"/>
<path d="M499.225 216.625C499.225 216.625 499.179 216.625 499.155 216.625C498.677 216.59 498.316 216.17 498.351 215.691C498.584 212.619 499.68 204.933 501.708 192.212C501.79 191.733 502.233 191.406 502.711 191.488C503.189 191.57 503.515 192.013 503.434 192.492C501.417 205.166 500.321 212.794 500.1 215.819C500.065 216.275 499.68 216.625 499.225 216.625Z" fill="#27449B"/>
<path d="M508.202 33.77C505.684 37.8583 503.562 47.0747 501.615 64.094C501.091 68.7081 500.485 73.5674 499.844 78.5902C442.3 81.1484 285.187 83.0991 228.355 83.7883C173.318 84.4541 101.844 83.1459 46.1309 84.8046C50.2811 62.8909 53.8484 45.3693 55.6903 40.7436C60.7032 28.1747 76.1149 31.0483 120.893 31.0483C165.671 31.0483 263.853 35.7207 298.232 34.2839C332.635 32.8472 492.534 29.1443 504.961 32.3332C506.15 32.6486 507.223 33.1041 508.202 33.7817V33.77Z" fill="#39B715"/>
<path d="M46.1307 85.6806C45.8742 85.6806 45.6294 85.5638 45.4662 85.3769C45.2913 85.1784 45.2214 84.9097 45.268 84.641C50.3042 58.09 53.2653 44.4465 54.8741 40.4165C59.2341 29.483 71.1718 29.6349 100.025 29.997C106.145 30.0788 113.082 30.1605 120.893 30.1605C139.837 30.1605 167.85 30.9782 197.496 31.8543C237.261 33.0224 278.379 34.2255 298.197 33.3962C334.337 31.8893 492.744 28.2799 505.171 31.4688C506.512 31.8192 507.666 32.3332 508.692 33.0457C509.076 33.3144 509.181 33.8284 508.936 34.2255C506.395 38.3489 504.343 47.869 502.478 64.1875C501.988 68.4628 501.405 73.2053 500.706 78.6954C500.648 79.1159 500.298 79.443 499.878 79.4546C460.661 81.1951 369.31 82.9473 228.367 84.6527C206.473 84.9214 182.411 84.8747 156.927 84.8163C118.957 84.7462 79.7053 84.6644 46.154 85.669H46.1307V85.6806ZM86.7117 31.6323C67.6977 31.6323 59.7354 32.9289 56.4945 41.059C54.5243 45.9884 50.5257 66.3251 47.1915 83.8934C80.5214 82.9239 119.354 83.0057 156.927 83.0758C182.4 83.1225 206.461 83.1692 228.343 82.9122C368.401 81.2185 459.472 79.4897 499.062 77.7492C499.715 72.5745 500.263 68.0773 500.729 64.0006C502.525 48.3129 504.53 38.7461 507.013 34.0737C506.325 33.6882 505.579 33.3962 504.728 33.1742C492.441 30.0203 334.348 33.6415 298.255 35.1483C278.379 35.9777 237.226 34.7745 197.427 33.6064C167.792 32.742 139.79 31.9127 120.869 31.9127C113.035 31.9127 106.099 31.8192 99.9784 31.7491C95.0354 31.6907 90.6288 31.6323 86.7001 31.6323H86.7117Z" fill="#39B715"/>
<path d="M132.177 149.821C126.989 149.821 121.825 149.191 117.873 147.345C117.465 147.158 117.266 146.679 117.418 146.259C123.76 128.27 125.543 109.919 122.699 91.7081C122.664 91.4745 122.722 91.2408 122.862 91.0539C123.002 90.867 123.212 90.7386 123.445 90.7152C129.624 89.8742 136.502 90.318 142.039 90.6801C144.592 90.8437 146.796 90.9955 148.568 90.9955C155.341 90.9955 171.289 90.6685 174.483 89.6873C174.705 89.6172 174.95 89.6405 175.159 89.7573C175.369 89.8741 175.521 90.0611 175.579 90.2947C175.766 90.9605 180.009 106.578 180.149 115.9C180.289 125.279 173.492 142.93 173.201 143.677C173.084 143.981 172.805 144.203 172.466 144.238C172.327 144.25 158.617 145.605 151.634 147.415C147.997 148.361 140.069 149.833 132.165 149.833L132.177 149.821ZM119.342 146.072C127.945 149.576 143.31 147.754 151.214 145.698C157.614 144.039 169.121 142.801 171.779 142.532C172.898 139.554 178.54 124.1 178.412 115.911C178.295 107.991 174.996 94.9321 174.122 91.5562C169.004 92.5257 152.905 92.736 148.579 92.736C146.749 92.736 144.523 92.5958 141.946 92.4206C136.758 92.0819 130.358 91.6614 124.588 92.3272C127.234 110.269 125.474 128.34 119.353 146.06L119.342 146.072Z" fill="#39B715"/>
<path d="M140.221 88.4608C137.925 99.1373 141.632 108.844 152.124 105.69C162.616 102.536 157.533 91.1941 153.418 87.281C153.301 86.6385 158.256 75.4831 146.155 76.4526C134.043 77.4222 136.631 86.2647 140.221 88.4608Z" fill="white"/>
<path d="M447.883 234.147C444.036 234.147 440.306 234.019 437.613 233.89C437.135 233.867 436.762 233.458 436.785 232.979C436.809 232.488 437.275 232.103 437.695 232.15C447.662 232.617 455.939 232.43 460.404 231.636C460.87 231.554 461.337 231.869 461.418 232.348C461.5 232.827 461.185 233.283 460.707 233.364C457.28 233.984 452.488 234.17 447.883 234.17V234.147Z" fill="#39B715"/>
<path d="M425.081 233.026C425.081 233.026 425.023 233.026 424.999 233.026C418.424 232.407 413.003 231.636 409.751 230.853C409.285 230.736 408.993 230.269 409.11 229.802C409.226 229.334 409.704 229.042 410.159 229.159C413.341 229.919 418.669 230.678 425.163 231.285C425.641 231.332 425.99 231.752 425.955 232.243C425.909 232.699 425.536 233.037 425.081 233.037V233.026Z" fill="#39B715"/>
<path d="M504.903 258.42C504.903 258.42 500.904 276.631 499.704 279.75L494.936 278.827C496.335 273.582 498.538 262.883 498.538 262.883C498.538 262.883 483.196 261.247 472.016 259.039C465.733 257.813 461.023 256.586 458.108 255.734C459.251 254.274 460.895 252.358 462.025 251.785C462.025 251.785 468.647 253.701 475.35 254.332C482.042 254.974 491.263 256.364 495.577 257.521C499.902 258.677 504.915 258.42 504.915 258.42H504.903Z" fill="#39B715"/>
<path d="M499.703 280.638C499.703 280.638 499.599 280.638 499.54 280.626L494.772 279.703C494.539 279.656 494.329 279.516 494.201 279.306C494.073 279.096 494.038 278.851 494.096 278.617C495.238 274.365 496.917 266.398 497.488 263.665C493.944 263.268 481.342 261.784 471.853 259.915C465.359 258.642 460.661 257.404 457.863 256.586C457.584 256.505 457.362 256.294 457.28 256.014C457.187 255.734 457.245 255.43 457.42 255.208C458.633 253.654 460.335 251.669 461.629 251.015C461.827 250.909 462.06 250.898 462.27 250.956C462.34 250.979 468.892 252.86 475.432 253.468C481.82 254.075 491.182 255.453 495.81 256.68C499.948 257.79 504.833 257.556 504.88 257.544C505.159 257.533 505.416 257.649 505.591 257.848C505.766 258.058 505.835 258.339 505.777 258.607C505.614 259.355 501.744 276.923 500.531 280.065C500.403 280.404 500.076 280.626 499.715 280.626L499.703 280.638ZM496.008 278.161L499.121 278.757C500.298 275.031 502.991 263.023 503.807 259.331C502.035 259.331 498.538 259.238 495.343 258.385C491.345 257.322 482.333 255.897 475.257 255.22C469.37 254.671 463.634 253.164 462.142 252.743C461.524 253.164 460.626 254.063 459.612 255.278C462.433 256.072 466.653 257.124 472.179 258.21C483.196 260.383 498.468 262.03 498.619 262.041C498.864 262.065 499.086 262.193 499.237 262.392C499.389 262.59 499.435 262.847 499.389 263.081C499.365 263.186 497.407 272.718 496.008 278.161Z" fill="#39B715"/>
<path d="M426.386 269.097C422.038 262.1 404.714 255.208 397.44 272.905C393.593 282.273 400.226 295.496 408.993 295.496C408.993 295.496 409.576 293.686 410.59 290.975C410.59 290.975 403.292 289.107 404.644 277.484C405.997 265.861 417.235 263.42 426.374 269.097H426.386Z" fill="#39B715"/>
<path d="M408.993 296.372C405.227 296.372 401.543 294.094 398.885 290.134C395.318 284.796 394.432 277.904 396.624 272.566C400.319 263.572 406.265 261.247 410.613 260.885C417.561 260.301 424.474 264.366 427.121 268.63C427.33 268.98 427.284 269.424 426.992 269.716C426.701 270.008 426.258 270.055 425.908 269.844C421.094 266.854 415.591 266.212 411.534 268.174C408.118 269.833 406.032 273.08 405.507 277.589C404.26 288.324 410.73 290.111 410.8 290.134C411.044 290.193 411.243 290.356 411.359 290.578C411.476 290.8 411.487 291.057 411.406 291.291C410.403 293.954 409.82 295.753 409.82 295.765C409.704 296.127 409.366 296.372 408.993 296.372ZM411.942 262.579C411.546 262.579 411.149 262.59 410.765 262.626C406.906 262.953 401.613 265.055 398.256 273.232C396.309 277.974 397.148 284.376 400.354 289.153C402.523 292.401 405.414 294.351 408.386 294.585C408.608 293.942 408.981 292.844 409.494 291.454C407.442 290.462 402.674 287.086 403.805 277.367C404.399 272.309 406.883 268.478 410.811 266.574C414.204 264.927 418.459 264.88 422.597 266.293C419.823 264.167 415.917 262.555 411.965 262.555L411.942 262.579Z" fill="#39B715"/>
<path d="M0.874598 373.666H0.851283C0.37331 373.654 -0.0113997 373.245 0.000258131 372.766C1.70231 308.065 15.5169 229.872 24.3885 193.088C27.9558 178.288 33.5749 147.836 39.0075 118.376C40.7678 108.809 42.5282 99.2891 44.2069 90.3414C44.3002 89.8625 44.7432 89.5471 45.2328 89.6405C45.7108 89.734 46.0139 90.1895 45.9323 90.6685C44.2535 99.6162 42.5048 109.125 40.7329 118.691C35.3003 148.174 29.6812 178.65 26.1022 193.497C17.2539 230.199 3.46265 308.24 1.7606 372.801C1.74894 373.28 1.36423 373.654 0.886256 373.654L0.874598 373.666Z" fill="#27449B"/>
<path d="M560.126 310.553C559.753 310.553 559.415 310.319 559.298 309.946C551.546 286.338 527.088 146.562 521.282 97.1865L521.014 94.9204C520.244 88.414 519.557 82.5618 518.904 77.2936C516.234 55.5902 514.217 43.5003 510.638 37.7065C510.382 37.2977 510.51 36.7603 510.918 36.5033C511.326 36.2464 511.874 36.3749 512.119 36.7837C515.884 42.8929 517.866 54.6441 520.629 77.0717C521.282 82.3399 521.97 88.2038 522.739 94.7101L523.007 96.9762C528.801 146.282 553.213 285.836 560.942 309.385C561.094 309.84 560.849 310.343 560.382 310.495C560.289 310.53 560.196 310.541 560.114 310.541L560.126 310.553Z" fill="#27449B"/>
<path d="M484.012 205.108C484.012 205.108 483.989 205.108 483.977 205.108C483.499 205.085 483.114 204.687 483.138 204.197C483.231 201.639 483.418 198.707 483.674 195.471C483.709 194.992 484.14 194.63 484.618 194.665C485.096 194.7 485.458 195.121 485.423 195.611C485.166 198.824 484.991 201.732 484.886 204.267C484.863 204.734 484.478 205.108 484.012 205.108Z" fill="#27449B"/>
<path d="M492.102 135.267C492.102 135.267 492.021 135.267 491.974 135.267C491.496 135.197 491.158 134.753 491.228 134.274L492.883 122.64C494.737 109.58 496.66 96.0651 498.304 83.5898C498.363 83.1108 498.817 82.7721 499.284 82.8305C499.761 82.8889 500.1 83.3328 500.041 83.8117C498.398 96.2988 496.474 109.802 494.62 122.873L492.965 134.508C492.907 134.94 492.534 135.267 492.102 135.267Z" fill="#27449B"/>
<path d="M391.261 186.488C391.179 186.488 391.086 186.477 391.004 186.453C388.23 185.601 387.11 184.199 386.667 183.171C386.166 182.026 386.213 180.718 386.796 179.515C387.18 178.732 387.728 178.277 388.218 177.879C389.174 177.097 390.001 176.431 389.174 172.343C387.74 165.159 390.305 155.545 397.089 151.877C403.723 148.303 405.355 147.1 406.218 143.572C406.311 143.187 406.404 142.824 406.497 142.474C407.302 139.367 407.698 137.813 404.469 132.171C402.58 128.877 401.753 122.791 404.131 116.624C405.915 112.021 410.053 105.877 419.694 102.782C420.149 102.63 420.65 102.887 420.79 103.342C420.942 103.798 420.685 104.3 420.23 104.44C411.254 107.326 407.407 113.003 405.763 117.255C403.583 122.885 404.306 128.363 405.984 131.295C409.575 137.556 409.05 139.565 408.188 142.906C408.095 143.245 408.013 143.607 407.92 143.981C406.847 148.396 404.516 149.856 397.929 153.408C391.855 156.69 389.593 165.427 390.899 171.98C391.855 176.723 390.806 178.02 389.337 179.223C388.929 179.561 388.603 179.818 388.393 180.262C388.031 181.01 387.996 181.781 388.299 182.458C388.731 183.451 389.85 184.246 391.552 184.771C392.018 184.911 392.275 185.402 392.135 185.869C392.018 186.243 391.669 186.488 391.296 186.488H391.261Z" fill="#27449B"/>
<path d="M451.579 121.787C451.229 121.787 450.903 121.577 450.763 121.238C446.077 109.37 430.712 103.167 424.242 103.891C423.752 103.95 423.332 103.599 423.274 103.12C423.216 102.642 423.565 102.209 424.043 102.151C430.98 101.392 447.394 107.968 452.384 120.595C452.558 121.051 452.337 121.553 451.894 121.728C451.789 121.775 451.684 121.787 451.568 121.787H451.579Z" fill="#27449B"/>
<path d="M461.092 122.324C460.765 122.324 460.439 122.137 460.299 121.81C453.409 106.788 443.523 101.111 430.07 104.452C429.615 104.569 429.126 104.289 429.009 103.81C428.893 103.342 429.184 102.864 429.65 102.747C443.85 99.219 454.703 105.387 461.896 121.074C462.094 121.518 461.896 122.032 461.465 122.231C461.348 122.289 461.22 122.312 461.103 122.312L461.092 122.324Z" fill="#27449B"/>
<path d="M474.242 198.391C470.838 198.391 466.956 196.99 464.823 193.731C463.319 195.051 459.961 197.071 455.182 194.712C454.75 194.502 454.575 193.976 454.785 193.544C454.995 193.111 455.52 192.925 455.951 193.147C461.255 195.775 464.17 191.932 464.298 191.768C464.485 191.523 464.776 191.383 465.079 191.418C465.382 191.441 465.65 191.628 465.79 191.908C467.527 195.518 471.817 196.873 475.082 196.604C477.996 196.37 480.094 195.004 480.701 192.96C480.794 192.656 481.039 192.422 481.342 192.352C481.645 192.282 481.971 192.376 482.181 192.609C485.55 196.207 490.283 196.102 493.664 195.389C496.707 194.747 499.843 193.357 502.058 191.651C503.655 190.437 503.958 189.666 503.97 189.49C503.946 189.49 503.818 189.409 503.48 189.35L503.06 189.28C497.173 188.17 496.742 184.783 496.392 182.049C496.357 181.757 496.322 181.477 496.276 181.197C496.112 180.145 495.786 179.269 495.273 178.51C494.107 176.758 492.172 175.882 490.283 175.029C488.523 174.223 486.856 173.476 485.912 172.039C483.487 168.383 485.236 164.785 487.264 160.615C488.721 157.624 490.365 154.237 491.018 150.008C493.827 131.809 468.367 122.546 468.11 122.464C467.795 122.359 467.574 122.079 467.539 121.752C466.548 114.007 458.003 103.564 445.214 104.966C444.748 105.025 444.305 104.674 444.246 104.195C444.2 103.716 444.538 103.284 445.028 103.226C458.644 101.742 467.819 112.629 469.206 121.004C472.89 122.453 495.553 132.16 492.767 150.289C492.067 154.774 490.365 158.29 488.849 161.397C486.914 165.392 485.504 168.266 487.381 171.081C488.057 172.097 489.491 172.751 491.03 173.441C493.035 174.352 495.308 175.38 496.742 177.541C497.383 178.498 497.814 179.643 498.013 180.94C498.059 181.232 498.094 181.536 498.129 181.839C498.456 184.444 498.747 186.699 503.387 187.563L503.772 187.621C505.101 187.843 505.544 188.521 505.672 189.058C506.022 190.472 504.483 192.002 503.13 193.041C500.717 194.887 497.325 196.406 494.037 197.095C489.164 198.134 484.897 197.282 481.866 194.7C480.689 196.744 478.276 198.099 475.245 198.345C474.918 198.368 474.592 198.38 474.265 198.38L474.242 198.391Z" fill="#27449B"/>
<path d="M481.26 191.032C481.26 191.032 481.167 191.032 481.109 191.021C480.631 190.939 480.316 190.483 480.397 190.004C482.274 179.012 479.395 176.489 476.865 174.27C475.758 173.3 474.708 172.378 474.149 170.894C472.797 167.343 474.592 163.593 476.679 159.26C477.926 156.667 479.337 153.735 480.199 150.499C482.508 141.948 478.882 134.986 468.448 127.919C468.052 127.651 467.947 127.102 468.215 126.705C468.483 126.307 469.031 126.202 469.427 126.471C480.421 133.912 484.384 141.691 481.89 150.954C480.98 154.342 479.535 157.356 478.252 160.019C476.271 164.154 474.708 167.413 475.781 170.263C476.189 171.338 477.04 172.086 478.019 172.938C480.759 175.345 484.163 178.335 482.123 190.285C482.053 190.717 481.68 191.009 481.26 191.009V191.032Z" fill="#27449B"/>
<path d="M465.01 193.158C464.637 193.158 464.299 192.925 464.182 192.551C462.515 187.318 463.564 182.704 467.306 178.826C468.67 177.412 472.821 173.113 468.74 164.586C468.53 164.154 468.717 163.628 469.148 163.418C469.58 163.208 470.104 163.395 470.314 163.827C473.368 170.217 472.786 175.672 468.565 180.04C465.266 183.463 464.38 187.376 465.849 192.013C465.989 192.469 465.744 192.971 465.278 193.111C465.185 193.135 465.103 193.158 465.01 193.158Z" fill="#27449B"/>
<path d="M467.096 153.98C466.711 153.98 466.361 153.723 466.256 153.326C465.755 151.445 464.741 146.422 466.256 140.395C467.97 133.48 466.734 130.571 460.695 127.417C460.264 127.195 460.101 126.658 460.322 126.237C460.544 125.805 461.068 125.642 461.5 125.864C468.308 129.426 469.87 133.071 467.947 140.827C466.536 146.457 467.469 151.13 467.947 152.882C468.075 153.349 467.795 153.828 467.329 153.957C467.259 153.98 467.177 153.992 467.107 153.992L467.096 153.98Z" fill="#27449B"/>
<path d="M428.858 167.612C428.742 167.612 428.625 167.588 428.509 167.542C425.233 166.14 424.965 164.481 425.128 163.044L425.151 162.857C425.221 162.016 428.59 152.076 430.024 147.836C430.176 147.38 430.677 147.135 431.132 147.287C431.586 147.438 431.831 147.941 431.68 148.396C429.896 153.629 427.017 162.227 426.888 163.021L426.865 163.231C426.783 163.944 426.678 164.843 429.197 165.918C429.64 166.105 429.849 166.619 429.651 167.063C429.511 167.39 429.185 167.588 428.847 167.588L428.858 167.612Z" fill="#27449B"/>
<path d="M443.157 168.864C443.379 168.864 443.6 168.946 443.775 169.121C444.113 169.46 444.125 170.02 443.775 170.359C441.91 172.251 436.442 174.88 433.33 175.358C432.863 175.429 432.409 175.101 432.327 174.634C432.257 174.155 432.584 173.711 433.05 173.63C435.929 173.174 441.071 170.604 442.516 169.132C442.691 168.957 442.913 168.875 443.134 168.875L443.157 168.864Z" fill="#27449B"/>
<path d="M421.246 141.084C421.094 141.084 420.931 141.037 420.779 140.955C420.371 140.698 420.243 140.161 420.5 139.752C423.437 135.033 428.847 133.62 429.08 133.561C429.546 133.445 430.024 133.725 430.141 134.192C430.257 134.659 429.977 135.138 429.511 135.255C429.464 135.267 424.545 136.575 421.992 140.675C421.829 140.944 421.537 141.084 421.246 141.084Z" fill="#27449B"/>
<path d="M439.304 141.084C439.001 141.084 438.709 140.932 438.546 140.652C438.301 140.231 438.441 139.694 438.861 139.46C442.475 137.358 448.747 137.918 449.015 137.942C449.493 137.988 449.843 138.409 449.808 138.9C449.761 139.379 449.33 139.729 448.852 139.694C448.794 139.694 442.86 139.168 439.735 140.991C439.595 141.072 439.444 141.107 439.304 141.107V141.084Z" fill="#27449B"/>
<path d="M453.643 207.479C453.177 207.479 452.792 207.105 452.769 206.638C452.151 191.733 457.956 167.717 458.015 167.472C458.12 167.051 458.516 166.771 458.936 166.806C461.326 167.004 464.753 164.726 466.735 161.608C468.274 159.19 468.588 156.83 467.609 155.136C466.7 153.571 465.371 152.718 463.739 152.683C461.256 152.637 458.481 154.412 456.674 157.227C456.418 157.636 455.87 157.753 455.462 157.496C455.054 157.239 454.937 156.69 455.194 156.281C457.28 153.022 460.579 150.931 463.61 150.931C463.657 150.931 463.715 150.931 463.762 150.931C466 150.978 467.889 152.169 469.101 154.26C470.419 156.538 470.081 159.563 468.192 162.554C466.303 165.532 462.818 168.406 459.53 168.57C458.598 172.564 453.934 193.298 454.482 206.568C454.506 207.047 454.133 207.456 453.643 207.479C453.631 207.479 453.62 207.479 453.608 207.479H453.643Z" fill="#27449B"/>
<path d="M435.317 189.666C429.441 189.666 419.66 187.878 416.816 181.512C413.971 175.134 415.125 149.179 418.075 135.722C420.954 122.64 429.838 116.507 442.486 118.902C454.622 121.203 457.816 139.694 458.364 154.798C458.376 155.276 458.003 155.685 457.525 155.709C457.059 155.732 456.639 155.347 456.616 154.868C456.184 143.023 453.748 122.826 442.16 120.63C430.584 118.434 422.423 124.076 419.777 136.108C416.932 149.05 415.72 174.819 418.401 180.811C421.199 187.061 432.449 188.264 437.17 187.855C437.648 187.82 438.08 188.17 438.115 188.649C438.161 189.128 437.8 189.56 437.322 189.595C436.727 189.642 436.051 189.677 435.317 189.677V189.666Z" fill="#27449B"/>
<path d="M439.105 217.84C438.627 217.84 438.137 217.817 437.624 217.759C432.833 217.245 430.268 214.92 428.963 213.051C427.144 210.47 426.771 207.444 427.097 206.124C427.121 206.019 429.65 195.471 428.706 188.369C428.648 187.89 428.974 187.446 429.452 187.388C429.919 187.329 430.373 187.656 430.432 188.147C431.411 195.565 428.811 206.44 428.788 206.545C428.636 207.164 428.741 209.71 430.385 212.046C431.994 214.324 434.488 215.656 437.811 216.018C446.263 216.917 451.835 208.472 451.894 208.379C452.15 207.97 452.698 207.853 453.106 208.122C453.514 208.39 453.631 208.928 453.363 209.336C453.129 209.699 447.755 217.84 439.105 217.84Z" fill="#27449B"/>
<path d="M442.579 150.499C442.393 152.204 441.25 153.478 440.038 153.349C438.825 153.221 437.986 151.725 438.172 150.008C438.359 148.303 439.501 147.03 440.714 147.158C441.926 147.287 442.766 148.782 442.579 150.499Z" fill="#27449B"/>
<path d="M426.316 149.95C426.13 151.655 424.987 152.929 423.775 152.8C422.563 152.66 421.723 151.176 421.91 149.459C422.096 147.754 423.239 146.481 424.451 146.609C425.664 146.738 426.503 148.233 426.316 149.95Z" fill="#27449B"/>
<path d="M416.99 196.417C416.197 196.417 415.428 196.324 414.74 196.113C413.504 195.728 412.642 194.992 412.234 193.988C411.523 192.224 410.532 191.021 409.436 190.623C408.62 190.32 407.734 190.425 406.72 190.95C403.887 192.411 396.356 193.497 392.194 191.955C390.69 191.394 389.687 190.542 389.233 189.42C388.417 187.434 389.757 186.208 390.935 185.122C392.252 183.907 393.744 182.528 393.663 179.678C393.628 178.218 393.558 176.863 393.488 175.566C393.138 168.686 392.882 163.722 398.291 159.4C399.888 158.127 401.59 157.029 403.257 155.966C407.862 153.01 412.21 150.219 413.061 144.238C413.528 140.92 412.595 138.362 411.523 135.407C409.972 131.143 408.212 126.319 410.718 118.283C412.28 113.283 416.232 110.047 421.84 109.195C430.525 107.863 440.784 112.559 446.193 120.373C446.473 120.771 446.368 121.32 445.972 121.588C445.575 121.869 445.027 121.763 444.759 121.366C439.711 114.077 430.175 109.685 422.108 110.923C417.2 111.671 413.749 114.474 412.397 118.808C410.065 126.272 411.639 130.618 413.166 134.811C414.274 137.86 415.323 140.734 414.787 144.495C413.831 151.27 408.935 154.412 404.201 157.449C402.581 158.489 400.902 159.563 399.387 160.778C394.677 164.54 394.887 168.663 395.237 175.485C395.307 176.781 395.376 178.171 395.411 179.632C395.505 183.288 393.546 185.098 392.112 186.418C390.888 187.551 390.515 187.983 390.842 188.766C391.11 189.42 391.763 189.946 392.788 190.331C396.367 191.651 403.397 190.705 405.915 189.409C407.372 188.661 408.76 188.521 410.042 189C412.036 189.747 413.213 191.78 413.854 193.357C414.064 193.871 414.53 194.245 415.253 194.466C417.247 195.074 420.732 194.385 422.877 192.948C426.27 190.682 429.814 191.418 429.954 191.453C430.432 191.558 430.723 192.025 430.618 192.492C430.513 192.96 430.059 193.263 429.581 193.158C429.581 193.158 426.596 192.562 423.845 194.396C422.12 195.541 419.415 196.429 416.978 196.429L416.99 196.417Z" fill="#27449B"/>
<path d="M412.934 126.564C412.852 126.564 412.759 126.553 412.677 126.529C412.211 126.389 411.955 125.899 412.106 125.431C413.097 122.254 415.254 119.976 418.331 118.832C421.98 117.488 426.55 118.014 429.978 120.175C430.386 120.432 430.514 120.969 430.257 121.378C430.001 121.787 429.465 121.915 429.057 121.647C426.072 119.766 422.097 119.299 418.949 120.455C417.166 121.109 414.822 122.593 413.785 125.934C413.668 126.307 413.319 126.553 412.945 126.553L412.934 126.564Z" fill="#27449B"/>
<path d="M415.499 133.351C415.417 133.351 415.324 133.339 415.242 133.316C414.776 133.176 414.519 132.685 414.659 132.218C415.195 130.454 416.175 129.204 417.574 128.492C419.346 127.592 421.141 127.908 421.689 128.095C422.144 128.258 422.388 128.76 422.225 129.216C422.062 129.672 421.561 129.905 421.106 129.753C420.896 129.683 419.59 129.438 418.366 130.057C417.41 130.536 416.723 131.435 416.338 132.72C416.221 133.094 415.872 133.339 415.499 133.339V133.351Z" fill="#27449B"/>
<path d="M398.618 187.668C398.175 187.668 397.79 187.329 397.743 186.862C397.697 186.383 398.058 185.951 398.536 185.916C400.658 185.729 402.138 185.098 403.059 183.965C404.272 182.493 404.633 180.099 404.237 176.443C403.537 170.1 407.128 156.818 416.233 155.148C416.711 155.055 417.165 155.37 417.247 155.849C417.34 156.328 417.025 156.783 416.547 156.865C408.818 158.29 405.309 170.217 405.974 176.244C406.44 180.402 405.939 183.218 404.412 185.075C403.176 186.593 401.299 187.434 398.688 187.656C398.664 187.656 398.641 187.656 398.606 187.656L398.618 187.668Z" fill="#27449B"/>
<path d="M412.455 187.972C412.199 187.972 411.954 187.867 411.779 187.656C411.476 187.283 411.523 186.734 411.896 186.418C414.251 184.479 415.451 179.888 415.358 173.137C415.358 172.658 415.743 172.261 416.221 172.249C416.722 172.249 417.095 172.635 417.107 173.113C417.212 180.519 415.824 185.449 413.003 187.773C412.84 187.902 412.642 187.972 412.444 187.972H412.455Z" fill="#27449B"/>
<path d="M459.786 209.512C459.366 209.512 458.993 209.196 458.923 208.764C458.854 208.285 459.18 207.841 459.658 207.771C463.657 207.164 466.583 206.883 468.355 206.907C468.833 206.907 469.217 207.316 469.217 207.795C469.217 208.273 468.821 208.671 468.331 208.659C466.641 208.612 463.831 208.904 459.938 209.5C459.891 209.5 459.844 209.5 459.81 209.5L459.786 209.512Z" fill="#27449B"/>
<path d="M410.59 298.837C410.497 298.837 410.392 298.825 410.298 298.79C409.844 298.627 409.611 298.124 409.774 297.669C414.577 284.154 424.381 279.002 429.417 278.08C429.884 277.998 430.35 278.313 430.431 278.78C430.513 279.259 430.198 279.715 429.732 279.797C425.069 280.649 415.964 285.485 411.417 298.241C411.289 298.603 410.951 298.825 410.59 298.825V298.837Z" fill="#27449B"/>
<path d="M419.683 303.427C419.613 303.427 419.543 303.427 419.474 303.404C419.007 303.287 418.716 302.82 418.832 302.341C421.176 292.669 427.541 286.829 432.729 284.598C433.172 284.399 433.684 284.609 433.883 285.053C434.069 285.497 433.871 286.011 433.428 286.21C428.625 288.277 422.726 293.709 420.534 302.762C420.441 303.159 420.08 303.427 419.683 303.427Z" fill="#27449B"/>
<path d="M500.869 323.577C498.969 323.577 497.22 323.215 495.949 322.468C494.166 321.428 489.398 317.702 483.802 313.286L482.963 312.632C476.341 307.411 468.845 301.488 466.641 300.367C465.721 299.9 464.87 299.573 464.03 299.386C462.783 299.106 461.699 299.141 460.323 299.187C458.411 299.246 456.033 299.327 452.291 298.533C447.581 297.529 443.92 294.456 442.72 293.335C441.367 293.849 437.742 295.227 435.736 295.882C433.568 296.582 431.784 298.159 427.028 303.603C426.713 303.965 426.154 304 425.792 303.685C425.431 303.369 425.396 302.808 425.711 302.446C430.444 297.038 432.472 295.099 435.189 294.223C437.578 293.44 442.545 291.525 442.603 291.501C442.929 291.373 443.302 291.454 443.547 291.711C443.582 291.758 447.511 295.73 452.652 296.828C456.184 297.575 458.353 297.505 460.265 297.435C461.71 297.388 462.946 297.353 464.415 297.68C465.394 297.902 466.385 298.264 467.434 298.802C469.789 300.005 477.04 305.717 484.047 311.254L484.886 311.908C490.214 316.113 495.145 319.968 496.824 320.949C498.747 322.071 502.991 322.234 506.768 320.575C509.146 319.536 512.165 317.421 513.098 313.251C515.033 304.584 509.134 292.015 507.292 290.088C506.173 288.943 493.07 284.644 485.236 282.075C480.013 280.357 475.513 278.886 473.764 278.161C470.722 276.9 467.562 275.802 464.392 274.879C452.978 271.573 443.571 271.27 438.511 271.094C437.485 271.059 436.646 271.036 436.04 270.989C431.819 270.662 416.909 276.211 407.863 283.102C407.478 283.394 406.93 283.324 406.638 282.939C406.347 282.553 406.417 282.004 406.802 281.712C416.303 274.47 431.61 268.91 436.168 269.249C436.762 269.295 437.567 269.319 438.569 269.354C443.699 269.517 453.258 269.833 464.87 273.197C468.11 274.131 471.328 275.253 474.429 276.538C476.119 277.239 480.596 278.699 485.772 280.404C498.281 284.504 507.234 287.518 508.54 288.873C510.592 291.011 516.899 304.222 514.8 313.637C513.949 317.456 511.338 320.482 507.456 322.187C505.357 323.11 503.002 323.577 500.857 323.577H500.869Z" fill="#27449B"/>
<path d="M445.494 230.619C445.413 230.619 445.343 230.619 445.261 230.619C443.746 230.538 442.393 229.603 441.484 228.003C441.274 227.629 441.064 227.244 440.866 226.87C439.292 223.949 438.266 222.326 435.41 223.085C434.023 223.447 432.542 224.043 431.108 224.604C428.171 225.772 425.396 226.87 423.286 226.204C419.87 225.129 419.369 218.156 421.899 207.094C422.004 206.626 422.482 206.334 422.948 206.44C423.414 206.545 423.717 207.024 423.601 207.491C421.118 218.366 421.969 223.949 423.811 224.534C425.315 225.001 427.938 223.973 430.456 222.98C431.936 222.396 433.475 221.788 434.956 221.391C439.269 220.258 440.924 223.33 442.393 226.029C442.591 226.391 442.79 226.765 442.999 227.127C443.431 227.886 444.189 228.797 445.354 228.856C446.625 228.926 448.059 227.968 449.318 226.239C452.081 222.454 456.604 212.923 455.777 207.421C455.707 206.942 456.033 206.498 456.511 206.428C456.989 206.358 457.432 206.685 457.502 207.164C458.435 213.425 453.468 223.506 450.717 227.267C449.143 229.428 447.29 230.608 445.471 230.608L445.494 230.619Z" fill="#27449B"/>
<path d="M469.661 303.135C468.798 304.432 475.933 307.995 477.285 307.049C478.113 306.465 488.605 293.207 482.403 278.22C482.17 277.659 472.832 274.972 472.028 275.311C471.223 275.65 483.417 282.6 469.673 303.135H469.661Z" fill="#39B715"/>
<path d="M476.586 308.065C474.359 308.065 470.699 306.056 469.509 304.876C468.425 303.813 468.682 303.019 468.938 302.645C476.376 291.536 477.344 282.764 471.806 276.573C471.328 276.047 471.013 275.697 471.142 275.159C471.2 274.879 471.433 274.61 471.701 274.505C472.96 273.98 480.678 276.444 482.042 277.017C482.694 277.285 483.056 277.496 483.219 277.893C489.573 293.242 478.964 306.955 477.798 307.773C477.495 307.983 477.075 308.077 476.597 308.077L476.586 308.065ZM470.524 303.416C471.246 304.526 475.828 306.663 476.819 306.301C478.183 305.121 487.218 292.494 481.68 278.757C480.678 278.22 476.446 276.982 473.963 276.433C479.116 283.161 477.961 292.237 470.524 303.416Z" fill="#39B715"/>
<path d="M503.842 257.135C503.842 257.135 503.783 257.135 503.76 257.135C503.282 257.089 502.921 256.668 502.967 256.178C503.131 254.46 502.991 253.362 502.548 252.93C502.221 252.603 501.557 252.51 500.403 252.638C499.062 252.79 498.432 252.405 497.838 252.042C497.092 251.599 496.159 251.026 492.464 251.307C486.203 251.774 465.371 249.683 461.99 247.966C460.626 247.277 459.717 247.055 459.274 247.3C458.947 247.487 458.528 248.118 458.388 250.103C458.353 250.582 457.933 250.944 457.455 250.921C456.977 250.886 456.604 250.465 456.639 249.987C456.802 247.674 457.338 246.377 458.399 245.77C459.705 245.022 461.337 245.665 462.771 246.4C465.674 247.872 485.83 250.022 492.335 249.554C496.591 249.239 497.838 249.998 498.747 250.547C499.237 250.851 499.47 250.979 500.228 250.898C501.463 250.769 502.851 250.758 503.783 251.68C504.646 252.533 504.938 253.97 504.716 256.329C504.669 256.785 504.296 257.124 503.842 257.124V257.135Z" fill="#27449B"/>
<path d="M482.321 318.274C482.111 318.274 481.89 318.193 481.727 318.041C479.558 316.02 466.956 315.494 460.906 315.237L459.052 315.156C458.936 315.156 446.788 314.326 446.788 312.083C446.788 311.978 446.811 311.745 446.846 311.348C446.986 310.028 447.348 306.535 447.429 299.97C447.429 299.48 447.849 299.047 448.315 299.106C448.793 299.106 449.19 299.503 449.178 299.994C449.108 306.64 448.735 310.191 448.595 311.534C448.595 311.569 448.595 311.616 448.595 311.651C449.831 312.142 454.074 313.181 459.145 313.415L460.987 313.497C470.745 313.906 480.479 314.49 482.916 316.768C483.266 317.095 483.289 317.655 482.962 318.006C482.788 318.193 482.554 318.286 482.321 318.286V318.274Z" fill="#27449B"/>
<path d="M494.666 280.638C494.596 280.638 494.514 280.638 494.445 280.603C493.978 280.474 493.698 279.995 493.827 279.528C493.908 279.236 494.002 278.921 494.095 278.582C495.226 274.353 496.916 266.387 497.487 263.653C493.943 263.256 481.341 261.773 471.852 259.904C465.358 258.631 460.66 257.392 457.862 256.575C456.661 256.224 455.764 255.944 455.181 255.757C454.528 257.626 452.966 262.626 453.024 267.66C453.024 268.139 452.639 268.536 452.161 268.548C451.683 268.548 451.287 268.162 451.287 267.683C451.205 261.002 453.747 254.601 453.863 254.332C454.038 253.9 454.528 253.678 454.959 253.83C454.959 253.83 456.16 254.25 458.363 254.893C461.126 255.699 465.778 256.925 472.201 258.187C483.218 260.359 498.49 262.006 498.641 262.018C498.886 262.041 499.108 262.17 499.259 262.369C499.399 262.567 499.457 262.824 499.411 263.058C499.387 263.163 497.196 273.839 495.797 279.049C495.692 279.4 495.61 279.692 495.529 279.972C495.424 280.357 495.074 280.626 494.689 280.626L494.666 280.638Z" fill="#27449B"/>
<path d="M464.928 321.428C459.845 321.428 454.483 321.253 452.524 320.961C450.297 320.622 446.823 320.645 444.282 320.669C441.426 320.68 441.099 320.68 440.738 320.4C439.747 319.606 440.038 310.681 440.155 307.971C440.178 307.493 440.586 307.095 441.064 307.13C441.542 307.154 441.927 307.563 441.904 308.042C441.682 313.45 441.822 317.573 441.985 318.917C442.522 318.928 443.442 318.917 444.27 318.917C446.87 318.893 450.426 318.87 452.78 319.232C456.581 319.816 472.995 319.828 475.012 319.255C475.49 319.115 475.956 319.396 476.096 319.851C476.224 320.318 475.956 320.797 475.502 320.937C474.313 321.276 469.743 321.428 464.94 321.428H464.928Z" fill="#27449B"/>
<path d="M288.766 172.272C288.358 172.272 287.996 171.992 287.915 171.572C285.688 160.918 288.987 153.115 290.223 150.184C290.281 150.043 290.339 149.903 290.398 149.775C289.92 149.553 289.08 149.249 288.358 148.992C286.912 148.466 285.105 147.812 283.45 146.983C283.018 146.761 282.843 146.235 283.065 145.803C283.286 145.371 283.799 145.196 284.242 145.406C285.804 146.189 287.553 146.819 288.964 147.333C291.26 148.163 292.123 148.478 292.286 149.272C292.356 149.646 292.228 149.95 291.855 150.849C290.666 153.653 287.53 161.082 289.652 171.198C289.745 171.677 289.453 172.132 288.975 172.237C288.917 172.249 288.859 172.261 288.789 172.261L288.766 172.272Z" fill="#27449B"/>
<path d="M293.557 254.764C293.231 254.764 292.904 254.577 292.764 254.25C287.926 243.597 286.189 228.528 284.79 216.415C284.627 214.955 284.464 213.542 284.301 212.21C282.96 201.136 280.897 183.615 280.547 180.648C276.595 178.323 272.083 174.632 268.155 165.579C267.968 165.135 268.155 164.621 268.609 164.423C269.052 164.236 269.565 164.423 269.763 164.878C273.599 173.733 277.819 177.062 281.794 179.339C282.039 179.48 282.191 179.725 282.226 179.994C282.226 179.994 284.569 199.851 286.038 211.988C286.201 213.331 286.364 214.745 286.527 216.205C287.915 228.19 289.64 243.106 294.362 253.514C294.56 253.958 294.362 254.472 293.93 254.671C293.814 254.729 293.685 254.752 293.569 254.752L293.557 254.764Z" fill="#27449B"/>
<path d="M320.242 224.008C319.892 224.008 319.566 223.798 319.438 223.459C314.122 210.399 305.063 184.129 303.653 178.171C302.58 173.651 302.021 166.105 301.519 159.435C301.17 154.692 300.867 150.592 300.459 149.039C299.538 145.453 298.57 144.518 294.047 141.294C289.617 138.14 287.437 137.533 283.438 138.362C282.237 138.608 281.118 139.016 280.046 139.414C277.481 140.348 274.835 141.306 271.594 139.776C271.151 139.565 270.964 139.051 271.174 138.608C271.384 138.175 271.897 137.988 272.34 138.187C274.928 139.414 276.921 138.678 279.451 137.767C280.594 137.358 281.759 136.926 283.088 136.657C287.565 135.722 290.258 136.458 295.061 139.881C299.782 143.245 301.1 144.542 302.149 148.618C302.592 150.324 302.895 154.494 303.256 159.33C303.723 165.603 304.306 173.405 305.343 177.786C306.754 183.697 315.754 209.815 321.046 222.816C321.233 223.26 321.011 223.774 320.568 223.961C320.463 224.008 320.347 224.031 320.242 224.031V224.008Z" fill="#27449B"/>
<path d="M485.085 384.798C485.085 384.798 477.706 396.117 467.622 395.065C467.622 395.065 465.08 354.894 464.346 325.727C472.296 326.381 479.769 325.096 484.665 324.851C485.178 345.468 485.785 377.042 485.085 384.798Z" fill="#27449B"/>
<path d="M468.962 396C468.484 396 468.006 395.977 467.528 395.93C467.108 395.883 466.77 395.544 466.747 395.112C466.723 394.715 464.193 354.591 463.471 325.738C463.471 325.493 463.564 325.248 463.739 325.084C463.925 324.909 464.17 324.816 464.415 324.851C470.011 325.306 475.432 324.792 479.803 324.372C481.552 324.208 483.207 324.045 484.63 323.975C484.863 323.951 485.096 324.045 485.271 324.208C485.446 324.372 485.539 324.594 485.551 324.827C486.017 343.774 486.693 376.773 485.97 384.88C485.959 385.02 485.912 385.16 485.83 385.277C485.527 385.732 478.708 396.012 468.973 396.012L468.962 396ZM468.437 394.236C476.889 394.575 483.289 385.849 484.233 384.482C484.933 375.92 484.198 341.333 483.814 325.762C482.648 325.843 481.331 325.972 479.967 326.1C475.793 326.498 470.64 326.988 465.243 326.649C465.931 353.177 468.087 388.606 468.437 394.224V394.236Z" fill="#27449B"/>
<path d="M516.421 327.444C509.637 327.747 500.893 330.761 496.393 321.708C500.485 324.091 511.956 322.433 513.962 313.45C515.967 304.455 509.858 291.501 507.935 289.492C507.55 289.095 506.197 288.464 504.239 287.693C506.792 277.297 510.732 258.07 508.517 251.797C506.955 247.428 501.837 245.314 494.913 245.758C489.34 246.132 473.765 244.356 465.663 242.534C466.293 228.283 467.109 215.633 468.158 207.783C476.761 207.432 483.779 208.963 490.354 212.899C498.935 218.027 504.367 230.397 509.042 243.983C513.705 257.568 522.903 290.847 524.699 303.1C526.505 315.354 523.195 327.14 516.421 327.432V327.444Z" fill="#27449B"/>
<path d="M507.328 329.044C502.817 329.044 498.445 327.794 495.612 322.094C495.437 321.743 495.519 321.323 495.798 321.066C496.078 320.797 496.498 320.751 496.836 320.949C498.76 322.071 503.003 322.234 506.78 320.575C509.158 319.536 512.178 317.421 513.11 313.251C515.046 304.584 509.147 292.015 507.305 290.088C507.235 290.018 506.757 289.609 503.924 288.487C503.516 288.324 503.294 287.892 503.399 287.459C506.734 273.886 509.613 257.462 507.701 252.066C506.314 248.164 501.674 246.179 494.982 246.611C489.037 247.008 473.322 245.127 465.488 243.375C465.08 243.282 464.789 242.908 464.812 242.487C465.523 226.519 466.362 214.803 467.318 207.654C467.377 207.234 467.726 206.918 468.146 206.895C477.041 206.533 484.234 208.192 490.832 212.128C499.914 217.548 505.358 230.491 509.893 243.679C514.498 257.089 523.731 290.345 525.584 302.96C526.948 312.177 525.491 320.984 521.877 325.376C520.373 327.198 518.508 328.215 516.48 328.308C515.302 328.355 514.078 328.495 512.772 328.635C511 328.834 509.158 329.032 507.351 329.032L507.328 329.044ZM498.41 323.344C501.954 328.063 507.34 327.479 512.563 326.906C513.892 326.766 515.151 326.626 516.386 326.568C517.925 326.498 519.312 325.727 520.513 324.278C523.777 320.318 525.118 311.861 523.836 303.241C522.052 291.104 512.796 257.603 508.214 244.275C503.994 232.021 498.526 218.798 489.911 213.658C483.814 210.014 477.134 208.402 468.927 208.636C468.029 215.668 467.237 226.835 466.561 241.845C474.978 243.632 489.701 245.232 494.843 244.894C502.374 244.403 507.655 246.809 509.322 251.505C511.805 258.502 507.06 279.68 505.253 287.167C507.596 288.125 508.237 288.581 508.541 288.896C510.592 291.034 516.899 304.245 514.801 313.66C513.95 317.48 511.338 320.505 507.456 322.211C504.507 323.507 501.068 323.904 498.398 323.367L498.41 323.344Z" fill="#27449B"/>
<path d="M402.629 392.215C395.903 392.636 382.788 386.877 381.902 382.123C379.523 369.309 381.715 331.579 383.802 303.743C388.348 309.513 394.131 315.015 400.636 318.449C398.829 360.618 402.641 392.215 402.641 392.215H402.629Z" fill="#27449B"/>
<path d="M401.988 393.103C395.168 393.103 382.041 387.613 381.05 382.275C378.695 369.554 380.77 332.513 382.939 303.673C382.962 303.311 383.207 303.007 383.557 302.902C383.906 302.797 384.279 302.902 384.501 303.194C388.033 307.679 393.78 313.824 401.055 317.667C401.358 317.819 401.533 318.146 401.521 318.484C399.738 360.092 403.48 391.795 403.515 392.11C403.55 392.356 403.468 392.589 403.317 392.776C403.165 392.963 402.944 393.08 402.699 393.091C402.477 393.103 402.232 393.115 401.999 393.115L401.988 393.103ZM384.512 305.986C382.414 334.371 380.502 369.729 382.764 381.948C383.475 385.791 394.69 391.257 401.661 391.351C401.055 385.767 398.175 356.401 399.738 318.952C393.314 315.447 388.103 310.261 384.512 305.997V305.986Z" fill="#27449B"/>
<path d="M413.541 204.197C409.904 215.913 407.665 226.438 405.905 238.434C388.477 244.87 378.754 259.775 375.012 273.045C359.297 275.101 332.682 278.57 329.255 278.932C324.347 279.458 310.416 280.731 301.101 270.977C293.395 262.906 293.453 255.383 293.547 253.97L293.57 253.888C293.57 253.888 294.596 223.856 320.243 223.12C321.922 227.255 323.263 230.117 323.904 230.736C326.597 233.318 328.45 234.054 333.23 232.57C338.01 231.098 362.2 220.153 371.526 215.352C380.864 210.551 393.361 203.379 413.553 204.185L413.541 204.197Z" fill="#27449B"/>
<path d="M323.367 280.147C313.586 280.147 305.903 277.274 300.471 271.585C292.508 263.245 292.578 255.407 292.672 253.923C292.672 253.865 292.672 253.818 292.695 253.76C292.812 251.715 294.852 222.98 320.208 222.256C320.569 222.256 320.907 222.466 321.047 222.805C323.518 228.891 324.311 229.942 324.498 230.117C327.016 232.523 328.59 233.107 332.961 231.752C337.753 230.281 362.083 219.242 371.117 214.593L372.738 213.752C381.843 209.033 394.293 202.55 413.575 203.321C413.844 203.321 414.1 203.473 414.252 203.695C414.403 203.916 414.45 204.197 414.368 204.465C410.941 215.504 408.598 226.017 406.756 238.574C406.709 238.89 406.487 239.158 406.196 239.275C391.67 244.637 380.327 257.357 375.839 273.302C375.746 273.641 375.454 273.886 375.116 273.933C359.739 275.942 332.798 279.458 329.336 279.82C327.261 280.042 325.267 280.147 323.355 280.147H323.367ZM319.66 224.031C295.703 225.176 294.444 253.643 294.444 253.935C294.444 254.005 294.432 254.075 294.409 254.145C294.327 255.395 294.28 262.567 301.73 270.382C310.916 280.019 324.649 278.558 329.161 278.08C332.553 277.717 358.877 274.295 374.323 272.262C379.01 256.213 390.47 243.398 405.112 237.803C406.895 225.795 409.145 215.621 412.363 205.038C394.188 204.606 382.286 210.773 373.542 215.305L371.922 216.147C362.607 220.936 338.452 231.893 333.486 233.423C328.275 235.035 326.141 234.1 323.297 231.379C323.017 231.11 322.283 230.397 319.66 224.031Z" fill="#27449B"/>
<path d="M304.597 256.388C304.597 256.388 304.504 256.388 304.457 256.388C303.979 256.306 303.653 255.862 303.734 255.383C305.681 243.445 315.73 234.03 320.347 233.084C320.825 232.991 321.279 233.294 321.373 233.773C321.466 234.252 321.163 234.708 320.685 234.801C317.047 235.537 307.278 244.426 305.448 255.664C305.378 256.096 305.005 256.4 304.585 256.4L304.597 256.388Z" fill="white"/>
<path d="M385.678 247.207C385.328 247.207 385.002 246.996 384.862 246.646C381.656 238.294 381.435 233.505 381.435 233.306C381.411 232.827 381.796 232.418 382.274 232.395C382.752 232.395 383.16 232.745 383.183 233.236C383.183 233.283 383.416 237.967 386.494 246.015C386.669 246.471 386.447 246.973 385.993 247.148C385.888 247.183 385.783 247.207 385.678 247.207Z" fill="white"/>
<path d="M448.14 271.713C447.685 271.713 447.3 271.363 447.265 270.907C445.458 246.506 434.372 237.021 431.551 235.011C431.248 235.701 430.758 236.413 430.21 236.822C429.545 237.313 428.974 237.278 428.601 237.161L428.275 237.056C428.007 236.962 427.552 236.822 427.272 236.775C427.272 237.535 426.992 238.177 426.491 238.714C425.978 239.252 425.255 239.661 424.416 239.882C424.474 239.953 424.533 240.023 424.603 240.093C427.948 243.842 436.82 253.818 438.65 270.031C438.709 270.51 438.359 270.942 437.881 271.001C437.415 271.059 436.972 270.709 436.913 270.23C435.141 254.566 426.538 244.905 423.297 241.261C422.073 239.882 421.746 239.52 422.026 238.878C422.166 238.563 422.551 238.329 422.889 238.329C423.856 238.329 424.742 238.014 425.209 237.523C425.43 237.289 425.524 237.056 425.512 236.799C425.465 236.004 425.803 235.572 426.083 235.35C426.841 234.766 427.89 235.105 428.811 235.397L429.114 235.49C429.406 235.397 430.105 234.217 430.128 233.773C430.152 233.318 430.571 232.886 431.014 232.862H431.038C433.183 232.862 447.021 243.971 449.002 270.779C449.037 271.258 448.676 271.678 448.198 271.713C448.175 271.713 448.151 271.713 448.128 271.713H448.14Z" fill="#27449B"/>
<path d="M415.626 312.504C412.945 312.504 410.298 312.282 407.78 311.861C399.258 310.436 390.608 304.082 385.735 295.66C382.238 289.62 379.079 279.727 383.835 266.901C383.998 266.445 384.499 266.212 384.954 266.387C385.409 266.55 385.642 267.064 385.467 267.508C380.955 279.692 383.94 289.06 387.239 294.772C392.485 303.848 401.473 309.023 408.048 310.121C420.93 312.27 437.158 309.069 444.351 297.085C444.596 296.676 445.132 296.536 445.552 296.781C445.96 297.026 446.1 297.564 445.855 297.984C439.664 308.299 427.272 312.492 415.614 312.492L415.626 312.504Z" fill="#27449B"/>
<path d="M385.596 265.616C385.456 265.616 385.316 265.581 385.188 265.511C384.757 265.289 384.605 264.751 384.827 264.331C394.025 246.973 411.15 239.392 428.462 245.034C428.917 245.186 429.173 245.676 429.022 246.132C428.87 246.587 428.381 246.844 427.926 246.693C407.909 240.175 393.034 252.556 386.377 265.137C386.226 265.429 385.923 265.604 385.608 265.604L385.596 265.616Z" fill="#27449B"/>
<path d="M436.774 265.242C436.412 265.242 436.074 265.02 435.946 264.658C433.976 259.168 429.441 254.542 423.192 251.634C416.606 248.573 408.935 247.884 403.642 249.87C403.188 250.045 402.686 249.811 402.523 249.356C402.348 248.9 402.581 248.398 403.036 248.234C408.748 246.097 416.955 246.809 423.939 250.057C430.618 253.152 435.468 258.128 437.602 264.074C437.765 264.53 437.532 265.032 437.077 265.195C436.984 265.23 436.879 265.242 436.786 265.242H436.774Z" fill="#27449B"/>
<path d="M411.255 311.861C408.282 311.861 405.577 311.452 403.455 310.705C403.001 310.541 402.768 310.039 402.919 309.583C403.082 309.128 403.584 308.894 404.038 309.046C411.383 311.663 426.363 309.794 433.113 300.893C433.404 300.507 433.952 300.437 434.337 300.729C434.722 301.021 434.792 301.57 434.5 301.956C429.231 308.906 419.275 311.861 411.243 311.861H411.255Z" fill="#27449B"/>
<path d="M347.824 221.473C347.346 221.473 346.962 221.099 346.95 220.62C346.764 213.413 348.407 197.258 350.028 182.412C350.074 181.933 350.506 181.582 350.995 181.641C351.473 181.699 351.823 182.131 351.765 182.61C350.144 197.398 348.512 213.483 348.699 220.585C348.71 221.064 348.326 221.473 347.848 221.485H347.824V221.473Z" fill="#39B715"/>
<path d="M352.139 172.272C352.139 172.272 352.069 172.272 352.045 172.272C351.567 172.214 351.218 171.782 351.276 171.303L351.975 165.124C354.26 144.892 356.638 123.971 356.837 114.159C356.837 113.68 357.233 113.306 357.734 113.306C358.212 113.306 358.597 113.715 358.585 114.206C358.376 124.1 355.997 145.067 353.712 165.334L353.013 171.513C352.966 171.957 352.582 172.296 352.15 172.296L352.139 172.272Z" fill="#39B715"/>
<path d="M165.682 360.63C165.25 360.63 164.877 360.314 164.819 359.87C161.52 335.983 167.36 280.649 169.237 264.261C170.671 251.704 176.22 222.922 180.674 199.793C181.944 193.193 183.11 187.177 184.008 182.342C184.497 179.725 184.999 176.968 185.523 174.118C189.254 153.781 193.894 128.468 200.679 113.785C200.877 113.341 201.401 113.155 201.844 113.353C202.287 113.552 202.474 114.077 202.276 114.521C195.572 129.006 190.956 154.19 187.249 174.433C186.724 177.284 186.223 180.04 185.733 182.657C184.824 187.493 183.67 193.509 182.399 200.12C178.179 221.999 172.408 251.972 170.986 264.459C169.121 280.801 163.303 335.948 166.568 359.625C166.638 360.104 166.299 360.548 165.822 360.618C165.787 360.618 165.74 360.618 165.705 360.618L165.682 360.63Z" fill="#39B715"/>
<path d="M94.1133 362.475C93.647 362.475 93.2623 362.101 93.239 361.634C90.7559 300.168 100.047 249.8 104.512 225.597C105.34 221.134 105.981 217.607 106.307 215.329C108.744 197.912 112.976 176.536 118.886 151.807C119.003 151.34 119.469 151.048 119.936 151.165C120.402 151.282 120.693 151.749 120.577 152.216C114.678 176.898 110.458 198.216 108.021 215.574C107.695 217.887 107.042 221.426 106.214 225.912C101.761 250.057 92.4929 300.285 94.9644 361.552C94.9877 362.031 94.603 362.44 94.125 362.464C94.1133 362.464 94.1017 362.464 94.09 362.464L94.1133 362.475Z" fill="#39B715"/>
<path d="M246.809 362.475C246.343 362.475 245.958 362.113 245.935 361.646C244.641 337.419 247.206 300.274 249.351 282.799C251.368 266.305 253.792 245.046 254.585 226.952C255.39 208.589 257.628 190.927 261.417 172.938C261.522 172.459 261.976 172.167 262.454 172.261C262.932 172.366 263.224 172.821 263.13 173.3C259.353 191.196 257.138 208.764 256.334 227.022C255.529 245.174 253.105 266.48 251.088 283.009C248.954 300.425 246.401 337.419 247.684 361.553C247.707 362.031 247.334 362.452 246.856 362.475C246.844 362.475 246.821 362.475 246.809 362.475Z" fill="#39B715"/>
<path d="M327.388 350.105C327.388 350.105 327.306 350.105 327.26 350.105C326.782 350.035 326.455 349.591 326.525 349.112C326.77 347.489 326.921 343.424 327.131 337.805C327.621 325.131 328.437 303.93 331.316 282.799C331.386 282.32 331.829 281.981 332.296 282.051C332.774 282.121 333.112 282.553 333.042 283.032C330.174 304.07 329.358 325.224 328.88 337.875C328.658 343.552 328.507 347.64 328.25 349.369C328.192 349.801 327.807 350.117 327.388 350.117V350.105Z" fill="#39B715"/>
<path d="M202.089 248.748C198.405 249.484 198.417 259.472 198.942 260.943C199.804 263.338 204.98 263.256 208.734 261.96C212.838 260.535 206.962 247.779 202.089 248.748Z" fill="#27449B"/>
<path d="M203.523 263.443C201.122 263.443 199 262.812 198.406 261.154C197.951 259.892 197.834 253.351 199.665 250.092C200.283 249.005 201.052 248.363 201.985 248.176C205.645 247.452 209.259 252.895 210.343 256.949C211.136 259.904 210.623 261.936 208.933 262.52C207.324 263.081 205.342 263.443 203.523 263.443ZM202.626 249.286C202.486 249.286 202.346 249.297 202.218 249.321C201.635 249.438 201.122 249.881 200.691 250.664C199.035 253.596 199.152 259.764 199.513 260.745C200.201 262.649 204.946 262.661 208.56 261.411C210.087 260.885 209.457 258.093 209.224 257.252C208.198 253.456 205.121 249.286 202.626 249.286Z" fill="#27449B"/>
<path d="M203.886 262.871C203.932 263.069 205.646 269.833 207.01 269.833C208.374 269.833 207.01 262.462 207.01 262.462L203.886 262.871Z" fill="white"/>
<path d="M207.009 270.697C204.678 270.697 203.046 263.116 203.034 263.034C202.987 262.801 203.034 262.544 203.174 262.345C203.314 262.147 203.535 262.018 203.769 261.983L206.893 261.574C207.347 261.516 207.779 261.82 207.86 262.287C208.315 264.751 208.933 269.05 207.965 270.23C207.721 270.522 207.382 270.697 207.009 270.697ZM204.981 263.607C205.401 265.125 206.147 267.345 206.741 268.408C206.8 267.356 206.625 265.452 206.298 263.432L204.981 263.607Z" fill="#27449B"/>
<path d="M151.517 108.786C150.911 108.786 149.652 108.786 147.798 102.139C147.728 101.882 147.775 101.602 147.938 101.392C148.09 101.17 148.346 101.041 148.602 101.03C149.57 100.983 150.584 100.878 151.517 100.703C151.75 100.656 151.983 100.703 152.181 100.854C152.368 100.995 152.508 101.205 152.543 101.427C153.452 107.174 152.764 108.003 152.461 108.342C152.216 108.634 151.878 108.786 151.517 108.786ZM151.692 107.069H151.703H151.692ZM149.792 102.688C150.363 104.569 150.876 105.784 151.249 106.45C151.284 105.737 151.237 104.487 150.957 102.548C150.573 102.607 150.188 102.653 149.792 102.688Z" fill="#27449B"/>
<path d="M200.527 247.288C203.418 247.218 203.78 244.753 203.896 243.27C204.013 241.786 198.849 241.786 197.741 243.165C196.634 244.543 198.475 247.335 200.539 247.288H200.527Z" fill="#27449B"/>
<path d="M200.469 247.872C198.977 247.872 197.729 246.704 197.181 245.606C196.668 244.567 196.703 243.515 197.286 242.803C198.371 241.459 201.856 241.296 203.383 241.915C204.398 242.324 204.503 242.966 204.479 243.328C204.398 244.426 204.141 247.791 200.551 247.884C200.551 247.884 200.504 247.884 200.481 247.884L200.469 247.872ZM201.203 242.733C199.909 242.733 198.569 243.06 198.196 243.527C197.916 243.877 197.928 244.461 198.231 245.081C198.639 245.898 199.583 246.774 200.516 246.693C202.742 246.634 203.174 244.987 203.313 243.223C203.29 243.177 203.057 242.943 202.276 242.814C201.938 242.756 201.576 242.733 201.203 242.733Z" fill="#27449B"/>
<path d="M194.477 276.619C193.789 276.619 193.066 276.596 192.285 276.526C191.807 276.479 191.446 276.059 191.492 275.58C191.539 275.101 191.959 274.739 192.437 274.786C195.421 275.043 197.648 274.692 199.793 274.353C202.509 273.921 205.062 273.524 208.816 274.248C212.885 275.054 217.466 274.423 220.007 273.512C220.462 273.349 220.963 273.582 221.127 274.038C221.29 274.494 221.057 274.996 220.602 275.159C217.851 276.152 212.873 276.83 208.478 275.965C205.027 275.288 202.614 275.673 200.061 276.07C198.359 276.339 196.61 276.619 194.477 276.619Z" fill="white"/>
<path d="M193.451 285.275C193.02 285.275 192.635 284.948 192.589 284.504C192.53 284.025 192.868 283.581 193.358 283.535C199.618 282.787 205.109 282.775 206.601 283.196C207.068 283.324 207.336 283.803 207.208 284.271C207.079 284.738 206.59 285.006 206.135 284.878C205.004 284.563 199.875 284.516 193.568 285.275C193.533 285.275 193.498 285.275 193.463 285.275H193.451Z" fill="white"/>
<path d="M192.786 294.363C192.367 294.363 191.994 294.059 191.924 293.627C191.842 293.148 192.168 292.704 192.646 292.623C194.139 292.377 196.097 292.447 198.172 292.529C200.376 292.611 202.661 292.704 204.071 292.354C204.537 292.237 205.015 292.529 205.132 292.996C205.249 293.464 204.957 293.942 204.491 294.059C202.847 294.468 200.434 294.375 198.114 294.281C196.214 294.211 194.255 294.141 192.938 294.351C192.891 294.351 192.845 294.351 192.798 294.351L192.786 294.363Z" fill="white"/>
<path d="M248.161 44.832H263.34C263.433 45.3576 263.503 45.8482 263.561 46.3038C263.608 46.7593 263.631 47.1915 263.631 47.6004C263.631 48.3947 263.538 49.3408 263.34 50.4505H254.526V54.8426H261.463C261.684 55.9173 261.789 56.8635 261.789 57.6578C261.789 58.4521 261.684 59.4216 261.463 60.508H254.526V70.6354C253.256 70.8574 252.206 70.9625 251.367 70.9625C250.481 70.9625 249.409 70.8574 248.161 70.6354V44.8436V44.832Z" fill="white"/>
<path d="M267.77 44.832H282.948C283.041 45.3576 283.111 45.8482 283.17 46.3038C283.216 46.7593 283.24 47.1915 283.24 47.6004C283.24 48.3947 283.146 49.3408 282.948 50.4505H274.135V54.4104H281.071C281.293 55.4617 281.398 56.4079 281.398 57.2256C281.398 58.0432 281.293 59.0011 281.071 60.0407H274.135V65.157H283.158C283.368 66.1616 283.484 67.0844 283.484 67.8904C283.484 68.7781 283.379 69.7243 283.158 70.7406H267.77V44.8436V44.832Z" fill="white"/>
<path d="M287.984 44.902C288.894 44.7619 289.896 44.6334 290.969 44.5399C292.053 44.4465 293.312 44.3997 294.746 44.3997C296.18 44.3997 297.392 44.5166 298.581 44.7385C299.77 44.9721 300.808 45.3459 301.694 45.8949C302.58 46.4323 303.279 47.1565 303.792 48.0559C304.305 48.9554 304.562 50.0884 304.562 51.4668C304.562 52.5999 304.305 53.6278 303.804 54.5506C303.303 55.4734 302.662 56.186 301.904 56.6882C302.452 56.9102 302.988 57.1905 303.501 57.541C304.014 57.8914 304.469 58.3236 304.865 58.8376C305.261 59.3515 305.576 59.9706 305.821 60.6948C306.066 61.4191 306.182 62.2484 306.182 63.1829C306.182 64.7715 305.891 66.0798 305.32 67.1078C304.748 68.1357 303.956 68.9534 302.941 69.5608C301.939 70.1565 300.738 70.577 299.351 70.8223C297.964 71.0676 296.448 71.1844 294.828 71.1844C293.534 71.1844 292.368 71.1377 291.342 71.0443C290.316 70.9508 289.197 70.8223 287.996 70.6822V44.9254L287.984 44.902ZM295.212 54.7375C296.238 54.7375 297.043 54.5272 297.625 54.1067C298.197 53.6862 298.488 52.962 298.488 51.9224C298.488 51.4201 298.383 50.9996 298.185 50.6608C297.975 50.3221 297.719 50.0651 297.416 49.8665C297.101 49.6796 296.751 49.5394 296.366 49.4693C295.982 49.3992 295.609 49.3642 295.247 49.3642H294.723C294.524 49.3642 294.35 49.3759 294.198 49.3993V54.7258H295.201L295.212 54.7375ZM294.21 65.9046C294.373 65.928 294.583 65.9513 294.839 65.963C295.096 65.9747 295.422 65.9747 295.83 65.9747C296.285 65.9747 296.751 65.928 297.217 65.8345C297.684 65.7411 298.115 65.5775 298.488 65.3439C298.873 65.1103 299.176 64.8066 299.409 64.4094C299.631 64.0123 299.747 63.51 299.747 62.9143C299.747 61.7578 299.374 60.9635 298.616 60.5196C297.859 60.0758 296.879 59.8538 295.69 59.8538H294.221V65.9046H294.21Z" fill="white"/>
<path d="M223.762 163.722C217.093 163.722 211.917 162.273 211.637 162.203C211.311 162.11 211.055 161.83 211.008 161.491C210.215 156.001 210.798 151.854 211.428 147.474C211.941 143.899 212.465 140.208 212.232 135.547C211.719 125.198 213.969 103.74 213.992 103.529C214.027 103.156 214.295 102.852 214.657 102.77C220.94 101.263 229.381 100.738 235.361 100.562C235.862 100.562 236.247 100.924 236.259 101.415C236.27 101.894 235.897 102.303 235.408 102.314C229.695 102.478 221.721 102.969 215.659 104.335C215.298 107.933 213.514 126.237 213.969 135.465C214.214 140.301 213.678 144.074 213.153 147.731C212.57 151.831 212.022 155.709 212.652 160.673C214.68 161.164 222.048 162.729 229.765 161.549C235.058 160.743 246.529 160.907 256.648 161.07C264.238 161.187 271.419 161.292 273.447 160.907C273.914 160.813 274.38 161.129 274.473 161.608C274.567 162.087 274.252 162.542 273.774 162.636C271.571 163.056 264.646 162.951 256.625 162.822C246.576 162.671 235.175 162.495 230.034 163.29C227.865 163.617 225.743 163.745 223.762 163.745V163.722Z" fill="#27449B"/>
<path d="M279.976 134.017C279.976 134.017 279.952 134.017 279.941 134.017C279.463 133.994 279.09 133.585 279.113 133.106C279.766 118.738 279.311 107.478 279.16 104.452C277.038 104.394 270.952 104.16 263.55 103.483C263.072 103.436 262.71 103.015 262.757 102.525C262.804 102.046 263.235 101.684 263.713 101.73C272.853 102.571 279.941 102.712 280.011 102.723C280.465 102.723 280.838 103.085 280.862 103.541C280.862 103.67 281.631 116.297 280.862 133.176C280.838 133.643 280.454 134.017 279.987 134.017H279.976Z" fill="#27449B"/>
<path d="M276.921 160.953C276.921 160.953 276.875 160.953 276.84 160.953C276.362 160.907 276 160.486 276.047 160.007C276.047 159.961 276.502 154.774 277.388 146.597C277.434 146.119 277.866 145.768 278.355 145.815C278.833 145.862 279.183 146.294 279.136 146.784C278.262 154.938 277.807 160.101 277.796 160.159C277.761 160.615 277.376 160.965 276.921 160.965V160.953Z" fill="#27449B"/>
<path d="M229.194 125.373C227.492 125.373 225.778 125.256 224.029 124.941C223.551 124.847 223.237 124.392 223.33 123.924C223.411 123.446 223.878 123.13 224.344 123.224C227.853 123.878 231.374 123.609 234.778 123.34C237.459 123.142 239.977 122.943 242.332 123.212C247.427 123.796 260.262 123.095 260.39 123.083C260.88 123.06 261.288 123.422 261.311 123.913C261.334 124.392 260.973 124.812 260.483 124.836C259.947 124.859 247.38 125.548 242.134 124.952C239.942 124.707 237.494 124.894 234.906 125.093C233.029 125.233 231.129 125.385 229.182 125.385L229.194 125.373Z" fill="#39B715"/>
<path d="M249.397 135.36C247.869 135.36 246.261 135.314 244.663 135.173C237.645 134.589 231.712 134.589 225.44 135.173C224.962 135.22 224.53 134.87 224.484 134.379C224.437 133.9 224.787 133.468 225.276 133.421C231.665 132.825 237.68 132.825 244.815 133.421C250.667 133.912 257.114 133.211 257.172 133.199C257.639 133.153 258.082 133.491 258.14 133.97C258.198 134.449 257.848 134.881 257.371 134.94C257.172 134.963 253.652 135.349 249.408 135.349L249.397 135.36Z" fill="#39B715"/>
<path d="M231.619 149.039C230.185 149.039 228.506 148.945 226.723 148.653C226.245 148.572 225.918 148.128 226 147.649C226.081 147.17 226.524 146.843 227.002 146.925C231.957 147.731 236.084 146.936 236.131 146.925C236.608 146.831 237.063 147.135 237.156 147.614C237.25 148.093 236.935 148.548 236.469 148.642C236.352 148.665 234.428 149.027 231.631 149.027L231.619 149.039Z" fill="#39B715"/>
<path d="M155.027 100.224C154.653 100.773 153.324 101.24 151.692 101.555C150.736 101.73 149.687 101.859 148.65 101.894C146.388 102.011 144.266 101.789 143.73 101.018C142.553 99.3242 143.462 90.8203 144.301 88.7995C144.919 87.3043 147.845 86.7086 150.119 87.9585C151.599 88.7645 156.111 98.6467 155.027 100.224Z" fill="#27449B"/>
<path d="M142.051 80.7629C145.141 78.6136 148.521 80.027 148.568 81.3937C148.615 82.7604 147.985 85.3886 145.747 85.5872C143.508 85.7858 139.661 82.4216 142.051 80.7629Z" fill="#27449B"/>
<path d="M157.51 116.425C156.122 116.425 154.607 116.332 153.173 116.051C149.454 115.316 143.66 114.51 136.421 116.051C135.954 116.145 135.488 115.853 135.383 115.374C135.278 114.895 135.581 114.439 136.059 114.334C143.614 112.734 149.641 113.563 153.511 114.334C157.405 115.105 162.161 114.334 162.208 114.334C162.686 114.264 163.129 114.58 163.21 115.059C163.292 115.537 162.966 115.981 162.488 116.063C162.348 116.086 160.179 116.437 157.51 116.437V116.425Z" fill="#27449B"/>
<path d="M148.615 123.469C147.146 123.469 145.455 123.364 143.8 123.259C141.585 123.118 139.486 122.99 138.379 123.142C137.901 123.212 137.458 122.873 137.388 122.394C137.318 121.915 137.656 121.471 138.134 121.401C139.417 121.226 141.597 121.355 143.905 121.495C146.796 121.67 150.072 121.88 151.436 121.436C151.89 121.285 152.392 121.542 152.532 121.997C152.683 122.453 152.427 122.955 151.972 123.095C151.168 123.364 149.979 123.446 148.615 123.446V123.469Z" fill="#27449B"/>
<path d="M146.959 133.725C146.819 133.725 146.679 133.69 146.551 133.62C145.549 133.094 140.163 132.405 136.012 133.153C135.534 133.234 135.08 132.919 134.998 132.44C134.917 131.961 135.231 131.505 135.709 131.424C139.999 130.653 145.828 131.26 147.367 132.066C147.799 132.288 147.962 132.825 147.74 133.246C147.589 133.55 147.274 133.713 146.959 133.713V133.725Z" fill="#27449B"/>
<path d="M48.9746 187.96C48.9746 189.338 50.0938 189.899 51.4694 189.899C52.845 189.899 53.9642 189.338 53.9642 187.96C53.9642 186.582 52.845 185.215 51.4694 185.215C50.0938 185.215 48.9746 186.582 48.9746 187.96Z" fill="#27449B"/>
<path d="M47.3888 205.4C46.1298 205.949 45.7684 207.327 46.3163 208.589C46.8642 209.85 48.1116 210.528 49.3707 209.979C50.6297 209.43 51.166 207.981 50.618 206.72C50.0701 205.458 48.6479 204.851 47.3888 205.4Z" fill="#27449B"/>
<path d="M49.5335 194.735C48.1579 194.805 47.2836 195.938 47.3535 197.317C47.4235 198.695 48.0297 199.781 49.4053 199.711C50.7809 199.641 52.0866 198.461 52.0283 197.083C51.9584 195.705 50.9208 194.665 49.5452 194.735H49.5335Z" fill="#27449B"/>
<path d="M69.8422 225.9C62.113 225.9 54.244 225.234 49.4875 224.171C41.8516 222.478 36.6989 224.335 36.6522 224.358C36.4191 224.44 36.1509 224.428 35.9294 224.3C35.7079 224.183 35.5447 223.961 35.4981 223.716C33.5163 214.675 35.8129 208.846 38.4709 202.094C39.3219 199.933 40.1962 197.702 40.989 195.226C41.5019 193.614 41.8866 191.733 42.1198 189.654C42.1781 189.175 42.6094 188.836 43.0874 188.883C43.5653 188.941 43.9151 189.374 43.8568 189.852C43.612 192.06 43.2039 194.046 42.656 195.775C41.8516 198.298 40.954 200.564 40.103 202.748C37.6431 208.998 35.5098 214.418 37.0253 222.431C38.9488 221.929 43.612 221.076 49.8839 222.466C57.6247 224.183 73.7709 224.861 83.7733 223.214C84.2513 223.132 84.6943 223.459 84.7759 223.938C84.8575 224.417 84.5311 224.861 84.0531 224.942C79.9962 225.608 74.9483 225.9 69.8538 225.9H69.8422Z" fill="#27449B"/>
<path d="M42.4463 174.001C42.0149 174.001 41.6419 173.686 41.5836 173.242C41.2688 170.988 40.9774 169.539 40.9657 169.527C40.9191 169.294 40.9657 169.048 41.1056 168.85C41.2455 168.651 41.4554 168.523 41.6885 168.488C42.8426 168.313 44.3232 168.172 46.0719 168.067C46.5382 168.032 46.9695 168.406 46.9928 168.885C47.0278 169.364 46.6548 169.784 46.1768 169.808C44.9177 169.889 43.7869 169.983 42.8426 170.088C42.9592 170.754 43.1224 171.747 43.2973 172.985C43.3672 173.464 43.0292 173.908 42.5512 173.978C42.5046 173.978 42.4696 173.978 42.423 173.978L42.4463 174.001Z" fill="#27449B"/>
<path d="M78.6206 171.151C78.6206 171.151 78.5973 171.151 78.5857 171.151C73.1298 170.964 67.9886 170.602 65.1791 170.217C64.7011 170.147 64.3631 169.714 64.433 169.235C64.5029 168.756 64.9343 168.418 65.4123 168.488C68.1635 168.862 73.2347 169.212 78.6439 169.399C79.1219 169.411 79.5066 169.819 79.4833 170.31C79.4717 170.789 79.0753 171.151 78.609 171.151H78.6206Z" fill="#27449B"/>
<path d="M100.783 175.718C100.783 175.718 100.736 175.718 100.713 175.718C100.235 175.683 99.8734 175.251 99.9084 174.772C100.048 173.02 100.153 171.583 100.211 170.672C99.5004 170.766 98.7076 170.847 97.8683 170.917C97.3903 170.952 96.9589 170.602 96.924 170.123C96.8773 169.644 97.2387 169.212 97.7167 169.177C98.9641 169.072 100.072 168.943 101.016 168.791C101.284 168.756 101.54 168.827 101.739 169.013C101.937 169.189 102.042 169.446 102.018 169.714C102.018 169.714 101.89 171.84 101.634 174.924C101.599 175.38 101.214 175.73 100.759 175.73L100.783 175.718Z" fill="#27449B"/>
<path d="M91.7826 224.954C91.7826 224.954 91.7593 224.954 91.7476 224.954C91.2696 224.931 90.8849 224.534 90.9082 224.043C91.0714 219.873 93.3797 210.598 95.4082 202.41C96.2708 198.952 97.0752 195.681 97.5998 193.287C97.7048 192.819 98.1711 192.516 98.6374 192.621C99.1037 192.726 99.4068 193.193 99.3019 193.66C98.7773 196.078 97.9612 199.361 97.0986 202.83C95.1867 210.528 92.7968 220.118 92.6453 224.101C92.6219 224.569 92.2372 224.942 91.7709 224.942L91.7826 224.954Z" fill="#27449B"/>
<path d="M75.2516 189.899C73.5845 189.899 71.8475 189.782 70.4718 189.444C67.1494 188.626 62.2181 188.404 59.0122 188.93C58.5342 189.011 58.0912 188.684 58.0096 188.205C57.928 187.726 58.2544 187.283 58.7324 187.201C62.1481 186.64 67.3709 186.874 70.8915 187.738C73.9109 188.474 79.3668 188.019 80.6259 187.738C81.1038 187.633 81.5701 187.925 81.6751 188.404C81.78 188.871 81.4885 189.35 81.0222 189.455C80.2528 189.631 77.828 189.911 75.2632 189.911L75.2516 189.899Z" fill="#27449B"/>
<path d="M72.0458 199.571C70.9383 199.571 69.2829 199.513 67.9306 199.232C65.6457 198.753 59.7584 198.123 57.3802 198.496C56.9023 198.566 56.4593 198.239 56.3893 197.761C56.3194 197.282 56.6458 196.838 57.1238 196.768C59.9566 196.324 66.3218 197.106 68.3037 197.527C70.3088 197.947 73.1883 197.807 73.2116 197.807C73.7013 197.784 74.1093 198.158 74.1326 198.637C74.1559 199.116 73.7829 199.536 73.3049 199.559C73.2583 199.559 72.7686 199.583 72.0692 199.583L72.0458 199.571Z" fill="#27449B"/>
<path d="M70.8217 210.656C67.7091 210.656 64.4682 210.493 62.8944 210.259L61.7053 210.072C59.5253 209.722 57.9515 209.477 55.9113 209.558C55.3984 209.605 55.0253 209.208 55.002 208.717C54.9787 208.238 55.3517 207.83 55.8414 207.806C58.0564 207.713 59.7934 207.981 61.9851 208.332L63.1625 208.519C65.8671 208.939 74.5289 209.091 77.1403 208.519C77.6066 208.414 78.0729 208.717 78.1779 209.196C78.2828 209.675 77.9797 210.131 77.5017 210.236C76.1611 210.528 73.5264 210.645 70.8101 210.645L70.8217 210.656Z" fill="#27449B"/>
<path d="M413.54 205.073C413.073 205.073 412.677 204.699 412.665 204.22C412.654 203.741 413.027 203.332 413.516 203.321C423.111 203.029 425.314 200.914 425.337 200.891C425.675 200.552 426.223 200.541 426.561 200.856C426.911 201.183 426.946 201.709 426.631 202.059C426.387 202.328 423.997 204.734 413.575 205.061H413.551L413.54 205.073Z" fill="#27449B"/>
<path d="M473.706 289.2C473.706 292.681 476.516 295.496 479.99 295.496C483.464 295.496 486.273 292.681 486.273 289.2C486.273 285.719 483.464 282.904 479.99 282.904C476.516 282.904 473.706 285.719 473.706 289.2Z" fill="white"/>
<path d="M479.989 296.372C476.049 296.372 472.831 293.16 472.831 289.2C472.831 285.24 476.037 282.028 479.989 282.028C483.941 282.028 487.147 285.24 487.147 289.2C487.147 293.16 483.941 296.372 479.989 296.372ZM479.989 283.78C477.005 283.78 474.58 286.21 474.58 289.2C474.58 292.19 477.005 294.62 479.989 294.62C482.973 294.62 485.398 292.19 485.398 289.2C485.398 286.21 482.973 283.78 479.989 283.78Z" fill="#27449B"/>
<path d="M448.933 244.602C448.023 244.602 447.056 244.59 446.03 244.555C445.552 244.543 445.167 244.134 445.19 243.644C445.202 243.165 445.552 242.779 446.1 242.803C449.551 242.92 452.302 242.838 454.493 242.546C454.96 242.476 455.414 242.814 455.473 243.293C455.531 243.772 455.205 244.216 454.727 244.275C453.094 244.496 451.183 244.602 448.944 244.602H448.933Z" fill="#39B715"/>
<path d="M419.438 241.588C419.438 241.588 419.357 241.588 419.31 241.588C415.125 241.004 411.266 240.49 410.042 240.607C409.564 240.665 409.133 240.303 409.086 239.824C409.04 239.345 409.389 238.913 409.867 238.866C411.173 238.738 414.146 239.1 419.555 239.859C420.033 239.929 420.371 240.373 420.301 240.852C420.243 241.296 419.87 241.611 419.438 241.611V241.588Z" fill="#39B715"/>
<path d="M443.337 329.85C441.576 329.85 439.711 329.768 437.764 329.558C431.317 328.869 424.031 327.701 416.978 326.556C412.851 325.89 408.596 325.201 404.574 324.629C404.096 324.559 403.77 324.115 403.828 323.636C403.898 323.157 404.329 322.818 404.819 322.888C408.853 323.472 413.131 324.15 417.258 324.827C424.276 325.96 431.539 327.128 437.951 327.818C449.888 329.091 458.911 325.61 459.005 325.575C459.459 325.4 459.961 325.622 460.136 326.065C460.31 326.521 460.089 327.023 459.646 327.198C459.319 327.327 452.779 329.838 443.337 329.838V329.85Z" fill="#39B715"/>
<path d="M435.76 343.248C423.472 343.248 411.162 340.772 402.966 336.812C402.535 336.602 402.348 336.076 402.558 335.644C402.768 335.212 403.281 335.025 403.724 335.235C417.795 342.034 444.247 344.347 461.209 336.941C461.652 336.742 462.165 336.941 462.363 337.396C462.561 337.852 462.363 338.354 461.908 338.553C454.401 341.835 445.086 343.248 435.76 343.248Z" fill="#39B715"/>
<path d="M429.15 360.653C419.847 360.653 410.194 358.924 402.162 353.82C401.754 353.563 401.637 353.014 401.894 352.605C402.15 352.196 402.686 352.079 403.106 352.336C422.272 364.531 453.421 356.565 462.596 352.278C463.039 352.067 463.552 352.266 463.762 352.698C463.96 353.142 463.774 353.656 463.342 353.866C458.982 355.899 444.561 360.641 429.161 360.641L429.15 360.653Z" fill="#39B715"/>
<path d="M430.712 377.813C420.336 377.813 410.451 375.149 402.838 369.799C402.442 369.519 402.348 368.97 402.628 368.585C402.908 368.187 403.444 368.094 403.841 368.374C419.019 379.051 443.699 378.595 462.503 367.265C462.911 367.008 463.459 367.148 463.704 367.568C463.948 367.977 463.82 368.526 463.401 368.771C453.398 374.787 441.775 377.824 430.7 377.824L430.712 377.813Z" fill="#39B715"/>
<path d="M240.945 92.152C243.055 88.414 244.664 94.6634 246.529 95.1306C248.395 95.5979 248.208 90.6334 250.155 90.7386C252.102 90.8437 253.128 96.4039 254.806 95.1657C256.485 93.9275 258.374 90.6568 259.563 92.2454C260.752 93.834 261.032 112.652 258.619 111.905C256.205 111.157 253.874 109.019 252.475 111.064C251.076 113.119 250.155 111.764 247.73 111.928C245.317 112.092 243.825 115.409 241.493 112.22C239.173 109.019 239.721 94.3013 240.934 92.152H240.945Z" fill="#39B715"/>
<path d="M121.977 25.1493C122.559 41.3627 133.46 66.4303 159.154 60.8584C174.181 57.5994 163.595 48.1027 150.387 44.832C137.19 41.5613 139.51 26.3175 143.171 22.8365C146.819 19.3672 164.703 21.6801 164.703 21.6801C164.703 21.6801 160.984 54.1651 183.087 61.8513C205.19 69.5374 199.222 52.1677 189.779 46.5724C180.336 40.9772 185.151 23.0234 187.086 22.0655C189.009 21.096 138.927 -3.99492 121.977 25.1493Z" fill="white"/>
<path d="M156.273 55.0412C156.204 55.0412 156.122 55.0412 156.04 55.0295C138.25 52.6933 132.375 43.1499 130.451 37.6598C127.583 29.448 129.694 19.7177 135.721 13.4332C145.385 3.37584 158.768 -1.89233 168.281 0.630783C173.842 2.1026 177.584 6.06248 179.111 12.0782C179.344 13.0127 178.785 13.9706 177.852 14.2042C176.92 14.4495 175.964 13.8771 175.73 12.9426C174.518 8.17675 171.72 5.17472 167.395 4.02997C159.188 1.8573 146.936 6.83343 138.25 15.8746C133.109 21.2245 131.314 29.5181 133.762 36.5033C136.618 44.6567 144.697 50.0067 156.507 51.5602C157.463 51.6887 158.139 52.5648 158.01 53.5227C157.894 54.4104 157.148 55.0529 156.273 55.0529V55.0412Z" fill="#27449B"/>
<path d="M183.763 55.0412C183.414 55.0412 183.064 54.9361 182.749 54.7141C170.963 46.3154 168.9 33.2794 176.932 17.9888C182.738 6.92687 196.844 0.584047 209.049 3.52768C219.588 6.07415 225.697 14.613 225.825 26.9482C225.825 27.9178 225.056 28.7121 224.1 28.7237H224.076C223.12 28.7237 222.339 27.9528 222.328 26.9949C222.223 16.4002 217.082 9.08787 208.233 6.93855C197.52 4.34535 185.139 9.91722 180.033 19.6242C172.712 33.5597 174.309 44.3997 184.789 51.8639C185.582 52.4246 185.757 53.5227 185.197 54.3053C184.859 54.7842 184.323 55.0412 183.775 55.0412H183.763Z" fill="#27449B"/>
<path d="M36.1738 183.638C38.6336 186.22 40.5222 187.785 41.0468 187.773C41.5714 187.762 61.1449 169.107 61.7395 167.285C62.334 165.462 58.86 163.465 58.0673 163.138C57.2745 162.822 35.0546 182.458 36.1621 183.638H36.1738Z" fill="#39B715"/>
<path d="M41.0235 188.649C40.6505 188.649 39.5663 188.474 35.5443 184.246C34.9031 183.568 35.5093 182.669 35.7425 182.33C37.5378 179.678 45.1387 172.786 47.4237 170.742C57.2979 161.9 57.8808 162.122 58.4054 162.332C59.2564 162.671 63.4183 164.972 62.5789 167.553C62.0077 169.294 42.3175 188.614 41.0701 188.649C41.0585 188.649 41.0352 188.649 41.0235 188.649ZM37.1298 183.369C39.065 185.379 40.3707 186.453 40.9302 186.792C43.7281 184.584 60.1657 168.616 60.9235 166.981C61.18 166.175 59.2331 164.68 58.0556 164.096C55.2927 165.766 38.9134 180.426 37.1298 183.369Z" fill="#39B715"/>
<path d="M82.0019 166.817C84.8814 165.229 87.4695 163.792 88.1923 164.528C88.9267 165.264 102.846 183.124 105.562 184.374C106.623 184.865 100.829 191.768 97.8217 188.392C94.8023 185.028 79.4838 168.196 82.0019 166.806V166.817Z" fill="#39B715"/>
<path d="M99.8266 190.203C98.8007 190.203 97.8797 189.794 97.1686 188.988L96.5973 188.357C82.2582 172.401 80.6027 168.64 80.8709 167.074C80.9408 166.619 81.1973 166.257 81.582 166.046L81.7335 165.965C85.2892 164.014 87.6324 162.717 88.8215 163.909C89.0081 164.096 89.6143 164.843 91.0715 166.654C94.6155 171.034 104.012 182.692 105.924 183.58C106.332 183.767 106.576 184.187 106.553 184.678C106.495 186.091 103.802 189.035 101.389 189.899C100.852 190.098 100.328 190.191 99.8266 190.191V190.203ZM82.5846 167.495C82.6429 168.453 84.4731 172.249 97.8914 187.189L98.4626 187.82C99.0105 188.427 99.675 188.591 100.561 188.334C102.403 187.808 104.222 185.787 104.7 184.876C102.426 183.264 97.0287 176.84 89.7075 167.764C88.7283 166.549 87.8772 165.497 87.6208 165.205C86.898 165.135 84.3216 166.537 82.5846 167.495Z" fill="#39B715"/>
<path d="M340.853 21.8903C337.39 33.0574 346.087 59.5034 363.026 59.6202C379.953 59.737 372.166 48.4531 365.591 42.7644C359.016 37.0757 356.346 28.1397 361.697 25.2428C367.048 22.3459 382.973 26.1306 382.973 26.1306C382.973 26.1306 382.308 50.801 400.016 55.6019C417.725 60.4028 409.261 46.1169 405.029 42.0986C400.797 38.0803 395.785 30.2657 399.9 24.355C404.027 18.4444 358.899 10.3377 340.853 21.902V21.8903Z" fill="white"/>
<path d="M363.026 53.9782C362.735 53.9782 362.443 53.9081 362.164 53.7563C353.805 49.0371 348.897 42.8462 347.545 35.3819C345.912 26.2941 350.074 17.4048 354.528 12.1133C358.55 7.3357 365.743 3.99491 373.32 3.3875C379.58 2.88521 385.211 4.36871 388.767 7.42915C389.501 8.05993 389.583 9.16963 388.953 9.90553C388.324 10.6414 387.216 10.7232 386.482 10.0924C383.626 7.62773 378.928 6.45962 373.6 6.88014C366.92 7.41747 360.648 10.2793 357.209 14.3677C353.269 19.0518 349.573 26.8664 350.995 34.7512C352.149 41.1407 356.486 46.514 363.889 50.6958C364.728 51.1748 365.031 52.2377 364.553 53.0788C364.227 53.6511 363.644 53.9665 363.026 53.9665V53.9782Z" fill="#27449B"/>
<path d="M401.521 51.3383C401.147 51.3383 400.774 51.2215 400.46 50.9762C392.754 45.0305 387.799 35.2885 387.834 26.1422C387.869 18.5612 391.11 12.1133 397.195 7.49925C406.242 0.654143 418.483 2.41798 426.037 6.95024C433.253 11.2839 436.89 18.1173 435.771 25.2078C435.62 26.1656 434.722 26.8197 433.766 26.6679C432.81 26.516 432.157 25.6166 432.309 24.6587C433.218 18.9467 430.269 13.5851 424.23 9.95228C417.655 6.00407 407.058 4.41545 399.306 10.291C392.754 15.2555 391.355 21.6567 391.332 26.1422C391.297 34.2372 395.715 42.8812 402.593 48.1844C403.362 48.7802 403.502 49.8782 402.908 50.6374C402.57 51.0813 402.045 51.3266 401.521 51.3266V51.3383Z" fill="#27449B"/>
</g>
<defs>
<clipPath id="clip0_381_3860">
<rect width="561" height="396" fill="white"/>
</clipPath>
</defs>
</svg>
