<svg width="626" height="432" viewBox="0 0 626 432" fill="none" xmlns="http://www.w3.org/2000/svg">
<g clip-path="url(#clip0_418_7212)">
<path d="M544 78L538 76.5L528.5 73L490 62L458 41.5V36L460.5 28L464 25.5H467.5L469 22.5L475.5 15.5L484 13L490 15.5L495.5 12L504.5 10.5L515.5 12L524 17L532.5 27L536 37L540.5 31.5L547.5 29.5L557 33.5L563.5 40L565.5 49.5V60L559.5 71L551 76.5L544 78Z" fill="white"/>
<path d="M151.47 222.449C149.376 229.319 144.239 219.389 133.722 226.396H133.569C140.372 215.977 138.522 180.634 132.728 165.717C130.145 159.003 125.02 153.582 118.465 150.631C112.976 178.982 83.8537 194.052 83.8537 194.052C79.1758 193.731 75.9654 197.51 77.3107 202.62C78.656 207.73 82.0957 210.194 86.1316 210.194C87.2323 216.314 88.5317 227.743 89.5254 237.091C85.9054 236.971 82.2901 237.446 78.8242 238.499C73.9627 240.427 72.7856 242.477 73.5653 245.72C73.3054 245.72 64.2705 245.629 56.749 232.669C49.2276 219.71 53.4622 206.751 57.2688 202.666C59.606 200.437 61.4025 197.702 62.5208 194.671C63.639 191.64 64.0492 188.393 63.7201 185.178C63.0628 176.748 62.7876 161.234 75.8125 149.652C88.8375 138.07 103.804 131.888 116.814 140.472C116.814 140.472 126.277 136.126 133.767 146.592C141.258 157.057 142.451 162.519 140.081 173.963C137.712 185.408 141.809 196.225 143.98 199.285C146.15 202.345 154.039 214.08 151.47 222.449Z" fill="#27449B"/>
<path d="M122.5 244.481C122.251 244.481 122.008 244.399 121.809 244.247C121.61 244.096 121.466 243.884 121.398 243.643C121.331 243.403 121.344 243.147 121.435 242.914C121.526 242.681 121.691 242.485 121.904 242.354C124.224 241.059 126.783 240.252 129.426 239.983C129.713 239.984 129.99 240.093 130.201 240.288C130.412 240.484 130.542 240.751 130.565 241.038C130.589 241.325 130.503 241.61 130.326 241.837C130.149 242.064 129.893 242.216 129.609 242.262C127.318 242.512 125.099 243.214 123.081 244.328C122.905 244.43 122.704 244.483 122.5 244.481Z" fill="#27449B"/>
<path d="M181.22 399.715C163.609 399.715 143.827 399.807 129.242 399.791C127.836 398.078 126.307 396.13 124.656 393.947C117.333 384.109 106.128 358.405 105.684 357.135C105.684 357.135 79.0534 379.335 59.9287 370.783C59.9287 370.783 46.9497 343.38 46.5828 322.817C46.2159 302.254 53.9819 275.203 66.4565 264.937C94.5702 274.852 111.677 270.705 116.722 268.533C121.767 266.36 130.603 259.353 129.517 239.86C129.517 239.86 142.68 235.668 148.978 242.278C153.259 246.761 166.62 263.315 174.784 273.49C175.395 278.692 176.175 283.97 177.062 289.035C173.622 294.405 168.653 301.045 164.113 302.805C164.113 302.805 173.117 316.33 171.68 338.331C170.503 355.712 176.114 384.155 181.22 399.715Z" fill="#27449B"/>
<path d="M131.809 400.969H129.226C129.056 400.97 128.889 400.934 128.736 400.862C128.583 400.791 128.447 400.686 128.339 400.556C126.917 398.827 125.419 396.9 123.753 394.666C117.24 385.914 107.685 364.708 105.209 358.971C99.6901 363.255 76.8964 379.626 59.4534 371.823C59.2057 371.712 59.0052 371.517 58.8877 371.272C58.3527 370.14 45.8017 343.411 45.4348 322.832C45.0679 302.254 52.5587 274.882 65.6754 264.05C65.8275 263.921 66.0108 263.835 66.2067 263.8C66.4026 263.765 66.6043 263.783 66.7914 263.851C97.7027 274.745 114.412 268.257 116.216 267.477C120.221 265.763 129.424 259.659 128.324 239.937C128.308 239.682 128.378 239.43 128.522 239.219C128.666 239.009 128.876 238.852 129.119 238.774C129.684 238.591 143.045 234.444 149.757 241.498C152.982 244.879 161.436 255.099 175.623 272.786C175.757 272.953 175.842 273.155 175.868 273.368C176.464 278.462 177.228 283.68 178.13 288.851C178.177 289.133 178.117 289.422 177.962 289.662C173.376 296.777 169.279 301.351 165.732 303.31C167.857 307.043 174.033 319.635 172.81 338.408C171.74 354.84 176.923 382.87 182.334 399.409C182.396 399.582 182.414 399.768 182.389 399.95C182.363 400.132 182.295 400.306 182.188 400.456C182.082 400.606 181.941 400.728 181.777 400.812C181.614 400.896 181.433 400.94 181.249 400.939C171.633 400.939 161.375 400.939 151.668 400.939L131.809 400.969ZM129.776 398.674C136.273 398.674 143.779 398.674 151.637 398.674C160.809 398.674 170.502 398.674 179.659 398.674C174.354 381.844 169.447 354.534 170.487 338.316C171.878 316.896 163.194 303.631 163.103 303.508C163.006 303.366 162.943 303.203 162.918 303.032C162.892 302.861 162.906 302.687 162.958 302.523C163.009 302.358 163.097 302.207 163.215 302.081C163.332 301.955 163.477 301.857 163.638 301.795C166.94 300.51 171.144 296.042 175.868 288.851C175.012 283.894 174.339 278.906 173.697 274.01C159.938 256.782 151.285 246.47 148.167 243.135C143.305 238.025 133.628 240.075 130.724 240.778C131.565 261.235 121.551 267.768 117.194 269.65C115.314 270.46 98.0543 277.177 66.7455 266.299C54.6225 276.856 47.4986 303.707 47.8196 322.909C48.1559 341.667 59.3158 366.621 60.8751 370.018C79.0978 377.668 104.781 356.584 105.041 356.37C105.185 356.251 105.357 356.17 105.54 356.132C105.723 356.095 105.913 356.103 106.092 356.156C106.271 356.209 106.435 356.305 106.569 356.435C106.703 356.566 106.803 356.727 106.86 356.905C107.227 357.946 118.387 383.635 125.664 393.411C127.07 395.293 128.476 397.099 129.761 398.674H129.776Z" fill="#27449B"/>
<path d="M544.481 79.9724C541.914 80.0288 539.413 79.16 537.433 77.5244C537.293 77.4336 537.175 77.3133 537.086 77.1721C536.998 77.0308 536.941 76.8719 536.92 76.7065C536.899 76.541 536.914 76.3729 536.965 76.214C537.015 76.055 537.1 75.909 537.212 75.7861C537.325 75.6632 537.463 75.5664 537.617 75.5023C537.771 75.4383 537.937 75.4086 538.103 75.4153C538.27 75.422 538.433 75.465 538.581 75.5412C538.729 75.6174 538.859 75.7251 538.962 75.8567C539.145 76.025 543.548 79.9418 551.192 75.6884C558.835 71.435 563.269 66.0035 564.95 59.2256C565.681 55.6917 565.696 52.0472 564.994 48.5075C564.293 44.9677 562.89 41.6045 560.869 38.6165C557.307 33.3533 550.718 30.1097 545.214 30.8594C543.358 31.0947 541.615 31.8805 540.21 33.1157C538.804 34.3509 537.799 35.979 537.326 37.7903C537.215 38.0574 537.007 38.2726 536.744 38.3928C536.481 38.513 536.182 38.5292 535.907 38.4383C535.633 38.3473 535.403 38.1559 535.263 37.9024C535.124 37.6489 535.085 37.352 535.155 37.0712C535.773 34.8577 537.027 32.8745 538.76 31.3677C540.494 29.8609 542.632 28.8968 544.909 28.595C551.238 27.7229 558.759 31.3949 562.78 37.3466C564.975 40.598 566.496 44.2566 567.255 48.1064C568.014 51.9561 567.995 55.919 567.198 59.7611C565.424 67.1816 560.441 73.2098 552.4 77.6927C550 79.1215 547.272 79.9067 544.481 79.9724Z" fill="#27449B"/>
<path d="M525.526 85.4651C524.853 85.4651 524.165 85.4651 523.446 85.358C523.29 85.3513 523.138 85.3128 522.997 85.2448C522.856 85.1769 522.731 85.0809 522.629 84.9628C522.527 84.8447 522.45 84.7069 522.403 84.558C522.355 84.4091 522.339 84.2521 522.355 84.0966C522.37 83.9412 522.418 83.7906 522.494 83.654C522.569 83.5174 522.672 83.3978 522.796 83.3025C522.92 83.2071 523.061 83.1381 523.213 83.0995C523.364 83.061 523.522 83.0537 523.676 83.0783C532.298 83.9198 536.441 78.9473 537.113 76.3922C538.153 72.4295 537.358 69.1859 534.912 67.2122C531.946 64.8866 527.146 64.9784 522.682 67.4111C522.414 67.5572 522.1 67.5909 521.807 67.5048C521.515 67.4187 521.269 67.2199 521.123 66.9521C520.977 66.6843 520.943 66.3694 521.029 66.0767C521.115 65.784 521.314 65.5376 521.581 65.3915C526.856 62.5151 532.634 62.5151 536.319 65.3915C539.498 67.8701 540.599 72.0776 539.376 76.9124C538.352 80.6915 533.49 85.4651 525.526 85.4651Z" fill="#27449B"/>
<path d="M524.531 60.8933C524.385 60.8957 524.239 60.8697 524.103 60.8168C512.148 56.0279 505.605 46.5266 506.599 35.3729C506.646 35.0875 506.799 34.8303 507.027 34.6529C507.255 34.4755 507.542 34.3909 507.83 34.4161C508.118 34.4412 508.386 34.5742 508.58 34.7885C508.774 35.0028 508.88 35.2826 508.877 35.5718C507.975 45.6545 513.983 54.2837 524.944 58.6748C525.195 58.7714 525.405 58.9535 525.535 59.1892C525.666 59.4248 525.709 59.6989 525.658 59.9635C525.607 60.228 525.465 60.4662 525.256 60.6362C525.047 60.8062 524.785 60.8972 524.516 60.8933H524.531Z" fill="#27449B"/>
<path d="M523.567 66.9062C523.361 66.9067 523.159 66.8516 522.981 66.7466C522.803 66.6416 522.657 66.4906 522.558 66.3095C521.378 63.9442 521.012 61.2544 521.519 58.6595C521.604 58.3848 521.789 58.152 522.037 58.0072C522.285 57.8625 522.579 57.8164 522.86 57.8779C523.14 57.9395 523.388 58.1043 523.553 58.3397C523.718 58.5751 523.789 58.864 523.751 59.1491C523.365 61.1969 523.643 63.3147 524.546 65.1926C524.641 65.3664 524.689 65.562 524.686 65.7601C524.684 65.9583 524.629 66.1523 524.529 66.3233C524.429 66.4943 524.287 66.6365 524.115 66.7359C523.944 66.8354 523.75 66.8888 523.552 66.8909L523.567 66.9062Z" fill="#27449B"/>
<path d="M529.01 65.5904C528.751 65.5902 528.5 65.5024 528.298 65.3413C528.095 65.1802 527.953 64.9552 527.894 64.703C527.082 61.8944 527.082 58.913 527.894 56.1044C528 55.8102 528.217 55.57 528.5 55.4365C528.782 55.3031 529.106 55.2874 529.4 55.3929C529.694 55.4984 529.934 55.7165 530.067 55.9991C530.201 56.2817 530.216 56.6058 530.111 56.9C529.46 59.2683 529.46 61.7685 530.111 64.1369C530.18 64.4331 530.128 64.7445 529.968 65.0027C529.807 65.2609 529.551 65.4447 529.255 65.5139L529.01 65.5904Z" fill="#27449B"/>
<path d="M544.71 73.5464C544.467 73.5476 544.229 73.4713 544.032 73.3285C543.835 73.1857 543.689 72.9839 543.614 72.7521C543.539 72.5204 543.539 72.2709 543.616 72.0396C543.692 71.8083 543.84 71.6073 544.037 71.4656C545.918 70.1192 546.682 67.4111 546.025 64.397C545.593 62.339 544.565 60.4538 543.07 58.9764C541.575 57.499 539.678 56.4949 537.617 56.0891C537.319 56.0283 537.057 55.8514 536.889 55.5975C536.722 55.3435 536.662 55.0333 536.722 54.7351C536.783 54.4368 536.96 54.175 537.214 54.0071C537.467 53.8393 537.777 53.7792 538.075 53.84C540.577 54.3261 542.879 55.5409 544.693 57.332C546.507 59.1231 547.752 61.4106 548.272 63.9074C549.113 67.8242 547.997 71.435 545.367 73.3169C545.178 73.4607 544.948 73.541 544.71 73.5464Z" fill="#27449B"/>
<path d="M566.664 52.8761C566.458 52.8767 566.255 52.8215 566.077 52.7165C565.9 52.6115 565.754 52.4605 565.655 52.2794C562.765 46.9091 559.005 43.5737 554.464 42.3803C549.649 41.0951 543.962 42.3038 538.474 45.7463C538.346 45.8267 538.204 45.8811 538.056 45.9066C537.907 45.932 537.755 45.9279 537.608 45.8945C537.461 45.8611 537.322 45.7991 537.199 45.712C537.076 45.6248 536.972 45.5143 536.891 45.3868C536.811 45.2592 536.757 45.117 536.731 44.9684C536.706 44.8197 536.71 44.6676 536.743 44.5205C536.777 44.3735 536.839 44.2344 536.926 44.1113C537.013 43.9883 537.123 43.8836 537.251 43.8032C543.366 40.0088 549.618 38.7236 555.045 40.1618C560.212 41.5235 564.462 45.2414 567.657 51.1931C567.753 51.3681 567.802 51.565 567.798 51.7644C567.794 51.9639 567.739 52.1589 567.637 52.3304C567.535 52.5018 567.391 52.6437 567.217 52.7421C567.044 52.8405 566.848 52.8919 566.649 52.8914L566.664 52.8761Z" fill="#27449B"/>
<path d="M464.376 53.4269C464.094 53.4273 463.822 53.3238 463.611 53.1362C457.038 47.2304 456.044 36.2144 458.903 29.3906C460.722 25.0301 463.932 22.6586 467.77 22.8881C467.92 22.8971 468.068 22.9358 468.203 23.0018C468.339 23.0678 468.46 23.1599 468.56 23.2729C468.66 23.3858 468.737 23.5174 468.786 23.6601C468.836 23.8028 468.856 23.9538 468.847 24.1045C468.838 24.2551 468.8 24.4026 468.734 24.5383C468.668 24.6741 468.576 24.7955 468.463 24.8957C468.35 24.9959 468.219 25.0728 468.076 25.1221C467.933 25.1714 467.783 25.1921 467.632 25.1831C463.764 24.9689 461.853 28.2431 461.013 30.278C458.46 36.398 459.484 46.3583 465.14 51.4379C465.314 51.5927 465.436 51.7967 465.491 52.0228C465.546 52.2489 465.532 52.4865 465.449 52.7039C465.366 52.9213 465.219 53.1084 465.027 53.2402C464.836 53.3721 464.608 53.4425 464.376 53.4422V53.4269Z" fill="#27449B"/>
<path d="M509.717 59.5163C507.703 59.5488 505.707 59.1237 503.88 58.2731C502.053 57.4224 500.442 56.1683 499.169 54.605C495.011 49.6478 493.681 41.5847 495.668 33.5981C495.741 33.3019 495.929 33.0468 496.19 32.889C496.451 32.7312 496.763 32.6836 497.059 32.7566C497.355 32.8296 497.61 33.0174 497.768 33.2785C497.926 33.5396 497.973 33.8527 497.9 34.1489C496.081 41.447 497.243 48.7145 500.958 53.1362C502.128 54.5635 503.631 55.6802 505.335 56.3874C507.039 57.0946 508.891 57.3705 510.726 57.1907C510.877 57.1807 511.028 57.2004 511.171 57.2488C511.314 57.2971 511.446 57.3732 511.56 57.4727C511.673 57.5721 511.766 57.693 511.833 57.8284C511.9 57.9638 511.939 58.111 511.949 58.2617C511.96 58.4124 511.94 58.5636 511.891 58.7066C511.843 58.8497 511.767 58.9819 511.668 59.0955C511.568 59.2092 511.448 59.3021 511.312 59.3691C511.177 59.436 511.03 59.4757 510.879 59.4857L509.717 59.5163Z" fill="#27449B"/>
<path d="M499.873 55.5842C496.909 55.5713 494.005 54.7496 491.473 53.2075C488.941 51.6654 486.877 49.4613 485.503 46.8326C483.933 43.9697 483.222 40.7134 483.458 37.456C483.694 34.1985 484.866 31.0788 486.833 28.4726C487.012 28.2251 487.281 28.0586 487.582 28.0098C487.883 27.961 488.191 28.0339 488.438 28.2125C488.686 28.391 488.852 28.6606 488.901 28.9619C488.95 29.2631 488.877 29.5715 488.698 29.819C486.999 32.0742 485.986 34.7717 485.78 37.5884C485.574 40.4052 486.184 43.2216 487.536 45.7004C488.764 48.0523 490.631 50.0087 492.922 51.3434C495.213 52.6782 497.835 53.3368 500.485 53.2433C500.789 53.2291 501.086 53.3364 501.311 53.5415C501.536 53.7467 501.671 54.0329 501.685 54.3372C501.699 54.6416 501.592 54.9391 501.387 55.1643C501.182 55.3896 500.896 55.5241 500.592 55.5383L499.873 55.5842Z" fill="#27449B"/>
<path d="M534.192 66.6308C533.979 66.6308 533.771 66.5715 533.589 66.4594C533.408 66.3474 533.262 66.1871 533.167 65.9965C533.071 65.8059 533.031 65.5925 533.05 65.3803C533.069 65.168 533.147 64.9653 533.275 64.7948C537.02 59.807 537.861 48.0872 535.079 37.5302C533.397 30.9818 528.964 19.262 517.85 14.3048C500.33 6.45591 491.326 16.0796 491.234 16.1714C491.05 16.3888 490.791 16.5296 490.508 16.5664C490.226 16.6032 489.94 16.5332 489.706 16.3703C489.262 16.0949 478.79 9.776 471.361 21.251C469.333 24.5931 468.177 28.3912 467.998 32.2969C467.819 36.2025 468.623 40.0905 470.336 43.6043C473.149 49.4948 477.98 53.2127 483.667 53.8094C483.969 53.8403 484.246 53.9897 484.438 54.2249C484.63 54.4601 484.721 54.7618 484.691 55.064C484.678 55.2144 484.635 55.3606 484.564 55.4939C484.494 55.6273 484.397 55.7453 484.28 55.8408C484.163 55.9363 484.029 56.0075 483.884 56.0501C483.739 56.0928 483.588 56.106 483.438 56.0891C476.956 55.4159 471.437 51.2237 468.272 44.5988C466.394 40.7276 465.517 36.446 465.723 32.1472C465.928 27.8484 467.21 23.6703 469.45 19.9964C476.895 8.56732 487.229 12.53 490.164 13.9835C492.671 11.7344 502.241 4.80351 518.767 12.1934C530.707 17.5484 535.492 30.0026 537.28 36.9488C540.2 48.2861 539.283 60.572 535.094 66.1565C534.991 66.2998 534.855 66.4172 534.699 66.4994C534.542 66.5817 534.369 66.6267 534.192 66.6308Z" fill="#27449B"/>
<path d="M498.008 111.98C490.196 111.873 480.534 110.45 475.077 100.796C469.619 91.1414 466.042 62.6375 469.726 46.3889C469.75 46.2339 469.807 46.0855 469.891 45.953C469.975 45.8206 470.085 45.7068 470.215 45.6187C470.345 45.5306 470.491 45.4702 470.646 45.4411C470.8 45.4119 470.958 45.4147 471.111 45.4493C471.264 45.4839 471.408 45.5496 471.535 45.6422C471.662 45.7349 471.768 45.8525 471.847 45.9879C471.927 46.1233 471.977 46.2736 471.996 46.4294C472.015 46.5852 472.002 46.7433 471.958 46.8938C468.442 62.408 471.958 90.6824 477.064 99.6635C481.986 108.354 490.823 109.578 498.084 109.685C498.388 109.685 498.68 109.806 498.895 110.021C499.11 110.236 499.231 110.528 499.231 110.832C499.231 111.137 499.11 111.429 498.895 111.644C498.68 111.859 498.388 111.98 498.084 111.98H498.008Z" fill="#27449B"/>
<path d="M498.833 142.794C496.081 142.794 494.247 140.82 492.886 136.46C491.877 133.4 491.893 129.958 491.923 125.291V124.97C491.923 121.282 491.923 116.677 491.465 110.618C491.44 110.314 491.538 110.012 491.736 109.78C491.933 109.548 492.215 109.403 492.519 109.379C492.824 109.355 493.125 109.452 493.357 109.65C493.589 109.848 493.733 110.13 493.758 110.435C494.247 116.555 494.232 121.252 494.216 124.985V125.306C494.216 129.759 494.216 132.956 495.057 135.756C496.769 141.004 498.359 140.912 500.759 140.147C505.499 138.617 524.073 128.841 524.073 126.087C524.073 125.689 524.073 125.016 524.073 124.113V122.583C523.905 108.262 523.874 88.6781 525.388 83.9045C525.429 83.7561 525.499 83.6176 525.595 83.4971C525.691 83.3766 525.81 83.2766 525.945 83.2031C526.08 83.1297 526.229 83.0842 526.382 83.0693C526.535 83.0545 526.69 83.0707 526.837 83.1169C526.983 83.1632 527.119 83.2385 527.236 83.3384C527.353 83.4383 527.449 83.5607 527.518 83.6985C527.587 83.8362 527.627 83.9864 527.637 84.1401C527.646 84.2937 527.625 84.4478 527.574 84.593C526.534 87.8978 526.121 100.673 526.366 122.568V124.098C526.366 125.016 526.366 125.628 526.366 126.087C526.366 131.503 502.747 141.922 501.463 142.32C500.616 142.613 499.729 142.774 498.833 142.794Z" fill="#27449B"/>
<path d="M405.901 219.539C405.708 219.539 405.517 219.491 405.348 219.398C405.178 219.305 405.035 219.17 404.931 219.007C404.827 218.844 404.766 218.657 404.754 218.463C404.742 218.27 404.779 218.077 404.862 217.902C423.543 178.887 448.859 133.752 478.991 130.692C479.283 130.679 479.569 130.779 479.791 130.971C480.012 131.163 480.151 131.432 480.181 131.723C480.21 132.015 480.127 132.307 479.948 132.539C479.77 132.771 479.509 132.926 479.22 132.972C450.174 135.833 425.362 180.402 406.925 218.851C406.838 219.051 406.695 219.222 406.514 219.344C406.332 219.466 406.12 219.534 405.901 219.539Z" fill="#27449B"/>
<path d="M536.074 150.475C531.932 161.185 526.382 163.281 522.698 162.302C519.014 161.323 515.727 157.849 510.972 152.418C506.218 146.986 504.001 145.135 497.504 145.426C491.007 145.716 487.919 152.127 480.168 154.254C472.417 156.381 472.524 151.347 476.102 138.954C480.046 125.383 485.687 123.057 493.071 124.985C493.071 129.759 492.994 133.094 493.973 136.108C495.731 141.509 497.749 142.32 501.112 141.234C504.475 140.147 525.22 130.08 525.22 126.087C525.22 125.49 525.22 124.251 525.22 122.552C525.648 122.644 533.904 124.434 536.288 130.126C538.524 136.737 538.449 143.912 536.074 150.475Z" fill="#27449B"/>
<path d="M524.317 163.648C523.672 163.649 523.03 163.566 522.406 163.403C518.385 162.348 514.93 158.66 510.176 153.168C505.59 147.966 503.694 146.313 497.625 146.573C494.567 146.711 492.289 148.409 489.66 150.383C486.961 152.63 483.843 154.32 480.488 155.355C478.5 155.906 475.672 156.426 473.944 154.682C471.621 152.326 472.584 147.032 475.015 138.617C478.714 125.872 484.187 121.466 493.36 123.853C493.606 123.917 493.824 124.062 493.979 124.264C494.134 124.467 494.217 124.715 494.216 124.97V125.291C494.216 129.743 494.216 132.941 495.056 135.741C496.769 140.989 498.359 140.897 500.759 140.132C505.498 138.602 524.072 128.825 524.072 126.071C524.072 125.673 524.072 125 524.072 124.098V122.568C524.07 122.395 524.108 122.225 524.181 122.069C524.254 121.912 524.362 121.775 524.495 121.666C524.629 121.557 524.785 121.48 524.953 121.44C525.121 121.4 525.295 121.399 525.463 121.435C526.411 121.634 534.789 123.593 537.342 129.682C539.718 136.566 539.659 144.058 537.174 150.903C532.893 161.843 527.435 163.648 524.317 163.648ZM498.741 144.248C504.764 144.248 507.256 146.42 511.842 151.668C516.428 156.916 519.593 160.313 522.987 161.2C526.381 162.087 531.288 159.67 535.003 150.062C537.266 143.768 537.336 136.893 535.201 130.554C533.596 126.714 528.765 124.786 526.35 124.036C526.35 124.954 526.35 125.566 526.35 126.025C526.35 131.442 502.731 141.861 501.447 142.259C497.105 143.651 494.705 142.014 492.87 136.399C491.991 132.948 491.665 129.379 491.907 125.826C485.792 124.48 480.885 126.5 477.185 139.214C475.473 145.12 473.929 151.454 475.55 152.984C476.207 153.642 477.644 153.672 479.845 153.06C482.901 152.093 485.737 150.533 488.192 148.47C491.005 146.359 493.665 144.37 497.365 144.202L498.741 144.248Z" fill="#27449B"/>
<path d="M575.699 284.625C554.297 284.625 509.122 270.565 491.114 255.02C484.739 249.512 481.941 244.111 482.675 238.939C482.738 238.656 482.905 238.407 483.144 238.242C483.383 238.078 483.676 238.01 483.963 238.053C484.25 238.095 484.51 238.245 484.691 238.472C484.872 238.699 484.96 238.987 484.937 239.276C484.28 243.606 486.864 248.318 492.581 253.276C513.571 271.391 568.942 285.712 582.533 281.535C586.771 280.318 590.671 278.139 593.93 275.166C597.189 272.194 599.718 268.509 601.321 264.399C611.763 239.322 597.239 194.906 585.636 172.813C572.657 148.119 554.618 133.033 536.12 131.243C535.963 131.239 535.808 131.202 535.666 131.136C535.523 131.07 535.396 130.975 535.292 130.857C535.188 130.739 535.109 130.602 535.06 130.452C535.011 130.303 534.993 130.145 535.008 129.988C535.023 129.832 535.07 129.68 535.145 129.542C535.221 129.404 535.324 129.284 535.449 129.188C535.573 129.091 535.716 129.022 535.868 128.983C536.02 128.945 536.179 128.938 536.334 128.963C555.612 130.753 574.323 146.359 587.669 171.803C599.899 195.166 614.254 239.353 603.446 265.332C601.718 269.755 598.995 273.719 595.487 276.917C591.979 280.114 587.782 282.459 583.221 283.768C580.767 284.411 578.234 284.699 575.699 284.625Z" fill="#27449B"/>
<path d="M579.673 240.73C579.542 240.753 579.407 240.753 579.276 240.73C563.178 234.747 543.365 226.699 532.955 217.351C522.896 208.324 509.825 206.274 500.423 212.226C500.165 212.388 499.854 212.441 499.557 212.374C499.261 212.306 499.003 212.124 498.841 211.866C498.678 211.608 498.625 211.297 498.693 211C498.76 210.703 498.942 210.445 499.2 210.283C509.488 203.765 523.66 205.922 534.499 215.638C544.619 224.726 564.187 232.666 580.086 238.588C580.335 238.683 580.543 238.863 580.674 239.095C580.804 239.328 580.85 239.599 580.803 239.861C580.756 240.124 580.619 240.362 580.416 240.534C580.212 240.707 579.955 240.803 579.689 240.806L579.673 240.73Z" fill="#27449B"/>
<path d="M552.951 219.539H552.783C552.633 219.518 552.489 219.468 552.359 219.392C552.228 219.315 552.115 219.213 552.024 219.092C551.933 218.972 551.867 218.834 551.829 218.687C551.791 218.541 551.783 218.388 551.805 218.238C552.981 209.752 553.553 201.193 553.517 192.626C553.507 192.322 553.618 192.026 553.826 191.804C554.033 191.581 554.321 191.451 554.625 191.441C554.929 191.43 555.225 191.542 555.447 191.75C555.669 191.958 555.8 192.245 555.81 192.55C555.848 201.25 555.265 209.942 554.067 218.56C554.027 218.829 553.893 219.075 553.689 219.254C553.485 219.434 553.223 219.535 552.951 219.539Z" fill="#27449B"/>
<path d="M526.595 81.227C528.267 81.227 529.622 79.8707 529.622 78.1976C529.622 76.5245 528.267 75.1682 526.595 75.1682C524.924 75.1682 523.568 76.5245 523.568 78.1976C523.568 79.8707 524.924 81.227 526.595 81.227Z" fill="#39B715"/>
<path d="M492.259 155.417C491.823 156.685 491.876 158.07 492.409 159.3C492.942 160.531 493.915 161.517 495.138 162.066C496.36 162.614 497.744 162.685 499.016 162.264C500.288 161.844 501.357 160.962 502.013 159.793C502.592 158.498 502.635 157.026 502.13 155.701C501.625 154.375 500.615 153.304 499.322 152.724C498.029 152.144 496.558 152.101 495.233 152.606C493.909 153.111 492.839 154.122 492.259 155.417Z" fill="#39B715"/>
<path d="M498.528 174.159C497.731 173.114 496.578 172.397 495.288 172.146C493.998 171.894 492.661 172.125 491.53 172.795C490.399 173.465 489.553 174.527 489.152 175.779C488.751 177.032 488.824 178.388 489.356 179.591C489.693 180.231 490.156 180.795 490.718 181.251C491.279 181.706 491.928 182.042 492.623 182.239C493.318 182.436 494.047 182.489 494.763 182.396C495.48 182.303 496.17 182.065 496.792 181.697C497.414 181.328 497.955 180.837 498.382 180.253C498.809 179.67 499.112 179.005 499.275 178.3C499.437 177.595 499.454 176.865 499.326 176.153C499.198 175.441 498.926 174.763 498.528 174.159Z" fill="#39B715"/>
<path d="M491.892 206.626C491.613 206.624 491.344 206.521 491.136 206.335C490.927 206.149 490.794 205.893 490.76 205.616C490.502 203.154 489.759 200.767 488.574 198.593C486.694 196.099 478.683 183.553 475.626 173.838C475.546 173.551 475.581 173.245 475.723 172.983C475.865 172.722 476.103 172.526 476.386 172.436C476.67 172.347 476.977 172.371 477.243 172.505C477.509 172.638 477.713 172.869 477.812 173.149C480.778 182.59 488.513 194.784 490.409 197.216C492.305 199.649 493.008 205.126 493.038 205.341C493.058 205.49 493.047 205.642 493.008 205.788C492.968 205.934 492.9 206.07 492.808 206.19C492.716 206.309 492.601 206.409 492.47 206.484C492.339 206.559 492.194 206.607 492.045 206.626H491.892Z" fill="#27449B"/>
<path d="M481.711 233.921C488.483 238.266 490.792 238.404 492.703 237.501C494.614 236.599 511.751 224.665 501.783 209.227C500.377 207.054 495.271 206.167 495.271 206.167C495.271 206.167 499.23 224.328 481.711 233.921Z" fill="#39B715"/>
<path d="M490.778 239.108C488.744 239.108 485.977 238.021 481.101 234.885C480.929 234.783 480.788 234.639 480.689 234.466C480.591 234.293 480.539 234.097 480.539 233.898C480.539 233.699 480.591 233.503 480.689 233.33C480.788 233.157 480.929 233.013 481.101 232.911C497.672 223.838 494.125 206.58 494.08 206.396C494.039 206.213 494.045 206.022 494.095 205.841C494.146 205.659 494.241 205.493 494.371 205.357C494.5 205.221 494.662 205.119 494.84 205.06C495.019 205.002 495.209 204.987 495.394 205.019C495.96 205.126 501.051 206.075 502.671 208.6C504.2 210.764 505.227 213.244 505.676 215.856C506.126 218.469 505.987 221.149 505.27 223.701C502.794 232.315 494.309 237.991 493.04 238.542C492.335 238.89 491.563 239.083 490.778 239.108ZM483.929 233.952C489.402 237.256 491.037 237.012 492.215 236.461C493.392 235.91 500.928 230.754 503.13 223.058C503.749 220.82 503.863 218.473 503.461 216.186C503.059 213.899 502.152 211.73 500.806 209.839C499.656 208.709 498.199 207.943 496.617 207.636C497.221 212.776 496.348 217.981 494.101 222.642C491.853 227.303 488.325 231.226 483.929 233.952Z" fill="#39B715"/>
<path d="M489.646 88.112C488.652 88.112 483.531 87.6989 481.804 85.9241C480.076 84.1493 479.602 79.1309 480.688 64.3511C480.715 64.0508 480.858 63.7728 481.086 63.5758C481.314 63.3788 481.61 63.2783 481.911 63.2954C482.212 63.3189 482.492 63.4607 482.69 63.69C482.888 63.9193 482.987 64.2174 482.965 64.5194C482.155 75.6425 481.941 82.8794 483.409 84.3023C484.265 85.1591 487.643 85.7099 489.753 85.8323C490.057 85.8323 490.349 85.9532 490.564 86.1684C490.779 86.3836 490.9 86.6755 490.9 86.9798C490.9 87.2841 490.779 87.576 490.564 87.7912C490.349 88.0064 490.057 88.1273 489.753 88.1273L489.646 88.112Z" fill="#27449B"/>
<path d="M479.113 196.956C478.946 196.955 478.782 196.917 478.632 196.846C478.481 196.774 478.348 196.671 478.241 196.543C474.649 192.259 463.413 184.655 447.238 178.076C446.97 177.954 446.758 177.732 446.648 177.458C446.539 177.183 446.539 176.877 446.649 176.603C446.76 176.328 446.972 176.107 447.241 175.986C447.51 175.864 447.816 175.851 448.095 175.949C462.48 181.809 475.306 189.49 479.984 195.074C480.123 195.241 480.212 195.444 480.24 195.66C480.268 195.875 480.235 196.094 480.144 196.291C480.052 196.488 479.907 196.656 479.725 196.773C479.542 196.891 479.33 196.954 479.113 196.956Z" fill="#27449B"/>
<path d="M467.097 200.536C466.943 200.538 466.792 200.509 466.65 200.452C466.508 200.394 466.379 200.308 466.271 200.2C461.899 195.748 449.975 188.755 439.182 185.451C439.028 185.415 438.884 185.348 438.757 185.255C438.631 185.161 438.525 185.042 438.446 184.905C438.367 184.769 438.318 184.617 438.3 184.461C438.283 184.304 438.297 184.146 438.344 183.995C438.39 183.844 438.467 183.705 438.569 183.585C438.672 183.466 438.798 183.369 438.94 183.3C439.081 183.231 439.236 183.192 439.393 183.186C439.55 183.18 439.707 183.206 439.854 183.263C451.335 186.782 463.351 193.973 467.907 198.563C468.068 198.724 468.177 198.93 468.221 199.154C468.265 199.378 468.241 199.61 468.152 199.82C468.063 200.03 467.914 200.209 467.724 200.334C467.533 200.459 467.309 200.524 467.081 200.521L467.097 200.536Z" fill="#27449B"/>
<path d="M462.845 206.167C462.597 206.168 462.355 206.087 462.157 205.937C455.625 201.831 448.714 198.362 441.519 195.579C441.242 195.47 441.017 195.256 440.895 194.984C440.772 194.712 440.76 194.402 440.861 194.121C440.963 193.84 441.17 193.61 441.438 193.48C441.707 193.349 442.015 193.328 442.299 193.422C449.712 196.283 456.825 199.871 463.533 204.132C463.726 204.276 463.868 204.478 463.94 204.708C464.011 204.938 464.009 205.184 463.933 205.413C463.857 205.641 463.711 205.84 463.516 205.981C463.32 206.122 463.086 206.197 462.845 206.197V206.167Z" fill="#27449B"/>
<path d="M456.044 211.537C455.927 211.555 455.809 211.555 455.692 211.537C455.692 211.537 448.385 209.15 440.267 207.33C439.988 207.247 439.75 207.061 439.603 206.81C439.456 206.559 439.409 206.26 439.474 205.976C439.538 205.692 439.708 205.443 439.949 205.279C440.19 205.116 440.484 205.05 440.771 205.096C448.996 206.932 456.334 209.334 456.411 209.349C456.666 209.436 456.883 209.611 457.023 209.842C457.163 210.074 457.216 210.347 457.174 210.614C457.132 210.881 456.997 211.125 456.793 211.302C456.589 211.48 456.329 211.579 456.059 211.583L456.044 211.537Z" fill="#27449B"/>
<path d="M477.598 232.223C470.046 232.223 465.368 225.108 461.836 219.738C460.758 217.914 459.482 216.216 458.03 214.674C457.803 214.471 457.666 214.186 457.648 213.882C457.631 213.578 457.735 213.279 457.938 213.052C458.141 212.825 458.425 212.687 458.729 212.67C459.033 212.653 459.332 212.757 459.559 212.96C461.174 214.628 462.585 216.482 463.763 218.483C467.584 224.282 472.324 231.504 480.181 229.606C480.328 229.571 480.48 229.565 480.629 229.589C480.778 229.613 480.92 229.665 481.049 229.744C481.177 229.823 481.289 229.926 481.378 230.049C481.466 230.171 481.53 230.309 481.565 230.456C481.6 230.602 481.606 230.754 481.582 230.903C481.559 231.052 481.506 231.195 481.427 231.324C481.348 231.452 481.245 231.564 481.123 231.653C481.001 231.741 480.863 231.805 480.716 231.84C479.696 232.091 478.649 232.219 477.598 232.223Z" fill="#27449B"/>
<path d="M495.194 104.33C489.691 104.33 486.266 101.01 485.273 94.7216C485.224 94.4214 485.297 94.1141 485.474 93.8674C485.652 93.6206 485.92 93.4546 486.22 93.4058C490.745 92.5052 495.141 91.0456 499.306 89.0606C499.573 88.9246 499.882 88.898 500.167 88.9866C500.453 89.0752 500.692 89.272 500.835 89.5349C500.942 89.7338 503.556 94.4462 502.364 98.4854C502.127 99.3422 501.718 100.141 501.16 100.833C500.603 101.526 499.909 102.096 499.123 102.509C498.991 102.586 498.846 102.637 498.694 102.657C498.543 102.677 498.389 102.666 498.242 102.626C498.095 102.586 497.957 102.516 497.837 102.422C497.717 102.328 497.617 102.211 497.542 102.078C497.468 101.944 497.421 101.797 497.404 101.645C497.388 101.494 497.401 101.34 497.444 101.193C497.488 101.047 497.56 100.911 497.656 100.792C497.753 100.674 497.872 100.577 498.007 100.505C498.526 100.238 498.983 99.8658 499.352 99.4129C499.72 98.9601 499.991 98.436 500.147 97.8734C500.512 95.7429 500.191 93.5515 499.23 91.6157C495.534 93.285 491.676 94.5718 487.719 95.456C488.712 99.9542 491.189 102.157 495.362 102.035C495.666 102.035 495.958 102.156 496.173 102.371C496.388 102.586 496.509 102.878 496.509 103.183C496.509 103.487 496.388 103.779 496.173 103.994C495.958 104.209 495.666 104.33 495.362 104.33H495.194Z" fill="#27449B"/>
<path d="M495.073 67.2001C495.249 64.9763 494.11 63.0717 492.527 62.9459C490.945 62.8202 489.519 64.5209 489.343 66.7447C489.166 68.9685 490.306 70.8732 491.888 70.9989C493.471 71.1247 494.897 69.4238 495.073 67.2001Z" fill="#27449B"/>
<path d="M475.474 70.3181C476.917 70.3181 478.088 68.681 478.088 66.6614C478.088 64.6419 476.917 63.0047 475.474 63.0047C474.03 63.0047 472.859 64.6419 472.859 66.6614C472.859 68.681 474.03 70.3181 475.474 70.3181Z" fill="#27449B"/>
<path d="M115.508 191.575C117.093 191.481 118.271 189.6 118.139 187.373C118.007 185.146 116.616 183.417 115.031 183.511C113.447 183.605 112.269 185.486 112.401 187.713C112.533 189.94 113.924 191.669 115.508 191.575Z" fill="#27449B"/>
<path d="M131.219 188.888C132.661 188.803 133.732 187.099 133.613 185.083C133.494 183.067 132.229 181.502 130.787 181.588C129.346 181.673 128.274 183.377 128.394 185.393C128.513 187.409 129.778 188.974 131.219 188.888Z" fill="#27449B"/>
<path d="M359.93 186.69H359.731C359.583 186.664 359.441 186.609 359.313 186.528C359.186 186.447 359.076 186.342 358.989 186.218C358.902 186.094 358.841 185.955 358.808 185.807C358.776 185.66 358.773 185.507 358.799 185.359C360.633 174.649 359.777 167.412 356.154 163.296C350.864 157.047 347.558 149.359 346.661 141.218C346.62 140.916 346.701 140.61 346.886 140.367C347.071 140.125 347.345 139.966 347.647 139.925C347.949 139.885 348.255 139.966 348.497 140.151C348.739 140.336 348.898 140.61 348.938 140.912C349.79 148.602 352.914 155.863 357.912 161.766C362.009 166.433 363.049 174.282 361.092 185.741C361.044 186.013 360.901 186.258 360.687 186.432C360.474 186.606 360.205 186.698 359.93 186.69Z" fill="#27449B"/>
<path d="M343.604 159.41C343.446 159.412 343.29 159.38 343.145 159.318C335.746 156.059 325.825 147.155 321.544 135.297C321.451 135.014 321.471 134.705 321.602 134.436C321.732 134.167 321.962 133.96 322.243 133.858C322.524 133.757 322.833 133.769 323.105 133.892C323.377 134.015 323.59 134.239 323.7 134.517C327.766 145.747 337.107 154.162 344.078 157.222C344.314 157.332 344.505 157.519 344.621 157.752C344.737 157.985 344.77 158.251 344.715 158.506C344.66 158.76 344.52 158.988 344.318 159.153C344.116 159.317 343.864 159.408 343.604 159.41Z" fill="#27449B"/>
<path d="M324.281 171.359C324.099 171.355 323.922 171.308 323.762 171.222C323.603 171.136 323.466 171.013 323.363 170.864C323.26 170.714 323.194 170.543 323.17 170.363C323.146 170.183 323.165 170 323.226 169.829C325.812 164.254 330.347 159.819 335.976 157.36C336.251 157.23 336.567 157.215 336.854 157.318C337.141 157.422 337.375 157.635 337.504 157.911C337.634 158.187 337.649 158.503 337.546 158.79C337.443 159.077 337.23 159.311 336.954 159.441C331.83 161.661 327.697 165.684 325.336 170.747C325.235 170.938 325.083 171.097 324.896 171.205C324.71 171.314 324.496 171.367 324.281 171.359Z" fill="#27449B"/>
<path d="M330.731 163.082C330.533 163.081 330.338 163.028 330.166 162.929C327.108 161.185 313.242 147.721 310.46 138.449C310.417 138.304 310.403 138.153 310.418 138.002C310.434 137.852 310.478 137.707 310.55 137.574C310.622 137.441 310.719 137.323 310.836 137.228C310.953 137.133 311.088 137.062 311.232 137.018C311.377 136.975 311.528 136.961 311.678 136.976C311.828 136.992 311.974 137.037 312.107 137.109C312.239 137.18 312.357 137.277 312.452 137.395C312.547 137.512 312.618 137.646 312.662 137.791C315.184 146.221 328.53 159.41 331.297 160.955C331.515 161.081 331.686 161.275 331.783 161.508C331.88 161.741 331.898 161.999 331.834 162.243C331.769 162.487 331.626 162.703 331.427 162.857C331.228 163.012 330.983 163.096 330.731 163.097V163.082Z" fill="#27449B"/>
<path d="M325.503 169.034C325.305 169.033 325.11 168.98 324.938 168.881C320.535 166.341 312.585 158.171 309.971 147.246C309.936 147.1 309.93 146.948 309.954 146.799C309.977 146.65 310.03 146.507 310.109 146.378C310.188 146.25 310.291 146.138 310.413 146.049C310.535 145.961 310.673 145.897 310.82 145.862C310.966 145.827 311.118 145.821 311.267 145.844C311.416 145.868 311.559 145.921 311.687 146C311.815 146.079 311.927 146.182 312.016 146.304C312.104 146.426 312.168 146.564 312.203 146.711C314.649 156.977 322.018 164.536 326.084 166.892C326.304 167.018 326.475 167.214 326.572 167.448C326.669 167.682 326.685 167.942 326.619 168.187C326.552 168.431 326.407 168.647 326.205 168.8C326.003 168.954 325.756 169.036 325.503 169.034Z" fill="#27449B"/>
<path d="M339.903 198.639C339.716 198.638 339.533 198.591 339.368 198.501C330.028 193.468 315.459 177.709 306.775 165.377C306.601 165.127 306.533 164.819 306.586 164.519C306.639 164.219 306.809 163.953 307.058 163.778C307.308 163.604 307.616 163.535 307.916 163.589C308.215 163.642 308.481 163.812 308.656 164.061C317.186 176.179 331.419 191.601 340.469 196.497C340.694 196.619 340.872 196.812 340.975 197.046C341.077 197.281 341.099 197.543 341.035 197.791C340.972 198.039 340.828 198.258 340.626 198.415C340.423 198.571 340.174 198.656 339.919 198.654L339.903 198.639Z" fill="#27449B"/>
<path d="M416.295 235.987C416.04 235.985 415.793 235.899 415.592 235.742C404.891 227.388 394.847 211.797 391.576 206.672L391.423 206.427C387.387 200.123 376.135 185.634 368.813 183.691C368.519 183.612 368.268 183.419 368.116 183.155C367.964 182.891 367.923 182.578 368.002 182.284C368.081 181.989 368.274 181.739 368.538 181.587C368.801 181.435 369.115 181.394 369.409 181.473C379.544 184.181 393.227 204.989 393.364 205.188L393.517 205.432C396.743 210.466 406.557 225.797 417.014 233.921C417.201 234.068 417.338 234.27 417.406 234.498C417.473 234.727 417.468 234.971 417.391 235.196C417.313 235.422 417.168 235.617 416.974 235.756C416.781 235.895 416.549 235.97 416.311 235.971L416.295 235.987Z" fill="#27449B"/>
<path d="M367.024 258.416C366.788 258.415 366.558 258.34 366.367 258.202C361.995 255.142 347.135 241.372 340.531 226.363C335.241 214.352 335.547 204.866 341.326 200.965C341.577 200.814 341.877 200.765 342.163 200.828C342.449 200.892 342.701 201.062 342.865 201.305C343.029 201.548 343.095 201.845 343.047 202.134C343 202.424 342.843 202.684 342.61 202.862C338.91 205.356 336.969 212.593 342.61 225.43C349.077 240.102 364.013 253.75 367.666 256.32C367.863 256.461 368.01 256.661 368.087 256.891C368.163 257.12 368.165 257.369 368.092 257.6C368.019 257.83 367.875 258.032 367.681 258.176C367.486 258.32 367.251 258.399 367.009 258.401L367.024 258.416Z" fill="#27449B"/>
<path d="M416.738 280.846C403.836 280.846 389.221 274.619 370.876 261.507C370.746 261.423 370.634 261.313 370.547 261.184C370.461 261.056 370.401 260.911 370.372 260.758C370.343 260.606 370.345 260.449 370.378 260.298C370.411 260.146 370.475 260.003 370.565 259.877C370.655 259.751 370.769 259.644 370.902 259.563C371.034 259.482 371.181 259.429 371.335 259.407C371.488 259.385 371.644 259.394 371.794 259.435C371.944 259.475 372.084 259.545 372.206 259.64C394.847 275.812 411.479 281.274 426.14 277.327C440.342 273.502 445.311 267.076 445.356 267.015C445.547 266.801 445.811 266.666 446.095 266.636C446.38 266.607 446.666 266.686 446.896 266.856C447.126 267.027 447.284 267.278 447.338 267.559C447.393 267.84 447.34 268.132 447.191 268.377C446.977 268.667 441.795 275.491 426.721 279.546C423.465 280.418 420.109 280.855 416.738 280.846Z" fill="#27449B"/>
<path d="M448.292 303.505H448.17C447.868 303.471 447.592 303.318 447.403 303.079C447.214 302.841 447.127 302.538 447.161 302.235C448.2 292.841 446.962 282.957 445.54 271.528C443.63 256.228 441.474 239.031 444.287 218.239C444.327 217.936 444.486 217.662 444.729 217.477C444.971 217.292 445.277 217.211 445.579 217.252C445.881 217.292 446.154 217.451 446.339 217.694C446.524 217.936 446.605 218.242 446.565 218.544C443.798 239.031 445.938 256.137 447.834 271.238C449.286 282.82 450.539 292.826 449.469 302.496C449.435 302.781 449.295 303.043 449.077 303.23C448.859 303.417 448.579 303.515 448.292 303.505Z" fill="#27449B"/>
<path d="M570.945 309.105C570.666 309.103 570.397 309 570.189 308.814C569.98 308.628 569.847 308.373 569.813 308.095C569.021 299.796 569.021 291.44 569.813 283.141C569.859 282.852 570.014 282.591 570.246 282.412C570.478 282.233 570.769 282.15 571.061 282.18C571.352 282.209 571.621 282.349 571.813 282.57C572.004 282.792 572.104 283.078 572.091 283.371C571.313 291.512 571.313 299.709 572.091 307.851C572.126 308.153 572.039 308.456 571.85 308.695C571.66 308.933 571.384 309.086 571.082 309.121L570.945 309.105Z" fill="#27449B"/>
<path d="M271.11 303.505C270.84 303.506 270.579 303.411 270.372 303.238C270.165 303.064 270.026 302.823 269.979 302.557C268.359 293.101 266.646 257.131 266.646 232.575C266.646 207.161 267.61 174.741 269.704 159.578C270.866 151.439 283.937 149.542 304.651 149.083C304.955 149.083 305.247 149.203 305.462 149.419C305.677 149.634 305.798 149.926 305.798 150.23C305.798 150.534 305.677 150.826 305.462 151.041C305.247 151.257 304.955 151.378 304.651 151.378C288.232 151.729 272.914 152.999 271.936 159.9C269.78 174.955 268.878 207.253 268.878 232.575C268.878 257.055 270.575 292.795 272.181 302.159C272.207 302.308 272.204 302.46 272.171 302.608C272.138 302.755 272.077 302.895 271.99 303.018C271.904 303.142 271.794 303.247 271.666 303.328C271.539 303.409 271.397 303.464 271.248 303.49L271.11 303.505Z" fill="#39B715"/>
<path d="M358.234 149.404C357.93 149.416 357.634 149.307 357.41 149.1C357.187 148.894 357.054 148.607 357.042 148.302C357.03 147.998 357.139 147.701 357.345 147.477C357.552 147.254 357.839 147.121 358.143 147.109C362.072 146.787 365.527 146.482 368.324 146.237L372.91 145.839C389.956 144.447 442.056 145.839 442.591 145.839C442.741 145.843 442.89 145.876 443.027 145.938C443.165 145.999 443.289 146.087 443.393 146.197C443.496 146.306 443.577 146.435 443.631 146.575C443.685 146.716 443.711 146.866 443.707 147.017C443.707 147.169 443.676 147.319 443.616 147.459C443.556 147.599 443.469 147.725 443.359 147.829C443.248 147.934 443.118 148.015 442.975 148.067C442.833 148.119 442.681 148.142 442.53 148.134C442.01 148.134 390.032 146.742 373.109 148.134L368.523 148.532C365.725 148.777 362.255 149.098 358.326 149.404H358.234Z" fill="#39B715"/>
<path d="M620.032 334.671C615.446 334.671 603.705 330.082 575.897 317.612C567.734 313.971 560.61 310.819 559.081 310.452C556.895 309.962 537.434 310.911 518.6 311.829C492.611 313.114 463.06 314.552 455.921 313.588C443.523 311.905 396.56 311.706 380.584 312.9H380.248C308.855 318.239 284.609 314.996 276.843 311.37C276.568 311.24 276.355 311.006 276.252 310.719C276.148 310.432 276.163 310.116 276.293 309.84C276.423 309.564 276.657 309.351 276.943 309.247C277.23 309.144 277.546 309.159 277.822 309.289C285.343 312.838 309.192 315.96 380.08 310.651H380.416C396.881 309.427 443.431 309.625 456.227 311.354C463.167 312.288 492.58 310.849 518.508 309.58C542.433 308.401 557.231 307.713 559.601 308.248C561.344 308.646 567 311.155 576.861 315.546C590.91 321.819 616.929 333.447 620.46 332.376C621.057 330.204 611.441 319.326 606.793 314.016C601.596 308.141 598.385 304.439 597.789 302.649C596.26 298.15 596.52 281.489 596.52 280.785C596.524 280.483 596.647 280.195 596.861 279.983C597.076 279.771 597.365 279.653 597.667 279.653C597.817 279.655 597.966 279.686 598.104 279.746C598.243 279.805 598.368 279.892 598.473 280C598.578 280.108 598.661 280.235 598.717 280.375C598.772 280.515 598.8 280.665 598.798 280.816C598.798 285.528 598.798 298.502 599.945 301.93C600.419 303.368 604.531 308.05 608.49 312.502C619.528 325.017 624.481 331.198 622.142 333.922C621.867 334.194 621.536 334.403 621.171 334.533C620.806 334.662 620.418 334.71 620.032 334.671Z" fill="#39B715"/>
<path d="M597.085 187.547C596.786 187.547 596.499 187.43 596.285 187.222C596.071 187.013 595.946 186.729 595.938 186.43C595.938 186.338 595.694 177.25 595.938 162.501C596.015 157.283 595.22 153.978 593.416 152.127C591 149.633 586.598 149.572 580.529 149.48H578.419C578.268 149.478 578.12 149.447 577.981 149.387C577.843 149.328 577.718 149.241 577.613 149.133C577.508 149.025 577.425 148.898 577.369 148.758C577.313 148.618 577.286 148.468 577.288 148.318C577.283 148.165 577.31 148.013 577.368 147.872C577.425 147.73 577.511 147.602 577.62 147.496C577.729 147.389 577.859 147.307 578.002 147.253C578.145 147.2 578.297 147.177 578.449 147.185H580.559C586.934 147.277 591.979 147.354 595.067 150.536C597.314 152.862 598.323 156.656 598.231 162.546C598.002 177.189 598.231 186.292 598.231 186.384C598.236 186.535 598.21 186.685 598.156 186.825C598.102 186.966 598.021 187.095 597.917 187.204C597.814 187.314 597.69 187.402 597.552 187.463C597.414 187.524 597.266 187.558 597.116 187.562L597.085 187.547Z" fill="#39B715"/>
<path d="M174.263 209.062C174.157 209.077 174.049 209.077 173.942 209.062C173.796 209.021 173.66 208.952 173.541 208.858C173.422 208.765 173.322 208.648 173.248 208.516C173.174 208.384 173.127 208.238 173.11 208.087C173.093 207.937 173.105 207.784 173.147 207.639C175.287 200.126 171.787 187.473 167.369 178.263C167.253 177.991 167.247 177.686 167.351 177.41C167.455 177.134 167.661 176.908 167.926 176.78C168.192 176.652 168.497 176.632 168.777 176.722C169.057 176.813 169.292 177.009 169.432 177.268C173.698 186.173 177.81 199.621 175.349 208.266C175.275 208.496 175.13 208.697 174.935 208.84C174.74 208.983 174.505 209.06 174.263 209.062Z" fill="#27449B"/>
<path d="M181.283 212.03C181.101 212.026 180.924 211.979 180.764 211.892C180.605 211.806 180.468 211.684 180.365 211.534C180.262 211.385 180.196 211.213 180.172 211.034C180.148 210.854 180.167 210.671 180.228 210.5C182.827 204.135 182.123 192.14 178.561 181.996C178.511 181.853 178.49 181.702 178.498 181.551C178.506 181.4 178.544 181.252 178.609 181.116C178.674 180.979 178.766 180.857 178.878 180.756C178.991 180.655 179.122 180.577 179.265 180.527C179.407 180.477 179.558 180.455 179.709 180.463C179.86 180.472 180.008 180.509 180.144 180.575C180.28 180.64 180.402 180.732 180.503 180.844C180.604 180.957 180.682 181.088 180.732 181.231C184.462 191.864 185.15 204.533 182.368 211.357C182.274 211.564 182.121 211.739 181.928 211.858C181.734 211.978 181.51 212.038 181.283 212.03Z" fill="#27449B"/>
<path d="M158.379 221.21C158.12 221.21 157.869 221.122 157.666 220.961C157.463 220.8 157.321 220.575 157.263 220.322C155.382 212.03 158.791 205.711 163.24 204.364C166.466 203.385 170.884 204.885 173.574 212.014C173.639 212.157 173.674 212.312 173.676 212.469C173.679 212.626 173.65 212.781 173.59 212.926C173.53 213.071 173.441 213.202 173.329 213.312C173.216 213.421 173.083 213.506 172.936 213.561C172.789 213.617 172.633 213.642 172.477 213.634C172.32 213.627 172.167 213.588 172.026 213.519C171.885 213.45 171.76 213.353 171.658 213.233C171.556 213.114 171.48 212.975 171.434 212.825C169.63 208.098 166.741 205.696 163.897 206.552C160.488 207.577 157.92 212.825 159.495 219.802C159.528 219.95 159.533 220.103 159.507 220.252C159.482 220.402 159.427 220.544 159.346 220.672C159.265 220.8 159.159 220.911 159.035 220.998C158.911 221.085 158.771 221.147 158.623 221.179L158.379 221.21Z" fill="#27449B"/>
<path d="M171.695 243.41C171.548 243.408 171.402 243.377 171.267 243.318C165.565 240.977 157.508 232.991 157.799 224.683C157.8 224.531 157.833 224.381 157.895 224.242C157.957 224.103 158.046 223.978 158.158 223.875C158.269 223.772 158.401 223.692 158.544 223.642C158.687 223.592 158.84 223.571 158.991 223.581C159.142 223.587 159.29 223.623 159.427 223.686C159.563 223.749 159.686 223.839 159.789 223.95C159.891 224.06 159.97 224.19 160.022 224.332C160.074 224.474 160.098 224.624 160.092 224.775C159.817 232.287 167.736 239.356 172.138 241.192C172.381 241.295 172.581 241.479 172.704 241.713C172.826 241.946 172.865 242.215 172.813 242.474C172.761 242.733 172.621 242.966 172.418 243.133C172.214 243.301 171.959 243.393 171.695 243.395V243.41Z" fill="#27449B"/>
<path d="M186.143 358.298C181.376 358.419 176.652 357.369 172.384 355.238C172.121 355.086 171.929 354.835 171.85 354.541C171.771 354.247 171.812 353.933 171.964 353.67C172.116 353.406 172.367 353.213 172.66 353.134C172.954 353.055 173.267 353.097 173.531 353.249C173.669 353.249 186.632 360.501 204.106 351.214C216.963 344.405 216.672 326.627 212.285 302.04C208.402 280.283 199.443 258.236 195.774 249.775L195.621 249.423C192.656 242.584 191.769 240.518 193.328 229.013C194.735 218.563 193.206 205.282 188.864 190.61C188.777 190.318 188.81 190.003 188.954 189.734C189.099 189.466 189.344 189.266 189.636 189.179C189.928 189.092 190.243 189.124 190.511 189.269C190.779 189.414 190.979 189.66 191.066 189.952C195.499 204.931 197.059 218.548 195.652 229.319C194.246 240.09 194.872 241.788 197.792 248.505L197.945 248.857C201.645 257.394 210.68 279.64 214.609 301.642C218.293 322.266 220.922 344.956 205.253 353.249C199.394 356.478 192.831 358.212 186.143 358.298Z" fill="#27449B"/>
<path d="M185.055 323.123C184.868 323.123 184.684 323.077 184.519 322.989C184.354 322.901 184.212 322.773 184.108 322.618C182.273 319.925 178.512 304.625 175.883 289.203C174.966 284.001 174.201 278.738 173.59 273.597C172.283 264.334 171.97 254.958 172.657 245.629C172.667 245.474 172.708 245.323 172.778 245.185C172.847 245.046 172.944 244.924 173.063 244.824C173.181 244.724 173.318 244.649 173.466 244.604C173.614 244.558 173.77 244.544 173.924 244.56C174.078 244.577 174.227 244.624 174.362 244.7C174.497 244.776 174.615 244.878 174.71 245.001C174.804 245.123 174.873 245.264 174.912 245.414C174.95 245.564 174.958 245.72 174.935 245.873C174.269 255.03 174.582 264.232 175.868 273.322C176.464 278.417 177.228 283.634 178.13 288.805C181.035 305.865 184.734 319.405 185.988 321.318C186.104 321.49 186.172 321.691 186.183 321.899C186.194 322.107 186.149 322.314 186.051 322.498C185.954 322.682 185.808 322.836 185.63 322.943C185.452 323.051 185.248 323.107 185.04 323.108L185.055 323.123Z" fill="#27449B"/>
<path d="M161.881 299.607C161.675 299.608 161.473 299.552 161.295 299.447C161.117 299.342 160.971 299.191 160.872 299.01C160.872 298.873 153.229 284.904 147.251 278.646C147.104 278.418 147.041 278.146 147.076 277.877C147.11 277.607 147.238 277.359 147.438 277.176C147.638 276.992 147.896 276.886 148.167 276.875C148.438 276.864 148.704 276.949 148.918 277.116C155.033 283.588 162.585 297.388 162.89 297.97C162.986 298.145 163.034 298.342 163.031 298.541C163.027 298.741 162.972 298.936 162.87 299.107C162.768 299.279 162.623 299.42 162.45 299.519C162.277 299.617 162.081 299.669 161.881 299.668V299.607Z" fill="white"/>
<path d="M107.443 355.666C107.238 355.647 107.042 355.573 106.875 355.452C106.709 355.33 106.578 355.166 106.497 354.977C106.415 354.787 106.386 354.579 106.413 354.375C106.44 354.171 106.521 353.977 106.648 353.815L108.896 351.336C102.763 338.274 97.7466 324.716 93.8985 310.807C93.834 310.517 93.8843 310.213 94.0388 309.96C94.1933 309.706 94.44 309.522 94.727 309.447C95.014 309.372 95.319 309.411 95.5779 309.556C95.8368 309.701 96.0294 309.941 96.1152 310.225C99.9833 324.209 105.042 337.835 111.235 350.954C111.334 351.16 111.369 351.391 111.337 351.617C111.304 351.843 111.205 352.054 111.051 352.224L108.284 355.284C108.178 355.402 108.049 355.498 107.904 355.563C107.759 355.629 107.602 355.664 107.443 355.666Z" fill="white"/>
<path d="M80.6597 400.924C80.4725 400.923 80.2883 400.877 80.123 400.789C79.9578 400.701 79.8167 400.574 79.7118 400.419C74.7002 393.062 70.2099 385.362 66.2741 377.377C66.1484 377.099 66.1382 376.782 66.2457 376.497C66.3532 376.211 66.5697 375.98 66.8474 375.855C67.1251 375.729 67.4414 375.719 67.7267 375.826C68.0119 375.934 68.2428 376.15 68.3685 376.428C72.2475 384.291 76.6713 391.873 81.6075 399.118C81.7239 399.291 81.7914 399.492 81.8025 399.699C81.8136 399.907 81.7681 400.114 81.6707 400.298C81.5733 400.482 81.4278 400.636 81.2497 400.743C81.0716 400.851 80.8676 400.908 80.6597 400.908V400.924Z" fill="#27449B"/>
<path d="M168.669 230.466C167.613 230.458 166.592 230.085 165.779 229.411C164.965 228.736 164.41 227.801 164.205 226.764C162.677 221.103 163.15 217.737 165.734 216.773C166.412 216.49 167.147 216.375 167.879 216.436C168.61 216.497 169.317 216.734 169.938 217.125C171.88 218.333 173.194 221.072 173.577 224.622C173.742 225.923 173.41 227.239 172.648 228.305C171.885 229.372 170.748 230.111 169.464 230.375C169.202 230.428 168.936 230.459 168.669 230.466ZM166.59 218.93C165.337 219.389 165.26 222.082 166.407 226.152C166.835 227.682 167.844 228.401 169.097 228.141C169.82 227.992 170.459 227.571 170.88 226.964C171.301 226.358 171.473 225.612 171.36 224.882C171.069 222.113 170.076 219.894 168.792 219.083C168.464 218.882 168.093 218.763 167.71 218.736C167.326 218.71 166.942 218.776 166.59 218.93Z" fill="#27449B"/>
<path d="M71.4876 263.009C71.241 263.007 71.0017 262.925 70.8052 262.776C70.6087 262.627 70.4656 262.418 70.3969 262.181C70.3282 261.944 70.3378 261.691 70.4241 261.46C70.5104 261.229 70.6689 261.032 70.8761 260.898C76.9643 257.285 83.2987 254.105 89.8326 251.381C89.4351 246.791 87.4325 224.01 85.6132 213.728C85.5605 213.428 85.6292 213.119 85.8041 212.869C85.9789 212.62 86.2458 212.45 86.5458 212.397C86.8458 212.344 87.1545 212.413 87.4039 212.588C87.6533 212.763 87.8231 213.03 87.8758 213.33C89.9243 224.866 92.1716 251.764 92.2021 252.024C92.224 252.267 92.1676 252.512 92.0411 252.721C91.9146 252.93 91.7246 253.093 91.4989 253.187C84.8494 255.947 78.4026 259.174 72.2061 262.841C71.9921 262.976 71.7392 263.035 71.4876 263.009Z" fill="#27449B"/>
<path d="M123.127 209.062C122.857 209.058 122.597 208.958 122.393 208.781C122.189 208.604 122.054 208.36 122.012 208.093C121.97 207.826 122.024 207.552 122.163 207.321C122.303 207.09 122.52 206.915 122.776 206.828C124.979 205.656 126.891 204.004 128.371 201.993C126.786 197.913 125.614 193.684 124.87 189.371C124.833 189.22 124.827 189.063 124.852 188.91C124.877 188.757 124.933 188.61 125.016 188.479C125.099 188.348 125.208 188.236 125.336 188.148C125.465 188.061 125.609 188 125.761 187.97C125.913 187.94 126.07 187.941 126.222 187.973C126.374 188.006 126.517 188.068 126.644 188.158C126.771 188.247 126.878 188.362 126.959 188.494C127.041 188.626 127.094 188.773 127.117 188.927C127.826 193.114 128.969 197.216 130.526 201.167C130.635 201.407 130.692 201.668 130.692 201.932C130.692 202.196 130.635 202.457 130.526 202.697C128.793 205.373 126.354 207.517 123.479 208.893C123.372 208.969 123.253 209.026 123.127 209.062Z" fill="#27449B"/>
<path d="M106.509 184.398H106.249C105.953 184.329 105.697 184.145 105.536 183.887C105.376 183.629 105.324 183.317 105.393 183.021C105.945 180.865 107.021 178.879 108.525 177.24C110.029 175.601 111.915 174.36 114.015 173.627C114.307 173.583 114.604 173.654 114.845 173.824C115.085 173.994 115.252 174.25 115.309 174.54C115.366 174.829 115.309 175.129 115.151 175.378C114.993 175.627 114.745 175.805 114.458 175.876C112.791 176.514 111.3 177.541 110.109 178.871C108.918 180.202 108.061 181.798 107.61 183.526C107.549 183.773 107.408 183.992 107.208 184.15C107.009 184.308 106.763 184.395 106.509 184.398Z" fill="#27449B"/>
<path d="M135.099 178.89C134.847 178.888 134.602 178.803 134.403 178.648C134.204 178.493 134.062 178.277 133.998 178.033C133.402 175.753 129.931 174.361 126.599 174.973C126.451 175.003 126.299 175.004 126.151 174.975C126.003 174.947 125.863 174.889 125.737 174.806C125.611 174.723 125.503 174.616 125.419 174.491C125.335 174.366 125.276 174.226 125.246 174.078C125.216 173.93 125.215 173.778 125.244 173.63C125.272 173.482 125.33 173.341 125.413 173.216C125.496 173.09 125.603 172.982 125.728 172.898C125.852 172.813 125.993 172.754 126.14 172.724C130.726 171.776 135.313 173.856 136.23 177.314C136.269 177.46 136.279 177.612 136.26 177.761C136.24 177.911 136.192 178.055 136.116 178.186C136.041 178.317 135.941 178.431 135.821 178.523C135.702 178.615 135.565 178.683 135.42 178.722L135.099 178.89Z" fill="#27449B"/>
<path d="M118.222 218.869C115.58 218.754 113.038 217.824 110.945 216.207C110.696 216.032 110.526 215.766 110.473 215.466C110.42 215.166 110.488 214.857 110.662 214.608C110.836 214.358 111.103 214.188 111.402 214.135C111.702 214.082 112.01 214.15 112.26 214.325C116.143 217.048 119.307 217.308 122.518 215.166C122.643 215.083 122.784 215.025 122.931 214.996C123.079 214.967 123.231 214.968 123.379 214.997C123.527 215.027 123.667 215.086 123.792 215.17C123.917 215.254 124.024 215.362 124.107 215.488C124.191 215.613 124.249 215.754 124.278 215.902C124.306 216.05 124.306 216.202 124.276 216.35C124.246 216.498 124.188 216.638 124.104 216.763C124.02 216.888 123.912 216.995 123.786 217.079C122.155 218.224 120.215 218.848 118.222 218.869Z" fill="#27449B"/>
<path d="M120.176 248.75C119.967 248.752 119.762 248.696 119.584 248.588C119.405 248.48 119.261 248.324 119.167 248.138C118.769 247.357 116.43 239.065 117.638 233.282C117.699 232.983 117.875 232.721 118.129 232.554C118.383 232.386 118.693 232.326 118.991 232.386C119.289 232.447 119.55 232.624 119.718 232.878C119.886 233.132 119.946 233.442 119.885 233.74C118.876 238.636 120.864 246.241 121.246 247.113C121.329 247.289 121.366 247.484 121.353 247.678C121.34 247.873 121.278 248.061 121.172 248.224C121.067 248.388 120.921 248.522 120.75 248.614C120.578 248.706 120.386 248.753 120.191 248.75H120.176Z" fill="#27449B"/>
<path d="M86.1332 211.387C81.3941 211.387 77.5875 208.159 76.1963 202.957C75.8041 201.7 75.7188 200.368 75.9476 199.071C76.1764 197.775 76.7125 196.552 77.5111 195.506C78.2986 194.596 79.2928 193.89 80.4102 193.445C81.5276 193 82.7353 192.831 83.9318 192.951C85.336 193.062 86.7059 193.441 87.9677 194.068C88.2269 194.208 88.4222 194.443 88.513 194.723C88.6038 195.004 88.5831 195.309 88.4552 195.575C88.3274 195.841 88.1022 196.047 87.8264 196.151C87.5505 196.255 87.2453 196.248 86.974 196.133C85.9762 195.631 84.8917 195.325 83.7789 195.23C82.9458 195.132 82.1012 195.238 81.3182 195.539C80.5351 195.84 79.8371 196.328 79.2844 196.959C78.7147 197.723 78.3379 198.612 78.1862 199.553C78.0344 200.493 78.1123 201.456 78.413 202.36C79.529 206.568 82.4184 209.077 86.0568 209.077C87.1007 209.064 88.1347 208.872 89.1143 208.511C89.3977 208.417 89.7065 208.438 89.9749 208.569C90.2433 208.699 90.4503 208.929 90.5518 209.21C90.6533 209.491 90.6414 209.801 90.5186 210.073C90.3957 210.345 90.1716 210.559 89.8939 210.668C88.6893 211.116 87.4181 211.359 86.1332 211.387Z" fill="#27449B"/>
<path d="M120.682 233.97C118.583 233.956 116.497 233.636 114.49 233.021C111.95 232.247 109.535 231.108 107.321 229.64C107.065 229.474 106.886 229.213 106.823 228.914C106.76 228.616 106.818 228.305 106.984 228.049C107.151 227.793 107.411 227.614 107.71 227.551C108.008 227.488 108.319 227.546 108.574 227.712C110.606 229.045 112.82 230.076 115.148 230.772C117.956 231.751 120.981 231.924 123.883 231.273C126.784 230.621 129.446 229.171 131.567 227.085C131.963 226.699 132.312 226.268 132.606 225.8C139.073 215.901 137.544 181.277 131.658 166.13C129.323 160.182 124.935 155.27 119.291 152.283C113.084 179.93 84.6798 194.924 84.374 195.123C84.1063 195.247 83.8014 195.262 83.5226 195.166C83.2438 195.071 83.0126 194.871 82.8769 194.609C82.7411 194.348 82.7114 194.043 82.7937 193.76C82.8761 193.477 83.0643 193.236 83.3192 193.088C83.6097 192.935 112.014 177.926 117.334 150.463C117.366 150.299 117.433 150.145 117.531 150.01C117.629 149.875 117.754 149.764 117.9 149.682C118.05 149.611 118.215 149.575 118.381 149.575C118.548 149.575 118.712 149.611 118.863 149.682C122.264 151.192 125.334 153.36 127.895 156.062C130.456 158.764 132.457 161.947 133.783 165.426C139.409 179.9 141.886 215.916 134.517 227.146C134.128 227.765 133.666 228.335 133.141 228.845C131.507 230.482 129.564 231.779 127.425 232.658C125.287 233.538 122.994 233.984 120.682 233.97Z" fill="#27449B"/>
<path d="M338.162 196.451C343.498 196.615 348.741 195.028 353.091 191.931C357.441 188.834 360.659 184.398 362.255 179.3C362.255 179.3 367.82 183.064 367.514 186.95C366.688 197.094 353.541 208.37 341.999 206.457C339.721 206.106 336.878 199.924 338.162 196.451Z" fill="#39B715"/>
<path d="M344.566 207.804C343.645 207.806 342.725 207.734 341.815 207.59C341.088 207.36 340.416 206.981 339.842 206.478C339.269 205.975 338.806 205.359 338.482 204.667C337.091 202.281 336.112 198.7 337.091 196.069C337.172 195.85 337.318 195.661 337.509 195.527C337.7 195.393 337.928 195.32 338.161 195.319C343.236 195.471 348.223 193.96 352.362 191.016C356.501 188.072 359.566 183.856 361.092 179.009C361.149 178.842 361.243 178.691 361.368 178.566C361.492 178.441 361.644 178.347 361.811 178.29C361.978 178.235 362.156 178.219 362.331 178.243C362.506 178.266 362.673 178.33 362.82 178.428C363.447 178.856 368.935 182.697 368.583 187.057C368.155 192.305 364.685 197.966 359.304 202.204C355.143 205.647 349.962 207.616 344.566 207.804ZM339.017 197.66C338.861 199.727 339.353 201.791 340.424 203.566C341.218 204.912 341.952 205.341 342.151 205.387C347.165 206.182 352.852 204.392 357.943 200.445C363.034 196.497 365.984 191.479 366.351 186.919C366.519 184.9 364.379 182.635 362.774 181.274C360.938 186.092 357.683 190.238 353.441 193.164C349.199 196.09 344.169 197.658 339.017 197.66Z" fill="#39B715"/>
<path d="M2.96917 434.431H2.694C2.21652 434.357 1.76699 434.158 1.39108 433.855C1.01516 433.551 0.726274 433.153 0.553761 432.702C-1.05143 428.617 5.49161 416.698 19.9842 397.252C20.8861 396.043 20.2135 390.045 19.5714 384.247C18.7009 377.544 18.2363 370.794 18.1802 364.035C18.1802 360.761 18.1802 356.171 17.9815 350.877C17.4006 326.397 17.3088 303.967 22.4454 298.704C29.3707 291.59 42.2122 291.437 42.7472 291.437C43.0513 291.437 43.343 291.558 43.558 291.773C43.773 291.988 43.8938 292.28 43.8938 292.584C43.8938 292.889 43.773 293.18 43.558 293.396C43.343 293.611 43.0513 293.732 42.7472 293.732C42.6249 293.732 30.3185 293.885 24.0659 300.295C19.1892 305.299 19.8466 333.802 20.2593 350.785C20.3816 356.11 20.4886 360.7 20.4581 364.02C20.5227 370.672 20.9872 377.314 21.8492 383.91C22.7818 392.264 23.2098 396.716 21.8492 398.552C2.28124 424.776 2.25066 430.682 2.70928 431.784C2.73783 431.871 2.79291 431.948 2.86688 432.003C2.94084 432.057 3.03002 432.088 3.12205 432.09C5.73621 432.09 24.9832 418.978 36.4794 411.159C45.6519 404.932 51.3083 401.092 52.9135 400.449C57.8207 398.399 98.7759 398.277 114.277 398.552H114.874C118.879 398.552 124.856 398.644 131.812 398.644H151.686C161.394 398.644 171.667 398.644 181.283 398.644C195.164 398.644 204.703 398.766 211.292 398.98C213.646 398.98 216.107 399.164 218.615 399.286C235.553 400.067 254.754 400.954 257.353 390.841C260.411 379.014 258.607 340.351 257.353 324.485C256.314 311.587 254.907 293.885 234.422 293.808C218.676 293.716 215.649 293.808 215.618 293.808C215.314 293.808 215.023 293.687 214.808 293.472C214.593 293.257 214.472 292.965 214.472 292.661C214.472 292.356 214.593 292.065 214.808 291.849C215.023 291.634 215.314 291.513 215.618 291.513C215.741 291.513 218.676 291.421 234.514 291.513C257.063 291.636 258.698 312.092 259.677 324.301C260.548 335.011 263.101 377.974 259.677 391.422C256.619 403.341 236.425 402.408 218.615 401.597C216.107 401.474 213.662 401.367 211.323 401.291C204.749 401.077 195.24 400.969 181.374 400.954C171.758 400.954 161.501 400.954 151.793 400.954C143.706 400.954 136.016 400.954 129.382 400.954C123.511 400.954 118.512 400.954 114.904 400.862H114.293C92.5539 400.449 57.622 401 53.8307 402.576C52.3019 403.188 45.285 408.007 37.7941 413.102C16.2846 427.714 5.91965 434.431 2.96917 434.431Z" fill="#27449B"/>
</g>
<defs>
<clipPath id="clip0_418_7212">
<rect width="626" height="432" fill="white"/>
</clipPath>
</defs>
</svg>
