<svg width="56" height="56" viewBox="0 0 56 56" fill="none" xmlns="http://www.w3.org/2000/svg">
<path d="M32.999 50.75V51H33.249H43.749C44.1469 51 44.5284 51.158 44.8097 51.4393C45.091 51.7206 45.249 52.1022 45.249 52.5C45.249 52.8978 45.091 53.2794 44.8097 53.5607C44.5284 53.842 44.1469 54 43.749 54H12.249C11.8512 54 11.4697 53.842 11.1884 53.5607C10.9071 53.2794 10.749 52.8978 10.749 52.5C10.749 52.1022 10.9071 51.7206 11.1884 51.4393C11.4697 51.158 11.8512 51 12.249 51H22.749H22.999V50.75V42V41.75H22.749H8.04946C7.79848 41.7496 7.55161 41.6862 7.33148 41.5656C7.11135 41.4451 6.92498 41.2712 6.78946 41.06L6.78865 41.0588L2.23946 34.06C2.23934 34.0598 2.23922 34.0596 2.2391 34.0594C2.08426 33.8179 2.00195 33.5369 2.00195 33.25C2.00195 32.963 2.08426 32.6821 2.2391 32.4406C2.23922 32.4404 2.23934 32.4402 2.23946 32.44L6.78865 25.4412L6.78865 25.4412L6.78946 25.44C6.92498 25.2288 7.11135 25.0549 7.33148 24.9344C7.55154 24.8138 7.7983 24.7505 8.04918 24.75C8.04927 24.75 8.04936 24.75 8.04946 24.75L22.749 24.75H22.999V24.5V21C22.999 20.6022 23.1571 20.2206 23.4384 19.9393C23.7197 19.658 24.1012 19.5 24.499 19.5C24.8969 19.5 25.2784 19.658 25.5597 19.9393C25.841 20.2206 25.999 20.6022 25.999 21V24.5V24.75H26.249H29.749H29.999V24.5V21C29.999 20.6022 30.1571 20.2206 30.4384 19.9393C30.7197 19.658 31.1012 19.5 31.499 19.5C31.8969 19.5 32.2784 19.658 32.5597 19.9393C32.841 20.2206 32.999 20.6022 32.999 21V24.5V24.75H33.249H41.999C42.3969 24.75 42.7784 24.908 43.0597 25.1893C43.341 25.4706 43.499 25.8522 43.499 26.25V40.25C43.499 40.6478 43.341 41.0294 43.0597 41.3107C42.7784 41.592 42.3969 41.75 41.999 41.75H33.249H32.999V42V50.75ZM5.37193 33.1138L5.28337 33.25L5.37193 33.3862L8.78443 38.6362L8.85837 38.75H8.99404H40.249H40.499V38.5V28V27.75H40.249H8.99404H8.85837L8.78443 27.8638L5.37193 33.1138ZM26.249 41.75H25.999V42V50.75V51H26.249H29.749H29.999V50.75V42V41.75H29.749H26.249Z" fill="#27449B" stroke="white" stroke-width="0.5"/>
<path d="M14 31.75H28C28.3978 31.75 28.7794 31.908 29.0607 32.1893C29.342 32.4706 29.5 32.8522 29.5 33.25C29.5 33.6478 29.342 34.0294 29.0607 34.3107C28.7794 34.592 28.3978 34.75 28 34.75H14C13.6022 34.75 13.2206 34.592 12.9393 34.3107C12.658 34.0294 12.5 33.6478 12.5 33.25C12.5 32.8522 12.658 32.4706 12.9393 32.1893C13.2206 31.908 13.6022 31.75 14 31.75Z" fill="#27449B" stroke="white" stroke-width="0.5"/>
<path d="M34.125 31.75H35C35.3978 31.75 35.7794 31.908 36.0607 32.1893C36.342 32.4706 36.5 32.8522 36.5 33.25C36.5 33.6478 36.342 34.0294 36.0607 34.3107C35.7794 34.592 35.3978 34.75 35 34.75H34.125C33.7272 34.75 33.3456 34.592 33.0643 34.3107C32.783 34.0294 32.625 33.6478 32.625 33.25C32.625 32.8522 32.783 32.4706 33.0643 32.1893C33.3456 31.908 33.7272 31.75 34.125 31.75Z" fill="#27449B" stroke="white" stroke-width="0.5"/>
<path d="M53.83 7.6125L49.28 2.3625C49.1157 2.17041 48.9117 2.01619 48.6821 1.91046C48.4525 1.80473 48.2028 1.74998 47.95 1.75H14C13.5359 1.75 13.0908 1.93437 12.7626 2.26256C12.4344 2.59075 12.25 3.03587 12.25 3.5V14C12.25 14.4641 12.4344 14.9092 12.7626 15.2374C13.0908 15.5656 13.5359 15.75 14 15.75H47.95C48.2028 15.75 48.4525 15.6953 48.6821 15.5895C48.9117 15.4838 49.1157 15.3296 49.28 15.1375L53.83 9.8875C54.1011 9.57052 54.2501 9.16712 54.2501 8.75C54.2501 8.33288 54.1011 7.92948 53.83 7.6125ZM21.875 10.5H21C20.5359 10.5 20.0908 10.3156 19.7626 9.98744C19.4344 9.65925 19.25 9.21413 19.25 8.75C19.25 8.28587 19.4344 7.84075 19.7626 7.51256C20.0908 7.18437 20.5359 7 21 7H21.875C22.3391 7 22.7842 7.18437 23.1124 7.51256C23.4406 7.84075 23.625 8.28587 23.625 8.75C23.625 9.21413 23.4406 9.65925 23.1124 9.98744C22.7842 10.3156 22.3391 10.5 21.875 10.5ZM42 10.5H28C27.5359 10.5 27.0908 10.3156 26.7626 9.98744C26.4344 9.65925 26.25 9.21413 26.25 8.75C26.25 8.28587 26.4344 7.84075 26.7626 7.51256C27.0908 7.18437 27.5359 7 28 7H42C42.4641 7 42.9093 7.18437 43.2374 7.51256C43.5656 7.84075 43.75 8.28587 43.75 8.75C43.75 9.21413 43.5656 9.65925 43.2374 9.98744C42.9093 10.3156 42.4641 10.5 42 10.5Z" fill="#39B715"/>
</svg>
