<svg width="622" height="430" viewBox="0 0 622 430" fill="none" xmlns="http://www.w3.org/2000/svg">
<g clip-path="url(#clip0_418_6461)">
<path d="M450.735 385.346C450.956 385.348 451.171 385.275 451.345 385.139L458.15 379.758C458.237 379.688 458.311 379.605 458.37 379.511C458.37 379.511 460.068 376.801 461.922 373.404C461.983 373.291 462.022 373.168 462.035 373.041C462.049 372.914 462.038 372.785 462.001 372.662C461.965 372.539 461.905 372.425 461.825 372.325C461.745 372.225 461.646 372.143 461.533 372.081C461.421 372.02 461.298 371.981 461.17 371.968C461.043 371.954 460.914 371.966 460.792 372.002C460.669 372.038 460.554 372.098 460.455 372.178C460.355 372.259 460.272 372.358 460.211 372.47C458.617 375.375 457.165 377.748 456.802 378.331L451.98 382.143L452.758 375.556C453.341 374.532 456.361 369.267 457.139 368.113C457.282 367.899 457.333 367.636 457.282 367.383C457.231 367.13 457.082 366.908 456.867 366.765C456.652 366.622 456.389 366.571 456.136 366.622C455.883 366.673 455.661 366.822 455.519 367.037C454.624 368.334 451.124 374.506 450.969 374.817C450.907 374.93 450.867 375.053 450.852 375.18L449.763 384.257C449.747 384.393 449.759 384.531 449.8 384.662C449.84 384.793 449.908 384.914 449.999 385.017C450.089 385.119 450.201 385.202 450.325 385.259C450.45 385.316 450.585 385.345 450.722 385.346H450.735Z" fill="#39B715"/>
<path d="M486.161 319.32C486.366 319.319 486.565 319.253 486.731 319.132C486.896 319.011 487.019 318.841 487.081 318.646C490.634 308.435 495.198 298.605 500.705 289.302C500.779 289.192 500.83 289.068 500.854 288.938C500.879 288.807 500.876 288.673 500.847 288.544C500.818 288.414 500.762 288.292 500.684 288.185C500.606 288.078 500.507 287.988 500.392 287.921C500.278 287.853 500.151 287.81 500.02 287.793C499.888 287.777 499.754 287.788 499.627 287.825C499.5 287.862 499.381 287.925 499.279 288.009C499.177 288.094 499.093 288.198 499.033 288.317C493.456 297.743 488.836 307.703 485.241 318.049C485.164 318.295 485.187 318.562 485.306 318.79C485.425 319.019 485.63 319.191 485.876 319.268C485.968 319.3 486.064 319.317 486.161 319.32Z" fill="#27449B"/>
<path d="M467.146 349.61C467.312 349.61 467.476 349.567 467.621 349.485C467.767 349.403 467.889 349.286 467.975 349.143C468.053 349.013 475.895 336.06 481.236 327.385L481.91 326.296C482.584 325.194 483.206 324.182 483.777 323.288C485.643 320.266 486.019 319.774 486.084 319.683C486.315 319.511 486.582 319.394 486.865 319.34C487.148 319.286 487.439 319.297 487.717 319.372C488.115 319.415 488.496 319.556 488.826 319.782C489.157 320.008 489.426 320.313 489.61 320.668C489.61 320.759 489.61 321.602 487.562 325.142C486.9 326.309 486.045 327.735 484.969 329.421C483.893 331.106 482.467 333.311 481.08 335.424C479.304 338.147 477.399 341.052 475.558 343.982C475.421 344.201 475.376 344.465 475.433 344.717C475.49 344.968 475.645 345.187 475.863 345.324C476.081 345.462 476.345 345.507 476.597 345.45C476.848 345.393 477.067 345.238 477.205 345.02C479.045 342.102 480.938 339.198 482.714 336.488C484.114 334.348 485.436 332.312 486.602 330.471C487.769 328.63 488.586 327.294 489.195 326.114C491.45 322.224 491.697 320.837 491.373 319.968C491.071 319.29 490.6 318.702 490.006 318.259C489.411 317.816 488.712 317.534 487.976 317.44C487.366 317.295 486.73 317.308 486.126 317.478C485.523 317.648 484.973 317.97 484.528 318.412C483.641 319.643 482.819 320.92 482.065 322.237C481.495 323.119 480.873 324.143 480.186 325.259L479.512 326.348C474.158 335.035 466.329 348.002 466.251 348.132C466.162 348.279 466.113 348.448 466.11 348.62C466.107 348.793 466.149 348.963 466.234 349.114C466.318 349.264 466.441 349.389 466.59 349.477C466.739 349.564 466.908 349.61 467.081 349.61H467.146Z" fill="#39B715"/>
<path d="M513.382 183.403C517.439 187.073 514.963 187.293 515.054 191.883C515.054 194.217 520.343 197.07 525.424 199.313C526.28 195.423 527.278 191.235 528.354 186.58C532.592 168.232 536.131 166.261 538.14 168.323C540.798 171.124 542.185 169.931 545.918 169.27C549.651 168.608 548.834 175.001 552.399 173.315C555.964 171.63 559.075 171.617 559.917 175.753C560.76 179.889 566.217 177.166 565.66 180.369C565.102 183.572 565.18 186.386 566.878 187.63C567.451 188.001 567.931 188.5 568.281 189.086C568.631 189.673 568.841 190.332 568.895 191.013C568.949 191.694 568.845 192.378 568.592 193.013C568.339 193.647 567.943 194.215 567.435 194.671C564.713 197.68 566.139 197.861 566.217 201.064C566.154 203.666 565.807 206.253 565.18 208.779C566.836 207.592 568.768 206.851 570.793 206.627C573.534 206.258 576.325 206.621 578.881 207.677C583.016 209.44 585.79 213.136 583.898 218.465C583.703 219.021 583.469 219.563 583.198 220.086C589.122 224.819 593.957 227.295 597.042 223.444C601.229 218.258 599.323 214.951 604.819 213.175C610.315 211.398 612.506 206.121 611.91 195.942C611.651 191.637 619 191.767 615.578 184.531C612.156 177.296 610.004 175.545 612.039 170.852C614.075 166.158 611.015 163.37 610.004 160.712C608.993 158.053 612.039 152.932 606.841 149.69C601.644 146.448 596.575 149.936 591.286 143.479C585.998 137.021 581.474 141.067 576.691 140.886C571.908 140.704 571.143 137.981 566.839 134.402C562.536 130.823 559.36 133.261 555.562 134.402C551.764 135.543 548.977 131.99 544.414 133.52C539.851 135.051 541.822 136.684 536.429 136.308C531.037 135.932 530.596 142.26 528.068 143.647C525.541 145.035 517.05 144.413 517.05 150.753C517.05 157.094 515.404 158.987 512.617 161.528C509.83 164.07 512.863 167.221 512.617 171.902C512.371 176.583 509.376 179.747 513.382 183.403Z" fill="#27449B"/>
<path d="M535.341 165.289C558.673 157.509 577.456 170.307 570.91 206.627C573.651 206.258 576.441 206.621 578.998 207.677C590.444 166.936 554.369 146.708 535.341 165.289Z" fill="#39B715"/>
<path d="M441.921 277.256C442.079 277.255 442.235 277.215 442.374 277.139C442.599 277.02 442.769 276.818 442.846 276.576C442.924 276.333 442.903 276.07 442.789 275.843C430.241 251.919 422.049 215.924 427.325 208.273C428.313 207.032 429.396 205.87 430.565 204.798C434.143 201.297 438.589 196.94 437.371 192.921C437.037 192.054 436.515 191.271 435.842 190.63C435.17 189.989 434.364 189.505 433.482 189.212C428.699 187.164 420.519 187.514 415.684 189.964C415.454 190.081 415.28 190.285 415.199 190.531C415.119 190.776 415.14 191.044 415.257 191.274C415.374 191.504 415.577 191.679 415.823 191.759C416.068 191.84 416.336 191.819 416.566 191.702C420.986 189.472 428.388 189.109 432.717 191.002C433.324 191.203 433.883 191.529 434.359 191.957C434.834 192.386 435.215 192.908 435.478 193.491C436.36 196.383 432.199 200.454 429.165 203.424C427.901 204.574 426.735 205.827 425.679 207.171C419.936 215.431 427.96 251.854 441.013 276.763C441.103 276.922 441.236 277.053 441.396 277.14C441.557 277.227 441.738 277.267 441.921 277.256Z" fill="#27449B"/>
<path d="M412.003 203.981C412.182 203.982 412.358 203.933 412.512 203.84C412.665 203.746 412.79 203.612 412.871 203.453C412.953 203.293 412.989 203.113 412.976 202.934C412.962 202.755 412.899 202.584 412.794 202.438C412.794 202.361 406.96 194.36 405.185 187.488C404.212 183.702 404.744 182.457 405.185 182.055C405.625 181.653 406.844 181.536 408.568 182.055C408.691 182.089 408.82 182.098 408.947 182.082C409.074 182.067 409.197 182.026 409.308 181.963C409.42 181.9 409.517 181.815 409.596 181.714C409.675 181.613 409.733 181.497 409.767 181.374C409.801 181.251 409.81 181.122 409.795 180.995C409.779 180.867 409.738 180.745 409.675 180.633C409.612 180.522 409.527 180.424 409.426 180.345C409.325 180.267 409.21 180.209 409.086 180.175C407.505 179.734 405.198 179.319 403.824 180.706C402.45 182.094 402.372 184.298 403.331 188.006C405.198 195.255 411.005 203.281 411.251 203.566C411.336 203.689 411.448 203.789 411.579 203.861C411.709 203.933 411.854 203.974 412.003 203.981Z" fill="#27449B"/>
<path d="M404.356 208.753C404.551 208.753 404.742 208.694 404.904 208.584C405.065 208.474 405.19 208.318 405.261 208.136C405.332 207.954 405.347 207.755 405.304 207.564C405.26 207.373 405.16 207.2 405.017 207.067C403.131 205.188 401.642 202.95 400.638 200.484C399.633 198.018 399.135 195.376 399.171 192.713C399.171 189.381 400.091 187.449 400.817 186.788C400.912 186.702 400.99 186.599 401.046 186.484C401.101 186.369 401.133 186.244 401.141 186.116C401.148 185.989 401.13 185.861 401.088 185.74C401.045 185.62 400.98 185.508 400.895 185.413C400.81 185.318 400.707 185.24 400.592 185.185C400.476 185.129 400.352 185.097 400.224 185.09C400.096 185.082 399.969 185.1 399.848 185.142C399.727 185.185 399.616 185.25 399.521 185.335C398.121 186.632 397.252 189.329 397.213 192.687C397.15 195.634 397.693 198.562 398.808 201.29C399.923 204.018 401.586 206.487 403.695 208.546C403.882 208.694 404.117 208.768 404.356 208.753Z" fill="#27449B"/>
<path d="M398.198 212.773C398.374 212.772 398.547 212.724 398.698 212.633C398.849 212.542 398.972 212.411 399.055 212.256C399.137 212.1 399.176 211.924 399.167 211.748C399.157 211.572 399.1 211.402 399.001 211.256C399.001 211.178 394.192 203.955 393.622 198.963C393.363 196.655 393.622 195.164 394.335 194.412C395.048 193.66 396.188 193.53 398.094 193.725C398.221 193.739 398.35 193.728 398.472 193.692C398.595 193.656 398.709 193.595 398.808 193.514C398.907 193.433 398.989 193.333 399.049 193.22C399.109 193.107 399.146 192.983 399.157 192.856C399.182 192.6 399.105 192.344 398.942 192.145C398.779 191.946 398.544 191.819 398.288 191.793C395.696 191.533 394.05 191.935 392.948 193.089C391.846 194.243 391.353 196.24 391.652 199.223C392.274 204.682 397.135 212.06 397.342 212.371C397.439 212.505 397.568 212.612 397.718 212.683C397.867 212.753 398.033 212.784 398.198 212.773Z" fill="#27449B"/>
<path d="M421.634 190.12H421.751C421.878 190.104 422 190.063 422.111 190C422.223 189.936 422.32 189.851 422.398 189.75C422.477 189.649 422.534 189.533 422.568 189.41C422.601 189.287 422.61 189.158 422.594 189.031C421.66 181.536 415.581 165.924 410.085 159.078C409.923 158.877 409.688 158.748 409.432 158.72C409.175 158.692 408.918 158.767 408.717 158.929C408.516 159.09 408.387 159.325 408.359 159.582C408.332 159.838 408.407 160.096 408.568 160.297C413.753 166.78 419.768 182.081 420.662 189.264C420.691 189.501 420.806 189.72 420.985 189.878C421.164 190.035 421.396 190.122 421.634 190.12Z" fill="#27449B"/>
<path d="M458.785 324.831C465.629 324.749 472.44 323.879 479.084 322.237C479.327 322.172 479.536 322.014 479.665 321.798C479.794 321.581 479.835 321.323 479.777 321.078C479.72 320.833 479.57 320.619 479.359 320.482C479.147 320.345 478.891 320.296 478.644 320.344C468.131 322.821 436.14 330.342 419.327 300.894C402.061 270.669 399.637 247.096 401.283 216.611C401.297 216.353 401.208 216.1 401.035 215.908C400.863 215.716 400.621 215.6 400.363 215.587C400.105 215.573 399.852 215.662 399.66 215.835C399.468 216.007 399.353 216.249 399.339 216.507C397.667 247.368 400.13 271.226 417.642 301.88C426.353 317.193 440.158 324.818 458.785 324.831Z" fill="#27449B"/>
<path d="M462.051 321.615C462.297 321.615 462.533 321.522 462.713 321.356C475.571 309.465 470.697 287.72 463.75 279.862C456.218 271.33 443.878 277.515 443.761 277.58C443.638 277.644 443.529 277.733 443.443 277.842C443.356 277.952 443.294 278.078 443.261 278.213C443.228 278.349 443.224 278.489 443.25 278.626C443.276 278.763 443.331 278.893 443.411 279.006C445.968 282.654 447.746 286.791 448.634 291.157C449.522 295.523 449.5 300.025 448.57 304.382C447.171 311.242 443.658 316.96 439.173 319.67C438.963 319.809 438.815 320.024 438.761 320.269C438.706 320.515 438.748 320.772 438.879 320.987C439.01 321.202 439.219 321.357 439.462 321.421C439.706 321.485 439.964 321.452 440.184 321.33C445.187 318.295 448.933 312.253 450.476 304.771C452.388 295.838 450.677 286.51 445.719 278.838C448.609 277.671 456.983 275.052 462.337 281.12C468.818 288.485 473.433 308.804 461.429 319.903C461.286 320.036 461.186 320.209 461.142 320.4C461.099 320.59 461.114 320.79 461.185 320.972C461.257 321.154 461.381 321.31 461.543 321.42C461.704 321.53 461.895 321.589 462.09 321.589L462.051 321.615Z" fill="#27449B"/>
<path d="M464.126 274.235C464.22 274.249 464.317 274.249 464.411 274.235C487.407 267.337 499.526 261.268 506.76 257.573L508.458 256.717C514.394 253.747 522.185 253.255 532.309 255.213C532.556 255.249 532.808 255.19 533.012 255.046C533.216 254.901 533.357 254.684 533.405 254.439C533.454 254.194 533.406 253.939 533.272 253.728C533.137 253.518 532.927 253.366 532.685 253.307C522.133 251.258 513.928 251.815 507.602 254.979L505.904 255.835C498.723 259.453 486.707 265.521 463.867 272.381C463.642 272.446 463.448 272.591 463.322 272.787C463.195 272.984 463.143 273.22 463.176 273.452C463.21 273.683 463.325 273.895 463.502 274.049C463.679 274.202 463.905 274.287 464.139 274.287L464.126 274.235Z" fill="#27449B"/>
<path d="M611.21 368.904C611.431 368.904 611.646 368.827 611.818 368.688C611.99 368.549 612.109 368.356 612.157 368.139C615.63 352.32 618.638 334.75 614.36 309.284C609.953 283.156 593.478 266.403 564.053 258.182H563.923C562.782 257.862 561.624 257.555 560.449 257.261C560.274 257.218 560.091 257.224 559.919 257.279C559.747 257.334 559.594 257.436 559.477 257.573C559.399 257.663 551.959 266.066 537.687 271.226C537.531 271.283 537.392 271.378 537.283 271.504C537.175 271.629 537.1 271.78 537.066 271.943C537.032 272.105 537.041 272.274 537.09 272.432C537.14 272.59 537.229 272.733 537.35 272.847C537.441 272.938 546.54 281.6 548.238 290.806C548.273 290.99 548.36 291.16 548.49 291.296C548.619 291.432 548.784 291.527 548.966 291.571C549.148 291.615 549.339 291.605 549.516 291.543C549.693 291.481 549.848 291.369 549.962 291.221C550.455 290.586 561.81 275.765 564.519 260.36C592.531 268.465 608.229 284.621 612.481 309.634C616.732 334.646 613.777 352.125 610.29 367.75C610.236 368.001 610.283 368.263 610.422 368.48C610.56 368.696 610.778 368.849 611.029 368.904H611.21ZM562.64 259.79C560.579 271.862 552.71 283.947 549.677 288.317C547.616 281.211 542.146 274.948 539.8 272.497C547.578 269.62 554.649 265.11 560.54 259.271L562.64 259.79Z" fill="#27449B"/>
<path d="M583.973 427.485C584.228 427.485 584.474 427.384 584.656 427.204C584.838 427.025 584.942 426.781 584.945 426.525C585.252 420.346 585.944 414.192 587.019 408.099C587.052 407.849 586.986 407.595 586.835 407.392C586.684 407.189 586.46 407.053 586.211 407.013C585.961 406.972 585.706 407.03 585.498 407.175C585.291 407.32 585.148 407.54 585.101 407.788C584.003 413.97 583.301 420.215 583.001 426.486C582.997 426.742 583.094 426.989 583.272 427.173C583.449 427.358 583.691 427.465 583.947 427.472L583.973 427.485Z" fill="#27449B"/>
<path d="M504.853 417.854C505.074 417.853 505.288 417.777 505.46 417.637C505.632 417.498 505.752 417.305 505.799 417.089C505.89 416.661 508.093 406.391 506.382 390.727C506.37 390.6 506.331 390.476 506.27 390.364C506.209 390.251 506.125 390.152 506.025 390.072C505.925 389.993 505.809 389.934 505.686 389.899C505.563 389.865 505.434 389.855 505.306 389.871C505.05 389.901 504.816 390.031 504.656 390.232C504.496 390.434 504.422 390.692 504.451 390.948C505.52 399.504 505.332 408.171 503.894 416.674C503.839 416.925 503.887 417.187 504.025 417.403C504.164 417.619 504.382 417.772 504.632 417.828L504.853 417.854Z" fill="#27449B"/>
<path d="M478.138 415.221C478.388 415.222 478.627 415.126 478.808 414.955C478.989 414.784 479.097 414.55 479.111 414.301C479.111 414.145 479.979 398.3 481.211 382.117C481.228 381.861 481.144 381.609 480.977 381.414C480.809 381.22 480.572 381.1 480.316 381.08C480.061 381.066 479.81 381.151 479.617 381.318C479.423 381.485 479.302 381.72 479.279 381.975C478.048 398.183 477.192 414.041 477.179 414.21C477.172 414.338 477.19 414.466 477.233 414.586C477.275 414.707 477.341 414.818 477.427 414.913C477.512 415.008 477.616 415.086 477.731 415.141C477.847 415.196 477.972 415.228 478.1 415.234L478.138 415.221Z" fill="#27449B"/>
<path d="M506.901 352.45C507.029 352.445 507.154 352.415 507.27 352.361C507.386 352.307 507.491 352.232 507.577 352.138C507.664 352.044 507.731 351.934 507.775 351.814C507.819 351.694 507.839 351.566 507.834 351.438C507.031 333.129 514.069 315.521 519.215 302.671C520.628 299.144 521.808 296.084 522.741 293.438C522.788 293.316 522.809 293.186 522.804 293.055C522.799 292.924 522.768 292.796 522.712 292.678C522.656 292.559 522.577 292.454 522.479 292.367C522.382 292.28 522.268 292.213 522.144 292.171C522.02 292.129 521.889 292.113 521.759 292.123C521.628 292.133 521.501 292.169 521.385 292.229C521.269 292.289 521.166 292.372 521.083 292.473C521 292.574 520.938 292.691 520.9 292.816C520.019 295.409 518.813 298.444 517.413 301.893C512.228 314.859 505.073 332.74 505.903 351.464C505.901 351.595 505.926 351.725 505.975 351.847C506.025 351.968 506.099 352.078 506.192 352.17C506.285 352.262 506.396 352.334 506.518 352.382C506.64 352.43 506.77 352.453 506.901 352.45Z" fill="#27449B"/>
<path d="M565.129 360.152C565.358 360.152 565.579 360.072 565.755 359.925C565.93 359.778 566.048 359.574 566.088 359.348C566.088 359.205 568.46 345.085 567.384 322.263C567.378 322.136 567.347 322.01 567.293 321.895C567.238 321.779 567.162 321.675 567.067 321.589C566.973 321.503 566.862 321.436 566.742 321.393C566.622 321.35 566.494 321.33 566.367 321.336C566.239 321.342 566.114 321.373 565.998 321.428C565.882 321.482 565.778 321.559 565.692 321.653C565.606 321.748 565.54 321.858 565.496 321.978C565.453 322.099 565.434 322.226 565.44 322.354C566.477 344.968 564.143 358.894 564.143 359.024C564.121 359.15 564.124 359.279 564.152 359.404C564.179 359.529 564.231 359.647 564.305 359.752C564.378 359.857 564.472 359.946 564.58 360.015C564.688 360.083 564.808 360.13 564.934 360.152H565.129Z" fill="#27449B"/>
<path d="M526.5 284.284C526.704 284.285 526.904 284.221 527.07 284.102L540.24 274.598C540.45 274.447 540.591 274.218 540.632 273.963C540.673 273.707 540.612 273.446 540.46 273.236C540.309 273.027 540.081 272.886 539.825 272.844C539.57 272.803 539.309 272.865 539.099 273.016L527.226 281.587L525.605 270.734C525.595 270.601 525.557 270.471 525.495 270.353C525.432 270.235 525.346 270.131 525.242 270.048C525.138 269.965 525.017 269.904 524.888 269.869C524.76 269.835 524.625 269.827 524.493 269.847C524.361 269.866 524.234 269.913 524.121 269.984C524.008 270.054 523.911 270.147 523.835 270.257C523.759 270.367 523.707 270.492 523.682 270.623C523.656 270.754 523.658 270.889 523.687 271.019L525.54 283.48C525.575 283.71 525.69 283.921 525.866 284.073C526.042 284.225 526.267 284.309 526.5 284.31V284.284Z" fill="#27449B"/>
<path d="M580.853 403.72C586.462 403.81 592.007 402.509 596.991 399.934C597.105 399.874 597.205 399.793 597.287 399.694C597.368 399.596 597.43 399.482 597.468 399.36C597.506 399.238 597.519 399.11 597.508 398.982C597.496 398.855 597.459 398.731 597.4 398.618C597.34 398.504 597.259 398.404 597.16 398.322C597.062 398.24 596.949 398.179 596.826 398.141C596.704 398.103 596.576 398.089 596.448 398.101C596.321 398.113 596.197 398.15 596.084 398.209C583.86 404.692 569.835 401.075 557.65 397.211C545.465 393.347 520.953 387.136 496.804 381.093C495.873 380.955 494.931 380.907 493.991 380.95C489.623 380.95 481.482 380.95 478.436 376.179L476.272 372.781C473.679 368.645 472.862 367.387 471.501 366.843C468.637 365.689 460.289 368.801 460.198 368.84C459.973 368.942 459.795 369.126 459.701 369.354C459.606 369.583 459.603 369.838 459.69 370.07C459.778 370.301 459.95 370.49 460.172 370.599C460.394 370.708 460.649 370.728 460.885 370.655C464.035 369.475 469.363 368.062 470.788 368.645C471.566 368.956 472.461 370.383 474.677 373.832L476.842 377.242C480.458 382.87 489.286 382.895 494.03 382.908C494.813 382.882 495.597 382.908 496.376 382.986C520.487 389.029 545.051 395.24 557.106 399.078C564.572 401.477 572.751 403.72 580.853 403.72Z" fill="#27449B"/>
<path d="M462.051 364.301C462.192 364.3 462.332 364.268 462.459 364.208C462.587 364.147 462.7 364.06 462.79 363.951C467.826 360.347 473.449 357.645 479.408 355.964C479.659 355.903 479.876 355.746 480.011 355.526C480.146 355.306 480.188 355.041 480.127 354.79C480.067 354.539 479.91 354.322 479.69 354.187C479.47 354.052 479.205 354.01 478.954 354.071C471.488 355.86 462.285 361.552 461.299 362.693C461.182 362.835 461.106 363.007 461.082 363.189C461.059 363.372 461.087 363.558 461.164 363.725C461.242 363.892 461.365 364.033 461.52 364.133C461.674 364.233 461.854 364.287 462.038 364.288L462.051 364.301Z" fill="#27449B"/>
<path d="M459.731 358.907C459.917 358.884 460.093 358.807 460.237 358.687L460.716 358.376C467.781 353.656 474.068 350.518 479.421 349.039C479.544 349.005 479.66 348.947 479.761 348.869C479.862 348.79 479.946 348.692 480.01 348.581C480.073 348.469 480.114 348.347 480.129 348.22C480.145 348.092 480.136 347.964 480.102 347.84C480.068 347.717 480.01 347.601 479.931 347.5C479.852 347.399 479.754 347.315 479.643 347.251C479.532 347.188 479.409 347.147 479.282 347.132C479.155 347.116 479.026 347.125 478.903 347.159C473.355 348.689 466.873 351.918 459.64 356.742L459.187 357.04C459.01 357.154 458.875 357.322 458.802 357.519C458.729 357.717 458.722 357.932 458.782 358.134C458.842 358.335 458.966 358.512 459.134 358.637C459.303 358.763 459.508 358.83 459.718 358.829L459.731 358.907Z" fill="#27449B"/>
<path d="M596.549 400.05H596.614C596.742 400.042 596.866 400.009 596.981 399.952C597.096 399.895 597.199 399.817 597.283 399.72C597.367 399.624 597.432 399.512 597.473 399.39C597.513 399.269 597.53 399.141 597.521 399.013C594.929 360.982 565.737 360.463 548.328 360.113C531.607 359.815 505.928 357.105 504.01 355.432C500.912 351.192 490.179 341.169 487.871 340.456C485.279 339.587 473.47 344.021 461.065 350.57C460.952 350.629 460.851 350.71 460.77 350.809C460.688 350.907 460.626 351.021 460.588 351.143C460.55 351.265 460.537 351.394 460.549 351.521C460.56 351.649 460.597 351.772 460.657 351.886C460.716 351.999 460.797 352.099 460.896 352.181C460.994 352.263 461.108 352.325 461.23 352.362C461.352 352.4 461.48 352.414 461.608 352.402C461.735 352.39 461.859 352.354 461.972 352.294C475.985 344.903 485.888 341.843 487.262 342.297C488.856 342.828 499.291 352.255 502.493 356.56C504.71 359.581 537.751 361.747 548.303 361.993C565.037 362.291 593.062 362.784 595.59 399.039C595.585 399.169 595.605 399.298 595.651 399.42C595.697 399.542 595.766 399.653 595.856 399.747C595.945 399.842 596.053 399.917 596.172 399.969C596.291 400.021 596.419 400.049 596.549 400.05Z" fill="#27449B"/>
<path d="M599.906 405.496C601.423 405.496 603.069 404.277 604.923 401.801C618.87 383.155 613.996 365.753 604.923 355.678C596.627 346.602 579.477 343.542 565.154 354.252C565.052 354.329 564.966 354.425 564.901 354.535C564.835 354.644 564.793 354.766 564.775 354.892C564.757 355.019 564.764 355.148 564.795 355.271C564.827 355.395 564.883 355.511 564.959 355.614C565.036 355.716 565.132 355.802 565.242 355.867C565.352 355.932 565.473 355.975 565.6 355.993C565.726 356.011 565.855 356.004 565.978 355.972C566.102 355.94 566.218 355.885 566.32 355.808C579.762 345.759 595.784 348.521 603.497 356.988C612.143 366.493 616.68 382.921 603.497 400.647C601.306 403.564 600.191 403.642 599.815 403.538C599.44 403.435 598.053 402.618 597.469 396.847V396.601C597.457 396.472 597.42 396.347 597.359 396.233C597.298 396.119 597.215 396.018 597.114 395.936C597.014 395.855 596.898 395.794 596.774 395.758C596.65 395.721 596.52 395.71 596.391 395.725C596.262 395.739 596.138 395.78 596.025 395.843C595.912 395.906 595.813 395.992 595.734 396.094C595.655 396.196 595.596 396.313 595.563 396.438C595.529 396.563 595.52 396.693 595.538 396.822V397.042C596.056 402.112 597.288 404.822 599.297 405.406C599.496 405.458 599.7 405.489 599.906 405.496Z" fill="#27449B"/>
<path d="M521.25 239.251C521.492 239.244 521.723 239.148 521.898 238.98C522.072 238.812 522.178 238.585 522.194 238.344C522.21 238.102 522.136 237.863 521.985 237.674C521.835 237.484 521.619 237.358 521.38 237.319C517.352 236.74 513.697 234.642 511.167 231.454C508.636 228.266 507.421 224.23 507.771 220.174C508.121 216.118 510.009 212.35 513.048 209.643C516.088 206.936 520.047 205.494 524.115 205.615C524.244 205.624 524.373 205.606 524.494 205.564C524.616 205.521 524.727 205.454 524.822 205.366C524.916 205.279 524.992 205.173 525.045 205.055C525.097 204.938 525.125 204.81 525.126 204.682C525.131 204.554 525.111 204.426 525.067 204.306C525.023 204.186 524.956 204.076 524.869 203.982C524.782 203.888 524.678 203.812 524.562 203.759C524.446 203.705 524.321 203.675 524.193 203.67C519.622 203.529 515.17 205.145 511.754 208.187C508.338 211.229 506.218 215.465 505.829 220.023C505.441 224.582 506.814 229.116 509.665 232.692C512.517 236.269 516.63 238.616 521.16 239.251H521.25Z" fill="#39B715"/>
<path d="M434.065 241.987C434.19 241.985 434.313 241.959 434.428 241.909C446.457 236.956 461.325 227.555 477.061 217.583C487.976 210.672 499.266 203.528 509.805 197.796C510.032 197.673 510.2 197.464 510.273 197.216C510.346 196.968 510.317 196.701 510.194 196.474C510.07 196.247 509.861 196.078 509.613 196.005C509.365 195.932 509.098 195.961 508.871 196.085C498.281 201.842 486.965 209.051 476.024 215.937C460.366 225.856 445.562 235.218 433.689 240.107C433.483 240.194 433.314 240.35 433.21 240.548C433.105 240.746 433.073 240.974 433.117 241.193C433.161 241.413 433.279 241.61 433.452 241.752C433.625 241.894 433.841 241.973 434.065 241.974V241.987Z" fill="#27449B"/>
<path d="M557.092 193.621H557.352C557.475 193.588 557.591 193.531 557.692 193.453C557.794 193.375 557.879 193.278 557.942 193.167C558.006 193.056 558.048 192.934 558.064 192.807C558.081 192.68 558.072 192.551 558.039 192.428C556.742 187.773 553.955 185.945 549.626 186.969C549.375 187.029 549.158 187.187 549.023 187.407C548.888 187.627 548.846 187.892 548.907 188.143C548.967 188.394 549.124 188.61 549.344 188.745C549.564 188.88 549.829 188.922 550.08 188.862C553.398 188.071 555.161 189.238 556.159 192.934C556.22 193.133 556.344 193.308 556.512 193.432C556.68 193.555 556.884 193.622 557.092 193.621Z" fill="#27449B"/>
<path d="M540.475 186.386C540.646 186.386 540.815 186.342 540.964 186.256C541.113 186.17 541.236 186.047 541.322 185.898C541.407 185.749 541.452 185.58 541.451 185.409C541.45 185.237 541.404 185.068 541.317 184.92C540.138 182.911 538.725 181.834 537.247 181.731C535.769 181.627 534.123 182.509 532.619 184.324C532.458 184.525 532.383 184.782 532.411 185.039C532.439 185.295 532.567 185.53 532.768 185.692C532.969 185.854 533.227 185.929 533.483 185.901C533.739 185.873 533.974 185.744 534.136 185.543C534.888 184.622 536.028 183.507 537.104 183.611C538.18 183.715 539.062 184.907 539.697 185.854C539.771 186.001 539.881 186.127 540.017 186.22C540.153 186.313 540.311 186.37 540.475 186.386Z" fill="#27449B"/>
<path d="M558.531 255.187C558.758 255.188 558.978 255.109 559.153 254.965C559.329 254.82 559.448 254.619 559.49 254.396C561.396 244.934 563.863 235.595 566.879 226.427C569.964 227.075 580.023 228.488 584.171 220.475C584.462 219.914 584.713 219.334 584.923 218.737C585.705 216.887 585.829 214.823 585.272 212.892C584.715 210.961 583.512 209.28 581.863 208.131C579.653 206.65 577.105 205.748 574.456 205.508C571.806 205.268 569.138 205.697 566.697 206.756C567.087 204.857 567.287 202.924 567.294 200.986C567.268 200.196 567.169 199.41 566.995 198.639C566.749 197.446 566.671 197.031 568.292 195.268C568.883 194.688 569.341 193.986 569.634 193.211C569.927 192.437 570.048 191.608 569.99 190.781C569.884 189.986 569.615 189.22 569.201 188.533C568.786 187.846 568.234 187.252 567.579 186.788C566.425 185.945 566.153 183.818 566.736 180.486C566.813 180.165 566.824 179.831 566.768 179.506C566.713 179.18 566.591 178.87 566.412 178.593C566.078 178.238 565.677 177.953 565.232 177.755C564.787 177.557 564.307 177.449 563.82 177.439C562.277 177.179 561.305 176.959 561.007 175.507C560.916 174.698 560.634 173.923 560.183 173.247C559.732 172.57 559.125 172.011 558.414 171.617C556.833 170.826 554.694 171.072 552.063 172.317C551.181 172.732 550.961 172.589 550.105 171.02C549.405 169.723 548.342 167.752 545.815 168.206C545.037 168.349 544.35 168.505 543.741 168.647C541.472 169.179 540.617 169.373 538.88 167.545C538.551 167.159 538.12 166.872 537.637 166.719C537.153 166.565 536.636 166.55 536.145 166.676C533.137 167.506 530.299 173.899 527.447 186.243L526.539 190.133C525.814 193.271 525.126 196.201 524.517 198.95C521.925 210.815 520.706 219.139 522.56 226.556C526.682 242.959 541.861 240.483 542.004 240.444C542.258 240.399 542.484 240.255 542.633 240.043C542.781 239.832 542.839 239.57 542.794 239.316C542.75 239.061 542.606 238.835 542.394 238.686C542.183 238.538 541.921 238.48 541.667 238.525C541.109 238.628 528.108 240.69 524.439 226.077C522.664 219.036 523.817 210.957 526.397 199.378C527.006 196.629 527.693 193.712 528.419 190.574L529.326 186.684C533.021 170.709 535.808 168.764 536.65 168.53C536.767 168.53 537.052 168.414 537.467 168.855C539.969 171.448 541.731 171.072 544.181 170.501C544.765 170.372 545.413 170.216 546.152 170.086C547.202 169.905 547.616 170.475 548.394 171.915C549.172 173.354 550.235 175.312 552.892 174.054C554.94 173.082 556.548 172.835 557.546 173.328C557.969 173.599 558.324 173.963 558.584 174.392C558.845 174.821 559.004 175.305 559.049 175.805C559.62 178.644 561.927 179.021 563.444 179.267C563.895 179.304 564.335 179.428 564.74 179.63C564.782 179.769 564.782 179.918 564.74 180.058C563.988 184.246 564.52 186.93 566.347 188.266C566.775 188.569 567.139 188.955 567.417 189.4C567.695 189.845 567.882 190.341 567.968 190.859C567.991 191.413 567.895 191.966 567.687 192.481C567.48 192.995 567.164 193.459 566.762 193.841C564.61 196.227 564.688 197.265 565.025 198.911C565.175 199.572 565.262 200.245 565.284 200.921C565.217 203.436 564.878 205.936 564.273 208.377C564.224 208.572 564.237 208.778 564.31 208.965C564.383 209.153 564.513 209.313 564.68 209.424C564.848 209.535 565.046 209.591 565.247 209.585C565.448 209.578 565.642 209.51 565.803 209.388C569.627 206.497 576.562 206.588 580.645 209.596C581.964 210.488 582.926 211.818 583.36 213.351C583.794 214.884 583.672 216.521 583.017 217.972C582.837 218.484 582.62 218.982 582.369 219.464C578.195 227.529 566.542 224.261 566.425 224.235C566.184 224.165 565.926 224.191 565.704 224.307C565.482 224.423 565.313 224.62 565.232 224.858C562.059 234.361 559.462 244.048 557.455 253.864C557.431 253.99 557.431 254.12 557.457 254.246C557.483 254.371 557.534 254.491 557.606 254.597C557.679 254.703 557.771 254.794 557.879 254.864C557.986 254.934 558.107 254.982 558.233 255.005L558.531 255.187Z" fill="#27449B"/>
<path d="M538.244 222.193C535.229 220.966 532.14 219.945 528.988 219.129C528.72 219.06 528.436 219.126 528.215 219.301C527.993 219.475 527.862 219.736 527.854 220.011C527.846 220.286 527.692 226.521 531.554 227.584C531.918 227.691 532.298 227.761 532.682 227.807C534.668 228.195 536.685 227.268 537.686 225.504C537.904 225.04 537.705 224.501 537.256 224.272C537.231 224.269 537.22 224.255 537.197 224.24C536.734 224.021 536.171 224.218 535.953 224.681C535.855 224.871 534.9 226.565 532.059 225.774C530.48 225.334 529.925 222.945 529.775 221.257C531.134 221.645 533.711 222.443 537.572 223.933C538.02 224.074 538.497 223.855 538.698 223.44C538.916 222.976 538.72 222.413 538.244 222.193Z" fill="#27449B"/>
<path d="M518.723 278.993C518.974 278.993 519.216 278.896 519.397 278.721C529.767 268.75 535.47 251.31 536.248 239.328C536.265 239.071 536.179 238.816 536.009 238.622C535.839 238.427 535.598 238.308 535.34 238.291C535.083 238.274 534.829 238.36 534.634 238.53C534.44 238.7 534.321 238.941 534.303 239.199C533.539 250.169 528.639 265.832 519.63 275.648V268.607C521.082 266.999 527.9 259.219 528.898 253.786C528.921 253.66 528.919 253.531 528.892 253.406C528.865 253.281 528.814 253.162 528.741 253.057C528.668 252.951 528.575 252.861 528.468 252.792C528.36 252.722 528.24 252.675 528.114 252.652C527.988 252.629 527.859 252.631 527.733 252.658C527.608 252.685 527.49 252.736 527.384 252.809C527.279 252.882 527.189 252.975 527.12 253.082C527.05 253.19 527.003 253.31 526.98 253.436C525.982 258.843 518.023 267.479 517.906 267.57C517.739 267.75 517.647 267.986 517.647 268.231V278.034C517.647 278.292 517.749 278.539 517.931 278.722C518.114 278.904 518.361 279.006 518.619 279.006L518.723 278.993Z" fill="#27449B"/>
<path d="M480.405 326.853L485.784 329.94C486.796 328.358 487.69 326.905 488.377 325.622C486.536 324.636 484.397 323.521 482.92 322.743C482.207 323.923 481.351 325.323 480.405 326.853Z" fill="#39B715"/>
<path d="M457.54 379.965C457.696 379.966 457.849 379.929 457.988 379.857C458.126 379.786 458.246 379.683 458.336 379.555C458.426 379.428 458.485 379.281 458.506 379.127C458.528 378.973 458.512 378.815 458.46 378.668C457.786 376.684 455.466 373.209 451.564 374.311C451.315 374.38 451.103 374.545 450.975 374.77C450.848 374.995 450.815 375.262 450.883 375.511C450.952 375.76 451.117 375.972 451.342 376.1C451.567 376.227 451.833 376.26 452.082 376.192C455.219 375.323 456.567 379.148 456.619 379.304C456.684 379.496 456.808 379.664 456.973 379.782C457.138 379.901 457.336 379.965 457.54 379.965Z" fill="#39B715"/>
<path d="M534.94 215.872H535.42C535.554 215.872 535.687 215.845 535.81 215.791C535.934 215.737 536.045 215.659 536.136 215.56C536.227 215.461 536.297 215.344 536.341 215.217C536.385 215.09 536.402 214.955 536.391 214.821C536.38 214.687 536.342 214.557 536.278 214.438C536.215 214.32 536.127 214.216 536.021 214.133C535.915 214.05 535.793 213.99 535.663 213.957C535.532 213.924 535.397 213.918 535.264 213.94C534.746 213.94 533.099 213.94 532.555 213.149C532.01 212.358 533.851 208.559 536.236 203.592C536.988 201.985 537.857 200.143 538.829 198.056C538.888 197.939 538.924 197.812 538.933 197.681C538.942 197.55 538.925 197.419 538.883 197.296C538.84 197.172 538.773 197.058 538.685 196.961C538.597 196.863 538.491 196.785 538.372 196.73C538.253 196.675 538.125 196.644 537.994 196.64C537.863 196.636 537.733 196.659 537.611 196.706C537.489 196.754 537.378 196.825 537.284 196.917C537.19 197.008 537.116 197.118 537.066 197.239C536.107 199.326 535.251 201.129 534.473 202.763C530.999 210.167 529.833 212.656 530.96 214.251C531.456 214.807 532.073 215.241 532.763 215.522C533.452 215.803 534.197 215.923 534.94 215.872Z" fill="#27449B"/>
<path d="M547.224 203.611C545.912 203.309 545.192 201.571 545.616 199.728C546.04 197.886 547.446 196.637 548.758 196.939C550.07 197.24 550.789 198.978 550.366 200.821C549.942 202.663 548.536 203.913 547.224 203.611Z" fill="#27449B"/>
<path d="M532.255 198.186C531.055 197.91 530.396 196.323 530.782 194.641C531.169 192.959 532.455 191.819 533.655 192.096C534.855 192.372 535.515 193.959 535.128 195.641C534.741 197.323 533.455 198.463 532.255 198.186Z" fill="#27449B"/>
<path d="M455.893 354.019C456.151 354.019 456.398 353.916 456.58 353.734C456.763 353.551 456.865 353.304 456.865 353.046C456.865 352.788 456.763 352.541 456.58 352.358C456.398 352.176 456.151 352.074 455.893 352.074L437.746 351.361C405.521 350.064 384.236 349.234 361.396 350.492C334.668 351.97 267.95 348.988 256.4 347.185C256.153 347.161 255.905 347.232 255.709 347.384C255.512 347.536 255.381 347.758 255.343 348.004C255.305 348.249 255.362 348.5 255.503 348.705C255.645 348.91 255.859 349.053 256.102 349.104C267.768 350.907 334.733 353.915 361.552 352.424C384.288 351.127 405.547 352.009 437.707 353.293L455.854 354.006L455.893 354.019Z" fill="#27449B"/>
<path d="M508.43 161.969C508.613 161.968 508.792 161.916 508.946 161.817C509.1 161.719 509.224 161.58 509.302 161.414C509.381 161.249 509.411 161.065 509.39 160.884C509.369 160.702 509.296 160.53 509.182 160.387C505.477 155.649 501.071 151.504 496.116 148.095C495.897 147.957 495.633 147.912 495.382 147.969C495.13 148.027 494.912 148.181 494.774 148.4C494.637 148.618 494.591 148.882 494.649 149.134C494.706 149.386 494.86 149.604 495.079 149.742C499.845 153.048 504.091 157.047 507.678 161.606C507.769 161.719 507.883 161.81 508.013 161.873C508.143 161.935 508.286 161.969 508.43 161.969Z" fill="#27449B"/>
<path d="M496.79 205.097C497.047 205.097 497.295 204.994 497.477 204.812C497.659 204.629 497.762 204.382 497.762 204.124C497.762 187.734 497.425 171.889 497.127 156.562C496.854 142.558 496.595 129.332 496.569 116.547C496.569 106.498 496.686 97.0064 496.815 87.826C496.984 75.5206 497.152 63.8895 496.815 53.594C496.725 50.5209 496.634 48.2258 496.517 46.1252C496.517 42.3423 495.015 38.7144 492.341 36.0395C489.667 33.3646 486.04 31.8618 482.259 31.8618H205.043C201.261 31.8618 197.634 33.3646 194.96 36.0395C192.286 38.7144 190.784 42.3423 190.784 46.1252L190.939 53.594C191.263 66.9626 191.743 80.3961 192.236 93.3887C193.065 116.275 192.262 84.2419 192.236 106C192.236 116.646 193.597 181.614 193.078 196.344C193.073 196.472 193.093 196.599 193.137 196.719C193.181 196.839 193.248 196.949 193.335 197.043C193.422 197.137 193.526 197.213 193.642 197.267C193.758 197.32 193.884 197.35 194.011 197.355C194.268 197.363 194.518 197.269 194.707 197.094C194.896 196.92 195.009 196.679 195.023 196.422C195.541 181.653 194.707 116.672 194.707 106C194.707 84.203 195.01 116.223 194.18 93.3109C193.713 80.3442 193.221 66.8978 192.884 53.5421L192.728 46.0992C192.738 42.8343 194.041 39.7065 196.352 37.4002C198.662 35.094 201.792 33.7973 205.056 33.7939H482.272C485.54 33.7973 488.673 35.0976 490.984 37.4094C493.296 39.7212 494.595 42.8558 494.599 46.1252C494.716 48.2517 494.806 50.5468 494.897 53.594C495.169 63.8506 495.014 75.4558 494.897 87.7352C494.767 96.9156 494.638 106.42 494.651 116.482C494.651 129.28 494.936 142.519 495.208 156.536C495.506 171.85 495.817 187.656 495.843 204.059C495.834 204.19 495.852 204.321 495.896 204.445C495.939 204.569 496.007 204.683 496.095 204.78C496.184 204.877 496.291 204.955 496.41 205.009C496.529 205.064 496.658 205.093 496.79 205.097Z" fill="#27449B"/>
<path d="M191.913 54.5924H495.897C496.026 54.5925 496.155 54.5665 496.275 54.516C496.394 54.4655 496.503 54.3915 496.593 54.2985C496.684 54.2054 496.755 54.0951 496.802 53.9741C496.85 53.8531 496.872 53.7239 496.869 53.594C496.778 50.5987 496.687 48.2258 496.571 46.1252C496.571 42.3423 495.068 38.7144 492.394 36.0395C489.72 33.3646 486.094 31.8618 482.312 31.8618H205.044C201.262 31.8618 197.636 33.3646 194.962 36.0395C192.288 38.7144 190.785 42.3423 190.785 46.1252L190.941 53.5681C190.934 53.7001 190.954 53.8321 190.999 53.9562C191.045 54.0802 191.116 54.1936 191.207 54.2895C191.298 54.3854 191.407 54.4617 191.529 54.5138C191.65 54.5658 191.781 54.5926 191.913 54.5924ZM494.886 52.6734H192.859L192.73 46.19C192.737 42.9229 194.038 39.7917 196.349 37.4826C198.659 35.1736 201.791 33.8751 205.057 33.8717H482.273C485.541 33.8751 488.675 35.1754 490.986 37.4872C493.297 39.7991 494.597 42.9336 494.6 46.203C494.73 48.0702 494.808 50.08 494.886 52.6734Z" fill="#27449B"/>
<path d="M227.119 46.566C225.286 46.566 223.801 45.0798 223.801 43.2465C223.801 41.4132 225.286 39.9271 227.119 39.9271C228.952 39.9271 230.438 41.4132 230.438 43.2465C230.438 45.0798 228.952 46.566 227.119 46.566Z" fill="#27449B"/>
<path d="M216.127 46.566C214.294 46.566 212.809 45.0798 212.809 43.2465C212.809 41.4132 214.294 39.9271 216.127 39.9271C217.96 39.9271 219.445 41.4132 219.445 43.2465C219.445 45.0798 217.96 46.566 216.127 46.566Z" fill="#39B715"/>
<path d="M205.121 46.566C203.288 46.566 201.803 45.0798 201.803 43.2465C201.803 41.4132 203.288 39.9271 205.121 39.9271C206.954 39.9271 208.439 41.4132 208.439 43.2465C208.439 45.0798 206.954 46.566 205.121 46.566Z" fill="#27449B"/>
<path d="M388.878 33.8458C389.081 33.8477 389.28 33.7859 389.446 33.6693C389.612 33.5526 389.737 33.3868 389.805 33.1952C389.872 33.0036 389.877 32.7957 389.82 32.6007C389.764 32.4058 389.647 32.2336 389.487 32.1082C380.984 25.3656 372.74 19.6862 366.155 15.1089C360.97 11.5042 356.394 8.3922 353.503 5.9415C345.065 -1.19016 337.3 -5.39138 320.929 10.3242C304.557 26.0398 292.567 31.9267 292.45 31.9267C292.216 32.0367 292.036 32.2352 291.948 32.4784C291.861 32.7215 291.873 32.9895 291.983 33.2234C292.093 33.4572 292.292 33.6378 292.535 33.7253C292.778 33.8128 293.046 33.8002 293.28 33.6902C293.772 33.4568 305.4 27.8552 322.225 11.7246C337.456 -2.88881 344.261 0.715929 352.194 7.43266C355.163 9.93523 359.505 12.9305 365.001 16.7168C371.599 21.2681 379.83 26.9216 388.334 33.5735C388.481 33.7202 388.672 33.8156 388.878 33.8458Z" fill="#27449B"/>
<path d="M299.502 125.792C306.424 125.792 321.759 125.481 334.967 125.196C335.095 125.193 335.221 125.164 335.338 125.112C335.454 125.06 335.56 124.986 335.647 124.893C335.735 124.8 335.804 124.691 335.85 124.572C335.895 124.452 335.917 124.325 335.914 124.197C335.894 123.944 335.782 123.707 335.597 123.532C335.413 123.357 335.17 123.257 334.916 123.251C319.672 123.588 301.576 123.951 296.961 123.821C296.704 123.821 296.456 123.924 296.274 124.106C296.092 124.289 295.989 124.536 295.989 124.794C295.989 125.052 296.092 125.299 296.274 125.482C296.456 125.664 296.704 125.766 296.961 125.766L299.502 125.792Z" fill="#27449B"/>
<path d="M444.098 125.779C445.809 125.779 447.429 125.779 448.946 125.779C449.204 125.779 449.451 125.677 449.633 125.495C449.816 125.312 449.918 125.065 449.918 124.807C449.918 124.549 449.816 124.302 449.633 124.119C449.451 123.937 449.204 123.834 448.946 123.834C439.094 124.081 424.473 123.432 411.575 122.862C403.123 122.486 395.825 122.162 391.392 122.162C386.959 122.162 371.78 122.499 354.423 122.888L345.661 123.082C345.533 123.086 345.407 123.114 345.29 123.166C345.174 123.218 345.069 123.293 344.981 123.385C344.893 123.478 344.824 123.587 344.778 123.707C344.733 123.826 344.711 123.953 344.714 124.081C344.724 124.338 344.834 124.58 345.021 124.757C345.207 124.934 345.456 125.031 345.712 125.027L354.475 124.833C371.819 124.444 386.791 124.107 391.392 124.107C395.787 124.107 403.059 124.431 411.484 124.807C422.399 125.287 434.596 125.779 444.098 125.779Z" fill="#27449B"/>
<path d="M398.198 262.033C398.392 262.033 398.581 261.975 398.742 261.866C398.902 261.758 399.027 261.604 399.099 261.424C399.172 261.244 399.189 261.047 399.148 260.858C399.108 260.668 399.012 260.495 398.872 260.36C388.178 249.909 375.631 242.363 365.546 236.294C362.253 234.31 359.142 232.404 356.576 230.745C346.037 223.781 331.83 218.284 315.42 237.876C315.248 238.074 315.162 238.332 315.18 238.593C315.198 238.855 315.319 239.098 315.517 239.27C315.715 239.442 315.973 239.528 316.234 239.51C316.495 239.492 316.739 239.371 316.911 239.173C332.245 220.877 345.026 225.493 355.5 232.417C358.092 234.129 361.229 236.009 364.574 238.006C374.568 244.022 387.012 251.504 397.537 261.787C397.719 261.949 397.955 262.037 398.198 262.033Z" fill="#27449B"/>
<path d="M257.061 69.9579C256.803 69.9682 256.551 69.8757 256.362 69.7006C256.172 69.5255 256.06 69.2822 256.05 69.0243C256.039 68.7664 256.132 68.5149 256.307 68.3253C256.482 68.1356 256.725 68.0232 256.983 68.0129C267.56 67.0923 300.654 67.598 318.438 67.8703C323.545 67.9481 327.382 68.0129 329.054 68.0129C329.312 68.0129 329.56 68.1154 329.742 68.2978C329.924 68.4801 330.027 68.7275 330.027 68.9854C330.027 69.2433 329.924 69.4907 329.742 69.6731C329.56 69.8555 329.312 69.9579 329.054 69.9579C327.369 69.9579 323.519 69.9579 318.399 69.8153C300.654 69.543 267.625 69.0373 257.138 69.945L257.061 69.9579Z" fill="#39B715"/>
<path d="M316.415 86.9442H312.176C312.048 86.9425 311.922 86.9157 311.805 86.8653C311.688 86.8148 311.581 86.7418 311.492 86.6503C311.403 86.5588 311.333 86.4506 311.286 86.3319C311.239 86.2133 311.215 86.0865 311.217 85.9588C311.236 85.7061 311.346 85.469 311.528 85.2922C311.709 85.1154 311.949 85.0112 312.202 84.9992C316.311 85.0641 318.256 84.9992 319.681 84.9992C320.692 84.9992 321.457 84.9992 322.546 84.9992C322.804 84.9992 323.051 85.1017 323.234 85.2841C323.416 85.4665 323.518 85.7138 323.518 85.9717C323.518 86.2297 323.416 86.477 323.234 86.6594C323.051 86.8418 322.804 86.9442 322.546 86.9442C321.496 86.9442 320.744 86.9442 319.759 86.9442C318.774 86.9442 317.841 86.9442 316.415 86.9442Z" fill="#39B715"/>
<path d="M257.656 87.826C257.529 87.8328 257.401 87.8144 257.28 87.7718C257.16 87.7292 257.049 87.6633 256.954 87.5778C256.859 87.4923 256.781 87.3889 256.726 87.2736C256.671 87.1582 256.639 87.033 256.632 86.9053C256.625 86.7776 256.644 86.6498 256.686 86.5292C256.729 86.4086 256.795 86.2976 256.88 86.2025C256.966 86.1074 257.069 86.03 257.184 85.9749C257.3 85.9197 257.425 85.8878 257.553 85.881C267.274 84.8825 282.881 84.5195 303.919 84.7788C304.047 84.7805 304.173 84.8073 304.291 84.8578C304.408 84.9082 304.514 84.9813 304.603 85.0728C304.692 85.1643 304.762 85.2725 304.81 85.3911C304.857 85.5098 304.88 85.6366 304.879 85.7643C304.872 86.0211 304.765 86.2652 304.581 86.4444C304.397 86.6236 304.15 86.7239 303.894 86.7238C282.933 86.4515 267.404 86.8275 257.76 87.813L257.656 87.826Z" fill="#39B715"/>
<path d="M243.996 143.531C255.532 143.531 268.936 143.375 279.422 142.792C283.972 142.532 289.52 142.364 295.911 142.286C296.168 142.286 296.416 142.183 296.598 142.001C296.78 141.819 296.883 141.571 296.883 141.313C296.883 141.056 296.78 140.808 296.598 140.626C296.416 140.443 296.168 140.341 295.911 140.341C289.494 140.419 283.92 140.6 279.345 140.847C256.349 142.143 219.237 141.365 218.874 141.352C218.746 141.347 218.618 141.368 218.498 141.413C218.378 141.458 218.269 141.527 218.176 141.615C218.082 141.703 218.008 141.809 217.957 141.927C217.905 142.044 217.878 142.171 217.876 142.299C217.873 142.427 217.895 142.554 217.94 142.673C217.986 142.792 218.055 142.902 218.143 142.994C218.231 143.087 218.336 143.161 218.452 143.213C218.569 143.265 218.695 143.294 218.823 143.297C219.004 143.297 230.152 143.531 243.996 143.531Z" fill="#27449B"/>
<path d="M376.887 143.284C383.369 143.284 390.459 143.155 397.303 142.999C397.431 142.996 397.557 142.967 397.674 142.915C397.79 142.863 397.895 142.789 397.983 142.696C398.071 142.603 398.14 142.494 398.186 142.375C398.231 142.256 398.253 142.128 398.25 142.001C398.24 141.744 398.13 141.501 397.943 141.324C397.757 141.147 397.508 141.051 397.252 141.054C387.854 141.262 378.015 141.43 369.862 141.275L355.992 140.989C342.589 140.691 327.397 140.367 313.216 140.276C312.958 140.276 312.711 140.379 312.528 140.561C312.346 140.743 312.243 140.991 312.243 141.249C312.243 141.507 312.346 141.754 312.528 141.936C312.711 142.119 312.958 142.221 313.216 142.221C327.474 142.312 342.602 142.636 355.992 142.934L369.875 143.22C372.091 143.271 374.438 143.284 376.887 143.284Z" fill="#27449B"/>
<path d="M468.506 143.233C468.764 143.243 469.015 143.15 469.205 142.975C469.394 142.8 469.506 142.557 469.517 142.299C469.527 142.041 469.435 141.79 469.26 141.6C469.085 141.41 468.841 141.298 468.583 141.288C452.251 139.926 431.226 140.276 409.306 140.782C409.048 140.782 408.801 140.884 408.619 141.067C408.436 141.249 408.334 141.496 408.334 141.754C408.334 142.012 408.436 142.26 408.619 142.442C408.801 142.624 409.048 142.727 409.306 142.727C431.161 142.221 452.082 141.871 468.376 143.22L468.506 143.233Z" fill="#27449B"/>
<path d="M458.94 160.037C461.662 160.037 464.267 160.037 466.626 159.921C466.754 159.916 466.88 159.885 466.996 159.832C467.112 159.778 467.216 159.702 467.303 159.609C467.389 159.515 467.457 159.404 467.501 159.284C467.545 159.164 467.565 159.037 467.56 158.909C467.546 158.652 467.433 158.411 467.244 158.237C467.055 158.062 466.806 157.968 466.549 157.976C454.273 158.404 435.672 157.561 425.665 157.107C422.217 156.951 419.728 156.835 418.834 156.835C418.576 156.835 418.329 156.937 418.146 157.119C417.964 157.302 417.862 157.549 417.862 157.807C417.862 158.065 417.964 158.312 418.146 158.495C418.329 158.677 418.576 158.78 418.834 158.78C419.689 158.78 422.152 158.896 425.574 159.052C433.689 159.415 447.429 160.037 458.94 160.037Z" fill="#27449B"/>
<path d="M251.397 160.141C251.655 160.141 251.902 160.039 252.084 159.856C252.267 159.674 252.369 159.426 252.369 159.169C252.369 158.911 252.267 158.663 252.084 158.481C251.902 158.299 251.655 158.196 251.397 158.196L222.322 157.872C222.194 157.868 222.066 157.891 221.947 157.937C221.828 157.984 221.719 158.054 221.627 158.144C221.535 158.233 221.462 158.34 221.412 158.458C221.362 158.576 221.337 158.703 221.337 158.831C221.335 158.959 221.359 159.086 221.406 159.205C221.453 159.323 221.523 159.431 221.612 159.523C221.702 159.614 221.808 159.687 221.925 159.738C222.042 159.788 222.168 159.815 222.296 159.817L251.371 160.141H251.397Z" fill="#27449B"/>
<path d="M316.509 160.673H317.649C323.832 160.673 332.09 160.491 340.826 160.31L349.9 160.128C350.028 160.126 350.154 160.1 350.271 160.049C350.388 159.999 350.495 159.926 350.584 159.834C350.673 159.743 350.743 159.634 350.79 159.516C350.838 159.397 350.861 159.27 350.859 159.143C350.843 158.889 350.734 158.65 350.552 158.473C350.37 158.296 350.128 158.192 349.874 158.183L340.8 158.365C332.077 158.546 323.82 158.728 317.662 158.728C306.683 158.728 280.758 158.507 260.964 158.3C260.707 158.3 260.459 158.402 260.277 158.585C260.095 158.767 259.992 159.014 259.992 159.272C259.992 159.53 260.095 159.778 260.277 159.96C260.459 160.142 260.707 160.245 260.964 160.245C280.058 160.439 304.907 160.673 316.509 160.673Z" fill="#27449B"/>
<path d="M401.27 160.673C401.528 160.685 401.78 160.594 401.971 160.42C402.162 160.246 402.276 160.004 402.288 159.746C402.3 159.488 402.209 159.236 402.035 159.045C401.861 158.854 401.619 158.74 401.361 158.728C390.849 157.69 373.764 157.794 360.05 157.989C359.792 157.989 359.545 158.091 359.362 158.273C359.18 158.456 359.077 158.703 359.077 158.961C359.077 159.219 359.18 159.466 359.362 159.649C359.545 159.831 359.792 159.934 360.05 159.934C372.649 159.739 390.615 159.622 401.141 160.66L401.27 160.673Z" fill="#27449B"/>
<path d="M452.018 177.153C456.931 177.207 461.841 176.934 466.717 176.336C466.844 176.319 466.966 176.276 467.077 176.211C467.187 176.146 467.283 176.06 467.36 175.957C467.516 175.751 467.583 175.49 467.547 175.234C467.511 174.978 467.375 174.747 467.168 174.591C466.961 174.435 466.701 174.368 466.445 174.404C456.944 175.701 444.409 175.131 435.154 174.703C431.706 174.547 428.673 174.404 426.637 174.404C426.38 174.404 426.132 174.507 425.95 174.689C425.768 174.872 425.665 175.119 425.665 175.377C425.665 175.635 425.768 175.882 425.95 176.065C426.132 176.247 426.38 176.349 426.637 176.349C428.673 176.349 431.641 176.492 435.063 176.648C440.067 176.816 446.042 177.153 452.018 177.153Z" fill="#27449B"/>
<path d="M217.473 65.3677H215.126C214.958 64.647 214.958 63.8971 215.126 63.1764H222.308C222.308 63.3838 222.372 63.5783 222.385 63.7469C222.394 63.9153 222.394 64.0841 222.385 64.2526C222.378 64.6269 222.339 64.9999 222.269 65.3677H219.923V73.2385C219.495 73.3188 219.061 73.3622 218.626 73.3682C218.191 73.3629 217.757 73.3195 217.33 73.2385L217.473 65.3677Z" fill="#39B715"/>
<path d="M225.133 73.42C224.602 73.4278 224.074 73.3354 223.578 73.1477C223.148 72.9824 222.762 72.7206 222.45 72.3827C222.139 72.0379 221.905 71.6314 221.763 71.1897C221.602 70.6914 221.524 70.1703 221.53 69.6467C221.524 69.1147 221.603 68.5851 221.763 68.0778C221.903 67.6276 222.138 67.2122 222.45 66.8589C222.762 66.5169 223.147 66.2508 223.578 66.0809C224.591 65.7145 225.701 65.7145 226.715 66.0809C227.145 66.2508 227.531 66.5169 227.842 66.8589C228.155 67.212 228.389 67.6274 228.529 68.0778C228.69 68.5851 228.768 69.1147 228.763 69.6467C228.769 70.1703 228.69 70.6914 228.529 71.1897C228.387 71.6315 228.153 72.0381 227.842 72.3827C227.53 72.7206 227.144 72.9824 226.715 73.1477C226.209 73.3378 225.673 73.4302 225.133 73.42ZM225.133 71.501C225.316 71.5116 225.498 71.4727 225.66 71.3882C225.822 71.3037 225.958 71.1769 226.054 71.0212C226.275 70.6031 226.378 70.1322 226.352 69.6597C226.381 69.1828 226.278 68.7071 226.054 68.2852C225.958 68.1295 225.822 68.0027 225.66 67.9182C225.498 67.8337 225.316 67.7948 225.133 67.8054C224.953 67.7957 224.773 67.8352 224.613 67.9197C224.453 68.0042 224.319 68.1305 224.226 68.2852C224.002 68.7071 223.899 69.1828 223.928 69.6597C223.901 70.1322 224.004 70.6031 224.226 71.0212C224.316 71.1807 224.448 71.3122 224.609 71.4014C224.769 71.4906 224.95 71.534 225.133 71.5269V71.501Z" fill="#39B715"/>
<path d="M217.732 87.5667C217.411 87.4512 217.103 87.3035 216.812 87.1258C216.544 86.966 216.303 86.7647 216.099 86.5293C215.902 86.2945 215.748 86.0267 215.645 85.7383C215.534 85.3997 215.481 85.0445 215.489 84.688C215.482 84.2436 215.566 83.8023 215.736 83.3914C215.899 83.0186 216.142 82.6866 216.449 82.4189C216.769 82.1409 217.145 81.9333 217.55 81.8094C218.021 81.6663 218.511 81.5963 219.002 81.602C219.468 81.6012 219.933 81.649 220.389 81.7446C220.873 81.8476 221.349 81.9819 221.815 82.1466C221.769 82.4795 221.7 82.8089 221.608 83.1321C221.513 83.4838 221.387 83.8266 221.232 84.1564L220.376 83.8322C219.982 83.7117 219.57 83.6548 219.158 83.6637C219.016 83.649 218.872 83.649 218.73 83.6637C218.603 83.6886 218.481 83.7323 218.367 83.7933C218.261 83.8516 218.171 83.9365 218.108 84.0397C218.036 84.1613 218 84.3006 218.004 84.4417C217.995 84.5579 218.015 84.6745 218.063 84.7809C218.11 84.8873 218.184 84.9802 218.276 85.0511C218.472 85.1916 218.686 85.305 218.911 85.3882L219.586 85.6605C219.983 85.8161 220.337 85.9761 220.648 86.1403C220.946 86.2956 221.217 86.4969 221.452 86.7368C221.681 86.9739 221.858 87.2567 221.971 87.5667C222.239 88.3886 222.211 89.2784 221.893 90.0822C221.721 90.4783 221.459 90.829 221.128 91.1065C220.746 91.4144 220.305 91.6396 219.832 91.7678C219.281 91.9315 218.708 92.0103 218.134 92.0012C217.616 92.007 217.099 91.9592 216.591 91.8586C216.101 91.7499 215.62 91.6025 215.152 91.4178C215.193 91.0636 215.258 90.7127 215.347 90.3675C215.442 89.9957 215.554 89.6197 215.684 89.2393C216.386 89.5743 217.149 89.7639 217.926 89.7969C218.31 89.8154 218.693 89.7397 219.041 89.5765C219.174 89.5039 219.283 89.394 219.354 89.2604C219.426 89.1268 219.456 88.9753 219.443 88.8244C219.449 88.6904 219.422 88.5569 219.365 88.4354C219.311 88.3304 219.236 88.2377 219.145 88.1631C219.05 88.085 218.945 88.0196 218.834 87.9686L218.471 87.826L217.732 87.5667Z" fill="#39B715"/>
<path d="M223.216 84.5843C223.417 84.5365 223.62 84.5019 223.825 84.4806H224.409H224.979C225.184 84.5005 225.388 84.5352 225.588 84.5843V88.4743C225.546 88.8805 225.647 89.2887 225.873 89.6284C225.986 89.7382 226.12 89.8228 226.268 89.8765C226.415 89.9301 226.572 89.9517 226.729 89.9396H227.092H227.273V84.6103C227.474 84.5626 227.677 84.5279 227.883 84.5065H228.466H229.036C229.242 84.5264 229.445 84.5611 229.645 84.6103V91.5734L229.075 91.7419L228.375 91.8975L227.61 92.0142C227.351 92.028 227.092 92.028 226.833 92.0142C226.372 92.0139 225.913 91.9749 225.459 91.8975C225.045 91.8327 224.652 91.6778 224.305 91.4437C223.954 91.1902 223.681 90.8446 223.514 90.4453C223.295 89.8887 223.193 89.2926 223.216 88.6948V84.5843Z" fill="#39B715"/>
<path d="M231.161 84.6103L231.809 84.5325H232.548H233.287H233.909C234.801 84.481 235.691 84.6502 236.502 85.0252C236.779 85.1751 237.009 85.4011 237.162 85.6767C237.316 85.9523 237.388 86.266 237.37 86.5812C237.38 86.9015 237.295 87.2176 237.124 87.4889C236.951 87.7452 236.726 87.9617 236.463 88.1242C236.83 88.2484 237.163 88.4572 237.435 88.7336C237.568 88.8855 237.67 89.0622 237.734 89.2536C237.799 89.445 237.825 89.6473 237.811 89.8488C237.844 90.2083 237.771 90.5695 237.6 90.8877C237.43 91.2058 237.169 91.4668 236.852 91.6382C235.96 92.0181 234.993 92.1867 234.026 92.1309H232.73C232.203 92.1309 231.662 92.0834 231.109 91.9883L231.161 84.6103ZM234.194 87.3592C234.323 87.3751 234.454 87.3625 234.577 87.3221C234.7 87.2818 234.813 87.2148 234.907 87.1258C235.02 86.991 235.084 86.8219 235.089 86.646C235.084 86.4792 235.015 86.3209 234.894 86.2051C234.798 86.1253 234.686 86.0658 234.566 86.0301C234.445 85.9945 234.319 85.9834 234.194 85.9977H233.832H233.482V87.2943L234.194 87.3592ZM233.507 90.2767H234.22C234.515 90.3024 234.81 90.2343 235.063 90.0822C235.147 90.0192 235.215 89.9367 235.26 89.8419C235.305 89.747 235.326 89.6426 235.322 89.5376C235.338 89.4475 235.338 89.3554 235.322 89.2653C235.286 89.1715 235.223 89.0904 235.141 89.0319C235.035 88.9584 234.916 88.9057 234.791 88.8763C234.593 88.85 234.392 88.85 234.194 88.8763H233.546L233.507 90.2767Z" fill="#39B715"/>
<path d="M181.465 376.166H181.634C181.76 376.144 181.88 376.097 181.988 376.029C182.096 375.96 182.19 375.871 182.263 375.766C182.337 375.661 182.389 375.543 182.416 375.418C182.444 375.293 182.447 375.164 182.424 375.038C178.458 352.683 175.088 336.384 172.392 326.607C172.357 326.484 172.299 326.368 172.221 326.267C172.142 326.166 172.044 326.082 171.933 326.018C171.822 325.955 171.699 325.915 171.572 325.899C171.445 325.883 171.316 325.892 171.192 325.926C171.069 325.96 170.954 326.019 170.853 326.097C170.752 326.176 170.667 326.274 170.604 326.385C170.541 326.497 170.5 326.619 170.484 326.746C170.468 326.873 170.478 327.002 170.512 327.126C173.182 336.851 176.54 353.059 180.506 375.388C180.551 375.609 180.671 375.807 180.846 375.949C181.021 376.091 181.24 376.167 181.465 376.166Z" fill="white"/>
<path d="M450.736 384.374L453.898 381.871L451.306 380.082L450.736 384.374Z" fill="#39B715"/>
<path d="M450.735 385.346C450.955 385.348 451.17 385.275 451.344 385.139L454.507 382.636C454.63 382.546 454.73 382.428 454.799 382.291C454.868 382.155 454.904 382.004 454.904 381.852C454.904 381.699 454.868 381.548 454.799 381.412C454.73 381.276 454.63 381.157 454.507 381.067L451.914 379.278C451.776 379.186 451.617 379.131 451.452 379.118C451.287 379.104 451.122 379.134 450.971 379.202C450.82 379.271 450.69 379.377 450.592 379.511C450.494 379.644 450.431 379.801 450.411 379.965L449.892 384.257C449.876 384.393 449.888 384.531 449.929 384.662C449.969 384.793 450.037 384.914 450.128 385.017C450.218 385.119 450.33 385.202 450.454 385.259C450.579 385.316 450.714 385.345 450.851 385.346H450.735ZM452.251 381.936L451.979 382.156V381.793L452.251 381.936Z" fill="#39B715"/>
<path d="M570.975 251.893C574.226 251.893 577.414 251.007 580.199 249.33C582.983 247.652 585.257 245.247 586.777 242.373C588.297 239.5 589.004 236.266 588.824 233.019C588.644 229.773 587.582 226.638 585.753 223.95C585.68 223.844 585.588 223.754 585.481 223.684C585.374 223.615 585.254 223.566 585.128 223.543C585.002 223.519 584.873 223.521 584.748 223.547C584.622 223.574 584.504 223.625 584.398 223.697C584.293 223.77 584.202 223.862 584.133 223.969C584.063 224.077 584.015 224.196 583.991 224.322C583.968 224.448 583.969 224.577 583.996 224.703C584.022 224.828 584.073 224.947 584.145 225.052C586.149 227.993 587.11 231.52 586.876 235.071C586.643 238.622 585.228 241.993 582.857 244.646C580.486 247.299 577.295 249.082 573.794 249.711C570.292 250.339 566.681 249.777 563.535 248.114C560.39 246.451 557.892 243.783 556.439 240.535C554.985 237.287 554.661 233.645 555.517 230.191C556.373 226.737 558.36 223.669 561.161 221.475C563.963 219.282 567.418 218.09 570.975 218.089C571.233 218.089 571.481 217.987 571.663 217.804C571.845 217.622 571.948 217.375 571.948 217.117C571.948 216.859 571.845 216.611 571.663 216.429C571.481 216.247 571.233 216.144 570.975 216.144C566.32 216.27 561.897 218.208 558.648 221.546C555.399 224.885 553.582 229.36 553.582 234.019C553.582 238.678 555.399 243.153 558.648 246.491C561.897 249.829 566.32 251.768 570.975 251.893Z" fill="#39B715"/>
<path d="M316.373 237.037C316.6 236.691 317.064 236.594 317.411 236.821C317.757 237.048 317.854 237.513 317.627 237.859L316.373 237.037ZM264.502 237.448L264.82 236.769L264.502 237.448ZM317 237.448C317.627 237.859 317.627 237.86 317.626 237.861C317.626 237.861 317.626 237.862 317.625 237.862C317.624 237.864 317.623 237.866 317.622 237.867C317.619 237.871 317.616 237.876 317.612 237.882C317.604 237.895 317.592 237.911 317.578 237.932C317.549 237.974 317.507 238.032 317.452 238.105C317.341 238.252 317.178 238.459 316.958 238.712C316.518 239.217 315.851 239.908 314.925 240.671C313.071 242.199 310.187 244.013 306.029 245.219C297.704 247.634 284.388 247.581 264.184 238.128L264.82 236.769C284.8 246.117 297.733 246.064 305.611 243.779C309.555 242.635 312.26 240.924 313.971 239.514C314.827 238.808 315.436 238.176 315.826 237.727C316.022 237.503 316.162 237.324 316.252 237.204C316.297 237.145 316.329 237.1 316.349 237.071C316.359 237.057 316.366 237.047 316.37 237.041C316.372 237.038 316.373 237.037 316.374 237.036C316.374 237.036 316.374 237.036 316.374 237.036C316.374 237.036 316.373 237.036 316.373 237.036C316.373 237.037 316.373 237.037 317 237.448ZM264.184 238.128C254.463 233.579 246.313 228.953 240.593 225.464C237.732 223.719 235.478 222.258 233.937 221.232C233.167 220.718 232.575 220.314 232.175 220.038C231.975 219.899 231.823 219.793 231.721 219.721C231.669 219.685 231.631 219.658 231.604 219.639C231.591 219.63 231.581 219.623 231.575 219.618C231.571 219.615 231.569 219.614 231.567 219.612C231.566 219.612 231.565 219.611 231.565 219.611C231.564 219.611 231.564 219.61 231.564 219.61C231.564 219.61 231.564 219.61 232 219C232.436 218.39 232.436 218.39 232.436 218.39C232.436 218.39 232.436 218.39 232.436 218.39C232.437 218.39 232.437 218.391 232.438 218.391C232.439 218.392 232.442 218.394 232.445 218.396C232.451 218.4 232.46 218.407 232.472 218.415C232.497 218.433 232.534 218.459 232.584 218.494C232.683 218.564 232.832 218.668 233.028 218.804C233.421 219.076 234.006 219.475 234.769 219.983C236.294 220.999 238.532 222.45 241.374 224.183C247.058 227.651 255.159 232.249 264.82 236.769L264.184 238.128Z" fill="#27449B"/>
<rect x="182" y="130" width="26" height="81" fill="white"/>
<path d="M42.6369 225.306C42.4647 225.305 42.2958 225.26 42.1467 225.174C41.9977 225.088 41.8739 224.965 41.7875 224.817C41.7011 224.669 41.6552 224.501 41.6543 224.33C41.6535 224.159 41.6977 223.99 41.7826 223.841C50.1673 209.396 60.8915 199.474 67.226 200.311C69.1606 200.589 70.9559 201.473 72.3515 202.834C74.0337 204.233 75.6239 205.553 80.2369 205.056C81.2226 204.952 82.7996 201.134 84.0613 197.971C85.41 194.459 86.9905 191.04 88.7925 187.735C92.8141 180.689 97.519 173.107 102.487 172.44C103.389 172.34 104.301 172.458 105.148 172.784C105.994 173.109 106.749 173.632 107.349 174.309C113.001 179.983 124.842 189.657 124.96 189.748C125.06 189.834 125.142 189.939 125.202 190.056C125.261 190.173 125.297 190.301 125.307 190.432C125.316 190.564 125.3 190.695 125.259 190.82C125.217 190.945 125.151 191.06 125.065 191.16C124.979 191.26 124.874 191.341 124.756 191.4C124.638 191.46 124.509 191.495 124.377 191.505C124.245 191.514 124.113 191.498 123.988 191.457C123.862 191.416 123.746 191.35 123.646 191.265C123.528 191.16 111.608 181.434 105.877 175.682C105.491 175.221 104.996 174.86 104.437 174.633C103.878 174.405 103.272 174.316 102.671 174.375C98.2418 174.963 93.1557 183.892 90.4221 188.755C88.6658 191.984 87.1248 195.325 85.8092 198.755C83.8379 203.618 82.5236 206.821 80.3814 207.056C74.9668 207.658 72.8772 205.919 71.0504 204.442C69.9426 203.323 68.4987 202.593 66.9369 202.363C62.1663 201.749 52.0861 210.05 43.4385 224.953C43.3413 225.069 43.2184 225.161 43.0793 225.223C42.9402 225.284 42.7888 225.312 42.6369 225.306Z" fill="#27449B"/>
<path d="M266.293 374.058C266.061 374.055 265.837 373.97 265.662 373.818C265.486 373.667 265.37 373.459 265.334 373.231C265.298 373.002 265.344 372.769 265.464 372.571C265.584 372.373 265.771 372.224 265.991 372.15C274.612 369.339 279.54 361.692 279.856 350.724C279.856 350.464 279.96 350.214 280.145 350.031C280.329 349.847 280.58 349.743 280.841 349.743C281.103 349.743 281.354 349.847 281.538 350.031C281.723 350.214 281.827 350.464 281.827 350.724C281.485 362.489 275.939 370.908 266.608 373.967C266.509 374.015 266.402 374.045 266.293 374.058Z" fill="#27449B"/>
<path d="M84.8781 264.759C84.6319 264.76 84.3941 264.669 84.2117 264.505C84.0293 264.34 83.9154 264.114 83.8924 263.87C83.6845 261.481 82.7999 259.2 81.3415 257.291C79.883 255.382 77.9103 253.924 75.6522 253.085C72.1695 251.778 70.3953 248.523 70.2639 243.176C70.1456 238.274 70.0405 234.025 62.1026 232.809C61.9692 232.796 61.84 232.756 61.7229 232.691C61.6057 232.627 61.503 232.539 61.421 232.434C61.339 232.328 61.2795 232.207 61.246 232.078C61.2126 231.949 61.206 231.815 61.2265 231.683C61.2471 231.551 61.2944 231.425 61.3657 231.313C61.4369 231.2 61.5305 231.102 61.6408 231.027C61.7511 230.951 61.8757 230.899 62.0071 230.872C62.1384 230.846 62.2737 230.847 62.4048 230.875C71.9592 232.365 72.1038 238.091 72.2352 243.124C72.3535 247.647 73.6546 250.222 76.3488 251.242C78.9534 252.21 81.2286 253.894 82.9104 256.096C84.5922 258.299 85.6117 260.931 85.8506 263.687C85.8725 263.945 85.7908 264.201 85.6234 264.4C85.4559 264.598 85.2163 264.722 84.9569 264.746L84.8781 264.759Z" fill="#27449B"/>
<path d="M139.324 368.999C132.731 368.912 126.256 367.252 120.443 364.158C114.629 361.064 109.648 356.627 105.916 351.221C90.9603 330.121 76.0175 282.158 75.873 281.675C74.2959 276.576 73.4679 276.093 71.0235 274.655L69.7092 273.896C65.7666 271.491 64.0712 267.791 61.2588 255.935C61.2242 255.808 61.2158 255.675 61.2339 255.544C61.252 255.414 61.2964 255.289 61.3643 255.176C61.4323 255.063 61.5224 254.964 61.6293 254.887C61.7363 254.809 61.8578 254.754 61.9867 254.724C62.1156 254.694 62.2493 254.69 62.3797 254.713C62.5101 254.735 62.6346 254.784 62.7457 254.856C62.8568 254.927 62.9523 255.02 63.0265 255.129C63.1007 255.238 63.1521 255.361 63.1775 255.49C66.0294 267.491 67.6328 270.301 70.7475 272.223L71.9697 272.955C74.9004 274.668 75.9913 275.57 77.7129 281.086C77.8575 281.57 92.7082 329.233 107.493 350.07C121.398 369.679 144.095 369.274 152.9 363.548C153.119 363.406 153.387 363.356 153.643 363.41C153.9 363.464 154.124 363.617 154.267 363.836C154.41 364.054 154.459 364.32 154.405 364.575C154.351 364.83 154.197 365.053 153.978 365.195C149.555 367.821 144.472 369.14 139.324 368.999Z" fill="#27449B"/>
<path d="M82.8132 251.202C82.6199 251.202 82.431 251.145 82.2698 251.039C82.1086 250.933 81.9824 250.782 81.9067 250.605C81.8311 250.429 81.8094 250.233 81.8444 250.044C81.8794 249.855 81.9695 249.681 82.1035 249.542C83.5755 248.039 84.732 246.731 85.5599 245.882C85.7404 245.715 85.977 245.622 86.2232 245.62C86.4694 245.618 86.7073 245.708 86.8902 245.872C87.0731 246.036 87.1878 246.262 87.2116 246.506C87.2354 246.749 87.1666 246.993 87.0187 247.189C86.2302 248.052 85.008 249.372 83.5097 250.902C83.4194 250.995 83.3113 251.07 83.1918 251.121C83.0722 251.173 82.9435 251.2 82.8132 251.202Z" fill="#27449B"/>
<path d="M87.7016 256.222C87.5068 256.222 87.3164 256.164 87.1545 256.057C86.9925 255.949 86.8663 255.796 86.7918 255.617C86.7172 255.438 86.6977 255.241 86.7357 255.051C86.7737 254.861 86.8674 254.686 87.0051 254.549C89.5753 251.778 91.6949 248.624 93.2871 245.202C93.4076 244.98 93.6094 244.813 93.8504 244.736C94.0915 244.658 94.3533 244.676 94.5816 244.785C94.8099 244.895 94.9871 245.087 95.0764 245.323C95.1657 245.559 95.1603 245.82 95.0613 246.052C93.3735 249.672 91.1251 253.007 88.3981 255.935C88.2135 256.119 87.9629 256.222 87.7016 256.222Z" fill="#27449B"/>
<path d="M93.603 259.373C93.4049 259.373 93.2113 259.313 93.0476 259.202C92.8839 259.091 92.7576 258.934 92.6853 258.75C92.6129 258.567 92.5978 258.366 92.642 258.174C92.6861 257.982 92.7874 257.807 92.9327 257.673C95.6795 255.059 100.595 245.529 101.16 244.444C101.278 244.212 101.485 244.036 101.734 243.955C101.983 243.874 102.254 243.895 102.487 244.012C102.721 244.13 102.898 244.336 102.979 244.583C103.06 244.831 103.039 245.101 102.921 245.333C101.988 247.15 97.2171 256.366 94.2995 259.111C94.1107 259.286 93.8606 259.38 93.603 259.373Z" fill="#27449B"/>
<path d="M127.378 319.663C127.221 319.662 127.066 319.624 126.926 319.551C126.787 319.478 126.667 319.373 126.576 319.245L96.4542 276.615C96.353 276.472 96.2923 276.304 96.2784 276.129C96.2646 275.955 96.2981 275.779 96.3754 275.622C98.024 272.267 98.8909 268.585 98.9114 264.85C98.9318 261.116 98.1054 257.425 96.4937 254.052L96.4017 253.921C96.3138 253.738 96.2852 253.533 96.3196 253.333C96.3541 253.133 96.45 252.949 96.5941 252.806C96.7383 252.662 96.9235 252.567 97.1244 252.533C97.3253 252.498 97.532 252.527 97.7159 252.614C98.281 252.915 104.103 263.491 98.373 275.988L128.167 318.147C128.27 318.293 128.33 318.465 128.342 318.644C128.354 318.822 128.317 319 128.235 319.159C128.152 319.318 128.027 319.452 127.874 319.545C127.721 319.638 127.545 319.688 127.365 319.689L127.378 319.663Z" fill="#27449B"/>
<path d="M201.25 183.447H201.171C200.912 183.427 200.671 183.306 200.501 183.11C200.331 182.914 200.246 182.659 200.264 182.401C200.553 178.65 201.145 173.904 202.038 168.283C202.091 168.038 202.235 167.822 202.443 167.679C202.65 167.537 202.905 167.479 203.154 167.517C203.403 167.556 203.628 167.688 203.782 167.886C203.936 168.085 204.008 168.334 203.983 168.584C203.103 174.153 202.511 178.846 202.222 182.545C202.203 182.789 202.092 183.017 201.912 183.184C201.732 183.351 201.496 183.445 201.25 183.447Z" fill="#27449B"/>
<path d="M215.932 227.842C211.096 227.842 207.245 226.835 206.089 225.031C203.46 221.005 201.528 214.037 200.595 205.422C200.575 205.291 200.582 205.158 200.615 205.03C200.649 204.902 200.708 204.781 200.789 204.677C200.87 204.572 200.972 204.484 201.088 204.42C201.204 204.355 201.332 204.314 201.464 204.3C201.597 204.286 201.731 204.299 201.858 204.337C201.985 204.376 202.103 204.44 202.205 204.525C202.307 204.611 202.39 204.716 202.45 204.834C202.51 204.952 202.545 205.081 202.553 205.213C203.447 213.54 205.287 220.207 207.745 223.972C209.203 226.221 221.11 227.11 230.914 222.783C231.033 222.727 231.162 222.696 231.293 222.69C231.424 222.685 231.555 222.705 231.678 222.751C231.801 222.796 231.913 222.866 232.009 222.955C232.105 223.044 232.181 223.152 232.235 223.271C232.288 223.39 232.317 223.519 232.32 223.649C232.322 223.78 232.299 223.909 232.251 224.031C232.202 224.152 232.13 224.262 232.038 224.356C231.947 224.449 231.837 224.523 231.716 224.574C226.728 226.705 221.361 227.816 215.932 227.842Z" fill="#27449B"/>
<path d="M201.633 206.298H201.475C201.291 206.298 196.862 205.644 194.904 203.291C192.946 200.938 197.533 189.081 200.253 182.114C200.349 181.871 200.538 181.676 200.778 181.572C201.019 181.468 201.291 181.463 201.535 181.558C201.779 181.654 201.974 181.841 202.079 182.08C202.184 182.319 202.189 182.59 202.093 182.833C198.873 190.99 195.811 200.677 196.481 202.102C197.625 203.514 200.634 204.206 201.738 204.35C201.98 204.389 202.199 204.517 202.352 204.708C202.504 204.899 202.58 205.14 202.564 205.384C202.547 205.627 202.44 205.856 202.263 206.025C202.086 206.194 201.852 206.291 201.607 206.298H201.633Z" fill="#27449B"/>
<path d="M220.254 241.999C219.999 241.999 219.754 241.902 219.57 241.726C219.387 241.551 219.278 241.311 219.268 241.058C219.063 236.324 218.519 231.61 217.638 226.953C217.612 226.827 217.61 226.696 217.634 226.57C217.658 226.443 217.707 226.322 217.777 226.214C217.848 226.106 217.94 226.013 218.047 225.94C218.154 225.867 218.274 225.816 218.401 225.789C218.528 225.763 218.658 225.761 218.786 225.785C218.913 225.809 219.035 225.857 219.143 225.927C219.252 225.998 219.346 226.089 219.419 226.195C219.492 226.302 219.544 226.421 219.57 226.547C220.479 231.294 221.037 236.1 221.239 240.927C221.245 241.056 221.224 241.185 221.18 241.306C221.135 241.427 221.067 241.538 220.979 241.632C220.891 241.727 220.785 241.804 220.668 241.858C220.55 241.912 220.423 241.942 220.293 241.947L220.254 241.999Z" fill="#27449B"/>
<path d="M250.481 239.751H250.349C250.092 239.715 249.859 239.58 249.702 239.374C249.544 239.168 249.475 238.909 249.508 238.653C251.072 227.253 252.137 218.534 252.137 218.456C252.171 218.201 252.305 217.971 252.508 217.813C252.712 217.656 252.969 217.584 253.225 217.613C253.481 217.642 253.716 217.77 253.879 217.969C254.041 218.168 254.119 218.422 254.095 218.678C254.095 218.769 253.07 227.502 251.467 238.914C251.432 239.149 251.313 239.362 251.131 239.516C250.95 239.67 250.719 239.753 250.481 239.751Z" fill="#27449B"/>
<path d="M209.971 185.535C210.177 183.64 209.244 181.985 207.888 181.84C206.531 181.694 205.264 183.112 205.058 185.007C204.853 186.902 205.785 188.556 207.142 188.702C208.499 188.848 209.765 187.43 209.971 185.535Z" fill="#27449B"/>
<path d="M202.566 212.704C202.304 212.704 202.054 212.6 201.869 212.416C201.684 212.233 201.58 211.983 201.58 211.723C201.58 211.463 201.684 211.214 201.869 211.03C202.054 210.846 202.304 210.743 202.566 210.743C205.996 210.573 208.848 208.037 209.137 205.893C209.172 205.639 209.305 205.408 209.508 205.251C209.712 205.093 209.969 205.021 210.225 205.05C210.481 205.079 210.716 205.207 210.879 205.406C211.041 205.605 211.119 205.86 211.095 206.115C210.714 209.475 206.876 212.494 202.71 212.651L202.566 212.704Z" fill="#27449B"/>
<path d="M219.123 135.732C204.667 136.19 191.866 150.334 194.337 163.472C196.807 176.61 211.987 178.31 217.244 178.166C220.621 178.074 220.976 193.029 220.976 193.029C220.976 193.029 225.891 192.127 226.995 187.8C228.099 183.473 233.737 180.78 237.299 185.186C240.86 189.591 237.207 201.291 230.189 202.18C231.596 203.548 233.289 204.591 235.147 205.235C237.005 205.878 238.982 206.108 240.939 205.906C240.939 205.906 239.625 213.409 242.253 216.861C246.525 222.456 259.68 220.848 259.68 220.848C259.68 220.848 257.354 204.886 261.638 199.448C265.923 194.01 275.07 181.526 274.452 158.871C273.756 132.556 241.452 120.411 219.123 135.732Z" fill="#27449B"/>
<path d="M132.95 288.76C132.799 288.759 132.651 288.723 132.516 288.655C132.056 288.433 120.885 282.877 102.723 266.04C102.607 265.96 102.51 265.857 102.437 265.737C102.365 265.617 102.319 265.484 102.303 265.345C102.287 265.206 102.301 265.065 102.344 264.932C102.387 264.799 102.459 264.677 102.553 264.573C102.648 264.47 102.763 264.388 102.892 264.332C103.022 264.277 103.161 264.25 103.302 264.253C103.442 264.255 103.58 264.288 103.707 264.348C103.834 264.408 103.946 264.495 104.037 264.602C121.963 281.204 133.252 286.825 133.357 286.89C133.555 286.989 133.713 287.151 133.807 287.35C133.901 287.549 133.925 287.774 133.875 287.988C133.824 288.202 133.704 288.394 133.531 288.531C133.359 288.669 133.145 288.745 132.924 288.747L132.95 288.76Z" fill="#27449B"/>
<path d="M33.3319 248.81C33.1076 248.809 32.8903 248.732 32.7159 248.592C32.5415 248.452 32.4203 248.257 32.3725 248.039C23.2912 205.357 22.8969 161.054 25.1574 152.975C25.9065 150.282 30.8348 150.217 45.449 149.994C60.0633 149.772 81.8531 149.445 114.512 146.386C114.761 146.38 115.004 146.468 115.191 146.633C115.378 146.798 115.495 147.027 115.519 147.275C115.542 147.522 115.47 147.769 115.317 147.966C115.165 148.163 114.942 148.294 114.696 148.334C81.9583 151.406 59.117 151.746 45.4753 151.942C35.3821 152.099 27.4178 152.217 27.0761 153.485C25.2756 160.021 24.9602 203.657 34.3175 247.607C34.3445 247.734 34.3462 247.864 34.3224 247.991C34.2987 248.117 34.25 248.238 34.1792 248.346C34.1084 248.455 34.0168 248.548 33.9098 248.62C33.8027 248.693 33.6823 248.744 33.5553 248.771L33.3319 248.81Z" fill="#39B715"/>
<path d="M45.0825 252.902C43.8783 252.949 42.6755 252.777 41.5341 252.392C37.9068 250.928 35.3835 229.175 32.5448 174.832C32.4002 171.983 32.2688 169.603 32.1768 167.891C31.9665 164.296 32.5053 161.995 33.8984 160.466C36.2903 157.851 40.8901 157.616 49.2223 157.237C54.8078 156.975 62.4435 156.622 72.1162 155.367C86.047 153.55 111.359 150.387 118.022 149.628C118.605 149.537 119.2 149.573 119.767 149.734C120.335 149.894 120.86 150.175 121.308 150.557C124.015 152.91 124.146 159.054 124.344 168.335C124.422 171.943 124.514 176.035 124.777 180.349C125.54 192.611 126.919 236.156 125.632 239.176C123.594 243.921 113.422 244.849 100.543 246.026C93.709 246.653 85.9681 247.333 78.753 248.732C78.5051 248.761 78.2552 248.696 78.0538 248.549C77.8523 248.403 77.7143 248.186 77.6676 247.942C77.6209 247.698 77.6689 247.445 77.8021 247.235C77.9353 247.025 78.1436 246.873 78.385 246.81C85.6921 245.411 93.4855 244.705 100.359 244.078C111.609 243.045 122.241 242.078 123.818 238.417C124.764 235.803 123.673 194.376 122.806 180.493C122.53 176.14 122.451 172.035 122.372 168.401C122.201 160.27 122.057 153.838 120.007 152.06C119.765 151.859 119.482 151.714 119.178 151.635C118.873 151.555 118.555 151.544 118.246 151.602C111.596 152.361 86.2836 155.524 72.3659 157.341C62.6143 158.649 54.9261 158.975 49.3012 159.224C41.7444 159.577 37.184 159.786 35.3441 161.838C34.3321 162.949 33.9642 164.806 34.135 167.839C34.2402 169.564 34.3584 171.93 34.503 174.793C37.0395 223.41 39.6679 248.928 42.2964 250.614C46.1339 252.157 60.5641 248.47 65.8079 246.901C66.0588 246.827 66.3293 246.855 66.5598 246.978C66.7902 247.102 66.9617 247.312 67.0367 247.562C67.1116 247.811 67.0838 248.08 66.9593 248.309C66.8349 248.539 66.624 248.709 66.373 248.784C64.7959 249.268 52.2713 252.902 45.0825 252.902Z" fill="#27449B"/>
<path d="M56.1329 192.402C59.2104 192.402 61.7052 189.435 61.7052 185.774C61.7052 182.114 59.2104 179.146 56.1329 179.146C53.0553 179.146 50.5605 182.114 50.5605 185.774C50.5605 189.435 53.0553 192.402 56.1329 192.402Z" fill="#39B715"/>
<path d="M74.7555 174.283C74.3104 174.279 73.8681 174.213 73.4413 174.087C70.5369 173.238 68.6312 169.943 68.3552 165.289C67.869 157.341 67.6587 143.367 71.654 139.144C72.0288 138.727 72.4889 138.395 73.0034 138.17C73.518 137.944 74.075 137.831 74.6372 137.837C80.801 137.837 81.4844 149.38 81.5107 149.877C81.5178 150.006 81.4992 150.135 81.4561 150.256C81.413 150.378 81.3462 150.49 81.2596 150.586C81.1729 150.682 81.0681 150.76 80.951 150.815C80.834 150.871 80.7071 150.903 80.5776 150.91C80.317 150.92 80.0624 150.829 79.8684 150.656C79.6744 150.482 79.5563 150.24 79.5393 149.981C79.3816 147.145 78.2251 139.798 74.6372 139.798C74.3435 139.805 74.0545 139.874 73.7894 140C73.5244 140.126 73.2893 140.307 73.0996 140.53C70.5895 143.144 69.5643 152.4 70.3397 165.211C70.5632 169.015 71.9431 171.643 74.0196 172.244C74.5145 172.406 75.048 172.41 75.5452 172.255C76.0425 172.1 76.4787 171.795 76.7926 171.381C79.1188 168.218 78.1068 155.877 76.5823 150.896C76.4115 150.334 76.0698 149.811 75.6887 149.877C74.7818 150.073 73.0602 152.805 73.9276 159.681C73.944 159.809 73.9349 159.939 73.9008 160.063C73.8668 160.188 73.8084 160.304 73.7291 160.406C73.6498 160.508 73.551 160.594 73.4385 160.658C73.326 160.722 73.2019 160.763 73.0733 160.779C72.9447 160.796 72.8142 160.787 72.6891 160.753C72.5641 160.719 72.447 160.661 72.3445 160.582C72.2419 160.503 72.156 160.405 72.0917 160.293C72.0273 160.181 71.9858 160.058 71.9694 159.93C71.0231 152.348 72.9419 148.465 75.2812 147.968C76.4378 147.72 77.9097 148.36 78.4748 150.334C79.9336 155.119 81.4055 168.453 78.396 172.558C77.972 173.114 77.4202 173.561 76.7867 173.861C76.1533 174.161 75.4568 174.306 74.7555 174.283Z" fill="#27449B"/>
<path d="M265.07 353.9C258.67 397.04 256.659 413.328 256.659 413.328C233.371 448.206 189.173 417.42 149.418 418.126C150.732 408.975 155.043 380.869 159.932 353.116C152.311 352.991 144.837 351.011 138.163 347.349C131.489 343.687 125.819 338.454 121.648 332.108C121.648 332.108 138.339 288.786 157.33 271.53C169.815 260.183 186.059 254.536 208.085 252.706C206.482 250.091 213.513 240.705 233.765 237.149C252.414 233.868 260.628 245.267 258.512 253.294C269.026 252.601 274.467 256.784 280.854 266.523C293.681 286.132 291.959 330.278 291.118 345.521C291.052 345.521 282.116 352.632 265.07 353.9Z" fill="#27449B"/>
<path d="M266.5 346C271.3 349.2 281.5 348.333 291.5 341C292 342 291.5 346 291 346C287 351.5 267.5 355 265 354.5C266 348 265.5 350 266.5 346Z" fill="#39B715"/>
<path d="M160.5 344.5C155.7 347.7 133.5 334.442 123.5 327.109C123.1 326.309 121.667 330.109 121 332.109C127.5 350.109 160 354.391 160 353C160.5 347.5 163.5 345.891 160.5 344.5Z" fill="#39B715"/>
<path d="M265.959 354H265.818C265.566 353.958 265.34 353.809 265.189 353.585C265.038 353.361 264.973 353.081 265.01 352.805C271.421 304.889 272.972 291.49 268.536 270.33C268.502 270.193 268.494 270.05 268.512 269.91C268.529 269.77 268.573 269.635 268.639 269.513C268.705 269.392 268.793 269.286 268.897 269.203C269.002 269.119 269.12 269.06 269.246 269.027C269.372 268.995 269.502 268.991 269.629 269.016C269.757 269.04 269.878 269.092 269.986 269.169C270.095 269.246 270.188 269.346 270.26 269.463C270.333 269.581 270.383 269.713 270.408 269.852C274.921 291.377 273.408 304.889 266.908 353.114C266.871 353.361 266.756 353.586 266.582 353.748C266.408 353.911 266.187 354 265.959 354Z" fill="white"/>
<path d="M159.977 352H159.808C159.682 351.976 159.561 351.926 159.452 351.853C159.344 351.779 159.25 351.683 159.177 351.571C159.103 351.458 159.051 351.331 159.023 351.197C158.995 351.062 158.993 350.924 159.015 350.788C162.994 326.777 166.375 309.27 169.079 298.769C169.113 298.636 169.172 298.512 169.251 298.404C169.33 298.295 169.428 298.204 169.539 298.137C169.651 298.069 169.774 298.025 169.902 298.008C170.029 297.991 170.158 298.001 170.282 298.038C170.406 298.074 170.522 298.137 170.623 298.221C170.724 298.306 170.809 298.411 170.873 298.53C170.936 298.65 170.977 298.782 170.993 298.918C171.008 299.055 170.999 299.193 170.965 299.326C168.286 309.772 164.918 327.181 160.939 351.164C160.894 351.401 160.774 351.614 160.598 351.767C160.423 351.919 160.203 352.002 159.977 352Z" fill="white"/>
<path d="M216.482 255.163C213.397 255.287 210.32 254.761 207.453 253.621C207.332 253.57 207.223 253.496 207.131 253.403C207.039 253.31 206.967 253.199 206.919 253.078C206.871 252.957 206.847 252.827 206.85 252.696C206.853 252.566 206.881 252.437 206.935 252.318C206.988 252.199 207.065 252.092 207.161 252.002C207.256 251.913 207.369 251.843 207.492 251.798C207.615 251.752 207.746 251.732 207.877 251.737C208.008 251.743 208.136 251.774 208.255 251.83C212.658 253.791 218.664 253.255 226.273 252.601C233.355 251.824 240.488 251.618 247.603 251.987C247.733 251.995 247.859 252.029 247.975 252.086C248.092 252.144 248.195 252.223 248.281 252.32C248.366 252.417 248.432 252.53 248.473 252.652C248.515 252.775 248.532 252.904 248.523 253.033C248.514 253.161 248.48 253.287 248.423 253.403C248.365 253.518 248.286 253.622 248.188 253.707C248.09 253.792 247.977 253.857 247.854 253.898C247.731 253.939 247.601 253.956 247.472 253.948C240.457 253.589 233.425 253.795 226.444 254.562C222.777 254.876 219.465 255.163 216.482 255.163Z" fill="white"/>
</g>
<defs>
<clipPath id="clip0_418_6461">
<rect width="622" height="430" fill="white" transform="matrix(-1 0 0 1 622 0)"/>
</clipPath>
</defs>
</svg>
