<svg width="56" height="56" viewBox="0 0 56 56" fill="none" xmlns="http://www.w3.org/2000/svg">
<path d="M19.9537 13.6588L19.9537 13.6588C19.9953 13.2657 20.1905 12.905 20.4966 12.655C20.8026 12.4052 21.1947 12.2862 21.5879 12.3237C25.8514 12.7628 30.1488 12.7628 34.4123 12.3237C34.8055 12.2862 35.1976 12.4052 35.5035 12.655C35.8097 12.905 36.0048 13.2657 36.0465 13.6588L36.2951 13.6324L36.0465 13.6588C36.0673 13.8548 36.0492 14.053 35.9934 14.242C35.9375 14.4311 35.8449 14.6072 35.7209 14.7605L35.9153 14.9177L35.7209 14.7605C35.597 14.9137 35.444 15.041 35.2708 15.1351C35.0976 15.2291 34.9077 15.2881 34.7117 15.3088C32.4819 15.5388 30.2418 15.6552 28.0001 15.6574C25.7584 15.6552 23.5183 15.5388 21.2884 15.3088C21.0925 15.2881 20.9025 15.2291 20.7294 15.1351C20.5562 15.041 20.4032 14.9137 20.2792 14.7605C20.1552 14.6072 20.0626 14.4311 20.0068 14.242C19.9509 14.053 19.9329 13.8548 19.9537 13.6588Z" fill="#27449B" stroke="white" stroke-width="0.5"/>
<path d="M49.625 50.75V51H49.875H52.5C52.8978 51 53.2794 51.158 53.5607 51.4393C53.842 51.7206 54 52.1022 54 52.5C54 52.8978 53.842 53.2794 53.5607 53.5607C53.2794 53.842 52.8978 54 52.5 54H38.5C38.1022 54 37.7206 53.842 37.4393 53.5607C37.158 53.2794 37 52.8978 37 52.5C37 52.1022 37.158 51.7206 37.4393 51.4393C37.7206 51.158 38.1022 51 38.5 51H41.125H41.375V50.75V21.4375V21.1325L41.0759 21.1924C36.7706 22.0544 32.3911 22.4924 28.0003 22.5C23.6084 22.4809 19.2289 22.0312 14.9247 21.1575L14.625 21.0967V21.4025V50.75V51H14.875H17.5C17.8978 51 18.2794 51.158 18.5607 51.4393C18.842 51.7206 19 52.1022 19 52.5C19 52.8978 18.842 53.2794 18.5607 53.5607C18.2794 53.842 17.8978 54 17.5 54H3.5C3.10217 54 2.72064 53.842 2.43934 53.5607C2.15804 53.2794 2 52.8978 2 52.5C2 52.1022 2.15804 51.7206 2.43934 51.4393C2.72064 51.158 3.10217 51 3.5 51H6.125H6.375V50.75V3.5C6.375 3.10218 6.53304 2.72064 6.81434 2.43934C7.09564 2.15804 7.47718 2 7.875 2H13.125C13.5228 2 13.9044 2.15804 14.1857 2.43934C14.467 2.72064 14.625 3.10218 14.625 3.5V5.565V5.76749L14.8231 5.80955C23.5109 7.65422 32.4891 7.65422 41.1769 5.80955L41.375 5.76749V5.565V3.5C41.375 3.10217 41.533 2.72064 41.8143 2.43934C42.0956 2.15804 42.4772 2 42.875 2H48.125C48.5228 2 48.9044 2.15804 49.1857 2.43934C49.467 2.72064 49.625 3.10217 49.625 3.5V50.75ZM9.375 50.75V51H9.625H11.375H11.625V50.75V5.25V5H11.375H9.625H9.375V5.25V50.75ZM14.625 17.815V18.0172L14.8227 18.0595C23.5081 19.9157 32.4864 19.9277 41.1766 18.0946L41.375 18.0528V17.85V9.1875V8.88248L41.0759 8.94237C36.7706 9.8044 32.3911 10.2424 28.0003 10.25C23.6084 10.2309 19.2289 9.78124 14.9247 8.9075L14.625 8.84665V9.1525V17.815ZM44.625 5H44.375V5.25V50.75V51H44.625H46.375H46.625V50.75V5.25V5H46.375H44.625Z" fill="#27449B" stroke="white" stroke-width="0.5"/>
<path d="M34.6325 39.7776C33.8211 40.7481 32.8066 41.5288 31.6606 42.0644C30.5146 42.6001 29.265 42.8777 28 42.8777C26.735 42.8777 25.4854 42.6001 24.3394 42.0644C23.1934 41.5288 22.1789 40.7481 21.3675 39.7776C20.5601 40.9451 20.1268 42.3306 20.125 43.7501V44.6251C20.125 45.7854 20.5859 46.8982 21.4064 47.7187C22.2269 48.5392 23.3397 49.0001 24.5 49.0001H31.5C32.0745 49.0001 32.6434 48.8869 33.1742 48.6671C33.705 48.4472 34.1873 48.1249 34.5936 47.7187C34.9998 47.3124 35.3221 46.8301 35.542 46.2993C35.7618 45.7685 35.875 45.1996 35.875 44.6251V43.7501C35.8732 42.3306 35.4399 40.9451 34.6325 39.7776Z" fill="#39B715"/>
<path d="M28 39.375C30.8995 39.375 33.25 37.0245 33.25 34.125C33.25 31.2255 30.8995 28.875 28 28.875C25.1005 28.875 22.75 31.2255 22.75 34.125C22.75 37.0245 25.1005 39.375 28 39.375Z" fill="#39B715"/>
</svg>
