<svg width="77" height="77" viewBox="0 0 77 77" fill="none" xmlns="http://www.w3.org/2000/svg">
<path d="M60.75 27.125H44.4375V19.875H48.9688C50.1705 19.875 51.3231 19.3976 52.1728 18.5478C53.0226 17.6981 53.5 16.5455 53.5 15.3438C53.5 14.142 53.0226 12.9894 52.1728 12.1397C51.3231 11.2899 50.1705 10.8125 48.9688 10.8125H29.0312C27.8295 10.8125 26.6769 11.2899 25.8272 12.1397C24.9774 12.9894 24.5 14.142 24.5 15.3438C24.5 16.5455 24.9774 17.6981 25.8272 18.5478C26.6769 19.3976 27.8295 19.875 29.0312 19.875H33.5625V27.125H17.25C15.8079 27.125 14.4248 27.6979 13.4051 28.7176C12.3854 29.7373 11.8125 31.1204 11.8125 32.5625V59.75C11.8125 61.1921 12.3854 62.5752 13.4051 63.5949C14.4248 64.6146 15.8079 65.1875 17.25 65.1875H60.75C62.1921 65.1875 63.5752 64.6146 64.5949 63.5949C65.6146 62.5752 66.1875 61.1921 66.1875 59.75V32.5625C66.1875 31.1204 65.6146 29.7373 64.5949 28.7176C63.5752 27.6979 62.1921 27.125 60.75 27.125ZM28.125 15.3438C28.125 15.1034 28.2205 14.8729 28.3904 14.7029C28.5604 14.533 28.7909 14.4375 29.0312 14.4375H48.9688C49.2091 14.4375 49.4396 14.533 49.6096 14.7029C49.7795 14.8729 49.875 15.1034 49.875 15.3438C49.875 15.5841 49.7795 15.8146 49.6096 15.9846C49.4396 16.1545 49.2091 16.25 48.9688 16.25H29.0312C28.7909 16.25 28.5604 16.1545 28.3904 15.9846C28.2205 15.8146 28.125 15.5841 28.125 15.3438ZM37.1875 19.875H40.8125V27.125H37.1875V19.875ZM62.5625 59.75C62.5625 60.2307 62.3715 60.6917 62.0316 61.0316C61.6917 61.3715 61.2307 61.5625 60.75 61.5625H17.25C16.7693 61.5625 16.3083 61.3715 15.9684 61.0316C15.6285 60.6917 15.4375 60.2307 15.4375 59.75V32.5625C15.4375 32.0818 15.6285 31.6208 15.9684 31.2809C16.3083 30.941 16.7693 30.75 17.25 30.75H60.75C61.2307 30.75 61.6917 30.941 62.0316 31.2809C62.3715 31.6208 62.5625 32.0818 62.5625 32.5625V59.75Z" fill="#27449B"/>
<path d="M27.2188 50.6875C25.91 50.6805 24.6183 50.3901 23.4325 49.8363C22.2466 49.2825 21.1948 48.4784 20.3494 47.4794C19.5132 48.6886 19.0644 50.1235 19.0625 51.5937V52.5C19.0625 53.7018 19.5399 54.8543 20.3897 55.7041C21.2394 56.5538 22.392 57.0312 23.5938 57.0312H30.8438C32.0455 57.0312 33.1981 56.5538 34.0478 55.7041C34.8976 54.8543 35.375 53.7018 35.375 52.5V51.5937C35.3731 50.1235 34.9243 48.6886 34.0881 47.4794C33.2427 48.4784 32.1909 49.2825 31.005 49.8363C29.8192 50.3901 28.5275 50.6805 27.2188 50.6875Z" fill="#39B715"/>
<path d="M27.2188 47.0625C30.2218 47.0625 32.6562 44.628 32.6562 41.625C32.6562 38.622 30.2218 36.1875 27.2188 36.1875C24.2157 36.1875 21.7812 38.622 21.7812 41.625C21.7812 44.628 24.2157 47.0625 27.2188 47.0625Z" fill="#39B715"/>
<path d="M53.5 35.2812H42.625C41.6636 35.2812 40.7416 35.6632 40.0617 36.343C39.3819 37.0228 39 37.9448 39 38.9062V53.4062C39 54.3677 39.3819 55.2897 40.0617 55.9695C40.7416 56.6493 41.6636 57.0312 42.625 57.0312H53.5C54.4614 57.0312 55.3834 56.6493 56.0633 55.9695C56.7431 55.2897 57.125 54.3677 57.125 53.4062V38.9062C57.125 37.9448 56.7431 37.0228 56.0633 36.343C55.3834 35.6632 54.4614 35.2812 53.5 35.2812ZM49.875 52.0469H46.25C45.7693 52.0469 45.3083 51.8559 44.9684 51.516C44.6285 51.1761 44.4375 50.7151 44.4375 50.2344C44.4375 49.7537 44.6285 49.2927 44.9684 48.9527C45.3083 48.6128 45.7693 48.4219 46.25 48.4219H49.875C50.3557 48.4219 50.8167 48.6128 51.1566 48.9527C51.4965 49.2927 51.6875 49.7537 51.6875 50.2344C51.6875 50.7151 51.4965 51.1761 51.1566 51.516C50.8167 51.8559 50.3557 52.0469 49.875 52.0469ZM49.875 43.8906H46.25C45.7693 43.8906 45.3083 43.6997 44.9684 43.3598C44.6285 43.0198 44.4375 42.5588 44.4375 42.0781C44.4375 41.5974 44.6285 41.1364 44.9684 40.7965C45.3083 40.4566 45.7693 40.2656 46.25 40.2656H49.875C50.3557 40.2656 50.8167 40.4566 51.1566 40.7965C51.4965 41.1364 51.6875 41.5974 51.6875 42.0781C51.6875 42.5588 51.4965 43.0198 51.1566 43.3598C50.8167 43.6997 50.3557 43.8906 49.875 43.8906Z" fill="#39B715"/>
</svg>
