<svg width="77" height="77" viewBox="0 0 77 77" fill="none" xmlns="http://www.w3.org/2000/svg">
<path d="M62.5 52.75H61.625V30C61.625 29.5359 61.4406 29.0908 61.1124 28.7626C60.7842 28.4344 60.3391 28.25 59.875 28.25H56.375C55.9109 28.25 55.4658 28.4344 55.1376 28.7626C54.8094 29.0908 54.625 29.5359 54.625 30C54.625 30.4641 54.8094 30.9092 55.1376 31.2374C55.4658 31.5656 55.9109 31.75 56.375 31.75H58.125V52.75H17.875V31.75H19.625C20.0891 31.75 20.5342 31.5656 20.8624 31.2374C21.1906 30.9092 21.375 30.4641 21.375 30C21.375 29.5359 21.1906 29.0908 20.8624 28.7626C20.5342 28.4344 20.0891 28.25 19.625 28.25H16.125C15.6609 28.25 15.2158 28.4344 14.8876 28.7626C14.5594 29.0908 14.375 29.5359 14.375 30V52.75H13.5C13.0359 52.75 12.5908 52.9344 12.2626 53.2626C11.9344 53.5907 11.75 54.0359 11.75 54.5V61.5C11.75 61.9641 11.9344 62.4092 12.2626 62.7374C12.5908 63.0656 13.0359 63.25 13.5 63.25H62.5C62.9641 63.25 63.4092 63.0656 63.7374 62.7374C64.0656 62.4092 64.25 61.9641 64.25 61.5V54.5C64.25 54.0359 64.0656 53.5907 63.7374 53.2626C63.4092 52.9344 62.9641 52.75 62.5 52.75ZM60.75 59.75H15.25V56.25H60.75V59.75Z" fill="#27449B"/>
<path d="M48.5 47.5H52C52.4641 47.5 52.9092 47.3156 53.2374 46.9874C53.5656 46.6592 53.75 46.2141 53.75 45.75C53.75 45.2859 53.5656 44.8408 53.2374 44.5126C52.9092 44.1844 52.4641 44 52 44H48.5C48.0359 44 47.5908 44.1844 47.2626 44.5126C46.9344 44.8408 46.75 45.2859 46.75 45.75C46.75 46.2141 46.9344 46.6592 47.2626 46.9874C47.5908 47.3156 48.0359 47.5 48.5 47.5Z" fill="#27449B"/>
<path d="M24 47.5H27.5C27.9641 47.5 28.4092 47.3156 28.7374 46.9874C29.0656 46.6592 29.25 46.2141 29.25 45.75C29.25 45.2859 29.0656 44.8408 28.7374 44.5126C28.4092 44.1844 27.9641 44 27.5 44H24C23.5359 44 23.0908 44.1844 22.7626 44.5126C22.4344 44.8408 22.25 45.2859 22.25 45.75C22.25 46.2141 22.4344 46.6592 22.7626 46.9874C23.0908 47.3156 23.5359 47.5 24 47.5Z" fill="#27449B"/>
<path d="M35.655 34.69L24.875 29.3V33.5C24.8742 33.8347 24.9694 34.1626 25.1493 34.4449C25.3292 34.7272 25.5862 34.9519 25.89 35.0925L37.265 40.3425C37.4954 40.4491 37.7462 40.5043 38 40.5043C38.2538 40.5043 38.5046 40.4491 38.735 40.3425L50.11 35.0925C50.4138 34.9519 50.6708 34.7272 50.8507 34.4449C51.0307 34.1626 51.1258 33.8347 51.125 33.5V29.3L40.345 34.69C39.6168 35.0536 38.814 35.2428 38 35.2428C37.1861 35.2428 36.3832 35.0536 35.655 34.69Z" fill="#39B715"/>
<path d="M19.7124 22.8075L37.2124 31.5575C37.4567 31.6806 37.7264 31.7447 37.9999 31.7447C38.2735 31.7447 38.5432 31.6806 38.7874 31.5575L56.2874 22.8075C56.5741 22.6607 56.8147 22.4375 56.9826 22.1627C57.1506 21.8879 57.2395 21.5721 57.2395 21.25C57.2395 20.9279 57.1506 20.6121 56.9826 20.3373C56.8147 20.0625 56.5741 19.8394 56.2874 19.6925L38.7874 10.9425C38.5432 10.8194 38.2735 10.7553 37.9999 10.7553C37.7264 10.7553 37.4567 10.8194 37.2124 10.9425L19.7124 19.6925C19.4258 19.8394 19.1852 20.0625 19.0172 20.3373C18.8493 20.6121 18.7604 20.9279 18.7604 21.25C18.7604 21.5721 18.8493 21.8879 19.0172 22.1627C19.1852 22.4375 19.4258 22.6607 19.7124 22.8075Z" fill="#39B715"/>
</svg>
