<svg width="77" height="77" viewBox="0 0 77 77" fill="none" xmlns="http://www.w3.org/2000/svg">
<path d="M62.5 16.75H13.5C13.0359 16.75 12.5908 16.9344 12.2626 17.2626C11.9344 17.5908 11.75 18.0359 11.75 18.5V50C11.75 50.4641 11.9344 50.9092 12.2626 51.2374C12.5908 51.5656 13.0359 51.75 13.5 51.75H21.0075C21.4716 51.75 21.9167 51.5656 22.2449 51.2374C22.5731 50.9092 22.7575 50.4641 22.7575 50C22.7575 49.5359 22.5731 49.0908 22.2449 48.7626C21.9167 48.4344 21.4716 48.25 21.0075 48.25H15.25V20.25H60.75V48.25H54.9925C54.5284 48.25 54.0833 48.4344 53.7551 48.7626C53.4269 49.0908 53.2425 49.5359 53.2425 50C53.2425 50.4641 53.4269 50.9092 53.7551 51.2374C54.0833 51.5656 54.5284 51.75 54.9925 51.75H62.5C62.9641 51.75 63.4092 51.5656 63.7374 51.2374C64.0656 50.9092 64.25 50.4641 64.25 50V18.5C64.25 18.0359 64.0656 17.5908 63.7374 17.2626C63.4092 16.9344 62.9641 16.75 62.5 16.75Z" fill="#27449B"/>
<path d="M45 25.5H31C30.5359 25.5 30.0908 25.6844 29.7626 26.0126C29.4344 26.3408 29.25 26.7859 29.25 27.25C29.25 27.7141 29.4344 28.1592 29.7626 28.4874C30.0908 28.8156 30.5359 29 31 29H45C45.4641 29 45.9093 28.8156 46.2374 28.4874C46.5656 28.1592 46.75 27.7141 46.75 27.25C46.75 26.7859 46.5656 26.3408 46.2374 26.0126C45.9093 25.6844 45.4641 25.5 45 25.5Z" fill="#27449B"/>
<path d="M23.125 25.5H21.375C20.9109 25.5 20.4658 25.6844 20.1376 26.0126C19.8094 26.3408 19.625 26.7859 19.625 27.25C19.625 27.7141 19.8094 28.1592 20.1376 28.4874C20.4658 28.8156 20.9109 29 21.375 29H23.125C23.5891 29 24.0342 28.8156 24.3624 28.4874C24.6906 28.1592 24.875 27.7141 24.875 27.25C24.875 26.7859 24.6906 26.3408 24.3624 26.0126C24.0342 25.6844 23.5891 25.5 23.125 25.5Z" fill="#27449B"/>
<path d="M56.375 27.25C56.375 26.7859 56.1906 26.3408 55.8624 26.0126C55.5342 25.6844 55.0891 25.5 54.625 25.5H52.875C52.4109 25.5 51.9658 25.6844 51.6376 26.0126C51.3094 26.3408 51.125 26.7859 51.125 27.25C51.125 27.7141 51.3094 28.1592 51.6376 28.4874C51.9658 28.8156 52.4109 29 52.875 29H54.625C55.0891 29 55.5342 28.8156 55.8624 28.4874C56.1906 28.1592 56.375 27.7141 56.375 27.25Z" fill="#27449B"/>
<path d="M29.25 59.59V67.5C29.2509 67.7983 29.328 68.0914 29.4741 68.3515C29.6202 68.6117 29.8303 68.8301 30.0845 68.9862C30.3388 69.1422 30.6287 69.2307 30.9268 69.2432C31.2248 69.2557 31.5211 69.1917 31.7875 69.0575L38 65.96L44.2125 69.0575C44.4563 69.1824 44.7261 69.2484 45 69.25C45.3276 69.251 45.649 69.1601 45.9275 68.9875C46.1797 68.8299 46.3876 68.6106 46.5315 68.3503C46.6754 68.09 46.7506 67.7974 46.75 67.5V59.59C44.16 61.3205 41.115 62.2442 38 62.2442C34.885 62.2442 31.84 61.3205 29.25 59.59Z" fill="#39B715"/>
<path d="M38 58.75C40.4228 58.75 42.7912 58.0316 44.8057 56.6855C46.8202 55.3395 48.3904 53.4263 49.3175 51.1879C50.2447 48.9495 50.4873 46.4864 50.0146 44.1101C49.542 41.7339 48.3752 39.5511 46.6621 37.8379C44.9489 36.1248 42.7661 34.9581 40.3899 34.4854C38.0136 34.0127 35.5505 34.2553 33.3121 35.1825C31.0737 36.1097 29.1605 37.6798 27.8145 39.6943C26.4684 41.7088 25.75 44.0772 25.75 46.5C25.75 49.7489 27.0406 52.8647 29.3379 55.1621C31.6353 57.4594 34.7511 58.75 38 58.75ZM38 39.29C38.4641 39.29 38.9092 39.4744 39.2374 39.8026C39.5656 40.1308 39.75 40.5759 39.75 41.04V46.29C39.75 46.7541 39.5656 47.1993 39.2374 47.5274C38.9092 47.8556 38.4641 48.04 38 48.04C37.5359 48.04 37.0908 47.8556 36.7626 47.5274C36.4344 47.1993 36.25 46.7541 36.25 46.29V41.04C36.25 40.5759 36.4344 40.1308 36.7626 39.8026C37.0908 39.4744 37.5359 39.29 38 39.29ZM38 49.335C38.4641 49.335 38.9092 49.5194 39.2374 49.8476C39.5656 50.1758 39.75 50.6209 39.75 51.085V51.9775C39.75 52.4416 39.5656 52.8868 39.2374 53.2149C38.9092 53.5431 38.4641 53.7275 38 53.7275C37.5359 53.7275 37.0908 53.5431 36.7626 53.2149C36.4344 52.8868 36.25 52.4416 36.25 51.9775V51.085C36.25 50.6209 36.4344 50.1758 36.7626 49.8476C37.0908 49.5194 37.5359 49.335 38 49.335Z" fill="#39B715"/>
</svg>
