<svg width="593" height="516" viewBox="0 0 593 516" fill="none" xmlns="http://www.w3.org/2000/svg">
<g clip-path="url(#clip0_236_2017)">
<path d="M234.671 217.686C237.623 226.937 242.045 244.229 242.606 247.496C243.951 247.471 245.097 247.297 245.097 246.81C245.184 245.601 243.391 217.636 243.029 216.302C242.73 215.192 240.002 215.915 234.671 217.686Z" fill="#39B715"/>
<path d="M243.167 215.105C242.009 214.469 239.853 215.005 234.385 216.813C233.899 216.975 233.638 217.499 233.787 217.985C236.864 227.473 241.161 244.616 241.685 247.658C241.759 248.107 242.158 248.431 242.606 248.431V248.456C243.69 248.431 245.907 248.394 246.02 246.91C246.107 245.813 244.35 217.648 243.939 216.077C243.827 215.654 243.553 215.304 243.167 215.105ZM243.329 246.523C242.432 241.886 238.608 227.012 235.855 218.284C238.01 217.574 241.261 216.551 242.121 216.701C242.507 219.356 244.014 243.157 244.114 246.411C243.852 246.474 243.59 246.511 243.329 246.523Z" fill="#39B715"/>
<path d="M70.8652 256.173L71.4881 256.61L71.0895 255.812C71.0147 255.937 70.9524 256.049 70.8652 256.173Z" fill="#27449B"/>
<path d="M159.644 322.464H159.507C150.165 312.315 141.009 288.265 136.649 276.421C132.29 264.577 126.323 257.632 121.166 253.618C116.357 249.89 106.218 250.663 94.2842 254.403C94.9071 255.687 95.2932 257.084 95.4053 258.505C95.9908 266.222 90.4227 275.748 89.177 276.134C88.1805 276.446 84.1196 273.815 79.6227 269.514C78.7383 274.875 76.7452 281.732 72.2608 282.356C64.7868 283.39 61.0498 270.087 61.0498 270.087C61.0498 270.087 50.4741 274.401 45.1302 272.506C41.0195 271.06 45.8651 260.225 52.7661 253.057C37.7309 251.161 31.5649 255.176 25.7601 261.946C19.1456 269.713 7.61069 301.743 4.58372 314.435C1.55675 327.127 -1.89375 351.402 5.00725 359.231C11.9082 367.061 33.4707 357.311 36.3981 355.491C36.9088 355.179 37.3323 354.755 37.6437 354.244L37.9925 354.381C39.2756 355.578 41.6423 360.914 44.0589 367.036C44.8811 367.36 79.0248 380.239 96.8877 377.97C114.975 375.676 122.038 367.036 122.038 367.036C121.664 362.136 122.773 351.464 123.894 340.243C131.393 350.205 139.24 358.994 149.816 362.049C152.694 362.884 155.683 363.271 158.685 363.196C152.93 353.359 155.596 334.882 158.399 326.404C158.685 325.556 159.109 324.197 159.644 322.464Z" fill="#27449B"/>
<path d="M137.484 276.109C133.735 265.936 128.428 258.118 121.689 252.882C116.582 248.93 105.819 249.453 91.3571 254.353C91.3322 254.353 91.3072 254.366 91.2948 254.378C90.809 254.565 90.5723 255.101 90.7592 255.587C90.946 256.074 91.4816 256.311 91.9674 256.124C105.608 251.498 116.034 250.862 120.556 254.366C127.021 259.44 132.115 266.97 135.74 276.807C138.979 285.597 148.832 312.353 158.798 323.162C158.972 323.349 159.221 323.462 159.483 323.462V323.412C159.719 323.412 159.944 323.324 160.118 323.162C160.492 322.813 160.517 322.215 160.168 321.841C150.464 311.306 140.71 284.837 137.497 276.109H137.484Z" fill="#27449B"/>
<path d="M465.045 313.874C463.825 314.011 462.978 315.507 463.165 317.215C463.351 318.923 464.497 320.208 465.718 320.07C466.939 319.933 467.786 318.437 467.599 316.729C467.412 315.021 466.266 313.737 465.045 313.874Z" fill="#27449B"/>
<path d="M451.219 316.766C450.16 316.879 449.425 318.175 449.587 319.659C449.749 321.143 450.733 322.252 451.792 322.14C452.85 322.028 453.585 320.731 453.423 319.247C453.262 317.764 452.277 316.654 451.219 316.766Z" fill="#27449B"/>
<path d="M372.068 188.723C363.573 185.719 354.118 187.265 347.03 192.838C337.227 200.318 332.817 212.911 335.819 224.88C338.348 235.141 346.906 242.796 357.369 244.167C359.337 244.466 361.33 244.628 363.323 244.628C372.267 244.628 380.003 241.337 385.534 235.078C392.049 227.647 394.677 216.751 392.186 207.948C389.781 199.57 381.697 191.84 372.068 188.723ZM384.089 233.794C379.679 238.818 371.507 244.379 357.643 242.26C347.939 240.988 339.992 233.906 337.625 224.406C334.81 213.172 338.946 201.353 348.139 194.321L348.114 194.259C354.716 189.085 363.51 187.651 371.42 190.456C380.476 193.461 388.075 200.617 390.317 208.422C392.709 216.638 390.192 226.837 384.089 233.794Z" fill="#27449B"/>
<path d="M375.793 220.828C371.146 219.045 370.063 223.234 369.377 223.122C366.388 221.975 363.51 220.553 360.795 218.858C360.907 218.347 360.969 217.81 360.969 217.287V216.713C364.519 213.522 369.589 208.946 369.938 209.12C374.198 211.252 380.377 206.34 376.166 201.765C371.956 197.189 366.948 202.737 367.658 206.752C367.658 207.088 363.423 209.968 359.425 212.749C358.465 211.502 356.983 210.766 355.414 210.741C351.789 210.903 348.973 213.97 349.123 217.598C349.272 221.015 352 223.745 355.414 223.895C356.996 223.857 358.478 223.109 359.437 221.85C363.174 223.708 368.02 226.226 368.157 227.037C368.717 233.133 375.705 233.27 377.935 228.42C378.707 226.575 380.414 222.61 375.793 220.828Z" fill="#39B715"/>
<path d="M376.241 220.055C373.8 218.883 370.872 219.73 369.44 222.025L369.315 222.187C366.774 221.114 364.308 219.868 361.941 218.446C361.991 218.085 362.015 217.711 362.015 217.349V217.15C364.445 214.955 368.767 211.09 370.013 210.205C372.716 211.165 375.73 210.28 377.487 208.011C378.471 206.465 378.645 204.545 377.96 202.837C376.789 199.944 373.488 198.56 370.611 199.745C368.119 201.054 366.6 203.685 366.724 206.502C365.939 207.188 363.348 208.971 361.218 210.442L359.599 211.564C358.503 210.479 357.008 209.856 355.463 209.844C351.34 209.844 347.989 213.197 347.989 217.324C347.989 221.451 351.34 224.805 355.463 224.805C357.07 224.805 358.602 224.132 359.711 222.985C365.615 225.939 366.911 226.999 367.185 227.286C367.297 229.929 369.215 232.161 371.806 232.672C372.13 232.734 372.467 232.759 372.803 232.759C375.394 232.759 377.748 231.251 378.832 228.894C379.38 227.71 380.514 225.254 379.604 223.009C378.957 221.588 377.736 220.516 376.253 220.055H376.241ZM377.026 228.021C376.216 229.966 374.198 231.113 372.118 230.839C370.274 230.465 368.966 228.819 369.016 226.937C368.954 226.264 368.879 225.441 359.836 220.99C359.711 220.927 359.562 220.89 359.425 220.89C359.15 220.865 358.876 220.952 358.677 221.152C357.892 222.187 356.672 222.822 355.376 222.847C352.773 222.548 350.717 220.491 350.418 217.885C350.057 214.781 352.274 211.988 355.376 211.626C356.672 211.651 357.88 212.275 358.665 213.297C358.976 213.671 359.512 213.746 359.91 213.472L362.19 211.888C368.68 207.4 368.667 207.338 368.53 206.54C368.343 204.408 369.44 202.363 371.333 201.341C372.766 200.63 374.497 201.066 375.431 202.363C376.802 203.46 377.026 205.455 375.942 206.839C374.622 208.547 372.305 209.145 370.324 208.285C369.602 207.899 369.452 207.824 360.359 216.028C360.147 216.215 360.022 216.501 360.047 216.788V217.037C360.047 217.125 360.047 217.212 360.047 217.299C360.047 217.761 359.985 218.234 359.885 218.683C359.798 219.07 359.973 219.481 360.321 219.681C363.137 221.439 366.114 222.897 369.228 224.057C369.963 224.169 370.399 223.62 370.81 223.084C371.732 221.426 373.8 220.815 375.469 221.713C376.465 222 377.3 222.698 377.761 223.62C378.371 225.116 377.462 227.086 377.026 228.021Z" fill="#39B715"/>
<path d="M363.423 242.634C362.913 242.634 362.489 243.057 362.489 243.569C361.43 258.505 361.218 273.491 361.866 288.452C359.063 288.265 351.403 287.879 346.021 289.126C345.598 289.225 345.299 289.599 345.299 290.036C345.299 290.547 345.71 290.971 346.233 290.971L346.432 290.896C352.686 289.462 362.651 290.347 362.751 290.347C362.8 290.347 362.85 290.347 362.888 290.347C363.398 290.322 363.797 289.874 363.772 289.362C363.087 274.152 363.274 258.904 364.345 243.718C364.345 243.668 364.358 243.619 364.358 243.569C364.358 243.057 363.934 242.634 363.423 242.634Z" fill="#27449B"/>
<path d="M347.13 307.902C346.582 302.304 342.733 281.982 315.989 278.927C284.598 275.336 274.894 300.247 273.051 306.169C266.112 302.154 256.919 302.89 249.769 308.114C243.042 312.951 240.19 320.295 241.797 327.913C238.259 327.189 229.627 326.217 225.105 332.787C221.766 337.65 221.119 343.061 223.386 347.275C226.238 352.586 233.251 355.416 243.092 355.217C244.699 355.192 247.489 355.08 251.226 354.942C262.674 354.506 281.832 353.795 300.841 353.883C313.41 353.945 325.755 354.419 335.72 354.805C342.422 355.067 348.015 355.279 351.602 355.279C352.562 355.279 353.371 355.279 354.081 355.242C361.755 354.843 369.926 348.771 373.937 340.48C377.811 332.974 377.138 323.935 372.206 317.078C362.427 303.276 350.955 306.343 347.13 307.902ZM372.218 339.607C368.481 347.312 360.97 352.96 353.944 353.322C350.93 353.484 344.253 353.222 335.795 352.898C325.842 352.511 313.46 351.975 300.816 351.975H297.453C279.516 351.975 261.902 352.661 251.077 353.085C247.377 353.222 244.575 353.359 242.968 353.359C233.849 353.534 227.434 351.053 224.943 346.39C223.025 342.811 223.622 338.124 226.562 333.847C231.47 326.79 242.644 330.107 242.756 330.107C242.93 330.157 243.117 330.157 243.292 330.107C243.79 329.957 244.064 329.434 243.927 328.947C241.784 321.566 244.363 314.348 250.815 309.635C256.545 305.433 265.639 303.401 273.026 308.388C273.125 308.45 273.225 308.5 273.349 308.525C273.848 308.637 274.346 308.326 274.458 307.815C274.533 307.503 282.007 276.907 315.727 280.735C344.95 284.064 345.312 308.239 345.312 309.261C345.312 309.423 345.362 309.597 345.436 309.735C345.698 310.183 346.271 310.333 346.719 310.071C347.242 309.76 359.749 302.728 370.636 318.1C375.183 324.397 375.793 332.713 372.218 339.607Z" fill="#39B715"/>
<path d="M263.135 195.443C263.222 190.918 263.247 186.654 263.135 182.764C262.773 170.732 263.135 139.875 263.135 139.563C263.135 139.476 263.135 139.389 263.11 139.314C262.973 138.815 262.474 138.516 261.964 138.641C260.494 139.015 255.848 138.927 250.927 138.828C244.088 138.691 236.34 138.541 232.666 139.488C232.217 139.638 231.956 140.087 232.043 140.548C232.13 141.059 232.628 141.396 233.127 141.296C236.54 140.411 244.163 140.561 250.877 140.698C255.374 140.847 259.099 140.922 261.241 140.698C261.167 146.346 260.917 172.054 261.241 182.864C261.304 186.741 261.241 190.968 261.241 195.468C261.167 205.168 261.092 216.09 262.487 226.363C264.48 241.038 265.078 284.051 263.832 287.879C261.764 288.727 247.502 288.465 238.259 287.629C230.187 286.894 211.639 288.402 210.854 288.402C210.343 288.427 209.932 288.864 209.957 289.375C209.982 289.886 210.418 290.298 210.929 290.273L211.016 290.235C211.203 290.223 230.187 288.739 238.122 289.462C243.204 289.924 262.649 291.183 265.128 289.263C267.607 287.343 265.962 237.759 264.38 226.077C262.985 215.928 263.06 205.044 263.135 195.443Z" fill="#27449B"/>
<path d="M201.698 125.163C201.698 124.764 201.524 124.39 201.237 124.128C199.979 122.906 195.009 122.42 186.464 122.682C185.953 122.694 185.542 123.131 185.554 123.642C185.579 124.153 186.003 124.565 186.513 124.552C195.507 124.29 199.057 124.951 199.817 125.4V127.457C200.041 139.102 200.079 145.947 199.917 147.829C195.719 148.166 191.496 148.203 187.298 147.942C186.974 144.712 186.264 127.395 186.414 126.298C186.526 125.849 186.289 125.388 185.866 125.213C185.392 125.013 184.844 125.238 184.645 125.712C184.172 127.108 185.567 148.789 185.567 148.914C185.716 149.288 186.04 149.562 186.426 149.662C188.494 149.961 190.574 150.074 192.655 149.999C196.504 149.999 200.726 149.762 201.287 149.35C201.848 148.939 202.109 148.739 201.698 127.42V125.163Z" fill="#27449B"/>
<path d="M197.8 118.318H192.817C192.817 118.318 192.779 118.318 192.767 118.318C192.269 118.318 191.858 118.73 191.858 119.228C191.845 119.74 192.256 120.176 192.767 120.188H197.75C201.561 120.213 207.802 120.238 209.334 120.712C209.409 122.358 209.397 128.791 209.334 139.887V141.134C207.553 141.384 205.759 141.408 203.978 141.209C203.467 141.159 203.006 141.546 202.957 142.057C202.907 142.568 203.293 143.029 203.804 143.079C204.638 143.154 205.722 143.216 206.793 143.216C208.5 143.216 210.119 143.042 210.779 142.418C211.053 142.181 211.203 141.832 211.203 141.471V139.9C211.29 126.996 211.29 120.899 211.203 120.139C211.029 118.642 208.998 118.318 197.787 118.318H197.8Z" fill="#27449B"/>
<path d="M218.241 107.958C212.187 102.397 204.115 100.352 194.884 102.036C178.678 104.99 168.314 115.999 167.156 131.472C166.047 146.233 173.907 160.796 185.056 164.623C189.154 166.057 193.464 166.793 197.812 166.818C204.003 166.892 210.094 165.172 215.326 161.855C222.937 156.918 227.845 148.739 228.63 139.7C229.813 127.083 225.827 114.927 218.241 107.958ZM226.798 139.501C226.064 147.979 221.467 155.634 214.342 160.26C206.357 165.421 196.105 166.419 185.691 162.853C175.278 159.287 168.003 145.56 169.049 131.609C169.535 124.615 173.135 107.895 195.208 103.868H195.246C203.878 102.285 211.402 104.168 217.008 109.317C224.183 115.9 227.932 127.457 226.798 139.501Z" fill="#39B715"/>
<path d="M399.61 268.504C399.361 267.394 398.95 265.512 369.353 264.764C354.53 264.415 338.037 264.527 332.73 264.764C323.475 265.188 294.862 265.736 265.564 264.764C265.053 264.764 264.63 265.163 264.605 265.674C264.592 266.185 264.991 266.609 265.502 266.634C294.8 267.606 323.475 267.058 332.768 266.634C345.997 266.06 394.266 266.484 397.767 269.127C398.128 271.284 397.655 280.398 397.231 288.465C396.857 295.422 396.521 301.98 396.621 305.009C396.832 311.754 397.866 334.184 397.866 334.408C397.891 334.907 398.302 335.306 398.801 335.306L398.9 335.181C399.411 335.156 399.81 334.72 399.785 334.209C399.785 333.984 398.776 311.567 398.539 304.835C398.427 301.88 398.776 295.359 399.137 288.452C399.71 277.693 400.046 270.461 399.61 268.504Z" fill="#27449B"/>
<path d="M386.805 372.734C386.419 372.734 343.755 372.709 331.996 373.881C324.547 374.616 304.828 374.13 288.97 373.744C279.59 373.519 271.494 373.32 267.595 373.407C260.532 373.557 241.211 372.123 228.418 371.175C221.966 370.702 217.295 370.353 216.186 370.353C215.376 370.353 214.604 370.689 214.056 371.288C212.038 373.432 211.515 379.18 212.2 391.784C212.798 402.17 212.798 412.568 212.2 422.954C211.913 426.943 202.421 426.495 192.369 426.021C188.482 425.834 184.471 425.659 180.485 425.659C174.319 425.659 166.696 426.283 159.309 426.906C148.235 427.841 136.8 428.801 130.023 427.679C129.537 427.617 129.076 427.941 128.989 428.427C128.89 428.938 129.226 429.424 129.724 429.524C132.402 429.911 135.118 430.085 137.821 430.048C144.199 430.048 151.922 429.399 159.371 428.764C166.745 428.178 174.307 427.517 180.448 427.517C184.409 427.529 188.383 427.691 192.244 427.878C204.178 428.439 213.607 428.888 214.018 423.078C214.629 412.63 214.629 402.145 214.018 391.697C213.62 384.528 213.333 374.741 215.364 372.597C215.551 372.372 215.837 372.235 216.136 372.235C217.182 372.235 222.003 372.597 228.232 373.058C241.062 374.043 260.444 375.452 267.582 375.29C271.431 375.202 279.516 375.402 288.871 375.626C304.715 376.013 324.559 376.499 332.12 375.751C343.418 374.604 383.629 374.604 386.631 374.604H386.805C387.316 374.604 387.739 374.18 387.739 373.669C387.739 373.158 387.316 372.734 386.805 372.734Z" fill="#27449B"/>
<path d="M298.014 361.351C297.503 361.351 297.08 361.775 297.08 362.286C297.08 368.52 296.419 374.754 296.419 374.754C296.37 375.265 296.743 375.726 297.254 375.776H297.354C297.827 375.776 298.238 375.414 298.288 374.941C298.288 374.878 298.948 368.657 298.948 362.273C298.948 361.762 298.525 361.338 298.014 361.338V361.351Z" fill="#27449B"/>
<path d="M479.981 243.868C474.375 244.928 472.805 263.143 472.805 263.143C465.244 251.822 453.572 249.703 452.788 252.471C451.517 256.934 459.938 266.322 472.805 272.182C487.392 278.852 484.041 243.132 479.981 243.868Z" fill="#27449B"/>
<path d="M479.806 242.983C474.811 243.918 472.793 255.401 472.133 260.662C465.979 252.807 457.957 249.94 454.22 250.538C453.161 250.551 452.227 251.236 451.891 252.234C450.346 257.645 459.963 267.369 472.419 273.055C473.59 273.628 474.861 273.94 476.156 273.965C477.875 273.965 479.532 273.242 480.678 271.958C486.134 266.035 484.639 249.054 482.148 244.529C481.326 242.983 480.417 242.87 479.806 242.983ZM480.666 268.442C479.084 271.933 476.63 272.868 473.192 271.297C459.788 265.163 452.688 256.198 453.684 252.695C453.722 252.595 453.959 252.421 454.519 252.333C454.768 252.309 455.03 252.309 455.279 252.333C458.891 252.333 466.428 255.351 471.996 263.629C472.158 263.866 472.407 264.016 472.693 264.041C473.204 264.09 473.665 263.704 473.702 263.193C474.288 256.423 476.543 245.439 480.005 244.753C481.911 245.638 484.228 260.724 480.666 268.442Z" fill="#27449B"/>
<path d="M515.046 318.587V318.213C514.05 309.822 512.543 297.142 498.23 289.013C498.192 288.988 498.155 288.963 498.105 288.939C497.644 288.714 497.084 288.914 496.86 289.387C496.635 289.861 496.835 290.41 497.308 290.634C510.799 298.289 512.181 309.934 513.19 318.425V318.799C514.411 329.01 517.201 343.36 527.329 350.117C527.478 350.217 527.665 350.28 527.839 350.28C528.151 350.28 528.437 350.13 528.599 349.868C528.886 349.444 528.774 348.858 528.35 348.571C518.871 342.275 516.205 328.424 515.034 318.587H515.046Z" fill="#27449B"/>
<path d="M560.75 333.324C557.935 332.164 555.493 331.154 553.649 330.169C546.636 326.404 542.937 314.298 539.362 302.603C537.842 297.155 535.973 291.819 533.756 286.62C527.54 273.204 500.111 258.717 482.758 262.931C482.26 263.056 481.949 263.554 482.073 264.066C482.198 264.564 482.696 264.876 483.194 264.751C499.837 260.724 526.108 274.588 532.062 287.393C534.242 292.517 536.086 297.778 537.58 303.139C541.267 315.208 545.079 327.688 552.777 331.815C554.708 332.85 557.187 333.872 560.052 335.057C573.194 340.467 592.988 348.646 585.651 370.552C585.613 370.652 585.601 370.764 585.601 370.864C585.601 371.375 586.024 371.799 586.535 371.799C586.934 371.799 587.295 371.524 587.407 371.138C595.292 347.574 574.452 338.996 560.75 333.324Z" fill="#27449B"/>
<path d="M573.667 348.571C573.281 348.921 573.231 349.519 573.58 349.906C579.646 356.962 582.561 363.969 581.789 369.629C581.366 372.933 579.509 375.888 576.707 377.696C576.458 377.871 576.296 378.157 576.296 378.469C576.296 378.98 576.707 379.404 577.23 379.404C577.417 379.404 577.604 379.342 577.753 379.23C581.004 377.123 583.159 373.694 583.645 369.854C584.492 363.62 581.415 356.139 575 348.659C574.651 348.272 574.053 348.222 573.667 348.571Z" fill="#27449B"/>
<path d="M568.099 358.034C567.688 358.359 567.626 358.945 567.95 359.344C572.359 364.917 574.651 372.322 573.406 377.309C572.87 379.84 571.151 381.972 568.772 383.007C568.448 383.157 568.236 383.481 568.236 383.843C568.236 384.354 568.647 384.778 569.158 384.79C569.295 384.79 569.42 384.765 569.544 384.715C572.434 383.431 574.539 380.838 575.224 377.746C576.782 371.3 573.306 363.084 569.42 358.184C569.096 357.773 568.51 357.71 568.112 358.034H568.099Z" fill="#27449B"/>
<path d="M491.279 305.845C487.853 306.331 484.926 308.588 483.593 311.792C483.431 312.253 483.643 312.752 484.091 312.951C484.565 313.163 485.113 312.951 485.325 312.49C486.433 309.959 488.75 308.176 491.466 307.74C493.434 307.59 495.315 308.613 496.249 310.358C498.28 313.512 496.424 316.592 495.539 317.839C493.683 320.332 490.818 321.778 488.862 321.217C488.364 321.068 487.853 321.355 487.704 321.853C487.554 322.352 487.841 322.863 488.339 323.013C488.788 323.137 489.249 323.2 489.722 323.2C492.687 322.95 495.377 321.379 497.046 318.911C499.376 315.769 499.675 312.178 497.819 309.311C496.498 306.979 493.945 305.62 491.279 305.845Z" fill="#27449B"/>
<path d="M474.101 274.813C471.996 273.379 464.385 268.915 452.402 272.132C442.324 274.838 436.656 284.089 435.66 291.569C434.962 296.743 436.519 300.982 439.808 302.902C441.677 304.037 443.931 304.336 446.036 303.738C450.745 302.503 454.756 297.529 456.662 294.773C457.085 296.058 458.082 297.068 459.353 297.516C463.339 298.813 469.48 293.651 472.258 291.033C473.454 299.249 478.237 306.493 485.325 310.807C485.462 310.882 485.611 310.919 485.761 310.919L485.711 310.944C486.06 310.944 486.371 310.757 486.533 310.458C486.782 310.009 486.608 309.435 486.159 309.186C479.109 304.76 474.55 297.279 473.84 288.976C473.815 288.752 473.715 288.54 473.553 288.378C473.179 288.016 472.594 288.041 472.233 288.415C469.006 291.769 462.803 296.706 459.876 295.771C458.842 295.434 458.182 294.287 457.908 292.367C457.845 291.968 457.546 291.657 457.16 291.582C456.774 291.507 456.375 291.694 456.176 292.031C456.126 292.155 451.231 300.496 445.501 302.005C443.881 302.466 442.15 302.242 440.705 301.369C438.089 299.835 436.881 296.294 437.466 291.893C438.425 284.812 444.006 276.384 452.85 274.015C465.793 270.524 473.366 276.758 473.441 276.758C473.802 277.069 474.325 277.069 474.687 276.758C474.986 276.458 482.098 270.885 488.526 276.758C496.374 283.927 497.47 301.518 495.452 308.712C495.352 309.174 495.614 309.635 496.05 309.797C496.536 309.972 497.071 309.71 497.246 309.223C499.289 301.917 498.491 283.353 489.772 275.374C483.319 269.477 476.182 273.416 474.101 274.813Z" fill="#27449B"/>
<path d="M504.383 347.237C496.847 342.786 494.655 330.331 493.658 321.355C493.596 320.856 493.147 320.507 492.649 320.544C492.139 320.594 491.752 321.043 491.802 321.566C492.923 331.728 495.265 344.021 503.424 348.846C503.574 348.933 503.736 348.97 503.898 348.97C504.234 348.983 504.545 348.808 504.72 348.509C504.981 348.06 504.819 347.487 504.371 347.237H504.383Z" fill="#27449B"/>
<path d="M451.304 306.281C449.648 306.019 447.966 306.481 446.671 307.528C445.163 308.812 444.304 310.707 444.304 312.69C444.279 313.201 444.678 313.637 445.188 313.662C445.699 313.687 446.147 313.288 446.172 312.777C446.147 311.331 446.77 309.934 447.854 308.974C448.738 308.263 449.897 307.952 451.018 308.126C451.491 308.176 451.927 307.852 452.027 307.391C452.139 306.88 451.815 306.393 451.304 306.281Z" fill="#27449B"/>
<path d="M464.31 303.775C462.092 303.663 459.975 304.723 458.742 306.58C458.43 306.992 458.505 307.578 458.929 307.889C459.34 308.201 459.925 308.126 460.236 307.715C460.573 307.191 461.009 306.742 461.52 306.393C463.562 305.022 466.34 305.57 467.71 307.615C467.885 307.902 468.184 308.076 468.52 308.076C468.67 308.076 468.832 308.014 468.956 307.927C469.38 307.665 469.529 307.116 469.292 306.68C468.184 304.984 466.34 303.912 464.31 303.775Z" fill="#27449B"/>
<path d="M462.442 333.86C461.52 333.934 460.598 333.885 459.701 333.698C458.742 328.498 458.331 323.225 458.455 317.938C458.455 317.427 458.032 317.003 457.521 317.003C457.01 317.003 456.587 317.427 456.587 317.938C456.587 326.005 457.471 333.785 458.219 334.845C458.642 335.455 459.763 335.767 461.532 335.767L462.541 335.73C463.052 335.705 463.451 335.256 463.426 334.745C463.426 334.732 463.426 334.707 463.426 334.695C463.388 334.196 462.94 333.822 462.442 333.86Z" fill="#27449B"/>
<path d="M469.99 331.877C469.479 331.927 469.093 332.376 469.143 332.9C469.143 332.912 469.143 332.925 469.143 332.937C469.392 335.181 467.772 337.201 465.53 337.45C465.069 337.525 464.733 337.924 464.745 338.398C464.758 338.909 465.194 339.32 465.705 339.308L465.879 339.283C469.093 338.847 471.372 335.917 470.999 332.688C470.936 332.189 470.488 331.84 469.99 331.877Z" fill="#27449B"/>
<path d="M397.879 452.951C397.58 452.402 396.783 449.709 398.614 438.264C398.614 438.252 398.614 438.227 398.614 438.214C398.676 437.703 398.327 437.229 397.804 437.167C397.293 437.105 396.82 437.454 396.758 437.977C395.388 446.567 395.201 451.904 396.21 453.824C396.92 454.983 397.717 456.105 398.589 457.153C398.763 457.377 399.025 457.502 399.311 457.502H399.324C399.536 457.502 399.735 457.427 399.909 457.29C400.308 456.966 400.37 456.38 400.046 455.981C399.249 455.021 398.527 454.023 397.866 452.963L397.879 452.951Z" fill="#27449B"/>
<path d="M406.835 438.962C406.349 438.8 405.813 439.074 405.651 439.573C403.471 446.193 402.525 452.764 403.16 456.716C403.235 457.165 403.621 457.502 404.082 457.502H404.269C404.779 457.402 405.128 456.928 405.041 456.417C404.456 452.801 405.402 446.38 407.433 440.147C407.595 439.66 407.321 439.124 406.835 438.962Z" fill="#27449B"/>
<path d="M418.096 440.969C414.957 445.981 412.615 451.455 411.12 457.177C410.983 457.676 411.282 458.187 411.78 458.324H412.017C412.428 458.324 412.789 458.063 412.914 457.676C414.371 452.153 416.638 446.879 419.641 442.017C419.89 441.605 419.79 441.082 419.404 440.795C418.993 440.483 418.407 440.558 418.096 440.969Z" fill="#27449B"/>
<path d="M509.466 350.89C500.248 351.576 491.067 369.704 488.576 381.499C488.576 381.499 481.326 363.72 476.044 354.643C471.498 355.753 466.752 355.753 462.205 354.643C450.67 365.403 452.626 396.909 457.459 423.091C460.062 423.964 462.305 424.836 464.024 425.584C474.163 429.973 496.635 439 498.902 439.299C501.169 439.598 505.367 435.558 505.367 435.558C505.778 435.733 506.202 435.895 506.613 436.082C514.959 439.835 525.398 449.41 530.654 464.87C518.447 477.55 508.207 477.375 502.963 475.891C501.655 475.281 493.683 471.366 485.524 467.239V467.351C488.165 478.21 490.768 498.071 490.195 507.148C490.195 507.148 513.551 519.69 537.406 514.915C561.26 510.14 573.854 492.336 593 491.688C587.195 449.447 574.464 397.42 560.849 377.073C547.234 356.725 528.724 349.432 509.466 350.89Z" fill="#39B715"/>
<path d="M482.384 344.956C479.656 347.113 476.567 348.771 473.253 349.856C471.223 350.529 469.068 350.803 466.925 350.641C465.119 350.504 463.35 349.968 461.781 349.07C453.921 344.607 446.808 316.056 444.591 302.94C444.503 302.429 444.018 302.092 443.519 302.179C443.021 302.267 442.672 302.753 442.759 303.251C444.553 313.899 451.753 345.504 460.859 350.741C462.678 351.776 464.696 352.399 466.776 352.549C467.237 352.586 467.698 352.611 468.171 352.611C470.114 352.586 472.033 352.249 473.876 351.639C477.414 350.492 480.727 348.709 483.642 346.39C484.041 346.041 484.078 345.442 483.742 345.043C483.393 344.644 482.795 344.607 482.397 344.943L482.384 344.956Z" fill="#27449B"/>
<path d="M474.898 382.733C474.823 382.272 474.424 381.935 473.951 381.948C473.44 381.96 473.029 382.396 473.042 382.908C473.453 388.892 473.291 394.914 472.581 400.873C471.908 408.379 471.21 416.146 472.929 424.475C473.017 424.911 473.403 425.223 473.839 425.223H474.038V425.21C474.549 425.098 474.86 424.612 474.761 424.101C473.091 416.009 473.776 408.429 474.437 401.048C475.159 394.976 475.321 388.842 474.898 382.733Z" fill="white"/>
<path d="M489.896 388.693C489.934 388.231 489.622 387.807 489.161 387.708C488.663 387.595 488.165 387.92 488.053 388.418C485.873 402.843 486.122 419.463 488.7 430.684C488.8 431.108 489.174 431.407 489.61 431.407L489.821 431.382C490.32 431.27 490.631 430.759 490.519 430.26C488.65 421.882 487.28 405.96 489.896 388.693Z" fill="white"/>
<path d="M504.731 434.923C503.124 436.469 500.309 438.551 499.064 438.364C496.921 438.002 474.798 429.188 464.397 424.649C462.541 423.889 460.249 423.004 457.757 422.156C452.339 420.298 424.635 411.346 410.696 418.016C396.333 424.886 386.692 438.75 386.044 440.109C385.023 442.266 383.578 447.465 382.531 455.569C382.469 456.08 382.83 456.554 383.341 456.616H383.466C383.889 456.579 384.25 456.255 384.313 455.831C385.334 447.877 386.754 442.802 387.664 440.87C388.249 439.623 397.729 426.208 411.431 419.675C421.72 414.75 441.763 418.627 457.085 423.889C459.526 424.737 461.781 425.597 463.587 426.382C473.403 430.659 496.099 439.81 498.715 440.209C501.331 440.608 505.217 436.992 505.977 436.269C506.077 436.207 506.164 436.12 506.239 436.02C506.538 435.608 506.45 435.022 506.039 434.711C505.628 434.411 505.043 434.499 504.731 434.91V434.923Z" fill="#27449B"/>
<path d="M503.437 475.006C501.942 474.308 493.957 470.381 485.997 466.354C476.406 461.516 470.601 458.437 468.222 456.941C462.155 453.163 445.015 443.6 444.841 443.5C444.405 443.251 443.856 443.388 443.595 443.812C441.938 446.43 439.135 448.114 436.046 448.338C430.515 448.924 424.412 446.019 423.303 444.909C420.961 442.565 416.091 445.844 415.131 446.518C415.106 446.53 415.082 446.555 415.057 446.567C414.646 446.892 414.583 447.478 414.895 447.877C415.219 448.288 415.804 448.35 416.203 448.039C417.984 446.767 421.048 445.308 421.97 446.231C423.452 447.702 430.092 450.844 436.233 450.196C439.584 449.946 442.648 448.251 444.654 445.545C448.017 447.428 461.906 455.22 467.213 458.524C469.629 460.045 475.496 463.15 485.125 468.024C493.098 472.114 501.107 476.054 502.565 476.752C502.689 476.814 502.826 476.839 502.963 476.839L503.013 476.789C503.387 476.789 503.723 476.59 503.873 476.253C504.084 475.779 503.885 475.231 503.424 475.006H503.437Z" fill="#27449B"/>
<path d="M558.433 412.643C557.922 412.618 557.474 413.017 557.449 413.528C557.1 419.874 546.537 444.535 533.582 460.269C533.445 460.444 533.37 460.656 533.37 460.868C533.37 461.379 533.794 461.803 534.304 461.803C534.578 461.803 534.852 461.678 535.027 461.466C547.608 446.168 558.894 421.208 559.317 413.628C559.342 413.117 558.944 412.668 558.433 412.643Z" fill="white"/>
<path d="M530.007 464.234C517.911 476.789 508.045 476.365 503.237 475.006C503.2 474.994 503.162 474.981 503.125 474.981C502.627 474.869 502.128 475.193 502.016 475.692C501.904 476.191 502.228 476.689 502.726 476.802C504.483 477.3 506.301 477.537 508.12 477.537C513.888 477.537 522.059 475.168 531.352 465.481C531.551 465.157 531.539 464.745 531.314 464.434C531.015 464.022 530.43 463.923 530.007 464.234Z" fill="#27449B"/>
<path d="M520.539 385.152C520.029 385.039 519.543 385.364 519.431 385.875C516.117 401.808 506.326 423.116 502.826 429.985C502.44 430.709 502.153 431.482 501.979 432.28C501.879 432.791 502.203 433.277 502.714 433.377H502.888C503.337 433.377 503.71 433.077 503.81 432.641C503.96 432.005 504.184 431.407 504.495 430.833C508.02 423.901 517.899 402.382 521.262 386.261C521.374 385.75 521.05 385.264 520.539 385.152Z" fill="white"/>
<path d="M498.366 477.724C498.229 477.226 497.719 476.939 497.22 477.063C496.722 477.201 496.436 477.712 496.56 478.21C497.806 485.03 498.466 491.95 498.528 498.894C498.516 499.405 498.927 499.842 499.438 499.854C499.949 499.854 500.372 499.455 500.385 498.944C500.322 491.875 499.662 484.831 498.391 477.874C498.391 477.824 498.379 477.774 498.366 477.712V477.724Z" fill="white"/>
<path d="M396.496 423.191C395.038 423.29 386.917 423.465 379.056 423.627C370.486 423.801 362.389 423.976 361.144 424.088C358.702 424.325 352.486 427.068 346.682 431.108C346.42 431.282 346.271 431.581 346.271 431.893C346.271 432.404 346.694 432.828 347.217 432.816C347.441 432.841 347.666 432.791 347.852 432.666C353.645 428.639 359.562 426.145 361.43 425.971C362.601 425.859 371.022 425.684 379.206 425.51C387.39 425.335 395.188 425.173 396.645 425.061C397.156 425.023 397.542 424.562 397.505 424.051C397.455 423.54 397.007 423.153 396.496 423.191Z" fill="#27449B"/>
<path d="M382.47 445.52C378.733 445.258 369.764 444.735 368.768 445.046C367.771 445.358 366.463 446.68 363.374 449.921C362.415 450.919 361.368 452.041 360.123 453.288C359.948 453.462 359.849 453.711 359.849 453.961C359.849 454.472 360.285 454.896 360.795 454.883C361.057 454.883 361.319 454.784 361.505 454.597C362.726 453.35 363.81 452.215 364.769 451.218C366.139 449.61 367.671 448.138 369.341 446.842C370.138 446.667 376.578 446.979 382.345 447.39C382.856 447.415 383.305 447.029 383.342 446.518C383.379 446.006 382.981 445.558 382.47 445.52Z" fill="#27449B"/>
<path d="M350.469 436.207C347.878 431.307 345.287 426.183 342.995 421.67C335.932 407.731 333.092 402.419 331.186 401.921C328.782 401.297 319.078 401.497 305.65 401.759C291.86 402.033 274.708 402.37 260.108 401.896C258.589 401.709 257.094 402.382 256.234 403.641C253.643 407.731 257.928 417.879 266.2 434C274.085 449.373 282.804 465.007 282.892 465.169C283.041 465.431 283.29 465.606 283.589 465.643C293.031 466.84 302.05 466.478 311.604 466.092C316.064 465.917 320.623 465.705 325.307 465.705C330.862 465.668 336.405 465.917 342.297 466.179C347.94 466.429 353.72 466.678 359.55 466.678C361.892 466.678 364.221 466.678 366.526 466.541C366.688 466.541 366.85 466.478 366.987 466.391C367.423 466.117 367.547 465.543 367.273 465.107C367.186 464.957 358.367 451.056 350.469 436.207ZM342.385 464.297C336.816 464.06 331.535 463.823 326.291 463.823H325.331C320.623 463.86 316.051 464.047 311.629 464.222C302.324 464.596 293.517 464.957 284.399 463.848C282.916 461.267 275.119 447.104 267.968 433.152C263.571 424.587 255.437 408.641 257.928 404.639C258.177 404.227 258.688 403.753 260.158 403.753C274.795 404.227 291.985 403.891 305.787 403.616C318.069 403.379 328.67 403.168 330.787 403.716C332.232 404.352 337.115 413.989 341.425 422.505C343.68 427.031 346.284 432.155 348.899 437.08C355.377 449.273 362.49 460.831 364.906 464.72C357.333 464.957 349.722 464.621 342.385 464.297Z" fill="#27449B"/>
<path d="M439.695 458.362C438.375 458.437 411.618 459.01 406.399 458.886C401.179 458.761 372.442 458.362 362.975 458.362L366.5 465.606C366.5 465.606 388.698 465.468 396.458 465.356C404.219 465.244 441.24 465.93 441.962 465.518C442.685 465.107 441.016 458.287 439.695 458.362Z" fill="#27449B"/>
<path d="M439.608 457.427C438.512 457.489 411.792 458.075 406.386 457.951C400.98 457.826 372.367 457.427 362.937 457.427C362.426 457.427 362.003 457.851 362.003 458.362C362.003 458.873 362.426 459.297 362.937 459.297C372.354 459.347 400.955 459.696 406.349 459.821C411.543 459.933 436.868 459.397 439.521 459.309C440.443 460.955 441.003 462.788 441.178 464.671C438.4 464.795 426.155 464.671 416.189 464.558C407.619 464.434 399.597 464.434 396.408 464.434C388.797 464.558 366.736 464.683 366.512 464.683C366.002 464.683 365.578 465.107 365.578 465.618C365.578 466.129 366.002 466.553 366.512 466.553C366.736 466.553 388.797 466.416 396.483 466.304C399.647 466.254 407.694 466.341 416.214 466.429C426.504 466.591 432.732 466.591 436.469 466.591C441.639 466.591 442.025 466.453 442.373 466.304C442.722 466.154 443.681 465.556 442.373 461.167C441.327 457.739 440.306 457.427 439.608 457.427Z" fill="#27449B"/>
<path d="M305.126 427.28C299.122 427.28 294.426 430.272 294.426 434.1C294.426 437.927 299.122 440.92 305.126 440.92C311.13 440.92 315.826 437.927 315.826 434.1C315.826 430.272 311.13 427.28 305.126 427.28ZM305.126 439.137C300.343 439.137 296.294 436.868 296.294 434.15C296.294 431.432 300.343 429.163 305.126 429.163C309.909 429.15 313.958 431.432 313.958 434.15C313.958 436.868 309.909 439.137 305.126 439.137Z" fill="#27449B"/>
<path d="M194.449 242.073C194.449 242.073 194.387 242.035 194.349 242.01C193.888 241.773 193.328 241.96 193.091 242.422C192.854 242.883 193.041 243.444 193.502 243.681C203.891 249.915 208.189 254.366 206.631 257.395C206.407 257.844 206.582 258.405 207.03 258.642C207.167 258.704 207.304 258.742 207.454 258.742C207.815 258.742 208.126 258.517 208.276 258.193C211.041 252.82 202.334 246.748 194.449 242.073Z" fill="#27449B"/>
<path d="M201.237 240.402C200.764 240.252 200.253 240.489 200.079 240.95C199.892 241.437 200.128 241.973 200.602 242.16C208.636 245.052 213.955 250.201 213.955 252.333C213.955 252.845 214.379 253.269 214.89 253.269C215.4 253.269 215.824 252.845 215.824 252.333C215.824 249.129 209.957 243.544 201.237 240.402Z" fill="#27449B"/>
<path d="M235.618 217.374C233.638 211.128 232.99 211.016 232.392 210.903C231.42 210.654 226.213 211.477 215.389 213.148C209.285 214.083 201.798 215.242 200.441 215.242C200.216 215.03 199.531 214.482 198.971 213.995C196.068 211.502 193.303 209.183 191.422 209.008C188.781 208.771 174.194 212.611 172.5 214.694C170.358 217.337 176.549 250.725 178.878 258.031C179.476 259.914 179.887 260.575 180.535 260.762C180.908 260.836 181.282 260.874 181.668 260.861C185.443 260.861 195.52 259.116 197.775 258.742C198.286 258.655 198.622 258.168 198.535 257.657C198.447 257.146 197.962 256.809 197.451 256.897C190.587 258.106 182.926 259.178 181.257 259.004C179.09 255.488 172.849 218.484 173.983 215.878C175.191 214.432 188.993 210.704 191.285 210.891C192.705 211.028 196.118 214.008 197.762 215.442C198.36 216.028 199.02 216.551 199.718 217.012C200.304 217.312 201.736 217.175 215.65 215.03C222.19 214.008 230.187 212.761 231.844 212.761C232.678 214.432 233.351 216.177 233.849 217.985C236.939 227.485 241.236 244.616 241.759 247.695C240.588 248.394 235.269 249.067 230.947 249.64C227.26 250.139 223.074 250.688 219.462 251.386C218.989 251.498 218.69 251.959 218.764 252.433C218.839 252.944 219.312 253.293 219.823 253.219C223.386 252.533 227.534 251.984 231.196 251.498C240.651 250.239 243.653 249.765 243.653 247.932C243.653 247.72 243.615 247.508 243.578 247.297C242.993 243.855 238.57 226.463 235.618 217.374Z" fill="#27449B"/>
<path d="M407.757 330.643C396.795 331.528 386.854 340.729 383.566 353.01C380.377 364.942 384.612 376.312 394.901 383.431C401.69 388.119 407.906 389.727 413.237 389.727C417.211 389.715 421.147 388.83 424.747 387.146C434.514 382.683 440.48 373.532 441.14 367.198C441.988 359.119 439.297 346.764 431.424 338.697C425.383 332.563 417.423 329.845 407.757 330.643ZM439.222 366.999C438.612 372.896 432.72 381.424 423.913 385.476C417.672 388.343 407.769 390.051 395.96 381.898C386.207 375.153 382.332 364.842 385.372 353.496C388.411 342.151 397.941 333.324 407.906 332.501C416.999 331.765 424.449 334.284 430.029 339.994C437.976 348.148 439.882 360.615 439.222 366.999Z" fill="#27449B"/>
<path d="M405.764 338.585C404.942 338.797 404.605 342.786 406.088 342.899C407.57 343.011 418.071 343.472 418.93 343.372C419.79 343.273 419.466 340.181 419.466 339.632C419.466 339.084 407.047 338.261 405.764 338.585Z" fill="#27449B"/>
<path d="M420.4 339.645C420.388 339.333 420.238 339.046 420.002 338.859C418.881 337.986 406.611 337.388 405.527 337.675C404.157 338.036 404.07 340.443 404.157 341.34C404.356 343.547 405.639 343.834 406.025 343.834C407.171 343.909 415.791 344.32 418.382 344.32L419.03 344.295C420.612 344.096 420.487 341.739 420.4 340.006V339.645ZM418.445 342.45C416.601 342.462 407.831 342.088 406.187 342.001C405.888 341.191 405.888 340.318 406.187 339.507C410.285 339.507 414.384 339.769 418.445 340.305C418.519 341.016 418.519 341.739 418.445 342.45Z" fill="#27449B"/>
<path d="M419.516 363.109C418.843 362.884 419.69 349.793 419.516 347.923C419.341 346.053 409.675 346.477 405.053 346.477C403.995 346.489 405.751 362.785 405.016 362.872C404.281 362.959 398.227 361.962 397.343 363.209C395.275 366.263 410.784 381.623 412.291 381.698C413.798 381.773 425.893 366.675 426.566 364.555C426.902 363.495 420.188 363.333 419.516 363.109Z" fill="#27449B"/>
<path d="M421.509 362.348L420.264 362.236C420.126 360.79 420.276 356.277 420.376 353.309C420.475 350.342 420.538 348.497 420.475 347.786C420.288 345.629 416.352 345.342 407.035 345.467H405.091C404.805 345.492 404.543 345.604 404.331 345.804C403.709 346.477 403.671 348.06 404.107 355.778C404.232 357.972 404.344 360.565 404.344 361.812H403.796C399.797 361.401 397.48 361.463 396.658 362.647C396.085 363.483 396.185 364.667 396.97 366.288C399.411 371.3 410.273 382.509 412.266 382.621C414.969 382.621 427.077 366.001 427.501 364.792C427.6 364.443 427.551 364.069 427.351 363.77C426.816 362.959 425.358 362.685 421.509 362.348ZM412.304 380.688C410.136 379.441 399.585 368.869 398.253 364.555C398.153 364.306 398.116 364.031 398.14 363.757C398.726 363.508 399.374 363.408 400.009 363.483H400.021C400.918 363.483 402.114 363.545 403.609 363.682C404.132 363.757 404.668 363.782 405.191 363.77C406.362 363.632 406.349 362.959 405.951 355.728C405.801 352.923 405.565 348.833 405.714 347.4H407.047C410.199 347.362 417.461 347.262 418.619 348.148C418.657 348.921 418.582 351.053 418.507 353.309C418.171 363.283 418.333 363.657 419.217 363.994C419.902 364.156 420.612 364.256 421.322 364.268C422.705 364.368 424.075 364.543 425.433 364.804C423.689 367.797 414.446 379.329 412.316 380.688H412.304Z" fill="#27449B"/>
<path d="M117.105 404.614C103.191 395.001 91.4941 397.046 84.0201 400.462C73.1828 405.449 66.5559 415.61 65.8209 422.63C65.0486 430.123 67.2784 444.735 76.6209 454.297C82.5129 460.332 90.1239 463.374 99.2671 463.374C100.426 463.374 101.621 463.324 102.842 463.237C115 462.239 126.037 452.028 129.686 438.389C133.236 425.136 128.528 412.506 117.105 404.614ZM127.942 437.89C124.542 450.57 113.954 460.444 102.743 461.354C92.5654 462.177 84.2444 459.359 78.016 452.976C69.122 443.875 66.9919 429.948 67.7393 422.817C68.4244 416.209 75.014 406.683 84.8547 402.145C88.5793 400.412 92.6402 399.502 96.7509 399.49C96.7384 399.49 96.726 399.49 96.7135 399.49H96.7758C96.7758 399.49 96.7633 399.49 96.7509 399.49C102.344 399.49 108.871 401.198 116.109 406.135C127.008 413.678 131.343 425.21 127.942 437.89Z" fill="#39B715"/>
<path d="M104.051 447.702C102.568 447.59 92.0673 447.129 91.2078 447.228C90.3482 447.328 90.6721 450.42 90.6721 450.969C90.6721 451.517 103.079 452.353 104.374 452.016C105.197 451.804 105.533 447.814 104.051 447.702Z" fill="#39B715"/>
<path d="M104.113 446.742C102.868 446.655 92.0926 446.156 91.0961 446.281C89.5141 446.48 89.6386 448.849 89.7258 450.57V450.931C89.7383 451.243 89.8878 451.53 90.1245 451.717C91.0587 452.427 99.6538 452.963 103.179 452.963C103.652 452.988 104.138 452.963 104.612 452.901C105.982 452.539 106.069 450.133 105.982 449.236C105.782 447.029 104.499 446.742 104.113 446.742ZM103.989 451.118C99.8531 451.118 95.73 450.831 91.6317 450.27H91.5819C91.557 449.572 91.6068 448.874 91.7314 448.176C93.6497 448.151 102.344 448.537 103.989 448.625C104.288 449.435 104.288 450.308 103.989 451.118Z" fill="#39B715"/>
<path d="M97.8842 408.903C96.377 408.828 84.2816 423.926 83.6089 426.046C83.2726 427.105 89.9867 427.268 90.6594 427.492C91.332 427.716 90.485 440.807 90.6594 442.678C90.8338 444.548 100.5 444.124 105.122 444.124C106.143 444.111 104.424 427.816 105.159 427.729C105.894 427.642 111.948 428.639 112.832 427.392C114.9 424.338 99.3915 408.977 97.8842 408.903Z" fill="#39B715"/>
<path d="M97.8468 407.968C95.1188 407.968 83.0358 424.599 82.6621 425.759C82.5625 426.108 82.6123 426.482 82.8116 426.781C83.3473 427.592 84.8047 427.866 88.6538 428.203L89.8995 428.315C90.0365 429.761 89.887 434.274 89.7874 437.242C89.6877 440.209 89.6254 442.054 89.6877 442.765C89.8496 444.647 92.8891 445.109 99.9022 445.109H103.104L105.047 445.096C105.333 445.071 105.595 444.959 105.807 444.76C106.429 444.086 106.467 442.503 106.031 434.786C105.906 432.591 105.794 429.998 105.794 428.751H106.33C110.328 429.175 112.645 429.113 113.467 427.928C114.04 427.093 113.928 425.909 113.144 424.288C110.702 419.288 99.8274 408.08 97.8468 407.968ZM106.542 426.931C106.018 426.856 105.483 426.831 104.96 426.844C103.789 426.981 103.801 427.654 104.2 434.885C104.349 437.69 104.586 441.78 104.436 443.214H103.104C99.9644 443.251 92.6898 443.351 91.5313 442.466C91.4939 441.743 91.5687 439.561 91.6434 437.316C91.9797 427.342 91.8178 426.968 90.9334 426.632C90.2482 426.47 89.5382 426.37 88.8282 426.357C87.4455 426.258 86.0753 426.083 84.7175 425.821C86.4614 422.829 95.7043 411.284 97.8344 409.937C100.002 411.184 110.553 421.757 111.885 426.071C111.985 426.32 112.023 426.594 111.998 426.869C111.524 427.205 109.743 427.23 106.542 426.931Z" fill="#39B715"/>
<path d="M128.914 222.947C125.837 220.067 126.883 217.187 127.282 215.641C128.528 209.931 122.661 210.18 120.742 204.42C119.011 199.259 123.483 193.187 124.479 184.572C125.289 177.577 118.662 166.768 102.929 163.227C87.1964 159.686 81.2421 169.548 81.2421 169.548C72.1861 162.404 54.834 175.146 55.3572 192.663C55.5689 199.82 52.6416 203.959 44.9185 206.053C37.1953 208.148 38.8894 213.073 38.8147 218.521C38.74 223.969 33.1469 221.85 32.0507 224.343C29.3476 230.303 35.2147 234.866 38.74 233.831C42.2652 232.797 46.8368 231.562 49.3281 238.17C51.8195 244.778 58.1599 242.883 62.6319 242.284C64.5004 241.848 66.4561 242.459 67.7516 243.88C70.3052 233.732 71.7502 223.334 72.0616 212.873C67.6395 213.945 61.7848 210.105 62.2582 204.62C62.7315 199.134 69.9066 196.615 74.802 201.403C74.802 201.403 95.53 192.513 99.7154 178.886C99.7154 178.886 115 184.784 116.071 196.865C117.142 208.946 107.737 234.791 104.337 238.744C101.447 241.96 97.2988 243.781 92.9763 243.731C92.6026 244.778 92.3286 245.863 92.1666 246.972C106.554 250.825 104.324 242.172 111.537 243.731C117.703 245.052 120.929 240.315 122.175 238.582C123.782 236.275 128.528 241.162 132.14 236.923C137.397 230.714 131.991 225.815 128.914 222.947Z" fill="#27449B"/>
<path d="M111.861 205.268C110.84 205.006 109.694 205.954 109.37 207.4C109.046 208.846 109.632 210.243 110.616 210.504C111.6 210.766 112.771 209.819 113.107 208.372C113.443 206.926 112.895 205.53 111.861 205.268Z" fill="#27449B"/>
<path d="M98.4574 202.201C97.274 201.902 95.9785 203.049 95.5301 204.707C95.0817 206.365 95.692 208.011 96.8879 208.285C98.0837 208.559 99.3792 207.462 99.8277 205.792C100.276 204.121 99.7031 202.513 98.4574 202.201Z" fill="#27449B"/>
<path d="M31.8392 348.035C15.9071 353.434 12.5812 353.571 8.84421 351.252C8.40822 350.978 7.82276 351.115 7.54871 351.551C7.27467 351.988 7.41169 352.574 7.84767 352.848C9.59161 353.995 11.647 354.593 13.7397 354.556C17.4518 354.556 22.7583 353.097 32.4247 349.806C32.4496 349.806 32.4745 349.793 32.487 349.781C32.9728 349.594 33.2095 349.058 33.0226 348.571C32.8358 348.085 32.3001 347.848 31.8143 348.035H31.8392Z" fill="white"/>
<path d="M153.828 323.449C153.392 323.175 152.819 323.3 152.532 323.748C148.372 330.344 141.982 352.087 148.995 362.535C149.144 362.772 149.306 362.984 149.468 363.209C149.642 363.445 149.916 363.583 150.215 363.583C150.415 363.57 150.614 363.508 150.776 363.383C151.187 363.071 151.274 362.485 150.963 362.074C150.826 361.899 150.689 361.712 150.552 361.5C144.249 352.175 149.929 331.366 154.114 324.746C154.388 324.309 154.264 323.736 153.828 323.449Z" fill="white"/>
<path d="M129.624 222.299L129.512 222.199C127.806 220.74 127.195 218.359 127.98 216.252L128.08 215.803C128.827 212.063 126.959 210.405 125.09 208.809C123.458 207.624 122.213 205.991 121.503 204.108C120.606 201.428 121.615 198.386 122.86 194.533C124.031 191.342 124.866 188.025 125.352 184.659C126.161 177.615 119.796 166.032 103.079 162.292C89.4267 159.225 82.8495 165.82 80.9686 168.226C77.4807 165.97 72.8967 166.007 68.2254 168.364C59.4185 173.226 54.0622 182.602 54.3611 192.663C54.5729 199.62 51.8075 203.198 44.6076 205.131C37.4076 207.063 37.582 211.564 37.7564 215.928V218.421C37.719 221.027 36.2616 221.389 34.418 221.837C33.1474 222.149 31.69 222.498 31.0796 223.857C29.7218 226.575 30.1454 229.867 32.1509 232.148C33.7453 234.18 36.3488 235.141 38.8775 234.642C42.9633 233.395 46.2518 232.921 48.3321 238.382C50.8234 244.978 56.7777 244.042 61.1251 243.369L62.6324 243.145C64.2144 242.733 65.8836 243.245 66.9673 244.466C66.9797 244.479 66.9922 244.491 67.0171 244.516C67.3908 244.878 67.9763 244.853 68.3375 244.479C68.6988 244.105 68.6739 243.519 68.3002 243.157C66.8054 241.536 64.5507 240.826 62.3957 241.3L60.8386 241.536C56.5161 242.222 52.0442 242.92 50.0885 237.796C47.2235 230.303 41.6678 231.924 38.3543 232.896C36.5356 233.171 34.7045 232.435 33.5709 230.976C32.0512 229.256 31.7398 226.787 32.7862 224.742C32.9979 224.244 33.7204 224.044 34.8664 223.758C36.7349 223.296 39.6249 222.598 39.6249 218.546C39.6872 217.648 39.6249 216.776 39.6249 215.915C39.4505 211.477 39.3384 208.547 45.0934 207.001C53.0283 204.881 56.4663 200.468 56.2296 192.676C55.9431 183.337 60.9009 174.622 69.06 170.097C73.4198 167.89 77.6177 167.977 80.5949 170.321C80.6323 170.346 80.6572 170.371 80.6945 170.396C81.1305 170.658 81.716 170.521 81.9776 170.072C82.0399 169.972 87.7201 160.821 102.668 164.174C118.251 167.665 124.231 178.151 123.496 184.497C123.035 187.738 122.25 190.918 121.141 193.997C119.784 197.999 118.7 201.465 119.784 204.744C120.593 206.951 122.038 208.884 123.932 210.28C125.713 211.801 126.884 212.811 126.311 215.467L126.211 215.878C125.265 218.646 126.087 221.713 128.291 223.633L128.404 223.733C132.278 227.336 135.703 231.325 131.443 236.312C129.724 238.32 127.718 237.834 125.775 237.36C124.206 236.973 122.437 236.549 121.366 238.021L121.266 238.158C120.02 239.903 117.093 243.98 111.674 242.808C109.295 242.222 106.766 242.908 105.022 244.641C102.867 246.312 100.413 248.219 92.354 246.062C91.8557 245.925 91.345 246.224 91.208 246.723C91.071 247.222 91.3699 247.733 91.8682 247.87C94.0481 248.493 96.3028 248.843 98.5699 248.892C101.348 248.967 104.051 247.982 106.131 246.125C107.638 244.94 108.759 244.105 111.251 244.641C117.853 246.05 121.415 241.113 122.748 239.255L122.848 239.118C123.184 238.644 123.894 238.769 125.339 239.118C127.42 239.641 130.322 240.352 132.813 237.46C138.593 230.64 132.763 225.216 129.624 222.299Z" fill="#27449B"/>
<path d="M6.57708 360.104C6.61445 359.593 6.22829 359.132 5.71757 359.094C5.20684 359.057 4.74594 359.443 4.70857 359.954C4.50927 362.535 12.8677 381.224 20.6033 392.046C20.7777 392.296 21.0642 392.433 21.3631 392.433C21.5749 392.433 21.7618 392.346 21.9237 392.208C22.3099 391.909 22.3971 391.373 22.1355 390.962C14.2628 379.953 6.57708 362.049 6.57708 360.104Z" fill="#27449B"/>
<path d="M44.8816 366.65C44.6823 366.238 44.2089 366.039 43.7729 366.163C43.2747 366.313 43.0006 366.837 43.1501 367.335C46.9868 377.01 51.0601 388.792 51.0601 388.904C51.1847 389.278 51.5459 389.54 51.9321 389.54C52.0317 389.54 52.1438 389.528 52.2435 389.49C52.7293 389.316 52.9909 388.78 52.8165 388.294C52.7791 388.181 48.7307 376.362 44.8816 366.65Z" fill="#27449B"/>
<path d="M38.5535 353.658C38.2047 353.421 37.7438 353.446 37.42 353.708C37.0213 354.045 36.9715 354.631 37.3078 355.03C37.8684 355.553 39.4006 357.86 43.1376 367.348C43.2746 367.709 43.6234 367.934 44.0095 367.934C44.1217 367.934 44.2338 367.934 44.3334 367.909C44.3459 367.909 44.3583 367.909 44.3708 367.896C44.8441 367.684 45.0559 367.136 44.8566 366.662C40.8455 356.538 39.3383 354.394 38.5535 353.658Z" fill="#27449B"/>
<path d="M58.1978 285.498C57.6995 285.348 57.1763 285.622 57.0268 286.121C52.1936 298.888 40.7584 329.658 39.002 339.42C38.9148 339.931 39.2512 340.418 39.7619 340.505H39.9238C40.3598 340.505 40.746 340.193 40.8332 339.757C42.5771 329.87 55.0338 296.756 58.7708 286.782C58.7832 286.744 58.7957 286.707 58.8081 286.669C58.9576 286.171 58.6836 285.647 58.1853 285.498H58.1978Z" fill="white"/>
<path d="M52.8535 252.196C37.7933 250.301 31.2411 254.129 25.0128 261.397C18.2987 269.252 6.70149 301.132 3.59978 314.285C0.498066 327.439 -2.93998 351.85 4.23507 359.917C6.3527 362.311 9.64126 363.196 13.3783 363.196C22.808 363.196 34.8411 357.498 36.8466 356.289C37.4944 355.902 38.0425 355.354 38.4286 354.706C39.4003 353.11 39.4875 350.978 39.5996 348.285C39.6618 346.814 39.7366 345.155 39.9608 343.36C40.0231 342.849 39.6618 342.375 39.1511 342.313C38.6404 342.25 38.167 342.612 38.1048 343.123C37.8681 344.993 37.7933 346.701 37.7311 348.197C37.6314 350.629 37.5442 352.499 36.8217 353.746C36.585 354.132 36.2612 354.469 35.8626 354.693C32.1754 356.987 11.8212 365.615 5.66758 358.67C-1.00919 351.165 2.60324 326.641 5.44336 314.722C8.42051 302.179 20.0301 270.1 26.4578 262.619C32.3871 255.675 38.3165 252.259 52.6168 254.054C53.1275 254.116 53.6009 253.755 53.6632 253.244C53.7254 252.732 53.3642 252.259 52.8535 252.196Z" fill="#27449B"/>
<path d="M100.002 177.976C100.002 177.976 99.9527 177.951 99.9153 177.951C99.417 177.802 98.9063 178.088 98.7568 178.575C95.1195 190.406 78.2033 198.747 74.9397 200.256C72.5355 198.049 69.1099 197.326 66.0207 198.398C63.3923 199.333 61.5363 201.715 61.2872 204.495C61.0878 207.213 62.2214 209.856 64.3266 211.589C66.1826 213.21 68.5868 214.058 71.0532 213.921C70.667 223.92 69.247 233.856 66.8055 243.556C66.7432 243.619 66.7432 243.693 66.7432 243.806C66.7058 243.905 66.6934 244.017 66.6934 244.117C66.6934 244.628 67.1169 245.052 67.6276 245.052C68.0138 245.052 68.3376 244.803 68.4747 244.441L68.5494 244.155C71.1155 233.919 72.5854 223.446 72.9092 212.898C72.9092 212.823 72.9092 212.736 72.8843 212.661C72.7597 212.163 72.249 211.851 71.7508 211.976C69.521 212.387 67.2165 211.739 65.5224 210.218C63.8781 208.884 62.9813 206.826 63.1307 204.707C63.3051 202.637 64.6878 200.879 66.656 200.206C69.2968 199.308 72.2241 200.032 74.13 202.076C74.404 202.338 74.8026 202.413 75.1514 202.263C75.9985 201.902 95.3562 193.461 100.239 180.146C103.453 181.592 114.24 187.165 115.1 196.94C116.134 208.721 106.928 234.205 103.578 238.083C100.862 241.1 96.9755 242.808 92.9146 242.758H92.7776C86.4247 242.758 79.4864 238.993 78.2407 230.527C78.2407 230.478 78.2407 230.44 78.2158 230.403C78.1037 229.904 77.6054 229.58 77.1071 229.692C76.6089 229.804 76.285 230.303 76.3971 230.802C77.8421 240.327 85.8517 244.628 92.7901 244.628H92.9396C97.5361 244.678 101.933 242.733 104.998 239.305C108.56 235.178 118.065 209.27 116.956 196.74C115.847 184.21 100.65 178.226 100.002 177.976Z" fill="#27449B"/>
<path d="M66.2065 248.73C66.2065 248.73 66.1941 248.73 66.1816 248.73C65.6709 248.568 65.1228 248.855 64.9608 249.366V249.528C64.9608 249.528 64.9608 249.553 64.9484 249.566C64.8114 250.039 65.0979 250.538 65.5712 250.675C65.6584 250.688 65.7581 250.688 65.8453 250.675C66.2688 250.688 66.655 250.438 66.8044 250.039V249.89C66.8044 249.89 66.8044 249.865 66.8044 249.852C66.9415 249.379 66.6674 248.88 66.1941 248.743L66.2065 248.73Z" fill="#27449B"/>
<path d="M91.694 254.353C91.1833 254.353 90.7598 254.777 90.7598 255.288V256.361C90.7598 256.872 91.1833 257.296 91.694 257.296C92.2047 257.296 92.6283 256.872 92.6283 256.361V255.288C92.6283 254.777 92.2047 254.353 91.694 254.353Z" fill="#27449B"/>
<path d="M93.2755 242.846C92.7897 242.659 92.2541 242.895 92.0673 243.382C91.6686 244.491 91.3821 245.638 91.2077 246.81C91.1081 247.446 91.0209 248.107 90.9586 248.78C90.8589 249.877 90.7718 251.037 90.7718 252.121C90.7593 252.633 91.1704 253.069 91.6811 253.082C92.1918 253.082 92.6153 252.683 92.6278 252.171C92.6527 251.124 92.715 250.014 92.8147 248.955C92.8769 248.356 92.9517 247.708 93.0513 247.109C93.2008 246.062 93.4499 245.04 93.8112 244.055C93.998 243.569 93.7614 243.033 93.2755 242.846Z" fill="#27449B"/>
<path d="M93.8742 196.004C93.6002 196.179 93.4258 196.478 93.4258 196.802C93.4258 197.314 93.8369 197.737 94.36 197.737C94.5344 197.737 94.6964 197.688 94.8458 197.6C96.9386 196.329 99.542 196.216 101.734 197.301C102.145 197.563 102.681 197.476 102.98 197.089C103.304 196.678 103.229 196.092 102.818 195.78C100.015 194.247 96.6022 194.334 93.8742 196.004Z" fill="#27449B"/>
<path d="M113.842 198.286C112.659 197.463 111.151 197.226 109.769 197.663C109.27 197.812 108.984 198.323 109.133 198.822C109.283 199.321 109.794 199.608 110.292 199.458C111.139 199.184 112.061 199.321 112.783 199.832C113.73 200.505 114.365 201.54 114.552 202.687C114.602 203.173 115 203.535 115.486 203.535H115.573C116.084 203.485 116.458 203.024 116.408 202.513C116.171 200.804 115.237 199.283 113.83 198.286H113.842Z" fill="#27449B"/>
<path d="M105.67 205.854C105.159 205.854 104.748 206.265 104.735 206.777C104.673 212.063 104.499 217.973 104.349 218.583C103.901 219.12 100.338 219.518 99.0926 219.656C98.5818 219.681 98.1832 220.129 98.2081 220.641C98.2331 221.152 98.6815 221.551 99.1922 221.526H99.2919C103.527 221.027 105.445 220.641 106.018 219.394C106.38 218.596 106.591 212.1 106.591 206.801C106.591 206.29 106.18 205.866 105.67 205.854Z" fill="#27449B"/>
<path d="M100.301 226.588C97.1621 225.727 93.9732 225.079 90.7469 224.643C90.4728 224.605 90.1988 224.705 89.9995 224.905C89.8002 225.104 89.7005 225.378 89.7254 225.653C89.7504 225.927 90.3358 232.136 94.297 232.734C94.6707 232.797 95.0569 232.822 95.4431 232.822C97.461 232.971 99.3545 231.812 100.139 229.941C100.301 229.455 100.04 228.944 99.5662 228.77C99.5413 228.77 99.5288 228.757 99.5039 228.745C99.0181 228.582 98.4825 228.844 98.3205 229.331C98.2458 229.53 97.4984 231.325 94.5835 230.877C92.9642 230.627 92.1296 228.321 91.7808 226.662C93.1759 226.887 95.8292 227.373 99.8403 228.395C100.301 228.483 100.75 228.208 100.899 227.772C101.061 227.286 100.799 226.75 100.301 226.588Z" fill="#27449B"/>
<path d="M93.2756 282.518C93.3254 282.019 92.9642 281.57 92.4659 281.508C91.9552 281.433 91.4818 281.795 91.4195 282.306C90.7593 287.442 91.1829 292.666 92.6652 297.641C94.5462 303.887 100.264 327.227 95.2811 364.879C95.2188 365.39 95.5676 365.852 96.0783 365.926H96.2029C96.6887 365.964 97.1247 365.615 97.1994 365.129C102.269 327.102 96.4271 303.438 94.5212 297.092C93.1012 292.38 92.6777 287.405 93.2756 282.518Z" fill="white"/>
<path d="M193.888 248.855C193.452 248.568 192.879 248.68 192.592 249.117C192.306 249.553 192.418 250.127 192.854 250.413C199.132 254.603 202.508 259.041 202.632 263.23C202.657 265.948 201.437 268.541 199.307 270.237C196.566 272.294 192.132 278.391 191.945 278.653C191.82 278.815 191.758 279.027 191.77 279.226C192.032 287.592 188.507 316.604 184.77 332.588C180.833 349.681 177.595 360.254 161.6 361.987C160.591 362.099 159.582 362.174 158.623 362.174C155.721 362.249 152.831 361.874 150.04 361.064C140.2 358.234 132.751 350.429 124.604 339.595C124.292 339.183 123.707 339.096 123.296 339.408C122.885 339.719 122.798 340.305 123.109 340.717C131.48 351.85 139.178 359.88 149.517 362.859C152.27 363.682 155.123 364.094 158 364.106L158.66 364.056C159.669 364.044 160.741 363.969 161.812 363.857C179.936 361.887 183.026 348.509 186.601 333.024C190.263 317.128 193.826 288.377 193.651 279.513C194.511 278.341 198.198 273.416 200.428 271.746C203.044 269.676 204.538 266.509 204.501 263.18C204.364 258.281 200.789 253.468 193.888 248.855Z" fill="#27449B"/>
<path d="M176.112 259.59C172.437 261.884 172.96 266.808 173.346 268.803C173.633 271.359 163.742 305.957 158.76 322.302C158.211 324.023 157.788 325.382 157.514 326.217C154.973 333.872 151.721 353.085 157.838 363.62C157.888 363.707 157.937 363.795 158.012 363.869C158.187 364.056 158.423 364.156 158.672 364.156C158.822 364.156 158.984 364.119 159.121 364.044C159.569 363.795 159.744 363.233 159.494 362.772V362.697C154.238 353.683 156.281 335.942 159.308 326.79C159.594 325.943 160.018 324.571 160.553 322.838C162.384 316.879 175.825 271.783 175.19 268.454C174.866 266.821 174.418 262.844 177.096 261.173C177.469 260.899 177.582 260.4 177.37 259.989C177.133 259.527 176.573 259.353 176.112 259.59Z" fill="#27449B"/>
<path d="M67.6394 244.13C67.191 245.962 66.5806 247.77 65.9453 249.541L66.1695 249.678L72.1986 252.807C73.1951 253.269 74.2165 253.68 75.2255 254.054C80.4449 256.161 86.0878 256.946 91.6808 256.36V252.146C91.7057 251.099 91.7555 249.977 91.8677 248.867C82.6995 252.234 73.5937 248.493 67.6394 244.13Z" fill="#39B715"/>
<path d="M91.5195 247.995C81.2552 251.785 71.7632 246.025 68.1632 243.369C68.076 243.307 67.9639 243.245 67.8518 243.22C67.3535 243.082 66.8428 243.369 66.7058 243.868C66.1577 245.85 65.6096 247.596 65.0366 249.217C64.8995 249.616 65.0366 250.064 65.3978 250.301L65.622 250.438C65.8836 250.613 66.2324 250.638 66.5189 250.513C66.9923 250.301 67.204 249.753 66.9923 249.279C67.3784 248.132 67.7646 246.885 68.1383 245.638C72.3985 248.518 81.143 253.069 90.797 250.189C90.7222 250.837 90.7222 251.398 90.7222 252.084V255.588C85.5403 255.962 80.3458 255.164 75.5251 253.231C74.3168 252.745 73.395 252.371 72.5604 251.984C72.087 251.772 71.5389 251.984 71.3272 252.458C71.1154 252.932 71.3272 253.48 71.8005 253.692C72.685 254.079 73.6441 254.465 74.8898 254.939C79.1251 256.585 83.6219 257.47 88.1686 257.545C89.3769 257.545 90.5977 257.458 91.7935 257.283C92.2793 257.208 92.6281 256.772 92.5907 256.286V252.171C92.6281 250.925 92.6779 249.902 92.7776 248.967C92.79 248.83 92.7776 248.693 92.7278 248.556C92.5534 248.07 92.0177 247.82 91.5319 247.995H91.5195Z" fill="#39B715"/>
<path d="M70.5792 249.603C69.1467 249.092 67.5772 249.117 66.1696 249.678L65.8581 249.778C63.4042 250.763 61.1993 252.284 59.3807 254.204C58.1475 255.45 57.0139 256.784 55.98 258.206C53.688 261.323 47.7212 266.933 50.524 267.781C53.3267 268.629 64.1267 264.228 68.7606 258.966C70.9903 256.435 71.9744 254.378 72.1861 252.82C72.4976 251.498 71.8124 250.152 70.5792 249.603Z" fill="#39B715"/>
<path d="M70.9291 248.743C69.3222 248.144 67.5533 248.144 65.9464 248.743L65.5478 248.867C62.9693 249.915 60.6399 251.498 58.7215 253.518C57.451 254.802 56.28 256.174 55.2212 257.62C54.6731 258.355 53.9008 259.265 53.0911 260.213C50.1638 263.692 48.4323 265.823 48.9181 267.432C49.105 268.055 49.6033 268.529 50.2386 268.679C50.5998 268.778 50.9735 268.828 51.3472 268.816C55.6323 268.816 65.1866 264.427 69.4094 259.602C71.253 257.782 72.5235 255.475 73.0841 252.944C73.4578 251.211 72.5485 249.453 70.9291 248.743ZM71.228 252.645C71.091 253.73 70.4184 255.588 68.0142 258.305C63.48 263.455 53.0538 267.519 50.687 266.871C50.5251 266.048 53.2406 262.919 54.4863 261.41C55.3209 260.437 56.1056 259.502 56.6911 258.717C57.7001 257.345 58.8087 256.036 60.0046 254.827C61.7485 252.982 63.8786 251.536 66.2329 250.588L66.4571 250.513C67.1672 250.264 67.9146 250.127 68.6744 250.114V250.164C69.1852 250.152 69.6959 250.226 70.1817 250.413C71.0287 250.8 71.4647 251.747 71.228 252.645Z" fill="#39B715"/>
<path d="M63.8283 262.32C65.622 272.755 69.3217 278.441 70.8912 278.042C71.8753 277.792 74.7902 272.269 75.8739 265.674C76.5964 261.809 76.3722 257.819 75.2261 254.054C66.631 248.917 63.8034 262.333 63.8283 262.32Z" fill="#39B715"/>
<path d="M75.6742 253.244C73.7684 251.885 71.3019 251.585 69.122 252.433C64.5629 254.44 62.956 261.821 62.8937 262.133C62.8688 262.245 62.8688 262.37 62.8937 262.482C64.4632 271.621 67.4404 277.256 69.5455 278.615C69.8943 278.852 70.2929 278.989 70.7165 279.002C70.841 279.002 70.9656 278.989 71.0902 278.952C72.9088 278.478 75.7614 271.858 76.758 265.823C77.5303 261.796 77.2936 257.657 76.0728 253.742C75.9981 253.53 75.8611 253.356 75.6742 253.244ZM74.9517 265.537C73.9552 271.559 71.4763 276.284 70.6417 277.107C69.5455 276.62 66.4189 271.783 64.7746 262.357H64.7622C65.2605 260.35 66.9047 255.463 69.9068 254.154C71.414 253.58 73.1206 253.78 74.4535 254.69C75.4625 258.218 75.6369 261.934 74.9517 265.537Z" fill="#39B715"/>
<path d="M115.871 277.705C115.871 277.705 115.847 277.655 115.834 277.63C115.585 277.182 115.024 277.007 114.564 277.256C114.103 277.506 113.941 278.067 114.19 278.528C115.822 281.907 118.388 286.844 119.422 288.677C120.692 290.884 125.326 302.391 124.716 317.352C124.554 322.788 123.956 329.371 123.47 334.496C123.42 335.007 123.806 335.468 124.317 335.505H124.404C124.865 335.505 125.264 335.181 125.339 334.72C125.775 329.571 126.36 322.963 126.584 317.477C127.207 302.067 122.374 290.111 121.053 287.754C120.157 286.158 117.64 281.346 115.871 277.705Z" fill="white"/>
<path d="M123.894 339.296C123.383 339.208 122.91 339.557 122.823 340.069L122.686 341.39C121.639 351.826 120.655 361.638 120.942 366.625C119.596 368.058 112.384 374.966 96.6387 376.96C78.9751 379.23 44.657 366.226 44.3206 366.089C44.2085 366.064 44.0964 366.064 43.9843 366.089C43.4736 366.089 43.0625 366.512 43.0625 367.024C43.0625 367.423 43.3241 367.784 43.6978 367.909C44.8687 368.32 73.6935 379.13 92.2788 379.13C93.811 379.105 95.3432 378.98 96.8629 378.756C115.137 376.499 122.312 367.896 122.611 367.535C122.76 367.348 122.835 367.111 122.823 366.874C122.461 362.261 123.47 352.212 124.542 341.577L124.679 340.256C124.704 339.782 124.355 339.37 123.894 339.296Z" fill="#27449B"/>
</g>
<defs>
<clipPath id="clip0_236_2017">
<rect width="593" height="516" fill="white"/>
</clipPath>
</defs>
</svg>
