<svg width="533" height="586" viewBox="0 0 533 586" fill="none" xmlns="http://www.w3.org/2000/svg">
<ellipse cx="266.115" cy="562.76" rx="266.115" ry="23.2395" fill="#EBEEFA"/>
<path d="M282.89 171.749C282.689 172.15 282.272 172.386 281.875 172.287C274.399 170.516 265.557 175.035 261.019 180.191C260.669 180.59 260.126 180.633 259.807 180.301C259.479 179.964 259.503 179.373 259.846 178.986C264.74 173.419 274.317 168.524 282.422 170.452C282.876 170.565 283.113 171.057 282.973 171.56C282.954 171.622 282.935 171.685 282.906 171.742L282.89 171.749Z" fill="#27449B"/>
<path d="M262.205 350.711L262.469 339.673C262.475 339.417 262.716 339.233 262.964 339.294L267.582 340.429C267.831 340.49 267.959 340.765 267.846 340.994L262.963 350.897C262.774 351.282 262.195 351.139 262.205 350.711Z" fill="#27449B"/>
<path d="M265.233 341.86C267.59 342.392 269.951 342.24 271.772 341.758C272.682 341.517 273.467 341.191 274.051 340.82C274.625 340.456 275.052 340.018 275.161 339.535C275.279 339.013 275.001 338.583 274.559 338.245C274.118 337.907 273.463 337.614 272.678 337.345C271.244 336.853 269.294 336.414 267.214 335.946C267.011 335.9 266.806 335.854 266.6 335.807C264.278 335.283 262.007 334.944 260.265 334.931C259.397 334.925 258.641 335 258.073 335.184C257.509 335.367 257.065 335.68 256.949 336.193C256.837 336.689 257.067 337.229 257.462 337.741C257.865 338.262 258.476 338.804 259.233 339.322C260.749 340.36 262.889 341.33 265.233 341.86Z" fill="#39B715" stroke="white" stroke-width="0.5"/>
<path d="M306.325 101.738L314.729 103.332L270.269 337.772C270.221 338.025 270.047 338.234 269.812 338.321C268.051 338.975 266.784 339.163 265.641 338.926C264.495 338.688 263.435 338.015 262.102 336.856C261.908 336.687 261.818 336.423 261.867 336.166L306.325 101.738Z" fill="#39B715" stroke="white" stroke-width="0.5"/>
<path d="M310.546 67.4463C309.848 75.4504 305.272 100.816 303.072 112.498C302.955 113.403 303.237 115.229 304.944 116.08C306.652 116.93 310.487 117.72 312.926 116.913C315.364 116.106 315.317 115.165 315.328 114.447C315.44 107.107 314.377 95.9478 318.939 79.9568C324.513 67.7656 323.834 63.5466 322.798 62.961C319.005 61.121 311.244 59.4422 310.546 67.4463Z" fill="#27449B" stroke="white" stroke-width="0.5"/>
<path d="M273.881 350.82L272.782 339.834C272.757 339.579 272.973 339.367 273.227 339.397L277.95 339.954C278.204 339.984 278.365 340.241 278.281 340.482L274.657 350.912C274.516 351.317 273.924 351.247 273.881 350.82Z" fill="#27449B"/>
<path d="M275.796 341.663C278.201 341.901 280.525 341.459 282.273 340.756C283.147 340.405 283.885 339.985 284.419 339.544C284.944 339.112 285.314 338.626 285.363 338.132C285.415 337.6 285.086 337.208 284.605 336.926C284.127 336.646 283.441 336.436 282.628 336.265C281.145 335.954 279.155 335.759 277.034 335.55C276.826 335.53 276.617 335.509 276.407 335.489C274.038 335.254 271.742 335.198 270.012 335.4C269.15 335.501 268.409 335.669 267.868 335.922C267.331 336.172 266.929 336.538 266.877 337.061C266.827 337.567 267.122 338.075 267.577 338.534C268.041 339.002 268.714 339.464 269.53 339.885C271.162 340.728 273.405 341.427 275.796 341.663Z" fill="#39B715" stroke="white" stroke-width="0.5"/>
<path d="M287.018 98.3105L295.459 98.85L280.238 336.986C280.222 337.242 280.076 337.47 279.855 337.586C278.206 338.452 276.986 338.795 275.836 338.702C274.684 338.608 273.562 338.073 272.113 337.088C271.901 336.944 271.781 336.694 271.798 336.434L287.018 98.3105Z" fill="#39B715" stroke="white" stroke-width="0.5"/>
<path d="M286.931 63.7572C287.225 71.7864 285.812 97.5222 285.068 109.386C285.064 110.299 285.569 112.077 287.368 112.71C289.167 113.344 293.07 113.654 295.391 112.553C297.712 111.452 297.549 110.524 297.471 109.81C296.678 102.513 294.247 91.5691 296.803 75.1376C300.831 62.3523 299.637 58.2492 298.537 57.7958C294.546 56.4375 286.638 55.7281 286.931 63.7572Z" fill="#27449B" stroke="white" stroke-width="0.5"/>
<path d="M320.131 218.858C301.232 232.754 289.667 233.864 286.334 232.017C283.002 230.17 284.538 225.964 287.008 225.317C284.701 225.804 278.785 221.545 285.304 217.241C281.328 216.861 278.538 209.686 288.935 207.492C284.008 206.388 282.063 199.035 290.876 197.035C300.104 194.947 303.913 185.174 303.913 185.174L320.131 218.858Z" fill="white"/>
<path d="M291.481 257.081L279.827 223.489L274.343 267.364L291.481 257.081Z" fill="white"/>
<path d="M360.115 301.693C347.103 286.213 321.669 282.978 296.578 284.417V284.321C296.825 278.001 294.837 268.334 291.422 256.968C289.914 258.216 288.584 259.271 287.652 259.957C266.139 275.917 209.28 285.72 187.37 286.46C188.33 292.63 202.082 336.876 209.006 344.485C209.911 347.296 231.876 410.133 225.678 421.527C222.84 426.765 182.585 449.936 152.558 480.018C155.08 492.248 167.187 506.837 181.543 509.154C218.179 490.932 263.918 466.568 274.023 449.731C284.115 432.894 285.116 409.338 286.5 350.71L286.377 350.052C307.272 346.268 311.468 344.499 311.468 344.499C311.468 344.499 324.48 407.816 336.038 439.9C336.038 439.9 362.322 435.457 370.686 429.918C373.592 403.717 384.232 330.376 360.115 301.679V301.693Z" fill="#27449B"/>
<path d="M181.544 510.182C181.544 510.182 181.435 510.182 181.38 510.182C166.27 507.756 154.136 492.742 151.558 480.238C151.49 479.895 151.599 479.552 151.832 479.305C170.616 460.494 193.404 444.356 208.5 433.675C217.069 427.615 223.829 422.816 224.789 421.061C228.285 414.617 222.184 386.578 208.459 346.048C208.308 345.596 208.185 345.253 208.116 345.034C200.808 336.615 187.303 292.603 186.371 286.652C186.33 286.364 186.412 286.063 186.59 285.843C186.782 285.61 187.056 285.487 187.344 285.473C210.187 284.692 266.1 274.71 287.05 259.175C287.941 258.517 289.271 257.462 290.78 256.214C291.054 255.995 291.397 255.926 291.739 256.022C292.068 256.118 292.329 256.378 292.425 256.707C295.907 268.321 297.649 277.274 297.635 283.362C328.403 281.757 349.696 287.708 360.911 301.062C383.617 328.101 376.062 392.803 372.429 423.913C372.168 426.189 371.921 428.246 371.716 430.083C371.688 430.384 371.51 430.659 371.263 430.823C362.817 436.431 337.301 440.777 336.218 440.969C335.724 441.065 335.244 440.777 335.08 440.298C324.481 410.874 312.525 354.604 310.702 345.897C308.426 346.597 302.27 348.242 287.53 350.929C286.159 408.913 285.185 433.14 274.916 450.293C264.482 467.678 216.891 492.756 182.01 510.1C181.873 510.169 181.709 510.21 181.558 510.21L181.544 510.182ZM153.684 480.347C156.357 492.029 167.929 505.726 181.38 508.085C216.014 490.85 263.015 466.074 273.147 449.21C283.157 432.51 284.116 408.433 285.474 350.806L285.378 350.257C285.323 349.983 285.377 349.709 285.542 349.49C285.693 349.27 285.94 349.106 286.2 349.065C306.561 345.376 311.031 343.594 311.086 343.58C311.36 343.457 311.689 343.484 311.963 343.621C312.237 343.759 312.429 344.019 312.484 344.321C312.608 344.951 325.4 406.87 336.725 438.776C341.195 437.98 362.118 434.045 369.728 429.356C369.92 427.642 370.139 425.736 370.386 423.652C373.978 392.844 381.478 328.717 359.335 302.365C348.421 289.381 327.333 283.677 296.648 285.459C296.374 285.487 296.086 285.377 295.88 285.185C295.674 284.993 295.551 284.719 295.551 284.445C295.77 278.7 294.194 270.117 290.876 258.778C289.834 259.614 288.942 260.327 288.257 260.821C267.334 276.342 212.38 286.392 188.605 287.475C190.621 296.428 203.249 336.67 209.761 343.827C209.857 343.937 209.94 344.06 209.981 344.197C210.036 344.375 210.173 344.773 210.379 345.39C218.674 369.878 231.809 412.409 226.571 422.048C225.433 424.132 220.278 427.848 209.666 435.361C194.748 445.933 172.248 461.865 153.67 480.375L153.684 480.347Z" fill="#27449B"/>
<path d="M351.958 480.21C347.159 480.21 345.35 473.753 340.907 457.944C340.167 455.298 339.344 452.377 338.425 449.169C338.275 448.62 338.59 448.058 339.125 447.894C339.673 447.729 340.235 448.058 340.4 448.593C341.318 451.801 342.141 454.722 342.895 457.368C347.118 472.395 348.873 478.606 352.548 478.085C354.604 477.797 358.69 475.508 363.421 472.875C370.386 468.981 379.051 464.141 387.936 461.591C392.57 460.261 398.233 459 403.704 457.779C414.768 455.325 428.534 452.254 429.192 449.073C429.233 448.867 429.055 448.003 427.739 446.55C421.747 439.955 401.235 429.932 362.31 434.155C361.761 434.21 361.241 433.812 361.172 433.25C361.117 432.688 361.515 432.181 362.091 432.112C401.839 427.793 423.022 438.282 429.274 445.165C430.33 446.33 431.523 448.017 431.221 449.484C430.357 453.68 420.417 456.175 404.156 459.781C398.713 460.988 393.077 462.249 388.512 463.552C379.86 466.047 371.304 470.818 364.435 474.657C359.321 477.509 355.29 479.758 352.849 480.114C352.548 480.155 352.26 480.183 351.986 480.183L351.958 480.21Z" fill="#27449B"/>
<path d="M138.024 563.477C133.307 563.477 130.798 559.46 125.287 543.747C124.107 540.415 123.298 536.398 122.86 531.819C122.38 526.855 122.325 521.151 122.722 514.885C123.353 505.068 124.889 496.993 125.3 495.992C126.068 494.154 129.304 492.783 138.888 488.725C140.506 488.039 142.302 487.285 144.276 486.435C144.797 486.216 145.401 486.449 145.62 486.984C145.839 487.505 145.606 488.108 145.071 488.327C143.097 489.177 141.301 489.931 139.683 490.617C132.169 493.798 127.631 495.717 127.192 496.773C126.891 497.527 125.382 505.233 124.765 515.009C124.381 521.179 124.423 526.759 124.903 531.627C125.314 536.042 126.095 539.894 127.22 543.075C133.143 559.953 135.186 561.626 138.476 561.421C141.218 561.229 141.877 559.145 143.111 554.455C143.289 553.77 143.481 553.043 143.7 552.289C143.92 551.535 144.235 550.383 144.633 548.944C145.798 544.762 147.567 538.455 149.473 531.901C150.789 527.39 152.75 520.809 154.409 515.914C155.08 513.898 155.67 512.253 156.177 511.005C156.397 510.484 156.986 510.224 157.521 510.443C158.042 510.662 158.302 511.252 158.083 511.787C157.603 512.993 157.014 514.598 156.355 516.572C154.696 521.439 152.763 527.979 151.447 532.477C149.541 539.017 147.786 545.324 146.621 549.492C146.223 550.932 145.894 552.083 145.688 552.837C145.483 553.578 145.291 554.291 145.113 554.976C143.906 559.556 142.96 563.162 138.627 563.463C138.422 563.463 138.216 563.477 138.024 563.477Z" fill="#27449B"/>
<path d="M290.493 229.332C289.956 229.446 289.409 229.113 289.283 228.579C289.14 228.034 289.483 227.471 290.028 227.328C303.979 223.851 317.853 216.551 324.761 186.87C330.956 160.255 316.78 142.62 307.809 139.091C307.275 138.881 307.023 138.289 307.233 137.755C307.445 137.234 308.034 136.969 308.569 137.179C318.12 140.936 333.25 159.505 326.766 187.344C319.606 218.086 305.112 225.7 290.533 229.324L290.493 229.332Z" fill="#27449B"/>
<path d="M325.577 189.739C325.108 189.838 324.624 189.604 324.428 189.141C320.671 180.503 310.802 175.173 303.408 174.534C302.838 174.486 302.423 173.985 302.474 173.428C302.522 172.857 303.023 172.443 303.58 172.494C311.558 173.178 322.249 178.951 326.315 188.322C326.539 188.85 326.3 189.446 325.789 189.68C325.725 189.708 325.661 189.736 325.594 189.75L325.577 189.739Z" fill="#27449B"/>
<path d="M290.174 203.657C289.624 203.774 289.091 203.438 288.961 202.891C288.845 202.341 289.176 201.78 289.723 201.651C298.465 199.581 301.698 196.18 304.327 190.973C304.585 190.47 305.201 190.27 305.702 190.515C306.204 190.773 306.404 191.39 306.16 191.89C303.334 197.489 299.675 201.4 290.198 203.638L290.172 203.644L290.174 203.657Z" fill="#27449B"/>
<path d="M288.251 214.854C287.701 214.97 287.167 214.634 287.038 214.087C286.922 213.537 287.252 212.977 287.799 212.848C298.757 210.254 302.79 205.928 306.073 199.307C306.331 198.804 306.945 198.591 307.448 198.849C307.964 199.104 308.164 199.721 307.906 200.224C304.447 207.204 299.943 212.092 288.264 214.851L288.237 214.857L288.251 214.854Z" fill="#27449B"/>
<path d="M293.921 221.279C291.667 221.755 289.091 222.033 286.118 222.086C285.545 222.095 285.086 221.645 285.064 221.075C285.055 220.502 285.518 220.04 286.074 220.021C297.339 219.815 302.2 216.421 306.799 210.658C307.155 210.218 307.797 210.139 308.25 210.492C308.689 210.847 308.769 211.489 308.416 211.942C304.759 216.526 300.774 219.819 293.918 221.266L293.921 221.279Z" fill="#27449B"/>
<path d="M95.0149 25.3896C94.7269 25.3896 94.4255 25.2662 94.2199 25.0194C94.1239 24.896 84.142 13.0223 69.9237 1.83414C69.4712 1.47766 69.4028 0.833258 69.7456 0.394507C70.1021 -0.0579553 70.7466 -0.126517 71.1853 0.216258C85.5819 11.5415 95.6868 23.5798 95.7965 23.6894C96.1667 24.1282 96.098 24.7726 95.673 25.1428C95.481 25.3073 95.2479 25.3759 95.0149 25.3759V25.3896Z" fill="#27449B"/>
<path d="M71.9662 19.0413C71.7742 19.0413 71.5824 18.9865 71.4179 18.8768C71.2945 18.8083 59.4755 11.3632 48.3833 6.72891C47.8623 6.50954 47.6157 5.9062 47.835 5.38518C48.0544 4.86416 48.6577 4.61741 49.1787 4.83679C60.4354 9.53966 72.3914 17.067 72.5148 17.1492C72.9947 17.4509 73.1455 18.0816 72.8301 18.5615C72.6382 18.8768 72.2952 19.0413 71.9662 19.0413Z" fill="#27449B"/>
<path d="M64.6028 24.9371C64.4656 24.9371 64.3422 24.9097 64.2188 24.8548C64.1503 24.8274 56.7325 21.8247 43.5151 20.0149C42.9529 19.9326 42.5555 19.4253 42.6377 18.8494C42.72 18.2873 43.2412 17.8897 43.8033 17.972C57.3086 19.823 64.6988 22.8257 65.0142 22.9491C65.5352 23.1684 65.7956 23.7717 65.5762 24.2927C65.4117 24.6903 65.0278 24.9234 64.6302 24.9234L64.6028 24.9371Z" fill="#27449B"/>
<path d="M62.2721 28.7762C62.0938 28.7762 61.9154 28.735 61.7372 28.6254C61.2436 28.3374 61.0927 27.7068 61.3807 27.2132C64.0543 22.7571 72.0891 15.0104 76.9427 13.8998C77.5049 13.7764 78.0532 14.1191 78.1766 14.6676C78.3 15.216 77.9575 15.7782 77.409 15.9016C73.474 16.8065 65.7819 23.8676 63.1494 28.2689C62.9575 28.5842 62.6148 28.7625 62.2721 28.7625V28.7762Z" fill="#27449B"/>
<path d="M296.577 285.35C296.577 285.35 296.55 285.35 296.536 285.35C295.974 285.322 295.521 284.856 295.549 284.28C295.768 278.426 294.054 269.335 290.435 257.256C289.749 254.952 288.995 252.58 288.214 250.14C282.702 233.316 274.05 211.804 264.48 191.141C261.793 185.355 258.954 179.46 256.02 173.619C255.76 173.112 255.965 172.495 256.473 172.234C256.98 171.974 257.597 172.179 257.857 172.687C260.805 178.541 263.657 184.464 266.358 190.264C276.107 211.31 284.566 232.343 290.188 249.495C290.928 251.799 291.71 254.253 292.423 256.666C296.097 268.951 297.852 278.275 297.619 284.349C297.606 284.897 297.139 285.336 296.591 285.336L296.577 285.35Z" fill="#27449B"/>
<path d="M206.526 178.061C206.279 178.061 206.033 177.965 205.841 177.801C205.498 177.499 171.248 146.8 157.742 125.274C134.434 88.09 103.063 43.3921 102.748 42.9396C102.57 42.6928 102.515 42.3638 102.597 42.0758C103.653 38.3464 103.461 34.9187 103.241 30.9562C102.995 26.3356 102.707 21.0844 104.105 13.6667C104.215 13.1046 104.75 12.748 105.312 12.844C105.874 12.9537 106.23 13.4884 106.134 14.0506C104.777 21.2351 105.051 26.3356 105.298 30.8465C105.517 34.8364 105.709 38.2916 104.708 42.1581C107.876 46.6827 137.313 88.8166 159.484 124.191C171.687 143.647 201.179 170.794 206.416 175.552L215.466 164.46C215.822 164.021 216.481 163.953 216.906 164.309C217.344 164.666 217.413 165.31 217.056 165.763L207.335 177.691C207.157 177.911 206.897 178.048 206.622 178.061C206.595 178.061 206.567 178.061 206.54 178.061H206.526Z" fill="#27449B"/>
<path d="M216.41 146.266C215.849 146.218 215.424 145.714 215.472 145.154C215.519 144.594 216.023 144.169 216.584 144.216C223.934 144.84 225.02 144.685 226.763 144.255C226.973 144.204 227.454 144.052 228.189 143.825C247.46 137.906 266.806 134.361 285.68 133.28C286.234 133.244 286.733 133.685 286.767 134.252C286.802 134.819 286.361 135.305 285.794 135.34C267.087 136.394 247.909 139.912 228.793 145.789C227.988 146.037 227.478 146.2 227.254 146.25C225.147 146.759 223.746 146.888 216.41 146.266Z" fill="#27449B"/>
<path d="M216.246 166.133C215.766 166.133 215.341 165.79 215.245 165.31C215.135 164.748 215.492 164.213 216.054 164.104L227.064 161.896C224.281 158.756 217.041 150.982 211.941 149.077C211.612 148.953 211.379 148.679 211.297 148.336C211.269 148.199 210.515 144.826 210.117 141.96C210.035 141.398 210.433 140.877 210.995 140.795C211.543 140.726 212.078 141.11 212.16 141.673C212.462 143.811 212.969 146.293 213.188 147.363C220.058 150.324 229.381 161.416 229.793 161.91C230.026 162.184 230.094 162.568 229.971 162.911C229.848 163.254 229.56 163.5 229.203 163.583L216.452 166.133C216.452 166.133 216.315 166.147 216.246 166.147V166.133Z" fill="#27449B"/>
<path d="M225.596 183.299C227.667 205.058 216.849 215.863 213.435 218.413C210.021 220.963 202.055 232.028 202.055 232.028L178.074 237.128C180.021 232.138 180.624 212.942 180.624 212.942C187.548 202.385 196.31 200.794 205.057 196.297C213.791 191.8 215.492 181.791 215.492 181.791C215.492 181.791 212.31 176.8 209.842 172.947L216.246 165.105L224.65 163.418C230.724 172.207 225.596 183.299 225.596 183.299Z" fill="#39B715"/>
<path d="M216.245 166.133C216.135 166.133 216.012 166.119 215.902 166.078C212.159 164.776 197.982 160.415 185.518 157.893C185.08 157.797 184.737 157.426 184.696 156.974C184.696 156.851 183.531 144.908 175.414 129.867C175.139 129.374 175.331 128.743 175.825 128.469C176.332 128.195 176.949 128.387 177.223 128.88C184.463 142.317 186.273 153.094 186.657 156.014C197.872 158.331 210.253 162.047 215.258 163.679C215.312 160.841 215.23 154.191 213.599 149.543C213.407 149.008 213.694 148.418 214.229 148.226C214.764 148.034 215.354 148.322 215.546 148.857C217.808 155.26 217.301 164.748 217.287 165.146C217.273 165.461 217.095 165.763 216.834 165.941C216.67 166.051 216.464 166.119 216.259 166.119L216.245 166.133Z" fill="#27449B"/>
<path d="M322.436 342.401C321.984 342.401 321.559 342.086 321.435 341.619C321.298 341.071 321.627 340.509 322.176 340.372C331.458 338.041 336.325 336.149 336.38 336.135C336.915 335.929 337.504 336.19 337.71 336.725C337.916 337.259 337.655 337.849 337.121 338.055C336.915 338.137 332.102 340.002 322.669 342.374C322.587 342.401 322.505 342.401 322.423 342.401H322.436Z" fill="white"/>
<path d="M93.9175 79.1229C93.5884 79.1229 93.2733 78.9721 93.0813 78.6842C92.7523 78.218 92.8618 77.5736 93.328 77.2582C103.927 69.772 112.194 65.0966 117.254 62.5052C117.761 62.2447 118.378 62.4504 118.638 62.9577C118.899 63.465 118.694 64.0819 118.186 64.3424C113.182 66.9064 105.01 71.527 94.5073 78.9447C94.3291 79.0681 94.1232 79.1366 93.9175 79.1366V79.1229Z" fill="#27449B"/>
<path d="M174.207 130.1C172.452 130.1 170.725 129.675 169.162 128.825C165.652 126.906 163.774 123.327 164.144 119.241C164.308 117.418 164.857 115.951 165.789 114.867C167.544 112.77 170.546 112.153 174.482 113.099C175.798 113.4 176.703 113.784 176.744 113.812C177.265 114.031 177.512 114.634 177.279 115.155C177.059 115.676 176.456 115.923 175.935 115.704C175.935 115.704 175.14 115.361 174.016 115.101C171.836 114.58 168.915 114.346 167.366 116.197C166.721 116.952 166.324 118.035 166.2 119.433C165.912 122.683 167.393 125.521 170.163 127.029C173.316 128.757 177.251 128.277 180.446 125.809C180.898 125.452 181.543 125.548 181.886 125.987C182.228 126.44 182.16 127.084 181.707 127.427C179.417 129.209 176.799 130.114 174.235 130.114L174.207 130.1Z" fill="#27449B"/>
<path d="M208.881 71.3076C198.817 77.5049 171.148 87.0204 171.148 87.0204C181.432 99.8676 174.233 114.072 174.233 114.072C171.999 113.537 168.502 113.195 166.555 115.512C146.908 97.619 150.322 88.8851 153.434 84.7992C156.135 81.2618 160.029 77.9437 162.73 69.9777C167.927 54.7036 178.443 54.5802 178.21 60.0097C193.21 44.7357 203.122 49.7265 201.23 55.9239C216.381 47.6288 219.822 64.5618 208.854 71.3076H208.881Z" fill="#27449B"/>
<path d="M166.557 116.554C166.296 116.554 166.05 116.458 165.871 116.28C151.105 102.829 146.648 92.0387 152.626 84.1823C153.216 83.4145 153.847 82.6604 154.519 81.8788C156.945 79.0132 159.701 75.75 161.771 69.6623C165.638 58.2959 172.356 55.1699 175.894 55.828C177.265 56.0885 178.307 56.87 178.842 57.9669C188.59 48.6297 196.213 47.7248 199.874 49.8911C201.492 50.8509 202.411 52.4002 202.507 54.1552C209.171 51.1525 213.407 53.1543 215.19 56.2256C217.754 60.6405 216.053 68.0993 209.417 72.1852C200.532 77.6696 178.54 85.526 172.823 87.5278C182.105 100.43 175.222 114.388 175.153 114.538C174.934 114.963 174.468 115.196 174.002 115.073C171.822 114.552 168.901 114.333 167.352 116.17C167.174 116.389 166.913 116.513 166.639 116.54C166.611 116.54 166.598 116.54 166.57 116.54L166.557 116.554ZM174.879 57.8024C171.972 57.8024 166.886 60.997 163.719 70.3342C161.525 76.7921 158.508 80.3569 156.081 83.2225C155.437 83.9903 154.82 84.717 154.258 85.4437C149.13 92.1758 153.257 101.828 166.529 114.113C168.188 112.756 170.615 112.345 173.632 112.907C174.893 109.932 178.91 98.3868 170.341 87.6786C170.135 87.4181 170.067 87.0753 170.149 86.7462C170.245 86.4309 170.492 86.1704 170.807 86.0607C171.081 85.9647 198.49 76.5178 208.334 70.4438C213.86 67.0435 215.436 60.7776 213.407 57.2676C211.529 54.0318 207.169 53.8673 201.739 56.8426C201.369 57.0482 200.916 57.0071 200.601 56.7329C200.272 56.4724 200.149 56.0336 200.258 55.636C200.766 53.9907 200.217 52.4962 198.818 51.6735C195.377 49.6306 187.891 51.6461 178.951 60.7502C178.65 61.0518 178.197 61.1478 177.814 60.9696C177.43 60.8051 177.183 60.4074 177.196 59.9824C177.251 58.8169 176.648 58.0628 175.51 57.8572C175.318 57.816 175.099 57.8024 174.879 57.8024Z" fill="#27449B"/>
<path d="M182.489 98.4691C182.379 98.4691 182.283 98.4554 182.173 98.4142C181.639 98.236 181.337 97.6602 181.515 97.1255C182.79 93.1767 185.107 91.4903 186.835 90.7636C189.495 89.653 192.141 90.1466 192.937 90.5442C193.444 90.8047 193.649 91.4217 193.403 91.929C193.156 92.4363 192.539 92.6421 192.018 92.3953C191.785 92.2856 189.673 91.7645 187.52 92.7106C185.642 93.5333 184.285 95.2333 183.476 97.7561C183.339 98.1949 182.927 98.4691 182.502 98.4691H182.489Z" fill="#27449B"/>
<path d="M213.27 99.1135C213.928 100.759 213.503 102.486 212.324 102.953C211.145 103.419 209.664 102.459 209.006 100.814C208.348 99.1684 208.773 97.4409 209.952 96.9747C211.131 96.5085 212.612 97.4682 213.27 99.1135Z" fill="#27449B"/>
<path d="M198.669 103.775C199.465 105.791 198.943 107.902 197.504 108.478C196.064 109.054 194.241 107.875 193.445 105.846C192.65 103.83 193.171 101.719 194.611 101.143C196.051 100.567 197.874 101.746 198.669 103.775Z" fill="#27449B"/>
<path d="M199.572 89.5023C199.38 89.5023 199.188 89.4474 199.024 89.3377C198.544 89.0361 198.407 88.3916 198.709 87.9117C199.764 86.2664 201.533 85.1833 203.576 84.9639C205.509 84.7446 207.415 85.3478 208.663 86.5681C209.074 86.9657 209.074 87.6101 208.676 88.0215C208.279 88.4328 207.634 88.4328 207.223 88.0352C206.4 87.2399 205.125 86.856 203.795 87.0069C202.369 87.1714 201.149 87.9117 200.422 89.0223C200.23 89.324 199.901 89.4885 199.558 89.4885L199.572 89.5023Z" fill="#27449B"/>
<path d="M204.536 114.717C204.043 114.717 203.604 114.36 203.522 113.853C203.426 113.291 203.81 112.77 204.372 112.674C209.527 111.851 210.117 110.932 210.13 110.919C210.117 109.822 208.746 105.475 202.384 99.9498C201.959 99.5797 201.904 98.9216 202.274 98.4966C202.644 98.0715 203.302 98.0168 203.727 98.4007C210.405 104.2 212.173 109.068 212.159 111.028C212.159 112.77 209.925 113.867 204.701 114.703C204.646 114.703 204.591 114.703 204.536 114.703V114.717Z" fill="#27449B"/>
<path d="M206.554 134.639C206.554 134.639 206.444 134.639 206.389 134.639C202.084 133.953 199.054 132.28 197.408 129.648C195.215 126.152 196.325 122.326 196.38 122.176C196.476 121.86 196.723 121.6 197.038 121.504C197.354 121.394 197.696 121.449 197.97 121.641C201.878 124.465 207.184 124.643 211.805 122.079C212.299 121.805 212.929 121.984 213.203 122.477C213.477 122.971 213.299 123.601 212.806 123.876C207.993 126.536 202.522 126.618 198.149 124.177C198.08 125.329 198.203 127.029 199.177 128.578C200.507 130.676 203.043 132.02 206.732 132.61C207.294 132.692 207.678 133.227 207.582 133.789C207.5 134.296 207.061 134.653 206.567 134.653L206.554 134.639Z" fill="#27449B"/>
<path d="M210.118 129.552C209.583 129.552 209.131 129.141 209.09 128.592L208.761 124.15C208.719 123.588 209.145 123.094 209.707 123.053C210.269 123.012 210.762 123.437 210.803 123.999L211.133 128.441C211.174 129.004 210.749 129.497 210.187 129.538C210.159 129.538 210.132 129.538 210.104 129.538L210.118 129.552Z" fill="#27449B"/>
<path d="M204.194 143.948C201.054 143.948 197.942 143.441 194.953 142.824C194.39 142.714 194.034 142.166 194.157 141.604C194.267 141.042 194.801 140.685 195.377 140.809C204.92 142.769 214.916 143.551 222.895 129.936C225.158 126.083 221.291 91.4216 201.123 75.846C200.67 75.5032 200.588 74.8588 200.93 74.4063C201.273 73.9539 201.918 73.8716 202.37 74.2144C222.978 90.1191 227.694 125.795 224.664 130.964C218.631 141.247 211.365 143.935 204.194 143.935V143.948Z" fill="#27449B"/>
<path d="M187.714 289.696C187.221 289.696 186.782 289.353 186.713 288.846C186.604 288.092 186.494 287.379 186.371 286.652C180.53 252.581 146.17 187.536 131.664 161.156C120.146 140.178 108.314 115.389 104.489 105.393C100.677 95.3979 80.9741 51.5365 79.5893 48.4652C78.2593 47.1215 65.9744 35.0696 47.8348 28.7214C47.3001 28.5294 47.0122 27.9536 47.2041 27.4052C47.3961 26.8704 47.9719 26.5825 48.5203 26.7744C68.127 33.6299 81.0703 47.0255 81.2074 47.1489C81.2897 47.2312 81.3581 47.3272 81.3992 47.4369C81.6049 47.9031 102.473 94.2873 106.422 104.653C110.22 114.58 121.997 139.259 133.474 160.155C148.021 186.631 182.504 251.909 188.4 286.282C188.537 287.023 188.633 287.763 188.743 288.476C188.825 289.038 188.441 289.587 187.879 289.669C187.824 289.669 187.769 289.669 187.714 289.669V289.696Z" fill="#27449B"/>
<path d="M230.93 297.415C230.491 297.415 230.08 297.127 229.943 296.675C229.779 296.127 230.094 295.564 230.642 295.4L231.479 295.153C242.022 292.027 274.106 282.539 301.994 280.948C302.542 280.907 303.05 281.346 303.077 281.922C303.105 282.484 302.68 282.978 302.104 283.005C274.449 284.582 242.543 294.029 232.054 297.127L231.218 297.374C231.122 297.402 231.026 297.415 230.93 297.415Z" fill="white"/>
<path d="M240.663 356.853C232.327 356.853 225.773 355.769 220.289 353.589C219.768 353.384 219.507 352.78 219.713 352.259C219.919 351.725 220.522 351.478 221.043 351.684C230.97 355.632 245.394 355.783 267.797 352.177C275.051 351.012 281.07 349.983 286.198 349.051C306.558 345.363 311.042 343.58 311.083 343.567C311.604 343.347 312.207 343.608 312.427 344.129C312.646 344.65 312.4 345.253 311.878 345.472C311.7 345.541 307.34 347.323 286.568 351.08C281.426 352.013 275.393 353.041 268.127 354.22C257.171 355.975 248.191 356.866 240.663 356.866V356.853Z" fill="white"/>
</svg>
