<svg width="56" height="56" viewBox="0 0 56 56" fill="none" xmlns="http://www.w3.org/2000/svg">
<path d="M33 17.5V17.75H33.25H49C50.3261 17.75 51.5979 18.2768 52.5355 19.2145C53.4732 20.1521 54 21.4239 54 22.75V49C54 50.3261 53.4732 51.5979 52.5355 52.5355C51.5979 53.4732 50.3261 54 49 54H7C5.67392 54 4.40215 53.4732 3.46447 52.5355C2.52678 51.5979 2 50.3261 2 49V22.75C2 21.4239 2.52678 20.1521 3.46447 19.2145C4.40215 18.2768 5.67392 17.75 7 17.75H22.75H23V17.5V10.5V10.25H22.75H18.375C17.281 10.25 16.2318 9.8154 15.4582 9.04182C14.6846 8.26823 14.25 7.21902 14.25 6.125C14.25 5.03098 14.6846 3.98177 15.4582 3.20818C16.2318 2.4346 17.281 2 18.375 2H37.625C38.719 2 39.7682 2.4346 40.5418 3.20818C41.3154 3.98177 41.75 5.03098 41.75 6.125C41.75 7.21902 41.3154 8.26823 40.5418 9.04182C39.7682 9.8154 38.719 10.25 37.625 10.25H33.25H33V10.5V17.5ZM26.25 10.25H26V10.5V17.5V17.75H26.25H29.75H30V17.5V10.5V10.25H29.75H26.25ZM17.5795 5.3295C17.3685 5.54048 17.25 5.82663 17.25 6.125C17.25 6.42337 17.3685 6.70952 17.5795 6.9205C17.7905 7.13147 18.0766 7.25 18.375 7.25H37.625C37.9234 7.25 38.2095 7.13147 38.4205 6.9205C38.6315 6.70952 38.75 6.42337 38.75 6.125C38.75 5.82663 38.6315 5.54048 38.4205 5.32951C38.2095 5.11853 37.9234 5 37.625 5H18.375C18.0766 5 17.7905 5.11853 17.5795 5.3295ZM50.4142 50.4142C50.7893 50.0391 51 49.5304 51 49V22.75C51 22.2196 50.7893 21.7109 50.4142 21.3358C50.0391 20.9607 49.5304 20.75 49 20.75H7C6.46957 20.75 5.96086 20.9607 5.58579 21.3358C5.21071 21.7109 5 22.2196 5 22.75V49C5 49.5304 5.21071 50.0391 5.58579 50.4142C5.96086 50.7893 6.46957 51 7 51H49C49.5304 51 50.0391 50.7893 50.4142 50.4142Z" fill="#27449B" stroke="white" stroke-width="0.5"/>
<path d="M16.625 40.2501C15.3614 40.2433 14.1142 39.963 12.9693 39.4282C11.8243 38.8935 10.8088 38.1172 9.9925 37.1526C9.18513 38.3201 8.7518 39.7056 8.75 41.1251V42.0001C8.75 43.1604 9.21094 44.2732 10.0314 45.0937C10.8519 45.9142 11.9647 46.3751 13.125 46.3751H20.125C21.2853 46.3751 22.3981 45.9142 23.2186 45.0937C24.0391 44.2732 24.5 43.1604 24.5 42.0001V41.1251C24.4982 39.7056 24.0649 38.3201 23.2575 37.1526C22.4412 38.1172 21.4257 38.8935 20.2807 39.4282C19.1358 39.963 17.8886 40.2433 16.625 40.2501Z" fill="#39B715"/>
<path d="M16.625 36.75C19.5245 36.75 21.875 34.3995 21.875 31.5C21.875 28.6005 19.5245 26.25 16.625 26.25C13.7255 26.25 11.375 28.6005 11.375 31.5C11.375 34.3995 13.7255 36.75 16.625 36.75Z" fill="#39B715"/>
<path d="M42 25.375H31.5C30.5717 25.375 29.6815 25.7437 29.0251 26.4001C28.3687 27.0565 28 27.9467 28 28.875V42.875C28 43.8033 28.3687 44.6935 29.0251 45.3499C29.6815 46.0063 30.5717 46.375 31.5 46.375H42C42.9283 46.375 43.8185 46.0063 44.4749 45.3499C45.1313 44.6935 45.5 43.8033 45.5 42.875V28.875C45.5 27.9467 45.1313 27.0565 44.4749 26.4001C43.8185 25.7437 42.9283 25.375 42 25.375ZM38.5 41.5625H35C34.5359 41.5625 34.0908 41.3781 33.7626 41.0499C33.4344 40.7217 33.25 40.2766 33.25 39.8125C33.25 39.3484 33.4344 38.9033 33.7626 38.5751C34.0908 38.2469 34.5359 38.0625 35 38.0625H38.5C38.9641 38.0625 39.4092 38.2469 39.7374 38.5751C40.0656 38.9033 40.25 39.3484 40.25 39.8125C40.25 40.2766 40.0656 40.7217 39.7374 41.0499C39.4092 41.3781 38.9641 41.5625 38.5 41.5625ZM38.5 33.6875H35C34.5359 33.6875 34.0908 33.5031 33.7626 33.1749C33.4344 32.8467 33.25 32.4016 33.25 31.9375C33.25 31.4734 33.4344 31.0283 33.7626 30.7001C34.0908 30.3719 34.5359 30.1875 35 30.1875H38.5C38.9641 30.1875 39.4092 30.3719 39.7374 30.7001C40.0656 31.0283 40.25 31.4734 40.25 31.9375C40.25 32.4016 40.0656 32.8467 39.7374 33.1749C39.4092 33.5031 38.9641 33.6875 38.5 33.6875Z" fill="#39B715"/>
</svg>
