<svg width="21" height="18" viewBox="0 0 21 18" fill="none" xmlns="http://www.w3.org/2000/svg">
<g clip-path="url(#clip0_416_6130)">
<g clip-path="url(#clip1_416_6130)">
<path d="M11.4766 5.25H13.7266C14.219 5.25 14.7067 5.347 15.1616 5.53545C15.6166 5.72391 16.03 6.00013 16.3782 6.34835C16.7264 6.69657 17.0027 7.10997 17.1911 7.56494C17.3796 8.01991 17.4766 8.50754 17.4766 9C17.4766 9.49246 17.3796 9.98009 17.1911 10.4351C17.0027 10.89 16.7264 11.3034 16.3782 11.6517C16.03 11.9999 15.6166 12.2761 15.1616 12.4645C14.7067 12.653 14.219 12.75 13.7266 12.75H11.4766M6.97656 12.75H4.72656C4.23411 12.75 3.74647 12.653 3.2915 12.4645C2.83653 12.2761 2.42313 11.9999 2.07491 11.6517C1.37165 10.9484 0.976563 9.99456 0.976562 9C0.976563 8.00544 1.37165 7.05161 2.07491 6.34835C2.77817 5.64509 3.732 5.25 4.72656 5.25H6.97656M6.22656 9H12.2266" stroke="#27449B" stroke-width="1.5" stroke-linecap="round" stroke-linejoin="round"/>
</g>
</g>
<defs>
<clipPath id="clip0_416_6130">
<rect width="20.0432" height="18" fill="white" transform="translate(0.226562)"/>
</clipPath>
<clipPath id="clip1_416_6130">
<rect width="18" height="18" fill="white" transform="translate(0.226562)"/>
</clipPath>
</defs>
</svg>
