<svg width="80" height="80" viewBox="0 0 80 80" fill="none" xmlns="http://www.w3.org/2000/svg">
<path d="M51.75 10V10.75H52.5H55C55.4641 10.75 55.9092 10.9344 56.2374 11.2626C56.5656 11.5908 56.75 12.0359 56.75 12.5V24.375C56.75 24.8391 56.5656 25.2842 56.2374 25.6124C55.9109 25.939 55.4685 26.1232 55.0068 26.125C54.6268 26.1165 54.2598 25.9846 53.9613 25.749C53.6611 25.5119 53.4468 25.183 53.3512 24.8126L53.2061 24.25H52.625H7.5H6.75V25V72.5V73.25H7.5H52.5H53.25V72.5V68.75C53.25 68.2859 53.4344 67.8408 53.7626 67.5126C54.0907 67.1844 54.5359 67 55 67C55.4641 67 55.9093 67.1844 56.2374 67.5126C56.5656 67.8408 56.75 68.2859 56.75 68.75V75C56.75 75.4641 56.5656 75.9092 56.2374 76.2374C55.9093 76.5656 55.4641 76.75 55 76.75H5C4.53587 76.75 4.09075 76.5656 3.76256 76.2374C3.43437 75.9092 3.25 75.4641 3.25 75V12.5C3.25 12.0359 3.43437 11.5908 3.76256 11.2626C4.09075 10.9344 4.53587 10.75 5 10.75H7.5H8.25V10V5C8.25 4.53587 8.43437 4.09075 8.76256 3.76256C9.09075 3.43437 9.53587 3.25 10 3.25C10.4641 3.25 10.9092 3.43437 11.2374 3.76256C11.5656 4.09075 11.75 4.53587 11.75 5V10V10.75H12.5H20.825H21.575V10V5C21.575 4.53587 21.7594 4.09075 22.0876 3.76256C22.4158 3.43437 22.8609 3.25 23.325 3.25C23.7891 3.25 24.2342 3.43437 24.5624 3.76256C24.8906 4.09075 25.075 4.53587 25.075 5V10V10.75H25.825H34.175H34.925V10V5C34.925 4.53587 35.1094 4.09075 35.4376 3.76256C35.7658 3.43437 36.2109 3.25 36.675 3.25C37.1391 3.25 37.5842 3.43437 37.9124 3.76256C38.2406 4.09075 38.425 4.53587 38.425 5V10V10.75H39.175H47.5H48.25V10V5C48.25 4.53587 48.4344 4.09075 48.7626 3.76256C49.0908 3.43437 49.5359 3.25 50 3.25C50.4641 3.25 50.9092 3.43437 51.2374 3.76256C51.5656 4.09075 51.75 4.53587 51.75 5V10ZM7.5 14.25H6.75V15V20V20.75H7.5H52.5H53.25V20V15V14.25H52.5H7.5Z" fill="#27449B" stroke="white" stroke-width="1.5"/>
<path d="M22.5 40.75H23.25V40V35V34.25H22.5H17.5H16.75V35V40V40.75H17.5H22.5ZM26.2374 31.2626C26.5656 31.5908 26.75 32.0359 26.75 32.5V42.5C26.75 42.9641 26.5656 43.4093 26.2374 43.7374C25.9092 44.0656 25.4641 44.25 25 44.25H15C14.5359 44.25 14.0908 44.0656 13.7626 43.7374C13.4344 43.4093 13.25 42.9641 13.25 42.5V32.5C13.25 32.0359 13.4344 31.5908 13.7626 31.2626C14.0908 30.9344 14.5359 30.75 15 30.75H25C25.4641 30.75 25.9092 30.9344 26.2374 31.2626Z" fill="#27449B" stroke="white" stroke-width="1.5"/>
<path d="M46.2374 36.2626C46.5656 36.5908 46.75 37.0359 46.75 37.5C46.75 37.9641 46.5656 38.4092 46.2374 38.7374C45.9093 39.0656 45.4641 39.25 45 39.25H35C34.5359 39.25 34.0908 39.0656 33.7626 38.7374C33.4344 38.4092 33.25 37.9641 33.25 37.5C33.25 37.0359 33.4344 36.5908 33.7626 36.2626C34.0908 35.9344 34.5359 35.75 35 35.75H45C45.4641 35.75 45.9093 35.9344 46.2374 36.2626Z" fill="#27449B" stroke="white" stroke-width="1.5"/>
<path d="M22.5 62H23.25V61.25V56.25V55.5H22.5H17.5H16.75V56.25V61.25V62H17.5H22.5ZM15 52H25C25.4641 52 25.9092 52.1844 26.2374 52.5126C26.5656 52.8407 26.75 53.2859 26.75 53.75V63.75C26.75 64.2141 26.5656 64.6593 26.2374 64.9874C25.9092 65.3156 25.4641 65.5 25 65.5H15C14.5359 65.5 14.0908 65.3156 13.7626 64.9874C13.4344 64.6593 13.25 64.2141 13.25 63.75V53.75C13.25 53.2859 13.4344 52.8407 13.7626 52.5126C14.0908 52.1844 14.5359 52 15 52Z" fill="#27449B" stroke="white" stroke-width="1.5"/>
<path d="M33.7626 57.5126C34.0908 57.1844 34.5359 57 35 57H40C40.4641 57 40.9093 57.1844 41.2374 57.5126C41.5656 57.8407 41.75 58.2859 41.75 58.75C41.75 59.2141 41.5656 59.6593 41.2374 59.9874C40.9093 60.3156 40.4641 60.5 40 60.5H35C34.5359 60.5 34.0908 60.3156 33.7626 59.9874C33.4344 59.6593 33.25 59.2141 33.25 58.75C33.25 58.2859 33.4344 57.8407 33.7626 57.5126Z" fill="#27449B" stroke="white" stroke-width="1.5"/>
<path d="M59.6044 23.5525L47.9824 48.476L61.577 54.8152L73.199 29.8918L59.6044 23.5525Z" fill="#39B715"/>
<path d="M73.8996 13.65L71.6246 12.5C70.8815 12.1507 70.0766 11.9519 69.2563 11.915C68.436 11.8781 67.6165 12.0038 66.845 12.285C66.0735 12.5662 65.3653 12.9972 64.7611 13.5533C64.1569 14.1093 63.6687 14.7794 63.3246 15.525L61.7246 18.925L75.3246 25.25L76.9246 21.85C77.592 20.359 77.6492 18.6659 77.0838 17.1333C76.5184 15.6007 75.3754 14.3503 73.8996 13.65Z" fill="#39B715"/>
<path d="M44.8247 55.275C44.6198 55.7201 44.5503 56.2157 44.6247 56.7L45.8747 64.875L45.1247 66.45C44.9861 66.7486 44.9078 67.0717 44.8943 67.4007C44.8809 67.7297 44.9326 68.0581 45.0464 68.367C45.1602 68.676 45.3339 68.9594 45.5576 69.201C45.7813 69.4426 46.0505 69.6377 46.3497 69.775C46.6483 69.9136 46.9714 69.9919 47.3004 70.0054C47.6294 70.0188 47.9578 69.9671 48.2667 69.8533C48.5757 69.7395 48.8591 69.5658 49.1007 69.3421C49.3423 69.1184 49.5374 68.8493 49.6747 68.55L50.3997 66.975L57.4997 62.675C57.9239 62.421 58.2632 62.0469 58.4747 61.6L59.5247 59.35L45.8747 53L44.8247 55.275Z" fill="#39B715"/>
</svg>
