<svg width="" height="" viewBox="0 0 187 44" fill="none" xmlns="http://www.w3.org/2000/svg">
<path d="M25.5785 0.0280151C32.2481 0.0280151 37.2468 1.07863 40.5747 3.19388C43.8886 5.30913 45.5595 8.60108 45.5595 13.0977C45.5595 19.4435 43.443 24.1643 39.2241 27.2741C35.0051 30.384 28.5861 31.9389 19.981 31.9389C13.3114 31.9389 8.31266 30.8742 4.98481 28.745C1.65696 26.6297 0 23.3238 0 18.8271C0 12.4814 2.11646 7.76058 6.33544 4.66475C10.5544 1.56892 16.9734 0.0280151 25.5785 0.0280151ZM21.3456 23.8981C24.4367 23.8981 26.943 23.758 28.8506 23.4779C30.7582 23.1977 32.2481 22.6934 33.3063 21.951C34.3646 21.2085 35.0747 20.2139 35.4367 18.9532C35.7987 17.6924 35.9937 16.0535 35.9937 14.0503C35.9937 12.8176 35.7709 11.809 35.3253 11.0245C34.8797 10.24 34.1835 9.62368 33.2089 9.17542C32.2481 8.72715 31.0089 8.43298 29.519 8.27889C28.0152 8.12479 26.2329 8.05476 24.1443 8.05476C21.0532 8.05476 18.5608 8.19484 16.6671 8.47501C14.7734 8.75517 13.2975 9.25947 12.2392 10.0019C11.181 10.7443 10.4709 11.7529 10.1089 13.0277C9.74684 14.3024 9.5519 15.9274 9.5519 17.9026C9.5519 19.1633 9.77468 20.1859 10.2342 20.9564C10.6937 21.7268 11.4038 22.3292 12.3506 22.7775C13.2975 23.2257 14.5089 23.5199 15.9987 23.674C17.4886 23.8281 19.2709 23.8981 21.3456 23.8981Z" fill="#192B62"/>
<path d="M78.3786 31.9389C77.7102 31.9669 77.1115 31.8828 76.5824 31.6587C76.0672 31.4486 75.4824 30.9863 74.8419 30.2719L58.9963 13.2799L55.8355 31.4346H47.2026L51.6583 5.79943C51.8393 4.77683 52.1317 3.90831 52.5355 3.16587C52.9393 2.42343 53.4128 1.82108 53.9837 1.35881C54.5545 0.896534 55.1672 0.560337 55.8495 0.336205C56.5178 0.126081 57.214 0.0140076 57.9102 0.0140076C58.495 0.0140076 59.0799 0.112071 59.6507 0.308187C60.2355 0.504302 60.8343 0.966577 61.4469 1.66699L77.2925 18.659L80.4811 0.532316H89.114L84.5748 26.1254C84.3938 27.148 84.0874 28.0166 83.6836 28.759C83.2659 29.5014 82.7925 30.1038 82.2355 30.5801C81.6786 31.0564 81.0659 31.4066 80.3976 31.6167C79.7153 31.8268 79.0469 31.9389 78.3786 31.9389Z" fill="#192B62"/>
<path d="M122.128 19.9338C121.668 18.7291 121.265 17.6784 120.917 16.7679C120.568 15.8574 120.262 15.0449 119.998 14.3165C119.733 13.588 119.51 12.9437 119.329 12.3553C119.148 11.767 118.981 11.2066 118.828 10.6463C118.494 11.2066 118.118 11.767 117.728 12.3553C117.324 12.9437 116.879 13.602 116.377 14.3165C115.876 15.0449 115.291 15.8434 114.637 16.7399C113.982 17.6364 113.203 18.673 112.311 19.8778L105.823 28.6609C105.085 29.6415 104.263 30.44 103.344 31.0423C102.425 31.6447 101.325 31.9389 100.044 31.9389C98.8469 31.9389 97.8305 31.6027 96.9672 30.9163C96.1039 30.2439 95.6026 29.1652 95.4495 27.6804L92.4697 0.518308H101.924L102.941 11.2767C103.094 13.0277 103.219 14.5686 103.303 15.8714C103.4 17.1741 103.47 18.4769 103.525 19.7797C104.166 18.7291 104.932 17.5524 105.823 16.2496C106.714 14.9468 107.87 13.2658 109.318 11.2346L114.832 3.47405C115.389 2.73161 115.904 2.12926 116.391 1.66699C116.879 1.20472 117.352 0.854503 117.811 0.602354C118.271 0.350205 118.744 0.196114 119.232 0.112065C119.719 0.0420231 120.262 0 120.833 0C121.418 0 121.947 0.0420231 122.42 0.112065C122.894 0.196114 123.325 0.350205 123.729 0.602354C124.133 0.854503 124.481 1.19071 124.801 1.63897C125.122 2.08724 125.428 2.68959 125.693 3.46005L128.449 11.2627C128.812 12.3413 129.146 13.2939 129.438 14.1063C129.73 14.9188 129.981 15.6613 130.19 16.3196C130.399 16.978 130.608 17.5944 130.789 18.1407C130.97 18.687 131.137 19.2334 131.29 19.7517C131.722 18.5189 132.209 17.2302 132.78 15.8994C133.351 14.5546 134.033 13.0137 134.827 11.2627L139.644 0.504295H148.96L136.191 27.6664C135.481 29.1512 134.604 30.2159 133.546 30.9023C132.487 31.5747 131.346 31.9249 130.12 31.9249C128.895 31.9249 127.92 31.6307 127.182 31.0423C126.444 30.454 125.887 29.6555 125.484 28.6469L122.128 19.9338Z" fill="#192B62"/>
<path d="M187 0.532318L179.467 8.57307H160.684L160.001 12.5935H183.143L176.07 20.1159H158.665L156.687 31.4346H147.135L152.594 0.532318H187Z" fill="#192B62"/>
<path d="M4.17714 42.5151C4.12144 42.3751 4.06575 42.235 4.02397 42.1369C3.9822 42.0248 3.94043 41.9268 3.91258 41.8427C3.88473 41.7587 3.85688 41.6746 3.82904 41.6046C3.80119 41.5346 3.78726 41.4645 3.77334 41.3945C3.73157 41.4645 3.6898 41.5346 3.6341 41.6046C3.59233 41.6746 3.53663 41.7587 3.46701 41.8427C3.41132 41.9268 3.3417 42.0248 3.25815 42.1369C3.17461 42.249 3.09106 42.3751 2.97967 42.5151L2.186 43.5798C2.10245 43.7058 1.99106 43.7899 1.87967 43.8739C1.76828 43.944 1.62904 43.986 1.47587 43.986C1.33663 43.986 1.21132 43.944 1.09992 43.8599C1.00245 43.7759 0.932834 43.6498 0.91891 43.4677L0.556885 40.1617H1.71258L1.8379 41.4645C1.85182 41.6746 1.86575 41.8708 1.87967 42.0248C1.89359 42.1789 1.89359 42.347 1.90752 42.5011C1.99106 42.3751 2.07461 42.235 2.186 42.0669C2.29739 41.9128 2.43663 41.7027 2.60372 41.4505L3.27207 40.512C3.34169 40.4279 3.39739 40.3438 3.46701 40.2878C3.52271 40.2318 3.5784 40.1898 3.6341 40.1617C3.6898 40.1337 3.74549 40.1057 3.80119 40.1057C3.85689 40.0917 3.9265 40.0917 3.99612 40.0917C4.06575 40.0917 4.13537 40.0917 4.19106 40.1057C4.24676 40.1197 4.30245 40.1337 4.34423 40.1617C4.386 40.1898 4.44169 40.2318 4.46954 40.2878C4.49739 40.3438 4.53916 40.4139 4.58094 40.512L4.91511 41.4645C4.95688 41.5906 4.99866 41.7167 5.04043 41.8147C5.0822 41.9128 5.11005 42.0108 5.1379 42.0809C5.16575 42.1649 5.19359 42.235 5.20752 42.305C5.22144 42.3751 5.24929 42.4451 5.26321 42.5011C5.31891 42.347 5.37461 42.1929 5.44423 42.0389C5.51385 41.8708 5.59739 41.6886 5.69486 41.4785L6.27967 40.1758H7.40752L5.86195 43.4817C5.7784 43.6638 5.66701 43.7899 5.5417 43.8739C5.41638 43.958 5.27714 44 5.12397 44C4.97081 44 4.85942 43.958 4.76195 43.8879C4.6784 43.8179 4.60878 43.7199 4.55309 43.5938L4.17714 42.5151Z" fill="#192B62"/>
<path d="M10.276 40.0917C11.0836 40.0917 11.6962 40.2178 12.1 40.4699C12.5038 40.7221 12.7127 41.1283 12.7127 41.6746C12.7127 42.4451 12.462 43.0194 11.9468 43.3977C11.4317 43.7759 10.6519 43.958 9.60761 43.958C8.80001 43.958 8.18735 43.8319 7.78356 43.5658C7.37976 43.3136 7.1709 42.9074 7.1709 42.361C7.1709 41.5906 7.42153 41.0162 7.93672 40.638C8.45191 40.2878 9.23166 40.0917 10.276 40.0917ZM9.76077 42.9914C10.1367 42.9914 10.4431 42.9774 10.6798 42.9354C10.9165 42.9074 11.0975 42.8373 11.2228 42.7533C11.3481 42.6692 11.4317 42.5432 11.4874 42.3891C11.5291 42.235 11.557 42.0389 11.557 41.7867C11.557 41.6326 11.5291 41.5206 11.4734 41.4225C11.4177 41.3244 11.3342 41.2544 11.2228 41.1984C11.1114 41.1423 10.9582 41.1143 10.7772 41.0863C10.5962 41.0723 10.3734 41.0583 10.1228 41.0583C9.74685 41.0583 9.44052 41.0723 9.21773 41.1143C8.98102 41.1423 8.81394 41.2124 8.6747 41.2964C8.54938 41.3805 8.46583 41.5065 8.41014 41.6606C8.36837 41.8147 8.34052 42.0108 8.34052 42.249C8.34052 42.4031 8.36837 42.5291 8.42406 42.6132C8.47976 42.7113 8.5633 42.7813 8.6747 42.8373C8.78609 42.8934 8.93925 42.9214 9.12027 42.9494C9.30128 42.9914 9.51014 42.9914 9.76077 42.9914Z" fill="#192B62"/>
<path d="M18.2264 43.916H16.6809L16.0265 42.9214H14.2442L14.0771 43.916H12.9214L13.2556 41.9968H16.4999C16.5973 41.9968 16.6948 41.9828 16.7783 41.9688C16.8619 41.9408 16.9454 41.9128 17.0011 41.8708C17.0708 41.8287 17.1125 41.7727 17.1543 41.7167C17.1961 41.6606 17.21 41.5906 17.21 41.5065C17.21 41.3805 17.1543 41.2964 17.0568 41.2264C16.9594 41.1703 16.8201 41.1283 16.6391 41.1283H13.3948L14.3277 40.1477H16.7227C16.9176 40.1477 17.1125 40.1617 17.3214 40.2038C17.5302 40.2318 17.7113 40.3018 17.8783 40.3859C18.0454 40.4699 18.1847 40.596 18.2821 40.7361C18.3796 40.8762 18.4353 41.0723 18.4353 41.2964C18.4353 41.4645 18.4075 41.6326 18.3518 41.7727C18.2961 41.9268 18.2125 42.0669 18.1011 42.1929C17.9897 42.319 17.8644 42.4171 17.7252 42.5011C17.572 42.5852 17.4189 42.6412 17.2378 42.6832C17.2935 42.7253 17.3492 42.7953 17.4189 42.8653C17.4885 42.9354 17.572 43.0475 17.6695 43.1735L18.2264 43.916Z" fill="#192B62"/>
<path d="M22.8633 42.9494L21.9443 43.916H18.6443L19.3126 40.1617H20.4683L19.981 42.9494H22.8633Z" fill="#192B62"/>
<path d="M28.1822 41.7447C28.1822 42.0529 28.1125 42.333 27.9733 42.5992C27.8341 42.8653 27.653 43.0895 27.4024 43.2856C27.1657 43.4817 26.8872 43.6358 26.567 43.7479C26.2467 43.8599 25.9125 43.916 25.5505 43.916H23.0442L23.4619 41.5766H24.6176L24.3809 42.9494H25.7176C25.8986 42.9494 26.0657 42.9214 26.2189 42.8793C26.372 42.8373 26.5113 42.7673 26.6227 42.6692C26.7341 42.5852 26.8315 42.4731 26.8872 42.347C26.9568 42.221 26.9847 42.0809 26.9847 41.9268C26.9847 41.8147 26.9568 41.7027 26.9151 41.6046C26.8733 41.5065 26.8037 41.4225 26.7201 41.3525C26.6366 41.2824 26.5391 41.2264 26.4138 41.1844C26.3024 41.1423 26.1632 41.1283 26.0239 41.1283H23.5176L24.4227 40.1477H26.191C26.4834 40.1477 26.748 40.1898 26.9986 40.2598C27.2493 40.3299 27.4442 40.4419 27.6113 40.582C27.7784 40.7221 27.9176 40.8902 28.0012 41.0863C28.1404 41.2964 28.1822 41.5206 28.1822 41.7447Z" fill="#192B62"/>
<path d="M33.8353 40.0917C34.6429 40.0917 35.2555 40.2178 35.6593 40.4699C36.0631 40.7221 36.272 41.1283 36.272 41.6746C36.272 42.4451 36.0214 43.0194 35.5062 43.3977C34.991 43.7759 34.2112 43.958 33.1669 43.958C32.3593 43.958 31.7467 43.8319 31.3429 43.5658C30.9391 43.3136 30.7302 42.9074 30.7302 42.361C30.7302 41.5906 30.9809 41.0162 31.496 40.638C32.0112 40.2878 32.791 40.0917 33.8353 40.0917ZM33.3201 42.9914C33.696 42.9914 34.0024 42.9774 34.2391 42.9354C34.4758 42.8934 34.6568 42.8373 34.7821 42.7533C34.9074 42.6692 34.991 42.5432 35.0467 42.3891C35.0885 42.235 35.1163 42.0389 35.1163 41.7867C35.1163 41.6326 35.0885 41.5206 35.0328 41.4225C34.9771 41.3244 34.8935 41.2544 34.7821 41.1984C34.6707 41.1423 34.5176 41.1143 34.3366 41.0863C34.1555 41.0723 33.9328 41.0583 33.6821 41.0583C33.3062 41.0583 32.9998 41.0723 32.7771 41.1143C32.5403 41.1423 32.3733 41.2124 32.234 41.2964C32.1087 41.3805 32.0252 41.5065 31.9695 41.6606C31.9277 41.8147 31.8998 42.0108 31.8998 42.249C31.8998 42.4031 31.9277 42.5291 31.9834 42.6132C32.0391 42.7113 32.1226 42.7813 32.234 42.8373C32.3454 42.8934 32.4986 42.9214 32.6796 42.9494C32.8467 42.9914 33.0695 42.9914 33.3201 42.9914Z" fill="#192B62"/>
<path d="M41.786 43.916H40.2404L39.586 42.9214H37.8037L37.6367 43.916H36.481L36.8151 41.9968H40.0594C40.1569 41.9968 40.2544 41.9828 40.3379 41.9688C40.4215 41.9408 40.505 41.9128 40.5607 41.8708C40.6303 41.8287 40.6721 41.7727 40.7139 41.7167C40.7556 41.6606 40.7696 41.5906 40.7696 41.5065C40.7696 41.3805 40.7139 41.2964 40.6164 41.2264C40.5189 41.1703 40.3797 41.1283 40.1987 41.1283H36.9544L37.8873 40.1477H40.2822C40.4772 40.1477 40.6721 40.1617 40.881 40.2038C41.0898 40.2318 41.2708 40.3018 41.4379 40.3859C41.605 40.4699 41.7442 40.596 41.8417 40.7361C41.9392 40.8762 41.9949 41.0723 41.9949 41.2964C41.9949 41.4645 41.967 41.6326 41.9113 41.7727C41.8556 41.9268 41.7721 42.0669 41.6607 42.1929C41.5493 42.319 41.424 42.4171 41.2848 42.5011C41.1316 42.5852 40.9784 42.6412 40.7974 42.6832C40.8531 42.7253 40.9088 42.7953 40.9784 42.8653C41.048 42.9354 41.1316 43.0475 41.2291 43.1735L41.786 43.916Z" fill="#192B62"/>
<path d="M43.3593 43.916H42.2036L42.872 40.1617H44.0277L43.3593 43.916Z" fill="#192B62"/>
<path d="M46.7986 41.5626H49.1935L48.7758 43.916H46.2138C45.9214 43.916 45.6568 43.8739 45.4201 43.7899C45.1834 43.7058 44.9745 43.5938 44.8074 43.4397C44.6403 43.2856 44.5011 43.1175 44.4176 42.9074C44.3201 42.7112 44.2783 42.4871 44.2783 42.249C44.2783 41.9408 44.3479 41.6606 44.4872 41.3945C44.6264 41.1423 44.8074 40.9182 45.0441 40.7221C45.2809 40.54 45.5593 40.3859 45.8657 40.2878C46.1859 40.1898 46.5201 40.1337 46.8821 40.1337H49.5555L48.6365 41.1143H46.715C46.5479 41.1143 46.3809 41.1423 46.2277 41.1984C46.0745 41.2544 45.9353 41.3244 45.8239 41.4225C45.7125 41.5205 45.615 41.6326 45.5454 41.7587C45.4758 41.8848 45.4479 42.0248 45.4479 42.1789C45.4479 42.4171 45.5315 42.5992 45.7125 42.7393C45.8796 42.8793 46.1163 42.9494 46.4087 42.9494H47.829L47.9264 42.4031H45.991L46.7986 41.5626Z" fill="#192B62"/>
<path d="M50.6139 43.916H49.4583L50.1266 40.1617H51.2823L50.6139 43.916Z" fill="#192B62"/>
<path d="M55.1113 43.972C55.0278 43.972 54.9582 43.958 54.8885 43.944C54.8189 43.93 54.7493 43.8599 54.6797 43.7759L52.7581 41.7027L52.3683 43.916H51.324L51.867 40.7921C51.8949 40.6661 51.9227 40.568 51.9784 40.4699C52.0202 40.3859 52.0898 40.3018 52.1594 40.2458C52.229 40.1898 52.2987 40.1477 52.3822 40.1197C52.4657 40.0917 52.5493 40.0777 52.6328 40.0777C52.7025 40.0777 52.7721 40.0917 52.8417 40.1197C52.9113 40.1477 52.9809 40.2038 53.0645 40.2878L54.986 42.3611L55.3759 40.1477H56.4202L55.8632 43.2576C55.8354 43.3837 55.8075 43.4817 55.7518 43.5798C55.6961 43.6638 55.6404 43.7479 55.5708 43.8039C55.5012 43.8599 55.4316 43.902 55.348 43.93C55.2784 43.958 55.1949 43.972 55.1113 43.972Z" fill="#192B62"/>
<path d="M57.8683 43.916L58.7455 42.9494H59.6784H59.9569C60.0265 42.9494 60.0961 42.9494 60.1657 42.9494C60.2354 42.9494 60.291 42.9494 60.3467 42.9634C60.305 42.8934 60.2632 42.8093 60.2075 42.7113C60.1518 42.6132 60.11 42.5151 60.0683 42.4171L59.567 41.4225L57.367 43.916H56.0024L58.9961 40.512C59.0936 40.3999 59.205 40.3018 59.3442 40.2178C59.4835 40.1337 59.6366 40.0917 59.8176 40.0917C59.9986 40.0917 60.1379 40.1337 60.2354 40.2178C60.3328 40.3018 60.4164 40.3999 60.486 40.512L62.2265 43.916H57.8683Z" fill="#192B62"/>
<path d="M66.8494 42.9494L65.9304 43.916H62.6304L63.2987 40.1617H64.4544L63.9671 42.9494H66.8494Z" fill="#192B62"/>
<path d="M72.9758 43.972C72.8923 43.972 72.8227 43.958 72.753 43.944C72.6834 43.93 72.6138 43.8599 72.5442 43.7759L70.6227 41.7027L70.2328 43.916H69.1885L69.7315 40.7921C69.7594 40.6661 69.7872 40.568 69.8429 40.4699C69.8847 40.3859 69.9543 40.3018 70.0239 40.2458C70.0935 40.1898 70.1632 40.1477 70.2467 40.1197C70.3302 40.0917 70.4138 40.0777 70.4973 40.0777C70.567 40.0777 70.6366 40.0917 70.7062 40.1197C70.7758 40.1477 70.8454 40.2038 70.929 40.2878L72.8505 42.3611L73.2404 40.1477H74.2847L73.7277 43.2576C73.6999 43.3837 73.672 43.4817 73.6163 43.5798C73.5606 43.6638 73.5049 43.7479 73.4353 43.8039C73.3657 43.8599 73.2961 43.902 73.2125 43.93C73.129 43.958 73.0594 43.972 72.9758 43.972Z" fill="#192B62"/>
<path d="M77.5848 40.0917C78.3924 40.0917 79.005 40.2178 79.4088 40.4699C79.8126 40.7221 80.0215 41.1283 80.0215 41.6746C80.0215 42.4451 79.7709 43.0194 79.2557 43.3977C78.7405 43.7759 77.9607 43.958 76.9164 43.958C76.1089 43.958 75.4962 43.8319 75.0924 43.5658C74.6886 43.2996 74.4797 42.9074 74.4797 42.361C74.4797 41.5906 74.7304 41.0162 75.2456 40.638C75.7607 40.2878 76.5405 40.0917 77.5848 40.0917ZM77.0696 42.9914C77.4456 42.9914 77.7519 42.9774 77.9886 42.9354C78.2253 42.9074 78.4063 42.8373 78.5316 42.7533C78.6569 42.6692 78.7405 42.5432 78.7962 42.3891C78.838 42.235 78.8658 42.0389 78.8658 41.7867C78.8658 41.6326 78.838 41.5206 78.7823 41.4225C78.7266 41.3244 78.643 41.2544 78.5316 41.1984C78.4202 41.1423 78.2671 41.1143 78.0861 41.0863C77.905 41.0723 77.6823 41.0583 77.4316 41.0583C77.0557 41.0583 76.7494 41.0723 76.5266 41.1143C76.2899 41.1423 76.1228 41.2124 75.9835 41.2964C75.8582 41.3805 75.7747 41.5065 75.719 41.6606C75.6772 41.8147 75.6494 42.0108 75.6494 42.249C75.6494 42.4031 75.6772 42.5291 75.7329 42.6132C75.7886 42.7113 75.8721 42.7813 75.9835 42.8373C76.0949 42.8934 76.2481 42.9214 76.4291 42.9494C76.5962 42.9914 76.819 42.9914 77.0696 42.9914Z" fill="#192B62"/>
<path d="M85.5353 43.916H83.9897L83.3353 42.9214H81.553L81.3859 43.916H80.2302L80.5644 41.9968H83.8087C83.9062 41.9968 84.0036 41.9828 84.0872 41.9688C84.1707 41.9408 84.2543 41.9128 84.31 41.8708C84.3796 41.8287 84.4214 41.7727 84.4631 41.7167C84.5049 41.6606 84.5188 41.5906 84.5188 41.5065C84.5188 41.3805 84.4631 41.2964 84.3657 41.2264C84.2682 41.1703 84.129 41.1283 83.9479 41.1283H80.7036L81.6365 40.1477H84.0315C84.2264 40.1477 84.4214 40.1617 84.6302 40.2038C84.8391 40.2318 85.0201 40.3018 85.1872 40.3859C85.3543 40.4699 85.4935 40.596 85.591 40.7361C85.6884 40.8762 85.7441 41.0723 85.7441 41.2964C85.7441 41.4645 85.7163 41.6326 85.6606 41.7727C85.6049 41.9268 85.5214 42.0669 85.41 42.1929C85.2986 42.319 85.1733 42.4171 85.034 42.5011C84.8809 42.5852 84.7277 42.6412 84.5467 42.6832C84.6024 42.7253 84.6581 42.7953 84.7277 42.8653C84.7973 42.9354 84.8808 43.0475 84.9783 43.1735L85.5353 43.916Z" fill="#192B62"/>
<path d="M91.0633 41.7447C91.0633 42.0529 90.9936 42.333 90.8544 42.5992C90.7152 42.8653 90.5342 43.0895 90.2835 43.2856C90.0468 43.4817 89.7683 43.6358 89.4481 43.7479C89.1278 43.8599 88.7936 43.916 88.4316 43.916H85.9253L86.343 41.5766H87.4987L87.262 42.9494H88.5987C88.7797 42.9494 88.9468 42.9214 89.1 42.8793C89.2531 42.8373 89.3924 42.7673 89.5038 42.6692C89.6152 42.5852 89.7126 42.4731 89.7683 42.347C89.838 42.221 89.8658 42.0809 89.8658 41.9268C89.8658 41.8147 89.838 41.7027 89.7962 41.6046C89.7544 41.5065 89.6848 41.4225 89.6012 41.3525C89.5177 41.2824 89.4202 41.2264 89.2949 41.1844C89.1835 41.1423 89.0443 41.1283 88.905 41.1283H86.3987L87.3038 40.1477H89.0721C89.3645 40.1477 89.6291 40.1898 89.8797 40.2598C90.1304 40.3299 90.3253 40.4419 90.4924 40.582C90.6595 40.7221 90.7987 40.8902 90.8823 41.0863C91.0076 41.2964 91.0633 41.5206 91.0633 41.7447Z" fill="#192B62"/>
<path d="M92.4555 43.916H91.2998L91.9682 40.1617H93.1238L92.4555 43.916Z" fill="#192B62"/>
<path d="M98.0948 42.9494L97.1897 43.916H95.31C95.0176 43.916 94.753 43.8739 94.5163 43.7899C94.2796 43.7058 94.0707 43.5938 93.9036 43.4397C93.7365 43.2856 93.5973 43.1175 93.5138 42.9074C93.4163 42.7112 93.3745 42.4871 93.3745 42.249C93.3745 41.9408 93.4441 41.6606 93.5834 41.3945C93.7226 41.1423 93.9036 40.9182 94.1403 40.7221C94.377 40.54 94.6555 40.3859 94.9619 40.2878C95.2821 40.1898 95.6163 40.1337 95.9783 40.1337H98.5821L97.6631 41.1143H95.7973C95.6163 41.1143 95.4631 41.1423 95.31 41.1984C95.1568 41.2544 95.0175 41.3244 94.9062 41.4225C94.7948 41.5205 94.6973 41.6326 94.6277 41.7447C94.5581 41.8708 94.5302 42.0108 94.5302 42.1509C94.5302 42.263 94.5581 42.3751 94.5998 42.4731C94.6416 42.5712 94.7112 42.6552 94.7948 42.7113C94.8783 42.7813 94.9758 42.8373 95.0872 42.8653C95.1986 42.9074 95.3378 42.9214 95.477 42.9214H98.0948V42.9494Z" fill="#192B62"/>
<path d="M104.458 42.5151C104.402 42.3751 104.347 42.235 104.305 42.1369C104.263 42.0248 104.221 41.9268 104.194 41.8427C104.166 41.7587 104.138 41.6746 104.11 41.6046C104.082 41.5346 104.068 41.4645 104.054 41.3945C104.013 41.4645 103.971 41.5346 103.915 41.6046C103.873 41.6746 103.818 41.7587 103.748 41.8427C103.692 41.9268 103.609 42.0248 103.539 42.1369C103.456 42.249 103.372 42.3751 103.261 42.5151L102.467 43.5798C102.383 43.7058 102.272 43.7899 102.161 43.8739C102.049 43.944 101.91 43.986 101.757 43.986C101.618 43.986 101.492 43.944 101.381 43.8599C101.283 43.7759 101.214 43.6498 101.2 43.4677L100.838 40.1617H101.994L102.119 41.4645C102.133 41.6746 102.147 41.8708 102.161 42.0248C102.175 42.1789 102.175 42.347 102.189 42.5011C102.272 42.3751 102.356 42.235 102.467 42.0669C102.578 41.9128 102.718 41.7027 102.885 41.4505L103.553 40.512C103.623 40.4279 103.678 40.3438 103.748 40.2878C103.804 40.2318 103.859 40.1898 103.915 40.1617C103.971 40.1337 104.026 40.1057 104.082 40.1057C104.138 40.0917 104.208 40.0917 104.277 40.0917C104.347 40.0917 104.416 40.0917 104.472 40.1057C104.528 40.1197 104.583 40.1337 104.625 40.1617C104.667 40.1898 104.723 40.2318 104.751 40.2878C104.792 40.3438 104.82 40.4139 104.862 40.512L105.196 41.4645C105.238 41.5906 105.28 41.7167 105.321 41.8147C105.363 41.9128 105.391 42.0108 105.419 42.0809C105.447 42.1649 105.475 42.235 105.489 42.305C105.516 42.3751 105.53 42.4451 105.544 42.5011C105.6 42.347 105.656 42.1929 105.725 42.0389C105.795 41.8708 105.878 41.6886 105.976 41.4785L106.561 40.1758H107.689L106.143 43.4817C106.059 43.6638 105.948 43.7899 105.823 43.8739C105.697 43.958 105.558 44 105.405 44C105.252 44 105.14 43.958 105.043 43.8879C104.959 43.8179 104.89 43.7199 104.834 43.5938L104.458 42.5151Z" fill="#192B62"/>
<path d="M108.454 43.916L109.332 42.9494H110.265H110.543C110.613 42.9494 110.682 42.9494 110.752 42.9494C110.822 42.9494 110.877 42.9494 110.933 42.9634C110.891 42.8934 110.849 42.8093 110.794 42.7113C110.738 42.6132 110.696 42.5151 110.654 42.4171L110.153 41.4225L107.967 43.916H106.603L109.596 40.512C109.694 40.3999 109.805 40.3018 109.944 40.2178C110.084 40.1337 110.237 40.0917 110.418 40.0917C110.599 40.0917 110.738 40.1337 110.835 40.2178C110.933 40.3018 111.016 40.3999 111.086 40.512L112.827 43.916H108.454Z" fill="#192B62"/>
<path d="M117.435 42.9494L116.516 43.916H113.202L113.871 40.1617H115.026L114.539 42.9494H117.435Z" fill="#192B62"/>
<path d="M122.351 43.916H120.596L119.635 42.9214C119.468 42.7533 119.343 42.6272 119.259 42.5291C119.176 42.4311 119.106 42.361 119.065 42.291L118.981 42.8233L118.786 43.902H117.63L118.299 40.1477H119.454L119.301 41.0162C119.287 41.1283 119.259 41.2404 119.232 41.3524C119.204 41.4645 119.176 41.5626 119.162 41.6606C119.246 41.5906 119.357 41.5065 119.482 41.4085C119.608 41.3104 119.761 41.1843 119.956 41.0443L121.195 40.1337H122.866L121.251 41.2124C121.111 41.3104 120.986 41.3945 120.875 41.4645C120.763 41.5346 120.68 41.5906 120.596 41.6466C120.513 41.7027 120.443 41.7447 120.373 41.7867C120.304 41.8287 120.234 41.8708 120.178 41.8988C120.276 41.9688 120.387 42.0669 120.513 42.1789C120.638 42.291 120.819 42.4451 121.028 42.6412L122.351 43.916Z" fill="#192B62"/>
<path d="M123.91 43.916H122.754L123.423 40.1617H124.578L123.91 43.916Z" fill="#192B62"/>
<path d="M128.407 43.972C128.324 43.972 128.254 43.958 128.185 43.944C128.115 43.916 128.045 43.8599 127.976 43.7759L126.054 41.7027L125.664 43.916H124.62L125.163 40.7921C125.191 40.6661 125.219 40.568 125.275 40.4699C125.316 40.3859 125.386 40.3018 125.456 40.2458C125.525 40.1898 125.595 40.1477 125.678 40.1197C125.762 40.0917 125.845 40.0777 125.929 40.0777C125.999 40.0777 126.068 40.0917 126.138 40.1197C126.207 40.1477 126.277 40.2038 126.361 40.2878L128.282 42.3611L128.672 40.1477H129.716L129.159 43.2576C129.132 43.3837 129.104 43.4817 129.048 43.5798C128.992 43.6638 128.937 43.7479 128.867 43.8039C128.797 43.8599 128.728 43.902 128.644 43.93C128.561 43.958 128.491 43.972 128.407 43.972Z" fill="#192B62"/>
<path d="M132.446 41.5626H134.84L134.423 43.916H131.861C131.568 43.916 131.304 43.8739 131.067 43.7899C130.83 43.7058 130.622 43.5938 130.454 43.4397C130.287 43.2856 130.148 43.1175 130.065 42.9074C129.967 42.7112 129.925 42.4871 129.925 42.249C129.925 41.9408 129.995 41.6606 130.134 41.3945C130.273 41.1423 130.454 40.9182 130.691 40.7221C130.928 40.54 131.206 40.3859 131.513 40.2878C131.833 40.1898 132.167 40.1337 132.529 40.1337H135.203L134.284 41.1143H132.362C132.195 41.1143 132.028 41.1423 131.875 41.1984C131.721 41.2544 131.582 41.3244 131.471 41.4225C131.359 41.5205 131.262 41.6326 131.192 41.7587C131.123 41.8848 131.095 42.0248 131.095 42.1789C131.095 42.4171 131.178 42.5992 131.359 42.7393C131.527 42.8793 131.763 42.9494 132.056 42.9494H133.476L133.573 42.4031H131.638L132.446 41.5626Z" fill="#192B62"/>
<path d="M142.081 40.1617L141.162 41.1423H138.878L138.795 41.6326H141.608L140.744 42.5432H138.628L138.391 43.916H137.235L137.904 40.1617H142.081Z" fill="#192B62"/>
<path d="M146.328 42.9494L145.409 43.916H141.816L142.485 40.1617H146.801L145.882 41.1423H143.459L143.376 41.5906H146.328L145.52 42.4451H143.223L143.139 42.9494H146.328Z" fill="#192B62"/>
<path d="M151.661 41.7447C151.661 42.0529 151.591 42.333 151.452 42.5992C151.313 42.8653 151.132 43.0895 150.895 43.2856C150.658 43.4817 150.38 43.6358 150.059 43.7479C149.739 43.8599 149.405 43.916 149.043 43.916H146.537L146.954 41.5766H148.11L147.873 42.9494H149.21C149.391 42.9494 149.558 42.9214 149.711 42.8793C149.864 42.8373 150.004 42.7673 150.115 42.6692C150.226 42.5852 150.324 42.4731 150.38 42.347C150.449 42.221 150.477 42.0809 150.477 41.9268C150.477 41.8147 150.449 41.7027 150.407 41.6046C150.366 41.5065 150.296 41.4225 150.213 41.3525C150.129 41.2824 150.032 41.2264 149.906 41.1844C149.795 41.1423 149.656 41.1283 149.516 41.1283H147.01L147.915 40.1477H149.683C149.976 40.1477 150.24 40.1898 150.491 40.2598C150.742 40.3299 150.937 40.4419 151.104 40.582C151.271 40.7221 151.41 40.8902 151.494 41.0863C151.619 41.2964 151.661 41.5206 151.661 41.7447Z" fill="#192B62"/>
<path d="M156.395 42.9494L155.476 43.916H151.884L152.552 40.1617H156.868L155.949 41.1423H153.527L153.443 41.5906H156.395L155.587 42.4451H153.304L153.22 42.9494H156.395Z" fill="#192B62"/>
<path d="M161.923 43.916H160.377L159.723 42.9214H157.94L157.773 43.916H156.618L156.952 41.9968H160.196C160.294 41.9968 160.391 41.9828 160.475 41.9688C160.558 41.9408 160.642 41.9128 160.697 41.8708C160.767 41.8287 160.809 41.7727 160.851 41.7167C160.892 41.6606 160.906 41.5906 160.906 41.5065C160.906 41.3805 160.851 41.2964 160.753 41.2264C160.656 41.1703 160.516 41.1283 160.335 41.1283H157.091L158.024 40.1477H160.419C160.614 40.1477 160.809 40.1617 161.018 40.2038C161.227 40.2318 161.408 40.3018 161.575 40.3859C161.742 40.4699 161.881 40.596 161.978 40.7361C162.076 40.8762 162.132 41.0723 162.132 41.2964C162.132 41.4645 162.104 41.6326 162.048 41.7727C161.992 41.9268 161.909 42.0669 161.797 42.1929C161.686 42.319 161.561 42.4171 161.421 42.5011C161.268 42.5852 161.115 42.6412 160.934 42.6832C160.99 42.7253 161.046 42.7953 161.115 42.8653C161.185 42.9354 161.268 43.0475 161.366 43.1735L161.923 43.916Z" fill="#192B62"/>
<path d="M163.914 43.916L164.791 42.9494H165.724H166.002C166.072 42.9494 166.142 42.9494 166.211 42.9494C166.281 42.9494 166.337 42.9494 166.392 42.9634C166.351 42.8934 166.309 42.8093 166.253 42.7113C166.197 42.6132 166.156 42.5151 166.114 42.4171L165.613 41.4225L163.427 43.916H162.062L165.056 40.512C165.153 40.3999 165.265 40.3018 165.404 40.2178C165.543 40.1337 165.696 40.0917 165.877 40.0917C166.058 40.0917 166.197 40.1337 166.295 40.2178C166.392 40.3018 166.476 40.3999 166.546 40.512L168.286 43.916H163.914Z" fill="#192B62"/>
<path d="M172.783 40.1617L171.851 41.1423H170.528L170.04 43.93H168.885L169.372 41.1423H167.618L168.551 40.1617H172.783Z" fill="#192B62"/>
<path d="M173.633 43.916H172.477L173.145 40.1617H174.301L173.633 43.916Z" fill="#192B62"/>
<path d="M177.643 40.0917C178.451 40.0917 179.063 40.2178 179.467 40.4699C179.871 40.7221 180.08 41.1283 180.08 41.6746C180.08 42.4451 179.829 43.0194 179.314 43.3977C178.799 43.7759 178.019 43.958 176.975 43.958C176.167 43.958 175.554 43.8319 175.151 43.5658C174.747 43.3136 174.538 42.9074 174.538 42.361C174.538 41.5906 174.788 41.0162 175.304 40.638C175.819 40.2878 176.599 40.0917 177.643 40.0917ZM177.128 42.9914C177.504 42.9914 177.81 42.9774 178.047 42.9354C178.283 42.9074 178.464 42.8373 178.59 42.7533C178.715 42.6692 178.799 42.5432 178.854 42.3891C178.896 42.235 178.924 42.0389 178.924 41.7867C178.924 41.6326 178.896 41.5206 178.84 41.4225C178.785 41.3244 178.701 41.2544 178.59 41.1984C178.478 41.1423 178.325 41.1143 178.144 41.0863C177.963 41.0723 177.74 41.0583 177.49 41.0583C177.114 41.0583 176.807 41.0723 176.585 41.1143C176.348 41.1423 176.181 41.2124 176.042 41.2964C175.916 41.3805 175.833 41.5065 175.777 41.6606C175.735 41.8147 175.707 42.0108 175.707 42.249C175.707 42.4031 175.735 42.5291 175.791 42.6132C175.847 42.7113 175.93 42.7813 176.042 42.8373C176.153 42.8934 176.306 42.9214 176.487 42.9494C176.654 42.9914 176.877 42.9914 177.128 42.9914Z" fill="#192B62"/>
<path d="M184.062 43.972C183.978 43.972 183.909 43.958 183.839 43.944C183.77 43.916 183.7 43.8599 183.63 43.7759L181.709 41.7027L181.319 43.916H180.275L180.818 40.7921C180.846 40.6661 180.873 40.568 180.929 40.4699C180.971 40.3859 181.04 40.3018 181.11 40.2458C181.18 40.1898 181.249 40.1477 181.333 40.1197C181.416 40.0917 181.5 40.0777 181.584 40.0777C181.653 40.0777 181.723 40.0917 181.792 40.1197C181.862 40.1477 181.932 40.2038 182.015 40.2878L183.937 42.3611L184.327 40.1477H185.371L184.814 43.2576C184.786 43.3837 184.758 43.4817 184.703 43.5798C184.647 43.6638 184.591 43.7479 184.521 43.8039C184.452 43.8599 184.382 43.902 184.299 43.93C184.229 43.958 184.146 43.972 184.062 43.972Z" fill="#192B62"/>
</svg>
