<svg width="216" height="38" viewBox="0 0 216 38" fill="none" xmlns="http://www.w3.org/2000/svg">
<path d="M29.5452 0.0327148C37.2491 0.0327148 43.0231 1.25048 46.867 3.70224C50.6949 6.15401 52.6249 9.96968 52.6249 15.1817C52.6249 22.537 50.1802 28.0088 45.3069 31.6134C40.4337 35.218 33.0192 37.0203 23.0797 37.0203C15.3757 37.0203 9.60179 35.7863 5.75786 33.3183C1.91392 30.8665 0 27.0346 0 21.8226C0 14.4673 2.44468 8.99546 7.31795 5.40711C12.1912 1.81877 19.6057 0.0327148 29.5452 0.0327148ZM24.6558 27.7003C28.2264 27.7003 31.1214 27.538 33.3248 27.2132C35.5282 26.8885 37.2491 26.304 38.4715 25.4434C39.6938 24.5829 40.5141 23.43 40.9322 21.9687C41.3504 20.5074 41.5756 18.6077 41.5756 16.2858C41.5756 14.857 41.3182 13.6879 40.8036 12.7787C40.2889 11.8694 39.4847 11.155 38.3589 10.6354C37.2491 10.1158 35.8177 9.77483 34.0968 9.59623C32.3598 9.41762 30.3011 9.33644 27.8886 9.33644C24.3181 9.33644 21.4392 9.49881 19.2518 9.82355C17.0645 10.1483 15.3596 10.7328 14.1373 11.5934C12.915 12.4539 12.0947 13.623 11.6765 15.1005C11.2584 16.5781 11.0332 18.4616 11.0332 20.751C11.0332 22.2123 11.2905 23.3976 11.8213 24.2906C12.352 25.1836 13.1723 25.8818 14.266 26.4014C15.3596 26.921 16.7589 27.2619 18.4798 27.4405C20.2007 27.6192 22.2594 27.7003 24.6558 27.7003Z" fill="white"/>
<path d="M90.5334 37.0199C89.7614 37.0524 89.0698 36.955 88.4587 36.6952C87.8636 36.4517 87.1881 35.9158 86.4482 35.0878L68.1453 15.3924L64.4944 36.4354H54.5227L59.6694 6.72195C59.8785 5.53666 60.2162 4.52996 60.6826 3.66941C61.1491 2.80885 61.6959 2.11068 62.3553 1.57486C63.0147 1.03904 63.7224 0.649359 64.5105 0.389569C65.2825 0.146016 66.0867 0.0161133 66.8908 0.0161133C67.5663 0.0161133 68.2418 0.129777 68.9013 0.357093C69.5768 0.58441 70.2683 1.12023 70.976 1.93207L89.2789 21.6274L92.962 0.616879H102.934L97.6905 30.2816C97.4815 31.4669 97.1276 32.4736 96.6612 33.3342C96.1787 34.1947 95.6319 34.8929 94.9885 35.445C94.3452 35.997 93.6375 36.4029 92.8655 36.6465C92.0774 36.8901 91.3054 37.0199 90.5334 37.0199Z" fill="white"/>
<path d="M141.067 23.1051C140.537 21.7087 140.07 20.4909 139.668 19.4355C139.266 18.3801 138.912 17.4384 138.607 16.5941C138.301 15.7498 138.044 15.0029 137.835 14.3209C137.626 13.639 137.433 12.9895 137.256 12.34C136.87 12.9895 136.435 13.639 135.985 14.3209C135.519 15.0029 135.004 15.766 134.425 16.5941C133.846 17.4384 133.171 18.3639 132.415 19.4031C131.659 20.4422 130.758 21.6437 129.729 23.0401L122.234 33.2206C121.381 34.3572 120.432 35.2827 119.371 35.9809C118.309 36.6791 117.039 37.0201 115.559 37.0201C114.176 37.0201 113.002 36.6304 112.005 35.8348C111.008 35.0554 110.429 33.8052 110.252 32.084L106.81 0.600766H117.73L118.905 13.0707C119.081 15.1003 119.226 16.8863 119.323 18.3964C119.435 19.9064 119.516 21.4164 119.58 22.9265C120.32 21.7087 121.204 20.3448 122.234 18.8348C123.263 17.3247 124.598 15.3763 126.271 13.022L132.64 4.02674C133.283 3.16619 133.878 2.46801 134.441 1.93219C135.004 1.39637 135.551 0.990447 136.082 0.698183C136.612 0.40592 137.159 0.227314 137.722 0.129893C138.285 0.0487086 138.912 0 139.572 0C140.247 0 140.858 0.0487086 141.405 0.129893C141.952 0.227314 142.451 0.40592 142.917 0.698183C143.383 0.990447 143.786 1.38014 144.155 1.89972C144.525 2.4193 144.879 3.11748 145.185 4.01051L148.369 13.0544C148.787 14.3047 149.173 15.4088 149.511 16.3505C149.849 17.2923 150.138 18.1528 150.38 18.916C150.621 19.6791 150.862 20.3935 151.071 21.0267C151.28 21.66 151.473 22.2932 151.65 22.894C152.149 21.4651 152.712 19.9713 153.371 18.4288C154.031 16.8701 154.819 15.0841 155.736 13.0544L161.3 0.584523H172.06L157.312 32.0678C156.491 33.7889 155.478 35.0229 154.256 35.8185C153.033 36.5979 151.715 37.0038 150.299 37.0038C148.884 37.0038 147.758 36.6628 146.906 35.9809C146.053 35.2989 145.41 34.3735 144.944 33.2044L141.067 23.1051Z" fill="white"/>
<path d="M216 0.617188L207.299 9.93715H185.602L184.814 14.5971H211.545L203.374 23.3163H183.27L180.986 36.4357H169.953L176.258 0.617188H216Z" fill="white"/>
</svg>
