<svg width="430" height="496" viewBox="0 0 430 496" fill="none" xmlns="http://www.w3.org/2000/svg">
<path d="M367.37 121.54C365.227 122.971 362.814 123.951 360.28 124.42C355.54 124.97 355.2 119.26 353.74 118.58C352.28 117.9 350.06 120.97 345.44 120.52C342.96 120.27 340.33 116.06 338.44 112.23L337.66 113.14C337.66 113.14 298.8 218.14 296.33 223.99C302.905 238.028 308.697 252.421 313.68 267.1L367.43 122.72L367.37 121.54Z" fill="#39B715"/>
<path d="M342.5 246.05C326.92 253.12 318.5 252.17 316.4 250.35C316.008 250.006 315.725 249.555 315.585 249.053C315.446 248.551 315.455 248.019 315.614 247.522C315.772 247.026 316.071 246.586 316.476 246.257C316.88 245.928 317.371 245.724 317.89 245.67C316.17 245.67 312.59 241.74 317.89 239.67C315.11 238.8 314.2 233.26 321.95 233.26C318.6 231.73 318.32 226.19 324.95 226.09C331.85 225.99 336.04 219.59 336.04 219.59L342.5 246.05Z" fill="white"/>
<path d="M365.39 304.93C355.9 293.64 337.39 291.28 319.05 292.33V292.26C319.23 287.65 317.78 280.6 315.29 272.26C314.19 273.17 313.22 273.94 312.54 274.44C296.85 286.08 255.38 293.23 239.4 293.77C240.1 298.27 250.13 330.54 255.18 336.09C255.84 338.09 271.86 383.97 267.34 392.28C265.27 396.1 235.91 413 214.01 434.94C215.85 443.86 224.68 454.5 235.15 456.19C261.87 442.9 295.23 425.13 302.6 412.85C309.97 400.57 310.69 383.39 311.7 340.63L311.61 340.15C326.85 337.39 329.91 336.15 329.91 336.15C329.91 336.15 339.4 382.33 347.83 405.73C347.83 405.73 367 402.49 373.1 398.45C375.22 379.36 383 325.87 365.39 304.93Z" fill="#27449B"/>
<path d="M235.14 457H235C224 455.23 215.13 444.28 213.25 435.16C213.225 435.039 213.23 434.913 213.265 434.795C213.3 434.676 213.363 434.568 213.45 434.48C227.15 420.76 243.77 408.99 254.78 401.2C261.03 396.78 265.96 393.28 266.66 392C269.21 387.3 264.76 366.85 254.75 337.29L254.5 336.55C249.17 330.41 239.32 298.31 238.64 293.97C238.623 293.864 238.629 293.756 238.657 293.653C238.685 293.55 238.735 293.454 238.803 293.371C238.871 293.289 238.956 293.222 239.052 293.175C239.148 293.129 239.253 293.103 239.36 293.1C256.02 292.53 296.8 285.25 312.08 273.92C312.73 273.44 313.7 272.67 314.8 271.76C314.895 271.68 315.009 271.625 315.131 271.6C315.252 271.575 315.378 271.581 315.497 271.617C315.616 271.652 315.724 271.717 315.812 271.805C315.9 271.893 315.965 272.001 316 272.12C318.54 280.59 319.81 287.12 319.8 291.56C342.24 290.39 357.8 294.73 365.95 304.47C382.51 324.19 377 371.38 374.35 394.07C374.16 395.73 373.98 397.23 373.83 398.57C373.818 398.679 373.782 398.783 373.725 398.876C373.668 398.97 373.591 399.049 373.5 399.11C367.34 403.2 348.73 406.37 347.94 406.51C347.766 406.541 347.587 406.508 347.435 406.419C347.282 406.329 347.167 406.187 347.11 406.02C339.38 384.56 330.66 343.52 329.33 337.17C327.67 337.68 323.18 338.88 312.43 340.84C311.43 383.13 310.72 400.84 303.23 413.31C295.62 425.99 260.91 444.31 235.47 456.93C235.367 456.978 235.254 457.002 235.14 457ZM214.82 435.24C216.77 443.76 225.21 453.75 235.02 455.47C260.28 442.9 294.56 424.83 301.95 412.53C309.34 400.23 309.95 382.79 310.95 340.76L310.88 340.36C310.861 340.263 310.862 340.163 310.882 340.066C310.902 339.969 310.941 339.877 310.997 339.795C311.053 339.713 311.124 339.643 311.207 339.589C311.29 339.535 311.383 339.498 311.48 339.48C326.33 336.79 329.59 335.48 329.63 335.48C329.731 335.441 329.839 335.425 329.947 335.432C330.054 335.439 330.159 335.469 330.254 335.521C330.349 335.572 330.432 335.643 330.497 335.729C330.562 335.815 330.607 335.915 330.63 336.02C330.72 336.48 340.05 381.64 348.31 404.91C351.57 404.33 366.83 401.46 372.38 398.04C372.52 396.79 372.68 395.4 372.86 393.88C375.48 371.41 380.94 324.64 364.8 305.42C356.8 295.95 341.46 291.79 319.08 293.09C318.978 293.097 318.876 293.083 318.779 293.049C318.683 293.014 318.595 292.96 318.52 292.89C318.446 292.821 318.386 292.737 318.345 292.645C318.304 292.552 318.282 292.452 318.28 292.35C318.44 288.16 317.28 281.9 314.87 273.63C314.11 274.24 313.46 274.76 312.96 275.12C297.7 286.44 257.62 293.77 240.28 294.56C241.75 301.09 250.96 330.44 255.71 335.66C255.782 335.738 255.837 335.83 255.87 335.93L256.16 336.8C262.21 354.66 271.79 385.68 267.97 392.71C267.14 394.23 263.38 396.94 255.64 402.42C244.79 410.11 228.38 421.73 214.83 435.24H214.82Z" fill="#27449B"/>
<path d="M359.43 435.14C355.93 435.14 354.61 430.43 351.37 418.9C350.83 416.97 350.23 414.84 349.56 412.5C349.519 412.313 349.551 412.118 349.649 411.954C349.747 411.79 349.904 411.67 350.088 411.617C350.271 411.565 350.468 411.585 350.638 411.673C350.807 411.76 350.937 411.91 351.001 412.09C351.671 414.43 352.271 416.56 352.821 418.49C355.901 429.49 357.181 433.98 359.821 433.6C361.321 433.39 364.301 431.72 367.751 429.8C372.831 426.96 379.151 423.43 385.631 421.57C389.011 420.57 393.141 419.68 397.131 418.79C405.201 417 415.24 414.79 415.72 412.44C415.72 412.29 415.62 411.66 414.66 410.6C410.29 405.79 395.331 398.48 366.941 401.6C366.748 401.612 366.558 401.549 366.41 401.425C366.262 401.3 366.168 401.123 366.147 400.931C366.127 400.739 366.181 400.547 366.299 400.393C366.417 400.24 366.589 400.139 366.781 400.11C395.781 396.96 411.221 404.61 415.781 409.63C416.551 410.48 417.421 411.71 417.201 412.78C416.571 415.84 409.321 417.66 397.461 420.29C393.461 421.17 389.38 422.09 386.05 423.04C379.74 424.86 373.5 428.34 368.49 431.14C364.76 433.22 361.82 434.86 360.04 435.14C359.837 435.154 359.634 435.154 359.43 435.14Z" fill="#27449B"/>
<path d="M366.47 99.8001L353.24 95.0301L365.67 80.5801L366.47 99.8001Z" fill="#27449B"/>
<path d="M366.469 100.55C366.386 100.564 366.302 100.564 366.219 100.55L352.999 95.74C352.886 95.6981 352.785 95.6294 352.704 95.5399C352.623 95.4504 352.564 95.3427 352.534 95.2258C352.504 95.109 352.502 94.9866 352.529 94.8689C352.556 94.7513 352.611 94.6419 352.689 94.55L365.129 80.1C365.227 79.9851 365.358 79.9025 365.504 79.863C365.649 79.8235 365.804 79.829 365.946 79.8787C366.089 79.9284 366.213 80.0201 366.303 80.1416C366.393 80.2632 366.444 80.409 366.449 80.56L367.249 99.78C367.253 99.881 367.237 99.9818 367.201 100.076C367.165 100.171 367.11 100.257 367.04 100.33C366.97 100.403 366.886 100.461 366.793 100.5C366.7 100.54 366.6 100.56 366.499 100.56L366.469 100.55ZM354.469 94.7L365.629 98.7L364.999 82.51L354.469 94.7Z" fill="#27449B"/>
<path d="M359.749 125.18C359.593 125.191 359.436 125.191 359.279 125.18C357.279 124.89 355.619 123.18 354.189 120.03C353.939 119.48 353.709 119.39 353.629 119.36C353.119 119.17 352.129 119.65 351.079 120.15C350.072 120.676 349.013 121.095 347.919 121.4C345.199 122.07 342.629 120.4 340.279 116.4C340.192 116.23 340.174 116.033 340.227 115.85C340.281 115.666 340.402 115.51 340.567 115.413C340.731 115.316 340.927 115.286 341.113 115.328C341.299 115.37 341.462 115.482 341.569 115.64C343.569 119 345.569 120.45 347.569 119.96C348.562 119.68 349.524 119.298 350.439 118.82C351.839 118.15 353.049 117.56 354.159 117.97C354.483 118.104 354.776 118.302 355.021 118.553C355.265 118.804 355.455 119.103 355.579 119.43C356.759 122.06 358.089 123.5 359.519 123.71C360.77 123.673 361.992 123.33 363.079 122.71C363.26 122.625 363.466 122.616 363.654 122.683C363.841 122.751 363.994 122.89 364.079 123.07C364.164 123.251 364.174 123.457 364.106 123.645C364.039 123.832 363.899 123.985 363.719 124.07C362.487 124.712 361.135 125.09 359.749 125.18Z" fill="#27449B"/>
<path d="M203.4 495.86C199.96 495.86 198.13 492.93 194.11 481.47C193.172 478.652 192.578 475.73 192.34 472.77C191.981 468.662 191.947 464.533 192.24 460.42C192.461 455.78 193.09 451.169 194.12 446.64C194.68 445.3 197.04 444.3 204.04 441.34L207.97 439.67C208.153 439.592 208.36 439.589 208.544 439.663C208.729 439.737 208.877 439.882 208.955 440.065C209.033 440.248 209.036 440.454 208.962 440.639C208.888 440.824 208.743 440.972 208.56 441.05L204.63 442.72C199.15 445.04 195.84 446.44 195.52 447.21C194.568 451.587 193.976 456.036 193.75 460.51C193.463 464.546 193.496 468.599 193.85 472.63C194.076 475.471 194.643 478.275 195.54 480.98C199.86 493.29 201.35 494.51 203.75 494.36C205.75 494.22 206.23 492.7 207.13 489.28C207.26 488.78 207.4 488.28 207.56 487.7L208.24 485.26C209.09 482.26 210.38 477.61 211.77 472.83C212.77 469.54 214.16 464.74 215.37 461.17C215.86 459.7 216.29 458.5 216.66 457.59C216.74 457.414 216.885 457.276 217.064 457.204C217.244 457.132 217.444 457.132 217.623 457.205C217.802 457.277 217.947 457.415 218.026 457.591C218.106 457.768 218.114 457.968 218.05 458.15C217.7 459.03 217.27 460.2 216.79 461.64C215.58 465.19 214.17 469.96 213.21 473.24C211.82 478.01 210.54 482.61 209.69 485.65L209 488.1C208.85 488.64 208.71 489.16 208.58 489.66C207.7 493 207.01 495.66 203.85 495.85L203.4 495.86Z" fill="#27449B"/>
<path d="M319.76 249.06C319.561 249.06 319.37 248.981 319.229 248.84C319.089 248.699 319.01 248.509 319.01 248.31C319.01 248.111 319.089 247.92 319.229 247.779C319.37 247.639 319.561 247.56 319.76 247.56C330.24 247.18 341.24 244.06 350.64 223.92C359.07 205.86 351.64 191.14 345.74 187.27C345.658 187.215 345.587 187.145 345.532 187.063C345.477 186.982 345.439 186.89 345.419 186.793C345.4 186.697 345.4 186.597 345.419 186.501C345.437 186.404 345.475 186.312 345.53 186.23C345.584 186.148 345.654 186.077 345.736 186.022C345.818 185.967 345.91 185.929 346.006 185.909C346.103 185.89 346.202 185.89 346.299 185.909C346.396 185.927 346.488 185.965 346.57 186.02C352.82 190.14 360.82 205.67 352 224.56C342.26 245.42 330.77 248.67 319.82 249.06H319.76Z" fill="#27449B"/>
<path d="M350.77 226.09C350.598 226.089 350.431 226.029 350.298 225.92C350.165 225.81 350.074 225.659 350.04 225.49C348.66 218.76 342.42 213.49 337.24 211.9C337.049 211.843 336.888 211.713 336.793 211.537C336.699 211.362 336.678 211.156 336.735 210.965C336.792 210.774 336.922 210.614 337.097 210.519C337.273 210.424 337.479 210.403 337.67 210.46C343.26 212.15 350.02 217.88 351.51 225.18C351.53 225.277 351.531 225.376 351.513 225.473C351.495 225.57 351.458 225.663 351.404 225.746C351.35 225.828 351.281 225.899 351.199 225.955C351.118 226.011 351.026 226.05 350.93 226.07L350.77 226.09Z" fill="#27449B"/>
<path d="M323.4 230.69C323.201 230.69 323.011 230.611 322.87 230.47C322.729 230.329 322.65 230.139 322.65 229.94C322.65 229.741 322.729 229.55 322.87 229.409C323.011 229.269 323.201 229.19 323.4 229.19C329.95 229.03 332.77 227.09 335.4 223.77C335.462 223.693 335.538 223.629 335.625 223.582C335.711 223.534 335.806 223.504 335.904 223.494C336.002 223.483 336.101 223.492 336.196 223.519C336.29 223.547 336.379 223.593 336.455 223.655C336.532 223.716 336.596 223.793 336.643 223.879C336.691 223.965 336.721 224.06 336.731 224.158C336.742 224.256 336.733 224.355 336.706 224.45C336.678 224.545 336.632 224.633 336.57 224.71C333.71 228.28 330.51 230.52 323.41 230.71L323.4 230.69Z" fill="#27449B"/>
<path d="M320.34 238.39C320.141 238.39 319.95 238.311 319.81 238.17C319.669 238.03 319.59 237.839 319.59 237.64C319.59 237.441 319.669 237.25 319.81 237.11C319.95 236.969 320.141 236.89 320.34 236.89C328.55 236.69 332.08 234.21 335.42 229.98C335.481 229.903 335.557 229.838 335.643 229.79C335.729 229.741 335.824 229.711 335.921 229.699C336.019 229.687 336.119 229.695 336.214 229.722C336.309 229.749 336.397 229.794 336.475 229.855C336.552 229.916 336.617 229.992 336.665 230.078C336.713 230.164 336.744 230.259 336.756 230.357C336.767 230.455 336.76 230.554 336.733 230.649C336.706 230.744 336.661 230.833 336.6 230.91C333.08 235.37 329.13 238.18 320.38 238.39H320.34Z" fill="#27449B"/>
<path d="M323.431 243.83C321.519 243.81 319.614 243.609 317.741 243.23C317.557 243.182 317.399 243.065 317.297 242.905C317.196 242.744 317.159 242.551 317.195 242.364C317.23 242.178 317.335 242.012 317.489 241.899C317.642 241.787 317.832 241.737 318.021 241.76C326.091 243.31 330.021 241.62 334.221 238.2C334.297 238.134 334.385 238.084 334.481 238.053C334.576 238.021 334.677 238.009 334.777 238.016C334.878 238.024 334.976 238.051 335.065 238.096C335.155 238.141 335.235 238.204 335.301 238.28C335.366 238.356 335.417 238.444 335.448 238.54C335.48 238.635 335.492 238.736 335.485 238.837C335.477 238.937 335.45 239.035 335.405 239.124C335.359 239.214 335.297 239.294 335.221 239.36C332.004 242.297 327.787 243.896 323.431 243.83Z" fill="#27449B"/>
<path d="M172 103.42C171.89 103.42 171.78 103.396 171.68 103.35C171.58 103.303 171.491 103.235 171.42 103.15C166.047 96.979 160.115 91.3182 153.7 86.2397C153.544 86.1163 153.443 85.9359 153.419 85.738C153.396 85.5402 153.452 85.3411 153.575 85.1846C153.699 85.0282 153.879 84.9271 154.077 84.9037C154.275 84.8802 154.474 84.9363 154.63 85.0596C161.129 90.2008 167.137 95.9318 172.58 102.18C172.672 102.289 172.73 102.423 172.748 102.565C172.766 102.706 172.743 102.85 172.682 102.98C172.621 103.109 172.525 103.218 172.404 103.294C172.283 103.37 172.143 103.41 172 103.41V103.42Z" fill="#27449B"/>
<path d="M155.23 98.7799C155.088 98.7786 154.95 98.737 154.83 98.6599C149.436 95.3146 143.812 92.3539 138 89.7999C137.903 89.7663 137.815 89.7132 137.739 89.6439C137.663 89.5745 137.603 89.4904 137.561 89.3968C137.519 89.3032 137.497 89.2019 137.496 89.0994C137.495 88.9969 137.515 88.8952 137.555 88.8007C137.594 88.7062 137.653 88.6208 137.727 88.5499C137.801 88.4789 137.889 88.4239 137.985 88.3882C138.081 88.3525 138.184 88.3369 138.286 88.3424C138.388 88.3478 138.489 88.3742 138.58 88.4199C144.451 91.0168 150.132 94.0242 155.58 97.4199C155.716 97.5074 155.82 97.6363 155.876 97.7874C155.932 97.9385 155.939 98.1038 155.894 98.2587C155.849 98.4137 155.755 98.55 155.627 98.6475C155.498 98.745 155.342 98.7984 155.18 98.7999L155.23 98.7799Z" fill="#27449B"/>
<path d="M149.85 103.09C149.754 103.088 149.659 103.068 149.57 103.03C144.686 101.286 139.621 100.102 134.47 99.5001C134.272 99.4736 134.093 99.3697 133.973 99.2112C133.852 99.0527 133.799 98.8527 133.825 98.6551C133.852 98.4575 133.955 98.2786 134.114 98.1576C134.272 98.0366 134.472 97.9836 134.67 98.0101C144.52 99.3601 149.91 101.55 150.14 101.64C150.299 101.708 150.429 101.828 150.51 101.981C150.59 102.133 150.615 102.309 150.581 102.478C150.547 102.647 150.456 102.8 150.323 102.909C150.19 103.019 150.023 103.079 149.85 103.08V103.09Z" fill="#27449B"/>
<path d="M148.16 105.88C148.026 105.88 147.896 105.844 147.781 105.777C147.666 105.71 147.571 105.613 147.506 105.497C147.441 105.381 147.408 105.25 147.41 105.117C147.413 104.984 147.45 104.854 147.52 104.74C149.52 101.49 155.33 95.8399 158.87 95.0299C158.967 95.0036 159.068 94.9972 159.168 95.011C159.268 95.0248 159.364 95.0585 159.45 95.1102C159.537 95.1619 159.612 95.2305 159.671 95.3119C159.731 95.3932 159.773 95.4857 159.796 95.5838C159.819 95.6819 159.821 95.7836 159.804 95.8828C159.787 95.982 159.75 96.0767 159.695 96.1613C159.64 96.2459 159.569 96.3185 159.486 96.375C159.402 96.4315 159.308 96.4705 159.21 96.4899C156.34 97.1499 150.73 102.3 148.81 105.49C148.746 105.607 148.652 105.705 148.537 105.773C148.423 105.842 148.293 105.878 148.16 105.88Z" fill="#27449B"/>
<path d="M319 293C318.902 292.996 318.805 292.973 318.715 292.932C318.626 292.89 318.545 292.832 318.478 292.759C318.411 292.687 318.36 292.602 318.326 292.509C318.292 292.417 318.276 292.319 318.28 292.22C318.44 287.95 317.19 281.32 314.55 272.51C314.05 270.83 313.55 269.09 312.93 267.32C307.956 252.679 302.178 238.324 295.62 224.32C293.62 220.1 291.62 215.8 289.45 211.54C289.4 211.452 289.369 211.354 289.358 211.253C289.347 211.152 289.357 211.05 289.386 210.952C289.416 210.855 289.465 210.765 289.531 210.688C289.597 210.61 289.677 210.546 289.768 210.501C289.859 210.456 289.958 210.429 290.06 210.423C290.161 210.417 290.263 210.432 290.358 210.466C290.454 210.501 290.541 210.555 290.616 210.624C290.69 210.693 290.749 210.777 290.79 210.87C292.94 215.14 295.02 219.46 296.99 223.69C303.587 237.754 309.389 252.176 314.37 266.89C314.91 268.57 315.48 270.36 316 272.12C318.68 281.12 320 287.88 319.79 292.31C319.775 292.505 319.683 292.687 319.536 292.816C319.388 292.945 319.196 293.011 319 293Z" fill="#27449B"/>
<path d="M293.61 218.41C293.435 218.41 293.265 218.349 293.13 218.237C292.996 218.125 292.904 217.97 292.872 217.797C292.84 217.625 292.869 217.447 292.955 217.294C293.04 217.141 293.177 217.023 293.34 216.96C297.64 215.31 299.09 214.9 299.15 214.88C299.335 214.845 299.526 214.881 299.685 214.981C299.844 215.08 299.961 215.235 300.011 215.416C300.061 215.597 300.042 215.791 299.957 215.958C299.871 216.125 299.726 216.255 299.55 216.32C299.55 216.32 298.08 216.74 293.88 218.32C293.797 218.367 293.705 218.397 293.61 218.41Z" fill="#27449B"/>
<path d="M253.37 214.76C253.185 214.76 253.007 214.693 252.87 214.57C252.62 214.35 227.64 191.96 217.79 176.26C200.79 149.14 177.91 116.54 177.68 116.21C177.616 116.12 177.573 116.016 177.554 115.907C177.535 115.798 177.54 115.687 177.57 115.58C178.191 112.924 178.35 110.18 178.04 107.47C177.689 103.257 177.9 99.0167 178.67 94.86C178.718 94.6763 178.834 94.5177 178.995 94.4164C179.156 94.3151 179.349 94.2785 179.535 94.314C179.722 94.3496 179.888 94.4546 180 94.6079C180.112 94.7612 180.162 94.9514 180.14 95.14C179.394 99.1782 179.189 103.298 179.53 107.39C179.832 110.145 179.686 112.931 179.1 115.64C181.41 118.94 202.88 149.64 219.1 175.47C228 189.66 249.51 209.47 253.33 212.93L259.93 204.84C260.058 204.693 260.238 204.601 260.432 204.585C260.627 204.568 260.82 204.628 260.971 204.752C261.122 204.875 261.219 205.053 261.241 205.247C261.263 205.441 261.209 205.635 261.09 205.79L254 214.49C253.936 214.568 253.856 214.631 253.767 214.678C253.678 214.724 253.58 214.752 253.48 214.76H253.37Z" fill="#27449B"/>
<path d="M261.859 190.87C261.66 190.87 261.47 190.791 261.329 190.65C261.188 190.509 261.109 190.319 261.109 190.12C261.109 189.921 261.188 189.73 261.329 189.589C261.47 189.449 261.66 189.37 261.859 189.37C267.239 189.37 268.019 189.19 269.259 188.77L270.259 188.37C283.469 182.993 297.278 179.229 311.389 177.16C311.587 177.132 311.788 177.184 311.947 177.304C312.106 177.424 312.212 177.602 312.239 177.8C312.267 177.997 312.215 178.198 312.095 178.357C311.975 178.517 311.797 178.622 311.599 178.65C297.609 180.699 283.916 184.43 270.819 189.76L269.729 190.19C268.239 190.7 267.229 190.87 261.859 190.87Z" fill="#27449B"/>
<path d="M260.46 206.06C260.269 206.068 260.082 206.003 259.937 205.877C259.792 205.752 259.701 205.576 259.682 205.386C259.662 205.195 259.717 205.005 259.834 204.853C259.951 204.701 260.121 204.6 260.31 204.57L268.31 202.96C266.31 200.67 261 194.96 257.31 193.61C257.193 193.566 257.089 193.494 257.006 193.4C256.924 193.305 256.867 193.192 256.84 193.07C256.84 192.97 256.27 190.51 255.98 188.42C255.966 188.322 255.972 188.222 255.997 188.127C256.021 188.031 256.065 187.941 256.124 187.862C256.183 187.783 256.258 187.717 256.343 187.667C256.428 187.617 256.522 187.584 256.62 187.57C256.718 187.556 256.817 187.562 256.913 187.586C257.009 187.611 257.099 187.654 257.178 187.714C257.256 187.773 257.323 187.848 257.373 187.933C257.423 188.018 257.456 188.112 257.47 188.21C257.69 189.77 258.06 191.58 258.22 192.36C263.22 194.52 270.03 202.61 270.33 202.97C270.414 203.07 270.471 203.19 270.495 203.319C270.518 203.447 270.508 203.58 270.464 203.703C270.421 203.826 270.346 203.936 270.247 204.021C270.148 204.107 270.028 204.165 269.9 204.19L260.6 206.05L260.46 206.06Z" fill="#27449B"/>
<path d="M267.279 218.58C268.789 234.45 260.899 242.33 258.409 244.19C255.919 246.05 250.109 254.12 250.109 254.12L232.619 257.84C234.039 254.2 234.479 240.2 234.479 240.2C239.529 232.5 245.919 231.34 252.299 228.06C258.679 224.78 259.909 217.48 259.909 217.48C259.909 217.48 257.589 213.84 255.789 211.03L260.459 205.31L266.589 204.08C270.999 210.49 267.279 218.58 267.279 218.58Z" fill="#39B715"/>
<path d="M260.459 206.06C260.377 206.074 260.292 206.074 260.209 206.06C252.937 203.661 245.539 201.658 238.049 200.06C237.89 200.028 237.746 199.946 237.638 199.825C237.53 199.704 237.464 199.551 237.45 199.39C237.45 199.3 236.599 190.59 230.679 179.62C230.595 179.446 230.58 179.246 230.64 179.061C230.699 178.877 230.828 178.722 230.998 178.631C231.169 178.539 231.368 178.517 231.555 178.569C231.742 178.621 231.901 178.743 232 178.91C235.435 185.053 237.763 191.751 238.88 198.7C247.06 200.39 256.089 203.1 259.739 204.29C259.739 202.22 259.74 197.37 258.53 193.98C258.479 193.797 258.5 193.602 258.588 193.434C258.676 193.266 258.823 193.138 259.002 193.075C259.181 193.011 259.377 193.018 259.55 193.093C259.724 193.168 259.863 193.306 259.94 193.48C261.59 198.15 261.219 205.07 261.209 205.36C261.199 205.552 261.116 205.733 260.976 205.865C260.837 205.997 260.652 206.07 260.459 206.07V206.06Z" fill="#27449B"/>
<path d="M337.91 334.62C337.726 334.622 337.547 334.556 337.408 334.434C337.269 334.313 337.18 334.144 337.158 333.961C337.136 333.778 337.182 333.593 337.287 333.441C337.393 333.29 337.551 333.183 337.73 333.14C341.238 332.303 344.697 331.271 348.091 330.05C348.276 329.979 348.483 329.984 348.665 330.064C348.846 330.145 348.989 330.295 349.06 330.48C349.132 330.666 349.127 330.872 349.046 331.054C348.966 331.236 348.816 331.379 348.63 331.45C345.18 332.699 341.661 333.751 338.091 334.6L337.91 334.62Z" fill="white"/>
<path d="M171.24 142.6C171.081 142.599 170.928 142.547 170.8 142.453C170.673 142.359 170.579 142.227 170.531 142.076C170.483 141.925 170.485 141.763 170.535 141.613C170.585 141.462 170.681 141.332 170.81 141.24C176.369 137.251 182.2 133.656 188.26 130.48C188.348 130.424 188.447 130.387 188.55 130.372C188.653 130.357 188.758 130.363 188.859 130.39C188.959 130.418 189.053 130.466 189.134 130.532C189.215 130.598 189.281 130.68 189.328 130.772C189.376 130.865 189.404 130.967 189.409 131.071C189.415 131.175 189.4 131.279 189.363 131.377C189.326 131.474 189.27 131.563 189.197 131.638C189.124 131.713 189.037 131.771 188.94 131.81C182.942 134.953 177.171 138.512 171.67 142.46C171.545 142.55 171.394 142.599 171.24 142.6Z" fill="#27449B"/>
<path d="M229.801 179.78C228.515 179.784 227.25 179.464 226.121 178.85C224.877 178.187 223.862 177.164 223.209 175.915C222.556 174.666 222.295 173.249 222.461 171.85C222.516 170.687 222.936 169.571 223.661 168.66C224.941 167.13 227.131 166.66 230.001 167.37C230.564 167.498 231.115 167.672 231.651 167.89C231.834 167.968 231.978 168.116 232.052 168.3C232.126 168.485 232.124 168.692 232.046 168.875C231.967 169.058 231.82 169.202 231.635 169.276C231.45 169.35 231.244 169.348 231.061 169.27C230.606 169.087 230.138 168.94 229.661 168.83C228.071 168.45 225.941 168.28 224.811 169.63C224.288 170.308 223.99 171.134 223.961 171.99C223.832 173.096 224.038 174.216 224.554 175.204C225.069 176.192 225.869 177.002 226.851 177.53C228.049 178.137 229.401 178.376 230.735 178.218C232.069 178.059 233.327 177.51 234.351 176.64C234.508 176.534 234.7 176.492 234.887 176.522C235.075 176.552 235.244 176.651 235.36 176.801C235.477 176.951 235.533 177.139 235.516 177.328C235.499 177.517 235.412 177.693 235.271 177.82C233.717 179.065 231.792 179.755 229.801 179.78Z" fill="#27449B"/>
<path d="M255.081 136.91C247.741 141.43 227.561 148.37 227.561 148.37C235.061 157.74 229.811 168.1 229.811 168.1C228.181 167.71 225.631 167.46 224.211 169.15C209.881 156.15 212.371 149.73 214.641 146.75C216.641 144.17 219.451 141.75 221.421 135.94C225.211 124.8 232.881 124.71 232.711 128.67C243.651 117.53 250.881 121.17 249.501 125.67C260.571 119.64 263.071 132 255.081 136.91Z" fill="#27449B"/>
<path d="M224.22 169.9C224.035 169.898 223.856 169.826 223.72 169.7C212.95 159.89 209.72 152.02 214.06 146.29C214.49 145.73 214.95 145.18 215.44 144.61C217.808 142.043 219.611 139.008 220.73 135.7C223.55 127.41 228.45 125.13 231.03 125.61C231.487 125.68 231.92 125.858 232.294 126.129C232.668 126.401 232.972 126.758 233.18 127.17C240.29 120.36 245.85 119.7 248.52 121.28C249.078 121.593 249.546 122.043 249.882 122.587C250.218 123.131 250.41 123.751 250.44 124.39C255.3 122.2 258.39 123.66 259.69 125.9C261.56 129.12 260.32 134.56 255.48 137.54C249 141.54 232.96 147.27 228.79 148.73C235.56 158.14 230.54 168.32 230.49 168.43C230.415 168.581 230.291 168.702 230.139 168.773C229.986 168.844 229.814 168.86 229.65 168.82C228.06 168.44 225.93 168.28 224.8 169.62C224.736 169.698 224.657 169.762 224.568 169.808C224.478 169.854 224.381 169.882 224.28 169.89L224.22 169.9ZM230.29 127C228.17 127 224.46 129.33 222.15 136.14C220.965 139.626 219.069 142.827 216.58 145.54C216.11 146.1 215.66 146.63 215.25 147.17C211.51 152.08 214.52 159.12 224.25 168.08C225.46 167.08 227.25 166.79 229.43 167.2C230.35 165.03 233.28 156.61 227.03 148.8C226.955 148.706 226.903 148.596 226.879 148.478C226.855 148.359 226.86 148.237 226.893 148.122C226.927 148.006 226.987 147.9 227.07 147.813C227.153 147.725 227.256 147.659 227.37 147.62C227.57 147.55 247.56 140.62 254.74 136.23C258.74 133.75 259.92 129.18 258.44 126.62C257.07 124.26 253.89 124.14 249.93 126.31C249.799 126.383 249.649 126.415 249.5 126.402C249.35 126.388 249.208 126.331 249.092 126.236C248.976 126.141 248.891 126.014 248.847 125.87C248.804 125.726 248.805 125.573 248.85 125.43C249.052 124.908 249.062 124.331 248.879 123.802C248.696 123.273 248.331 122.826 247.85 122.54C245.34 121.05 239.85 122.54 233.36 129.16C233.254 129.267 233.117 129.339 232.969 129.367C232.821 129.395 232.667 129.378 232.529 129.317C232.391 129.257 232.274 129.156 232.194 129.028C232.114 128.9 232.074 128.751 232.08 128.6C232.102 128.417 232.088 128.232 232.038 128.055C231.988 127.878 231.904 127.712 231.789 127.568C231.675 127.424 231.533 127.304 231.372 127.215C231.21 127.126 231.033 127.07 230.85 127.05C230.666 127.013 230.478 126.996 230.29 127Z" fill="#27449B"/>
<path d="M235.839 156.72C235.763 156.732 235.685 156.732 235.609 156.72C235.421 156.658 235.266 156.525 235.176 156.349C235.086 156.173 235.069 155.969 235.129 155.78C235.381 154.76 235.86 153.809 236.53 152.999C237.2 152.188 238.044 151.54 238.999 151.1C240.41 150.492 241.998 150.435 243.449 150.94C243.542 150.981 243.626 151.04 243.695 151.115C243.765 151.189 243.818 151.277 243.853 151.372C243.887 151.468 243.902 151.569 243.896 151.671C243.89 151.772 243.864 151.871 243.818 151.962C243.773 152.053 243.709 152.134 243.632 152.199C243.554 152.265 243.464 152.314 243.367 152.344C243.27 152.374 243.167 152.383 243.066 152.372C242.965 152.361 242.868 152.33 242.779 152.28C241.692 151.979 240.534 152.06 239.499 152.51C238.761 152.868 238.11 153.382 237.591 154.018C237.073 154.654 236.7 155.395 236.499 156.19C236.455 156.335 236.369 156.463 236.251 156.557C236.133 156.652 235.99 156.709 235.839 156.72Z" fill="#27449B"/>
<path d="M257.595 159.957C258.453 159.618 258.763 158.368 258.287 157.167C257.811 155.965 256.731 155.266 255.873 155.605C255.016 155.945 254.706 157.194 255.181 158.396C255.657 159.597 256.738 160.296 257.595 159.957Z" fill="#27449B"/>
<path d="M246.784 163.999C247.837 163.582 248.217 162.05 247.634 160.576C247.051 159.102 245.725 158.245 244.672 158.662C243.619 159.078 243.238 160.611 243.822 162.085C244.405 163.559 245.731 164.416 246.784 163.999Z" fill="#27449B"/>
<path d="M248.301 150.17C248.166 150.171 248.033 150.134 247.916 150.065C247.8 149.996 247.704 149.897 247.64 149.778C247.575 149.659 247.544 149.525 247.549 149.39C247.555 149.255 247.597 149.124 247.671 149.01C248.065 148.41 248.588 147.906 249.203 147.534C249.817 147.162 250.506 146.932 251.221 146.86C251.887 146.772 252.565 146.831 253.206 147.033C253.847 147.235 254.436 147.576 254.931 148.03C255.027 148.087 255.11 148.165 255.173 148.259C255.235 148.352 255.276 148.458 255.292 148.569C255.308 148.68 255.298 148.794 255.265 148.901C255.231 149.008 255.174 149.106 255.097 149.188C255.021 149.27 254.926 149.334 254.822 149.375C254.717 149.415 254.605 149.432 254.493 149.424C254.381 149.415 254.272 149.382 254.175 149.326C254.078 149.27 253.994 149.193 253.931 149.1C253.594 148.8 253.196 148.578 252.764 148.448C252.332 148.319 251.877 148.285 251.431 148.35C250.937 148.397 250.46 148.553 250.035 148.807C249.609 149.061 249.246 149.408 248.971 149.82C248.9 149.933 248.801 150.024 248.683 150.086C248.565 150.147 248.433 150.177 248.301 150.17Z" fill="#27449B"/>
<path d="M251.92 168.56C251.732 168.56 251.551 168.488 251.413 168.361C251.275 168.233 251.19 168.058 251.175 167.87C251.16 167.683 251.215 167.497 251.331 167.348C251.447 167.2 251.615 167.101 251.8 167.07C255.56 166.47 255.99 165.8 256 165.79C256 164.99 255 161.79 250.35 157.79C250.276 157.725 250.215 157.645 250.172 157.556C250.129 157.467 250.103 157.37 250.097 157.271C250.091 157.172 250.105 157.073 250.137 156.979C250.169 156.886 250.22 156.799 250.285 156.725C250.351 156.651 250.43 156.59 250.52 156.547C250.609 156.504 250.705 156.478 250.804 156.472C250.903 156.466 251.002 156.48 251.096 156.512C251.19 156.544 251.276 156.595 251.35 156.66C256.22 160.89 257.51 164.44 257.5 165.87C257.5 167.14 255.87 167.94 252.06 168.55L251.92 168.56Z" fill="#27449B"/>
<path d="M253.391 183.09H253.271C250.131 182.59 247.921 181.37 246.721 179.45C246.247 178.634 245.939 177.732 245.815 176.797C245.692 175.861 245.755 174.911 246.001 174C246.035 173.885 246.097 173.78 246.18 173.694C246.264 173.608 246.367 173.543 246.48 173.505C246.594 173.467 246.715 173.456 246.833 173.475C246.952 173.493 247.064 173.539 247.161 173.61C248.636 174.623 250.371 175.192 252.159 175.248C253.948 175.305 255.715 174.848 257.251 173.93C257.424 173.838 257.627 173.818 257.815 173.873C258.003 173.929 258.162 174.056 258.257 174.227C258.353 174.399 258.377 174.601 258.326 174.79C258.274 174.979 258.15 175.141 257.981 175.24C256.365 176.183 254.535 176.697 252.664 176.736C250.794 176.774 248.944 176.335 247.291 175.46C247.197 176.582 247.459 177.705 248.041 178.67C249.041 180.2 250.861 181.18 253.551 181.61C253.737 181.64 253.904 181.74 254.02 181.888C254.136 182.036 254.192 182.222 254.176 182.41C254.161 182.597 254.076 182.772 253.938 182.9C253.8 183.028 253.619 183.099 253.431 183.1L253.391 183.09Z" fill="#27449B"/>
<path d="M256 179.38C255.809 179.38 255.626 179.308 255.486 179.178C255.347 179.048 255.263 178.87 255.25 178.68L255.01 175.44C255.003 175.341 255.015 175.242 255.046 175.149C255.077 175.055 255.126 174.968 255.191 174.893C255.255 174.819 255.334 174.757 255.422 174.713C255.51 174.669 255.606 174.642 255.705 174.635C255.803 174.628 255.902 174.64 255.996 174.671C256.09 174.702 256.177 174.751 256.251 174.816C256.326 174.88 256.387 174.959 256.432 175.047C256.476 175.135 256.503 175.231 256.51 175.33L256.75 178.57C256.764 178.767 256.699 178.962 256.57 179.112C256.44 179.262 256.257 179.354 256.06 179.37L256 179.38Z" fill="#27449B"/>
<path d="M251.67 189.88C249.402 189.835 247.143 189.56 244.93 189.06C244.834 189.04 244.742 189.002 244.66 188.947C244.579 188.891 244.509 188.821 244.454 188.739C244.4 188.656 244.363 188.564 244.344 188.468C244.325 188.371 244.326 188.271 244.345 188.175C244.365 188.078 244.403 187.987 244.459 187.905C244.514 187.823 244.584 187.753 244.667 187.699C244.749 187.645 244.841 187.607 244.938 187.588C245.034 187.57 245.134 187.57 245.23 187.59C252.23 189.02 259.48 189.59 265.3 179.66C266.95 176.85 264.13 151.57 249.42 140.21C249.342 140.149 249.277 140.074 249.228 139.989C249.178 139.903 249.147 139.808 249.134 139.71C249.122 139.612 249.129 139.513 249.154 139.418C249.18 139.322 249.225 139.233 249.285 139.155C249.346 139.077 249.421 139.011 249.507 138.962C249.592 138.913 249.687 138.881 249.785 138.869C249.883 138.856 249.982 138.863 250.078 138.889C250.173 138.915 250.262 138.959 250.34 139.02C265.34 150.62 268.81 176.64 266.6 180.41C262.2 187.92 256.9 189.88 251.67 189.88Z" fill="#27449B"/>
<path d="M295.91 450.55C289.82 450.55 281.76 450.36 272.08 450.14C264.08 449.96 255.08 449.75 245.34 449.61C245.241 449.609 245.144 449.588 245.053 449.549C244.963 449.51 244.881 449.454 244.812 449.384C244.744 449.313 244.689 449.23 244.653 449.138C244.616 449.047 244.598 448.949 244.6 448.85C244.607 448.653 244.69 448.466 244.832 448.329C244.973 448.191 245.162 448.113 245.36 448.11C255.1 448.25 264.14 448.46 272.12 448.65C289.79 449.06 302.82 449.36 306.98 448.54C306.46 444.91 304.14 427.6 304.98 415.98C304.998 415.784 305.091 415.602 305.24 415.474C305.389 415.345 305.583 415.279 305.78 415.29C305.977 415.306 306.16 415.398 306.289 415.548C306.419 415.698 306.483 415.893 306.47 416.09C305.47 428.89 308.47 448.79 308.47 448.99C308.497 449.168 308.459 449.35 308.364 449.502C308.268 449.654 308.121 449.767 307.95 449.82C306.24 450.36 302.09 450.55 295.91 450.55Z" fill="#27449B"/>
<path d="M295.32 168.56H295.23C295.033 168.538 294.852 168.438 294.728 168.282C294.605 168.126 294.548 167.928 294.57 167.73C296.44 151.99 299.28 100.13 299.43 90.4702C299.57 81.7202 300.96 57.0402 301.24 52.0902C292.45 52.7802 278.92 50.9402 263.35 48.8102C244.23 46.2102 222.57 43.2502 202.35 43.8102C188.35 44.2002 169.78 45.8102 151.82 47.4402C135.15 48.9202 119.4 50.3102 107.62 50.7102C82.8902 51.5502 61.1902 52.1702 26.2402 51.9702C26.0413 51.9702 25.8506 51.8912 25.7099 51.7506C25.5692 51.6099 25.4902 51.4192 25.4902 51.2202C25.4902 51.0213 25.5692 50.8306 25.7099 50.6899C25.8506 50.5493 26.0413 50.4702 26.2402 50.4702C61.1602 50.6802 82.8402 50.0502 107.56 49.2202C119.3 48.8202 135.03 47.4302 151.68 45.9502C169.68 44.3602 188.27 42.7102 202.3 42.3202C222.68 41.7502 244.41 44.7102 263.58 47.3202C279.58 49.5002 293.42 51.3902 302 50.5102C302.109 50.4984 302.218 50.5104 302.322 50.5453C302.425 50.5803 302.52 50.6373 302.599 50.7126C302.678 50.7878 302.739 50.8793 302.779 50.9808C302.819 51.0823 302.837 51.1913 302.83 51.3002C302.83 51.5902 301.12 80.8102 300.97 90.4802C300.82 100.15 297.97 152.11 296.1 167.89C296.08 168.08 295.988 168.255 295.843 168.38C295.698 168.504 295.511 168.569 295.32 168.56Z" fill="#27449B"/>
<path d="M135.6 33.1201C153.05 32.7201 179.97 32.5801 191.01 32.5401C192.372 32.5346 193.685 33.0488 194.681 33.9779C195.677 34.907 196.281 36.181 196.37 37.5401C196.88 44.3801 197.77 56.6901 198.14 64.0201C198.178 64.7442 198.068 65.4684 197.818 66.1488C197.567 66.8293 197.181 67.4516 196.682 67.9782C196.184 68.5047 195.583 68.9245 194.918 69.2119C194.252 69.4993 193.535 69.6484 192.81 69.6501C180.59 69.6501 151.05 69.9001 136.07 70.9001C135.333 70.9499 134.593 70.8464 133.898 70.5961C133.202 70.3458 132.566 69.9542 132.03 69.4459C131.493 68.9376 131.068 68.3237 130.781 67.6429C130.493 66.962 130.35 66.229 130.36 65.4901C130.44 58.4901 130.54 46.6701 130.36 38.6401C130.339 37.9328 130.458 37.2284 130.71 36.5673C130.962 35.9063 131.343 35.3017 131.83 34.7886C132.317 34.2754 132.901 33.8638 133.548 33.5774C134.195 33.291 134.892 33.1356 135.6 33.1201Z" fill="#27449B"/>
<path d="M175.459 47.31C175.345 47.3089 175.232 47.2815 175.129 47.23C173.339 46.34 169.999 40.72 168.369 34.82C167.249 30.82 166.509 25.03 169.299 20.66C172.719 15.3 173.619 9.29996 171.529 5.65996C169.829 2.73996 166.209 1.33996 161.059 1.65996C155.539 1.94996 153.319 4.81996 152.429 7.16996C151.746 9.22155 151.629 11.4197 152.092 13.532C152.555 15.6443 153.58 17.5923 155.059 19.17C155.131 19.2396 155.188 19.3226 155.228 19.4143C155.267 19.506 155.288 19.6045 155.289 19.7044C155.291 19.8042 155.273 19.9033 155.236 19.9961C155.199 20.0888 155.144 20.1734 155.074 20.245C155.005 20.3165 154.922 20.3737 154.83 20.4132C154.738 20.4527 154.64 20.4737 154.54 20.4751C154.44 20.4765 154.341 20.4582 154.248 20.4213C154.155 20.3844 154.071 20.3296 153.999 20.26C152.305 18.4812 151.13 16.2726 150.601 13.8735C150.072 11.4744 150.21 8.9763 150.999 6.64996C152.479 2.72996 155.999 0.439961 160.999 0.169961C168.259 -0.210039 171.449 2.55996 172.839 4.95996C175.239 9.07996 174.359 15.56 170.579 21.47C168.079 25.38 168.789 30.67 169.829 34.47C171.519 40.59 174.829 45.47 175.829 45.94C175.98 46.0159 176.101 46.1407 176.172 46.294C176.244 46.4473 176.261 46.6202 176.222 46.7846C176.182 46.949 176.089 47.0953 175.956 47.1997C175.823 47.3042 175.658 47.3606 175.489 47.36L175.459 47.31Z" fill="#27449B"/>
<path d="M152.911 47.3099C152.782 47.3094 152.655 47.2755 152.543 47.2118C152.431 47.148 152.337 47.0564 152.271 46.9458C152.205 46.8352 152.168 46.7094 152.164 46.5805C152.161 46.4516 152.191 46.324 152.251 46.2099C155.351 40.2699 157.321 26.0099 155.541 22.3699C155.497 22.2813 155.472 22.185 155.466 22.0865C155.46 21.988 155.473 21.8893 155.505 21.796C155.537 21.7027 155.587 21.6165 155.653 21.5426C155.718 21.4686 155.797 21.4083 155.886 21.3649C155.974 21.3216 156.071 21.2961 156.169 21.29C156.268 21.2839 156.366 21.2973 156.46 21.3293C156.553 21.3613 156.639 21.4114 156.713 21.4767C156.787 21.542 156.847 21.6213 156.891 21.7099C158.891 25.7099 156.891 40.5499 153.581 46.8999C153.518 47.0235 153.422 47.1273 153.304 47.1997C153.185 47.272 153.049 47.3102 152.911 47.3099Z" fill="#27449B"/>
<path d="M175.46 47.3098C175.345 47.3087 175.232 47.2814 175.13 47.2298C173.45 46.3898 170.2 41.0298 168.53 35.3798C168.505 35.2833 168.499 35.1828 168.513 35.0841C168.527 34.9854 168.56 34.8903 168.611 34.8044C168.662 34.7186 168.729 34.6435 168.808 34.5835C168.888 34.5235 168.979 34.4798 169.075 34.4548C169.172 34.4299 169.272 34.4242 169.371 34.4381C169.469 34.4519 169.564 34.4851 169.65 34.5358C169.736 34.5864 169.811 34.6534 169.871 34.733C169.931 34.8126 169.975 34.9033 170 34.9998C171.69 40.7398 174.78 45.4098 175.83 45.9398C175.981 46.0158 176.102 46.1406 176.173 46.2939C176.244 46.4472 176.262 46.6201 176.222 46.7845C176.183 46.9489 176.089 47.0952 175.956 47.1996C175.823 47.304 175.659 47.3605 175.49 47.3598L175.46 47.3098Z" fill="white"/>
<path d="M152.911 47.31C152.782 47.3094 152.655 47.2756 152.543 47.2118C152.431 47.148 152.337 47.0564 152.271 46.9459C152.205 46.8353 152.168 46.7095 152.164 46.5806C152.161 46.4517 152.191 46.324 152.251 46.21C153.805 42.801 154.865 39.1881 155.401 35.48C155.434 35.2837 155.544 35.1087 155.706 34.9933C155.868 34.878 156.069 34.8318 156.266 34.865C156.462 34.8981 156.637 35.0079 156.752 35.1701C156.868 35.3323 156.914 35.5337 156.881 35.73C156.318 39.5914 155.207 43.3527 153.581 46.9C153.518 47.0236 153.422 47.1273 153.304 47.1997C153.185 47.2721 153.049 47.3103 152.911 47.31Z" fill="white"/>
<path d="M307.5 179.16C307.301 179.16 307.11 179.081 306.97 178.94C306.829 178.8 306.75 178.609 306.75 178.41C306.84 148.1 307.61 118.77 307.98 113.54C308.12 111.59 308.24 107.35 308.38 101.97C308.68 91.1699 309.08 76.3799 310.04 64.6499C310.058 64.4517 310.153 64.2685 310.304 64.1395C310.456 64.0105 310.652 63.946 310.85 63.9599C310.949 63.9674 311.045 63.9944 311.133 64.0393C311.221 64.0842 311.299 64.146 311.364 64.2213C311.428 64.2966 311.476 64.3838 311.507 64.478C311.537 64.5721 311.548 64.6713 311.54 64.7699C310.54 76.4599 310.18 91.2299 309.89 102.01C309.74 107.41 309.62 111.67 309.48 113.65C309.11 118.86 308.34 148.14 308.25 178.42C308.247 178.617 308.167 178.805 308.027 178.944C307.886 179.082 307.697 179.16 307.5 179.16Z" fill="#27449B"/>
<path d="M189.39 449.83C160 449.58 130.74 448.07 104.93 446.73C78.1304 445.34 54.9904 444.15 40.0404 444.83C39.9418 444.838 39.8425 444.826 39.7488 444.794C39.6551 444.762 39.5689 444.712 39.4957 444.645C39.4225 444.578 39.3638 444.497 39.3234 444.407C39.2829 444.317 39.2614 444.219 39.2604 444.12C39.2522 443.923 39.3222 443.73 39.4551 443.584C39.5881 443.438 39.7732 443.35 39.9704 443.34C54.9704 442.66 78.1704 443.85 104.97 445.24C130.77 446.57 159.97 448.09 189.37 448.34C189.569 448.34 189.76 448.419 189.901 448.56C190.041 448.7 190.12 448.891 190.12 449.09C190.12 449.289 190.041 449.48 189.901 449.62C189.76 449.761 189.569 449.84 189.37 449.84L189.39 449.83Z" fill="#27449B"/>
<path d="M292.229 441.74C292.098 441.749 291.967 441.729 291.845 441.683C291.722 441.636 291.611 441.564 291.519 441.47C289.519 441.31 284.919 441.04 274.519 440.55C274.322 440.54 274.137 440.452 274.004 440.306C273.871 440.16 273.801 439.967 273.809 439.77C273.824 439.575 273.914 439.392 274.059 439.261C274.204 439.129 274.393 439.057 274.589 439.06C284.379 439.52 289.229 439.75 291.639 439.99C291.919 437.99 292.109 431.2 291.769 419.78C291.767 419.682 291.783 419.583 291.819 419.491C291.854 419.399 291.907 419.315 291.975 419.244C292.042 419.172 292.124 419.115 292.214 419.075C292.304 419.035 292.401 419.013 292.499 419.01C292.599 419.003 292.699 419.017 292.793 419.051C292.886 419.084 292.972 419.137 293.045 419.206C293.117 419.274 293.174 419.357 293.213 419.449C293.252 419.541 293.271 419.64 293.269 419.74C293.459 426.21 293.649 436.49 293.079 440.19C294.009 440.38 293.999 440.6 293.999 440.96C293.999 441.71 293.329 441.74 292.229 441.74Z" fill="#27449B"/>
<path d="M121.741 438.18C89.3909 438.18 63.8609 436.86 28.6009 432.1C28.5031 432.087 28.4088 432.055 28.3234 432.005C28.238 431.956 28.1633 431.89 28.1034 431.811C27.9824 431.653 27.9294 431.453 27.9559 431.255C27.9824 431.058 28.0863 430.879 28.2448 430.758C28.4033 430.637 28.6033 430.584 28.8009 430.61C79.0509 437.39 109.531 437.18 168.301 436.11C175.111 435.99 179.361 435.83 182.761 435.7C189.191 435.46 192.761 435.33 205.101 435.76C205.199 435.764 205.296 435.787 205.386 435.829C205.475 435.87 205.556 435.928 205.623 436.001C205.69 436.073 205.741 436.158 205.775 436.251C205.809 436.343 205.825 436.442 205.821 436.54C205.808 436.737 205.72 436.922 205.575 437.056C205.43 437.19 205.238 437.263 205.041 437.26C192.721 436.84 189.201 436.97 182.811 437.2C179.391 437.33 175.141 437.48 168.321 437.61C150.681 437.94 135.581 438.18 121.741 438.18Z" fill="#27449B"/>
<path d="M27.2402 425.95C27.0622 425.95 26.8899 425.886 26.7544 425.771C26.6188 425.656 26.5287 425.496 26.5002 425.32C14.0802 351.07 13.2802 328.46 12.7702 288.32C12.4102 260.06 16.5002 213.14 20.1202 171.75C21.7502 153.12 23.2802 135.52 24.1202 122.57C25.5302 100.82 24.1202 89.9299 22.8102 80.3299C21.7202 72.1599 20.8102 65.1099 22.0202 53.4199C22.0266 53.3188 22.0534 53.2201 22.099 53.1297C22.1446 53.0393 22.208 52.959 22.2854 52.8938C22.3628 52.8285 22.4526 52.7796 22.5495 52.75C22.6463 52.7204 22.7481 52.7108 22.8488 52.7216C22.9495 52.7324 23.0469 52.7635 23.1352 52.8129C23.2236 52.8624 23.301 52.9293 23.3628 53.0095C23.4246 53.0897 23.4695 53.1816 23.4949 53.2796C23.5202 53.3776 23.5254 53.4798 23.5102 53.5799C22.3002 65.0899 23.2302 72.0599 24.3002 80.1399C25.5902 89.8199 27.0502 100.78 25.6202 122.68C24.7802 135.68 23.2402 153.25 21.6202 171.89C18.0102 213.25 13.9202 260.13 14.2802 288.31C14.7902 328.42 15.5902 350.98 27.9902 425.13C28.022 425.326 27.9745 425.527 27.8582 425.688C27.742 425.849 27.5664 425.958 27.3702 425.99L27.2402 425.95Z" fill="#27449B"/>
<path d="M51.5996 119.74C51.5996 125.63 56.3696 128.4 62.2596 128.4C68.1496 128.4 72.9196 125.63 72.9196 119.74C72.9196 113.85 68.1496 110.08 62.2596 110.08C56.3696 110.08 51.5996 113.85 51.5996 119.74Z" fill="#39B715"/>
<path d="M62.2602 121.23C62.1421 121.23 62.0256 121.203 61.9202 121.15C61.7602 121.07 57.9802 119.04 52.8702 107.41C52.8078 107.232 52.815 107.036 52.8905 106.863C52.966 106.69 53.1041 106.551 53.2773 106.475C53.4504 106.4 53.6458 106.392 53.8243 106.454C54.0028 106.516 54.1514 106.643 54.2402 106.81C58.0102 115.39 60.9802 118.49 62.1102 119.45C64.1902 116.77 73.2102 105.51 82.7802 98.2999C82.9393 98.1806 83.1393 98.1293 83.3362 98.1574C83.5331 98.1856 83.7108 98.2908 83.8302 98.4499C83.9495 98.609 84.0008 98.8091 83.9726 99.006C83.9445 99.2029 83.8393 99.3806 83.6802 99.4999C72.9802 107.56 62.9502 120.8 62.8502 120.94C62.7803 121.03 62.6909 121.103 62.5886 121.153C62.4864 121.203 62.3741 121.23 62.2602 121.23Z" fill="#27449B"/>
<path d="M50.5996 173.23C50.5996 179.12 56.3696 183.89 62.2596 183.89C68.1496 183.89 71.9196 179.12 71.9196 173.23C71.9196 167.34 68.1496 162.57 62.2596 162.57C56.3696 162.57 50.5996 167.34 50.5996 173.23Z" fill="#39B715"/>
<path d="M62.2602 174.71C62.1421 174.71 62.0256 174.683 61.9202 174.63C61.7602 174.55 57.9802 172.52 52.8702 160.89C52.8078 160.711 52.815 160.516 52.8905 160.343C52.966 160.17 53.1041 160.031 53.2773 159.955C53.4504 159.879 53.6458 159.872 53.8243 159.934C54.0028 159.996 54.1514 160.123 54.2402 160.29C58.0102 168.87 60.9802 171.97 62.1102 172.93C64.1902 170.25 73.2102 158.99 82.7802 151.78C82.859 151.721 82.9486 151.678 83.044 151.653C83.1394 151.629 83.2387 151.623 83.3362 151.637C83.4337 151.651 83.5275 151.684 83.6123 151.735C83.697 151.785 83.7711 151.851 83.8302 151.93C83.8893 152.009 83.9323 152.098 83.9567 152.194C83.9812 152.289 83.9866 152.388 83.9726 152.486C83.9587 152.583 83.9257 152.677 83.8755 152.762C83.8254 152.847 83.759 152.921 83.6802 152.98C73.0002 161 63.0002 174.28 62.8602 174.41C62.7903 174.503 62.6997 174.579 62.5956 174.631C62.4914 174.683 62.3766 174.71 62.2602 174.71Z" fill="#27449B"/>
<path d="M51.5996 225.71C51.5996 228.537 52.7227 231.249 54.7218 233.248C56.721 235.247 59.4324 236.37 62.2596 236.37C68.1496 236.37 72.9196 232.6 72.9196 226.71C72.9262 225.306 72.6553 223.914 72.1226 222.615C71.5898 221.316 70.8056 220.135 69.8151 219.14C68.8246 218.145 67.6472 217.355 66.3506 216.816C65.054 216.277 63.6637 216 62.2596 216C56.3696 216 51.5996 219.82 51.5996 225.71Z" fill="#39B715"/>
<path d="M62.2602 228.2C62.1421 228.201 62.0256 228.173 61.9202 228.12C61.7602 228.04 57.9802 226.01 52.8702 214.38C52.8078 214.202 52.815 214.006 52.8905 213.833C52.966 213.66 53.1041 213.521 53.2773 213.446C53.4504 213.37 53.6458 213.362 53.8243 213.424C54.0028 213.486 54.1514 213.613 54.2402 213.78C58.0102 222.36 60.9802 225.46 62.1102 226.42C64.1902 223.74 73.2102 212.48 82.7802 205.27C82.859 205.211 82.9486 205.168 83.044 205.144C83.1394 205.119 83.2387 205.114 83.3362 205.128C83.4337 205.142 83.5275 205.175 83.6123 205.225C83.697 205.275 83.7711 205.341 83.8302 205.42C83.8893 205.499 83.9323 205.589 83.9567 205.684C83.9812 205.779 83.9866 205.879 83.9726 205.976C83.9587 206.074 83.9257 206.167 83.8755 206.252C83.8254 206.337 83.759 206.411 83.6802 206.47C73.0002 214.51 63.0002 227.76 62.8602 227.9C62.7903 227.993 62.6997 228.069 62.5956 228.121C62.4914 228.173 62.3766 228.2 62.2602 228.2Z" fill="#27449B"/>
<path d="M52.5907 272.21C50.1607 277.57 53.4507 284.31 58.8107 286.74C61.3873 287.907 64.3219 288.003 66.969 287.006C69.6161 286.009 71.7587 284.002 72.9257 281.425C74.0926 278.849 74.1883 275.914 73.1915 273.267C72.1948 270.62 70.1873 268.477 67.6107 267.31C62.2507 264.88 55.0007 266.85 52.5907 272.21Z" fill="#39B715"/>
<path d="M62.2602 278.3C62.1421 278.301 62.0255 278.273 61.9202 278.22C61.7602 278.14 57.9802 276.11 52.8702 264.48C52.8078 264.301 52.815 264.106 52.8905 263.933C52.966 263.759 53.1041 263.621 53.2773 263.545C53.4504 263.469 53.6458 263.462 53.8243 263.524C54.0028 263.586 54.1514 263.713 54.2402 263.88C58.0102 272.46 60.9802 275.56 62.1102 276.52C64.1902 273.84 73.2102 262.58 82.7802 255.37C82.9393 255.25 83.1393 255.199 83.3362 255.227C83.5331 255.255 83.7108 255.361 83.8302 255.52C83.9495 255.679 84.0008 255.879 83.9726 256.076C83.9445 256.273 83.8393 256.45 83.6802 256.57C73.0002 264.62 63.0002 277.87 62.8602 278C62.7903 278.093 62.6997 278.168 62.5956 278.221C62.4914 278.273 62.3766 278.3 62.2602 278.3Z" fill="#27449B"/>
<path d="M50.2299 326.66C52.4499 332.11 57.7499 335.11 63.2299 332.89C68.7099 330.67 70.3799 324.82 68.1599 319.37C65.9399 313.92 60.6399 310.92 55.1599 313.14C49.6799 315.36 47.9999 321.21 50.2299 326.66Z" fill="#39B715"/>
<path d="M59.1791 324.5C59.061 324.501 58.9445 324.473 58.8391 324.42C58.6791 324.34 54.8991 322.31 49.7891 310.68C49.7406 310.589 49.7114 310.488 49.7034 310.385C49.6954 310.282 49.7088 310.179 49.7427 310.081C49.7766 309.984 49.8303 309.894 49.9005 309.818C49.9706 309.742 50.0557 309.682 50.1503 309.64C50.2449 309.599 50.3471 309.578 50.4504 309.577C50.5537 309.577 50.656 309.599 50.7507 309.64C50.8454 309.681 50.9306 309.742 51.0009 309.817C51.0711 309.893 51.125 309.982 51.1591 310.08C54.9291 318.66 57.8991 321.76 59.0291 322.72C61.1091 320.04 70.1291 308.78 79.6991 301.57C79.7779 301.511 79.8676 301.468 79.963 301.443C80.0584 301.419 80.1577 301.414 80.2552 301.427C80.3527 301.441 80.4465 301.474 80.5313 301.525C80.616 301.575 80.69 301.641 80.7491 301.72C80.8082 301.799 80.8512 301.888 80.8757 301.984C80.9001 302.079 80.9055 302.178 80.8916 302.276C80.8777 302.373 80.8447 302.467 80.7945 302.552C80.7443 302.637 80.6779 302.711 80.5991 302.77C69.9091 310.82 59.8691 324.07 59.7691 324.21C59.6993 324.3 59.6098 324.373 59.5076 324.423C59.4054 324.473 59.293 324.5 59.1791 324.5Z" fill="#27449B"/>
<path d="M51.0996 369.21C51.0996 375.1 55.8696 378.87 61.7596 378.87C67.6496 378.87 72.4196 375.1 72.4196 369.21C72.4196 363.32 68.6496 358.55 62.7596 358.55C56.8696 358.55 51.0996 363.32 51.0996 369.21Z" fill="#39B715"/>
<path d="M61.7709 370.69C61.6528 370.691 61.5363 370.663 61.4309 370.61C61.2709 370.53 57.4909 368.5 52.3809 356.87C52.3324 356.779 52.3032 356.678 52.2952 356.575C52.2872 356.472 52.3006 356.369 52.3345 356.271C52.3684 356.174 52.4221 356.084 52.4923 356.008C52.5624 355.932 52.6475 355.872 52.7421 355.83C52.8367 355.789 52.9389 355.768 53.0422 355.767C53.1455 355.767 53.2478 355.789 53.3425 355.83C53.4372 355.871 53.5224 355.931 53.5927 356.007C53.6629 356.083 53.7168 356.172 53.7509 356.27C57.5209 364.85 60.4909 367.95 61.6209 368.91C63.7009 366.23 72.7209 354.97 82.2909 347.76C82.4501 347.641 82.6501 347.589 82.847 347.617C83.0439 347.646 83.2216 347.751 83.3409 347.91C83.4603 348.069 83.5115 348.269 83.4834 348.466C83.4553 348.663 83.3501 348.841 83.1909 348.96C72.4909 357.02 62.4609 370.26 62.3609 370.4C62.2911 370.49 62.2016 370.563 62.0994 370.613C61.9972 370.663 61.8848 370.69 61.7709 370.69Z" fill="#27449B"/>
<path d="M95.4199 119C95.221 119 95.0302 118.921 94.8896 118.78C94.7489 118.64 94.6699 118.449 94.6699 118.25C94.6699 118.051 94.7489 117.86 94.8896 117.72C95.0302 117.579 95.221 117.5 95.4199 117.5C114.73 116.2 143.42 116.32 158.78 116.5C158.878 116.501 158.976 116.522 159.066 116.561C159.157 116.6 159.239 116.656 159.307 116.727C159.376 116.797 159.43 116.881 159.467 116.972C159.503 117.064 159.521 117.161 159.52 117.26C159.508 117.456 159.423 117.64 159.283 117.776C159.142 117.913 158.956 117.993 158.76 118C143.41 117.81 114.76 117.7 95.5199 119H95.4199Z" fill="#27449B"/>
<path d="M229.349 117L183.869 116.45C183.67 116.45 183.479 116.371 183.339 116.231C183.198 116.09 183.119 115.899 183.119 115.7C183.119 115.501 183.198 115.311 183.339 115.17C183.479 115.029 183.67 114.95 183.869 114.95L229.349 115.5C229.548 115.5 229.739 115.579 229.879 115.72C230.02 115.861 230.099 116.051 230.099 116.25C230.099 116.449 230.02 116.64 229.879 116.781C229.739 116.921 229.548 117 229.349 117Z" fill="#27449B"/>
<path d="M156.409 130.45C152.069 130.45 144.809 129.97 136.689 129.45C122.759 128.52 105.419 127.36 96.8292 128.32C96.7303 128.333 96.6297 128.327 96.5333 128.301C96.4369 128.275 96.3467 128.23 96.2679 128.169C96.1891 128.107 96.1234 128.031 96.0745 127.944C96.0257 127.857 95.9947 127.761 95.9834 127.662C95.972 127.563 95.9806 127.462 96.0086 127.366C96.0366 127.271 96.0835 127.181 96.1464 127.104C96.2094 127.026 96.2872 126.962 96.3752 126.915C96.4633 126.868 96.5598 126.839 96.6592 126.83C105.379 125.83 122.799 127.02 136.789 127.95C147.299 128.65 156.369 129.26 159.289 128.84C159.487 128.812 159.687 128.864 159.847 128.984C160.006 129.104 160.111 129.282 160.139 129.48C160.167 129.678 160.115 129.878 159.995 130.038C159.875 130.197 159.697 130.302 159.499 130.33C158.473 130.437 157.441 130.477 156.409 130.45Z" fill="#27449B"/>
<path d="M179.14 169C174.77 169 168.23 168.95 160.41 168.88C140.78 168.72 113.89 168.5 95.4102 168.88C95.2112 168.88 95.0205 168.801 94.8798 168.66C94.7392 168.52 94.6602 168.329 94.6602 168.13C94.6602 167.931 94.7392 167.74 94.8798 167.6C95.0205 167.459 95.2112 167.38 95.4102 167.38C113.89 166.96 140.79 167.18 160.41 167.38C170.5 167.46 178.48 167.53 182.36 167.48C182.559 167.48 182.75 167.559 182.89 167.7C183.031 167.84 183.11 168.031 183.11 168.23C183.11 168.429 183.031 168.62 182.89 168.76C182.75 168.901 182.559 168.98 182.36 168.98L179.14 169Z" fill="#27449B"/>
<path d="M115.67 184.64C115.58 184.64 106.67 184.44 96.7498 184.14C96.6513 184.137 96.5543 184.115 96.4643 184.075C96.3743 184.035 96.293 183.977 96.2252 183.906C96.1575 183.834 96.1044 183.75 96.0692 183.658C96.0339 183.566 96.0171 183.468 96.0198 183.37C96.0276 183.172 96.1125 182.984 96.2563 182.848C96.4002 182.712 96.5916 182.637 96.7898 182.64C106.73 182.94 115.61 183.14 115.7 183.14C115.899 183.14 116.089 183.219 116.23 183.359C116.371 183.5 116.45 183.691 116.45 183.89C116.45 184.089 116.371 184.279 116.23 184.42C116.089 184.561 115.899 184.64 115.7 184.64H115.67Z" fill="#27449B"/>
<path d="M153.329 229.75C133.629 229.75 112.929 229.39 101.679 228.19C101.578 228.184 101.479 228.157 101.389 228.111C101.299 228.066 101.218 228.002 101.153 227.925C101.088 227.847 101.039 227.757 101.009 227.661C100.98 227.564 100.97 227.462 100.981 227.361C100.992 227.261 101.023 227.163 101.072 227.075C101.122 226.987 101.189 226.909 101.269 226.847C101.349 226.786 101.441 226.741 101.539 226.715C101.637 226.69 101.739 226.685 101.839 226.7C127.019 229.4 199.639 227.83 201.839 227.57C201.937 227.557 202.037 227.565 202.132 227.591C202.227 227.618 202.316 227.663 202.393 227.725C202.471 227.786 202.535 227.863 202.582 227.949C202.63 228.036 202.659 228.132 202.669 228.23C202.692 228.427 202.635 228.626 202.511 228.782C202.387 228.937 202.207 229.037 202.009 229.06C200.789 229.2 177.839 229.75 153.329 229.75Z" fill="#27449B"/>
<path d="M175 278.3C174.46 278.3 121.2 276.99 95.09 275.62C94.9915 275.615 94.8949 275.59 94.8059 275.548C94.7168 275.505 94.637 275.445 94.5711 275.372C94.5051 275.299 94.4543 275.213 94.4215 275.12C94.3887 275.027 94.3746 274.928 94.38 274.83C94.3824 274.73 94.4051 274.632 94.4467 274.542C94.4883 274.452 94.5479 274.371 94.6219 274.304C94.6958 274.238 94.7826 274.187 94.8769 274.155C94.9712 274.124 95.0709 274.111 95.17 274.12C121.25 275.49 174.5 276.79 175.03 276.8C175.229 276.8 175.42 276.879 175.56 277.019C175.701 277.16 175.78 277.351 175.78 277.55C175.78 277.749 175.701 277.939 175.56 278.08C175.42 278.221 175.229 278.3 175.03 278.3H175Z" fill="#27449B"/>
<path d="M146.36 292.79H146.28C146.05 292.79 123.28 290.47 102.04 288.23C101.849 288.201 101.676 288.099 101.558 287.946C101.44 287.793 101.386 287.6 101.407 287.408C101.427 287.216 101.521 287.039 101.669 286.915C101.817 286.79 102.007 286.728 102.2 286.74C123.41 288.98 146.2 291.28 146.43 291.3C146.629 291.309 146.816 291.397 146.95 291.544C147.084 291.691 147.154 291.886 147.145 292.085C147.135 292.284 147.048 292.471 146.9 292.605C146.753 292.739 146.559 292.809 146.36 292.8V292.79Z" fill="#27449B"/>
<path d="M132.199 326.49C120.624 326.593 109.055 325.925 97.5693 324.49C97.4714 324.477 97.3773 324.444 97.2922 324.393C97.207 324.343 97.1326 324.277 97.0732 324.198C96.9532 324.038 96.9014 323.838 96.9292 323.64C96.9571 323.443 97.0623 323.264 97.2217 323.144C97.3811 323.024 97.5817 322.972 97.7792 323C122.069 326.35 154.149 324.84 176.779 323C185.869 322.398 194.989 322.398 204.079 323C204.178 323.008 204.274 323.034 204.362 323.078C204.45 323.123 204.529 323.184 204.593 323.259C204.658 323.334 204.707 323.42 204.738 323.514C204.769 323.608 204.781 323.707 204.774 323.805C204.767 323.904 204.74 324 204.696 324.088C204.652 324.176 204.59 324.255 204.516 324.32C204.441 324.384 204.354 324.433 204.26 324.464C204.167 324.495 204.068 324.508 203.969 324.5C194.956 323.903 185.913 323.903 176.899 324.5C163.999 325.55 148.059 326.49 132.199 326.49Z" fill="#27449B"/>
<path d="M158.999 373.87H158.849C152.909 372.7 141.789 372.59 130.009 372.48C116.839 372.35 103.219 372.22 93.5691 370.7C93.3729 370.668 93.1973 370.56 93.0811 370.398C92.9648 370.237 92.9173 370.036 92.9491 369.84C92.9834 369.645 93.0925 369.471 93.2531 369.355C93.4137 369.24 93.6132 369.191 93.8091 369.22C103.349 370.73 116.909 370.86 130.029 370.98C141.879 371.09 153.029 371.2 159.139 372.4C159.327 372.431 159.496 372.531 159.612 372.682C159.728 372.832 159.783 373.021 159.765 373.211C159.747 373.4 159.658 373.575 159.516 373.701C159.374 373.828 159.189 373.895 158.999 373.89V373.87Z" fill="#27449B"/>
<path d="M135.891 389.16C135.691 389.16 115.981 387.92 96.6705 386.57C96.572 386.564 96.4756 386.538 96.387 386.494C96.2984 386.451 96.2194 386.39 96.1543 386.315C96.0893 386.241 96.0396 386.155 96.008 386.061C95.9765 385.967 95.9637 385.869 95.9705 385.77C95.9859 385.572 96.0783 385.388 96.2278 385.257C96.3773 385.126 96.5721 385.059 96.7705 385.07C116.071 386.43 135.771 387.65 135.971 387.66C136.169 387.66 136.36 387.739 136.501 387.88C136.642 388.02 136.721 388.211 136.721 388.41C136.721 388.609 136.642 388.8 136.501 388.94C136.36 389.081 136.169 389.16 135.971 389.16H135.891Z" fill="#27449B"/>
<path d="M239.64 296.18C239.463 296.184 239.291 296.123 239.157 296.009C239.022 295.894 238.934 295.735 238.91 295.56C238.83 295.01 238.75 294.49 238.66 293.96C234.4 269.11 209.34 221.67 198.76 202.43C190.36 187.13 181.76 169.05 178.94 161.76C176.12 154.47 161.79 122.48 160.78 120.24C154.15 113.875 146.261 108.969 137.62 105.84C137.432 105.773 137.277 105.635 137.191 105.455C137.105 105.275 137.094 105.068 137.16 104.88C137.226 104.691 137.365 104.537 137.545 104.451C137.725 104.365 137.932 104.353 138.12 104.42C147.04 107.636 155.179 112.703 162 119.29C162.058 119.351 162.105 119.422 162.14 119.5C162.29 119.84 177.51 153.67 180.39 161.23C183.16 168.47 191.75 186.47 200.12 201.71C210.73 221.02 235.88 268.63 240.18 293.71C240.28 294.25 240.35 294.79 240.43 295.31C240.459 295.508 240.409 295.71 240.292 295.873C240.174 296.035 239.998 296.145 239.8 296.18H239.64Z" fill="#27449B"/>
<path d="M271.17 301.81C270.989 301.81 270.815 301.745 270.679 301.627C270.542 301.508 270.453 301.345 270.427 301.166C270.402 300.988 270.442 300.806 270.54 300.654C270.637 300.502 270.787 300.391 270.96 300.34L271.57 300.16C279.26 297.88 302.66 290.96 323 289.8C323.199 289.788 323.394 289.856 323.543 289.988C323.693 290.12 323.783 290.306 323.795 290.505C323.807 290.704 323.739 290.9 323.607 291.049C323.475 291.198 323.289 291.288 323.09 291.3C302.92 292.45 279.65 299.3 272 301.6L271.39 301.78C271.318 301.801 271.244 301.811 271.17 301.81Z" fill="white"/>
<path d="M278.26 345.16C272.18 345.16 267.4 344.37 263.4 342.78C263.301 342.75 263.209 342.7 263.13 342.632C263.051 342.565 262.987 342.482 262.942 342.389C262.897 342.295 262.871 342.193 262.868 342.09C262.864 341.986 262.882 341.883 262.92 341.786C262.958 341.69 263.016 341.602 263.089 341.529C263.163 341.456 263.251 341.4 263.348 341.362C263.445 341.325 263.548 341.308 263.652 341.313C263.755 341.318 263.857 341.344 263.95 341.39C271.19 344.27 281.71 344.39 298.05 341.75C303.34 340.9 307.73 340.15 311.47 339.47C326.32 336.78 329.59 335.47 329.62 335.47C329.8 335.408 329.997 335.416 330.171 335.494C330.345 335.571 330.483 335.712 330.557 335.888C330.631 336.064 330.635 336.261 330.569 336.44C330.502 336.618 330.371 336.765 330.2 336.85C330.07 336.9 326.89 338.2 311.74 340.94C307.99 341.62 303.59 342.37 298.29 343.23C291.674 344.394 284.977 345.039 278.26 345.16Z" fill="white"/>
<path d="M367.409 123.47C367.215 123.47 367.029 123.395 366.889 123.261C366.749 123.126 366.667 122.943 366.659 122.75L365.739 100.33L353.469 95.9097L338.209 113.63C338.143 113.705 338.064 113.766 337.974 113.81C337.885 113.854 337.788 113.88 337.689 113.886C337.589 113.893 337.49 113.88 337.395 113.848C337.301 113.816 337.214 113.765 337.139 113.7C337.064 113.634 337.003 113.554 336.959 113.465C336.915 113.376 336.889 113.279 336.882 113.179C336.876 113.08 336.889 112.98 336.921 112.886C336.953 112.792 337.003 112.705 337.069 112.63L352.659 94.5197C352.757 94.4044 352.889 94.3217 353.035 94.2825C353.181 94.2432 353.336 94.2492 353.479 94.2997L366.709 99.0697C366.85 99.1191 366.972 99.2092 367.061 99.3285C367.15 99.4478 367.202 99.591 367.209 99.7397L368.149 122.66C368.153 122.758 368.138 122.856 368.104 122.949C368.07 123.042 368.018 123.126 367.951 123.199C367.884 123.271 367.803 123.33 367.714 123.371C367.624 123.413 367.528 123.436 367.429 123.44L367.409 123.47Z" fill="#27449B"/>
<path d="M323.399 217.38C323.279 217.38 323.161 217.352 323.054 217.297C322.947 217.242 322.855 217.162 322.785 217.064C322.715 216.966 322.67 216.853 322.654 216.734C322.637 216.614 322.649 216.493 322.689 216.38L352.529 134.53C352.601 134.348 352.741 134.202 352.918 134.121C353.096 134.041 353.299 134.033 353.482 134.099C353.666 134.166 353.816 134.301 353.902 134.477C353.987 134.652 354.001 134.854 353.939 135.04L324.099 216.89C324.046 217.033 323.951 217.157 323.826 217.244C323.701 217.332 323.552 217.379 323.399 217.38Z" fill="white"/>
<path d="M306.939 227.84C306.853 227.855 306.765 227.855 306.679 227.84C306.583 227.806 306.494 227.752 306.419 227.683C306.344 227.613 306.284 227.529 306.243 227.435C306.202 227.341 306.18 227.24 306.18 227.138C306.179 227.036 306.199 226.934 306.239 226.84L341.799 131.2C341.868 131.013 342.009 130.861 342.19 130.778C342.371 130.694 342.577 130.686 342.764 130.755C342.951 130.824 343.103 130.964 343.187 131.145C343.27 131.326 343.278 131.533 343.209 131.72L307.649 227.36C307.594 227.503 307.497 227.625 307.37 227.711C307.243 227.797 307.093 227.842 306.939 227.84Z" fill="white"/>
</svg>
