<svg width="80" height="80" viewBox="0 0 80 80" fill="none" xmlns="http://www.w3.org/2000/svg">
<path d="M34.25 46.45V46.7683L34.479 46.9895L53.4751 65.3357C53.4757 65.3363 53.4764 65.337 53.477 65.3376C53.8055 65.6605 53.9935 66.1 54 66.5607L54.0002 66.5693C54.0062 66.8013 53.966 67.0322 53.8818 67.2485C53.7977 67.4648 53.6714 67.6622 53.5103 67.8293L53.5087 67.8309C50.7934 70.6621 47.5315 72.9125 43.9207 74.4456C40.3098 75.9788 36.4253 76.7627 32.5024 76.75H32.5C24.7424 76.75 17.3026 73.6683 11.8171 68.1829C6.33169 62.6974 3.25 55.2576 3.25 47.5C3.25 39.7424 6.33169 32.3026 11.8171 26.8171C17.3026 21.3317 24.7424 18.25 32.5 18.25C32.9641 18.25 33.4092 18.4344 33.7374 18.7626C34.0656 19.0908 34.25 19.5359 34.25 20V46.45ZM30.75 22.625V21.7959L32.5 72.5L32.4969 73.25C32.4974 73.25 32.4979 73.25 32.4985 73.25C38.5899 73.2751 44.4872 71.108 49.113 67.1445L49.7383 66.6087L49.1466 66.0361L31.2966 48.7611L31.2966 48.761L31.2925 48.7571C31.1219 48.5945 30.9859 48.399 30.8926 48.1825C30.7996 47.9664 30.7511 47.7338 30.75 47.4985V22.625Z" fill="#27449B" stroke="white" stroke-width="1.5"/>
<path d="M16.2374 46.2626C16.5656 46.5907 16.75 47.0359 16.75 47.5C16.75 51.6772 18.4094 55.6832 21.3631 58.6369C24.3168 61.5906 28.3228 63.25 32.5 63.25C32.9641 63.25 33.4092 63.4344 33.7374 63.7626C34.0656 64.0907 34.25 64.5359 34.25 65C34.25 65.4641 34.0656 65.9093 33.7374 66.2374C33.4092 66.5656 32.9641 66.75 32.5 66.75C27.3946 66.75 22.4983 64.7219 18.8882 61.1118C15.2781 57.5017 13.25 52.6054 13.25 47.5C13.25 47.0359 13.4344 46.5907 13.7626 46.2626C14.0908 45.9344 14.5359 45.75 15 45.75C15.4641 45.75 15.9092 45.9344 16.2374 46.2626Z" fill="#27449B" stroke="white" stroke-width="1.5"/>
<path d="M41.555 28.9688L41.5569 28.97C41.8379 29.1515 42.1649 29.2486 42.4993 29.25C42.7459 29.2485 42.9895 29.1948 43.214 29.0925L43.2196 29.09L43.2196 29.09L63.7446 19.94L63.7461 19.9393C63.9579 19.8455 64.1489 19.7105 64.3081 19.5423C64.4673 19.3741 64.5916 19.1759 64.6736 18.9593L64.674 18.9583C64.8378 18.5279 64.8254 18.0504 64.6395 17.6292C62.7326 13.3501 59.627 9.71495 55.6982 7.16316C51.7692 4.61123 47.185 3.25207 42.5 3.25L41.555 28.9688ZM41.555 28.9688C41.3086 28.8106 41.1057 28.5932 40.9651 28.3364C40.8245 28.0797 40.7506 27.7919 40.75 27.4993V5C40.75 4.53587 40.9344 4.09075 41.2626 3.76256C41.5907 3.43445 42.0357 3.25008 42.4997 3.25L41.555 28.9688ZM44.25 23.65V24.8067L45.306 24.3347L59.906 17.8097L60.6843 17.4619L60.2402 16.7343C58.6124 14.0671 56.4066 11.7994 53.7856 10.0984C51.1645 8.39741 48.195 7.30651 45.0961 6.90618L44.25 6.79688V7.65V23.65Z" fill="#27449B" stroke="white" stroke-width="1.5"/>
<path d="M74.6743 28.55C74.5416 28.2463 74.3499 27.9721 74.1103 27.7432C73.8707 27.5144 73.588 27.3354 73.2786 27.2168C72.9692 27.0981 72.6393 27.0422 72.3081 27.0522C71.9769 27.0622 71.651 27.1379 71.3493 27.275L43.9743 39.5C43.6032 39.6688 43.2791 39.9259 43.0301 40.2487C42.7811 40.5716 42.6149 40.9504 42.5459 41.3522C42.4768 41.754 42.5071 42.1666 42.6341 42.554C42.7611 42.9415 42.9809 43.2919 43.2743 43.575L64.8243 64.425C65.2878 64.8717 65.9057 65.1224 66.5493 65.125C66.8861 65.1237 67.2191 65.0544 67.5284 64.9212C67.8377 64.788 68.117 64.5937 68.3493 64.35C72.8512 59.6924 75.8587 53.7959 76.9857 47.4171C78.1126 41.0382 77.3078 34.4681 74.6743 28.55Z" fill="#39B715"/>
</svg>
