<?xml version="1.0" encoding="utf-8"?>
<!-- Generator: Adobe Illustrator 16.0.0, SVG Export Plug-In . SVG Version: 6.00 Build 0)  -->
<!DOCTYPE svg PUBLIC "-//W3C//DTD SVG 1.1//EN" "http://www.w3.org/Graphics/SVG/1.1/DTD/svg11.dtd">
<svg version="1.1" id="Flags" xmlns="http://www.w3.org/2000/svg" xmlns:xlink="http://www.w3.org/1999/xlink" x="0px" y="0px"
	 width="" height="" viewBox="0 0 500 500" enable-background="new 0 0 500 500" xml:space="preserve">
<g>
	<g>
		<g>
			<defs>
				<path id="SVGID_265_" d="M71.627,140.669c123.284,34.517,246.567-34.517,369.851,0c0,71.91,0,143.82,0,215.73
					c-123.284-34.517-246.567,34.517-369.851,0C71.627,284.489,71.627,212.579,71.627,140.669z"/>
			</defs>
			<clipPath id="SVGID_2_">
				<use xlink:href="#SVGID_265_"  overflow="visible"/>
			</clipPath>
		</g>
	</g>
	<g>
		<g>
			<defs>
				<path id="SVGID_267_" d="M71.627,140.669c123.284,34.517,246.567-34.517,369.851,0c0,71.91,0,143.82,0,215.73
					c-123.284-34.517-246.567,34.517-369.851,0C71.627,284.489,71.627,212.579,71.627,140.669z"/>
			</defs>
			<clipPath id="SVGID_4_">
				<use xlink:href="#SVGID_267_"  overflow="visible"/>
			</clipPath>
			<g clip-path="url(#SVGID_4_)">
				<path fill="#FFFFFF" d="M71.627,248.545c123.284,34.517,246.567-34.517,369.851,0c0-35.959,0-71.917,0-107.876
					c-123.284-34.517-246.567,34.517-369.851,0C71.627,176.628,71.627,212.586,71.627,248.545z"/>
			</g>
			<g clip-path="url(#SVGID_4_)">
				<path fill="#D71F35" d="M71.627,356.399c123.284,34.517,246.567-34.517,369.851,0c0-35.951,0-71.903,0-107.854
					c-123.284-34.517-246.567,34.517-369.851,0C71.627,284.497,71.627,320.448,71.627,356.399z"/>
			</g>
		</g>
	</g>
	<g>
		<g>
			<defs>
				<path id="SVGID_269_" d="M71.627,140.669c123.284,34.517,246.567-34.517,369.851,0c0,71.91,0,143.82,0,215.73
					c-123.284-34.517-246.567,34.517-369.851,0C71.627,284.489,71.627,212.579,71.627,140.669z"/>
			</defs>
			<clipPath id="SVGID_6_">
				<use xlink:href="#SVGID_269_"  overflow="visible"/>
			</clipPath>
		</g>
	</g>
</g>
</svg>
