<svg width="80" height="80" viewBox="0 0 80 80" fill="none" xmlns="http://www.w3.org/2000/svg">
<path d="M38.25 50V49.25H37.5H36.25C35.7859 49.25 35.3408 49.0656 35.0126 48.7374C34.6844 48.4093 34.5 47.9641 34.5 47.5C34.5 47.0359 34.6844 46.5907 35.0126 46.2626C35.3408 45.9344 35.7859 45.75 36.25 45.75H40C40.4641 45.75 40.9093 45.9344 41.2374 46.2626C41.5656 46.5907 41.75 47.0359 41.75 47.5V60V60.75H42.5H43.75C44.2141 60.75 44.6593 60.9344 44.9874 61.2626C45.3156 61.5907 45.5 62.0359 45.5 62.5C45.5 62.9641 45.3156 63.4093 44.9874 63.7374C44.6593 64.0656 44.2141 64.25 43.75 64.25H36.25C35.7859 64.25 35.3408 64.0656 35.0126 63.7374C34.6844 63.4093 34.5 62.9641 34.5 62.5C34.5 62.0359 34.6844 61.5907 35.0126 61.2626C35.3408 60.9344 35.7859 60.75 36.25 60.75H37.5H38.25V60V50Z" fill="#27449B" stroke="white" stroke-width="1.5"/>
<path d="M71.75 72.5V73.25H72.5H75C75.4641 73.25 75.9092 73.4344 76.2374 73.7626C76.5656 74.0907 76.75 74.5359 76.75 75C76.75 75.4641 76.5656 75.9093 76.2374 76.2374C75.9092 76.5656 75.4641 76.75 75 76.75H5C4.53587 76.75 4.09075 76.5656 3.76256 76.2374C3.43437 75.9092 3.25 75.4641 3.25 75C3.25 74.5359 3.43437 74.0908 3.76256 73.7626C4.09075 73.4344 4.53587 73.25 5 73.25H7.5H8.25V72.5V55C8.25 54.5359 8.43437 54.0907 8.76256 53.7626C9.09075 53.4344 9.53587 53.25 10 53.25H22.5H23.25V52.5V35C23.25 34.5359 23.4344 34.0908 23.7626 33.7626C24.0908 33.4344 24.5359 33.25 25 33.25H55C55.4641 33.25 55.9092 33.4344 56.2374 33.7626C56.5656 34.0908 56.75 34.5359 56.75 35V45V45.75H57.5H70C70.4641 45.75 70.9092 45.9344 71.2374 46.2626C71.5656 46.5907 71.75 47.0359 71.75 47.5V72.5ZM68.25 50V49.25H67.5H57.5H56.75V50V72.5V73.25H57.5H67.5H68.25V72.5V50ZM53.25 37.5V36.75H52.5H27.5H26.75V37.5V72.5V73.25H27.5H52.5H53.25V72.5V37.5ZM12.5 56.75H11.75V57.5V72.5V73.25H12.5H22.5H23.25V72.5V57.5V56.75H22.5H12.5Z" fill="#27449B" stroke="white" stroke-width="1.5"/>
<path d="M25.1253 25.725C25.28 26.2356 25.5939 26.6832 26.0212 27.0026C26.4485 27.322 26.9668 27.4963 27.5003 27.5H52.5003C53.0275 27.4996 53.541 27.3326 53.9676 27.0228C54.3941 26.713 54.7118 26.2762 54.8753 25.775L59.8753 10.775C60.0317 10.3073 60.0464 9.80383 59.9174 9.32785C59.7884 8.85187 59.5215 8.42467 59.1503 8.10001C58.7753 7.77172 58.3107 7.56299 57.8163 7.50062C57.3218 7.43826 56.82 7.5251 56.3753 7.75001L48.2503 11.775L42.0003 3.45001C41.7674 3.13952 41.4654 2.88751 41.1183 2.71394C40.7712 2.54037 40.3884 2.45001 40.0003 2.45001C39.6121 2.45001 39.2294 2.54037 38.8822 2.71394C38.5351 2.88751 38.2331 3.13952 38.0003 3.45001L31.7503 11.775L23.6253 7.70001C23.1805 7.47511 22.6787 7.38826 22.1842 7.45062C21.6898 7.51299 21.2252 7.72172 20.8503 8.05001C20.479 8.37467 20.2122 8.80187 20.0831 9.27785C19.9541 9.75383 19.9688 10.2573 20.1253 10.725L25.1253 25.725Z" fill="#39B715"/>
</svg>
