<svg width="56" height="56" viewBox="0 0 56 56" fill="none" xmlns="http://www.w3.org/2000/svg">
<path d="M51.375 43.75V44H51.625H52.5C52.8978 44 53.2794 44.158 53.5607 44.4393C53.842 44.7206 54 45.1022 54 45.5V52.5C54 52.8978 53.842 53.2794 53.5607 53.5607C53.2794 53.842 52.8978 54 52.5 54H3.5C3.10217 54 2.72064 53.842 2.43934 53.5607C2.15804 53.2794 2 52.8978 2 52.5V45.5C2 45.1022 2.15804 44.7206 2.43934 44.4393C2.72064 44.158 3.10217 44 3.5 44H4.375H4.625V43.75V21C4.625 20.6022 4.78304 20.2206 5.06434 19.9393C5.34564 19.658 5.72718 19.5 6.125 19.5H10.5H10.75V19.25V3.5C10.75 3.10218 10.908 2.72064 11.1893 2.43934C11.4706 2.15804 11.8522 2 12.25 2H43.75C44.1478 2 44.5294 2.15804 44.8107 2.43934C45.092 2.72064 45.25 3.10217 45.25 3.5V19.25V19.5H45.5H49.875C50.2728 19.5 50.6544 19.658 50.9357 19.9393C51.217 20.2206 51.375 20.6022 51.375 21V43.75ZM48.375 22.75V22.5H48.125H45.5H45.25V22.75V43.75V44H45.5H48.125H48.375V43.75V22.75ZM14 5H13.75V5.25V43.75V44H14H42H42.25V43.75V5.25V5H42H14ZM7.875 22.5H7.625V22.75V43.75V44H7.875H10.5H10.75V43.75V22.75V22.5H10.5H7.875ZM50.75 51H51V50.75V47.25V47H50.75H5.25H5V47.25V50.75V51H5.25H50.75Z" fill="#27449B" stroke="white" stroke-width="0.5"/>
<path d="M35.8744 23.625C35.8461 21.8702 35.2299 20.1756 34.1244 18.8125C33.3957 19.7634 32.4578 20.5337 31.3836 21.0639C30.3093 21.5941 29.1274 21.8699 27.9294 21.8699C26.7314 21.8699 25.5495 21.5941 24.4752 21.0639C23.4009 20.5337 22.4631 19.7634 21.7344 18.8125C20.6288 20.1756 20.0126 21.8702 19.9844 23.625C19.9841 24.2115 20.1017 24.7921 20.3303 25.3322C20.5588 25.8724 20.8937 26.361 21.3149 26.7692C21.7361 27.1773 22.235 27.4966 22.7821 27.708C23.3292 27.9195 23.9132 28.0188 24.4994 28H31.4994C32.0739 28 32.6428 27.8868 33.1736 27.667C33.7044 27.4471 34.1867 27.1248 34.593 26.7186C34.9992 26.3123 35.3215 25.83 35.5413 25.2992C35.7612 24.7684 35.8744 24.1995 35.8744 23.625Z" fill="#39B715"/>
<path d="M28 18.375C30.4162 18.375 32.375 16.4162 32.375 14C32.375 11.5838 30.4162 9.625 28 9.625C25.5838 9.625 23.625 11.5838 23.625 14C23.625 16.4162 25.5838 18.375 28 18.375Z" fill="#39B715"/>
<path d="M30.625 32.375H16.625V39.375H30.625V32.375Z" fill="#39B715"/>
<path d="M39.375 32.375H34.125V39.375H39.375V32.375Z" fill="#39B715"/>
</svg>
