<svg width="56" height="56" viewBox="0 0 56 56" fill="none" xmlns="http://www.w3.org/2000/svg">
<path d="M49.2063 47.1108L49.2067 47.1113C49.4861 47.3923 49.6429 47.7725 49.6429 48.1688C49.6429 48.5648 49.4863 48.9447 49.2073 49.2257C48.9263 49.5048 48.5463 49.6614 48.1503 49.6614C47.7541 49.6614 47.3741 49.5047 47.0931 49.2255C47.093 49.2254 47.0929 49.2253 47.0928 49.2252L43.9258 46.0582C43.6432 45.7756 43.4844 45.3922 43.4844 44.9925C43.4844 44.5928 43.6432 44.2094 43.9258 43.9268C44.2085 43.6441 44.5918 43.4854 44.9915 43.4854C45.391 43.4854 45.7742 43.644 46.0568 43.9263C46.0569 43.9265 46.0571 43.9266 46.0573 43.9268L49.2063 47.1108Z" fill="#27449B" stroke="white" stroke-width="0.5"/>
<path d="M52.8867 39.9656L53.2048 40.0558V39.9676C53.4895 40.0621 53.7419 40.2399 53.9275 40.481C54.1726 40.7993 54.2812 41.202 54.2294 41.6003C54.1776 41.9987 53.9697 42.3602 53.6514 42.6053C53.3331 42.8504 52.9304 42.959 52.5321 42.9072L52.5018 42.9032L52.4716 42.9067C52.3451 42.9211 52.2175 42.9217 52.0909 42.9086L47.7869 41.7585L47.7869 41.7585L47.7852 41.7581C47.5872 41.7066 47.4012 41.6166 47.238 41.4933C47.0747 41.3699 46.9374 41.2156 46.8337 41.0392C46.7301 40.8627 46.6622 40.6676 46.634 40.4649C46.6058 40.2623 46.6178 40.056 46.6693 39.858C46.7208 39.6599 46.8108 39.474 46.9341 39.3107C47.0575 39.1475 47.2118 39.0101 47.3882 38.9065C47.5647 38.8029 47.7598 38.735 47.9625 38.7068C48.1643 38.6787 48.3696 38.6904 48.5669 38.7414L52.8867 39.9656Z" fill="#27449B" stroke="white" stroke-width="0.5"/>
<path d="M39.8979 46.7251L39.906 46.7235L39.9141 46.7213C40.1052 46.6692 40.3047 46.6554 40.5011 46.6809C40.6975 46.7063 40.8869 46.7703 41.0585 46.8694C41.23 46.9684 41.3802 47.1004 41.5005 47.2577C41.6205 47.4149 41.7084 47.5942 41.7589 47.7855C41.7589 47.7857 41.759 47.786 41.7591 47.7863L42.8786 52.1596L42.8786 52.1596L42.8796 52.1633C42.9317 52.3544 42.9454 52.5539 42.92 52.7503C42.8946 52.9467 42.8305 53.1362 42.7315 53.3077C42.6325 53.4792 42.5005 53.6295 42.3431 53.7497C42.1905 53.8663 42.017 53.9525 41.832 54.0036C41.7055 54.0167 41.578 54.016 41.4516 54.0017L41.4332 53.9996L41.4148 54.0002C41.0761 54.0118 40.7435 53.9084 40.4711 53.7069C40.1988 53.5053 40.0027 53.2175 39.9148 52.8902L39.9146 52.8896L38.7425 48.5687C38.692 48.3719 38.6819 48.1669 38.7129 47.9661C38.744 47.7648 38.8158 47.572 38.9239 47.3994C39.032 47.2268 39.1741 47.0779 39.3415 46.962C39.509 46.8461 39.6983 46.7655 39.8979 46.7251Z" fill="#27449B" stroke="white" stroke-width="0.5"/>
<path d="M9.94158 12.074L9.94134 12.0738L6.78066 8.89563C6.53871 8.60966 6.41243 8.24339 6.4269 7.86886C6.44148 7.49135 6.59798 7.13324 6.86512 6.8661C7.13226 6.59896 7.49037 6.44246 7.86789 6.42788C8.24242 6.41341 8.60868 6.53968 8.89465 6.78164L12.0728 9.94232L12.073 9.94256C12.2136 10.082 12.3252 10.2479 12.4014 10.4307C12.4775 10.6135 12.5167 10.8095 12.5167 11.0076C12.5167 11.2056 12.4775 11.4016 12.4014 11.5844C12.3252 11.7672 12.2136 11.9331 12.073 12.0726L12.0716 12.074C11.9321 12.2146 11.7662 12.3262 11.5834 12.4023C11.4007 12.4785 11.2046 12.5177 11.0066 12.5177C10.8086 12.5177 10.6125 12.4785 10.4297 12.4023C10.2469 12.3262 10.081 12.2146 9.94158 12.074Z" fill="#27449B" stroke="white" stroke-width="0.5"/>
<path d="M8.21504 14.2423L8.21507 14.2422L3.89257 13.1397L3.88155 13.1369L3.88163 13.1367C3.68762 13.0777 3.48368 13.0586 3.28211 13.0807C3.08053 13.1027 2.88553 13.1654 2.70887 13.265C2.53221 13.3645 2.37757 13.4988 2.2543 13.6598C2.13103 13.8208 2.04167 14.0051 1.99164 14.2016L8.21504 14.2423ZM8.21504 14.2423L8.22217 14.2439M8.21504 14.2423L8.22217 14.2439M8.22217 14.2439C8.42272 14.2889 8.61188 14.3746 8.77793 14.4957C8.94398 14.6168 9.08338 14.7707 9.18746 14.948C9.29154 15.1252 9.35809 15.3219 9.38299 15.5259C9.40788 15.7299 9.39058 15.9369 9.33217 16.1339L9.33209 16.1339L9.33042 16.1401C9.24252 16.4674 9.04641 16.7552 8.77403 16.9568C8.50166 17.1583 8.16906 17.2617 7.83042 17.2501L7.83042 17.25H7.82186H7.4016L3.11252 16.0344L3.11259 16.0342M8.22217 14.2439L3.11259 16.0342M3.11259 16.0342L3.10164 16.0316M3.11259 16.0342L3.10164 16.0316M3.10164 16.0316C2.90768 15.986 2.72477 15.9021 2.56357 15.785C2.40238 15.6679 2.26613 15.5198 2.1628 15.3494C2.05946 15.1791 1.9911 14.9898 1.96172 14.7928C1.93233 14.5957 1.9425 14.3947 1.99163 14.2017L3.10164 16.0316Z" fill="#27449B" stroke="white" stroke-width="0.5"/>
<path d="M16.0317 3.10237L16.0315 3.10242L16.0344 3.113L17.2594 7.453L17.2597 7.4538C17.3157 7.64988 17.3312 7.85534 17.3052 8.0576C17.2791 8.25987 17.2121 8.4547 17.1082 8.63019C17.0043 8.80568 16.8657 8.95815 16.7009 9.07826C16.5398 9.19569 16.3569 9.27979 16.163 9.3257C16.0351 9.33924 15.9061 9.33873 15.7783 9.32419L15.76 9.3221L15.7415 9.32274C15.4028 9.33434 15.0702 9.23094 14.7979 9.02938C14.526 8.82819 14.3301 8.54104 14.242 8.21454L13.14 3.8415L13.14 3.84149L13.1387 3.83684C13.0867 3.64576 13.0729 3.44625 13.0983 3.24983C13.1238 3.05341 13.1878 2.86397 13.2868 2.69244C13.3858 2.52091 13.5179 2.37069 13.6752 2.25044C13.8323 2.13041 14.0116 2.04262 14.2027 1.99211C14.3955 1.9432 14.5961 1.93311 14.7928 1.96245C14.9899 1.99184 15.1792 2.06019 15.3495 2.16353C15.5199 2.26687 15.668 2.40311 15.7851 2.5643C15.9022 2.7255 15.986 2.90842 16.0317 3.10237Z" fill="#27449B" stroke="white" stroke-width="0.5"/>
<path d="M42.2932 32.1561L42.4744 32.3388L44.626 34.5079C44.6261 34.508 44.6262 34.508 44.6262 34.5081C45.4529 35.3329 46.5722 35.7973 47.74 35.7999H47.7401C48.608 35.8021 49.4568 35.5458 50.1785 35.0636C50.9002 34.5815 51.4619 33.8955 51.7922 33.0929C52.1225 32.2903 52.2063 31.4076 52.0329 30.5572C51.8596 29.7068 51.437 28.9272 50.8189 28.3179L50.817 28.316L50.817 28.316L48.647 26.1285L48.4722 25.9523L48.6471 25.7762L53.5646 20.8237L53.5659 20.8224C53.7065 20.6829 53.8181 20.517 53.8942 20.3343C53.9704 20.1515 54.0096 19.9554 54.0096 19.7574C54.0096 19.5594 53.9704 19.3633 53.8942 19.1805C53.8181 18.9977 53.7065 18.8318 53.5659 18.6924L53.5652 18.6917L47.4402 12.5667L47.4395 12.5659C47.3 12.4254 47.1341 12.3138 46.9513 12.2376C46.7685 12.1615 46.5725 12.1222 46.3745 12.1222C46.1764 12.1222 45.9804 12.1615 45.7976 12.2376C45.6153 12.3136 45.4497 12.4248 45.3105 12.5649C45.3102 12.5652 45.3098 12.5656 45.3095 12.5659L43.2642 14.6812L43.2577 14.6879L43.2576 14.6878C43.0625 14.875 42.817 15.0011 42.5512 15.0507C42.2854 15.1002 42.011 15.0711 41.7615 14.9668C41.5121 14.8625 41.2986 14.6875 41.1472 14.4635C40.9958 14.2395 40.9132 13.9762 40.9095 13.7058L40.9094 13.7004L40.9095 13.7004C40.9124 13.3385 41.0584 12.9924 41.3156 12.7377C41.3158 12.7375 41.316 12.7373 41.3162 12.7371L43.3627 10.6906L43.3634 10.6899C43.504 10.5504 43.6156 10.3845 43.6917 10.2018L43.9225 10.2979L43.6917 10.2018C43.7679 10.019 43.8071 9.82291 43.8071 9.62489C43.8071 9.42687 43.7679 9.23082 43.6917 9.04803L43.9225 8.95188L43.6917 9.04803C43.6156 8.86524 43.504 8.69934 43.3634 8.55989L43.3627 8.55917L37.2377 2.43417L37.237 2.43345C37.0975 2.29285 36.9316 2.18126 36.7488 2.10511C36.566 2.02895 36.37 1.98975 36.172 1.98975C35.9739 1.98975 35.7779 2.02895 35.5951 2.10511L35.4992 1.87504L35.5951 2.10511C35.4123 2.18126 35.2464 2.29285 35.107 2.43344L35.1062 2.43417L28.9818 8.55864C28.9817 8.55872 28.9816 8.5588 28.9815 8.55888C28.7023 8.8399 28.5456 9.21997 28.5456 9.61614C28.5456 10.0124 28.7024 10.3926 28.9818 10.6736L28.982 10.6739L31.0277 12.7371C31.028 12.7374 31.0283 12.7377 31.0286 12.738C31.2855 12.9925 31.4314 13.3381 31.4344 13.6997C31.4344 13.6999 31.4344 13.7002 31.4345 13.7004L31.1845 13.7024C31.1865 13.8537 31.1564 14.0037 31.096 14.1425C31.0357 14.2813 30.9465 14.4057 30.8345 14.5074L42.2932 32.1561ZM42.2932 32.1561L42.1158 32.3426L39.057 35.5588C39.0564 35.5595 39.0558 35.5601 39.0552 35.5607C38.9161 35.7004 38.7508 35.8114 38.5688 35.8872C38.386 35.9633 38.19 36.0025 37.992 36.0025C37.7939 36.0025 37.5979 35.9633 37.4151 35.8872C37.2323 35.811 37.0664 35.6994 36.927 35.5588L36.9255 35.5574C36.7849 35.418 36.6733 35.2521 36.5972 35.0693C36.521 34.8865 36.4818 34.6904 36.4818 34.4924C36.4818 34.2944 36.521 34.0983 36.5972 33.9155C36.6733 33.7327 36.7849 33.5668 36.9255 33.4274L36.9277 33.4252L41.232 29.0509C41.232 29.0509 41.2321 29.0508 41.2322 29.0507C41.3716 28.9102 41.5374 28.7987 41.7201 28.7226C41.9029 28.6465 42.0989 28.6072 42.297 28.6072C42.495 28.6072 42.691 28.6465 42.8738 28.7226C43.0566 28.7988 43.2225 28.9104 43.362 29.0509L43.3627 29.0517L46.7548 32.4438C46.8807 32.5777 47.0325 32.6845 47.2009 32.7577C47.3708 32.8316 47.5541 32.8698 47.7393 32.8699L47.7415 32.8699C48.1026 32.867 48.4479 32.7216 48.7024 32.4655C48.8365 32.3362 48.9432 32.1813 49.0162 32.0099C49.0895 31.8374 49.1272 31.6519 49.127 31.4645L49.1269 31.4629C49.1241 31.1009 48.978 30.7548 48.7208 30.5002C48.7206 30.5 48.7204 30.4998 48.7202 30.4996L45.3087 27.0881L45.308 27.0874C45.1674 26.9479 45.0558 26.782 44.9797 26.5993C44.9035 26.4165 44.8643 26.2204 44.8643 26.0224C44.8643 25.8244 44.9035 25.6283 44.9797 25.4455C45.0558 25.2627 45.1674 25.0968 45.308 24.9574L45.3084 24.957L50.2084 20.0745L50.3858 19.8977L50.2087 19.7206L46.5512 16.0631L46.3725 15.8844L46.1958 16.065L45.3932 16.8851C45.3928 16.8855 45.3924 16.8859 45.392 16.8863C44.5669 17.7056 43.4511 18.1655 42.2882 18.1655C41.1251 18.1655 40.0093 17.7055 39.1841 16.886C38.3683 16.0585 37.911 14.9432 37.911 13.7811C37.911 12.6187 38.3686 11.503 39.1849 10.6755L39.185 10.6755L39.1891 10.6711L40.0116 9.79612L40.1804 9.61653L40.0033 9.44519L36.2758 5.84019L36.099 5.66927L35.9252 5.84312L32.2677 9.50062L32.0928 9.6755L32.2658 9.85226L33.0705 10.6745C33.0706 10.6745 33.0706 10.6746 33.0706 10.6746C33.8637 11.4872 34.3062 12.5786 34.3031 13.714C34.3 14.8492 33.8518 15.9378 33.0547 16.7461C32.2325 17.5645 31.1196 18.024 29.9595 18.024C28.7995 18.024 27.6867 17.5646 26.8645 16.7464L26.0606 15.925L25.8834 15.7439L25.7047 15.9236L22.5927 19.053C22.3097 19.2253 21.9774 19.2992 21.6475 19.2628C21.3088 19.2253 20.9929 19.0735 20.7518 18.8325C20.5108 18.5915 20.3591 18.2756 20.3216 17.9368C20.2851 17.6069 20.3591 17.2744 20.5316 16.9913L24.8862 12.6367L24.887 12.6359C25.0264 12.4954 25.1923 12.3838 25.3751 12.3076C25.5579 12.2315 25.7539 12.1922 25.952 12.1922C26.15 12.1922 26.346 12.2315 26.5288 12.3076C26.7116 12.3838 26.8775 12.4954 27.017 12.6359L27.0177 12.6367L29.0652 14.6842L29.0652 14.6842L29.067 14.6859C29.3263 14.9402 29.675 15.0826 30.0382 15.0826C30.3998 15.0826 30.747 14.9414 31.006 14.6893L42.2932 32.1561ZM42.4731 32.6925L44.4495 34.6849C45.3229 35.5564 46.5056 36.0471 47.7395 36.0499C48.657 36.0522 49.5544 35.7812 50.3174 35.2715C51.0803 34.7618 51.6742 34.0365 52.0234 33.188C52.3725 32.3395 52.4611 31.4063 52.2779 30.5072C52.0947 29.6082 51.6479 28.7841 50.9945 28.1399L42.4731 32.6925ZM42.4731 32.6925L42.4781 32.6872L42.297 32.5149M42.4731 32.6925L42.297 32.5149M42.297 32.5149L42.1195 32.691L42.1246 32.6961L42.297 32.5149ZM36.7495 33.2499C36.5854 33.4126 36.4552 33.6061 36.3664 33.8194C36.2776 34.0326 36.2318 34.2614 36.2318 34.4924C36.2318 34.7234 36.2776 34.9521 36.3664 35.1654C36.4552 35.3787 36.5854 35.5722 36.7495 35.7349V33.2499Z" fill="#27449B" stroke="white" stroke-width="0.5"/>
<path d="M30.0469 32.5149L27.8769 34.6849C26.992 35.5269 25.8172 35.9966 24.5957 35.9966C23.3741 35.9966 22.1994 35.5269 21.3144 34.6849C20.4478 33.8128 19.9613 32.6332 19.9613 31.4036C19.9613 30.1741 20.4478 28.9945 21.3144 28.1224L23.4844 25.9524L17.3594 19.8274L13.7019 23.4849L11.5494 21.3149C10.6645 20.4728 9.48972 20.0032 8.26818 20.0032C7.04665 20.0032 5.87186 20.4728 4.98693 21.3149C4.55359 21.7444 4.20962 22.2555 3.97488 22.8187C3.74014 23.3819 3.61929 23.986 3.61929 24.5961C3.61929 25.2063 3.74014 25.8104 3.97488 26.3736C4.20962 26.9368 4.55359 27.4479 4.98693 27.8774L7.15693 30.0474L2.25693 34.9999C1.93099 35.3278 1.74805 35.7713 1.74805 36.2336C1.74805 36.696 1.93099 37.1395 2.25693 37.4674L7.15693 42.3674L4.98693 44.4499C4.12026 45.322 3.63382 46.5016 3.63382 47.7311C3.63382 48.9607 4.12026 50.1403 4.98693 51.0124C5.87186 51.8544 7.04665 52.3241 8.26818 52.3241C9.48972 52.3241 10.6645 51.8544 11.5494 51.0124L13.7019 48.8424L18.6019 53.7424C18.9298 54.0683 19.3734 54.2513 19.8357 54.2513C20.298 54.2513 20.7416 54.0683 21.0694 53.7424L25.9519 48.8424L22.7494 45.4999C22.3161 45.0704 21.9721 44.5593 21.7374 43.9961C21.5026 43.4329 21.3818 42.8288 21.3818 42.2186C21.3818 41.6085 21.5026 41.0044 21.7374 40.4412C21.9721 39.878 22.3161 39.3669 22.7494 38.9374C23.6344 38.0953 24.8091 37.6257 26.0307 37.6257C27.2522 37.6257 28.427 38.0953 29.3119 38.9374L32.5844 42.2274L36.2419 38.5699L30.0469 32.5149Z" fill="#39B715"/>
</svg>
