<svg width="464" height="449" viewBox="0 0 464 449" fill="none" xmlns="http://www.w3.org/2000/svg">
<ellipse cx="224" cy="23.5" rx="224" ry="23.5" transform="matrix(-1 0 0 1 464 387)" fill="#EBEEFA"/>
<path d="M227.765 125.264C227.912 125.556 228.216 125.728 228.506 125.656C233.958 124.365 240.407 127.66 243.717 131.421C243.972 131.712 244.368 131.743 244.601 131.501C244.84 131.256 244.823 130.824 244.572 130.542C241.003 126.482 234.018 122.911 228.106 124.318C227.776 124.4 227.603 124.759 227.705 125.126C227.719 125.172 227.733 125.217 227.754 125.259L227.765 125.264Z" fill="#27449B"/>
<path d="M242.84 255.298L242.662 247.872C242.656 247.617 242.415 247.433 242.167 247.494L239.06 248.257C238.812 248.318 238.684 248.593 238.797 248.822L242.081 255.484C242.271 255.868 242.85 255.726 242.84 255.298Z" fill="#27449B"/>
<path d="M240.658 249.399C238.927 249.79 237.194 249.678 235.856 249.324C235.188 249.147 234.609 248.907 234.175 248.632C233.752 248.363 233.421 248.032 233.335 247.652C233.241 247.234 233.468 246.897 233.8 246.642C234.13 246.39 234.616 246.173 235.191 245.976C236.24 245.616 237.667 245.295 239.182 244.954C239.331 244.92 239.48 244.887 239.631 244.853C241.327 244.47 242.988 244.221 244.265 244.212C244.902 244.208 245.461 244.262 245.886 244.4C246.305 244.536 246.658 244.776 246.751 245.185C246.839 245.577 246.656 245.992 246.364 246.37C246.064 246.758 245.612 247.158 245.057 247.538C243.944 248.3 242.375 249.011 240.658 249.399Z" fill="#39B715" stroke="white" stroke-width="0.5"/>
<path d="M210.619 74.2809L204.623 75.418L237.009 246.193C237.057 246.447 237.23 246.655 237.464 246.739C238.67 247.172 239.543 247.29 240.328 247.128C241.115 246.965 241.851 246.514 242.77 245.73C242.963 245.564 243.052 245.302 243.003 245.043L210.619 74.2809Z" fill="#39B715" stroke="white" stroke-width="0.5"/>
<path d="M207.595 49.1914C208.104 55.0292 211.442 73.5291 213.046 82.0494C213.132 82.7095 212.926 84.0416 211.681 84.6618C210.435 85.282 207.638 85.8579 205.86 85.2696C204.081 84.6813 204.116 83.995 204.108 83.4714C204.026 78.118 204.801 69.9788 201.474 58.3159C197.409 49.4243 197.904 46.3472 198.66 45.9201C201.426 44.5781 207.086 43.3537 207.595 49.1914Z" fill="#27449B" stroke="white" stroke-width="0.5"/>
<path d="M234.385 255.38L235.124 247.989C235.15 247.735 234.933 247.522 234.679 247.552L231.502 247.927C231.248 247.957 231.087 248.214 231.171 248.455L233.609 255.471C233.75 255.876 234.342 255.806 234.385 255.38Z" fill="#27449B"/>
<path d="M232.946 249.257C231.181 249.432 229.474 249.107 228.191 248.591C227.549 248.333 227.004 248.023 226.607 247.696C226.221 247.378 225.933 247.008 225.895 246.621C225.853 246.194 226.12 245.887 226.481 245.676C226.839 245.466 227.349 245.311 227.943 245.186C229.029 244.958 230.484 244.816 232.03 244.664C232.181 244.649 232.334 244.634 232.488 244.619C234.218 244.448 235.897 244.406 237.166 244.554C237.798 244.628 238.346 244.752 238.751 244.941C239.15 245.127 239.471 245.409 239.512 245.826C239.552 246.226 239.318 246.616 238.982 246.955C238.637 247.303 238.139 247.644 237.541 247.953C236.343 248.572 234.698 249.084 232.946 249.257Z" fill="#39B715" stroke="white" stroke-width="0.5"/>
<path d="M224.692 71.7738L218.671 72.1587L229.758 245.627C229.775 245.883 229.919 246.11 230.139 246.222C231.27 246.801 232.112 247.026 232.901 246.962C233.692 246.899 234.469 246.544 235.465 245.879C235.676 245.738 235.795 245.49 235.779 245.229L224.692 71.7738Z" fill="#39B715" stroke="white" stroke-width="0.5"/>
<path d="M224.816 46.5008C224.602 52.3568 225.633 71.127 226.175 79.7801C226.178 80.4457 225.81 81.7423 224.498 82.2043C223.186 82.6662 220.339 82.8929 218.646 82.0898C216.954 81.2867 217.073 80.61 217.129 80.0894C217.708 74.7667 219.481 66.7852 217.616 54.801C214.679 45.4762 215.549 42.4836 216.352 42.1529C219.263 41.1622 225.031 40.6449 224.816 46.5008Z" fill="#27449B" stroke="white" stroke-width="0.5"/>
<path d="M200.605 159.622C214.389 169.758 222.823 170.567 225.254 169.22C227.685 167.873 226.564 164.805 224.763 164.333C226.446 164.688 230.76 161.582 226.006 158.443C228.906 158.166 230.94 152.933 223.357 151.333C226.951 150.527 228.369 145.165 221.942 143.706C215.211 142.183 212.433 135.056 212.433 135.056L200.605 159.622Z" fill="white"/>
<path d="M221.5 187.5L230 163L234 195L221.5 187.5Z" fill="white"/>
<path d="M171.442 220.038C180.932 208.748 199.482 206.388 217.782 207.438V207.368C217.602 202.758 219.052 195.708 221.542 187.418C222.642 188.328 223.612 189.098 224.292 189.598C239.982 201.238 281.452 208.388 297.432 208.928C296.732 213.428 286.702 245.698 281.652 251.248C280.992 253.298 264.972 299.128 269.492 307.438C271.562 311.258 300.922 328.158 322.822 350.098C320.982 359.018 312.152 369.658 301.682 371.348C274.962 358.058 241.602 340.288 234.232 328.008C226.872 315.728 226.142 298.548 225.132 255.788L225.222 255.308C209.982 252.548 206.922 251.258 206.922 251.258C206.922 251.258 197.432 297.438 189.002 320.838C189.002 320.838 169.832 317.598 163.732 313.558C161.612 294.448 153.852 240.958 171.442 220.028V220.038Z" fill="#27449B"/>
<path d="M301.682 372.098C301.682 372.098 301.762 372.098 301.802 372.098C312.822 370.328 321.672 359.378 323.552 350.258C323.602 350.008 323.522 349.758 323.352 349.578C309.652 335.858 293.032 324.088 282.022 316.298C275.772 311.878 270.842 308.378 270.142 307.098C267.592 302.398 272.042 281.948 282.052 252.388C282.162 252.058 282.252 251.808 282.302 251.648C287.632 245.508 297.482 213.408 298.162 209.068C298.192 208.858 298.132 208.638 298.002 208.478C297.862 208.308 297.662 208.218 297.452 208.208C280.792 207.638 240.012 200.358 224.732 189.028C224.082 188.548 223.112 187.778 222.012 186.868C221.812 186.708 221.562 186.658 221.312 186.728C221.072 186.798 220.882 186.988 220.812 187.228C218.272 195.698 217.002 202.228 217.012 206.668C194.572 205.498 179.042 209.838 170.861 219.578C154.301 239.298 159.812 286.488 162.462 309.178C162.652 310.838 162.832 312.338 162.982 313.678C163.002 313.898 163.132 314.098 163.312 314.218C169.472 318.308 188.082 321.478 188.872 321.618C189.232 321.688 189.582 321.478 189.702 321.128C197.432 299.668 206.152 258.628 207.482 252.278C209.142 252.788 213.632 253.988 224.382 255.948C225.382 298.238 226.092 315.908 233.582 328.418C241.192 341.098 275.902 359.388 301.342 372.038C301.442 372.088 301.562 372.118 301.672 372.118L301.682 372.098ZM322.002 350.338C320.052 358.858 311.612 368.848 301.802 370.568C276.542 357.998 242.262 339.928 234.872 327.628C227.572 315.448 226.872 297.888 225.882 255.858L225.952 255.458C225.992 255.258 225.952 255.058 225.832 254.898C225.722 254.738 225.542 254.618 225.352 254.588C210.502 251.898 207.242 250.598 207.202 250.588C207.002 250.498 206.762 250.518 206.562 250.618C206.362 250.718 206.222 250.908 206.182 251.128C206.092 251.588 196.762 296.748 188.502 320.018C185.242 319.438 169.982 316.568 164.432 313.148C164.292 311.898 164.132 310.508 163.952 308.988C161.332 286.518 155.862 239.748 172.012 220.528C179.972 211.058 195.352 206.898 217.732 208.198C217.932 208.218 218.142 208.138 218.292 207.998C218.442 207.858 218.532 207.658 218.532 207.458C218.372 203.268 219.522 197.008 221.942 188.738C222.702 189.348 223.352 189.868 223.852 190.228C239.112 201.548 279.192 208.878 296.532 209.668C295.062 216.198 285.852 245.548 281.102 250.768C281.032 250.848 280.972 250.938 280.942 251.038C280.902 251.168 280.802 251.458 280.652 251.908C274.602 269.768 265.022 300.788 268.842 307.818C269.672 309.338 273.432 312.048 281.172 317.528C292.052 325.238 308.462 336.858 322.012 350.358L322.002 350.338Z" fill="#27449B"/>
<path d="M177.391 350.238C180.891 350.238 182.211 345.528 185.451 333.998C185.991 332.068 186.592 329.938 187.262 327.598C187.372 327.198 187.142 326.788 186.752 326.668C186.352 326.548 185.942 326.788 185.822 327.178C185.152 329.518 184.552 331.648 184.002 333.578C180.922 344.538 179.642 349.068 176.962 348.688C175.462 348.478 172.482 346.808 169.032 344.888C163.952 342.048 157.631 338.518 151.151 336.658C147.771 335.688 143.641 334.768 139.651 333.878C131.581 332.088 121.542 329.848 121.062 327.528C121.032 327.378 121.161 326.748 122.121 325.688C126.491 320.878 141.452 313.568 169.842 316.648C170.242 316.688 170.621 316.398 170.671 315.988C170.711 315.578 170.422 315.208 170.002 315.158C141.012 312.008 125.562 319.658 121.002 324.678C120.232 325.528 119.362 326.758 119.582 327.828C120.212 330.888 127.462 332.708 139.322 335.338C143.292 336.218 147.402 337.138 150.732 338.088C157.042 339.908 163.282 343.388 168.292 346.188C172.022 348.268 174.962 349.908 176.742 350.168C176.962 350.198 177.171 350.218 177.371 350.218L177.391 350.238Z" fill="#27449B"/>
<path d="M333.422 410.968C336.862 410.968 338.692 408.038 342.712 396.578C343.572 394.148 344.162 391.218 344.482 387.878C344.832 384.258 344.873 380.098 344.583 375.528C344.123 368.368 343.002 362.478 342.702 361.748C342.142 360.408 339.783 359.408 332.793 356.448C331.613 355.948 330.302 355.398 328.862 354.778C328.482 354.618 328.042 354.788 327.882 355.178C327.722 355.558 327.893 355.998 328.283 356.158C329.723 356.778 331.032 357.328 332.212 357.828C337.692 360.148 341.003 361.548 341.323 362.318C341.543 362.868 342.643 368.488 343.093 375.618C343.373 380.118 343.342 384.188 342.992 387.738C342.692 390.958 342.123 393.768 341.303 396.088C336.983 408.398 335.493 409.618 333.093 409.468C331.093 409.328 330.612 407.808 329.712 404.388C329.582 403.888 329.443 403.358 329.283 402.808C329.123 402.258 328.893 401.418 328.603 400.368C327.753 397.318 326.463 392.718 325.073 387.938C324.113 384.648 322.682 379.848 321.472 376.278C320.982 374.808 320.552 373.608 320.182 372.698C320.022 372.318 319.592 372.128 319.202 372.288C318.822 372.448 318.633 372.878 318.793 373.268C319.143 374.148 319.573 375.318 320.053 376.758C321.263 380.308 322.672 385.078 323.632 388.358C325.022 393.128 326.302 397.728 327.152 400.768C327.442 401.818 327.683 402.658 327.833 403.208C327.983 403.748 328.122 404.268 328.252 404.768C329.132 408.108 329.822 410.738 332.982 410.958C333.132 410.958 333.282 410.968 333.422 410.968Z" fill="#27449B"/>
<path d="M222.221 167.262C222.612 167.344 223.011 167.102 223.103 166.712C223.207 166.315 222.957 165.905 222.56 165.8C212.384 163.264 202.265 157.94 197.227 136.293C192.709 116.881 203.048 104.019 209.591 101.445C209.981 101.292 210.164 100.86 210.011 100.47C209.856 100.09 209.427 99.8975 209.037 100.05C202.071 102.791 191.036 116.334 195.765 136.638C200.987 159.06 211.558 164.613 222.191 167.256L222.221 167.262Z" fill="#27449B"/>
<path d="M196.633 138.385C196.975 138.457 197.328 138.286 197.471 137.949C200.211 131.649 207.409 127.761 212.802 127.295C213.218 127.26 213.52 126.895 213.483 126.488C213.448 126.072 213.082 125.77 212.676 125.807C206.858 126.306 199.06 130.517 196.095 137.351C195.932 137.736 196.105 138.171 196.478 138.342C196.525 138.362 196.572 138.382 196.621 138.393L196.633 138.385Z" fill="#27449B"/>
<path d="M222.453 148.536C222.855 148.621 223.244 148.376 223.338 147.977C223.423 147.576 223.182 147.167 222.783 147.073C216.407 145.563 214.048 143.083 212.131 139.285C211.943 138.918 211.493 138.772 211.129 138.951C210.762 139.139 210.616 139.589 210.795 139.953C212.856 144.037 215.524 146.889 222.436 148.522L222.455 148.526L222.453 148.536Z" fill="#27449B"/>
<path d="M223.856 156.702C224.257 156.787 224.646 156.542 224.74 156.143C224.825 155.742 224.584 155.333 224.185 155.239C216.193 153.348 213.252 150.192 210.857 145.363C210.669 144.997 210.221 144.841 209.855 145.029C209.478 145.215 209.332 145.665 209.52 146.032C212.043 151.123 215.328 154.688 223.846 156.7L223.865 156.704L223.856 156.702Z" fill="#27449B"/>
<path d="M219.72 161.388C221.364 161.735 223.243 161.938 225.412 161.977C225.829 161.983 226.164 161.655 226.18 161.239C226.187 160.822 225.849 160.485 225.443 160.471C217.227 160.321 213.682 157.845 210.328 153.642C210.068 153.321 209.6 153.263 209.27 153.521C208.95 153.78 208.892 154.248 209.149 154.578C211.816 157.921 214.723 160.323 219.722 161.379L219.72 161.388Z" fill="#27449B"/>
<path d="M364.791 18.5177C365.001 18.5177 365.221 18.4277 365.371 18.2477C365.441 18.1577 372.721 9.49772 383.091 1.33772C383.421 1.07772 383.471 0.607731 383.221 0.287731C382.961 -0.0422692 382.491 -0.0922741 382.171 0.157726C371.671 8.41773 364.301 17.1977 364.221 17.2777C363.951 17.5977 364.001 18.0677 364.311 18.3377C364.451 18.4577 364.621 18.5077 364.791 18.5077V18.5177Z" fill="#27449B"/>
<path d="M381.601 13.8877C381.741 13.8877 381.881 13.8477 382.001 13.7677C382.091 13.7177 390.711 8.28769 398.801 4.90769C399.181 4.74769 399.361 4.30765 399.201 3.92765C399.041 3.54765 398.601 3.36769 398.221 3.52769C390.011 6.95769 381.291 12.4477 381.201 12.5077C380.851 12.7277 380.741 13.1877 380.971 13.5377C381.111 13.7677 381.361 13.8877 381.601 13.8877Z" fill="#27449B"/>
<path d="M386.972 18.1877C387.072 18.1877 387.162 18.1677 387.252 18.1277C387.302 18.1077 392.712 15.9177 402.352 14.5977C402.762 14.5377 403.052 14.1677 402.992 13.7477C402.932 13.3377 402.552 13.0477 402.142 13.1077C392.292 14.4577 386.902 16.6477 386.672 16.7377C386.292 16.8977 386.102 17.3377 386.262 17.7177C386.382 18.0077 386.662 18.1777 386.952 18.1777L386.972 18.1877Z" fill="#27449B"/>
<path d="M388.672 20.9878C388.802 20.9878 388.932 20.9577 389.062 20.8777C389.422 20.6677 389.532 20.2077 389.322 19.8477C387.372 16.5977 381.512 10.9477 377.972 10.1377C377.562 10.0477 377.162 10.2977 377.072 10.6977C376.982 11.0977 377.232 11.5077 377.632 11.5977C380.502 12.2577 386.112 17.4077 388.032 20.6177C388.172 20.8477 388.422 20.9777 388.672 20.9777V20.9878Z" fill="#27449B"/>
<path d="M217.783 208.118C217.783 208.118 217.803 208.118 217.813 208.118C218.223 208.098 218.553 207.758 218.533 207.338C218.373 203.068 219.623 196.438 222.263 187.628C222.763 185.948 223.313 184.218 223.883 182.438C227.903 170.168 234.213 154.478 241.193 139.408C243.153 135.188 245.223 130.888 247.363 126.628C247.553 126.258 247.403 125.808 247.033 125.618C246.663 125.428 246.213 125.578 246.023 125.948C243.873 130.218 241.793 134.538 239.823 138.768C232.713 154.118 226.543 169.458 222.443 181.968C221.903 183.648 221.333 185.438 220.813 187.198C218.133 196.158 216.853 202.958 217.023 207.388C217.033 207.788 217.373 208.108 217.773 208.108L217.783 208.118Z" fill="#27449B"/>
<path d="M283.462 129.868C283.642 129.868 283.822 129.798 283.962 129.678C284.212 129.458 309.192 107.068 319.042 91.3677C336.042 64.2477 358.922 31.6477 359.152 31.3177C359.282 31.1377 359.322 30.8977 359.262 30.6877C358.492 27.9677 358.632 25.4677 358.792 22.5777C358.972 19.2077 359.182 15.3777 358.162 9.96772C358.082 9.55772 357.692 9.29768 357.282 9.36768C356.872 9.44768 356.612 9.83769 356.682 10.2477C357.672 15.4877 357.472 19.2077 357.292 22.4977C357.132 25.4077 356.992 27.9277 357.722 30.7477C355.412 34.0477 333.942 64.7777 317.772 90.5777C308.872 104.768 287.362 124.568 283.542 128.038L276.942 119.948C276.682 119.628 276.202 119.578 275.892 119.838C275.572 120.098 275.522 120.568 275.782 120.898L282.872 129.598C283.002 129.758 283.192 129.858 283.392 129.868C283.412 129.868 283.432 129.868 283.452 129.868H283.462Z" fill="#27449B"/>
<path d="M276.253 106.678C276.661 106.643 276.971 106.275 276.937 105.867C276.902 105.458 276.534 105.148 276.126 105.183C270.765 105.638 269.973 105.525 268.702 105.211C268.548 105.174 268.197 105.063 267.661 104.898C253.606 100.581 239.497 97.9951 225.731 97.2065C225.327 97.1805 224.963 97.5024 224.938 97.916C224.913 98.3296 225.234 98.6838 225.647 98.7089C239.291 99.4778 253.279 102.044 267.221 106.33C267.808 106.511 268.18 106.63 268.343 106.666C269.88 107.038 270.902 107.132 276.253 106.678Z" fill="#27449B"/>
<path d="M276.372 121.168C276.722 121.168 277.032 120.918 277.102 120.568C277.182 120.158 276.922 119.768 276.512 119.688L268.482 118.078C270.512 115.788 275.792 110.118 279.512 108.728C279.752 108.638 279.922 108.438 279.982 108.188C280.002 108.088 280.552 105.628 280.842 103.538C280.902 103.128 280.612 102.748 280.202 102.688C279.802 102.638 279.412 102.918 279.352 103.328C279.132 104.888 278.762 106.698 278.602 107.478C273.592 109.638 266.792 117.728 266.492 118.088C266.322 118.288 266.272 118.568 266.362 118.818C266.452 119.068 266.662 119.248 266.922 119.308L276.222 121.168C276.222 121.168 276.322 121.178 276.372 121.178V121.168Z" fill="#27449B"/>
<path d="M269.553 133.688C268.043 149.558 275.933 157.438 278.423 159.298C280.913 161.158 286.723 169.228 286.723 169.228L304.213 172.948C302.793 169.308 302.353 155.308 302.353 155.308C297.303 147.608 290.913 146.448 284.533 143.168C278.163 139.888 276.923 132.588 276.923 132.588C276.923 132.588 279.243 128.948 281.043 126.138L276.373 120.418L270.243 119.188C265.813 125.598 269.553 133.688 269.553 133.688Z" fill="#39B715"/>
<path d="M276.373 121.168C276.453 121.168 276.543 121.158 276.623 121.128C279.353 120.178 289.693 116.998 298.783 115.158C299.103 115.088 299.353 114.818 299.383 114.488C299.383 114.398 300.233 105.688 306.153 94.7178C306.353 94.3578 306.213 93.8977 305.853 93.6977C305.483 93.4977 305.033 93.6378 304.833 93.9978C299.553 103.798 298.233 111.658 297.953 113.788C289.773 115.478 280.743 118.188 277.093 119.378C277.053 117.308 277.113 112.458 278.303 109.068C278.443 108.678 278.233 108.248 277.843 108.108C277.453 107.968 277.023 108.178 276.883 108.568C275.233 113.238 275.603 120.158 275.613 120.448C275.623 120.678 275.753 120.898 275.943 121.028C276.063 121.108 276.213 121.158 276.363 121.158L276.373 121.168Z" fill="#27449B"/>
<path d="M198.923 249.728C199.253 249.728 199.563 249.498 199.653 249.158C199.753 248.758 199.513 248.348 199.113 248.248C192.343 246.548 188.793 245.168 188.753 245.158C188.363 245.008 187.933 245.198 187.783 245.588C187.633 245.978 187.823 246.408 188.213 246.558C188.363 246.618 191.873 247.978 198.753 249.708C198.813 249.728 198.873 249.728 198.933 249.728H198.923Z" fill="white"/>
<path d="M365.592 57.7077C365.832 57.7077 366.061 57.5977 366.201 57.3877C366.441 57.0477 366.362 56.5777 366.022 56.3477C358.292 50.8877 352.262 47.4777 348.572 45.5877C348.202 45.3977 347.752 45.5477 347.562 45.9177C347.372 46.2877 347.521 46.7377 347.891 46.9277C351.541 48.7977 357.501 52.1677 365.161 57.5777C365.291 57.6677 365.442 57.7177 365.592 57.7177V57.7077Z" fill="#27449B"/>
<path d="M307.033 94.8878C308.313 94.8878 309.573 94.5777 310.713 93.9577C313.273 92.5577 314.643 89.9478 314.373 86.9678C314.253 85.6378 313.853 84.5677 313.173 83.7777C311.893 82.2477 309.703 81.7978 306.833 82.4878C305.873 82.7078 305.213 82.9878 305.183 83.0078C304.803 83.1678 304.623 83.6078 304.793 83.9878C304.953 84.3678 305.393 84.5478 305.773 84.3878C305.773 84.3878 306.353 84.1377 307.173 83.9477C308.763 83.5677 310.893 83.3978 312.023 84.7478C312.493 85.2978 312.783 86.0878 312.873 87.1078C313.083 89.4778 312.003 91.5477 309.983 92.6477C307.683 93.9077 304.813 93.5578 302.483 91.7578C302.153 91.4978 301.683 91.5678 301.433 91.8878C301.183 92.2178 301.233 92.6877 301.563 92.9377C303.233 94.2377 305.143 94.8977 307.013 94.8977L307.033 94.8878Z" fill="#27449B"/>
<path d="M281.744 52.0077C289.084 56.5277 309.264 63.4677 309.264 63.4677C301.764 72.8377 307.014 83.1977 307.014 83.1977C308.644 82.8077 311.193 82.5577 312.613 84.2477C326.943 71.1977 324.454 64.8277 322.184 61.8477C320.214 59.2677 317.373 56.8477 315.403 51.0377C311.613 39.8977 303.943 39.8077 304.113 43.7677C293.173 32.6277 285.944 36.2677 287.324 40.7877C276.274 34.7377 273.764 47.0877 281.764 52.0077H281.744Z" fill="#27449B"/>
<path d="M312.613 85.0078C312.803 85.0078 312.983 84.9377 313.113 84.8077C323.883 74.9977 327.133 67.1277 322.773 61.3977C322.343 60.8377 321.883 60.2877 321.393 59.7177C319.623 57.6277 317.613 55.2477 316.103 50.8077C313.283 42.5177 308.383 40.2377 305.803 40.7177C304.803 40.9077 304.043 41.4777 303.653 42.2777C296.543 35.4677 290.983 34.8077 288.313 36.3877C287.133 37.0877 286.463 38.2177 286.393 39.4977C281.533 37.3077 278.443 38.7677 277.143 41.0077C275.273 44.2277 276.513 49.6677 281.353 52.6477C287.833 56.6477 303.873 62.3777 308.043 63.8377C301.273 73.2477 306.293 83.4277 306.343 83.5377C306.503 83.8477 306.843 84.0177 307.183 83.9277C308.773 83.5477 310.903 83.3877 312.033 84.7277C312.163 84.8877 312.353 84.9777 312.553 84.9977C312.573 84.9977 312.583 84.9977 312.603 84.9977L312.613 85.0078ZM306.543 42.1577C308.663 42.1577 312.373 44.4877 314.683 51.2977C316.283 56.0077 318.483 58.6077 320.253 60.6977C320.723 61.2577 321.173 61.7877 321.583 62.3177C325.323 67.2277 322.313 74.2677 312.633 83.2277C311.423 82.2377 309.653 81.9377 307.453 82.3477C306.533 80.1777 303.603 71.7577 309.853 63.9477C310.003 63.7577 310.053 63.5077 309.993 63.2677C309.923 63.0377 309.743 62.8477 309.513 62.7677C309.313 62.6977 289.323 55.8077 282.143 51.3777C278.113 48.8977 276.963 44.3277 278.443 41.7677C279.813 39.4077 282.993 39.2877 286.953 41.4577C287.223 41.6077 287.553 41.5777 287.783 41.3777C288.023 41.1877 288.113 40.8677 288.033 40.5777C287.663 39.3777 288.063 38.2877 289.083 37.6877C291.593 36.1977 297.053 37.6677 303.573 44.3077C303.793 44.5277 304.123 44.5977 304.403 44.4677C304.683 44.3477 304.863 44.0577 304.853 43.7477C304.813 42.8977 305.253 42.3477 306.083 42.1977C306.223 42.1677 306.383 42.1577 306.543 42.1577Z" fill="#27449B"/>
<path d="M300.993 71.8177C301.073 71.8177 301.143 71.8076 301.223 71.7776C301.613 71.6476 301.833 71.2277 301.703 70.8377C300.773 67.9577 299.083 66.7277 297.823 66.1977C295.883 65.3877 293.953 65.7477 293.373 66.0377C293.003 66.2277 292.853 66.6777 293.033 67.0477C293.213 67.4177 293.663 67.5678 294.043 67.3878C294.213 67.3078 295.753 66.9277 297.323 67.6177C298.693 68.2177 299.683 69.4577 300.273 71.2977C300.373 71.6177 300.673 71.8177 300.983 71.8177H300.993Z" fill="#27449B"/>
<path d="M278.543 72.2877C278.063 73.4877 278.373 74.7477 279.233 75.0877C280.093 75.4277 281.173 74.7277 281.653 73.5277C282.133 72.3277 281.823 71.0677 280.963 70.7277C280.103 70.3877 279.023 71.0877 278.543 72.2877Z" fill="#27449B"/>
<path d="M289.192 75.6878C288.612 77.1578 288.992 78.6978 290.042 79.1178C291.092 79.5378 292.422 78.6778 293.002 77.1978C293.582 75.7278 293.202 74.1879 292.152 73.7679C291.102 73.3479 289.772 74.2078 289.192 75.6878Z" fill="#27449B"/>
<path d="M288.533 65.2778C288.673 65.2778 288.813 65.2378 288.933 65.1578C289.283 64.9378 289.383 64.4678 289.163 64.1178C288.393 62.9178 287.103 62.1278 285.613 61.9678C284.203 61.8078 282.813 62.2478 281.903 63.1378C281.603 63.4278 281.603 63.8978 281.893 64.1978C282.183 64.4978 282.653 64.4978 282.953 64.2078C283.553 63.6278 284.483 63.3478 285.453 63.4578C286.493 63.5778 287.383 64.1178 287.913 64.9278C288.053 65.1478 288.293 65.2678 288.543 65.2678L288.533 65.2778Z" fill="#27449B"/>
<path d="M284.912 83.6677C285.272 83.6677 285.592 83.4077 285.652 83.0377C285.722 82.6277 285.442 82.2477 285.032 82.1777C281.272 81.5777 280.842 80.9077 280.832 80.8977C280.842 80.0977 281.842 76.9277 286.482 72.8977C286.792 72.6277 286.832 72.1477 286.562 71.8377C286.292 71.5277 285.812 71.4878 285.502 71.7678C280.632 75.9978 279.342 79.5477 279.352 80.9777C279.352 82.2477 280.982 83.0477 284.792 83.6577C284.832 83.6577 284.872 83.6577 284.912 83.6577V83.6677Z" fill="#27449B"/>
<path d="M283.441 98.1978C283.441 98.1978 283.522 98.1978 283.562 98.1978C286.702 97.6978 288.911 96.4777 290.111 94.5577C291.711 92.0077 290.901 89.2178 290.861 89.1078C290.791 88.8778 290.611 88.6878 290.381 88.6178C290.151 88.5378 289.901 88.5778 289.701 88.7178C286.851 90.7778 282.981 90.9077 279.611 89.0377C279.251 88.8377 278.792 88.9678 278.592 89.3278C278.392 89.6878 278.521 90.1478 278.881 90.3478C282.391 92.2878 286.382 92.3478 289.572 90.5678C289.622 91.4078 289.532 92.6477 288.822 93.7777C287.852 95.3077 286.002 96.2878 283.312 96.7178C282.902 96.7778 282.621 97.1678 282.691 97.5778C282.751 97.9478 283.071 98.2078 283.431 98.2078L283.441 98.1978Z" fill="#27449B"/>
<path d="M280.842 94.4878C281.232 94.4878 281.562 94.1878 281.592 93.7878L281.832 90.5478C281.862 90.1378 281.552 89.7779 281.142 89.7479C280.732 89.7179 280.372 90.0278 280.342 90.4378L280.102 93.6778C280.072 94.0878 280.382 94.4478 280.792 94.4778C280.812 94.4778 280.832 94.4778 280.852 94.4778L280.842 94.4878Z" fill="#27449B"/>
<path d="M285.162 104.988C287.452 104.988 289.722 104.618 291.902 104.168C292.312 104.088 292.572 103.688 292.482 103.278C292.402 102.868 292.012 102.608 291.592 102.698C284.632 104.128 277.342 104.698 271.522 94.7678C269.872 91.9578 272.692 66.6777 287.402 55.3177C287.732 55.0677 287.792 54.5977 287.542 54.2677C287.292 53.9377 286.822 53.8777 286.492 54.1277C271.462 65.7277 268.022 91.7478 270.232 95.5178C274.632 103.018 279.932 104.978 285.162 104.978V104.988Z" fill="#27449B"/>
<path d="M297.182 211.288C297.542 211.288 297.862 211.038 297.912 210.668C297.992 210.118 298.072 209.598 298.162 209.068C302.422 184.218 327.482 136.778 338.062 117.538C346.462 102.238 355.092 84.1577 357.882 76.8677C360.662 69.5777 375.032 37.5877 376.042 35.3477C377.012 34.3677 385.972 25.5777 399.202 20.9477C399.592 20.8077 399.802 20.3877 399.662 19.9877C399.522 19.5977 399.102 19.3877 398.702 19.5277C384.402 24.5277 374.962 34.2977 374.862 34.3877C374.802 34.4477 374.752 34.5177 374.722 34.5977C374.572 34.9377 359.352 68.7677 356.472 76.3277C353.702 83.5677 345.112 101.568 336.742 116.808C326.132 136.118 300.982 183.728 296.682 208.798C296.582 209.338 296.512 209.878 296.432 210.398C296.372 210.808 296.652 211.208 297.062 211.268C297.102 211.268 297.142 211.268 297.182 211.268V211.288Z" fill="#27449B"/>
<path d="M265.662 216.918C265.982 216.918 266.282 216.708 266.382 216.378C266.502 215.978 266.272 215.568 265.872 215.448L265.262 215.268C257.572 212.988 234.172 206.068 213.832 204.908C213.432 204.878 213.062 205.198 213.042 205.618C213.022 206.028 213.332 206.388 213.752 206.408C233.922 207.558 257.192 214.448 264.842 216.708L265.452 216.888C265.522 216.908 265.592 216.918 265.662 216.918Z" fill="white"/>
<path d="M258.563 260.268C264.643 260.268 269.423 259.478 273.423 257.888C273.803 257.738 273.993 257.298 273.843 256.918C273.693 256.528 273.253 256.348 272.873 256.498C265.633 259.378 255.113 259.488 238.773 256.858C233.483 256.008 229.093 255.258 225.353 254.578C210.503 251.888 207.233 250.588 207.203 250.578C206.823 250.418 206.383 250.608 206.223 250.988C206.063 251.368 206.243 251.808 206.623 251.968C206.753 252.018 209.933 253.318 225.083 256.058C228.833 256.738 233.233 257.488 238.533 258.348C246.523 259.628 253.073 260.278 258.563 260.278V260.268Z" fill="white"/>
</svg>
