<svg width="1600" height="619" viewBox="0 0 1600 619" fill="none" xmlns="http://www.w3.org/2000/svg">
<path fill-rule="evenodd" clip-rule="evenodd" d="M1599 619C1599.55 619 1600 618.552 1600 618L1600 1.00012C1600 0.447815 1599.55 0.000122031 1599 0.000121983L1107.23 7.89909e-05C996.904 6.9346e-05 910.987 96.3311 849.835 188.157C780.117 292.844 654.144 362.75 510.32 362.75C333.457 362.75 183.589 257.038 132.13 110.928C111.375 51.9971 62.4793 -1.2344e-05 5.41147e-05 -1.78061e-05C-0.552192 -1.78544e-05 -0.999946 0.447736 -0.999946 0.999982L-1 618C-1 618.552 -0.552246 619 0 619L1599 619Z" fill="#192B62"/>
</svg>
