<svg width="563" height="359" viewBox="0 0 563 359" fill="none" xmlns="http://www.w3.org/2000/svg">
<path d="M284.076 138.278C287.65 149.467 293.003 170.381 293.681 174.332C295.31 174.301 296.697 174.09 296.697 173.502C296.803 172.04 294.631 138.218 294.194 136.604C293.832 135.262 290.53 136.137 284.076 138.278Z" fill="#39B715"/>
<path d="M294.36 135.157C292.958 134.388 290.349 135.036 283.73 137.222C283.142 137.419 282.825 138.052 283.006 138.64C286.73 150.115 291.932 170.848 292.566 174.527C292.656 175.07 293.139 175.462 293.682 175.462V175.493C294.994 175.463 297.678 175.417 297.813 173.623C297.919 172.296 295.793 138.233 295.295 136.333C295.159 135.82 294.828 135.398 294.36 135.157ZM294.556 173.155C293.471 167.546 288.841 149.557 285.509 139.002C288.118 138.143 292.053 136.906 293.094 137.087C293.561 140.299 295.386 169.084 295.506 173.02C295.19 173.095 294.873 173.14 294.556 173.155Z" fill="#39B715"/>
<path d="M85.791 184.826L86.545 185.354L86.0624 184.389C85.972 184.54 85.8966 184.676 85.791 184.826Z" fill="#27449B"/>
<path d="M193.256 265H193.09C181.781 252.726 170.698 223.639 165.42 209.314C160.143 194.989 152.92 186.591 146.678 181.735C140.857 177.227 128.583 178.162 114.137 182.685C114.891 184.238 115.359 185.927 115.495 187.646C116.203 196.98 109.463 208.5 107.955 208.968C106.749 209.344 101.833 206.163 96.3897 200.961C95.3191 207.444 92.9065 215.738 87.4781 216.492C78.4308 217.743 73.9072 201.654 73.9072 201.654C73.9072 201.654 61.1053 206.872 54.6365 204.58C49.6605 202.831 55.5262 189.727 63.8798 181.057C45.6797 178.765 38.2156 183.62 31.1889 191.808C23.1821 201.202 9.21912 239.939 5.55497 255.29C1.89082 270.64 -2.28597 299.998 6.06769 309.468C14.4213 318.937 40.5228 307.145 44.0663 304.944C44.6845 304.567 45.1972 304.054 45.5742 303.436L45.9963 303.602C47.5494 305.05 50.4144 311.503 53.3397 318.907C54.3349 319.299 95.6659 334.875 117.289 332.131C139.183 329.357 147.733 318.907 147.733 318.907C147.281 312.981 148.623 300.074 149.98 286.503C159.057 298.551 168.557 309.181 181.359 312.875C184.842 313.886 188.461 314.353 192.095 314.263C185.128 302.366 188.355 280.019 191.748 269.765C192.095 268.74 192.608 267.096 193.256 265Z" fill="#27449B"/>
<path d="M166.431 208.938C161.892 196.633 155.468 187.179 147.311 180.846C141.129 176.066 128.1 176.699 110.594 182.625C110.564 182.625 110.534 182.64 110.519 182.655C109.931 182.882 109.644 183.53 109.87 184.118C110.096 184.706 110.745 184.992 111.333 184.766C127.844 179.172 140.465 178.403 145.939 182.64C153.765 188.777 159.932 197.885 164.32 209.782C168.24 220.413 180.168 252.772 192.231 265.845C192.442 266.071 192.743 266.207 193.06 266.207V266.147C193.346 266.147 193.618 266.041 193.829 265.845C194.281 265.423 194.311 264.699 193.889 264.247C182.143 251.505 170.336 219.493 166.446 208.938H166.431Z" fill="#27449B"/>
<path d="M485.317 255.252C459.91 256.76 433.19 251.678 419.513 248.512C419.483 248.512 419.468 248.512 419.438 248.497C418.82 248.376 418.232 248.783 418.111 249.387C417.99 249.99 418.398 250.593 419.001 250.713C431.049 253.503 453.109 257.785 475.727 257.785C478.969 257.785 482.211 257.695 485.453 257.514C486.071 257.484 486.554 256.941 486.509 256.308C486.478 255.689 485.936 255.207 485.317 255.252Z" fill="#39B715"/>
<path d="M486.433 64.7014C467.389 74.4876 450.109 72.1352 442.102 65.8172C437.91 62.4697 436.221 58.0969 437.367 53.4225C437.518 52.8193 437.141 52.2011 436.538 52.0503C435.935 51.8995 435.316 52.2765 435.166 52.8797C433.793 58.4588 435.769 63.6761 440.7 67.5815C445.193 71.1401 452.37 73.5376 461.056 73.5376C470.284 73.3868 479.331 71.0495 487.474 66.7068C487.504 66.7068 487.534 66.6766 487.564 66.6615C488.107 66.3449 488.288 65.6514 487.972 65.1086C487.655 64.5657 486.961 64.3848 486.418 64.7014H486.433Z" fill="#27449B"/>
<path d="M449.356 56.3026C446.838 56.3026 442.751 52.8195 441.59 46.2753C441.485 45.6571 440.896 45.25 440.278 45.3555C439.66 45.4611 439.253 46.0491 439.358 46.6674C440.67 54.0409 445.465 58.5644 449.341 58.5644H449.356C449.974 58.5644 450.487 58.0517 450.487 57.4335C450.487 56.8152 449.974 56.3026 449.356 56.3026Z" fill="#27449B"/>
<path d="M467.96 43.9832C462.396 46.2903 451.856 48.1299 447.74 40.5905C447.438 40.0476 446.744 39.8365 446.202 40.138C445.659 40.4396 445.448 41.1333 445.749 41.6761C450.635 50.6028 462.562 48.6727 468.835 46.0792C471.429 45.0086 484.713 40.2437 491.996 50.7989C492.207 51.1155 492.554 51.2964 492.931 51.2964C493.157 51.2813 493.368 51.2059 493.564 51.0853C494.077 50.7384 494.213 50.0297 493.866 49.517C487.457 40.1983 476.284 40.5452 467.976 43.9832H467.96Z" fill="#27449B"/>
<path d="M496.278 55.8654C495.675 55.7598 495.087 56.1518 494.951 56.755C494.831 57.3732 495.223 57.9613 495.841 58.0819C499.792 58.866 502.144 63.45 502.144 70.341C502.144 70.9592 502.657 71.4719 503.275 71.4719C503.893 71.4719 504.391 70.9592 504.391 70.341C504.391 62.2889 501.36 56.8756 496.278 55.8654Z" fill="#27449B"/>
<path d="M491.197 59.4843C490.699 59.8613 490.594 60.5699 490.971 61.0675C493.006 63.7214 494.363 66.8276 494.936 70.1148C494.997 70.6878 495.479 71.1251 496.052 71.1251L496.188 71.1553C496.806 71.0799 497.259 70.5219 497.183 69.9036C496.595 66.1792 495.072 62.6809 492.78 59.6953C492.403 59.1977 491.695 59.0923 491.197 59.4692V59.4843Z" fill="#27449B"/>
<path d="M497.183 76.478C496.58 76.6439 496.233 77.2622 496.399 77.8653C497.831 82.2834 498.208 86.9879 497.469 91.587C497.334 92.1901 497.726 92.7933 498.329 92.929H498.57C499.098 92.929 499.565 92.5823 499.686 92.0696C500.53 87.0936 500.138 81.9819 498.555 77.1868C498.359 76.6289 497.756 76.3121 497.183 76.478Z" fill="#27449B"/>
<path d="M503.263 78.3477C502.645 78.3477 502.132 78.8604 502.132 79.4786C502.252 83.3086 501.559 87.1236 500.066 90.6671C499.991 90.833 499.945 90.9988 499.945 91.1798C499.945 91.798 500.458 92.3107 501.076 92.3107C501.498 92.3107 501.875 92.0696 502.071 91.7077C503.745 87.8475 504.529 83.6705 504.394 79.4786C504.394 78.8604 503.881 78.3477 503.263 78.3477Z" fill="#27449B"/>
<path d="M491.348 67.0838C491.378 66.4656 490.896 65.9229 490.277 65.8927C489.659 65.8777 489.131 66.3451 489.086 66.9633C488.453 77.2621 493.067 89.1291 496.626 93.1099C496.837 93.3511 497.153 93.4868 497.47 93.4868H497.53C497.802 93.4868 498.073 93.3814 498.284 93.2004C498.752 92.7782 498.797 92.0694 498.375 91.602C495.615 88.5108 490.775 77.3827 491.348 67.0838Z" fill="#27449B"/>
<path d="M506.759 56.7397C503.683 53.8446 499.581 52.3217 495.359 52.5027C494.741 52.5328 494.258 53.0756 494.288 53.6938C494.334 54.312 494.862 54.7947 495.48 54.7645C499.099 54.6137 502.612 55.9255 505.236 58.4135C509.292 62.0927 511.689 68.0639 511.976 75.2414C512.458 88.7822 506.201 91.1948 505.944 91.2853C505.492 91.4361 505.175 91.8733 505.175 92.3559C505.175 92.9741 505.673 93.4868 506.306 93.4868C506.457 93.4868 506.608 93.4867 506.759 93.4264C507.136 93.3208 514.916 90.5313 514.298 75.1509C513.921 67.2948 511.282 60.8261 506.759 56.7397Z" fill="#27449B"/>
<path d="M482.903 120.161C482.361 119.844 481.667 120.025 481.35 120.568C478.727 125.303 474.414 128.892 469.287 130.611C465.306 131.772 461.024 131.229 457.466 129.103C446.518 122.951 446.744 91.5265 451.117 71.2154C451.253 70.5972 450.861 69.9942 450.243 69.8585C449.625 69.7227 449.021 70.1147 448.886 70.733C444.528 90.9084 443.895 124.051 456.335 131.048C459.004 132.601 462.019 133.446 465.11 133.476C466.724 133.476 468.322 133.235 469.875 132.782C475.605 130.912 480.415 126.916 483.326 121.639C483.582 121.111 483.386 120.463 482.888 120.161H482.903Z" fill="#27449B"/>
<path d="M487.867 131.968C481.323 134.818 473.934 135.074 467.194 132.692C467.148 132.677 467.088 132.661 467.043 132.646C466.44 132.511 465.822 132.888 465.686 133.491C465.55 134.094 465.927 134.712 466.53 134.848C473.753 137.366 481.654 137.079 488.681 134.064C494.743 131.696 504.303 131.395 505.931 132.104C506.383 137.155 506.519 142.221 506.308 147.288C506.308 147.906 506.806 148.419 507.424 148.434C508.042 148.434 508.54 147.951 508.555 147.333C508.661 141.829 508.706 132.39 507.861 130.882C506.429 128.364 493.582 129.736 487.867 131.968Z" fill="#27449B"/>
<path d="M505.582 90.6672C501.662 89.5966 497.485 90.652 494.53 93.4265C494.273 93.8337 494.288 94.3616 494.59 94.7386C494.967 95.2362 495.691 95.3265 496.173 94.9344C498.541 92.7932 501.828 91.9791 504.919 92.7782C507.196 93.502 508.809 95.5377 508.975 97.9202C509.503 100.634 508.568 103.424 506.517 105.279C504.572 107.163 501.918 108.174 499.204 108.038C499.159 108.038 499.114 108.008 499.068 108.008C498.45 107.918 497.877 108.324 497.772 108.943C497.681 109.561 498.088 110.134 498.706 110.24C499.099 110.33 499.49 110.36 499.898 110.36C502.928 110.224 505.824 109.033 508.07 106.982C510.664 104.615 511.855 101.072 511.207 97.6185C510.89 94.3916 508.673 91.6473 505.582 90.6672Z" fill="#27449B"/>
<path d="M454.284 77.3678C454.088 77.3979 449.594 78.1519 446.85 84.1834C446.789 84.3342 446.744 84.4849 446.744 84.6508C446.744 85.269 447.242 85.7817 447.875 85.7817C448.312 85.7817 448.72 85.5254 448.9 85.1183C451.117 80.2478 454.48 79.5994 454.615 79.5994C455.158 79.4788 455.535 78.966 455.505 78.4081C455.46 77.7899 454.917 77.3225 454.284 77.3678Z" fill="#27449B"/>
<path d="M471.805 78.9207C469.77 78.3779 467.598 78.8001 465.909 80.0667C465.457 80.3984 465.321 81.0017 465.578 81.4993C465.864 82.0572 466.543 82.2682 467.1 81.9817C468.231 81.0921 469.694 80.7453 471.096 81.062C472.665 81.5746 474.067 83.4896 475.409 86.9125C475.575 87.3498 475.997 87.6363 476.465 87.6363V87.6061C476.57 87.6061 476.691 87.5761 476.811 87.5459C477.399 87.3348 477.716 86.6863 477.505 86.0982C475.891 81.9365 474.067 79.6746 471.805 78.9207Z" fill="#27449B"/>
<path d="M460.905 110.481C460.437 110.556 459.97 110.39 459.653 110.043C457.979 108.083 459.336 99.9557 460.513 94.0146C460.633 93.3964 460.241 92.8083 459.623 92.6877C459.02 92.5821 458.432 92.9743 458.296 93.5775C456.185 104.314 456.079 109.35 457.949 111.521C458.658 112.35 459.713 112.803 460.799 112.758H460.995C461.613 112.712 462.111 112.185 462.081 111.566C462.051 110.948 461.523 110.451 460.905 110.481Z" fill="#27449B"/>
<path d="M468.127 115.035C467.569 114.763 466.89 114.99 466.619 115.547C464.628 119.242 462.201 120.177 458.748 118.563C458.205 118.337 457.572 118.563 457.3 119.091C457.014 119.649 457.24 120.327 457.798 120.614C459.019 121.202 460.346 121.534 461.703 121.564C464.071 121.564 466.528 120.388 468.609 116.618C468.624 116.588 468.639 116.573 468.654 116.543C468.926 115.985 468.7 115.306 468.142 115.035H468.127Z" fill="#27449B"/>
<path d="M502.143 107.933C501.54 107.767 500.921 108.129 500.756 108.732C498.795 117.085 499.429 127.882 500.424 130.988C500.575 131.456 501.012 131.772 501.494 131.772V131.862C501.645 131.862 501.766 131.847 501.886 131.802C502.474 131.591 502.791 130.943 502.58 130.355C501.675 127.475 501.117 117.085 502.957 109.244C503.078 108.656 502.716 108.083 502.143 107.933Z" fill="#27449B"/>
<path d="M470.388 90.6973C468.895 90.6369 467.629 92.2806 467.538 94.3615C467.448 96.4424 468.594 98.1763 470.087 98.2367C471.579 98.297 472.846 96.6533 472.937 94.5724C473.027 92.4916 471.881 90.7576 470.388 90.6973Z" fill="#27449B"/>
<path d="M454.827 96.1384C454.9 94.3328 453.913 92.8269 452.623 92.7751C451.334 92.7233 450.229 94.1452 450.157 95.9508C450.084 97.7565 451.071 99.2624 452.361 99.3142C453.651 99.366 454.755 97.9441 454.827 96.1384Z" fill="#27449B"/>
<path d="M490.579 155.928C484.879 157.798 476.224 157.391 470.675 153.274C470.63 153.229 470.569 153.184 470.509 153.154C469.981 152.822 469.273 153.003 468.956 153.531C468.624 154.058 468.805 154.767 469.333 155.084C473.435 157.904 478.335 159.351 483.311 159.231C485.995 159.246 488.679 158.869 491.258 158.085C491.816 157.889 492.132 157.285 491.966 156.712C491.801 156.109 491.182 155.762 490.579 155.928Z" fill="#39B715"/>
<path d="M460.272 130.415C459.654 130.445 459.171 130.988 459.201 131.606C459.488 136.959 459.684 142.885 459.593 144.694C457.271 145.282 447.892 146.73 441.499 147.71L435.95 148.57C426.315 150.093 419.785 152.581 412.864 161.462C412.713 161.658 412.623 161.899 412.623 162.156C412.623 162.774 413.121 163.287 413.754 163.287C414.101 163.287 414.432 163.151 414.659 162.879C421.233 154.526 427.053 152.324 436.312 150.816L441.861 149.957C460.83 147.016 461.131 146.655 461.463 146.263C461.795 145.87 462.202 145.388 461.463 131.485C461.433 130.867 460.89 130.385 460.272 130.415Z" fill="#27449B"/>
<path d="M507.753 148.163C507.15 148.012 506.532 148.389 506.381 148.992C506.23 149.595 506.607 150.213 507.21 150.364C523.314 154.33 542.796 164.282 549.175 180.235C558.976 204.799 561.75 233.162 558.448 275.096C558.403 275.714 558.87 276.257 559.488 276.317H559.579C560.182 276.317 560.68 275.865 560.725 275.277C564.057 232.981 561.238 204.301 551.286 179.391C544.591 162.638 524.34 152.279 507.753 148.163Z" fill="#27449B"/>
<path d="M525.788 205.266C525.909 204.648 525.517 204.06 524.899 203.939C524.296 203.833 523.708 204.226 523.572 204.829C521.793 213.801 523.873 233.041 524.22 235.303C524.296 235.861 524.778 236.268 525.336 236.268L525.502 236.238C526.12 236.147 526.542 235.574 526.452 234.956C526.105 232.74 524.069 213.936 525.788 205.266Z" fill="#27449B"/>
<path d="M482.375 187.805C479.812 184.201 477.61 181.095 477.233 180.522C476.163 178.893 473.464 177.219 463.768 174.49C454.871 172.002 438.496 173.872 427.73 177.129C427.126 177.31 426.795 177.943 426.961 178.531C427.141 179.134 427.775 179.466 428.363 179.3C438.586 176.209 454.796 174.324 463.12 176.676C470.433 178.772 474.414 180.416 475.303 181.788C475.695 182.422 477.821 185.392 480.505 189.162C484.381 194.605 489.704 202.069 490.623 203.577C490.834 203.909 491.196 204.12 491.588 204.12V204.075C491.815 204.075 492.011 204.014 492.191 203.909C492.719 203.577 492.9 202.883 492.568 202.356C491.618 200.788 486.477 193.595 482.36 187.805H482.375Z" fill="#27449B"/>
<path d="M496.474 205.251C496.113 204.814 495.494 204.723 495.012 205.025C494.484 205.356 494.318 206.05 494.65 206.578C502.446 217.329 530.779 253.744 539.735 262.007C539.947 262.203 540.218 262.309 540.504 262.309C540.821 262.309 541.123 262.173 541.334 261.947C541.756 261.495 541.726 260.771 541.274 260.349C532.573 252.327 504.014 215.625 496.474 205.251Z" fill="#27449B"/>
<path d="M455.732 183.025C452.565 183.191 449.61 184.653 447.529 187.051C445.026 190.082 444 194.078 444.754 197.938C444.83 198.496 445.312 198.918 445.87 198.918L446.036 198.843C446.654 198.752 447.076 198.194 447.001 197.576C446.368 194.379 447.182 191.062 449.233 188.529C450.891 186.644 453.229 185.468 455.732 185.287C456.35 185.287 456.863 184.774 456.863 184.156C456.863 183.538 456.35 183.025 455.732 183.025Z" fill="#27449B"/>
<path d="M458.596 190.187C454.374 190.549 448.191 194.711 448.433 204.678C448.448 205.296 448.945 205.779 449.564 205.779H449.594C450.212 205.764 450.71 205.236 450.694 204.617C450.498 196.204 455.429 192.721 458.792 192.434C459.35 192.344 459.742 191.861 459.742 191.303C459.742 190.685 459.229 190.172 458.596 190.187Z" fill="#27449B"/>
<path d="M463.483 196.249C459.065 197.802 456.2 200.878 456.049 204.286C455.928 207.06 457.632 209.473 460.754 210.891C460.904 210.966 461.055 210.996 461.221 210.996V211.026C461.658 211.026 462.05 210.77 462.231 210.378C462.488 209.805 462.246 209.141 461.688 208.87C459.427 207.829 458.22 206.261 458.311 204.422C458.416 201.979 460.754 199.612 464.237 198.39C464.825 198.179 465.142 197.531 464.93 196.943C464.719 196.355 464.071 196.038 463.483 196.249Z" fill="#27449B"/>
<path d="M493.73 207.543C493.218 207.196 492.509 207.332 492.162 207.844C492.162 207.844 488.694 213.68 485.558 215.565C482.421 217.449 474.068 215.595 472.56 214.328C470.705 212.624 469.333 210.468 468.579 208.055C468.081 206.547 467.327 205.13 466.317 203.894C465.895 203.426 465.186 203.381 464.719 203.803C464.251 204.225 464.206 204.934 464.628 205.401C465.443 206.442 466.061 207.618 466.468 208.885C467.373 211.629 468.971 214.102 471.127 216.032C472.62 217.344 477.279 218.641 481.411 218.641C483.251 218.731 485.075 218.339 486.719 217.51C490.533 215.203 493.972 209.217 494.122 208.96C494.364 208.448 494.198 207.844 493.73 207.543Z" fill="#27449B"/>
<path d="M501.3 223.315C493.067 235.393 487.94 237.082 482.783 235.921C482.738 235.921 482.692 235.891 482.647 235.891C482.029 235.8 481.456 236.208 481.35 236.826C481.26 237.444 481.667 238.017 482.285 238.122C483.311 238.364 484.351 238.484 485.407 238.484C491.317 238.484 496.55 234.292 503.169 224.597C503.516 224.084 503.396 223.375 502.868 223.029C502.34 222.682 501.646 222.803 501.3 223.33V223.315Z" fill="#39B715"/>
<path d="M559.608 276.363C559.02 276.167 558.372 276.483 558.176 277.086C555.25 285.5 548.751 292.18 540.428 295.332C531.486 298.634 521.323 297.503 511.884 292.105C492.99 281.308 481.018 245.316 477.564 223.753C477.564 223.738 477.564 223.708 477.564 223.693C477.444 223.074 476.856 222.682 476.238 222.803C475.619 222.923 475.227 223.512 475.348 224.13C478.364 243.054 489.658 282.017 510.768 294.08C516.588 297.518 523.193 299.373 529.948 299.463C543.655 299.524 555.869 290.838 560.317 277.871C560.317 277.855 560.332 277.825 560.332 277.81C560.528 277.222 560.211 276.574 559.608 276.378V276.363Z" fill="#27449B"/>
<path d="M531.669 297.307C531.051 297.186 530.463 297.593 530.343 298.197C530.237 298.83 527.855 313.547 528.292 322.866C528.322 323.469 528.82 323.951 529.423 323.951L529.483 323.861C530.101 323.831 530.584 323.303 530.554 322.684C530.131 313.637 532.574 298.709 532.574 298.558C532.65 297.97 532.258 297.412 531.669 297.307Z" fill="#27449B"/>
<path d="M420.868 221.144C420.25 221.068 419.677 221.506 419.602 222.124C418.953 227.432 418.712 234.142 418.456 241.244C418.154 250.005 417.822 259.067 416.646 265.234C416.526 265.853 416.933 266.441 417.551 266.546H417.762C418.305 266.546 418.772 266.169 418.878 265.641C420.084 259.308 420.401 250.156 420.718 241.304C420.974 234.263 421.2 227.598 421.848 222.38C421.924 221.762 421.487 221.189 420.868 221.129V221.144Z" fill="#27449B"/>
<path d="M407.63 182.376C398.794 182.723 383.263 184.246 378.498 190.639C378.347 190.835 378.271 191.077 378.271 191.318C378.271 191.936 378.784 192.449 379.402 192.449C379.764 192.449 380.111 192.283 380.322 191.982C383.338 187.925 393.592 185.181 407.72 184.638C408.339 184.608 408.836 184.08 408.806 183.462C408.776 182.844 408.248 182.346 407.63 182.376Z" fill="#27449B"/>
<path d="M401.209 212.248C400.605 212.097 399.987 212.474 399.852 213.077C399.836 213.183 397.424 223.059 394.649 226.377C392.78 228.412 390.186 229.648 387.427 229.814C384.531 229.98 381.697 228.94 379.616 226.934C374.851 222.546 374.549 211.795 378.756 194.982C378.907 194.379 378.53 193.761 377.927 193.61C377.324 193.459 376.706 193.836 376.555 194.439C372.031 212.368 372.559 223.542 378.063 228.608C380.4 230.855 383.506 232.106 386.748 232.106L387.562 232.061C390.94 231.865 394.122 230.342 396.383 227.824C399.49 224.16 401.948 214.027 402.053 213.605C402.204 213.001 401.827 212.383 401.224 212.233L401.209 212.248Z" fill="#27449B"/>
<path d="M395.81 214.736C395.583 214.947 395.463 215.248 395.463 215.55C395.463 216.168 395.976 216.681 396.594 216.681C396.88 216.681 397.167 216.575 397.378 216.379C399.263 214.585 410.361 210.574 415.849 215.595C415.895 215.64 415.94 215.686 416 215.731C416.498 216.108 417.206 216.002 417.583 215.505C417.96 215.007 417.855 214.299 417.357 213.922C410.677 207.8 398.177 212.504 395.81 214.736Z" fill="#27449B"/>
<path d="M412.141 191.152C407.497 191.212 392.795 193.052 387.14 196.852C386.839 197.063 386.643 197.41 386.643 197.787C386.643 198.405 387.14 198.918 387.773 198.918C388 198.918 388.226 198.842 388.407 198.722C393.428 195.359 407.346 193.414 412.171 193.414C412.789 193.414 413.302 192.886 413.287 192.268C413.287 192.253 413.287 192.223 413.287 192.208C413.257 191.604 412.744 191.122 412.141 191.152Z" fill="#27449B"/>
<path d="M418.079 200.23C414.883 199.446 400.934 199.717 393.606 203.653C393.244 203.849 393.003 204.241 393.018 204.648C393.018 205.266 393.531 205.779 394.149 205.779C394.33 205.779 394.511 205.734 394.677 205.643C401.432 202.024 414.656 201.723 417.536 202.431C418.139 202.582 418.758 202.205 418.908 201.602C419.059 200.999 418.682 200.381 418.079 200.23Z" fill="#27449B"/>
<path d="M376.207 156.712C371.924 158.507 378.785 168.368 384.862 182.045C384.862 182.045 405.203 175.32 409.666 179.029C414.13 182.738 416.753 195.902 417.779 196.551C418.804 197.199 422.996 202.657 420.795 204.648C418.593 206.638 413.104 203.698 413.104 208.207C413.104 208.207 424.76 209.85 426.042 207.799C427.324 205.749 407.48 157.391 406.62 156.139C405.761 154.888 380.489 154.918 376.207 156.712Z" fill="#27449B"/>
<path d="M407.601 155.536C405.972 153.123 379.102 154.33 375.815 155.702C374.985 156.034 374.337 156.697 374.035 157.527C372.95 160.226 375.392 165.066 378.981 172.289C380.504 175.335 382.223 178.803 383.882 182.527C384.123 183.055 384.711 183.326 385.269 183.145C392.899 180.627 406.274 177.672 408.988 179.934C411.702 182.196 413.874 188.906 415.17 192.917C416.226 196.158 416.558 197.124 417.221 197.531C418.729 198.993 419.784 200.863 420.237 202.914C420.282 203.547 420.056 203.818 419.966 203.818C419.076 204.286 418.066 204.467 417.07 204.346C415.17 204.361 411.974 204.377 411.974 208.222C411.974 208.78 412.396 209.262 412.954 209.338C415.593 209.73 418.247 209.941 420.9 209.986C423.765 209.986 426.253 209.594 427.052 208.433C427.505 207.709 428.183 206.623 418.231 181.291C413.753 169.876 408.189 156.396 407.601 155.536ZM414.386 207.241C414.658 206.714 415.366 206.608 417.055 206.563C418.593 206.744 420.146 206.352 421.428 205.462C422.212 204.738 422.604 203.683 422.453 202.628C421.911 199.944 420.508 197.501 418.473 195.661C417.99 194.515 417.583 193.354 417.236 192.163C415.774 187.654 413.572 180.824 410.345 178.14C405.972 174.491 389.959 179.21 385.435 180.627C383.927 177.25 382.314 174.038 380.911 171.218C377.941 165.262 375.377 160.105 376.071 158.25C376.161 157.994 376.358 157.813 376.614 157.723C380.67 156.019 402.896 156.124 405.761 156.939C407.767 161.01 424.58 202.431 424.941 207.241C423.886 207.86 419.272 207.845 414.386 207.241Z" fill="#27449B"/>
<path d="M398.298 228.744C397.695 228.924 397.363 229.558 397.529 230.146C403.696 250.985 400.982 278.127 400.982 278.398C400.922 279.017 401.374 279.574 401.992 279.634H402.113C402.686 279.634 403.168 279.182 403.229 278.609C403.259 278.338 406.003 250.759 399.7 229.497C399.519 228.894 398.886 228.563 398.298 228.728V228.744Z" fill="#27449B"/>
<path d="M390.578 305.163L389.176 305.42C382.993 306.581 374.549 308.224 364.416 297.533C353.182 285.666 357.269 260.032 367.522 222.531C367.688 221.928 367.341 221.31 366.723 221.144C366.12 220.978 365.502 221.325 365.336 221.943C354.886 260.213 350.8 286.466 362.773 299.102C370.026 306.747 376.615 308.556 382.089 308.556C384.622 308.511 387.14 308.209 389.613 307.666L390.985 307.41C391.603 307.305 392.01 306.701 391.905 306.083C391.799 305.465 391.196 305.058 390.578 305.163Z" fill="#27449B"/>
<path d="M450.395 268.25C440.111 264.616 428.667 266.486 420.087 273.226C408.22 282.273 402.882 297.503 406.516 311.979C409.577 324.388 419.936 333.647 432.602 335.306C434.985 335.668 437.397 335.863 439.81 335.863C450.636 335.863 460 331.883 466.695 324.313C474.582 315.326 477.763 302.147 474.747 291.502C471.837 281.369 462.051 272.02 450.395 268.25ZM464.946 322.76C459.608 328.837 449.717 335.562 432.934 332.999C421.187 331.461 411.567 322.896 408.702 311.406C405.294 297.82 410.301 283.525 421.429 275.021L421.399 274.945C429.39 268.688 440.036 266.953 449.611 270.346C460.573 273.98 469.771 282.635 472.485 292.075C475.381 302.012 472.335 314.346 464.946 322.76Z" fill="#27449B"/>
<path d="M454.904 307.078C449.28 304.922 447.968 309.988 447.138 309.852C443.519 308.465 440.036 306.746 436.749 304.696C436.885 304.077 436.96 303.429 436.96 302.796V302.102C441.258 298.242 447.395 292.708 447.817 292.919C452.974 295.497 460.453 289.557 455.356 284.023C450.26 278.489 444.198 285.199 445.057 290.054C445.057 290.461 439.931 293.944 435.09 297.307C433.929 295.799 432.135 294.909 430.235 294.879C425.847 295.075 422.439 298.785 422.62 303.173C422.801 307.304 426.103 310.607 430.235 310.788C432.15 310.742 433.944 309.837 435.105 308.314C439.629 310.561 445.495 313.607 445.661 314.587C446.339 321.961 454.798 322.127 457.497 316.261C458.432 314.029 460.498 309.234 454.904 307.078Z" fill="#39B715"/>
<path d="M455.445 306.143C452.489 304.726 448.946 305.751 447.212 308.526L447.061 308.722C443.985 307.425 440.999 305.917 438.134 304.198C438.195 303.761 438.225 303.309 438.225 302.871V302.63C441.165 299.976 446.397 295.302 447.905 294.231C451.177 295.392 454.826 294.322 456.953 291.577C458.144 289.707 458.355 287.385 457.526 285.319C456.108 281.821 452.112 280.147 448.629 281.58C445.613 283.163 443.774 286.345 443.924 289.752C442.975 290.582 439.838 292.738 437.26 294.518L435.299 295.874C433.973 294.563 432.163 293.809 430.293 293.794C425.302 293.794 421.246 297.85 421.246 302.841C421.246 307.832 425.302 311.888 430.293 311.888C432.239 311.888 434.093 311.074 435.435 309.687C442.582 313.261 444.151 314.542 444.482 314.889C444.618 318.086 446.94 320.785 450.077 321.403C450.469 321.478 450.876 321.508 451.283 321.508C454.419 321.508 457.269 319.684 458.581 316.834C459.245 315.402 460.617 312.431 459.516 309.717C458.732 307.998 457.254 306.701 455.46 306.143H455.445ZM456.395 315.778C455.415 318.131 452.972 319.518 450.454 319.186C448.222 318.734 446.639 316.744 446.699 314.467C446.624 313.653 446.533 312.657 435.586 307.274C435.435 307.199 435.254 307.153 435.088 307.153C434.757 307.123 434.425 307.229 434.184 307.47C433.234 308.722 431.756 309.491 430.188 309.521C427.036 309.159 424.548 306.671 424.186 303.52C423.749 299.765 426.433 296.387 430.188 295.95C431.756 295.98 433.219 296.734 434.169 297.971C434.546 298.423 435.194 298.513 435.676 298.182L438.436 296.267C446.292 290.838 446.277 290.763 446.111 289.798C445.885 287.219 447.212 284.746 449.504 283.51C451.238 282.65 453.334 283.178 454.465 284.746C456.123 286.073 456.395 288.486 455.083 290.16C453.484 292.225 450.68 292.949 448.282 291.909C447.408 291.441 447.227 291.351 436.219 301.273C435.963 301.499 435.812 301.846 435.842 302.192V302.494C435.842 302.6 435.842 302.705 435.842 302.811C435.842 303.369 435.767 303.942 435.646 304.484C435.541 304.952 435.752 305.45 436.174 305.691C439.582 307.817 443.186 309.581 446.955 310.983C447.845 311.119 448.373 310.456 448.87 309.807C449.986 307.802 452.489 307.063 454.51 308.149C455.716 308.496 456.727 309.34 457.284 310.456C458.023 312.265 456.922 314.648 456.395 315.778Z" fill="#39B715"/>
<path d="M393.336 242.722C393.185 242.752 378.89 245.24 368.139 237.927C368.109 237.897 368.079 237.881 368.033 237.851C367.49 237.535 366.797 237.701 366.48 238.243C366.163 238.786 366.329 239.48 366.872 239.797C372.949 243.642 380.036 245.602 387.229 245.436C389.415 245.451 391.586 245.3 393.743 244.953C394.361 244.848 394.768 244.245 394.662 243.627C394.557 243.008 393.954 242.601 393.336 242.707V242.722Z" fill="#39B715"/>
<path d="M235.387 167.772C235.387 167.772 235.312 167.727 235.266 167.697C234.708 167.411 234.03 167.637 233.744 168.195C233.457 168.752 233.683 169.431 234.241 169.717C246.817 177.257 252.019 182.64 250.134 186.304C249.863 186.847 250.074 187.526 250.617 187.812C250.782 187.887 250.948 187.933 251.129 187.933C251.567 187.933 251.944 187.661 252.124 187.269C255.472 180.77 244.932 173.427 235.387 167.772Z" fill="#27449B"/>
<path d="M243.603 165.752C243.03 165.571 242.412 165.857 242.201 166.415C241.974 167.003 242.261 167.652 242.834 167.878C252.56 171.376 258.998 177.604 258.998 180.182C258.998 180.8 259.511 181.313 260.129 181.313C260.747 181.313 261.26 180.8 261.26 180.182C261.26 176.307 254.158 169.552 243.603 165.752Z" fill="#27449B"/>
<path d="M285.22 137.902C282.823 130.347 282.039 130.211 281.315 130.075C280.139 129.774 273.836 130.769 260.732 132.79C253.344 133.921 244.281 135.323 242.638 135.323C242.366 135.066 241.537 134.403 240.859 133.815C237.345 130.799 233.998 127.994 231.721 127.783C228.524 127.497 210.867 132.141 208.816 134.659C206.223 137.856 213.717 178.237 216.537 187.073C217.26 189.35 217.758 190.149 218.542 190.376C218.994 190.466 219.447 190.511 219.914 190.496C224.483 190.496 236.682 188.385 239.411 187.933C240.029 187.827 240.437 187.239 240.331 186.621C240.225 186.003 239.637 185.596 239.019 185.701C230.711 187.164 221.437 188.461 219.417 188.25C216.793 183.997 209.238 139.243 210.611 136.092C212.073 134.343 228.781 129.834 231.555 130.06C233.274 130.226 237.406 133.83 239.396 135.564C240.12 136.273 240.919 136.906 241.763 137.464C242.472 137.826 244.206 137.66 261.049 135.067C268.966 133.83 278.646 132.322 280.652 132.322C281.662 134.343 282.476 136.454 283.079 138.64C286.819 150.13 292.021 170.848 292.654 174.573C291.237 175.417 284.798 176.232 279.566 176.925C275.103 177.528 270.036 178.192 265.663 179.036C265.09 179.172 264.728 179.73 264.819 180.303C264.909 180.921 265.482 181.344 266.101 181.253C270.413 180.424 275.434 179.76 279.868 179.172C291.312 177.649 294.946 177.076 294.946 174.86C294.946 174.603 294.901 174.347 294.856 174.091C294.147 169.929 288.794 148.894 285.22 137.902Z" fill="#27449B"/>
<path d="M267.25 8.45919C250.407 -3.16656 236.248 -0.693758 227.201 3.43783C214.083 9.46935 206.061 21.7586 205.171 30.248C204.236 39.3103 206.935 56.9826 218.244 68.548C225.377 75.8461 234.59 79.5254 245.658 79.5254C247.06 79.5254 248.507 79.4653 249.985 79.3597C264.702 78.1534 278.062 65.8036 282.48 49.3074C286.777 33.2787 281.078 18.0041 267.25 8.45919ZM280.369 48.7044C276.252 64.0396 263.435 75.9821 249.865 77.0828C237.545 78.078 227.472 74.6703 219.933 66.9499C209.167 55.9424 206.588 39.0991 207.493 30.474C208.322 22.4823 216.299 10.9623 228.211 5.47362C232.72 3.37767 237.636 2.27672 242.612 2.26164C242.597 2.26164 242.581 2.26164 242.566 2.26164H242.642C242.642 2.26164 242.627 2.26164 242.612 2.26164C249.382 2.26164 257.283 4.32756 266.044 10.2988C279.238 19.4214 284.485 33.3693 280.369 48.7044Z" fill="#39B715"/>
<path d="M470.902 221.084C470.66 221.084 442.945 221.129 423.78 216.394C423.177 216.244 422.559 216.621 422.408 217.224C422.257 217.827 422.634 218.445 423.237 218.596C442.192 223.361 469.333 223.361 470.841 223.361H470.902C471.52 223.346 472.032 222.833 472.032 222.215C472.032 221.597 471.52 221.084 470.902 221.084Z" fill="#39B715"/>
<path d="M156.057 144.642C152.333 141.158 153.599 137.675 154.082 135.805C155.59 128.899 148.488 129.201 146.165 122.234C144.069 115.992 149.483 108.648 150.689 98.229C151.669 89.7698 143.647 76.6963 124.603 72.4139C105.558 68.1315 98.3506 80.059 98.3506 80.059C87.3883 71.4188 66.3835 86.8294 67.0168 108.015C67.2732 116.67 63.7296 121.677 54.3808 124.21C45.0319 126.743 47.0827 132.699 46.9922 139.289C46.9018 145.878 40.1314 143.314 38.8045 146.33C35.5324 153.538 42.6345 159.057 46.9018 157.805C51.1691 156.554 56.703 155.061 59.7187 163.053C62.7345 171.045 70.4096 168.753 75.8229 168.029C78.0847 167.501 80.4521 168.24 82.0203 169.959C85.1114 157.685 86.8606 145.109 87.2376 132.458C81.8846 133.755 74.7976 129.11 75.3706 122.475C75.9435 115.841 84.6289 112.795 90.5548 118.585C90.5548 118.585 115.646 107.834 120.712 91.353C120.712 91.353 139.214 98.4851 140.511 113.096C141.808 127.708 130.423 158.966 126.307 163.746C122.808 167.637 117.787 169.838 112.555 169.778C112.102 171.044 111.771 172.356 111.575 173.698C128.991 178.358 126.292 167.893 135.022 169.778C142.486 171.376 146.392 165.646 147.9 163.55C149.845 160.761 155.59 166.672 159.963 161.545C166.326 154.036 159.782 148.11 156.057 144.642Z" fill="#27449B"/>
<path d="M135.413 123.26C134.177 122.943 132.79 124.089 132.398 125.838C132.006 127.587 132.714 129.276 133.905 129.593C135.097 129.91 136.514 128.763 136.921 127.014C137.328 125.265 136.665 123.576 135.413 123.26Z" fill="#27449B"/>
<path d="M119.189 119.55C117.756 119.188 116.188 120.576 115.645 122.581C115.102 124.587 115.841 126.577 117.289 126.909C118.736 127.241 120.304 125.914 120.847 123.893C121.39 121.873 120.697 119.927 119.189 119.55Z" fill="#27449B"/>
<path d="M38.5456 295.927C19.2599 302.456 15.2339 302.622 10.7102 299.817C10.1825 299.486 9.47371 299.651 9.14198 300.179C8.81024 300.707 8.9761 301.416 9.50385 301.747C11.6149 303.135 14.103 303.858 16.6362 303.813C21.1297 303.813 27.5532 302.049 39.2544 298.068C39.2845 298.068 39.3147 298.053 39.3298 298.038C39.9178 297.812 40.2043 297.164 39.9781 296.576C39.752 295.987 39.1036 295.701 38.5155 295.927H38.5456Z" fill="white"/>
<path d="M186.214 266.192C185.687 265.86 184.993 266.011 184.646 266.554C179.61 274.53 171.875 300.828 180.364 313.464C180.545 313.75 180.741 314.007 180.937 314.278C181.148 314.565 181.48 314.73 181.842 314.73C182.083 314.715 182.324 314.64 182.52 314.489C183.018 314.112 183.123 313.403 182.746 312.906C182.58 312.695 182.415 312.469 182.249 312.212C174.619 300.933 181.495 275.767 186.561 267.76C186.893 267.232 186.742 266.539 186.214 266.192Z" fill="white"/>
<path d="M156.918 143.858L156.782 143.737C154.716 141.973 153.977 139.093 154.927 136.544L155.048 136.002C155.953 131.478 153.691 129.472 151.429 127.542C149.454 126.11 147.946 124.134 147.086 121.858C146.001 118.616 147.222 114.937 148.73 110.277C150.147 106.417 151.157 102.406 151.746 98.3349C152.726 89.8153 145.02 75.8068 124.785 71.2832C108.258 67.5738 100.297 75.5505 98.0198 78.4607C93.7977 75.7315 88.2487 75.7769 82.5942 78.6268C71.9335 84.5075 65.4496 95.8467 65.8115 108.015C66.0678 116.429 62.7203 120.757 54.0048 123.094C45.2892 125.431 45.5003 130.875 45.7114 136.152V139.168C45.6662 142.319 43.902 142.757 41.6703 143.3C40.1323 143.677 38.3681 144.099 37.6292 145.743C35.9856 149.03 36.4983 153.01 38.926 155.77C40.856 158.228 44.0075 159.389 47.0685 158.786C52.0144 157.278 55.9951 156.705 58.5133 163.309C61.5291 171.286 68.7368 170.155 73.9993 169.341L75.8238 169.069C77.7388 168.572 79.7594 169.19 81.0712 170.668C81.0863 170.683 81.1013 170.698 81.1315 170.728C81.5839 171.165 82.2927 171.135 82.7299 170.683C83.1672 170.231 83.137 169.522 82.6847 169.084C80.8752 167.124 78.146 166.265 75.5373 166.838L73.6525 167.124C68.4201 167.953 63.0068 168.798 60.6395 162.601C57.1713 153.538 50.4462 155.499 46.4353 156.675C44.2338 157.006 42.0171 156.117 40.645 154.352C38.8053 152.272 38.4284 149.286 39.695 146.813C39.9513 146.21 40.8259 145.969 42.2131 145.622C44.4749 145.064 47.9732 144.22 47.9732 139.319C48.0486 138.233 47.9732 137.178 47.9732 136.137C47.7621 130.769 47.6264 127.226 54.5928 125.356C64.198 122.793 68.3598 117.455 68.0733 108.03C67.7265 96.7364 73.7278 86.1962 83.6044 80.7225C88.882 78.0536 93.9636 78.1594 97.5674 80.9942C97.6127 81.0244 97.6428 81.0543 97.6881 81.0844C98.2158 81.4011 98.9245 81.2352 99.2411 80.6924C99.3165 80.5717 106.193 69.5039 124.287 73.5601C143.151 77.7822 150.388 90.4635 149.499 98.1386C148.941 102.059 147.991 105.904 146.649 109.629C145.005 114.469 143.694 118.661 145.005 122.627C145.985 125.296 147.735 127.633 150.027 129.321C152.183 131.161 153.6 132.383 152.907 135.595L152.786 136.092C151.64 139.439 152.635 143.149 155.304 145.471L155.44 145.592C160.129 149.949 164.276 154.775 159.119 160.806C157.038 163.234 154.611 162.646 152.258 162.073C150.358 161.605 148.217 161.093 146.92 162.872L146.8 163.038C145.292 165.149 141.748 170.08 135.189 168.662C132.309 167.954 129.248 168.783 127.137 170.879C124.528 172.899 121.558 175.207 111.802 172.598C111.199 172.432 110.58 172.794 110.415 173.397C110.249 174 110.611 174.618 111.214 174.784C113.853 175.538 116.582 175.96 119.326 176.021C122.689 176.111 125.961 174.92 128.479 172.673C130.304 171.241 131.661 170.23 134.676 170.879C142.668 172.583 146.981 166.611 148.594 164.365L148.715 164.199C149.122 163.626 149.981 163.777 151.73 164.199C154.249 164.832 157.762 165.692 160.778 162.193C167.774 153.945 160.717 147.386 156.918 143.858Z" fill="#27449B"/>
<path d="M7.96722 310.524C8.01246 309.905 7.54501 309.347 6.92678 309.302C6.30855 309.257 5.75064 309.724 5.7054 310.342C5.46414 313.464 15.582 336.067 24.946 349.155C25.1571 349.457 25.5039 349.623 25.8658 349.623C26.1221 349.623 26.3483 349.517 26.5443 349.352C27.0118 348.99 27.1173 348.341 26.8006 347.844C17.2708 334.529 7.96722 312.876 7.96722 310.524Z" fill="#27449B"/>
<path d="M54.3347 318.44C54.0935 317.942 53.5205 317.701 52.9927 317.852C52.3896 318.033 52.0578 318.666 52.2388 319.269C56.883 330.97 61.8138 345.22 61.8138 345.355C61.9646 345.808 62.4019 346.124 62.8693 346.124C62.9899 346.124 63.1256 346.109 63.2463 346.064C63.8343 345.853 64.151 345.205 63.9399 344.616C63.8947 344.481 58.9941 330.186 54.3347 318.44Z" fill="#27449B"/>
<path d="M46.6761 302.727C46.2539 302.441 45.696 302.471 45.304 302.788C44.8215 303.195 44.7611 303.904 45.1682 304.386C45.8468 305.02 47.7015 307.809 52.2251 319.284C52.391 319.721 52.8132 319.993 53.2806 319.993C53.4163 319.993 53.5521 319.993 53.6727 319.963C53.6878 319.963 53.7028 319.963 53.7179 319.948C54.2909 319.691 54.5472 319.028 54.306 318.455C49.4506 306.211 47.6261 303.617 46.6761 302.727Z" fill="#27449B"/>
<path d="M70.4543 220.277C69.8511 220.096 69.2178 220.428 69.0369 221.031C63.1863 236.471 49.3439 273.686 47.2178 285.493C47.1123 286.111 47.5195 286.699 48.1377 286.805H48.3336C48.8614 286.805 49.3289 286.427 49.4344 285.9C51.5455 273.942 66.6242 233.893 71.1479 221.83C71.1629 221.785 71.1781 221.739 71.1931 221.694C71.3741 221.091 71.0424 220.458 70.4392 220.277H70.4543Z" fill="white"/>
<path d="M63.985 180.017C45.7547 177.725 37.8233 182.354 30.2839 191.144C22.1564 200.644 8.11805 239.201 4.36343 255.109C0.60881 271.017 -3.55292 300.541 5.13246 310.297C7.69586 313.192 11.6766 314.263 16.2003 314.263C27.6149 314.263 42.1811 307.372 44.6088 305.909C45.3929 305.442 46.0564 304.778 46.5238 303.994C47.6999 302.064 47.8055 299.486 47.9412 296.229C48.0166 294.45 48.107 292.444 48.3785 290.273C48.4538 289.654 48.0165 289.082 47.3983 289.006C46.7801 288.931 46.2071 289.368 46.1317 289.986C45.8452 292.248 45.7548 294.314 45.6794 296.123C45.5588 299.064 45.4531 301.325 44.5786 302.833C44.2921 303.301 43.9001 303.708 43.4176 303.979C38.9542 306.754 14.3154 317.188 6.86647 308.789C-1.21577 299.712 3.1571 270.052 6.59507 255.637C10.1989 240.467 24.2523 201.669 32.033 192.622C39.2105 184.223 46.388 180.092 63.6985 182.263C64.3167 182.339 64.8897 181.901 64.9651 181.283C65.0405 180.665 64.6032 180.092 63.985 180.017Z" fill="#27449B"/>
<path d="M121.058 90.2521C121.058 90.2521 120.998 90.2219 120.953 90.2219C120.349 90.041 119.731 90.3878 119.55 90.9759C115.147 105.286 94.6703 115.373 90.7197 117.198C87.8095 114.529 83.6627 113.654 79.9232 114.951C76.7416 116.082 74.4948 118.962 74.1933 122.325C73.952 125.612 75.3242 128.809 77.8725 130.905C80.1192 132.865 83.0295 133.89 86.0151 133.724C85.5476 145.818 83.8286 157.835 80.8732 169.567C80.7978 169.642 80.7978 169.733 80.7978 169.868C80.7525 169.989 80.7375 170.125 80.7375 170.245C80.7375 170.863 81.2502 171.376 81.8684 171.376C82.3359 171.376 82.7279 171.075 82.8938 170.637L82.9842 170.291C86.0905 157.911 87.8698 145.245 88.2618 132.488C88.2618 132.397 88.2618 132.292 88.2316 132.201C88.0808 131.598 87.4626 131.221 86.8595 131.372C84.1604 131.87 81.3708 131.086 79.3201 129.246C77.3297 127.633 76.2439 125.144 76.4249 122.581C76.636 120.078 78.3098 117.952 80.6922 117.138C83.8889 116.052 87.4324 116.927 89.7395 119.4C90.0712 119.716 90.5538 119.807 90.976 119.626C92.0013 119.188 115.434 108.98 121.345 92.8758C125.235 94.625 138.293 101.365 139.334 113.187C140.585 127.436 129.442 158.257 125.386 162.947C122.099 166.596 117.394 168.662 112.478 168.602H112.313C104.622 168.602 96.2234 164.048 94.7155 153.809C94.7155 153.749 94.7155 153.704 94.6854 153.659C94.5497 153.055 93.9465 152.663 93.3434 152.799C92.7402 152.935 92.3481 153.538 92.4839 154.141C94.233 165.661 103.929 170.863 112.328 170.863H112.509C118.073 170.924 123.395 168.571 127.105 164.425C131.417 159.434 142.922 128.1 141.58 112.946C140.238 97.7916 121.842 90.5537 121.058 90.2521Z" fill="#27449B"/>
<path d="M80.1505 175.824C80.1505 175.824 80.1354 175.824 80.1203 175.824C79.502 175.628 78.8386 175.975 78.6426 176.593V176.789C78.6426 176.789 78.6426 176.82 78.6275 176.835C78.4616 177.408 78.8084 178.011 79.3814 178.177C79.487 178.192 79.6077 178.192 79.7132 178.177C80.2259 178.192 80.6933 177.89 80.8742 177.408V177.227C80.8742 177.227 80.8742 177.196 80.8742 177.181C81.0401 176.608 80.7084 176.005 80.1354 175.84L80.1505 175.824Z" fill="#27449B"/>
<path d="M111 182.625C110.382 182.625 109.869 183.138 109.869 183.756V185.053C109.869 185.671 110.382 186.183 111 186.183C111.618 186.183 112.131 185.671 112.131 185.053V183.756C112.131 183.138 111.618 182.625 111 182.625Z" fill="#27449B"/>
<path d="M112.916 168.707C112.328 168.481 111.68 168.768 111.453 169.356C110.971 170.698 110.624 172.085 110.413 173.502C110.292 174.271 110.187 175.071 110.111 175.885C109.991 177.212 109.885 178.614 109.885 179.926C109.87 180.544 110.368 181.072 110.986 181.087C111.604 181.087 112.117 180.604 112.132 179.986C112.162 178.72 112.237 177.377 112.358 176.096C112.433 175.372 112.524 174.588 112.645 173.864C112.825 172.598 113.127 171.361 113.564 170.17C113.791 169.582 113.504 168.934 112.916 168.707Z" fill="#27449B"/>
<path d="M113.641 112.056C113.309 112.267 113.098 112.63 113.098 113.022C113.098 113.64 113.595 114.152 114.229 114.152C114.44 114.152 114.636 114.092 114.817 113.986C117.35 112.448 120.501 112.313 123.155 113.625C123.653 113.941 124.301 113.836 124.663 113.368C125.055 112.871 124.965 112.162 124.467 111.785C121.074 109.93 116.943 110.036 113.641 112.056Z" fill="#27449B"/>
<path d="M137.81 114.816C136.378 113.82 134.553 113.534 132.879 114.062C132.276 114.243 131.93 114.861 132.111 115.464C132.291 116.067 132.91 116.414 133.513 116.233C134.538 115.901 135.654 116.067 136.529 116.685C137.675 117.5 138.444 118.751 138.67 120.139C138.73 120.727 139.213 121.164 139.801 121.164H139.906C140.524 121.103 140.977 120.545 140.916 119.927C140.63 117.861 139.499 116.022 137.795 114.816H137.81Z" fill="#27449B"/>
<path d="M127.92 123.969C127.302 123.969 126.804 124.466 126.789 125.084C126.714 131.478 126.503 138.625 126.322 139.364C125.779 140.012 121.466 140.495 119.959 140.661C119.34 140.691 118.858 141.234 118.888 141.852C118.918 142.47 119.461 142.953 120.079 142.922H120.2C125.327 142.319 127.649 141.852 128.342 140.344C128.78 139.379 129.036 131.523 129.036 125.114C129.036 124.496 128.538 123.984 127.92 123.969Z" fill="#27449B"/>
<path d="M121.422 149.045C117.622 148.004 113.762 147.22 109.856 146.692C109.525 146.647 109.193 146.768 108.951 147.009C108.71 147.25 108.59 147.582 108.62 147.914C108.65 148.246 109.359 155.755 114.154 156.478C114.606 156.554 115.073 156.584 115.541 156.584C117.984 156.765 120.276 155.363 121.226 153.101C121.422 152.513 121.105 151.895 120.532 151.683C120.502 151.683 120.487 151.668 120.457 151.653C119.869 151.457 119.22 151.774 119.024 152.362C118.934 152.603 118.029 154.775 114.5 154.232C112.54 153.93 111.53 151.141 111.108 149.135C112.797 149.407 116.008 149.995 120.864 151.231C121.422 151.337 121.964 151.005 122.145 150.477C122.341 149.889 122.025 149.241 121.422 149.045Z" fill="#27449B"/>
<path d="M112.915 216.688C112.976 216.085 112.539 215.542 111.935 215.467C111.317 215.376 110.744 215.813 110.669 216.432C109.87 222.644 110.382 228.962 112.177 234.979C114.454 242.533 121.375 270.761 115.343 316.299C115.268 316.917 115.69 317.475 116.308 317.565H116.459C117.047 317.611 117.575 317.188 117.665 316.6C123.802 270.61 116.73 241.99 114.423 234.315C112.704 228.616 112.192 222.599 112.915 216.688Z" fill="white"/>
<path d="M234.707 175.975C234.179 175.629 233.486 175.764 233.139 176.292C232.792 176.82 232.928 177.513 233.456 177.86C241.055 182.927 245.142 188.294 245.292 193.361C245.322 196.648 243.845 199.785 241.266 201.835C237.949 204.323 232.581 211.697 232.355 212.014C232.204 212.21 232.129 212.466 232.144 212.707C232.46 222.825 228.193 257.913 223.669 277.244C218.904 297.918 214.984 310.704 195.623 312.8C194.401 312.936 193.18 313.026 192.019 313.026C188.506 313.117 185.007 312.665 181.63 311.685C169.717 308.262 160.7 298.822 150.839 285.719C150.462 285.221 149.753 285.116 149.256 285.493C148.758 285.87 148.652 286.578 149.029 287.076C159.162 300.541 168.481 310.252 180.996 313.856C184.329 314.851 187.782 315.349 191.265 315.364L192.064 315.303C193.286 315.288 194.582 315.198 195.879 315.062C217.819 312.68 221.558 296.5 225.886 277.772C230.319 258.547 234.632 223.775 234.421 213.054C235.461 211.637 239.924 205.68 242.623 203.66C245.79 201.157 247.599 197.327 247.554 193.301C247.388 187.375 243.061 181.555 234.707 175.975Z" fill="#27449B"/>
<path d="M213.19 188.958C208.742 191.733 209.375 197.689 209.843 200.102C210.19 203.193 198.217 245.036 192.186 264.805C191.522 266.886 191.009 268.529 190.678 269.539C187.602 278.798 183.666 302.034 191.07 314.776C191.13 314.881 191.19 314.987 191.281 315.078C191.492 315.304 191.778 315.424 192.08 315.424C192.261 315.424 192.457 315.379 192.623 315.288C193.166 314.987 193.377 314.308 193.075 313.75V313.66C186.712 302.758 189.185 281.301 192.849 270.233C193.196 269.208 193.708 267.549 194.357 265.453C196.573 258.245 212.844 203.705 212.075 199.679C211.683 197.704 211.14 192.894 214.381 190.873C214.834 190.542 214.97 189.938 214.713 189.441C214.427 188.883 213.748 188.672 213.19 188.958Z" fill="#27449B"/>
<path d="M81.8827 170.26C81.3399 172.477 80.6011 174.663 79.832 176.804L80.1034 176.97L87.4016 180.755C88.6079 181.313 89.8444 181.811 91.0658 182.263C97.3838 184.811 104.215 185.761 110.985 185.053V179.956C111.015 178.689 111.075 177.333 111.211 175.991C100.113 180.062 89.0904 175.538 81.8827 170.26Z" fill="#39B715"/>
<path d="M110.789 174.935C98.3638 179.519 86.8737 172.552 82.5159 169.341C82.4104 169.265 82.2747 169.19 82.139 169.16C81.5358 168.994 80.9175 169.341 80.7517 169.944C80.0882 172.342 79.4248 174.452 78.7312 176.413C78.5653 176.895 78.7311 177.438 79.1684 177.725L79.4398 177.89C79.7565 178.101 80.1787 178.132 80.5255 177.981C81.0985 177.724 81.3549 177.061 81.0985 176.488C81.566 175.101 82.0334 173.593 82.4858 172.085C87.6427 175.568 98.228 181.072 109.914 177.589C109.824 178.373 109.824 179.051 109.824 179.881V184.118C103.551 184.57 97.263 183.605 91.4275 181.268C89.9648 180.68 88.849 180.228 87.8387 179.76C87.2657 179.504 86.6023 179.76 86.3459 180.333C86.0896 180.906 86.3459 181.57 86.9189 181.826C87.9895 182.293 89.1506 182.761 90.6584 183.334C95.7852 185.324 101.229 186.395 106.732 186.485C108.195 186.485 109.673 186.38 111.12 186.169C111.708 186.078 112.131 185.551 112.085 184.962V179.986C112.131 178.479 112.191 177.242 112.312 176.111C112.327 175.945 112.312 175.78 112.251 175.614C112.04 175.026 111.392 174.724 110.804 174.935H110.789Z" fill="#39B715"/>
<path d="M85.4427 176.88C83.7086 176.262 81.8087 176.292 80.1047 176.97L79.7278 177.091C76.7573 178.282 74.0884 180.122 71.8869 182.444C70.3941 183.952 69.0218 185.565 67.7703 187.284C64.9958 191.054 57.773 197.84 61.1658 198.865C64.5585 199.89 77.6319 194.567 83.2412 188.204C85.9403 185.143 87.1315 182.655 87.3878 180.77C87.7648 179.172 86.9355 177.543 85.4427 176.88Z" fill="#39B715"/>
<path d="M85.8656 175.839C83.9204 175.116 81.7792 175.116 79.8341 175.839L79.3515 175.99C76.2302 177.257 73.4105 179.172 71.0884 181.615C69.5503 183.168 68.1329 184.826 66.8512 186.575C66.1878 187.465 65.2529 188.566 64.2727 189.712C60.7292 193.919 58.6333 196.497 59.2214 198.443C59.4476 199.196 60.0507 199.769 60.8197 199.95C61.257 200.071 61.7094 200.132 62.1618 200.116C67.3489 200.116 78.9143 194.808 84.026 188.973C86.2577 186.771 87.7957 183.982 88.4743 180.921C88.9266 178.825 87.8258 176.699 85.8656 175.839ZM86.2275 180.559C86.0616 181.871 85.2474 184.118 82.3372 187.405C76.8485 193.632 64.2275 198.548 61.3625 197.764C61.1665 196.769 64.4537 192.984 65.9616 191.159C66.9718 189.983 67.9218 188.852 68.6305 187.902C69.8519 186.244 71.194 184.66 72.6415 183.198C74.7526 180.966 77.3311 179.217 80.1809 178.071L80.4524 177.98C81.3118 177.679 82.2165 177.513 83.1363 177.498V177.558C83.7546 177.543 84.3728 177.634 84.9609 177.86C85.9863 178.328 86.514 179.473 86.2275 180.559Z" fill="#39B715"/>
<path d="M77.2697 192.26C79.4411 204.881 83.9195 211.757 85.8195 211.275C87.0107 210.973 90.5391 204.293 91.851 196.317C92.7256 191.642 92.4541 186.817 91.0669 182.263C80.6625 176.051 77.2396 192.275 77.2697 192.26Z" fill="#39B715"/>
<path d="M91.6087 181.283C89.3017 179.639 86.316 179.277 83.6773 180.303C78.1584 182.73 76.2132 191.657 76.1379 192.034C76.1077 192.17 76.1077 192.321 76.1379 192.456C78.0378 203.509 81.6417 210.325 84.19 211.968C84.6122 212.255 85.0947 212.421 85.6074 212.436C85.7582 212.436 85.9089 212.421 86.0597 212.375C88.2612 211.802 91.7143 203.796 92.9206 196.497C93.8555 191.627 93.569 186.621 92.0913 181.886C92.0008 181.63 91.8349 181.418 91.6087 181.283ZM90.7342 196.151C89.5279 203.434 86.5272 209.149 85.5169 210.144C84.19 209.556 80.4052 203.705 78.4148 192.305H78.3997C79.0028 189.878 80.9932 183.967 84.6272 182.384C86.4518 181.69 88.5176 181.931 90.131 183.032C91.3524 187.299 91.5635 191.793 90.7342 196.151Z" fill="#39B715"/>
<path d="M140.269 210.868C140.269 210.868 140.238 210.807 140.223 210.777C139.922 210.234 139.243 210.023 138.685 210.325C138.127 210.626 137.931 211.305 138.233 211.863C140.208 215.949 143.314 221.92 144.566 224.137C146.104 226.806 151.713 240.724 150.974 258.818C150.778 265.393 150.055 273.354 149.467 279.552C149.406 280.17 149.874 280.728 150.492 280.773H150.597C151.155 280.773 151.638 280.381 151.728 279.823C152.256 273.595 152.965 265.603 153.236 258.969C153.99 240.331 148.14 225.871 146.541 223.021C145.456 221.091 142.41 215.271 140.269 210.868Z" fill="white"/>
<path d="M149.979 285.357C149.361 285.251 148.788 285.674 148.682 286.292L148.516 287.89C147.25 300.511 146.059 312.378 146.406 318.41C144.777 320.144 136.046 328.497 116.987 330.91C95.605 333.654 54.0629 317.927 53.6558 317.761C53.5201 317.731 53.3843 317.731 53.2486 317.761C52.6304 317.761 52.1328 318.274 52.1328 318.892C52.1328 319.374 52.4495 319.812 52.9018 319.963C54.3193 320.46 89.2116 333.534 111.709 333.534C113.564 333.504 115.419 333.353 117.258 333.081C139.379 330.352 148.064 319.948 148.426 319.51C148.607 319.284 148.697 318.998 148.682 318.711C148.245 313.132 149.467 300.978 150.763 288.116L150.929 286.518C150.959 285.945 150.537 285.447 149.979 285.357Z" fill="#27449B"/>
</svg>
