<svg width="544" height="402" viewBox="0 0 544 402" fill="none" xmlns="http://www.w3.org/2000/svg">
<path d="M131.9 216.673C130.073 222.659 125.59 214.034 116.412 220.112L116.279 220.153C122.215 211.074 120.601 180.28 115.545 167.282C111.677 157.377 103.099 154.138 103.099 154.138C98.3097 178.84 72.8965 191.971 72.8965 191.971C68.8144 191.691 66.013 194.984 67.1869 199.436C68.3342 203.756 71.3624 206.035 74.8842 206.035C75.8447 211.407 76.9786 221.326 77.8457 229.471C74.7375 229.457 70.8154 229.764 68.4675 230.697C64.2253 232.377 63.1981 234.163 63.8785 236.989C63.6517 236.989 55.7676 236.909 49.2042 225.618C42.5475 214.154 46.3361 203.036 49.6578 199.476C52.9929 195.93 55.861 191.571 55.2874 184.239C54.7138 176.894 54.4736 163.376 65.8395 153.285C77.1921 143.193 90.2655 137.808 101.618 145.26C101.618 145.26 109.876 141.474 116.412 150.645C122.962 159.817 123.99 164.523 121.922 174.494C119.854 184.466 123.536 193.864 125.364 196.504C127.205 199.13 134.142 209.381 131.9 216.673Z" fill="#27449B"/>
<path d="M106.624 235.87C106.291 235.87 105.957 235.696 105.77 235.39C105.49 234.91 105.637 234.297 106.117 234.017C109.052 232.257 112.534 231.95 112.681 231.95C113.241 231.897 113.708 232.31 113.761 232.857C113.801 233.403 113.401 233.897 112.854 233.937C112.827 233.937 109.679 234.217 107.158 235.736C106.998 235.83 106.824 235.883 106.637 235.883L106.624 235.87Z" fill="#27449B"/>
<path d="M157.863 371.152C142.495 371.125 125.233 371.232 112.493 371.218C111.266 369.725 109.945 368.032 108.518 366.126C102.128 357.554 92.3491 335.158 91.9623 334.052C91.9623 334.052 91.9623 334.038 91.9623 334.012C91.9623 334.012 68.7236 353.355 52.035 345.903C52.035 345.903 40.7091 322.027 40.3889 304.11C40.0821 286.194 46.8456 262.625 57.6912 253.68C82.2239 262.318 97.1516 258.705 101.554 256.812C105.956 254.933 113.667 248.801 112.72 231.83C112.72 231.83 124.206 228.178 129.702 233.937C133.437 237.843 145.096 252.267 152.22 261.132C152.754 265.664 153.434 270.263 154.208 274.676C151.206 279.355 146.871 285.141 142.909 286.674C142.909 286.674 150.766 298.458 149.512 317.628C148.525 332.785 153.421 357.567 157.876 371.152H157.863Z" fill="#39B715"/>
<path d="M114.75 372.218C113.99 372.218 113.229 372.218 112.495 372.218C112.202 372.218 111.908 372.085 111.722 371.858C110.481 370.352 109.174 368.672 107.72 366.726C102.037 359.1 93.699 340.624 91.5379 335.625C86.7221 339.357 66.8318 353.621 51.6105 346.823C51.3971 346.729 51.2237 346.556 51.117 346.343C50.6501 345.356 39.6977 322.067 39.3775 304.137C39.0707 286.367 45.5941 262.358 57.04 252.92C57.3068 252.693 57.6804 252.627 58.0139 252.747C84.9878 262.238 99.5687 256.586 101.143 255.906C104.638 254.413 112.669 249.094 111.708 231.897C111.682 231.444 111.975 231.03 112.402 230.884C112.896 230.724 124.555 227.111 130.411 233.257C133.226 236.203 140.603 245.108 152.983 260.518C153.103 260.665 153.17 260.838 153.196 261.025C153.717 265.464 154.384 270.01 155.171 274.516C155.211 274.769 155.171 275.022 155.024 275.222C151.049 281.421 147.447 285.407 144.312 287.113C146.166 290.366 151.556 301.338 150.488 317.695C149.555 332.012 154.077 356.434 158.799 370.845C158.893 371.151 158.853 371.485 158.653 371.738C158.466 371.991 158.159 372.151 157.839 372.151C149.448 372.151 140.497 372.151 132.026 372.191C125.876 372.205 119.979 372.231 114.723 372.231L114.75 372.218ZM112.976 370.218C118.645 370.218 125.195 370.205 132.052 370.192C140.07 370.165 148.514 370.152 156.505 370.152C151.876 355.434 147.594 331.692 148.514 317.561C149.728 298.951 142.151 287.34 142.071 287.234C141.897 286.98 141.857 286.66 141.951 286.38C142.044 286.087 142.257 285.86 142.538 285.754C145.419 284.634 149.088 280.741 153.143 274.476C152.396 270.157 151.756 265.811 151.249 261.545C139.189 246.534 131.692 237.483 128.971 234.643C124.728 230.191 116.284 231.937 113.749 232.59C114.483 250.414 105.759 256.106 101.943 257.746C100.302 258.452 85.2413 264.304 57.8938 254.826C47.315 264.024 41.0984 287.42 41.3786 304.11C41.6721 320.454 51.4104 342.197 52.7711 345.156C68.6727 351.848 91.0843 333.452 91.3111 333.265C91.6046 333.012 92.0181 332.958 92.3783 333.132C92.6318 333.252 92.8186 333.465 92.9119 333.732C92.9119 333.732 92.9119 333.732 92.9119 333.745C93.2321 334.652 102.97 357.034 109.32 365.553C110.614 367.286 111.842 368.872 112.962 370.245L112.976 370.218Z" fill="#39B715"/>
<path d="M474.852 61.9548C471.024 61.9548 468.836 59.9551 468.702 59.8218C468.302 59.4485 468.275 58.8087 468.662 58.4088C469.036 58.0089 469.676 57.9822 470.076 58.3687C470.237 58.5154 474.092 61.9281 480.775 58.2221C487.285 54.6095 491.314 49.7837 492.715 43.8781C494.369 36.9593 491.954 30.0673 489.153 25.9214C486.045 21.3356 480.295 18.5093 475.493 19.1625C473.158 19.4825 470.076 20.7889 468.609 25.2015C468.436 25.7214 467.875 26.0146 467.342 25.828C466.821 25.6547 466.528 25.0815 466.715 24.5616C468.115 20.3624 471.144 17.7361 475.226 17.1762C480.749 16.4164 487.312 19.6159 490.82 24.8016C493.862 29.2942 496.477 36.786 494.676 44.3313C493.128 50.7968 488.779 56.0493 481.762 59.9552C479.094 61.4349 476.773 61.9415 474.866 61.9415L474.852 61.9548Z" fill="#27449B"/>
<path d="M458.327 66.7405C457.74 66.7405 457.14 66.7137 456.513 66.6471C455.966 66.5938 455.566 66.1006 455.619 65.554C455.673 65.0075 456.153 64.6075 456.713 64.6608C464.237 65.394 467.852 61.0615 468.439 58.8352C469.346 55.3825 468.653 52.5564 466.518 50.89C463.93 48.8637 459.741 48.9437 455.846 51.0634C455.353 51.33 454.752 51.1566 454.485 50.6634C454.219 50.1834 454.405 49.5704 454.886 49.3037C459.488 46.7975 464.531 46.7975 467.746 49.3037C470.52 51.4633 471.481 55.1292 470.374 59.3418C469.533 62.5812 465.291 66.7405 458.327 66.7405Z" fill="#27449B"/>
<path d="M457.457 45.3311C457.337 45.3311 457.204 45.3046 457.084 45.2646C446.651 41.092 440.942 32.8135 441.809 23.0953C441.862 22.5487 442.343 22.1354 442.889 22.1887C443.436 22.242 443.85 22.722 443.797 23.2686C443.01 32.0536 448.252 39.5722 457.817 43.3982C458.324 43.5982 458.578 44.1847 458.378 44.6913C458.217 45.0779 457.844 45.3178 457.444 45.3178L457.457 45.3311Z" fill="#27449B"/>
<path d="M456.601 50.5702C456.254 50.5702 455.907 50.3835 455.72 50.0502C454.039 47.0241 454.787 43.5314 454.813 43.3848C454.933 42.8516 455.467 42.505 456.001 42.625C456.534 42.745 456.881 43.2781 456.761 43.8113C456.761 43.838 456.147 46.7175 457.455 49.0771C457.721 49.557 457.548 50.1703 457.068 50.4369C456.908 50.5169 456.748 50.5568 456.587 50.5568L456.601 50.5702Z" fill="#27449B"/>
<path d="M461.367 49.4238C460.913 49.4238 460.499 49.1171 460.393 48.6505C459.326 44.038 460.393 41.2652 460.433 41.1586C460.633 40.6387 461.22 40.3855 461.727 40.5988C462.247 40.7987 462.487 41.3853 462.287 41.8918C462.287 41.9052 461.42 44.2514 462.327 48.1973C462.447 48.7305 462.114 49.2771 461.58 49.3971C461.5 49.4105 461.433 49.4238 461.353 49.4238H461.367Z" fill="#27449B"/>
<path d="M475.067 56.3557C474.76 56.3557 474.453 56.2092 474.253 55.9426C473.933 55.4893 474.026 54.8627 474.48 54.5427C476.12 53.3696 476.787 51.0101 476.214 48.3839C475.587 45.4777 473.332 42.0516 468.877 41.1451C468.33 41.0385 467.983 40.5054 468.09 39.9722C468.196 39.4256 468.743 39.0789 469.264 39.1989C474.666 40.3053 477.401 44.4514 478.161 47.9707C478.895 51.3834 477.921 54.5294 475.627 56.1691C475.453 56.3024 475.24 56.3557 475.04 56.3557H475.067Z" fill="#27449B"/>
<path d="M494.209 38.3457C493.849 38.3457 493.502 38.1591 493.328 37.8258C490.807 33.1466 487.526 30.2405 483.563 29.2007C479.361 28.0809 474.399 29.1342 469.61 32.1336C469.143 32.4269 468.529 32.2801 468.236 31.8135C467.942 31.347 468.089 30.7339 468.556 30.4406C473.825 27.1345 479.348 26.0147 484.084 27.2678C488.593 28.4676 492.301 31.6936 495.089 36.8793C495.356 37.3593 495.169 37.9725 494.689 38.2391C494.542 38.3191 494.382 38.3591 494.222 38.3591L494.209 38.3457Z" fill="#27449B"/>
<path d="M405.017 38.8255C404.777 38.8255 404.537 38.7456 404.35 38.5723C398.614 33.4265 397.747 23.8283 400.242 17.8827C401.829 14.0834 404.63 12.0171 407.979 12.2171C408.526 12.2437 408.953 12.7237 408.913 13.2703C408.873 13.8168 408.406 14.2433 407.859 14.2034C404.484 14.0167 402.816 16.8963 402.082 18.6426C399.855 23.975 400.762 32.6534 405.684 37.0792C406.098 37.4525 406.125 38.0789 405.764 38.4922C405.564 38.7188 405.297 38.8255 405.017 38.8255Z" fill="#27449B"/>
<path d="M444.518 44.1313C440.836 44.1313 437.661 42.6648 435.313 39.852C431.684 35.5328 430.524 28.5074 432.258 21.5487C432.391 21.0154 432.938 20.6954 433.472 20.8154C434.005 20.9487 434.339 21.4953 434.206 22.0286C432.618 28.3874 433.632 34.7196 436.847 38.5723C438.981 41.1185 441.916 42.3449 445.371 42.105C445.918 42.065 446.399 42.4782 446.439 43.0381C446.479 43.5846 446.065 44.0646 445.505 44.1046C445.171 44.1313 444.838 44.1445 444.504 44.1445L444.518 44.1313Z" fill="#27449B"/>
<path d="M435.941 40.7053C430.725 40.7053 425.963 37.8258 423.401 33.08C420.627 27.9343 421.053 21.9621 424.562 17.123C424.882 16.6831 425.509 16.5764 425.963 16.8963C426.416 17.2163 426.51 17.8429 426.189 18.2961C423.148 22.5087 422.761 27.6811 425.176 32.1336C427.47 36.3862 431.832 38.8923 436.475 38.7056C437.022 38.679 437.489 39.1055 437.515 39.6654C437.542 40.212 437.115 40.6786 436.555 40.7053C436.341 40.7053 436.141 40.7053 435.941 40.7053Z" fill="#27449B"/>
<path d="M465.888 50.3302C465.674 50.3302 465.474 50.2636 465.288 50.1303C464.847 49.7971 464.754 49.1704 465.087 48.7305C468.356 44.3846 469.036 34.1732 466.662 24.9749C465.194 19.2693 461.272 9.05777 451.627 4.73856C436.339 -2.10019 428.482 6.2849 428.402 6.36489C428.082 6.72482 427.535 6.79148 427.134 6.5382C426.748 6.29824 417.61 0.792664 411.086 10.7908C407.511 16.2698 407.164 23.9218 410.192 30.2673C412.647 35.3997 416.889 38.639 421.825 39.1589C422.372 39.2122 422.772 39.7055 422.719 40.2521C422.665 40.7987 422.185 41.1985 421.625 41.1452C415.969 40.5586 411.153 36.9061 408.391 31.1338C405.07 24.1617 405.47 15.7498 409.419 9.69761C415.915 -0.260569 424.933 3.19222 427.495 4.45866C429.682 2.49902 438.033 -3.55327 452.454 2.89889C462.873 7.5647 467.048 18.4161 468.609 24.4683C471.157 34.3465 470.357 45.0512 466.702 49.917C466.501 50.1836 466.208 50.3168 465.901 50.3168L465.888 50.3302Z" fill="#27449B"/>
<path d="M434.285 89.8696H434.272C427.455 89.7763 419.024 88.5766 414.221 80.1248C409.512 71.833 406.337 46.8775 409.552 32.7201C409.672 32.1869 410.206 31.8403 410.753 31.9603C411.287 32.0803 411.633 32.6134 411.513 33.16C408.445 46.6775 411.513 71.313 415.969 79.1382C420.265 86.7102 428.029 87.7767 434.312 87.87C434.859 87.87 435.312 88.3366 435.299 88.8832C435.299 89.4297 434.845 89.8696 434.298 89.8696H434.285Z" fill="#27449B"/>
<path d="M435.019 116.691C432.617 116.691 431.07 114.972 429.829 111.172C428.949 108.453 428.962 105.507 428.989 101.441V101.161C429.002 97.9482 429.016 93.9356 428.589 88.6566C428.549 88.11 428.962 87.6302 429.509 87.5768C430.056 87.5369 430.536 87.9367 430.59 88.4966C431.017 93.869 431.003 97.9216 430.99 101.174V101.454C430.963 105.334 430.937 108.146 431.724 110.559C433.218 115.132 434.605 115.052 436.7 114.385C440.835 113.066 457.043 104.534 457.043 102.134C457.043 101.787 457.043 101.201 457.043 100.415V99.0547C456.883 86.577 456.857 69.5134 458.177 65.3542C458.337 64.8209 458.898 64.541 459.431 64.701C459.952 64.861 460.245 65.4343 460.085 65.9542C459.178 68.8336 458.818 79.9649 459.031 99.0414V100.401C459.058 101.201 459.058 101.787 459.058 102.134C459.058 106.853 438.447 115.932 437.326 116.278C436.486 116.545 435.726 116.691 435.032 116.691H435.019Z" fill="#27449B"/>
<path d="M353.926 183.559C353.779 183.559 353.633 183.532 353.499 183.466C353.006 183.226 352.792 182.626 353.032 182.133C369.334 148.139 391.426 108.773 417.719 106.173C418.266 106.12 418.76 106.52 418.813 107.067C418.867 107.613 418.466 108.106 417.919 108.16C392.626 110.652 370.922 149.459 354.833 182.986C354.66 183.346 354.3 183.559 353.926 183.559Z" fill="#27449B"/>
<path d="M467.513 123.384C463.898 132.688 459.055 134.541 455.84 133.688C452.625 132.848 449.757 129.809 445.608 125.077C441.473 120.344 439.525 118.731 433.855 118.984C428.199 119.238 425.491 124.823 418.728 126.676C411.964 128.543 412.031 124.143 415.179 113.332C418.621 101.507 423.543 99.4812 429.987 101.161C429.96 105.32 429.92 108.226 430.774 110.852C432.308 115.558 434.069 116.265 437.004 115.318C439.939 114.385 458.041 105.6 458.041 102.121C458.041 101.601 458.041 100.521 458.015 99.0413C458.388 99.1213 465.592 100.681 467.673 105.64C469.127 109.106 470.048 116.838 467.513 123.384Z" fill="#27449B"/>
<path d="M457.255 134.861C456.535 134.861 455.961 134.755 455.587 134.648C452.079 133.728 449.064 130.515 444.862 125.73C440.9 121.197 439.206 119.757 433.91 119.984C431.241 120.104 429.254 121.584 426.959 123.303C424.811 124.903 422.397 126.716 419.008 127.636C417.274 128.116 414.806 128.569 413.299 127.049C411.271 124.996 412.112 120.357 414.233 113.052C417.461 101.947 422.25 98.108 430.254 100.188C430.694 100.308 431.001 100.708 431.001 101.161V101.441C430.975 105.32 430.948 108.133 431.735 110.546C433.229 115.118 434.617 115.038 436.711 114.372C440.846 113.052 457.055 104.52 457.055 102.121C457.055 101.774 457.055 101.188 457.055 100.401V99.0412C457.041 98.7346 457.175 98.4547 457.415 98.2547C457.655 98.0681 457.962 97.9881 458.255 98.0547C459.083 98.228 466.393 99.9344 468.621 105.24C470.035 108.599 471.235 116.585 468.474 123.73C464.765 133.275 460.016 134.848 457.282 134.848L457.255 134.861ZM434.937 117.958C440.193 117.958 442.367 119.851 446.369 124.423C450.318 128.929 453.133 131.955 456.094 132.728C459.042 133.515 463.338 131.369 466.58 123.023C468.994 116.785 468.127 109.333 466.753 106.027C465.352 102.681 461.137 101.001 459.029 100.348V100.388C459.029 101.187 459.043 101.774 459.043 102.121C459.043 106.84 438.432 115.918 437.311 116.265C433.523 117.478 431.428 116.051 429.827 111.159C428.987 108.559 428.96 105.747 428.987 101.947C423.624 100.774 419.369 102.534 416.14 113.612C414.646 118.758 413.299 124.223 414.713 125.65C415.287 126.223 416.54 126.25 418.461 125.716C421.476 124.89 423.651 123.263 425.745 121.704C428.2 119.864 430.521 118.131 433.816 117.984C434.203 117.971 434.577 117.958 434.937 117.958Z" fill="#27449B"/>
<path d="M502.092 240.269C483.362 240.269 443.995 228.018 428.28 214.474C422.718 209.674 420.236 204.969 420.917 200.463C420.997 199.916 421.504 199.543 422.05 199.623C422.597 199.703 422.971 200.21 422.891 200.756C422.317 204.529 424.572 208.635 429.588 212.954C447.904 228.738 496.222 241.215 508.082 237.576C515.819 235.203 521.329 230.191 524.477 222.645C533.588 200.796 520.915 162.096 510.79 142.847C499.464 121.331 483.722 108.12 467.581 106.627C467.034 106.573 466.62 106.093 466.674 105.534C466.727 104.987 467.221 104.574 467.767 104.627C484.589 106.187 500.918 119.784 512.564 141.914C523.276 162.27 535.763 200.77 526.331 223.405C522.943 231.524 517.006 236.923 508.682 239.469C506.988 239.989 504.747 240.229 502.105 240.229L502.092 240.269Z" fill="#27449B"/>
<path d="M505.56 202.022C505.44 202.022 505.333 202.009 505.213 201.956C491.166 196.743 473.877 189.731 464.792 181.586C456.014 173.721 444.608 171.935 436.404 177.12C435.937 177.414 435.324 177.28 435.017 176.814C434.723 176.347 434.857 175.734 435.324 175.427C444.301 169.748 456.681 171.628 466.126 180.093C474.957 188.012 492.033 194.93 505.907 200.076C506.427 200.263 506.694 200.849 506.494 201.356C506.347 201.756 505.96 202.009 505.56 202.009V202.022Z" fill="#27449B"/>
<path d="M482.243 183.559C482.243 183.559 482.15 183.559 482.097 183.559C481.55 183.479 481.163 182.973 481.243 182.426C481.256 182.293 483.084 169.295 482.737 160.11C482.71 159.564 483.151 159.097 483.698 159.07C484.204 159.017 484.711 159.484 484.738 160.03C485.085 169.388 483.244 182.573 483.217 182.706C483.151 183.213 482.724 183.572 482.23 183.572L482.243 183.559Z" fill="#27449B"/>
<path d="M456.604 60.4084C456.604 61.8614 457.791 63.0478 459.245 63.0478C460.699 63.0478 461.886 61.8614 461.886 60.4084C461.886 58.9553 460.699 57.7689 459.245 57.7689C457.791 57.7689 456.604 58.9553 456.604 60.4084Z" fill="#39B715"/>
<path d="M429.279 127.689C428.226 130.036 429.439 132.449 431.787 133.488C434.135 134.528 436.737 133.835 437.79 131.489C438.844 129.142 437.79 126.383 435.443 125.33C433.095 124.277 430.333 125.33 429.279 127.676V127.689Z" fill="#39B715"/>
<path d="M434.754 144.02C433.447 141.807 430.779 141.394 428.564 142.713C426.35 144.02 425.416 146.553 426.723 148.766C428.031 150.979 430.886 151.712 433.113 150.405C435.328 149.099 436.062 146.246 434.754 144.02Z" fill="#39B715"/>
<path d="M428.906 172.308C428.412 172.308 427.972 171.935 427.919 171.428C427.772 170.228 427.131 166.802 426.011 165.309C424.37 163.136 417.38 152.205 414.712 143.74C414.552 143.22 414.845 142.647 415.365 142.487C415.886 142.313 416.459 142.62 416.619 143.14C419.207 151.352 426.011 161.99 427.612 164.109C429.293 166.336 429.88 171.001 429.906 171.188C429.973 171.735 429.586 172.241 429.039 172.308C428.999 172.308 428.959 172.308 428.919 172.308H428.906Z" fill="#27449B"/>
<path d="M420.094 196.09C426.003 199.876 428.018 199.996 429.685 199.21C431.353 198.423 446.307 188.025 437.609 174.574C436.382 172.681 431.927 171.895 431.927 171.895C431.927 171.895 435.382 187.718 420.107 196.09H420.094Z" fill="#39B715"/>
<path d="M427.998 200.609C426.224 200.609 423.809 199.663 419.554 196.93C419.26 196.743 419.087 196.41 419.1 196.05C419.1 195.704 419.314 195.384 419.621 195.21C434.081 187.305 430.986 172.268 430.946 172.108C430.88 171.788 430.973 171.441 431.2 171.201C431.427 170.961 431.76 170.855 432.094 170.908C432.587 171.002 437.03 171.828 438.444 174.028C441.218 178.32 441.992 182.746 440.711 187.185C438.55 194.69 431.147 199.636 430.106 200.116C429.466 200.423 428.799 200.609 427.998 200.609ZM422.022 196.117C426.798 198.996 428.225 198.796 429.252 198.303C430.146 197.89 436.856 193.331 438.777 186.625C439.884 182.773 439.204 178.893 436.749 175.107C436.216 174.281 434.548 173.601 433.094 173.188C433.508 177.307 433.508 188.918 422.008 196.104L422.022 196.117Z" fill="#39B715"/>
<path d="M427.002 69.0468C427.002 69.0468 426.962 69.0468 426.949 69.0468C426.082 69.0068 421.653 68.6868 420.105 67.1405C418.411 65.4474 418.184 61.2216 419.131 48.3439C419.171 47.7974 419.678 47.3842 420.199 47.4242C420.746 47.4642 421.159 47.944 421.119 48.4905C420.412 58.1821 420.225 64.4344 421.506 65.7275C422.253 66.474 425.201 66.9539 427.042 67.0472C427.589 67.0739 428.016 67.5538 427.989 68.1004C427.963 68.6336 427.522 69.0468 426.989 69.0468H427.002Z" fill="#27449B"/>
<path d="M417.81 163.883C417.53 163.883 417.237 163.763 417.05 163.523C413.915 159.79 404.11 153.165 389.996 147.432C389.489 147.219 389.236 146.646 389.449 146.126C389.662 145.619 390.249 145.366 390.756 145.579C403.31 150.685 414.502 157.377 418.584 162.243C418.944 162.67 418.891 163.296 418.464 163.656C418.277 163.816 418.05 163.896 417.824 163.896L417.81 163.883Z" fill="#27449B"/>
<path d="M407.339 167.002C407.086 167.002 406.819 166.896 406.619 166.709C402.804 162.83 392.398 156.737 382.98 153.858C382.447 153.698 382.153 153.138 382.313 152.605C382.473 152.072 383.034 151.778 383.567 151.938C393.586 155.004 404.071 161.257 408.046 165.296C408.433 165.696 408.433 166.322 408.046 166.709C407.846 166.896 407.593 166.989 407.339 166.989V167.002Z" fill="#27449B"/>
<path d="M403.605 171.908C403.392 171.908 403.192 171.841 403.005 171.708C401.898 170.881 392.613 165.429 384.996 162.683C384.476 162.496 384.209 161.923 384.395 161.403C384.582 160.883 385.156 160.617 385.676 160.803C393.507 163.616 402.912 169.135 404.206 170.108C404.646 170.442 404.739 171.068 404.406 171.508C404.206 171.775 403.912 171.908 403.605 171.908Z" fill="#27449B"/>
<path d="M397.694 176.587C397.587 176.587 397.48 176.574 397.387 176.534C397.32 176.507 391.01 174.454 383.927 172.868C383.393 172.748 383.046 172.215 383.166 171.668C383.286 171.135 383.82 170.788 384.367 170.908C391.544 172.508 397.947 174.601 398.014 174.614C398.534 174.788 398.828 175.347 398.654 175.881C398.521 176.307 398.121 176.574 397.707 176.574L397.694 176.587Z" fill="#27449B"/>
<path d="M416.504 194.611C409.914 194.611 405.832 188.412 402.75 183.733C401.55 181.92 400.429 180.2 399.429 179.32C399.015 178.96 398.975 178.32 399.349 177.907C399.709 177.494 400.349 177.454 400.763 177.827C401.95 178.88 403.097 180.613 404.431 182.639C407.766 187.692 411.902 193.984 418.759 192.331C419.292 192.211 419.839 192.531 419.973 193.064C420.106 193.597 419.773 194.144 419.239 194.277C418.292 194.504 417.385 194.611 416.518 194.611H416.504Z" fill="#27449B"/>
<path d="M431.856 83.1508C427.054 83.1508 424.066 80.2581 423.199 74.7791C423.119 74.2325 423.479 73.726 424.026 73.6327C424.079 73.6327 429.268 72.7527 435.445 69.8466C435.925 69.62 436.485 69.8067 436.739 70.2599C436.832 70.4332 439.113 74.5391 438.126 78.0585C437.699 79.5782 436.752 80.7513 435.298 81.5645C434.818 81.8311 434.204 81.6578 433.937 81.1778C433.671 80.6979 433.844 80.0847 434.324 79.8181C435.298 79.2715 435.912 78.525 436.192 77.5252C436.739 75.6055 435.925 73.286 435.392 72.0729C430.909 74.0859 427.094 75.0457 425.346 75.419C426.213 79.3383 428.375 81.2578 432.003 81.1512H432.016C432.563 81.1512 433.004 81.5911 433.017 82.1376C433.017 82.6842 432.59 83.1508 432.03 83.1508C431.963 83.1508 431.896 83.1508 431.83 83.1508H431.856Z" fill="#27449B"/>
<path d="M431.751 50.8368C431.591 52.7698 430.35 54.2495 428.963 54.1428C427.576 54.0362 426.588 52.3699 426.735 50.437C426.895 48.504 428.136 47.0243 429.523 47.1309C430.911 47.2376 431.898 48.9038 431.751 50.8368Z" fill="#27449B"/>
<path d="M416.914 50.3569C416.914 52.1165 415.887 53.543 414.633 53.543C413.379 53.543 412.352 52.1165 412.352 50.3569C412.352 48.5972 413.379 47.1707 414.633 47.1707C415.887 47.1707 416.914 48.5972 416.914 50.3569Z" fill="#27449B"/>
<path d="M102.822 186.105C102.942 188.038 101.902 189.678 100.528 189.758C99.1403 189.838 97.9264 188.332 97.8063 186.399C97.6862 184.466 98.7268 182.826 100.101 182.746C101.488 182.666 102.702 184.172 102.822 186.105Z" fill="#27449B"/>
<path d="M116.33 184.106C116.437 185.866 115.503 187.345 114.236 187.425C112.982 187.505 111.875 186.132 111.768 184.372C111.661 182.613 112.595 181.133 113.862 181.053C115.116 180.973 116.224 182.346 116.33 184.106Z" fill="#27449B"/>
<path d="M313.808 154.938C313.808 154.938 313.702 154.938 313.635 154.925C313.088 154.831 312.728 154.311 312.821 153.765C314.422 144.42 313.675 138.128 310.513 134.542C306.058 129.476 303.256 123.01 302.216 115.318C302.136 114.772 302.522 114.265 303.069 114.199C303.616 114.132 304.123 114.505 304.19 115.052C305.19 122.344 307.818 128.449 312.021 133.222C315.596 137.288 316.503 144.127 314.795 154.111C314.715 154.605 314.288 154.938 313.808 154.938Z" fill="#27449B"/>
<path d="M299.604 131.222C299.471 131.222 299.338 131.195 299.204 131.142C292.748 128.302 284.09 120.544 280.354 110.213C280.168 109.693 280.435 109.119 280.955 108.933C281.475 108.746 282.049 109.013 282.235 109.533C285.784 119.318 293.935 126.649 300.018 129.316C300.525 129.542 300.752 130.129 300.525 130.635C300.365 131.009 299.991 131.235 299.604 131.235V131.222Z" fill="#27449B"/>
<path d="M282.712 141.58C282.578 141.58 282.445 141.553 282.325 141.5C281.818 141.287 281.578 140.7 281.804 140.194C282.712 138.061 285.633 132.742 292.93 129.329C293.437 129.089 294.024 129.316 294.264 129.809C294.504 130.315 294.278 130.902 293.784 131.142C287.101 134.275 284.473 139.074 283.645 140.994C283.485 141.38 283.112 141.607 282.725 141.607L282.712 141.58Z" fill="#27449B"/>
<path d="M288.327 134.368C288.167 134.368 287.994 134.328 287.834 134.235C285.126 132.715 273.066 120.984 270.638 112.879C270.478 112.346 270.785 111.786 271.305 111.639C271.839 111.479 272.386 111.786 272.546 112.305C274.747 119.651 286.393 131.142 288.808 132.488C289.288 132.755 289.461 133.368 289.195 133.848C289.008 134.182 288.674 134.355 288.314 134.355L288.327 134.368Z" fill="#27449B"/>
<path d="M283.767 139.554C283.593 139.554 283.42 139.514 283.273 139.421C279.431 137.208 272.494 130.129 270.213 120.571C270.08 120.038 270.413 119.491 270.96 119.371C271.494 119.238 272.041 119.571 272.161 120.118C274.295 129.063 280.725 135.648 284.274 137.701C284.754 137.981 284.914 138.594 284.634 139.061C284.447 139.381 284.113 139.567 283.767 139.567V139.554Z" fill="#27449B"/>
<path d="M296.345 165.349C296.185 165.349 296.025 165.309 295.878 165.229C287.727 160.843 275.014 147.113 267.437 136.368C267.116 135.915 267.223 135.288 267.677 134.981C268.13 134.661 268.757 134.768 269.064 135.221C276.508 145.779 288.928 159.23 296.825 163.483C297.319 163.749 297.492 164.349 297.225 164.843C297.038 165.176 296.705 165.363 296.345 165.363V165.349Z" fill="#27449B"/>
<path d="M363.006 197.89C362.792 197.89 362.579 197.823 362.392 197.677C353 190.398 344.289 176.814 341.434 172.361L341.301 172.148C337.779 166.656 327.907 154.031 321.571 152.338C321.037 152.192 320.717 151.645 320.864 151.112C321.011 150.579 321.557 150.259 322.091 150.405C330.936 152.765 342.875 170.895 342.995 171.068L343.129 171.281C345.943 175.667 354.508 189.025 363.633 196.104C364.073 196.437 364.153 197.077 363.806 197.503C363.606 197.757 363.312 197.89 363.019 197.89H363.006Z" fill="#27449B"/>
<path d="M319.996 217.433C319.796 217.433 319.596 217.38 319.423 217.246C315.607 214.58 302.641 202.556 296.878 189.505C292.262 179.04 292.529 170.775 297.571 167.375C298.038 167.069 298.652 167.189 298.959 167.642C299.266 168.095 299.146 168.722 298.692 169.028C295.464 171.201 293.769 177.507 298.705 188.692C304.348 201.476 317.382 213.367 320.57 215.607C321.024 215.927 321.13 216.553 320.81 216.993C320.61 217.273 320.303 217.42 319.983 217.42L319.996 217.433Z" fill="#27449B"/>
<path d="M363.382 236.976C352.122 236.976 339.369 231.55 323.347 220.126C322.894 219.806 322.787 219.179 323.121 218.726C323.454 218.273 324.068 218.166 324.521 218.499C344.278 232.59 358.792 237.349 371.586 233.91C383.979 230.577 388.314 224.978 388.354 224.925C388.688 224.485 389.315 224.392 389.755 224.725C390.195 225.058 390.289 225.671 389.955 226.125C389.769 226.378 385.246 232.324 372.093 235.856C369.278 236.616 366.383 237.003 363.382 237.003V236.976Z" fill="#27449B"/>
<path d="M390.917 256.719C390.917 256.719 390.836 256.719 390.81 256.719C390.263 256.666 389.863 256.159 389.929 255.613C390.836 247.428 389.756 238.816 388.515 228.858C386.848 215.593 384.967 200.543 387.421 182.426C387.501 181.88 387.995 181.493 388.542 181.573C389.089 181.653 389.476 182.146 389.396 182.693C386.981 200.543 388.849 215.447 390.503 228.604C391.77 238.696 392.864 247.414 391.93 255.839C391.877 256.346 391.437 256.733 390.943 256.733L390.917 256.719Z" fill="#27449B"/>
<path d="M497.942 261.598C497.436 261.598 497.009 261.225 496.955 260.719C496.955 260.612 495.795 250.587 496.955 238.976C497.009 238.429 497.489 238.029 498.049 238.083C498.596 238.136 498.996 238.629 498.943 239.176C497.809 250.574 498.943 260.399 498.943 260.492C499.01 261.038 498.609 261.532 498.063 261.598C498.023 261.598 497.983 261.598 497.942 261.598Z" fill="#27449B"/>
<path d="M236.319 256.719C235.839 256.719 235.412 256.373 235.332 255.893C233.918 247.654 232.424 216.313 232.424 194.917C232.424 173.521 233.264 144.526 235.159 131.315C236.172 124.223 247.578 122.57 265.654 122.184C266.188 122.157 266.668 122.61 266.682 123.157C266.682 123.703 266.255 124.17 265.708 124.183C251.38 124.49 238.013 125.596 237.16 131.609C235.279 144.726 234.452 172.868 234.452 194.93C234.452 216.993 235.932 247.401 237.333 255.559C237.426 256.106 237.066 256.626 236.519 256.719C236.466 256.719 236.399 256.733 236.346 256.733L236.319 256.719Z" fill="#39B715"/>
<path d="M312.341 122.451C311.821 122.451 311.394 122.051 311.341 121.531C311.301 120.984 311.701 120.504 312.261 120.451C315.69 120.171 318.704 119.904 321.146 119.691C322.733 119.544 324.067 119.438 325.108 119.344C339.982 118.131 385.446 119.331 385.913 119.344C386.46 119.358 386.9 119.824 386.886 120.371C386.873 120.917 386.419 121.397 385.859 121.344C385.406 121.344 340.049 120.131 325.281 121.344C324.241 121.424 322.92 121.544 321.332 121.691C318.891 121.904 315.863 122.184 312.435 122.451C312.408 122.451 312.381 122.451 312.354 122.451H312.341Z" fill="#39B715"/>
<path d="M540.795 283.874C536.819 283.874 526.547 279.835 502.282 269.01C495.158 265.837 488.995 263.091 487.594 262.771C485.686 262.345 468.704 263.171 452.269 263.971C429.551 265.078 403.804 266.344 397.547 265.504C386.728 264.038 345.747 263.865 331.807 264.904L331.513 264.931C269.214 269.584 248.057 266.757 241.28 263.558C240.786 263.318 240.559 262.731 240.799 262.225C241.04 261.732 241.627 261.505 242.133 261.745C248.697 264.838 269.508 267.557 331.366 262.931L331.66 262.905C346.027 261.838 386.648 262.011 397.814 263.518C403.871 264.331 429.537 263.078 452.162 261.971C473.04 260.945 485.953 260.345 488.021 260.812C489.542 261.158 494.477 263.345 503.082 267.171C515.342 272.636 538.047 282.768 541.128 281.875C541.649 279.982 533.258 270.503 529.202 265.918C524.666 260.798 521.865 257.572 521.345 256.013C520.051 252.093 520.237 237.576 520.237 236.963C520.237 236.416 520.691 235.976 521.238 235.976H521.251C521.798 235.976 522.252 236.443 522.238 236.989C522.185 241.095 522.238 252.4 523.239 255.386C523.653 256.639 527.241 260.692 530.696 264.598C540.328 275.502 544.65 280.888 542.609 283.248C542.262 283.648 541.689 283.861 540.768 283.861L540.795 283.874Z" fill="#39B715"/>
<path d="M520.758 155.684C520.211 155.684 519.771 155.258 519.757 154.711C519.757 154.631 519.544 146.659 519.757 133.862C519.824 129.316 519.131 126.436 517.556 124.823C515.449 122.65 511.607 122.597 506.311 122.517L504.47 122.49C503.923 122.49 503.482 122.024 503.482 121.477C503.482 120.93 503.896 120.464 504.496 120.491L506.337 120.517C511.9 120.597 516.302 120.664 518.997 123.437C520.958 125.463 521.839 128.782 521.759 133.902C521.558 146.659 521.759 154.591 521.759 154.671C521.772 155.218 521.332 155.684 520.785 155.698H520.758V155.684Z" fill="#39B715"/>
<path d="M151.807 205.009C151.713 205.009 151.62 205.009 151.527 204.969C150.993 204.822 150.686 204.262 150.833 203.729C152.7 197.183 149.646 186.159 145.79 178.133C145.55 177.64 145.764 177.04 146.257 176.8C146.751 176.56 147.351 176.774 147.591 177.267C151.313 185.026 154.902 196.743 152.754 204.275C152.634 204.715 152.234 204.995 151.793 204.995L151.807 205.009Z" fill="#27449B"/>
<path d="M157.917 207.595C157.797 207.595 157.663 207.568 157.543 207.515C157.036 207.302 156.783 206.728 156.996 206.208C159.264 200.663 158.651 190.225 155.542 181.373C155.356 180.853 155.636 180.28 156.156 180.093C156.676 179.92 157.25 180.186 157.437 180.706C160.692 189.971 161.292 201.009 158.864 206.955C158.704 207.341 158.33 207.582 157.944 207.582L157.917 207.595Z" fill="#27449B"/>
<path d="M137.949 215.593C137.495 215.593 137.082 215.273 136.975 214.82C135.334 207.595 138.349 202.089 142.191 200.916C145.006 200.063 148.848 201.369 151.209 207.581C151.409 208.101 151.142 208.675 150.635 208.875C150.115 209.075 149.541 208.808 149.341 208.301C147.767 204.182 145.246 202.089 142.765 202.836C139.79 203.729 137.549 208.301 138.923 214.38C139.043 214.913 138.709 215.46 138.162 215.58C138.082 215.593 138.015 215.607 137.935 215.607L137.949 215.593Z" fill="#27449B"/>
<path d="M149.552 234.936C149.432 234.936 149.298 234.91 149.178 234.856C144.202 232.817 137.159 225.858 137.425 218.619C137.452 218.073 137.906 217.606 138.466 217.66C139.013 217.673 139.453 218.139 139.426 218.699C139.186 225.245 146.03 231.404 149.938 233.003C150.445 233.217 150.699 233.803 150.485 234.31C150.325 234.696 149.952 234.923 149.565 234.923L149.552 234.936Z" fill="#27449B"/>
<path d="M162.146 335.038C154.996 335.038 150.487 332.532 150.193 332.359C149.713 332.079 149.553 331.479 149.82 330.999C150.1 330.519 150.7 330.346 151.181 330.626C151.287 330.692 162.613 336.945 177.928 328.853C189.147 322.92 188.893 307.43 185.065 286.007C181.676 267.051 173.859 247.841 170.657 240.469L170.524 240.162C167.936 234.203 167.162 232.404 168.523 222.379C169.75 213.274 168.416 201.703 164.628 188.918C164.468 188.385 164.774 187.838 165.308 187.678C165.842 187.518 166.389 187.825 166.549 188.358C170.417 201.409 171.778 213.274 170.511 222.659C169.23 232.137 169.83 233.523 172.378 239.376L172.512 239.682C175.74 247.121 183.624 266.504 187.053 285.674C190.268 303.644 192.562 323.414 178.888 330.639C172.498 334.025 166.789 335.065 162.173 335.065L162.146 335.038Z" fill="#27449B"/>
<path d="M161.209 304.391C160.889 304.391 160.569 304.23 160.382 303.951C158.782 301.604 155.5 288.273 153.205 274.849C152.405 270.317 151.738 265.731 151.204 261.252C150.004 251.16 149.737 242.962 150.391 236.883C150.444 236.336 150.951 235.936 151.498 235.99C152.045 236.043 152.445 236.536 152.392 237.096C151.751 243.015 152.031 251.067 153.205 261.012C153.726 265.451 154.393 269.997 155.18 274.503C157.714 289.367 160.943 301.204 162.037 302.831C162.343 303.284 162.223 303.911 161.77 304.217C161.596 304.337 161.396 304.391 161.209 304.391Z" fill="#27449B"/>
<path d="M140.986 283.901C140.625 283.901 140.292 283.714 140.105 283.381C140.038 283.261 133.395 271.09 128.219 265.637C127.832 265.237 127.859 264.611 128.259 264.224C128.659 263.838 129.286 263.865 129.673 264.264C135.036 269.903 141.599 281.928 141.866 282.434C142.133 282.914 141.946 283.527 141.466 283.794C141.319 283.874 141.146 283.914 140.986 283.914V283.901Z" fill="white"/>
<path d="M93.4804 332.745C93.2402 332.745 93.0001 332.665 92.8134 332.492C92.3998 332.119 92.3731 331.492 92.7466 331.079L94.7077 328.919C93.1602 325.667 85.9031 309.949 81.6209 293.606C81.4875 293.072 81.7943 292.526 82.3413 292.379C82.8749 292.246 83.4218 292.552 83.5686 293.099C88.3044 311.162 96.7354 328.479 96.8154 328.653C96.9888 329.026 96.9355 329.452 96.6554 329.759L94.2408 332.425C94.0407 332.638 93.7739 332.758 93.4937 332.758L93.4804 332.745Z" fill="white"/>
<path d="M70.0847 372.178C69.7646 372.178 69.4578 372.031 69.2577 371.738C69.1776 371.632 61.4269 360.287 57.5316 351.662C57.3048 351.155 57.5316 350.569 58.0252 350.342C58.5321 350.115 59.1191 350.342 59.3458 350.835C63.1745 359.3 70.8318 370.498 70.8985 370.605C71.2053 371.058 71.0986 371.685 70.645 371.991C70.4716 372.111 70.2715 372.165 70.0847 372.165V372.178Z" fill="#27449B"/>
<path d="M146.92 223.659C145.332 223.659 143.665 222.712 143.025 220.433C141.637 215.5 142.104 212.567 144.425 211.727C145.733 211.248 147 211.354 148.094 212.034C149.788 213.087 150.935 215.473 151.269 218.566C151.562 221.326 149.641 223.205 147.68 223.579C147.427 223.632 147.173 223.645 146.92 223.645V223.659ZM145.106 213.607C144.012 214.007 143.945 216.353 144.946 219.899C145.319 221.206 146.2 221.859 147.294 221.632C148.401 221.419 149.441 220.379 149.268 218.793C149.014 216.38 148.147 214.447 147.027 213.74C146.453 213.381 145.826 213.341 145.106 213.607Z" fill="#27449B"/>
<path d="M62.1596 252.013C61.8261 252.013 61.5059 251.853 61.3058 251.547C61.0123 251.08 61.1591 250.467 61.626 250.174C67.5757 246.441 75.7133 242.895 78.0878 241.895C77.741 237.856 75.9934 218.046 74.4059 209.088C74.3125 208.541 74.6727 208.022 75.2197 207.928C75.7666 207.835 76.2869 208.195 76.3803 208.741C78.1679 218.793 80.1289 242.228 80.1556 242.455C80.1956 242.895 79.9421 243.295 79.5419 243.468C79.4485 243.508 69.5768 247.574 62.7066 251.88C62.5465 251.987 62.3597 252.04 62.1729 252.04L62.1596 252.013Z" fill="#27449B"/>
<path d="M107.183 205.009C106.756 205.009 106.369 204.742 106.235 204.315C106.062 203.795 106.355 203.222 106.889 203.062C108.09 202.676 111.318 199.863 111.772 198.85C111.158 197.517 109.944 193.944 108.717 187.852C108.61 187.305 108.957 186.785 109.504 186.679C110.037 186.572 110.571 186.919 110.678 187.465C111.972 193.957 113.266 197.397 113.653 198.17C113.786 198.45 113.906 198.916 113.626 199.556C112.906 201.276 109.144 204.435 107.476 204.955C107.369 204.982 107.276 205.009 107.169 205.009H107.183ZM111.865 199.063H111.878H111.865Z" fill="#27449B"/>
<path d="M92.6819 183.519C92.6019 183.519 92.5218 183.519 92.4551 183.493C91.9215 183.373 91.588 182.826 91.7081 182.293C93.0688 176.574 98.3248 174.294 99.2319 174.108C99.7789 174.001 100.299 174.348 100.406 174.894C100.513 175.441 100.166 175.961 99.6188 176.067C98.8985 176.241 94.723 178.187 93.6424 182.759C93.5357 183.213 93.1221 183.533 92.6686 183.533L92.6819 183.519Z" fill="#27449B"/>
<path d="M117.618 178.72C117.178 178.72 116.764 178.427 116.657 177.973C116.137 175.987 113.109 174.774 110.201 175.374C109.667 175.481 109.133 175.134 109.013 174.601C108.907 174.054 109.254 173.534 109.787 173.428C113.829 172.601 117.778 174.414 118.592 177.48C118.738 178.013 118.418 178.56 117.885 178.707C117.805 178.733 117.711 178.747 117.631 178.747L117.618 178.72Z" fill="#27449B"/>
<path d="M102.883 213.554C100.855 213.554 98.7477 212.78 96.5332 211.234C96.0797 210.914 95.9729 210.288 96.2798 209.848C96.5999 209.394 97.2136 209.288 97.6671 209.594C101.056 211.967 103.817 212.194 106.618 210.328C107.072 210.021 107.699 210.141 108.006 210.608C108.313 211.061 108.193 211.687 107.726 211.994C106.152 213.047 104.551 213.567 102.883 213.567V213.554Z" fill="#27449B"/>
<path d="M104.608 239.589C104.248 239.589 103.901 239.389 103.728 239.056C103.381 238.376 101.34 231.15 102.381 226.111C102.487 225.565 103.021 225.218 103.568 225.338C104.115 225.445 104.462 225.978 104.342 226.525C103.461 230.791 105.195 237.416 105.529 238.176C105.742 238.669 105.529 239.269 105.049 239.496C104.902 239.562 104.755 239.589 104.608 239.589Z" fill="#27449B"/>
<path d="M74.8875 207.035C70.7521 207.035 67.4303 204.222 66.2164 199.69C65.5627 197.237 65.9896 194.864 67.3636 193.197C68.671 191.624 70.7121 190.811 72.9666 190.971C74.1272 191.051 75.3144 191.371 76.4884 191.944C76.982 192.184 77.1954 192.784 76.9553 193.277C76.7152 193.771 76.1149 193.984 75.6213 193.744C74.6741 193.291 73.727 193.024 72.8332 192.957C71.1923 192.851 69.8183 193.384 68.9111 194.464C67.9373 195.637 67.6705 197.317 68.1507 199.17C69.1246 202.836 71.6459 205.022 74.8742 205.022C75.7813 205.022 76.6885 204.862 77.5956 204.529C78.1159 204.342 78.6895 204.609 78.8763 205.128C79.063 205.648 78.7962 206.222 78.276 206.408C77.1554 206.808 76.0215 207.008 74.8875 207.008V207.035Z" fill="#27449B"/>
<path d="M105.048 226.698C103.06 226.698 101.219 226.338 99.6448 225.872C97.5104 225.232 95.4026 224.245 93.3882 222.925C92.9213 222.619 92.8013 222.006 93.0947 221.539C93.4016 221.072 94.0152 220.952 94.4821 221.246C96.3364 222.459 98.2707 223.365 100.218 223.952C104.047 225.098 109.637 225.472 114.546 220.739C114.879 220.419 115.186 220.046 115.453 219.619C121.096 210.994 119.762 180.826 114.626 167.642C111.771 160.337 106.182 156.791 103.834 155.578C98.4175 179.667 73.6313 192.731 73.3645 192.864C72.8709 193.118 72.2706 192.931 72.0172 192.438C71.7637 191.944 71.9505 191.345 72.4441 191.091C72.6975 190.958 97.4837 177.88 102.126 153.951C102.179 153.658 102.366 153.418 102.62 153.272C102.873 153.125 103.18 153.098 103.46 153.205C103.834 153.338 112.505 156.724 116.48 166.922C121.389 179.533 123.55 210.861 117.121 220.699C116.774 221.246 116.373 221.752 115.92 222.179C112.358 225.618 108.503 226.698 105.048 226.698Z" fill="#27449B"/>
<path d="M294.816 163.443C302.687 163.616 311.999 159.617 315.841 148.552C315.841 148.552 320.697 151.832 320.43 155.164C319.709 164.003 308.237 173.761 298.165 172.161C296.177 171.841 293.696 166.456 294.816 163.443Z" fill="#39B715"/>
<path d="M300.4 173.334C299.586 173.334 298.786 173.268 297.999 173.148C296.705 172.948 295.704 171.641 295.09 170.602C293.876 168.522 293.023 165.403 293.876 163.11C294.023 162.723 294.397 162.456 294.81 162.456H294.837C302.094 162.616 311.165 158.964 314.901 148.246C315.007 147.952 315.234 147.726 315.528 147.619C315.821 147.526 316.141 147.566 316.408 147.739C316.955 148.112 321.744 151.458 321.437 155.258C321.064 159.83 318.036 164.762 313.34 168.455C309.298 171.628 304.695 173.348 300.413 173.348L300.4 173.334ZM295.584 164.443C295.33 166.016 295.957 168.122 296.811 169.588C297.505 170.762 298.092 171.135 298.319 171.175C302.694 171.868 307.724 170.308 312.099 166.869C316.301 163.563 319.116 159.057 319.436 155.084C319.583 153.325 317.715 151.352 316.315 150.165C312.126 160.537 303.108 164.349 295.597 164.443H295.584Z" fill="#39B715"/>
<path d="M2.31488 401.373C2.23484 401.373 2.1548 401.373 2.07476 401.359C1.1943 401.199 0.527287 400.666 0.207121 399.853C-1.1936 396.294 4.51602 385.909 17.1626 368.965C17.9496 367.912 17.3627 362.686 16.8024 357.634C16.2288 352.515 15.5084 346.156 15.5884 340.024C15.6284 337.171 15.5351 333.172 15.415 328.559C14.9081 307.217 14.828 287.687 19.3103 283.101C25.3535 276.902 36.5593 276.769 37.0262 276.769C37.5731 276.769 38.0267 277.209 38.0267 277.769C38.0267 278.315 37.5865 278.768 37.0262 278.768C36.9195 278.768 26.1806 278.902 20.7244 284.487C16.4689 288.847 17.0425 313.682 17.4027 328.506C17.5094 333.145 17.6028 337.145 17.5761 340.037C17.5094 346.036 18.2164 352.342 18.7901 357.394C19.6038 364.673 19.9774 368.552 18.7634 370.152C1.68789 393.001 1.66121 398.093 2.06141 399.106C2.11477 399.253 2.19482 399.333 2.42161 399.373C4.70279 399.373 21.4981 387.948 31.53 381.136C39.5075 375.711 44.47 372.365 45.8708 371.778C50.153 369.992 85.9182 369.885 99.4185 370.125C99.5786 370.125 99.752 370.125 99.9388 370.138C103.434 370.192 108.65 370.218 114.72 370.218C119.962 370.218 125.859 370.205 132.009 370.178C140.48 370.152 149.444 370.138 157.835 370.138C169.948 370.152 178.273 370.245 184.022 370.432C186.077 370.498 188.224 370.592 190.412 370.698C205.193 371.378 221.949 372.151 224.216 363.34C226.871 353.035 225.31 319.321 224.19 305.524C223.283 294.286 222.055 278.902 204.206 278.795C190.466 278.715 187.824 278.795 187.798 278.795C187.224 278.795 186.784 278.382 186.77 277.822C186.757 277.275 187.184 276.809 187.744 276.795C187.851 276.795 190.399 276.715 204.233 276.795C223.91 276.902 225.337 294.726 226.191 305.364C226.951 314.735 229.179 352.128 226.164 363.846C223.496 374.231 205.874 373.418 190.332 372.711C188.144 372.605 186.01 372.511 183.969 372.445C178.233 372.258 169.935 372.165 157.835 372.151C149.444 372.151 140.493 372.151 132.022 372.191C124.965 372.205 118.255 372.231 112.465 372.218C107.343 372.218 102.98 372.191 99.832 372.138C99.6319 372.125 99.5252 372.138 99.4051 372.125C80.4353 371.765 49.9529 372.245 46.6445 373.618C45.3505 374.151 39.1873 378.35 32.6506 382.789C13.9075 395.52 4.86287 401.359 2.28821 401.359L2.31488 401.373Z" fill="#27449B"/>
</svg>
