<svg width="472" height="389" viewBox="0 0 472 389" fill="none" xmlns="http://www.w3.org/2000/svg">
<g clip-path="url(#clip0_274_4164)">
<path d="M287.045 219.369C286.842 219.369 286.638 219.293 286.477 219.132C284.645 217.281 282.888 215.259 281.034 213.129L279.995 211.934C279.706 211.601 279.738 211.084 280.07 210.794C280.402 210.503 280.917 210.536 281.206 210.869L282.256 212.074C284.099 214.183 285.835 216.184 287.635 218.002C287.945 218.314 287.945 218.831 287.635 219.143C287.474 219.304 287.27 219.379 287.067 219.379L287.045 219.369Z" fill="#39B715"/>
<path d="M287.333 252.161C283.326 250.353 280.583 249.202 280.583 249.202C280.583 249.202 285.255 234.549 276.865 229.342C277.594 229.396 278.365 229.46 279.169 229.525C280.99 229.675 283.787 230.16 287.141 230.859C288.801 234.635 291.426 243.038 287.323 252.15L287.333 252.161Z" fill="#39B715"/>
<path d="M262.465 175.57C258.554 176.194 251.75 178.238 240.843 184.489C240.05 181.477 239.289 178.583 238.571 175.871C245.857 171.019 253.968 168.426 259.143 168.254C260.118 170.535 261.243 173.01 262.476 175.57H262.465Z" fill="#39B715"/>
<path d="M383.164 198.002C383.164 198.002 383.068 198.002 383.025 197.991C377.711 197.066 371.368 196.657 362.474 196.668C362.035 196.668 361.671 196.302 361.671 195.861C361.671 195.42 362.024 195.054 362.474 195.054H362.635C371.539 195.054 377.914 195.474 383.293 196.399C383.732 196.474 384.022 196.894 383.947 197.335C383.882 197.722 383.539 198.002 383.154 198.002H383.164Z" fill="#39B715"/>
<path d="M342.492 196.905C333.353 196.905 325.435 196.388 321.245 193.817C315.224 190.116 312.417 186.609 310.156 183.79C308.741 182.015 307.616 180.616 306.063 179.615C305.688 179.379 305.581 178.873 305.827 178.497C306.063 178.12 306.566 178.012 306.941 178.26C308.709 179.411 309.963 180.971 311.409 182.778C313.584 185.5 316.306 188.889 322.092 192.44C327.267 195.624 339.214 195.409 351.868 195.183H351.878C352.318 195.183 352.671 195.538 352.682 195.979C352.682 196.42 352.339 196.797 351.889 196.797C348.686 196.851 345.525 196.915 342.492 196.915V196.905Z" fill="#39B715"/>
<path d="M364.457 217.335C364.382 217.335 364.318 217.335 364.243 217.303C356.786 215.205 351.867 213.828 345.203 213.796C344.764 213.796 344.399 213.43 344.399 212.989C344.399 212.548 344.764 212.182 345.203 212.182C352.082 212.214 357.364 213.699 364.671 215.743C365.1 215.861 365.346 216.313 365.229 216.733C365.132 217.088 364.811 217.324 364.457 217.324V217.335Z" fill="#39B715"/>
<path d="M330.203 214.603C322.552 214.603 314.045 213.247 303.984 207.889C302.302 206.996 300.662 205.737 298.969 204.059C298.659 203.747 298.648 203.231 298.969 202.919C299.28 202.607 299.795 202.596 300.105 202.919C301.68 204.489 303.202 205.651 304.745 206.469C316.627 212.795 326.002 213.548 336.438 212.73C336.878 212.72 337.264 213.032 337.306 213.473C337.339 213.914 337.006 214.301 336.567 214.344C334.51 214.506 332.399 214.613 330.213 214.613L330.203 214.603Z" fill="#39B715"/>
<path d="M296.356 200.735C296.12 200.735 295.895 200.638 295.735 200.444C295.038 199.583 294.363 198.723 293.699 197.873C291.363 194.882 289.156 192.052 286.991 191.181C286.584 191.02 286.381 190.546 286.541 190.137C286.702 189.718 287.174 189.524 287.581 189.685C290.141 190.708 292.37 193.569 294.952 196.883C295.606 197.711 296.27 198.572 296.967 199.422C297.245 199.766 297.202 200.272 296.86 200.562C296.71 200.681 296.527 200.745 296.345 200.745L296.356 200.735Z" fill="#39B715"/>
<path d="M344.067 237.357C343.982 237.357 343.885 237.346 343.799 237.314C339.074 235.636 334.231 234.226 329.013 233C328.585 232.903 328.317 232.462 328.413 232.031C328.52 231.601 328.96 231.332 329.378 231.429C334.66 232.677 339.546 234.108 344.335 235.797C344.753 235.948 344.978 236.41 344.828 236.83C344.71 237.163 344.399 237.368 344.067 237.368V237.357Z" fill="#39B715"/>
<path d="M325.682 232.225C325.628 232.225 325.574 232.225 325.51 232.204C319.639 230.956 313.392 229.944 306.406 229.105C299.677 228.309 294.502 226.125 289.616 222.047C289.273 221.768 289.23 221.251 289.509 220.907C289.788 220.563 290.302 220.52 290.645 220.799C295.274 224.662 300.192 226.727 306.588 227.491C313.628 228.331 319.928 229.353 325.842 230.611C326.271 230.708 326.549 231.128 326.464 231.569C326.389 231.945 326.046 232.204 325.682 232.204V232.225Z" fill="#39B715"/>
<path d="M247.689 200.046C247.518 200.046 247.346 200.046 247.186 200.035C246.746 200.003 246.404 199.626 246.436 199.185C246.468 198.744 246.864 198.368 247.282 198.432C252.104 198.712 261.704 193.655 265.626 189.503C265.926 189.18 266.44 189.169 266.761 189.47C267.083 189.772 267.093 190.288 266.793 190.611C262.743 194.914 253.154 200.057 247.689 200.057V200.046Z" fill="#39B715"/>
<path d="M254.504 223.425C254.054 223.425 253.7 223.059 253.7 222.618C253.7 222.177 254.064 221.811 254.504 221.811C259.475 221.811 270.811 213.817 273.651 207.158C273.822 206.749 274.294 206.555 274.712 206.738C275.119 206.91 275.312 207.383 275.129 207.803C272.194 214.667 260.633 223.435 254.504 223.435V223.425Z" fill="#39B715"/>
<path d="M296.923 257.529C296.73 257.529 296.537 257.465 296.387 257.325C296.055 257.024 296.022 256.518 296.323 256.185C300.812 251.128 301.712 241.994 298.198 237.013C297.94 236.647 298.026 236.141 298.39 235.894C298.755 235.636 299.258 235.722 299.505 236.088C303.405 241.617 302.451 251.72 297.512 257.271C297.351 257.454 297.137 257.54 296.912 257.54L296.923 257.529Z" fill="#39B715"/>
<path d="M316.638 260.424C316.509 260.424 316.381 260.391 316.263 260.327C315.867 260.122 315.716 259.627 315.931 259.24C319.917 251.677 318.074 245.48 313.809 237.949C313.595 237.561 313.724 237.067 314.109 236.851C314.495 236.625 314.988 236.765 315.202 237.153C318.759 243.436 322.145 250.902 317.345 260.004C317.206 260.273 316.927 260.434 316.638 260.434V260.424Z" fill="#39B715"/>
<path d="M108.753 389C100.803 389 88.7599 387.72 73.9952 385.794C65.4878 384.686 60.4198 382.211 60.1091 379.016C59.9162 377.09 61.5555 375.358 64.4806 374.368C79.4489 369.322 104.896 357.865 111.518 353.604C111.893 353.367 112.386 353.475 112.632 353.852C112.868 354.228 112.761 354.723 112.386 354.97C105.689 359.274 80.0597 370.829 64.9949 375.907C62.8627 376.628 61.5984 377.757 61.7055 378.865C61.877 380.597 65.2521 383.04 74.1988 384.202C85.3848 385.654 115.118 389.516 117.636 385.945C120.314 382.147 126.422 367.752 126.486 367.601C126.658 367.192 127.129 367.009 127.536 367.171C127.943 367.343 128.136 367.816 127.965 368.225C127.708 368.828 121.729 382.921 118.943 386.87C117.893 388.365 114.336 389 108.753 389Z" fill="#27449B"/>
<path d="M51.6019 314.271C50.6912 314.271 49.984 314.098 49.4697 313.765C42.2695 308.945 19.3295 284.448 18.8366 276.045C18.7723 274.948 19.0724 274.098 19.7367 273.538C22.2975 271.333 35.1336 274.851 52.9841 280.047C55.9306 280.908 58.7057 281.715 61.1165 282.382C61.5451 282.5 61.7915 282.941 61.6736 283.372C61.5558 283.802 61.1165 284.05 60.6879 283.931C58.2771 283.253 55.4913 282.446 52.5341 281.586C41.4445 278.358 22.8868 272.947 20.7867 274.754C20.6903 274.84 20.401 275.088 20.4438 275.948C20.8724 283.167 42.8266 307.374 50.359 312.42C51.2483 313.012 55.952 313.883 79.3956 300.144C79.7599 299.929 79.9956 299.789 80.1028 299.736C80.4885 299.52 80.9814 299.66 81.1957 300.048C81.41 300.435 81.2707 300.93 80.8849 301.145C80.7778 301.199 80.5528 301.339 80.1992 301.543C65.7452 310.01 56.1556 314.271 51.5912 314.271H51.6019Z" fill="#27449B"/>
<path d="M137.179 362.717C137.179 362.717 137.082 362.717 137.039 362.706C134.736 362.297 114.271 358.424 105.463 348.741C105.217 348.472 105.185 348.074 105.378 347.762C105.378 347.762 107.756 343.997 111.196 338.477C112.096 337.036 113.542 334.637 115.385 331.56C126.528 313.012 152.64 269.558 163.312 264.587C178.184 257.659 228.049 277.831 246.007 286.18C246.414 286.363 246.586 286.847 246.403 287.256C246.221 287.664 245.739 287.837 245.332 287.654C228.757 279.94 178.248 259.423 163.997 266.061C153.765 270.827 127.836 313.98 116.767 332.399C114.914 335.487 113.457 337.896 112.557 339.349C109.878 343.652 107.831 346.891 107.06 348.106C115.224 356.541 132.861 360.285 136.75 361.017C137.468 359.726 139.536 356.079 142.44 351.194C148.204 341.501 156.883 327.547 165.562 316.153C172.323 307.234 178.044 301.263 182.555 298.391C182.93 298.154 183.423 298.262 183.659 298.638C183.894 299.015 183.787 299.51 183.412 299.746C179.062 302.511 173.491 308.353 166.837 317.122C158.212 328.461 149.554 342.351 143.822 352.012C140.2 358.101 137.897 362.254 137.875 362.297C137.736 362.555 137.457 362.717 137.168 362.717H137.179Z" fill="#27449B"/>
<path d="M371.594 178.54C371.594 178.54 371.551 178.54 371.53 178.54C371.091 178.497 370.758 178.109 370.801 177.668C371.123 173.892 369.633 168.652 368.187 163.596C367.148 159.938 366.065 156.162 365.626 152.826C364.962 147.695 366.258 142.627 367.63 137.259C369.89 128.426 372.226 119.292 365.744 109.007C357.826 96.4189 346.2 100.873 345.708 101.077L345.14 101.303L344.765 100.819C344.69 100.722 337.168 91.0181 326.936 93.1805C312.396 96.2468 307.221 113.461 305.453 127.361C304.156 137.463 299.549 139.141 294.213 141.067C291.481 142.057 288.374 143.187 285.245 145.607C280.113 149.577 279.952 153.633 279.802 157.56C279.684 160.487 279.577 163.262 277.209 165.371C275.452 166.942 273.738 167.146 272.088 167.351C269.377 167.684 266.58 168.018 262.594 174.656C262.369 175.032 261.866 175.161 261.491 174.935C261.105 174.709 260.987 174.215 261.212 173.827C265.605 166.511 268.937 166.113 271.895 165.748C273.438 165.565 274.766 165.403 276.148 164.166C278.002 162.509 278.098 160.304 278.206 157.496C278.356 153.612 278.548 148.77 284.27 144.327C287.602 141.745 290.827 140.583 293.677 139.55C298.917 137.657 302.699 136.28 303.867 127.156C305.71 112.74 311.142 94.8697 326.614 91.6098C336.632 89.5011 343.983 97.3657 345.686 99.399C348.322 98.5921 359.487 96.0531 367.105 108.167C373.951 119.044 371.423 128.942 369.183 137.678C367.855 142.885 366.59 147.802 367.223 152.633C367.64 155.85 368.701 159.572 369.73 163.176C371.208 168.383 372.751 173.763 372.398 177.829C372.366 178.249 372.012 178.572 371.594 178.572V178.54Z" fill="#27449B"/>
<path d="M143.136 351.603C139.461 357.768 137.179 361.91 137.179 361.91C129.4 360.522 113.317 356.175 106.053 348.192C106.053 348.192 108.431 344.427 111.881 338.908C117.142 343.018 126.496 347.741 143.136 351.603Z" fill="#27449B"/>
<path d="M137.179 362.717C137.179 362.717 137.082 362.717 137.039 362.706C134.736 362.297 114.271 358.424 105.463 348.741C105.217 348.472 105.185 348.074 105.378 347.762C105.378 347.762 107.756 343.997 111.196 338.477C111.314 338.284 111.517 338.155 111.732 338.112C111.957 338.069 112.182 338.133 112.364 338.273C118.846 343.34 129.261 347.558 143.307 350.818C143.554 350.871 143.768 351.054 143.865 351.291C143.961 351.528 143.95 351.797 143.811 352.023C140.19 358.112 137.886 362.265 137.864 362.308C137.725 362.566 137.447 362.727 137.157 362.727L137.179 362.717ZM107.071 348.096C115.235 356.53 132.871 360.274 136.761 361.006C137.436 359.801 139.279 356.541 141.893 352.13C128.639 348.967 118.632 344.911 112.107 340.08C109.653 344.007 107.81 346.944 107.081 348.096H107.071Z" fill="#27449B"/>
<path d="M82.0101 305.212C81.7744 305.212 81.5386 305.104 81.3779 304.91C80.9815 304.405 71.5633 292.323 69.6561 277.809C69.6133 277.508 69.7526 277.207 69.999 277.035C70.0311 277.013 73.5348 274.625 79.2136 270.87C95.3498 260.219 154.227 225.835 159.423 224.371C164.92 222.822 174.766 222.919 184.377 226.62C188.438 228.169 192.906 230.299 198.017 233.14C200.889 234.732 203.964 236.539 207.167 238.519C228.715 251.87 280.434 280.026 280.959 280.316C281.345 280.531 281.495 281.016 281.28 281.414C281.066 281.801 280.584 281.952 280.187 281.736C279.662 281.457 227.911 253.28 206.321 239.896C203.149 237.927 200.085 236.131 197.246 234.549C192.199 231.752 187.806 229.654 183.81 228.126C174.595 224.565 164.941 224.49 159.862 225.921C154.88 227.33 95.4891 262.059 80.1029 272.215C75.5492 275.227 72.3991 277.358 71.3169 278.089C73.0848 290.333 80.4886 300.994 82.2565 303.404C83.5958 302.77 87.1531 301.102 92.0604 298.757C105.218 292.441 129.637 280.51 145.419 271.451C145.805 271.236 146.298 271.365 146.512 271.752C146.737 272.14 146.598 272.635 146.212 272.85C130.387 281.93 105.925 293.894 92.7461 300.22C86.4245 303.243 82.3422 305.147 82.3422 305.147C82.2351 305.201 82.1172 305.222 81.9994 305.222L82.0101 305.212Z" fill="#27449B"/>
<path d="M92.4142 299.477C86.0926 302.501 82.0211 304.405 82.0211 304.405C82.0211 304.405 72.3672 292.162 70.4707 277.702C70.4707 277.702 73.9315 275.335 79.6853 271.548C81.3782 279.574 84.9461 290.505 92.4249 299.488L92.4142 299.477Z" fill="#27449B"/>
<path d="M82.0101 305.212C81.7744 305.212 81.5386 305.104 81.3779 304.91C80.9815 304.405 71.5633 292.323 69.6561 277.809C69.6133 277.508 69.7526 277.207 69.999 277.035C70.0311 277.013 73.5348 274.625 79.2243 270.87C79.4493 270.73 79.7279 270.698 79.9743 270.795C80.2207 270.892 80.4029 271.118 80.4564 271.376C82.0529 278.993 85.5352 289.956 93.0247 298.961C93.1854 299.155 93.2497 299.402 93.1961 299.65C93.1426 299.897 92.9818 300.101 92.7568 300.209C86.4352 303.232 82.3529 305.136 82.3529 305.136C82.2458 305.19 82.1279 305.212 82.0101 305.212ZM71.3169 278.078C73.0848 290.322 80.4886 300.984 82.2565 303.394C83.5101 302.802 86.7031 301.296 91.1282 299.187C84.2387 290.537 80.81 280.349 79.1278 272.85C75.0991 275.518 72.3241 277.401 71.3169 278.078Z" fill="#27449B"/>
<path d="M78.3456 261.758C78.1313 261.758 77.917 261.672 77.7563 261.499C42.2374 223.607 19.3831 175.549 1.01828 136.936C0.986133 136.871 0.964703 136.796 0.953989 136.731C0.257539 132.772 0.621836 130.502 2.11117 129.566C4.06123 128.351 7.37204 129.717 13.5222 134.289C20.3153 139.335 21.7618 141.68 24.4083 145.941C25.169 147.157 26.0155 148.544 27.1298 150.201C27.6334 150.944 28.3727 152.138 29.3906 153.784C55.7271 196.141 84.8601 227.889 115.975 248.148C116.35 248.395 116.457 248.89 116.211 249.267C115.965 249.643 115.472 249.751 115.097 249.504C83.7886 229.105 54.4949 197.195 28.0191 154.634C27.0012 152.999 26.2726 151.826 25.7905 151.105C24.6547 149.416 23.7975 148.028 23.0368 146.791C20.4224 142.563 19.1045 140.443 12.5686 135.58C7.40418 131.739 4.17909 130.179 2.96834 130.933C2.49689 131.223 1.83259 132.31 2.52904 136.333C20.8403 174.828 43.6303 222.715 78.9456 260.391C79.2456 260.714 79.2349 261.23 78.9135 261.532C78.7635 261.682 78.5599 261.747 78.367 261.747L78.3456 261.758Z" fill="#27449B"/>
<path d="M128.361 301.511C128.233 301.511 128.093 301.478 127.976 301.414C123.325 298.81 118.697 295.949 114.229 292.925C113.864 292.678 113.768 292.172 114.014 291.806C114.261 291.441 114.764 291.333 115.129 291.591C119.565 294.593 124.15 297.422 128.758 300.005C129.144 300.22 129.283 300.715 129.069 301.102C128.918 301.371 128.651 301.511 128.361 301.511Z" fill="#27449B"/>
<path d="M225.725 325.653C204.574 325.653 184.527 322.888 165.98 317.412C165.551 317.283 165.316 316.842 165.434 316.411C165.562 315.981 166.012 315.744 166.43 315.863C188.309 322.318 212.299 324.975 237.736 323.738C261.597 322.576 283.391 319.488 302.516 314.539C302.945 314.432 303.384 314.69 303.491 315.12C303.598 315.551 303.341 315.992 302.913 316.099C283.68 321.07 261.779 324.179 237.811 325.341C233.739 325.535 229.711 325.632 225.725 325.632V325.653Z" fill="#27449B"/>
<path d="M317.281 311.871C316.938 311.871 316.628 311.656 316.521 311.312C316.381 310.892 316.606 310.43 317.035 310.29C392.059 285.47 412.92 232.957 431.328 186.619L431.446 186.307C452.039 134.472 467.532 73.9226 470.425 62.314C470.532 61.8837 470.972 61.6255 471.4 61.7223C471.829 61.8299 472.097 62.271 471.979 62.7013C469.075 74.3314 453.56 134.978 432.935 186.91L432.817 187.222C423.945 209.557 413.895 234.861 396.805 257.185C377.208 282.791 351.279 300.661 317.528 311.818C317.442 311.85 317.356 311.861 317.281 311.861V311.871Z" fill="#27449B"/>
<path d="M453.903 65.5846C446.092 65.5846 436.331 64.3366 425.97 59.9794C425.563 59.8073 425.37 59.3339 425.541 58.925C425.713 58.5162 426.184 58.3226 426.591 58.4947C450.292 68.468 470.735 61.8299 470.939 61.7653C471.368 61.6255 471.818 61.8514 471.957 62.271C472.096 62.6906 471.871 63.1532 471.453 63.2931C471.335 63.3361 464.382 65.5846 453.903 65.5846Z" fill="#27449B"/>
<path d="M367.973 160.756C367.801 160.756 367.63 160.702 367.48 160.583C367.126 160.314 367.062 159.798 367.341 159.454C407.895 107.048 422.928 66.5529 425.532 58.9681C425.671 58.5485 426.132 58.3226 426.549 58.4732C426.967 58.613 427.192 59.0757 427.042 59.4952C424.428 67.1231 409.32 107.834 368.605 160.444C368.444 160.648 368.208 160.756 367.973 160.756Z" fill="#27449B"/>
<path d="M190.314 305.438C187.335 305.438 184.324 305.362 181.26 305.212C180.82 305.19 180.478 304.814 180.499 304.362C180.52 303.921 180.917 303.566 181.345 303.598C234.918 306.288 276.727 284.394 307.167 265.017C342.675 242.414 393.977 193.322 419.124 146.866C442.611 103.477 446.875 72.0936 446.907 71.7816C446.961 71.3405 447.357 71.0285 447.807 71.0823C448.246 71.1361 448.557 71.5449 448.504 71.986C448.461 72.298 444.164 103.982 420.538 147.63C395.263 194.333 343.704 243.672 308.035 266.384C279.138 284.781 240.029 305.438 190.324 305.438H190.314Z" fill="#27449B"/>
<path d="M428.594 60.9585C428.487 60.9585 428.391 60.9369 428.284 60.8939C427.876 60.7218 427.673 60.2484 427.844 59.8396C436.116 39.7532 440.509 21.3559 444.388 5.12113L445.459 0.624024C445.566 0.193678 446.005 -0.0752875 446.434 0.0322989C446.863 0.139885 447.13 0.570231 447.023 1.01133L445.952 5.50844C442.062 21.8078 437.648 40.2696 429.334 60.4743C429.205 60.7863 428.905 60.9692 428.594 60.9692V60.9585Z" fill="#27449B"/>
<path d="M467.125 64.3366C467.125 64.3366 467.104 64.3366 467.093 64.3366C466.654 64.3151 466.311 63.9386 466.321 63.4975C466.686 54.9659 457.385 20.5598 449.167 3.24911C448.974 2.85104 449.146 2.3669 449.542 2.17324C449.939 1.97959 450.421 2.15173 450.614 2.54979C459.078 20.3984 468.304 54.6646 467.918 63.562C467.896 63.9924 467.543 64.3366 467.114 64.3366H467.125Z" fill="#27449B"/>
<path d="M439.846 69.9311C439.771 69.9311 439.696 69.9311 439.621 69.8989C439.192 69.7698 438.956 69.3179 439.074 68.8983C440.724 63.3038 446.896 27.6389 447.924 4.28195C447.946 3.84084 448.332 3.49657 448.76 3.50733C449.199 3.52884 449.542 3.9054 449.532 4.3465C448.503 27.8218 442.289 63.7127 440.617 69.3502C440.51 69.7052 440.199 69.9311 439.846 69.9311Z" fill="#27449B"/>
<path d="M454.31 71.4911C453.871 71.4911 453.506 71.1253 453.506 70.6842C453.506 70.6089 453.506 70.5336 453.538 70.4691C453.796 67.844 453.088 27.101 447.945 4.48635C447.849 4.05601 448.117 3.61491 448.545 3.51808C448.985 3.42125 449.403 3.69022 449.51 4.12056C454.374 25.5087 455.885 69.9957 454.942 71.1791C454.792 71.3728 454.556 71.4804 454.31 71.4804V71.4911Z" fill="#27449B"/>
<path d="M1.62861 132.374C1.3286 132.374 1.03931 132.202 0.900017 131.912C-1.22148 127.307 0.203567 88.6404 7.4145 65.6707C7.54307 65.2511 7.99309 65.0144 8.42167 65.1435C8.83954 65.2726 9.07526 65.7353 8.94669 66.1548C2.00362 88.2854 0.353572 126.887 2.3572 131.223C2.53935 131.632 2.36792 132.105 1.96076 132.299C1.85362 132.353 1.73576 132.374 1.62861 132.374Z" fill="#27449B"/>
<path d="M18.3646 135.279C17.9789 135.279 17.636 134.999 17.5717 134.601C16.7467 129.362 15.6538 122.831 14.4966 115.914C11.0358 95.2462 7.12499 71.8247 7.37143 65.8751C7.39286 65.434 7.73573 65.079 8.20717 65.1005C8.64647 65.122 8.98934 65.4986 8.97862 65.9397C8.73219 71.7171 12.8037 96.0746 16.0824 115.645C17.2396 122.562 18.3325 129.093 19.1575 134.343C19.2218 134.784 18.9325 135.193 18.4932 135.268C18.4503 135.268 18.4075 135.268 18.3646 135.268V135.279Z" fill="#27449B"/>
<path d="M12.407 135.279C12.0106 135.279 11.6677 134.978 11.6141 134.58C11.5713 134.225 7.03899 98.3662 6.63184 76.4186C6.63184 75.9775 6.9747 75.6009 7.42472 75.6009C7.84259 75.6009 8.23903 75.9452 8.23903 76.3971C8.63547 98.2586 13.157 134.02 13.1999 134.386C13.2535 134.827 12.9427 135.236 12.5034 135.29C12.4713 135.29 12.4392 135.29 12.3963 135.29L12.407 135.279Z" fill="#27449B"/>
<path d="M5.91461 126.629C5.52888 126.629 5.18601 126.349 5.12173 125.951C4.39313 121.486 4.63957 100.765 6.6432 87.2848C6.70749 86.8437 7.12536 86.5317 7.55394 86.607C7.99324 86.6715 8.29325 87.0804 8.22896 87.5215C6.1289 101.615 6.07533 121.831 6.70749 125.693C6.78249 126.134 6.48248 126.543 6.04318 126.618C6.00032 126.618 5.95747 126.618 5.91461 126.618V126.629Z" fill="#27449B"/>
<path d="M275.441 201.574C275.227 201.574 275.013 201.488 274.852 201.316C274.552 200.993 274.573 200.476 274.895 200.175C288.084 187.867 313.285 167.2 333.922 167.071C334.232 167.103 334.447 167.2 334.597 167.426C336.793 170.74 338.936 172.235 341.99 172.59C344.186 172.848 346.779 172.59 350.872 169.093C351.065 168.932 351.322 168.868 351.568 168.921C366.183 172.203 378.194 179.701 386.316 190.6C386.584 190.955 386.509 191.461 386.155 191.73C385.802 191.999 385.298 191.923 385.03 191.568C377.209 181.079 365.658 173.827 351.601 170.578C347.197 174.236 344.175 174.462 341.808 174.193C338.39 173.795 335.893 172.149 333.504 168.695C313.489 169.104 288.909 189.298 275.988 201.359C275.838 201.498 275.634 201.574 275.441 201.574Z" fill="#27449B"/>
<path d="M329.411 167.878C330.011 170.341 332.764 179.002 343.029 178.948C354.14 178.895 358.329 171.127 357.483 169.427C356.636 167.727 351.943 165.188 351.097 165.748C350.25 166.318 343.843 179.293 335.271 166.716C334.05 164.93 329.111 166.63 329.411 167.889V167.878Z" fill="#39B715"/>
<path d="M334.778 165.349C334.778 165.349 334.757 165.349 334.746 165.349C334.307 165.339 333.953 164.962 333.975 164.51C334.103 160.874 333.975 159.69 333.975 159.68C333.932 159.239 334.242 158.841 334.682 158.787C335.121 158.744 335.518 159.056 335.571 159.497C335.571 159.551 335.71 160.756 335.571 164.564C335.56 165.005 335.196 165.339 334.768 165.339L334.778 165.349Z" fill="#27449B"/>
<path d="M315.942 118.194C315.599 118.194 315.277 117.968 315.17 117.624C314.077 114.085 313.702 106.629 319.199 101.196C319.52 100.884 320.024 100.884 320.335 101.196C320.645 101.518 320.645 102.024 320.335 102.336C315.374 107.242 315.792 114.171 316.713 117.14C316.842 117.57 316.606 118.022 316.177 118.151C316.102 118.173 316.017 118.184 315.942 118.184V118.194Z" fill="#27449B"/>
<path d="M326.078 117.872C325.681 117.872 325.338 117.57 325.285 117.172C324.438 110.61 325.874 104.811 328.938 102.411C329.292 102.132 329.796 102.196 330.063 102.551C330.331 102.906 330.278 103.412 329.924 103.681C327.331 105.704 326.11 111.04 326.881 116.957C326.935 117.398 326.624 117.807 326.185 117.861C326.153 117.861 326.11 117.861 326.078 117.861V117.872Z" fill="#27449B"/>
<path d="M336.524 117.872C336.246 117.872 335.978 117.732 335.828 117.474C333.824 114.052 334.285 106.403 337.532 102.971C337.842 102.648 338.346 102.637 338.667 102.939C338.989 103.251 338.999 103.756 338.699 104.079C335.935 107.005 335.507 113.751 337.21 116.645C337.435 117.032 337.307 117.527 336.921 117.753C336.792 117.829 336.653 117.861 336.514 117.861L336.524 117.872Z" fill="#27449B"/>
<path d="M343.306 119.399C343.039 119.399 342.771 119.259 342.621 119.012C340.724 115.892 340.638 109.146 343.381 105.456C343.649 105.101 344.153 105.026 344.506 105.295C344.86 105.564 344.935 106.069 344.667 106.424C342.353 109.544 342.363 115.494 343.992 118.173C344.228 118.549 344.099 119.044 343.724 119.281C343.596 119.356 343.446 119.399 343.306 119.399Z" fill="#27449B"/>
<path d="M350.421 164.51C350.046 164.51 349.703 164.241 349.628 163.854C347.142 150.567 350.946 137.592 351.107 137.054C351.235 136.645 351.653 136.398 352.071 136.506C355.168 137.291 357.868 135.258 359.175 132.891C360.171 131.083 360.686 128.329 358.821 126.532C357.793 125.543 356.7 125.048 355.564 125.112C353.4 125.22 351.696 127.189 351.675 127.21C351.525 127.393 351.3 127.49 351.075 127.49C350.839 127.49 350.625 127.393 350.475 127.221C348.632 125.123 346.617 117.032 349.146 108.383C349.275 107.952 349.714 107.715 350.143 107.834C350.571 107.963 350.807 108.404 350.689 108.834C348.482 116.387 349.95 122.993 351.214 125.424C352.071 124.671 353.614 123.595 355.489 123.509C357.096 123.434 358.586 124.058 359.946 125.381C362.014 127.393 362.272 130.653 360.589 133.687C359.089 136.398 356.046 138.743 352.468 138.238C351.718 141.121 349.135 152.396 351.225 163.574C351.31 164.015 351.021 164.435 350.582 164.521C350.528 164.521 350.485 164.532 350.432 164.532L350.421 164.51Z" fill="#27449B"/>
<path d="M336.771 124.036C336.407 124.036 336.075 123.789 335.989 123.412C335.592 121.712 334.725 120.497 333.525 119.98C332.614 119.593 331.585 119.658 330.771 120.152C330.385 120.378 329.892 120.26 329.667 119.873C329.442 119.496 329.56 118.991 329.946 118.765C331.199 118.011 332.774 117.904 334.157 118.496C335.839 119.216 337.05 120.83 337.553 123.047C337.65 123.477 337.382 123.918 336.953 124.015C336.889 124.026 336.835 124.036 336.771 124.036Z" fill="#27449B"/>
<path d="M314.506 123.014C314.506 123.014 314.452 123.014 314.42 123.014C313.981 122.971 313.659 122.573 313.702 122.121C313.927 120.045 315.374 118.474 317.463 118.001C319.67 117.506 321.931 118.356 322.97 120.056C323.195 120.432 323.077 120.938 322.702 121.164C322.317 121.4 321.824 121.271 321.599 120.895C320.934 119.787 319.338 119.238 317.816 119.571C317.131 119.722 315.513 120.292 315.299 122.283C315.256 122.691 314.902 123.003 314.495 123.003L314.506 123.014Z" fill="#27449B"/>
<path d="M335.635 160.401C334.103 160.401 332.57 160.185 331.092 159.755C326.945 158.539 323.463 155.667 321.299 151.675C316.948 143.671 315.888 130.89 316.756 121.777C316.798 121.336 317.195 121.013 317.634 121.056C318.073 121.099 318.395 121.497 318.352 121.938C317.506 130.803 318.513 143.208 322.702 150.901C325.22 155.527 328.895 157.431 331.542 158.206C335.238 159.292 339.288 158.851 342.653 157.001C343.038 156.786 343.531 156.925 343.746 157.324C343.96 157.711 343.821 158.206 343.424 158.421C341.035 159.733 338.346 160.411 335.635 160.411V160.401Z" fill="#27449B"/>
<path d="M334.125 131.804C334.125 133.192 333.321 134.311 332.335 134.311C331.35 134.311 330.546 133.192 330.546 131.804C330.546 130.416 331.35 129.297 332.335 129.297C333.321 129.297 334.125 130.416 334.125 131.804Z" fill="#27449B"/>
<path d="M323.109 132.353C323.109 133.741 322.305 134.86 321.32 134.86C320.334 134.86 319.53 133.741 319.53 132.353C319.53 130.965 320.334 129.846 321.32 129.846C322.305 129.846 323.109 130.965 323.109 132.353Z" fill="#27449B"/>
<path d="M327.643 144.854C327.643 144.854 327.6 144.854 327.578 144.854C326.55 144.768 325.725 144.359 325.125 143.628C323.25 141.347 323.839 136.194 324.653 129.071L324.76 128.082C324.814 127.64 325.2 127.318 325.65 127.371C326.089 127.425 326.41 127.823 326.357 128.264L326.25 129.254C325.51 135.731 324.932 140.852 326.367 142.606C326.689 143.004 327.118 143.208 327.707 143.251C328.146 143.284 328.478 143.671 328.446 144.123C328.414 144.542 328.06 144.865 327.643 144.865V144.854Z" fill="#27449B"/>
<path d="M334.918 154.031C331.585 154.031 329.014 150.621 327.696 147.296C327.578 146.995 327.653 146.651 327.878 146.425C328.103 146.199 328.446 146.124 328.746 146.253C331.864 147.522 337.982 144.93 339.118 142.875C339.268 142.595 339.578 142.423 339.9 142.466C340.221 142.498 340.489 142.713 340.586 143.015C341.678 146.36 341.539 151.976 336.696 153.719C336.085 153.935 335.485 154.042 334.918 154.042V154.031ZM329.871 148.146C330.932 150.137 333.128 153.278 336.16 152.192C339.311 151.062 339.857 147.662 339.418 144.973C337.243 146.898 333.053 148.448 329.871 148.136V148.146Z" fill="#27449B"/>
<path d="M282.619 230.999C282.555 230.999 282.491 230.999 282.437 230.977C282.008 230.87 281.741 230.439 281.837 230.009C284.173 220.1 289.541 212.687 293.945 207.33C298.37 201.961 301.552 196.012 302.409 193.516C302.548 193.096 303.009 192.87 303.427 193.01C303.845 193.15 304.07 193.612 303.931 194.032C302.891 197.087 299.473 203.145 295.187 208.352C290.891 213.57 285.662 220.799 283.401 230.375C283.316 230.74 282.983 230.999 282.619 230.999Z" fill="#27449B"/>
<path d="M321.33 239.896C321.159 239.896 320.998 239.842 320.848 239.735C320.495 239.466 320.42 238.96 320.687 238.605C326.045 231.364 330.063 226.9 333.609 222.962C336.491 219.756 338.988 216.991 341.709 213.311C347.967 204.877 355.156 197.572 359.592 195.151C359.989 194.936 360.471 195.086 360.685 195.474C360.899 195.861 360.749 196.356 360.364 196.571C356.174 198.863 349.028 206.135 342.995 214.28C340.22 218.024 337.584 220.95 334.799 224.049C331.273 227.965 327.288 232.397 321.973 239.573C321.812 239.788 321.577 239.896 321.33 239.896Z" fill="#27449B"/>
<path d="M326.732 241.693C326.657 241.693 326.582 241.693 326.517 241.66C318.878 239.487 299.152 234.172 286.991 231.655C283.466 230.923 280.809 230.482 279.105 230.332L276.802 230.149C270.212 229.632 265.766 229.471 261.919 229.611C261.469 229.622 261.105 229.277 261.083 228.836C261.073 228.395 261.415 228.019 261.855 227.997C265.766 227.857 270.276 228.019 276.919 228.546L279.234 228.729C281.002 228.879 283.713 229.331 287.302 230.073C299.506 232.612 319.274 237.927 326.935 240.111C327.364 240.23 327.61 240.681 327.492 241.112C327.396 241.467 327.075 241.704 326.721 241.704L326.732 241.693Z" fill="#27449B"/>
<path d="M238.903 244.974C238.785 244.974 238.657 244.942 238.539 244.888C238.142 244.684 237.992 244.2 238.185 243.801C239.214 241.779 239.942 240.294 240.489 239.186C241.892 236.313 242.15 235.797 243.285 235.087C244.753 234.151 256.036 229.579 259.518 228.922C259.947 228.836 260.375 229.127 260.461 229.568C260.547 230.009 260.257 230.428 259.818 230.515C256.486 231.139 245.31 235.711 244.153 236.453C243.425 236.916 243.35 237.045 241.935 239.907C241.389 241.015 240.66 242.51 239.621 244.544C239.482 244.824 239.192 244.985 238.903 244.985V244.974Z" fill="#27449B"/>
<path d="M242.086 251.612C241.979 251.612 241.861 251.591 241.754 251.537C241.346 251.354 241.175 250.881 241.346 250.472C245.407 241.435 249.543 238.175 249.714 238.035C250.057 237.766 250.561 237.83 250.839 238.185C251.107 238.54 251.043 239.046 250.7 239.315C250.657 239.347 246.682 242.51 242.814 251.128C242.686 251.429 242.386 251.601 242.086 251.601V251.612Z" fill="#27449B"/>
<path d="M248.782 253.979C248.343 253.979 247.989 253.635 247.978 253.194C247.893 250.138 248.396 245.738 251.257 242.177C251.536 241.833 252.039 241.779 252.382 242.059C252.725 242.338 252.779 242.844 252.5 243.188C249.95 246.362 249.5 250.353 249.575 253.14C249.586 253.581 249.232 253.958 248.793 253.968H248.771L248.782 253.979Z" fill="#27449B"/>
<path d="M255.007 253.979C254.568 253.979 254.214 253.624 254.204 253.183C254.161 250.795 254.407 245.534 255.725 242.736C255.918 242.338 256.389 242.155 256.797 242.349C257.193 242.543 257.375 243.016 257.182 243.425C256.089 245.76 255.768 250.622 255.811 253.151C255.811 253.592 255.468 253.968 255.018 253.968H255.007V253.979Z" fill="#27449B"/>
<path d="M260.805 254.334C260.805 254.334 260.73 254.334 260.698 254.334C260.259 254.27 259.948 253.872 260.012 253.42C260.816 247.578 261.555 245.469 262.97 245.028C263.398 244.899 263.848 245.136 263.977 245.566C264.105 245.996 263.87 246.448 263.441 246.577C263.098 246.685 262.412 247.739 261.598 253.646C261.545 254.054 261.202 254.345 260.805 254.345V254.334Z" fill="#27449B"/>
<path d="M310.038 264.931C309.888 264.931 309.738 264.888 309.599 264.802C303.02 260.445 293.677 255.926 287.001 252.903C283.798 251.451 281.376 250.429 280.573 250.085C274.819 252.225 271.529 249.708 269.558 248.191C269.387 248.062 269.226 247.933 269.076 247.825C267.469 246.642 264.897 247.19 262.358 247.954C261.929 248.083 261.479 247.836 261.361 247.416C261.233 246.986 261.479 246.545 261.897 246.416C264.833 245.534 267.844 244.942 270.029 246.534C270.19 246.653 270.362 246.782 270.544 246.921C272.397 248.342 275.183 250.493 280.294 248.471C280.487 248.395 280.701 248.395 280.894 248.471C280.926 248.481 283.701 249.643 287.666 251.429C294.394 254.474 303.823 259.036 310.488 263.447C310.863 263.694 310.959 264.189 310.713 264.566C310.563 264.802 310.306 264.931 310.038 264.931Z" fill="#27449B"/>
<path d="M258.147 228.868C257.911 228.868 257.675 228.761 257.515 228.567C249.5 218.497 244.304 200.649 240.061 184.704C239.268 181.692 238.507 178.798 237.789 176.087C236.921 172.805 236.214 170.277 235.571 168.114C235.443 167.684 235.678 167.243 236.107 167.114C236.535 166.985 236.975 167.222 237.114 167.652C237.768 169.836 238.475 172.386 239.343 175.678C240.071 178.389 240.832 181.283 241.625 184.295C246.125 201.24 251.322 218.207 258.779 227.567C259.058 227.911 259.004 228.417 258.65 228.696C258.5 228.815 258.329 228.868 258.147 228.868Z" fill="#27449B"/>
<path d="M244.303 163.714C244.057 163.714 243.821 163.607 243.661 163.391C240.843 159.68 242.053 156.022 242.975 154.225C240.35 153.881 234.821 153.031 232.56 151.309C231.071 150.169 231.2 149.039 231.403 148.469C232.26 146.145 237.339 144.897 244.336 145.295C244.775 145.317 245.118 145.704 245.096 146.145C245.075 146.586 244.679 146.931 244.25 146.909C236.45 146.457 233.235 148.146 232.914 149.029C232.785 149.384 233.246 149.814 233.535 150.029C234.971 151.127 238.464 152.03 243.918 152.719L244.411 152.783C244.7 152.826 244.936 153.02 245.043 153.278C245.15 153.547 245.107 153.849 244.925 154.074C244.796 154.236 241.764 158.238 244.925 162.402C245.193 162.757 245.129 163.262 244.775 163.531C244.625 163.639 244.453 163.693 244.293 163.693L244.303 163.714Z" fill="#27449B"/>
<path d="M281.408 219.369C280.979 219.369 280.615 219.024 280.604 218.583C280.604 218.54 280.454 214.355 278.772 209.966C278.075 208.147 275.579 203.306 272.429 197.184C269.161 190.858 265.1 182.972 261.736 175.904C260.482 173.279 259.357 170.804 258.393 168.556L258.243 168.2C256.528 164.177 253.003 154.139 252.018 148.362C251.203 143.552 240.456 140.594 233.342 140.389C232.903 140.379 232.549 140.002 232.56 139.561C232.571 139.12 232.946 138.743 233.385 138.776C240.939 138.991 252.585 142.1 253.593 148.082C254.471 153.257 257.803 163.069 259.7 167.533L259.85 167.888C260.814 170.137 261.929 172.59 263.171 175.194C266.514 182.241 270.575 190.105 273.832 196.431C277.015 202.596 279.522 207.47 280.251 209.374C282.029 214.032 282.179 218.336 282.19 218.519C282.201 218.96 281.858 219.336 281.408 219.347H281.386L281.408 219.369Z" fill="#27449B"/>
<path d="M232.785 169.083C230.942 169.083 229.035 168.566 227.063 167.555C226.667 167.351 226.517 166.866 226.721 166.468C226.924 166.07 227.406 165.92 227.803 166.124C232.517 168.566 236.632 167.695 240.746 163.391C241.057 163.069 241.56 163.058 241.882 163.37C242.203 163.682 242.214 164.188 241.903 164.51C238.978 167.566 235.967 169.083 232.774 169.083H232.785Z" fill="#27449B"/>
<path d="M216.971 135.365C216.564 135.365 216.21 135.053 216.167 134.634C215.996 132.686 217.271 131.567 218.299 130.674C219.349 129.771 219.981 129.157 219.885 128.082C219.789 127.006 219.06 126.522 217.871 125.822C216.703 125.123 215.246 124.262 215.063 122.315C214.892 120.368 216.167 119.249 217.196 118.367C218.246 117.463 218.878 116.85 218.781 115.774C218.739 115.333 219.071 114.935 219.51 114.902C219.949 114.859 220.346 115.193 220.378 115.634C220.549 117.581 219.274 118.7 218.246 119.582C217.196 120.486 216.564 121.099 216.66 122.175C216.756 123.251 217.485 123.735 218.674 124.434C219.842 125.134 221.299 125.994 221.482 127.942C221.653 129.889 220.378 131.008 219.349 131.901C218.299 132.805 217.667 133.418 217.764 134.494C217.806 134.935 217.474 135.333 217.035 135.365C217.014 135.365 216.981 135.365 216.96 135.365H216.971Z" fill="#27449B"/>
<path d="M209.16 132.762C208.742 132.762 208.388 132.439 208.356 132.008C208.259 130.696 208.988 129.943 209.513 129.405C210.006 128.899 210.263 128.609 210.22 128.039C210.177 127.468 209.888 127.221 209.331 126.791C208.731 126.328 207.906 125.693 207.809 124.381C207.713 123.068 208.442 122.326 208.967 121.777C209.47 121.261 209.717 120.981 209.674 120.421C209.642 119.98 209.974 119.593 210.413 119.561C210.842 119.528 211.238 119.862 211.27 120.303C211.367 121.616 210.638 122.358 210.113 122.907C209.61 123.423 209.363 123.703 209.406 124.262C209.449 124.832 209.738 125.08 210.295 125.51C210.895 125.973 211.72 126.608 211.817 127.92C211.913 129.233 211.185 129.986 210.66 130.524C210.167 131.029 209.91 131.32 209.952 131.89C209.985 132.331 209.652 132.719 209.213 132.751C209.192 132.751 209.17 132.751 209.149 132.751L209.16 132.762Z" fill="#27449B"/>
<path d="M226.368 131.406C225.95 131.406 225.596 131.083 225.564 130.653C225.467 129.34 226.196 128.587 226.721 128.049C227.214 127.544 227.471 127.253 227.428 126.683C227.385 126.113 227.096 125.865 226.539 125.435C225.939 124.972 225.114 124.338 225.017 123.025C224.921 121.712 225.65 120.97 226.175 120.421C226.678 119.905 226.925 119.625 226.882 119.066C226.85 118.625 227.182 118.237 227.621 118.205C228.06 118.173 228.446 118.506 228.478 118.947C228.575 120.26 227.846 121.002 227.321 121.551C226.828 122.057 226.571 122.347 226.614 122.907C226.657 123.477 226.946 123.724 227.503 124.155C228.103 124.617 228.928 125.252 229.025 126.565C229.121 127.877 228.393 128.63 227.868 129.168C227.375 129.674 227.118 129.964 227.16 130.535C227.193 130.976 226.86 131.363 226.421 131.395C226.4 131.395 226.378 131.395 226.357 131.395L226.368 131.406Z" fill="#27449B"/>
<path d="M242.932 257.884C242.589 257.884 242.268 257.659 242.161 257.314L224.299 199.982C218.256 199.314 168.348 193.257 151.365 190.837C150.926 190.772 150.615 190.363 150.679 189.922C150.744 189.481 151.14 189.18 151.59 189.234C170.416 191.913 223.71 198.325 224.974 198.432C225.296 198.465 225.574 198.68 225.671 198.992L243.693 256.83C243.821 257.25 243.586 257.712 243.168 257.841C243.093 257.863 243.007 257.874 242.932 257.874V257.884Z" fill="#27449B"/>
<path d="M282.619 260.424H246.661C246.222 260.424 245.857 260.058 245.857 259.617C245.857 259.176 246.222 258.81 246.661 258.81H279.008L261.104 250.386C260.708 250.203 260.526 249.719 260.719 249.31C260.901 248.901 261.383 248.729 261.79 248.923L282.962 258.885C283.305 259.046 283.487 259.423 283.401 259.789C283.316 260.155 282.994 260.424 282.619 260.424Z" fill="#27449B"/>
<path d="M197.599 234.743L197.256 234.549C192.21 231.752 187.817 229.654 183.82 228.126L183.038 227.825L183.37 227.05C184.592 224.21 188.342 222.306 192.692 222.306C198.049 222.306 202.421 225.297 202.421 228.976C202.421 231.257 200.76 233.355 197.974 234.581L197.61 234.743H197.599ZM185.256 226.953C188.985 228.438 193.067 230.396 197.674 232.935C199.646 231.967 200.803 230.504 200.803 228.965C200.803 226.222 197.085 223.909 192.681 223.909C189.445 223.909 186.542 225.124 185.256 226.943V226.953Z" fill="#27449B"/>
<path d="M161.212 225.555C160.89 225.555 160.58 225.35 160.462 225.028L148.944 194.054C148.794 193.634 148.997 193.171 149.415 193.021C149.833 192.859 150.294 193.075 150.444 193.494L161.962 224.468C162.112 224.888 161.908 225.35 161.49 225.501C161.394 225.533 161.308 225.555 161.212 225.555Z" fill="#27449B"/>
<path d="M291.298 272.721C291.191 272.721 291.073 272.699 290.977 272.656C282.651 268.944 271.444 260.628 270.972 260.273C270.619 260.004 270.544 259.498 270.801 259.143C271.069 258.788 271.572 258.713 271.926 258.971C272.044 259.057 283.466 267.535 291.63 271.171C292.037 271.354 292.22 271.828 292.037 272.236C291.909 272.538 291.609 272.721 291.298 272.721Z" fill="#27449B"/>
<path d="M234.435 151.621C234.349 157.872 232.902 164.672 227.438 166.834C226.591 167.168 225.638 167.394 224.577 167.48C211.27 168.631 205.569 163.972 205.184 142.444C205.141 139.26 232.752 137.162 233.374 140.303C233.599 141.433 234.049 143.918 234.285 147.092" fill="#27449B"/>
<path d="M221.16 168.448C216.36 168.448 213.006 167.383 210.51 165.124C206.481 161.476 204.584 154.483 204.37 142.455C204.37 141.777 204.327 139.701 216.253 138.442C218.01 138.259 233.482 136.721 234.157 140.142C234.596 142.337 234.907 144.714 235.089 147.028C235.121 147.469 234.789 147.856 234.35 147.888C233.91 147.931 233.525 147.587 233.492 147.146C233.321 144.897 233.01 142.584 232.592 140.454C232.132 139.873 227.599 139.184 219.424 139.776C211.302 140.357 206.395 141.745 205.977 142.52C206.202 153.967 207.927 160.594 211.602 163.919C214.303 166.361 218.288 167.211 224.514 166.673C225.446 166.597 226.335 166.393 227.16 166.07C232.389 164.005 233.578 157.065 233.642 151.6C233.642 151.159 233.985 150.825 234.457 150.804C234.896 150.804 235.26 151.18 235.25 151.621C235.132 160.164 232.539 165.683 227.739 167.577C226.764 167.953 225.724 168.19 224.642 168.276C223.41 168.383 222.253 168.437 221.16 168.437V168.448Z" fill="#27449B"/>
<path d="M233.6 158.711C236.985 158.787 239.975 156.872 241.528 153.203C238.11 153.203 230.149 150.061 230.149 150.061L233.6 158.711Z" fill="#27449B"/>
<path d="M233.782 159.518C233.718 159.518 233.653 159.518 233.589 159.518C233.268 159.518 232.978 159.314 232.861 159.013L229.41 150.363C229.293 150.061 229.357 149.717 229.582 149.491C229.807 149.265 230.15 149.19 230.45 149.308C230.525 149.341 238.293 152.396 241.529 152.396C241.797 152.396 242.054 152.536 242.204 152.762C242.354 152.988 242.375 153.278 242.268 153.526C240.672 157.291 237.5 159.529 233.782 159.529V159.518ZM231.575 151.46L234.146 157.905C236.739 157.786 238.914 156.366 240.297 153.924C237.629 153.569 233.782 152.267 231.586 151.46H231.575Z" fill="#27449B"/>
</g>
<defs>
<clipPath id="clip0_274_4164">
<rect width="472" height="389" fill="white"/>
</clipPath>
</defs>
</svg>
