<svg width="56" height="56" viewBox="0 0 56 56" fill="none" xmlns="http://www.w3.org/2000/svg">
<path d="M51.375 44V43.75V22.75C51.375 22.3522 51.217 21.9706 50.9357 21.6893C50.6544 21.408 50.2728 21.25 49.875 21.25H43.575C43.1772 21.25 42.7956 21.408 42.5143 21.6893C42.233 21.9706 42.075 22.3522 42.075 22.75C42.075 23.1478 42.233 23.5294 42.5143 23.8107C42.7956 24.092 43.1772 24.25 43.575 24.25H48.125H48.375V24.5V43.75V44H48.125H43.75H43.5V43.75V40.2501C43.5 40.2501 43.5 40.25 43.5 40.25C43.4996 39.061 43.2497 37.8854 42.7665 36.799C42.2834 35.7127 41.5777 34.7397 40.695 33.9431L40.694 33.9422C40.3996 33.6736 40.0104 33.533 39.6123 33.5513C39.2141 33.5696 38.8396 33.7453 38.571 34.0397C38.3023 34.3342 38.1617 34.7233 38.18 35.1215C38.1983 35.5192 38.3737 35.8935 38.6676 36.162C38.6679 36.1623 38.6682 36.1625 38.6685 36.1628L38.5 36.3475L51.375 44ZM51.375 44H51.625M51.375 44H51.625M51.625 44H52.5C52.8978 44 53.2794 44.158 53.5607 44.4393C53.842 44.7206 54 45.1022 54 45.5V52.5C54 52.8978 53.842 53.2794 53.5607 53.5607C53.2794 53.842 52.8978 54 52.5 54H3.5C3.10217 54 2.72064 53.842 2.43934 53.5607C2.15804 53.2794 2 52.8978 2 52.5V45.5C2 45.1022 2.15804 44.7206 2.43934 44.4393C2.72064 44.158 3.10217 44 3.5 44H4.375H4.625V43.75V22.75C4.625 22.3522 4.78304 21.9706 5.06434 21.6893C5.34564 21.408 5.72718 21.25 6.125 21.25H12.425C12.8228 21.25 13.2044 21.408 13.4857 21.6893C13.767 21.9706 13.925 22.3522 13.925 22.75C13.925 23.1478 13.767 23.5294 13.4857 23.8107C13.2044 24.092 12.8228 24.25 12.425 24.25H7.875H7.625V24.5V43.75V44H7.875H12.25H12.5M51.625 44H12.5M12.5 44V43.75M12.5 44V43.75M12.5 43.75L12.5 40.2505C12.5 40.2504 12.5 40.2503 12.5 40.2501V43.75ZM50.75 51H51V50.75V47.25V47H50.75H5.25H5V47.25V50.75V51H5.25H50.75Z" fill="#27449B" stroke="white" stroke-width="0.5"/>
<path d="M23.625 40.875H21.875C21.4772 40.875 21.0956 40.717 20.8143 40.4357C20.533 40.1544 20.375 39.7728 20.375 39.375C20.375 38.9772 20.533 38.5956 20.8143 38.3143C21.0956 38.033 21.4772 37.875 21.875 37.875H23.625C24.0228 37.875 24.4044 38.033 24.6857 38.3143C24.967 38.5956 25.125 38.9772 25.125 39.375C25.125 39.7728 24.967 40.1544 24.6857 40.4357C24.4044 40.717 24.0228 40.875 23.625 40.875Z" fill="#27449B" stroke="white" stroke-width="0.5"/>
<path d="M34.125 40.875H32.375C31.9772 40.875 31.5956 40.717 31.3143 40.4357C31.033 40.1544 30.875 39.7728 30.875 39.375C30.875 38.9772 31.033 38.5956 31.3143 38.3143C31.5956 38.033 31.9772 37.875 32.375 37.875H34.125C34.5228 37.875 34.9044 38.033 35.1857 38.3143C35.467 38.5956 35.625 38.9772 35.625 39.375C35.625 39.7728 35.467 40.1544 35.1857 40.4357C34.9044 40.717 34.5228 40.875 34.125 40.875Z" fill="#27449B" stroke="white" stroke-width="0.5"/>
<path d="M30.695 27.2475C29.8813 27.7375 28.9499 27.9976 28 28C27.0442 28.0008 26.1063 27.7406 25.2875 27.2475L17.675 22.75C17.5671 23.3273 17.5085 23.9128 17.5 24.5C17.5 27.2848 18.6062 29.9555 20.5754 31.9246C22.5445 33.8938 25.2152 35 28 35C30.7848 35 33.4555 33.8938 35.4246 31.9246C37.3938 29.9555 38.5 27.2848 38.5 24.5C38.4915 23.9128 38.4329 23.3273 38.325 22.75L30.695 27.2475Z" fill="#39B715"/>
<path d="M28 21C27.2702 20.9971 26.549 20.8421 25.8825 20.545L17.5 16.8875V17.5C17.5001 17.8037 17.5791 18.1021 17.7295 18.366C17.8798 18.6299 18.0963 18.8501 18.3575 19.005L27.1075 24.255C27.3735 24.4085 27.6753 24.4894 27.9825 24.4894C28.2897 24.4894 28.5915 24.4085 28.8575 24.255L37.6075 19.005C37.8752 18.8545 38.0987 18.6362 38.2553 18.372C38.412 18.1078 38.4964 17.8071 38.5 17.5V16.8875L30.1 20.5625C29.4376 20.8513 28.7227 21.0002 28 21Z" fill="#39B715"/>
<path d="M42.7005 8.01499L28.7005 1.89C28.4797 1.79363 28.2414 1.7439 28.0005 1.7439C27.7596 1.7439 27.5213 1.79363 27.3005 1.89L13.3005 8.01499C12.9848 8.14947 12.7156 8.37379 12.5264 8.66005C12.3372 8.9463 12.2363 9.28186 12.2363 9.62499C12.2363 9.96813 12.3372 10.3037 12.5264 10.5899C12.7156 10.8762 12.9848 11.1005 13.3005 11.235L27.3005 17.36C27.5213 17.4564 27.7596 17.5061 28.0005 17.5061C28.2414 17.5061 28.4797 17.4564 28.7005 17.36L40.2505 12.25V15.75C40.2505 16.2141 40.4348 16.6592 40.763 16.9874C41.0912 17.3156 41.5363 17.5 42.0005 17.5C42.4646 17.5 42.9097 17.3156 43.2379 16.9874C43.5661 16.6592 43.7505 16.2141 43.7505 15.75V9.53749C43.7351 9.21098 43.6286 8.89529 43.443 8.62621C43.2574 8.35712 43.0002 8.14538 42.7005 8.01499Z" fill="#39B715"/>
</svg>
