<svg width="56" height="56" viewBox="0 0 56 56" fill="none" xmlns="http://www.w3.org/2000/svg">
<path d="M15.1492 34.9788L15.2217 35.0821L15.1817 35.2017L12.4889 43.2627C12.4264 43.4923 12.4195 43.7335 12.4686 43.9664C12.5182 44.2013 12.6235 44.4209 12.7756 44.6067L12.7809 44.6132L12.7858 44.62C12.9238 44.8139 13.106 44.9721 13.3172 45.0817C13.5283 45.1911 13.7623 45.2488 14 45.25C14.0003 45.25 14.0005 45.25 14.0008 45.25L20.995 45.25C21.2329 45.2409 21.4652 45.1752 21.6727 45.0585C21.8815 44.9411 22.0591 44.7753 22.1907 44.5752L22.192 44.5733L24.292 41.4408L24.3882 41.2972L24.5565 41.3366C25.6856 41.6005 26.8403 41.7391 27.9998 41.75C28.6214 41.7452 29.2422 41.7049 29.8592 41.6294L30.0114 41.6107L30.097 41.738L32.0045 44.573L32.0059 44.575C32.1418 44.7814 32.3265 44.9509 32.5437 45.0687C32.7607 45.1863 33.0034 45.2486 33.2502 45.25C33.2504 45.25 33.2507 45.25 33.2509 45.25L40.2496 45.25L40.2521 45.25C40.4875 45.2524 40.7201 45.1993 40.9312 45.0951C41.1417 44.9911 41.3248 44.8392 41.4659 44.6517C41.6046 44.4597 41.6959 44.2376 41.7323 44.0036C41.7688 43.7691 41.7491 43.5294 41.6749 43.304C41.6748 43.3037 41.6748 43.3035 41.6747 43.3033L39.5051 36.8295L39.459 36.6919L39.5556 36.5836C41.6989 34.1817 43.0412 31.172 43.3961 27.9725L43.4208 27.75H43.6446H48.2821H48.8911L48.4578 28.1779L47.0582 29.56C47.0581 29.5601 47.058 29.5602 47.0579 29.5603C46.9175 29.6996 46.8059 29.8655 46.7298 30.0482C46.6537 30.2309 46.6145 30.427 46.6145 30.625C46.6145 30.823 46.6537 31.0191 46.7298 31.2019C46.806 31.3847 46.9176 31.5506 47.0582 31.69L47.0596 31.6915C47.1991 31.8321 47.365 31.9437 47.5478 32.0198C47.7305 32.096 47.9266 32.1352 48.1246 32.1352C48.3226 32.1352 48.5187 32.096 48.7015 32.0198C48.8843 31.9437 49.0502 31.8321 49.1896 31.6915L49.1903 31.6907L53.5653 27.3157L53.5661 27.315C53.7067 27.1756 53.8183 27.0097 53.8944 26.8269C53.9706 26.6441 54.0098 26.448 54.0098 26.25C54.0098 26.052 53.9706 25.8559 53.8944 25.6732C53.8183 25.4904 53.7067 25.3245 53.5661 25.185L53.5653 25.1843L49.1903 20.8093C49.0504 20.6693 48.8842 20.5583 48.7014 20.4826C48.5185 20.4068 48.3225 20.3679 48.1246 20.3679C47.9267 20.3679 47.7307 20.4068 47.5479 20.4826C47.365 20.5583 47.1988 20.6693 47.0589 20.8093C46.9189 20.9493 46.8079 21.1154 46.7322 21.2983C46.6564 21.4811 46.6175 21.6771 46.6175 21.875C46.6175 22.0729 46.6564 22.2689 46.7322 22.4518C46.8078 22.6344 46.9187 22.8004 47.0584 22.9402C47.0585 22.9404 47.0587 22.9406 47.0589 22.9407L48.4578 24.3221L48.8911 24.75H48.2821H43.6446H43.4183L43.3958 24.5248C43.0509 21.0604 41.5497 17.813 39.134 15.3058C36.7184 12.7987 33.529 11.1778 30.0798 10.7044C26.6306 10.231 23.1225 10.9326 20.1206 12.6962C17.1188 14.4597 14.7981 17.1825 13.5325 20.4259L13.5325 20.4259L13.531 20.4296C13.4561 20.6129 13.4181 20.8092 13.419 21.0073C13.42 21.2053 13.4599 21.4012 13.5366 21.5838C13.6133 21.7664 13.7251 21.9322 13.8658 22.0715C14.0066 22.2109 14.1733 22.3212 14.3567 22.3961C14.54 22.471 14.7363 22.5091 14.9344 22.5081C15.1324 22.5072 15.3283 22.4672 15.5109 22.3906C15.6935 22.3139 15.8593 22.202 15.9986 22.0613C16.1379 21.9206 16.2482 21.7539 16.3231 21.5707C17.4092 18.8802 19.3974 16.6514 21.9469 15.2664C24.4966 13.8811 27.4487 13.4261 30.2972 13.9793C33.1457 14.5324 35.7129 16.0594 37.5588 18.2982C39.4047 20.5371 40.4142 23.3483 40.4142 26.25C40.4142 29.1517 39.4047 31.963 37.5588 34.2018C35.7129 36.4407 33.1457 37.9676 30.2972 38.5208C27.4487 39.0739 24.4966 38.6189 21.9469 37.2337C19.3973 35.8485 17.4091 33.6196 16.323 30.9291C16.2481 30.7459 16.1379 30.5793 15.9986 30.4387C15.8593 30.298 15.6935 30.1862 15.5109 30.1095C15.3283 30.0328 15.1324 29.9929 14.9344 29.9919C14.7363 29.991 14.54 30.029 14.3567 30.1039C14.1733 30.1789 14.0066 30.2891 13.8658 30.4285C13.7251 30.5679 13.6133 30.7336 13.5366 30.9162C13.4599 31.0988 13.42 31.2947 13.419 31.4928C13.4181 31.6902 13.4559 31.8859 13.5304 32.0688C13.967 33.0926 14.5096 34.068 15.1492 34.9788ZM34.1946 42.25H34.0615L33.9872 42.1395L33.3047 41.1245L33.1277 40.8613L33.425 40.7507C34.6038 40.3122 35.7258 39.7339 36.7668 39.0281L37.041 38.8422L37.1446 39.1569L38.0546 41.9219L38.1626 42.25H37.8171H34.1946ZM20.2616 42.1403L20.1872 42.25H20.0546H16.4321H16.0858L16.1948 41.9213L17.4723 38.0713L17.5919 37.711L17.8756 37.9631C18.8854 38.86 20.0145 39.6128 21.2308 40.1999L21.4915 40.3257L21.3291 40.5653L20.2616 42.1403Z" fill="#27449B" stroke="white" stroke-width="0.5"/>
<path d="M5.40828 26.25L2.25828 23.1175C2.09511 22.9544 1.96568 22.7606 1.87738 22.5475C1.78907 22.3343 1.74362 22.1058 1.74362 21.875C1.74362 21.6443 1.78907 21.4158 1.87738 21.2026C1.96568 20.9894 2.09511 20.7957 2.25828 20.6325C2.42145 20.4694 2.61516 20.3399 2.82835 20.2516C3.04153 20.1633 3.27003 20.1179 3.50078 20.1179C3.73153 20.1179 3.96003 20.1633 4.17322 20.2516C4.3864 20.3399 4.58011 20.4694 4.74328 20.6325L8.59328 24.5H19.4258C19.1901 25.6548 19.1901 26.8453 19.4258 28H8.59328L4.74328 31.8675C4.58059 32.0315 4.38704 32.1617 4.17379 32.2506C3.96054 32.3394 3.7318 32.3852 3.50078 32.3852C3.26976 32.3852 3.04102 32.3394 2.82777 32.2506C2.61452 32.1617 2.42097 32.0315 2.25828 31.8675C2.09426 31.7048 1.96406 31.5113 1.87522 31.298C1.78637 31.0848 1.74063 30.856 1.74063 30.625C1.74063 30.394 1.78637 30.1653 1.87522 29.952C1.96406 29.7388 2.09426 29.5452 2.25828 29.3825L5.40828 26.25Z" fill="#39B715"/>
<path d="M27.9998 26.25C27.9998 25.7859 27.8155 25.3408 27.4873 25.0126C27.1591 24.6844 26.714 24.5 26.2498 24.5H19.4248C19.8585 22.3754 21.0656 20.4876 22.8121 19.2024C24.5586 17.9173 26.7201 17.3264 28.8775 17.5443C31.0349 17.7623 33.0345 18.7735 34.4887 20.382C35.9429 21.9905 36.748 24.0816 36.748 26.25C36.748 28.4184 35.9429 30.5095 34.4887 32.118C33.0345 33.7265 31.0349 34.7378 28.8775 34.9557C26.7201 35.1737 24.5586 34.5828 22.8121 33.2976C21.0656 32.0125 19.8585 30.1246 19.4248 28H26.2498C26.714 28 27.1591 27.8156 27.4873 27.4875C27.8155 27.1593 27.9998 26.7141 27.9998 26.25Z" fill="#39B715"/>
</svg>
