<svg id="Warstwa_1" data-name="Warstwa 1" xmlns="http://www.w3.org/2000/svg" viewBox="0 0 1080.68 453.6"><defs><style>.cls-1{fill:#ebeefa;fill-rule:evenodd;}</style></defs><path class="cls-1" d="M863.66,592.65c48.86,0,217-79.52,217-128.38V313.88a.68.68,0,0,0-.68-.68H746.6c-73.9,0-131.25,63-167.41,127.5A268.11,268.11,0,0,1,345.14,577.8c-120.73,0-222.83-79.74-256.43-189.4C76.31,347.94,43,313.2.68,313.2a.67.67,0,0,0-.68.68V766.13a.67.67,0,0,0,.68.67H536.47c62.59,0,114.09-46.71,154.66-94.38A226,226,0,0,1,863.66,592.65Z" transform="translate(0 -313.2)"/></svg>