<svg width="100%" height="100%" viewBox="0 0 1600 672" fill="none" xmlns="http://www.w3.org/2000/svg">
<path fill-rule="evenodd" clip-rule="evenodd" d="M1279.5 414C1351.88 414 1601 296.188 1601 223.809L1601 1.00024C1601 0.447937 1600.55 0.000244101 1600 0.000244053L1106.08 0.000200874C996.588 0.000191301 911.63 93.3959 858.053 188.886C790.048 310.089 660.255 392 511.319 392C332.455 392 181.201 273.862 131.421 111.404C113.055 51.4657 63.6893 0.000109745 1.00006 0.000104264C0.447813 0.000104216 5.8709e-05 0.447797 5.86607e-05 1.0001L8.74227e-08 671C3.91406e-08 671.552 0.447754 672 1 672L794.774 672C887.501 672 963.791 602.799 1023.89 532.182C1085.43 459.87 1177.11 414 1279.5 414Z" fill="#192B62"/>
</svg>
