<svg width="80" height="80" viewBox="0 0 80 80" fill="none" xmlns="http://www.w3.org/2000/svg">
<mask id="path-1-inside-1_480_7283" fill="white">
<path d="M75 72.5V70C74.997 68.3575 74.5894 66.741 73.8132 65.2934C73.0371 63.8458 71.9163 62.6116 70.55 61.7C71.59 60.4157 72.2451 58.8631 72.4393 57.2219C72.6336 55.5807 72.3591 53.9181 71.6476 52.4265C70.9362 50.9348 69.8168 49.6752 68.4191 48.7933C67.0215 47.9114 65.4026 47.4434 63.75 47.4434C62.0974 47.4434 60.4785 47.9114 59.0809 48.7933C57.6832 49.6752 56.5638 50.9348 55.8524 52.4265C55.1409 53.9181 54.8664 55.5807 55.0607 57.2219C55.2549 58.8631 55.91 60.4157 56.95 61.7C55.5837 62.6116 54.4629 63.8458 53.6868 65.2934C52.9106 66.741 52.503 68.3575 52.5 70V72.5H51.25V65C51.247 63.3575 50.8394 61.741 50.0632 60.2934C49.2871 58.8458 48.1663 57.6116 46.8 56.7C47.84 55.4157 48.4951 53.8631 48.6893 52.2219C48.8836 50.5807 48.6091 48.9181 47.8976 47.4265C47.1862 45.9348 46.0668 44.6752 44.6691 43.7933C43.2715 42.9114 41.6526 42.4434 40 42.4434C38.3474 42.4434 36.7285 42.9114 35.3309 43.7933C33.9332 44.6752 32.8138 45.9348 32.1024 47.4265C31.3909 48.9181 31.1164 50.5807 31.3107 52.2219C31.5049 53.8631 32.16 55.4157 33.2 56.7C31.8336 57.6116 30.7129 58.8458 29.9368 60.2934C29.1606 61.741 28.753 63.3575 28.75 65V72.5H27.5V70C27.497 68.3575 27.0894 66.741 26.3132 65.2934C25.5371 63.8458 24.4164 62.6116 23.05 61.7C24.09 60.4157 24.7451 58.8631 24.9393 57.2219C25.1336 55.5807 24.8591 53.9181 24.1476 52.4265C23.4362 50.9348 22.3168 49.6752 20.9191 48.7933C19.5215 47.9114 17.9026 47.4434 16.25 47.4434C14.5974 47.4434 12.9785 47.9114 11.5809 48.7933C10.1832 49.6752 9.06384 50.9348 8.35237 52.4265C7.6409 53.9181 7.3664 55.5807 7.56065 57.2219C7.75491 58.8631 8.40996 60.4157 9.45 61.7C8.08365 62.6116 6.96289 63.8458 6.18676 65.2934C5.41064 66.741 5.00304 68.3575 5 70V72.5C4.33696 72.5 3.70107 72.7634 3.23223 73.2322C2.76339 73.7011 2.5 74.337 2.5 75C2.5 75.663 2.76339 76.2989 3.23223 76.7678C3.70107 77.2366 4.33696 77.5 5 77.5H75C75.663 77.5 76.2989 77.2366 76.7678 76.7678C77.2366 76.2989 77.5 75.663 77.5 75C77.5 74.337 77.2366 73.7011 76.7678 73.2322C76.2989 72.7634 75.663 72.5 75 72.5ZM63.75 52.5C64.4917 52.5 65.2167 52.7199 65.8334 53.132C66.4501 53.5441 66.9307 54.1297 67.2145 54.8149C67.4984 55.5002 67.5726 56.2542 67.4279 56.9816C67.2833 57.709 66.9261 58.3772 66.4016 58.9017C65.8772 59.4261 65.209 59.7833 64.4816 59.928C63.7542 60.0726 63.0002 59.9984 62.3149 59.7146C61.6297 59.4307 61.044 58.9501 60.632 58.3334C60.2199 57.7167 60 56.9917 60 56.25C60 55.2554 60.3951 54.3016 61.0984 53.5984C61.8016 52.8951 62.7554 52.5 63.75 52.5ZM57.5 70C57.5 68.6739 58.0268 67.4022 58.9645 66.4645C59.9021 65.5268 61.1739 65 62.5 65H65C66.3261 65 67.5978 65.5268 68.5355 66.4645C69.4732 67.4022 70 68.6739 70 70V72.5H57.5V70ZM40 47.5C40.7417 47.5 41.4667 47.7199 42.0834 48.132C42.7001 48.5441 43.1807 49.1297 43.4645 49.8149C43.7484 50.5002 43.8226 51.2542 43.6779 51.9816C43.5332 52.709 43.1761 53.3772 42.6516 53.9017C42.1272 54.4261 41.459 54.7833 40.7316 54.928C40.0042 55.0726 39.2502 54.9984 38.5649 54.7146C37.8797 54.4307 37.294 53.9501 36.882 53.3334C36.4699 52.7167 36.25 51.9917 36.25 51.25C36.25 50.2554 36.6451 49.3016 37.3484 48.5984C38.0516 47.8951 39.0054 47.5 40 47.5ZM33.75 65C33.75 63.6739 34.2768 62.4022 35.2145 61.4645C36.1521 60.5268 37.4239 60 38.75 60H41.25C42.5761 60 43.8479 60.5268 44.7855 61.4645C45.7232 62.4022 46.25 63.6739 46.25 65V72.5H33.75V65ZM16.25 52.5C16.9917 52.5 17.7167 52.7199 18.3334 53.132C18.9501 53.5441 19.4307 54.1297 19.7145 54.8149C19.9984 55.5002 20.0726 56.2542 19.9279 56.9816C19.7832 57.709 19.4261 58.3772 18.9017 58.9017C18.3772 59.4261 17.709 59.7833 16.9816 59.928C16.2542 60.0726 15.5002 59.9984 14.8149 59.7146C14.1297 59.4307 13.544 58.9501 13.132 58.3334C12.7199 57.7167 12.5 56.9917 12.5 56.25C12.5 55.2554 12.8951 54.3016 13.5983 53.5984C14.3016 52.8951 15.2554 52.5 16.25 52.5ZM10 70C10 68.6739 10.5268 67.4022 11.4645 66.4645C12.4021 65.5268 13.6739 65 15 65H17.5C18.8261 65 20.0979 65.5268 21.0355 66.4645C21.9732 67.4022 22.5 68.6739 22.5 70V72.5H10V70Z"/>
</mask>
<path d="M75 72.5V70C74.997 68.3575 74.5894 66.741 73.8132 65.2934C73.0371 63.8458 71.9163 62.6116 70.55 61.7C71.59 60.4157 72.2451 58.8631 72.4393 57.2219C72.6336 55.5807 72.3591 53.9181 71.6476 52.4265C70.9362 50.9348 69.8168 49.6752 68.4191 48.7933C67.0215 47.9114 65.4026 47.4434 63.75 47.4434C62.0974 47.4434 60.4785 47.9114 59.0809 48.7933C57.6832 49.6752 56.5638 50.9348 55.8524 52.4265C55.1409 53.9181 54.8664 55.5807 55.0607 57.2219C55.2549 58.8631 55.91 60.4157 56.95 61.7C55.5837 62.6116 54.4629 63.8458 53.6868 65.2934C52.9106 66.741 52.503 68.3575 52.5 70V72.5H51.25V65C51.247 63.3575 50.8394 61.741 50.0632 60.2934C49.2871 58.8458 48.1663 57.6116 46.8 56.7C47.84 55.4157 48.4951 53.8631 48.6893 52.2219C48.8836 50.5807 48.6091 48.9181 47.8976 47.4265C47.1862 45.9348 46.0668 44.6752 44.6691 43.7933C43.2715 42.9114 41.6526 42.4434 40 42.4434C38.3474 42.4434 36.7285 42.9114 35.3309 43.7933C33.9332 44.6752 32.8138 45.9348 32.1024 47.4265C31.3909 48.9181 31.1164 50.5807 31.3107 52.2219C31.5049 53.8631 32.16 55.4157 33.2 56.7C31.8336 57.6116 30.7129 58.8458 29.9368 60.2934C29.1606 61.741 28.753 63.3575 28.75 65V72.5H27.5V70C27.497 68.3575 27.0894 66.741 26.3132 65.2934C25.5371 63.8458 24.4164 62.6116 23.05 61.7C24.09 60.4157 24.7451 58.8631 24.9393 57.2219C25.1336 55.5807 24.8591 53.9181 24.1476 52.4265C23.4362 50.9348 22.3168 49.6752 20.9191 48.7933C19.5215 47.9114 17.9026 47.4434 16.25 47.4434C14.5974 47.4434 12.9785 47.9114 11.5809 48.7933C10.1832 49.6752 9.06384 50.9348 8.35237 52.4265C7.6409 53.9181 7.3664 55.5807 7.56065 57.2219C7.75491 58.8631 8.40996 60.4157 9.45 61.7C8.08365 62.6116 6.96289 63.8458 6.18676 65.2934C5.41064 66.741 5.00304 68.3575 5 70V72.5C4.33696 72.5 3.70107 72.7634 3.23223 73.2322C2.76339 73.7011 2.5 74.337 2.5 75C2.5 75.663 2.76339 76.2989 3.23223 76.7678C3.70107 77.2366 4.33696 77.5 5 77.5H75C75.663 77.5 76.2989 77.2366 76.7678 76.7678C77.2366 76.2989 77.5 75.663 77.5 75C77.5 74.337 77.2366 73.7011 76.7678 73.2322C76.2989 72.7634 75.663 72.5 75 72.5ZM63.75 52.5C64.4917 52.5 65.2167 52.7199 65.8334 53.132C66.4501 53.5441 66.9307 54.1297 67.2145 54.8149C67.4984 55.5002 67.5726 56.2542 67.4279 56.9816C67.2833 57.709 66.9261 58.3772 66.4016 58.9017C65.8772 59.4261 65.209 59.7833 64.4816 59.928C63.7542 60.0726 63.0002 59.9984 62.3149 59.7146C61.6297 59.4307 61.044 58.9501 60.632 58.3334C60.2199 57.7167 60 56.9917 60 56.25C60 55.2554 60.3951 54.3016 61.0984 53.5984C61.8016 52.8951 62.7554 52.5 63.75 52.5ZM57.5 70C57.5 68.6739 58.0268 67.4022 58.9645 66.4645C59.9021 65.5268 61.1739 65 62.5 65H65C66.3261 65 67.5978 65.5268 68.5355 66.4645C69.4732 67.4022 70 68.6739 70 70V72.5H57.5V70ZM40 47.5C40.7417 47.5 41.4667 47.7199 42.0834 48.132C42.7001 48.5441 43.1807 49.1297 43.4645 49.8149C43.7484 50.5002 43.8226 51.2542 43.6779 51.9816C43.5332 52.709 43.1761 53.3772 42.6516 53.9017C42.1272 54.4261 41.459 54.7833 40.7316 54.928C40.0042 55.0726 39.2502 54.9984 38.5649 54.7146C37.8797 54.4307 37.294 53.9501 36.882 53.3334C36.4699 52.7167 36.25 51.9917 36.25 51.25C36.25 50.2554 36.6451 49.3016 37.3484 48.5984C38.0516 47.8951 39.0054 47.5 40 47.5ZM33.75 65C33.75 63.6739 34.2768 62.4022 35.2145 61.4645C36.1521 60.5268 37.4239 60 38.75 60H41.25C42.5761 60 43.8479 60.5268 44.7855 61.4645C45.7232 62.4022 46.25 63.6739 46.25 65V72.5H33.75V65ZM16.25 52.5C16.9917 52.5 17.7167 52.7199 18.3334 53.132C18.9501 53.5441 19.4307 54.1297 19.7145 54.8149C19.9984 55.5002 20.0726 56.2542 19.9279 56.9816C19.7832 57.709 19.4261 58.3772 18.9017 58.9017C18.3772 59.4261 17.709 59.7833 16.9816 59.928C16.2542 60.0726 15.5002 59.9984 14.8149 59.7146C14.1297 59.4307 13.544 58.9501 13.132 58.3334C12.7199 57.7167 12.5 56.9917 12.5 56.25C12.5 55.2554 12.8951 54.3016 13.5983 53.5984C14.3016 52.8951 15.2554 52.5 16.25 52.5ZM10 70C10 68.6739 10.5268 67.4022 11.4645 66.4645C12.4021 65.5268 13.6739 65 15 65H17.5C18.8261 65 20.0979 65.5268 21.0355 66.4645C21.9732 67.4022 22.5 68.6739 22.5 70V72.5H10V70Z" fill="#27449B" stroke="white" stroke-width="3" mask="url(#path-1-inside-1_480_7283)"/>
<path d="M63.1473 13.126L67.8378 10.9398C68.7138 10.5315 69.7549 10.9106 70.1633 11.7866C70.5716 12.6627 70.1924 13.7038 69.3164 14.1121L64.6259 16.2984C63.7498 16.7067 62.7087 16.3275 62.3004 15.4515C61.8921 14.5755 62.2712 13.5343 63.1473 13.126Z" fill="#39B715" stroke="white" stroke-width="1.5"/>
<path d="M62.33 24.5864C62.7385 23.7105 63.7797 23.3315 64.6556 23.74L69.3458 25.927C70.2217 26.3355 70.6007 27.3767 70.1922 28.2526C69.7838 29.1286 68.7426 29.5075 67.8666 29.0991L63.1765 26.912C62.3005 26.5036 61.9216 25.4624 62.33 24.5864Z" fill="#39B715" stroke="white" stroke-width="1.5"/>
<path d="M9.81928 11.7725C10.2277 10.8966 11.269 10.5176 12.1449 10.9261L16.835 13.1131C17.711 13.5216 18.09 14.5628 17.6815 15.4387C17.273 16.3147 16.2318 16.6936 15.3559 16.2852L10.6657 14.0981C9.7898 13.6897 9.41082 12.6485 9.81928 11.7725Z" fill="#39B715" stroke="white" stroke-width="1.5"/>
<path d="M10.6443 25.9069L15.3348 23.7207C16.2109 23.3124 17.252 23.6915 17.6603 24.5675C18.0686 25.4435 17.6895 26.4847 16.8135 26.893L12.1229 29.0792C11.2469 29.4875 10.2058 29.1084 9.79746 28.2324C9.38915 27.3564 9.76831 26.3152 10.6443 25.9069Z" fill="#39B715" stroke="white" stroke-width="1.5"/>
<path d="M40 37.5C43.4612 37.5 46.8446 36.4737 49.7225 34.5507C52.6003 32.6278 54.8434 29.8947 56.1679 26.697C57.4924 23.4993 57.839 19.9806 57.1637 16.5859C56.4885 13.1913 54.8218 10.0731 52.3744 7.62564C49.927 5.17822 46.8088 3.51151 43.4141 2.83627C40.0194 2.16102 36.5007 2.50758 33.303 3.83212C30.1053 5.15665 27.3722 7.39967 25.4493 10.2775C23.5264 13.1554 22.5 16.5388 22.5 20C22.5 24.6413 24.3437 29.0925 27.6256 32.3744C30.9075 35.6563 35.3587 37.5 40 37.5ZM36.775 18.275L38.3 19.8L43.3 14.8C43.5324 14.5657 43.8089 14.3797 44.1136 14.2528C44.4182 14.1259 44.745 14.0605 45.075 14.0605C45.405 14.0605 45.7318 14.1259 46.0364 14.2528C46.3411 14.3797 46.6176 14.5657 46.85 14.8C47.0843 15.0324 47.2703 15.3089 47.3972 15.6136C47.5242 15.9182 47.5895 16.245 47.5895 16.575C47.5895 16.905 47.5242 17.2318 47.3972 17.5364C47.2703 17.8411 47.0843 18.1176 46.85 18.35L40 25C39.7664 25.2317 39.4894 25.415 39.1848 25.5394C38.8802 25.6638 38.554 25.7269 38.225 25.725C37.896 25.7269 37.5698 25.6638 37.2652 25.5394C36.9606 25.415 36.6836 25.2317 36.45 25L33.225 21.825C32.9907 21.5926 32.8047 21.3161 32.6778 21.0114C32.5508 20.7068 32.4855 20.38 32.4855 20.05C32.4855 19.72 32.5508 19.3932 32.6778 19.0886C32.8047 18.7839 32.9907 18.5074 33.225 18.275C33.4574 18.0407 33.7339 17.8547 34.0386 17.7278C34.3432 17.6009 34.67 17.5355 35 17.5355C35.33 17.5355 35.6568 17.6009 35.9614 17.7278C36.2661 17.8547 36.5426 18.0407 36.775 18.275Z" fill="#39B715"/>
</svg>
