<svg width="80" height="80" viewBox="0 0 80 80" fill="none" xmlns="http://www.w3.org/2000/svg">
<path d="M62.5 54.25H30C29.5359 54.25 29.0908 54.0656 28.7626 53.7374C28.4344 53.4093 28.25 52.9641 28.25 52.5C28.25 52.0359 28.4344 51.5907 28.7626 51.2626C29.0908 50.9344 29.5359 50.75 30 50.75H62.5C62.9641 50.75 63.4093 50.9344 63.7374 51.2626C64.0656 51.5907 64.25 52.0359 64.25 52.5C64.25 52.9641 64.0656 53.4093 63.7374 53.7374C63.4093 54.0656 62.9641 54.25 62.5 54.25Z" fill="#27449B" stroke="white" stroke-width="1.5"/>
<path d="M20 54.25H17.5C17.0359 54.25 16.5908 54.0656 16.2626 53.7374C15.9344 53.4093 15.75 52.9641 15.75 52.5C15.75 52.0359 15.9344 51.5907 16.2626 51.2626C16.5908 50.9344 17.0359 50.75 17.5 50.75H20C20.4641 50.75 20.9092 50.9344 21.2374 51.2626C21.5656 51.5907 21.75 52.0359 21.75 52.5C21.75 52.9641 21.5656 53.4093 21.2374 53.7374C20.9092 54.0656 20.4641 54.25 20 54.25Z" fill="#27449B" stroke="white" stroke-width="1.5"/>
<path d="M17.5 60.75H62.5C62.9641 60.75 63.4093 60.9344 63.7374 61.2626C64.0656 61.5907 64.25 62.0359 64.25 62.5C64.25 62.9641 64.0656 63.4093 63.7374 63.7374C63.4093 64.0656 62.9641 64.25 62.5 64.25H17.5C17.0359 64.25 16.5908 64.0656 16.2626 63.7374C15.9344 63.4093 15.75 62.9641 15.75 62.5C15.75 62.0359 15.9344 61.5907 16.2626 61.2626C16.5908 60.9344 17.0359 60.75 17.5 60.75Z" fill="#27449B" stroke="white" stroke-width="1.5"/>
<path d="M67.5 20.75H70C71.7902 20.75 73.5071 21.4612 74.773 22.727L75.3033 22.1967L74.773 22.727C76.0388 23.9929 76.75 25.7098 76.75 27.5V70C76.75 71.7902 76.0388 73.5071 74.773 74.773C73.5071 76.0388 71.7902 76.75 70 76.75H10C8.20979 76.75 6.4929 76.0388 5.22703 74.773C3.96116 73.5071 3.25 71.7902 3.25 70V27.5C3.25 25.7098 3.96116 23.9929 5.22703 22.727C6.4929 21.4612 8.20979 20.75 10 20.75H12.5C12.9641 20.75 13.4092 20.9344 13.7374 21.2626C14.0656 21.5908 14.25 22.0359 14.25 22.5C14.25 22.9641 14.0656 23.4092 13.7374 23.7374C13.4092 24.0656 12.9641 24.25 12.5 24.25H10C9.13805 24.25 8.3114 24.5924 7.7019 25.2019C7.09241 25.8114 6.75 26.638 6.75 27.5V70C6.75 70.862 7.09241 71.6886 7.7019 72.2981C8.3114 72.9076 9.13805 73.25 10 73.25H70C70.862 73.25 71.6886 72.9076 72.2981 72.2981C72.9076 71.6886 73.25 70.8619 73.25 70V27.5C73.25 26.638 72.9076 25.8114 72.2981 25.2019C71.6886 24.5924 70.862 24.25 70 24.25H67.5C67.0359 24.25 66.5908 24.0656 66.2626 23.7374C65.9344 23.4092 65.75 22.9641 65.75 22.5C65.75 22.0359 65.9344 21.5908 66.2626 21.2626C66.5908 20.9344 67.0359 20.75 67.5 20.75Z" fill="#27449B" stroke="white" stroke-width="1.5"/>
<path d="M39.9998 2.5C36.612 2.50582 33.2811 3.37216 30.3197 5.01773C27.3583 6.66331 24.8635 9.03419 23.0692 11.9079C21.275 14.7817 20.2402 18.0642 20.0619 21.4473C19.8836 24.8305 20.5676 28.2036 22.0498 31.25C24.0227 27.1542 27.3531 23.868 31.4748 21.95C31.3361 21.309 31.2607 20.6558 31.2498 20C31.2498 17.6794 32.1717 15.4538 33.8126 13.8128C35.4536 12.1719 37.6792 11.25 39.9998 11.25C42.3205 11.25 44.5461 12.1719 46.187 13.8128C47.828 15.4538 48.7498 17.6794 48.7498 20C48.739 20.6558 48.6636 21.309 48.5248 21.95C52.6466 23.868 55.977 27.1542 57.9498 31.25C59.432 28.2036 60.1161 24.8305 59.9378 21.4473C59.7594 18.0642 58.7246 14.7817 56.9304 11.9079C55.1362 9.03419 52.6414 6.66331 49.68 5.01773C46.7186 3.37216 43.3877 2.50582 39.9998 2.5Z" fill="#39B715"/>
<path d="M46.0254 26.3C44.4143 27.8728 42.252 28.7533 40.0004 28.7533C37.7488 28.7533 35.5865 27.8728 33.9754 26.3C31.9026 27.2197 30.0654 28.5974 28.6018 30.3294C27.1382 32.0615 26.0864 34.1028 25.5254 36.3C27.3931 38.2589 29.6391 39.8184 32.1272 40.8839C34.6153 41.9494 37.2937 42.4987 40.0004 42.4987C42.707 42.4987 45.3855 41.9494 47.8736 40.8839C50.3617 39.8184 52.6076 38.2589 54.4754 36.3C53.9144 34.1028 52.8626 32.0615 51.399 30.3294C49.9354 28.5974 48.0981 27.2197 46.0254 26.3Z" fill="#39B715"/>
<path d="M40 23.75C42.0711 23.75 43.75 22.0711 43.75 20C43.75 17.9289 42.0711 16.25 40 16.25C37.9289 16.25 36.25 17.9289 36.25 20C36.25 22.0711 37.9289 23.75 40 23.75Z" fill="#39B715"/>
</svg>
