<svg width="18" height="18" viewBox="0 0 18 18" fill="none" xmlns="http://www.w3.org/2000/svg">
<path d="M16.1497 5.33375C16.1611 5.49364 16.1611 5.65357 16.1611 5.81346C16.1611 10.6903 12.4492 16.3096 5.66497 16.3096C3.57486 16.3096 1.63325 15.7043 0 14.6536C0.296965 14.6878 0.582469 14.6992 0.890859 14.6992C2.61545 14.6992 4.20303 14.1168 5.4708 13.1231C3.84898 13.0888 2.48984 12.0267 2.02155 10.5647C2.25 10.599 2.47841 10.6218 2.71828 10.6218C3.04949 10.6218 3.38073 10.5761 3.68909 10.4962C1.99874 10.1535 0.730934 8.66878 0.730934 6.87563V6.82997C1.22203 7.10408 1.79314 7.2754 2.39843 7.29821C1.40477 6.63576 0.753785 5.50507 0.753785 4.22587C0.753785 3.54061 0.936492 2.91244 1.25631 2.36421C3.0723 4.60278 5.80201 6.06468 8.86289 6.22461C8.8058 5.9505 8.77152 5.66499 8.77152 5.37945C8.77152 3.34644 10.4162 1.69037 12.4606 1.69037C13.5228 1.69037 14.4822 2.1358 15.156 2.85534C15.9898 2.69545 16.7893 2.38706 17.4974 1.96448C17.2233 2.8211 16.6408 3.54064 15.8756 3.99746C16.618 3.91755 17.3375 3.71192 17.9999 3.42642C17.4975 4.15735 16.8693 4.80834 16.1497 5.33375Z" fill="#C2C5D6"/>
</svg>
