<svg width="18" height="18" viewBox="0 0 18 18" fill="none" xmlns="http://www.w3.org/2000/svg">
<path d="M17.6239 4.98027C17.4169 4.20079 16.8069 3.5869 16.0325 3.37857C14.6288 3 9 3 9 3C9 3 3.37127 3 1.96752 3.37857C1.19308 3.58693 0.583143 4.20079 0.376127 4.98027C0 6.39312 0 9.34091 0 9.34091C0 9.34091 0 12.2887 0.376127 13.7015C0.583143 14.481 1.19308 15.0693 1.96752 15.2777C3.37127 15.6562 9 15.6562 9 15.6562C9 15.6562 14.6287 15.6562 16.0325 15.2777C16.8069 15.0693 17.4169 14.481 17.6239 13.7015C18 12.2887 18 9.34091 18 9.34091C18 9.34091 18 6.39312 17.6239 4.98027ZM7.15908 12.0173V6.66454L11.8636 9.34097L7.15908 12.0173Z" fill="#C2C5D6"/>
</svg>
